<!-- Generated by readme-aura https://github.com/collectioneur/readme-aura -->
<svg width="800" height="100" viewBox="0 0 800 100" xmlns="http://www.w3.org/2000/svg"><defs><clipPath id="satori_bc-id"><path x="0" y="0" width="800" height="100" d="M16,0 h768 a16,16 0 0 1 16,16 v68 a16,16 0 0 1 -16,16 h-768 a16,16 0 0 1 -16,-16 v-68 a16,16 0 0 1 16,-16"/></clipPath></defs><clipPath id="satori_cp-id"><path x="0" y="0" width="800" height="100" d="M16,0 h768 a16,16 0 0 1 16,16 v68 a16,16 0 0 1 -16,16 h-768 a16,16 0 0 1 -16,-16 v-68 a16,16 0 0 1 16,-16"/></clipPath><mask id="satori_om-id"><rect x="1" y="1" width="798" height="98" fill="#fff"/><path width="800" height="100" fill="none" stroke="#000" stroke-width="2" d="M4.686,4.686 A16,16 0 0 1 16,0 h768 a16,16 0 0 1 16,16 v68 a16,16 0 0 1 -16,16 h-768 a16,16 0 0 1 -16,-16 v-68 A16,16 0 0 1 4.686,4.686"/></mask><path x="0" y="0" width="800" height="100" fill="#06060a" d="M16,0 h768 a16,16 0 0 1 16,16 v68 a16,16 0 0 1 -16,16 h-768 a16,16 0 0 1 -16,-16 v-68 a16,16 0 0 1 16,-16"/><path width="800" height="100" clip-path="url(#satori_bc-id)" fill="none" stroke="rgba(110,80,220,0.15)" stroke-width="2" d="M4.686,4.686 A16,16 0 0 1 16,0 h768 a16,16 0 0 1 16,16 v68 a16,16 0 0 1 -16,16 h-768 a16,16 0 0 1 -16,-16 v-68 A16,16 0 0 1 4.686,4.686"/><clipPath id="satori_cp-id-0" clip-path="url(#satori_cp-id)"><rect x="1" y="1" width="800" height="100"/></clipPath><mask id="satori_om-id-0"><rect x="1" y="1" width="800" height="100" fill="#fff" mask="url(#satori_om-id)"/></mask><svg x="1" y="1" width="800" height="100" preserveAspectRatio="none" clip-path="url(#satori_cp-id-0)" mask="url(#satori_om-id-0)"><defs><radialGradient id="stg1" cx="50%" cy="50%" r="50%"><stop offset="0%" stop-color="rgba(120,40,220,0.5)"></stop><stop offset="100%" stop-color="rgba(120,40,220,0)"></stop></radialGradient><linearGradient id="st-scg" x1="0%" y1="0%" x2="100%" y2="0%"><stop offset="0%" stop-color="rgba(120,200,255,0)"></stop><stop offset="45%" stop-color="rgba(120,200,255,0.12)"></stop><stop offset="50%" stop-color="rgba(180,120,255,0.3)"></stop><stop offset="55%" stop-color="rgba(120,200,255,0.12)"></stop><stop offset="100%" stop-color="rgba(120,200,255,0)"></stop></linearGradient></defs><ellipse id="stat-g1" cx="400" cy="50" rx="250" ry="60" fill="url(#stg1)"></ellipse><rect id="stat-scan1" x="0" y="50" width="160" height="1" fill="url(#st-scg)"></rect><style>

      @keyframes stat-drift-r { 0%, 100% { transform: translate(0, 0); opacity: 0.7; } 50% { transform: translate(25px, -12px); opacity: 1; } }
      @keyframes stat-scan { 0% { transform: translate(-900px, 0); } 100% { transform: translate(900px, 0); } }
      #stat-g1 { animation: stat-drift-r 7s ease-in-out infinite; }
      #stat-scan1 { animation: stat-scan 4s linear infinite; }
    
</style>
</svg><mask id="satori_om-id-0-0"><rect x="1" y="1" width="0" height="100" fill="#fff" mask="url(#satori_om-id)"/></mask><mask id="satori_om-id-0-0-0"><rect x="1" y="1" width="0" height="100" fill="#fff" mask="url(#satori_om-id)"/></mask><mask id="satori_om-id-0-0-0-0"><rect x="1" y="1" width="0" height="100" fill="#fff" mask="url(#satori_om-id)"/></mask><mask id="satori_om-id-0-0-0-1"><rect x="1" y="1" width="0" height="100" fill="#fff" mask="url(#satori_om-id)"/></mask><mask id="satori_om-id-0-0-1"><rect x="1" y="1" width="0" height="100" fill="#fff" mask="url(#satori_om-id)"/></mask><mask id="satori_om-id-0-0-1-0"><rect x="1" y="1" width="0" height="100" fill="#fff" mask="url(#satori_om-id)"/></mask><mask id="satori_om-id-0-0-1-1"><rect x="1" y="1" width="0" height="100" fill="#fff" mask="url(#satori_om-id)"/></mask><mask id="satori_om-id-0-0-1-2"><rect x="1" y="1" width="0" height="100" fill="#fff" mask="url(#satori_om-id)"/></mask><mask id="satori_om-id-0-0-1-3"><rect x="1" y="1" width="0" height="100" fill="#fff" mask="url(#satori_om-id)"/></mask><mask id="satori_om-id-0-0-1-4"><rect x="1" y="1" width="0" height="100" fill="#fff" mask="url(#satori_om-id)"/></mask><mask id="satori_om-id-0-1"><rect x="1" y="1" width="0" height="100" fill="#fff" mask="url(#satori_om-id)"/></mask><mask id="satori_om-id-0-2"><rect x="1" y="1" width="0" height="100" fill="#fff" mask="url(#satori_om-id)"/></mask><mask id="satori_om-id-1"><rect x="204" y="28" width="392" height="45" fill="#fff" mask="url(#satori_om-id)"/></mask><mask id="satori_om-id-1-0"><rect x="204" y="28" width="44" height="45" fill="#fff" mask="url(#satori_om-id)"/></mask><mask id="satori_om-id-1-0-0"><rect x="211" y="28" width="31" height="29" fill="#fff" mask="url(#satori_om-id)"/></mask><g mask="url(#satori_om-id)" clip-path="url(#satori_cp-id)"><path fill="#ffffff" d="M224.8 51L212.5 51L212.5 48.4L218.6 42.6Q219.4 41.8 220.0 41.2Q220.5 40.6 220.8 40.0Q221.1 39.4 221.1 38.7L221.1 38.7Q221.1 37.9 220.8 37.3Q220.4 36.8 219.8 36.5Q219.2 36.2 218.4 36.2L218.4 36.2Q217.6 36.2 217.0 36.5Q216.4 36.8 216.0 37.4Q215.7 38.0 215.7 38.9L215.7 38.9L212.3 38.9Q212.3 37.2 213.1 35.9Q213.8 34.7 215.2 34.0Q216.6 33.3 218.4 33.3L218.4 33.3Q220.3 33.3 221.7 34.0Q223.0 34.6 223.8 35.8Q224.6 36.9 224.6 38.5L224.6 38.5Q224.6 39.4 224.2 40.4Q223.8 41.3 222.8 42.5Q221.9 43.7 220.1 45.3L220.1 45.3L217.4 47.9L217.4 48.1L224.8 48.1L224.8 51ZM233.9 51.2L233.9 51.2Q232.0 51.2 230.5 50.6Q228.9 49.9 228.1 48.8Q227.2 47.7 227.2 46.3L227.2 46.3Q227.2 45.2 227.7 44.3Q228.2 43.4 229.1 42.8Q229.9 42.2 231.0 42.0L231.0 42.0L231.0 41.9Q229.6 41.6 228.7 40.5Q227.9 39.4 227.9 38.0L227.9 38.0Q227.9 36.6 228.6 35.6Q229.4 34.5 230.8 33.9Q232.2 33.3 233.9 33.3L233.9 33.3Q235.7 33.3 237.0 33.9Q238.4 34.5 239.2 35.6Q240.0 36.6 240.0 38.0L240.0 38.0Q240.0 39.4 239.1 40.5Q238.2 41.6 236.9 41.9L236.9 41.9L236.9 42.0Q237.9 42.2 238.8 42.8Q239.6 43.4 240.1 44.3Q240.6 45.2 240.6 46.3L240.6 46.3Q240.6 47.7 239.8 48.8Q238.9 49.9 237.4 50.6Q235.9 51.2 233.9 51.2ZM233.9 48.6L233.9 48.6Q234.8 48.6 235.5 48.3Q236.2 47.9 236.5 47.4Q236.9 46.8 236.9 46.0L236.9 46.0Q236.9 45.3 236.5 44.7Q236.1 44.1 235.5 43.7Q234.8 43.4 233.9 43.4L233.9 43.4Q233.1 43.4 232.4 43.7Q231.7 44.1 231.3 44.7Q230.9 45.2 230.9 46.0L230.9 46.0Q230.9 46.8 231.3 47.4Q231.7 47.9 232.4 48.3Q233.0 48.6 233.9 48.6ZM233.9 40.8L233.9 40.8Q234.7 40.8 235.3 40.5Q235.8 40.1 236.2 39.6Q236.5 39.1 236.5 38.4L236.5 38.4Q236.5 37.7 236.2 37.1Q235.8 36.6 235.3 36.3Q234.7 36.0 233.9 36.0L233.9 36.0Q233.2 36.0 232.6 36.3Q232 36.6 231.7 37.1Q231.3 37.7 231.3 38.4L231.3 38.4Q231.3 39.1 231.7 39.6Q232 40.1 232.6 40.5Q233.2 40.8 233.9 40.8Z "/></g><mask id="satori_om-id-1-0-1"><rect x="204" y="61" width="44" height="12" fill="#fff" mask="url(#satori_om-id)"/></mask><g mask="url(#satori_om-id)" clip-path="url(#satori_cp-id)"><path fill="#b8860b" d="M207.3 71.1L207.3 71.1Q206.5 71.1 205.8 70.8Q205.2 70.6 204.8 70.0Q204.4 69.5 204.4 68.7L204.4 68.7L205.9 68.7Q205.9 69.1 206.1 69.4Q206.3 69.6 206.6 69.7Q206.9 69.8 207.3 69.8L207.3 69.8Q207.7 69.8 208.0 69.7Q208.3 69.6 208.5 69.4Q208.6 69.2 208.6 68.9L208.6 68.9Q208.6 68.7 208.5 68.5Q208.3 68.3 208.1 68.2Q207.8 68.1 207.4 68.0L207.4 68.0L206.6 67.8Q205.7 67.6 205.1 67.1Q204.6 66.6 204.6 65.8L204.6 65.8Q204.6 65.2 205.0 64.7Q205.3 64.2 205.9 63.9Q206.6 63.6 207.3 63.6L207.3 63.6Q208.2 63.6 208.8 63.9Q209.4 64.2 209.7 64.7Q210.0 65.2 210.0 65.8L210.0 65.8L208.6 65.8Q208.6 65.4 208.2 65.1Q207.9 64.9 207.3 64.9L207.3 64.9Q207.0 64.9 206.7 65.0Q206.4 65.1 206.3 65.3Q206.1 65.5 206.1 65.7L206.1 65.7Q206.1 66.0 206.3 66.2Q206.5 66.3 206.7 66.5Q207.0 66.6 207.3 66.6L207.3 66.6L208.0 66.8Q208.4 66.9 208.8 67.1Q209.2 67.3 209.5 67.5Q209.8 67.8 210.0 68.1Q210.1 68.5 210.1 68.9L210.1 68.9Q210.1 69.6 209.8 70.1Q209.5 70.6 208.8 70.8Q208.2 71.1 207.3 71.1ZM215.1 65.0L212.9 65.0L212.9 63.7L218.9 63.7L218.9 65.0L216.6 65.0L216.6 71L215.1 71L215.1 65.0ZM223.1 71L221.5 71L223.9 63.7L225.9 63.7L228.4 71L226.8 71L226.2 69.3L223.6 69.3L223.1 71ZM224.0 68.1L225.8 68.1L225.6 67.5Q225.4 66.8 225.2 66L225.2 66Q225.1 65.5 224.9 64.9L224.9 64.9Q224.8 65.5 224.6 66.0L224.6 66.0Q224.4 66.8 224.2 67.5L224.2 67.5L224.0 68.1ZM232.8 71L231.3 71L231.3 63.7L234.2 63.7Q235.0 63.7 235.6 64.0Q236.2 64.3 236.5 64.8Q236.8 65.4 236.8 66.1Q236.8 66.8 236.5 67.3Q236.2 67.9 235.6 68.1L235.6 68.1Q235.5 68.1 235.5 68.2L235.5 68.2L237.0 71L235.4 71L234.0 68.4L232.8 68.4L232.8 71ZM232.8 65.0L232.8 67.2L233.9 67.2Q234.4 67.2 234.7 67.1Q235.0 66.9 235.1 66.7Q235.2 66.5 235.2 66.1L235.2 66.1Q235.2 65.7 235.1 65.5Q235.0 65.2 234.7 65.1Q234.4 65.0 233.9 65.0L233.9 65.0L232.8 65.0ZM242.6 71.1L242.6 71.1Q241.7 71.1 241.1 70.8Q240.4 70.6 240.1 70.0Q239.7 69.5 239.7 68.7L239.7 68.7L241.1 68.7Q241.2 69.1 241.3 69.4Q241.5 69.6 241.8 69.7Q242.2 69.8 242.6 69.8L242.6 69.8Q243.0 69.8 243.3 69.7Q243.6 69.6 243.7 69.4Q243.9 69.2 243.9 68.9L243.9 68.9Q243.9 68.7 243.7 68.5Q243.6 68.3 243.3 68.2Q243.0 68.1 242.6 68.0L242.6 68.0L241.8 67.8Q240.9 67.6 240.4 67.1Q239.9 66.6 239.9 65.8L239.9 65.8Q239.9 65.2 240.2 64.7Q240.6 64.2 241.2 63.9Q241.8 63.6 242.6 63.6L242.6 63.6Q243.4 63.6 244.0 63.9Q244.6 64.2 244.9 64.7Q245.3 65.2 245.3 65.8L245.3 65.8L243.9 65.8Q243.8 65.4 243.5 65.1Q243.1 64.9 242.6 64.9L242.6 64.9Q242.2 64.9 241.9 65.0Q241.7 65.1 241.5 65.3Q241.4 65.5 241.4 65.7L241.4 65.7Q241.4 66.0 241.6 66.2Q241.7 66.3 242.0 66.5Q242.3 66.6 242.6 66.6L242.6 66.6L243.2 66.8Q243.7 66.9 244.1 67.1Q244.5 67.3 244.8 67.5Q245.1 67.8 245.2 68.1Q245.4 68.5 245.4 68.9L245.4 68.9Q245.4 69.6 245.1 70.1Q244.7 70.6 244.1 70.8Q243.5 71.1 242.6 71.1Z "/></g><mask id="satori_om-id-1-1"><rect x="278" y="31" width="1" height="40" fill="#fff" mask="url(#satori_om-id)"/></mask><rect x="278" y="31" width="1" height="40" fill="rgba(120,80,220,0.2)" clip-path="url(#satori_cp-id)" mask="url(#satori_om-id)"/><mask id="satori_om-id-1-2"><rect x="309" y="28" width="44" height="45" fill="#fff" mask="url(#satori_om-id)"/></mask><mask id="satori_om-id-1-2-0"><rect x="323" y="28" width="17" height="29" fill="#fff" mask="url(#satori_om-id)"/></mask><g mask="url(#satori_om-id)" clip-path="url(#satori_cp-id)"><path fill="#ffffff" d="M332.5 47.9L324.2 47.9L324.2 45.1L331.5 33.5L336.0 33.5L336.0 45.0L338.2 45.0L338.2 47.9L336.0 47.9L336.0 51L332.5 51L332.5 47.9ZM327.8 45.0L332.6 45.0L332.6 37.5L332.5 37.5L327.8 44.9L327.8 45.0Z "/></g><mask id="satori_om-id-1-2-1"><rect x="309" y="61" width="44" height="12" fill="#fff" mask="url(#satori_om-id)"/></mask><g mask="url(#satori_om-id)" clip-path="url(#satori_cp-id)"><path fill="#8b7ec8" d="M311.1 71L309.7 71L309.7 63.7L314.4 63.7L314.4 65.0L311.1 65.0L311.1 67.0L314.1 67.0L314.1 68.2L311.1 68.2L311.1 71ZM320.7 71.1L320.7 71.1Q319.8 71.1 319.0 70.7Q318.2 70.2 317.8 69.4Q317.3 68.5 317.3 67.4L317.3 67.4Q317.3 66.2 317.8 65.3Q318.2 64.5 319.0 64.1Q319.8 63.6 320.7 63.6L320.7 63.6Q321.7 63.6 322.5 64.1Q323.2 64.5 323.7 65.3Q324.1 66.2 324.1 67.4L324.1 67.4Q324.1 68.5 323.7 69.4Q323.2 70.2 322.5 70.7Q321.7 71.1 320.7 71.1ZM320.7 69.8L320.7 69.8Q321.3 69.8 321.7 69.5Q322.1 69.2 322.4 68.7Q322.6 68.1 322.6 67.4L322.6 67.4Q322.6 66.6 322.4 66.0Q322.1 65.5 321.7 65.2Q321.3 65.0 320.7 65.0L320.7 65.0Q320.2 65.0 319.7 65.2Q319.3 65.5 319.1 66.0Q318.8 66.6 318.8 67.4L318.8 67.4Q318.8 68.1 319.1 68.7Q319.3 69.2 319.7 69.5Q320.2 69.8 320.7 69.8ZM328.7 71L327.2 71L327.2 63.7L330.1 63.7Q330.9 63.7 331.5 64.0Q332.1 64.3 332.4 64.8Q332.7 65.4 332.7 66.1Q332.7 66.8 332.4 67.3Q332.1 67.9 331.5 68.1L331.5 68.1Q331.4 68.1 331.4 68.2L331.4 68.2L332.9 71L331.3 71L329.9 68.4L328.7 68.4L328.7 71ZM328.7 65.0L328.7 67.2L329.8 67.2Q330.3 67.2 330.5 67.1Q330.8 66.9 331.0 66.7Q331.1 66.5 331.1 66.1L331.1 66.1Q331.1 65.7 331.0 65.5Q330.8 65.2 330.5 65.1Q330.3 65.0 329.8 65.0L329.8 65.0L328.7 65.0ZM337.3 71L335.8 71L335.8 63.7L337.3 63.7L337.3 65.7L337.3 67.4Q337.3 67.3 337.3 67.3L337.3 67.3Q337.6 66.9 337.8 66.6Q338.1 66.2 338.4 65.8L338.4 65.8L340.2 63.7L342.0 63.7L339.3 66.9L342.1 71L340.3 71L338.3 67.9L337.3 68.9L337.3 71ZM347.7 71.1L347.7 71.1Q346.8 71.1 346.1 70.8Q345.5 70.6 345.1 70.0Q344.8 69.5 344.7 68.7L344.7 68.7L346.2 68.7Q346.2 69.1 346.4 69.4Q346.6 69.6 346.9 69.7Q347.2 69.8 347.6 69.8L347.6 69.8Q348.0 69.8 348.3 69.7Q348.6 69.6 348.8 69.4Q349.0 69.2 349.0 68.9L349.0 68.9Q349.0 68.7 348.8 68.5Q348.7 68.3 348.4 68.2Q348.1 68.1 347.7 68.0L347.7 68.0L346.9 67.8Q346.0 67.6 345.5 67.1Q344.9 66.6 344.9 65.8L344.9 65.8Q344.9 65.2 345.3 64.7Q345.7 64.2 346.3 63.9Q346.9 63.6 347.7 63.6L347.7 63.6Q348.5 63.6 349.1 63.9Q349.7 64.2 350.0 64.7Q350.4 65.2 350.4 65.8L350.4 65.8L348.9 65.8Q348.9 65.4 348.6 65.1Q348.2 64.9 347.7 64.9L347.7 64.9Q347.3 64.9 347.0 65.0Q346.8 65.1 346.6 65.3Q346.5 65.5 346.5 65.7L346.5 65.7Q346.5 66.0 346.6 66.2Q346.8 66.3 347.1 66.5Q347.3 66.6 347.6 66.6L347.6 66.6L348.3 66.8Q348.8 66.9 349.1 67.1Q349.5 67.3 349.8 67.5Q350.1 67.8 350.3 68.1Q350.5 68.5 350.5 68.9L350.5 68.9Q350.5 69.6 350.1 70.1Q349.8 70.6 349.2 70.8Q348.5 71.1 347.7 71.1Z "/></g><mask id="satori_om-id-1-3"><rect x="383" y="31" width="1" height="40" fill="#fff" mask="url(#satori_om-id)"/></mask><rect x="383" y="31" width="1" height="40" fill="rgba(120,80,220,0.2)" clip-path="url(#satori_cp-id)" mask="url(#satori_om-id)"/><mask id="satori_om-id-1-4"><rect x="414" y="28" width="44" height="45" fill="#fff" mask="url(#satori_om-id)"/></mask><mask id="satori_om-id-1-4-0"><rect x="421" y="28" width="31" height="29" fill="#fff" mask="url(#satori_om-id)"/></mask><g mask="url(#satori_om-id)" clip-path="url(#satori_cp-id)"><path fill="#ffffff" d="M428.4 51.2L428.4 51.2Q426.6 51.2 425.2 50.6Q423.8 49.9 423.0 48.8Q422.1 47.6 422.1 46.1L422.1 46.1L425.6 46.1Q425.6 46.8 426.0 47.3Q426.4 47.8 427 48.1Q427.6 48.4 428.4 48.4L428.4 48.4Q429.2 48.4 429.9 48.0Q430.6 47.6 431.0 46.9Q431.4 46.2 431.4 45.3L431.4 45.3Q431.4 44.4 431.0 43.6Q430.6 42.9 429.9 42.5Q429.2 42.1 428.3 42.1L428.3 42.1Q427.5 42.1 426.8 42.4Q426.1 42.7 425.7 43.3L425.7 43.3L422.5 42.7L423.3 33.5L433.9 33.5L433.9 36.5L426.3 36.5L425.8 40.9L425.9 40.9Q426.4 40.3 427.3 39.9Q428.2 39.5 429.3 39.5L429.3 39.5Q430.5 39.5 431.5 39.9Q432.5 40.3 433.3 41.1Q434.0 41.8 434.4 42.9Q434.8 43.9 434.8 45.2L434.8 45.2Q434.8 47.0 434.0 48.3Q433.2 49.7 431.7 50.5Q430.3 51.2 428.4 51.2ZM449.7 51L437.4 51L437.4 48.4L443.6 42.6Q444.4 41.8 444.9 41.2Q445.5 40.6 445.7 40.0Q446.0 39.4 446.0 38.7L446.0 38.7Q446.0 37.9 445.7 37.3Q445.3 36.8 444.7 36.5Q444.1 36.2 443.3 36.2L443.3 36.2Q442.5 36.2 441.9 36.5Q441.3 36.8 441.0 37.4Q440.6 38.0 440.6 38.9L440.6 38.9L437.2 38.9Q437.2 37.2 438.0 35.9Q438.8 34.7 440.2 34.0Q441.5 33.3 443.3 33.3L443.3 33.3Q445.2 33.3 446.6 34.0Q448.0 34.6 448.7 35.8Q449.5 36.9 449.5 38.5L449.5 38.5Q449.5 39.4 449.1 40.4Q448.7 41.3 447.8 42.5Q446.8 43.7 445.0 45.3L445.0 45.3L442.4 47.9L442.4 48.1L449.7 48.1L449.7 51Z "/></g><mask id="satori_om-id-1-4-1"><rect x="414" y="61" width="44" height="12" fill="#fff" mask="url(#satori_om-id)"/></mask><g mask="url(#satori_om-id)" clip-path="url(#satori_cp-id)"><path fill="#5a9ca8" d="M416.1 71L414.7 71L414.7 63.7L417.5 63.7Q418.3 63.7 418.9 64.0Q419.5 64.3 419.8 64.8Q420.1 65.4 420.1 66.1Q420.1 66.8 419.8 67.3Q419.5 67.9 418.9 68.1L418.9 68.1Q418.8 68.1 418.8 68.2L418.8 68.2L420.4 71L418.7 71L417.3 68.4L416.1 68.4L416.1 71ZM416.1 65.0L416.1 67.2L417.2 67.2Q417.7 67.2 418.0 67.1Q418.3 66.9 418.4 66.7Q418.6 66.5 418.6 66.1L418.6 66.1Q418.6 65.7 418.4 65.5Q418.3 65.2 418.0 65.1Q417.7 65.0 417.2 65.0L417.2 65.0L416.1 65.0ZM428.1 71L423.2 71L423.2 63.7L428.1 63.7L428.1 65.0L424.7 65.0L424.7 66.7L427.8 66.7L427.8 67.9L424.7 67.9L424.7 69.8L428.1 69.8L428.1 71ZM432.8 71L431.3 71L431.3 63.7L434.1 63.7Q435.0 63.7 435.5 64.0Q436.1 64.4 436.4 64.9Q436.7 65.5 436.7 66.2L436.7 66.2Q436.7 66.9 436.4 67.5Q436.1 68.0 435.5 68.3Q434.9 68.6 434.1 68.6L434.1 68.6L432.8 68.6L432.8 71ZM432.8 65.0L432.8 67.4L433.9 67.4Q434.3 67.4 434.6 67.3Q434.9 67.1 435.1 66.8Q435.2 66.5 435.2 66.2Q435.2 65.8 435.1 65.5Q434.9 65.3 434.6 65.1Q434.3 65.0 433.9 65.0L433.9 65.0L432.8 65.0ZM443.0 71.1L443.0 71.1Q442.0 71.1 441.2 70.7Q440.5 70.2 440.0 69.4Q439.6 68.5 439.6 67.4L439.6 67.4Q439.6 66.2 440.0 65.3Q440.5 64.5 441.2 64.1Q442.0 63.6 443.0 63.6L443.0 63.6Q443.9 63.6 444.7 64.1Q445.5 64.5 445.9 65.3Q446.4 66.2 446.4 67.4L446.4 67.4Q446.4 68.5 445.9 69.4Q445.5 70.2 444.7 70.7Q443.9 71.1 443.0 71.1ZM443.0 69.8L443.0 69.8Q443.5 69.8 444.0 69.5Q444.4 69.2 444.6 68.7Q444.9 68.1 444.9 67.4L444.9 67.4Q444.9 66.6 444.6 66.0Q444.4 65.5 444.0 65.2Q443.5 65.0 443.0 65.0L443.0 65.0Q442.4 65.0 442.0 65.2Q441.6 65.5 441.3 66.0Q441.1 66.6 441.1 67.4L441.1 67.4Q441.1 68.1 441.3 68.7Q441.6 69.2 442.0 69.5Q442.4 69.8 443.0 69.8ZM452.2 71.1L452.2 71.1Q451.3 71.1 450.6 70.8Q450.0 70.6 449.6 70.0Q449.3 69.5 449.2 68.7L449.2 68.7L450.7 68.7Q450.7 69.1 450.9 69.4Q451.1 69.6 451.4 69.7Q451.7 69.8 452.1 69.8L452.1 69.8Q452.5 69.8 452.8 69.7Q453.1 69.6 453.3 69.4Q453.5 69.2 453.5 68.9L453.5 68.9Q453.5 68.7 453.3 68.5Q453.2 68.3 452.9 68.2Q452.6 68.1 452.2 68.0L452.2 68.0L451.4 67.8Q450.5 67.6 450.0 67.1Q449.4 66.6 449.4 65.8L449.4 65.8Q449.4 65.2 449.8 64.7Q450.1 64.2 450.8 63.9Q451.4 63.6 452.2 63.6L452.2 63.6Q453.0 63.6 453.6 63.9Q454.2 64.2 454.5 64.7Q454.9 65.2 454.9 65.8L454.9 65.8L453.4 65.8Q453.4 65.4 453.0 65.1Q452.7 64.9 452.2 64.9L452.2 64.9Q451.8 64.9 451.5 65.0Q451.2 65.1 451.1 65.3Q451.0 65.5 451.0 65.7L451.0 65.7Q451.0 66.0 451.1 66.2Q451.3 66.3 451.6 66.5Q451.8 66.6 452.1 66.6L452.1 66.6L452.8 66.8Q453.2 66.9 453.6 67.1Q454.0 67.3 454.3 67.5Q454.6 67.8 454.8 68.1Q455.0 68.5 455.0 68.9L455.0 68.9Q455.0 69.6 454.6 70.1Q454.3 70.6 453.7 70.8Q453.0 71.1 452.2 71.1Z "/></g><mask id="satori_om-id-1-5"><rect x="488" y="31" width="1" height="40" fill="#fff" mask="url(#satori_om-id)"/></mask><rect x="488" y="31" width="1" height="40" fill="rgba(120,80,220,0.2)" clip-path="url(#satori_cp-id)" mask="url(#satori_om-id)"/><mask id="satori_om-id-1-6"><rect x="519" y="28" width="77" height="45" fill="#fff" mask="url(#satori_om-id)"/></mask><mask id="satori_om-id-1-6-0"><rect x="519" y="28" width="77" height="29" fill="#fff" mask="url(#satori_om-id)"/></mask><g mask="url(#satori_om-id)" clip-path="url(#satori_cp-id)"><path fill="#ffffff" d="M528.5 47.9L520.2 47.9L520.2 45.1L527.5 33.5L532.0 33.5L532.0 45.0L534.2 45.0L534.2 47.9L532.0 47.9L532.0 51L528.5 51L528.5 47.9ZM523.8 45.0L528.6 45.0L528.6 37.5L528.5 37.5L523.8 44.9L523.8 45.0ZM543.3 51.2L543.3 51.2Q541.1 51.2 539.6 50.2Q538.0 49.1 537.2 47.1Q536.3 45.1 536.3 42.3L536.3 42.3Q536.3 39.5 537.2 37.4Q538.0 35.4 539.6 34.4Q541.1 33.3 543.3 33.3L543.3 33.3Q545.5 33.3 547.1 34.4Q548.6 35.4 549.5 37.5Q550.3 39.5 550.3 42.3L550.3 42.3Q550.3 45.1 549.5 47.1Q548.7 49.1 547.1 50.2Q545.5 51.2 543.3 51.2ZM543.3 48.3L543.3 48.3Q544.4 48.3 545.1 47.6Q545.9 46.9 546.3 45.5Q546.7 44.2 546.7 42.3L546.7 42.3Q546.7 40.4 546.3 39.0Q545.9 37.7 545.1 37.0Q544.4 36.3 543.3 36.3L543.3 36.3Q542.3 36.3 541.5 37.0Q540.8 37.7 540.4 39.0Q540.0 40.4 540.0 42.3L540.0 42.3Q540.0 44.2 540.4 45.5Q540.8 46.9 541.5 47.6Q542.3 48.3 543.3 48.3ZM556.7 51L553.0 51L560.3 36.6L560.3 36.5L551.8 36.5L551.8 33.5L564.0 33.5L564.0 36.5L556.7 51ZM573.0 47.9L564.7 47.9L564.7 45.1L572.0 33.5L576.5 33.5L576.5 45.0L578.7 45.0L578.7 47.9L576.5 47.9L576.5 51L573.0 51L573.0 47.9ZM568.3 45.0L573.1 45.0L573.1 37.5L573.0 37.5L568.3 44.9L568.3 45.0ZM585.5 51L581.8 51L589.1 36.6L589.1 36.5L580.6 36.5L580.6 33.5L592.8 33.5L592.8 36.5L585.5 51Z "/></g><mask id="satori_om-id-1-6-1"><rect x="526" y="61" width="64" height="12" fill="#fff" mask="url(#satori_om-id)"/></mask><g mask="url(#satori_om-id)" clip-path="url(#satori_cp-id)"><path fill="#7ee7ff" d="M529.8 71.1L529.8 71.1Q528.9 71.1 528.1 70.7Q527.3 70.2 526.9 69.4Q526.5 68.5 526.5 67.4L526.5 67.4Q526.5 66.2 526.9 65.3Q527.3 64.5 528.1 64.1Q528.9 63.6 529.8 63.6L529.8 63.6Q530.5 63.6 531.0 63.8Q531.5 64.0 531.9 64.3Q532.4 64.6 532.6 65.1Q532.9 65.6 533.0 66.2L533.0 66.2L531.5 66.2Q531.4 65.9 531.3 65.7Q531.1 65.4 530.9 65.3Q530.7 65.1 530.4 65.0Q530.2 65.0 529.9 65.0L529.9 65.0Q529.3 65.0 528.9 65.2Q528.4 65.5 528.2 66.1Q528.0 66.6 528.0 67.4L528.0 67.4Q528.0 68.2 528.2 68.7Q528.5 69.2 528.9 69.5Q529.3 69.8 529.9 69.8L529.9 69.8Q530.2 69.8 530.4 69.7Q530.7 69.6 530.9 69.4Q531.1 69.3 531.3 69.0Q531.4 68.8 531.5 68.5L531.5 68.5L533.0 68.5Q532.9 69.0 532.7 69.5Q532.4 69.9 532.0 70.3Q531.6 70.7 531.1 70.9Q530.5 71.1 529.8 71.1ZM539.3 71.1L539.3 71.1Q538.3 71.1 537.5 70.7Q536.8 70.2 536.3 69.4Q535.9 68.5 535.9 67.4L535.9 67.4Q535.9 66.2 536.3 65.3Q536.8 64.5 537.5 64.1Q538.3 63.6 539.3 63.6L539.3 63.6Q540.2 63.6 541.0 64.1Q541.8 64.5 542.2 65.3Q542.6 66.2 542.6 67.4L542.6 67.4Q542.6 68.5 542.2 69.4Q541.8 70.2 541.0 70.7Q540.2 71.1 539.3 71.1ZM539.3 69.8L539.3 69.8Q539.8 69.8 540.2 69.5Q540.7 69.2 540.9 68.7Q541.1 68.1 541.1 67.4L541.1 67.4Q541.1 66.6 540.9 66.0Q540.7 65.5 540.2 65.2Q539.8 65.0 539.3 65.0L539.3 65.0Q538.7 65.0 538.3 65.2Q537.8 65.5 537.6 66.0Q537.4 66.6 537.4 67.4L537.4 67.4Q537.4 68.1 537.6 68.7Q537.8 69.2 538.3 69.5Q538.7 69.8 539.3 69.8ZM547.2 71L545.8 71L545.8 63.7L548.0 63.7L549.2 67.1Q549.3 67.3 549.4 67.7Q549.5 68.0 549.6 68.5L549.6 68.5Q549.7 68.9 549.8 69.3L549.8 69.3Q549.9 68.9 549.9 68.5L549.9 68.5Q550.0 68.1 550.1 67.7Q550.2 67.3 550.3 67.1L550.3 67.1L551.5 63.7L553.8 63.7L553.8 71L552.3 71L552.3 67.6Q552.3 67.3 552.3 67.0Q552.3 66.6 552.3 66.2Q552.3 65.8 552.3 65.4L552.3 65.4Q552.3 65.2 552.3 65.0L552.3 65.0Q552.3 65.2 552.2 65.4L552.2 65.4Q552.1 65.9 552.0 66.3Q551.9 66.7 551.8 67.0Q551.7 67.3 551.6 67.6L551.6 67.6L550.4 71L549.1 71L547.9 67.6Q547.8 67.3 547.7 67.0Q547.6 66.7 547.5 66.3Q547.4 65.9 547.3 65.4L547.3 65.4Q547.2 65.2 547.2 65.1L547.2 65.1Q547.2 65.2 547.2 65.4L547.2 65.4Q547.2 65.8 547.2 66.2Q547.2 66.6 547.2 67.0Q547.2 67.3 547.2 67.6L547.2 67.6L547.2 71ZM558.6 71L557.1 71L557.1 63.7L559.4 63.7L560.5 67.1Q560.6 67.3 560.7 67.7Q560.8 68.0 560.9 68.5L560.9 68.5Q561.0 68.9 561.1 69.3L561.1 69.3Q561.2 68.9 561.3 68.5L561.3 68.5Q561.4 68.1 561.5 67.7Q561.6 67.3 561.6 67.1L561.6 67.1L562.8 63.7L565.1 63.7L565.1 71L563.6 71L563.6 67.6Q563.6 67.3 563.6 67.0Q563.6 66.6 563.6 66.2Q563.6 65.8 563.6 65.4L563.6 65.4Q563.6 65.2 563.6 65.0L563.6 65.0Q563.6 65.2 563.5 65.4L563.5 65.4Q563.4 65.9 563.3 66.3Q563.2 66.7 563.1 67.0Q563.0 67.3 562.9 67.6L562.9 67.6L561.7 71L560.5 71L559.2 67.6Q559.2 67.3 559.1 67.0Q558.9 66.7 558.8 66.3Q558.7 65.9 558.6 65.4L558.6 65.4Q558.6 65.2 558.5 65.1L558.5 65.1Q558.5 65.2 558.5 65.4L558.5 65.4Q558.5 65.8 558.5 66.2Q558.5 66.6 558.6 67.0Q558.6 67.3 558.6 67.6L558.6 67.6L558.6 71ZM568.4 63.7L569.9 63.7L569.9 71L568.4 71L568.4 63.7ZM575.1 65.0L572.9 65.0L572.9 63.7L578.9 63.7L578.9 65.0L576.6 65.0L576.6 71L575.1 71L575.1 65.0ZM584.5 71.1L584.5 71.1Q583.7 71.1 583.0 70.8Q582.4 70.6 582.0 70.0Q581.7 69.5 581.6 68.7L581.6 68.7L583.1 68.7Q583.1 69.1 583.3 69.4Q583.5 69.6 583.8 69.7Q584.1 69.8 584.5 69.8L584.5 69.8Q584.9 69.8 585.2 69.7Q585.5 69.6 585.7 69.4Q585.9 69.2 585.9 68.9L585.9 68.9Q585.9 68.7 585.7 68.5Q585.6 68.3 585.3 68.2Q585.0 68.1 584.6 68.0L584.6 68.0L583.8 67.8Q582.9 67.6 582.4 67.1Q581.8 66.6 581.8 65.8L581.8 65.8Q581.8 65.2 582.2 64.7Q582.5 64.2 583.2 63.9Q583.8 63.6 584.6 63.6L584.6 63.6Q585.4 63.6 586.0 63.9Q586.6 64.2 586.9 64.7Q587.2 65.2 587.3 65.8L587.3 65.8L585.8 65.8Q585.8 65.4 585.4 65.1Q585.1 64.9 584.5 64.9L584.5 64.9Q584.2 64.9 583.9 65.0Q583.6 65.1 583.5 65.3Q583.4 65.5 583.4 65.7L583.4 65.7Q583.4 66.0 583.5 66.2Q583.7 66.3 583.9 66.5Q584.2 66.6 584.5 66.6L584.5 66.6L585.2 66.8Q585.6 66.9 586.0 67.1Q586.4 67.3 586.7 67.5Q587.0 67.8 587.2 68.1Q587.4 68.5 587.4 68.9L587.4 68.9Q587.4 69.6 587.0 70.1Q586.7 70.6 586.1 70.8Q585.4 71.1 584.5 71.1Z "/></g></svg>