<!-- Generated by readme-aura https://github.com/collectioneur/readme-aura -->
<svg width="800" height="180" viewBox="0 0 800 180" xmlns="http://www.w3.org/2000/svg"><defs><clipPath id="satori_bc-id"><path x="0" y="0" width="800" height="180" d="M16,0 h768 a16,16 0 0 1 16,16 v148 a16,16 0 0 1 -16,16 h-768 a16,16 0 0 1 -16,-16 v-148 a16,16 0 0 1 16,-16"/></clipPath></defs><clipPath id="satori_cp-id"><path x="0" y="0" width="800" height="180" d="M16,0 h768 a16,16 0 0 1 16,16 v148 a16,16 0 0 1 -16,16 h-768 a16,16 0 0 1 -16,-16 v-148 a16,16 0 0 1 16,-16"/></clipPath><mask id="satori_om-id"><rect x="1" y="1" width="798" height="178" fill="#fff"/><path width="800" height="180" fill="none" stroke="#000" stroke-width="2" d="M4.686,4.686 A16,16 0 0 1 16,0 h768 a16,16 0 0 1 16,16 v148 a16,16 0 0 1 -16,16 h-768 a16,16 0 0 1 -16,-16 v-148 A16,16 0 0 1 4.686,4.686"/></mask><path x="0" y="0" width="800" height="180" fill="#06060a" d="M16,0 h768 a16,16 0 0 1 16,16 v148 a16,16 0 0 1 -16,16 h-768 a16,16 0 0 1 -16,-16 v-148 a16,16 0 0 1 16,-16"/><path width="800" height="180" clip-path="url(#satori_bc-id)" fill="none" stroke="rgba(110,80,220,0.15)" stroke-width="2" d="M4.686,4.686 A16,16 0 0 1 16,0 h768 a16,16 0 0 1 16,16 v148 a16,16 0 0 1 -16,16 h-768 a16,16 0 0 1 -16,-16 v-148 A16,16 0 0 1 4.686,4.686"/><clipPath id="satori_cp-id-0" clip-path="url(#satori_cp-id)"><rect x="1" y="1" width="800" height="180"/></clipPath><mask id="satori_om-id-0"><rect x="1" y="1" width="800" height="180" fill="#fff" mask="url(#satori_om-id)"/></mask><svg x="1" y="1" width="800" height="180" preserveAspectRatio="none" clip-path="url(#satori_cp-id-0)" mask="url(#satori_om-id-0)"><defs><radialGradient id="lng1" cx="50%" cy="50%" r="50%"><stop offset="0%" stop-color="rgba(80,40,200,0.4)"></stop><stop offset="100%" stop-color="rgba(80,40,200,0)"></stop></radialGradient><radialGradient id="lng2" cx="50%" cy="50%" r="50%"><stop offset="0%" stop-color="rgba(0,160,220,0.35)"></stop><stop offset="100%" stop-color="rgba(0,160,220,0)"></stop></radialGradient></defs><ellipse id="lang-g1" cx="650" cy="90" rx="180" ry="100" fill="url(#lng1)"></ellipse><ellipse id="lang-g2" cx="150" cy="100" rx="160" ry="90" fill="url(#lng2)"></ellipse><style>

      @keyframes lang-drift-r { 0%, 100% { transform: translate(0, 0); opacity: 0.6; } 50% { transform: translate(30px, -15px); opacity: 1; } }
      @keyframes lang-drift-l { 0%, 100% { transform: translate(0, 0); opacity: 0.55; } 50% { transform: translate(-25px, 12px); opacity: 0.9; } }
      #lang-g1 { animation: lang-drift-r 8s ease-in-out infinite; }
      #lang-g2 { animation: lang-drift-l 7s ease-in-out infinite 0.3s; }
    
</style>
</svg><mask id="satori_om-id-0-0"><rect x="1" y="1" width="0" height="180" fill="#fff" mask="url(#satori_om-id)"/></mask><mask id="satori_om-id-0-0-0"><rect x="1" y="1" width="0" height="180" fill="#fff" mask="url(#satori_om-id)"/></mask><mask id="satori_om-id-0-0-0-0"><rect x="1" y="1" width="0" height="180" fill="#fff" mask="url(#satori_om-id)"/></mask><mask id="satori_om-id-0-0-0-1"><rect x="1" y="1" width="0" height="180" fill="#fff" mask="url(#satori_om-id)"/></mask><mask id="satori_om-id-0-0-1"><rect x="1" y="1" width="0" height="180" fill="#fff" mask="url(#satori_om-id)"/></mask><mask id="satori_om-id-0-0-1-0"><rect x="1" y="1" width="0" height="180" fill="#fff" mask="url(#satori_om-id)"/></mask><mask id="satori_om-id-0-0-1-1"><rect x="1" y="1" width="0" height="180" fill="#fff" mask="url(#satori_om-id)"/></mask><mask id="satori_om-id-0-1"><rect x="1" y="1" width="0" height="180" fill="#fff" mask="url(#satori_om-id)"/></mask><mask id="satori_om-id-0-2"><rect x="1" y="1" width="0" height="180" fill="#fff" mask="url(#satori_om-id)"/></mask><mask id="satori_om-id-1"><rect x="25" y="25" width="750" height="12" fill="#fff" mask="url(#satori_om-id)"/></mask><g mask="url(#satori_om-id)" clip-path="url(#satori_cp-id)"><path fill="rgba(120,200,255,0.7)" d="M27.1 35L25.7 35L25.7 27.7L27.9 27.7L29.1 31.1Q29.2 31.3 29.3 31.7Q29.4 32.0 29.5 32.5L29.5 32.5Q29.6 32.9 29.7 33.3L29.7 33.3Q29.8 32.9 29.8 32.5L29.8 32.5Q29.9 32.1 30.0 31.7Q30.1 31.3 30.2 31.1L30.2 31.1L31.4 27.7L33.7 27.7L33.7 35L32.2 35L32.2 31.6Q32.2 31.3 32.2 31.0Q32.2 30.6 32.2 30.2Q32.2 29.8 32.2 29.4L32.2 29.4Q32.2 29.2 32.2 29.0L32.2 29.0Q32.2 29.2 32.1 29.4L32.1 29.4Q32.0 29.9 31.9 30.3Q31.8 30.7 31.7 31.0Q31.6 31.3 31.5 31.6L31.5 31.6L30.3 35L29.0 35L27.8 31.6Q27.7 31.3 27.6 31.0Q27.5 30.7 27.4 30.3Q27.3 29.9 27.2 29.4L27.2 29.4Q27.1 29.2 27.1 29.1L27.1 29.1Q27.1 29.2 27.1 29.4L27.1 29.4Q27.1 29.8 27.1 30.2Q27.1 30.6 27.1 31.0Q27.1 31.3 27.1 31.6L27.1 31.6L27.1 35ZM41.2 35.1L41.2 35.1Q40.2 35.1 39.4 34.7Q38.7 34.2 38.2 33.4Q37.8 32.5 37.8 31.4L37.8 31.4Q37.8 30.2 38.2 29.3Q38.7 28.5 39.4 28.1Q40.2 27.6 41.2 27.6L41.2 27.6Q42.1 27.6 42.9 28.1Q43.7 28.5 44.1 29.3Q44.6 30.2 44.6 31.4L44.6 31.4Q44.6 32.5 44.1 33.4Q43.7 34.2 42.9 34.7Q42.1 35.1 41.2 35.1ZM41.2 33.8L41.2 33.8Q41.7 33.8 42.2 33.5Q42.6 33.2 42.8 32.7Q43.0 32.1 43.0 31.4L43.0 31.4Q43.0 30.6 42.8 30.0Q42.6 29.5 42.2 29.2Q41.7 29.0 41.2 29.0L41.2 29.0Q40.6 29.0 40.2 29.2Q39.8 29.5 39.5 30.0Q39.3 30.6 39.3 31.4L39.3 31.4Q39.3 32.1 39.5 32.7Q39.8 33.2 40.2 33.5Q40.6 33.8 41.2 33.8ZM51.3 35.1L51.3 35.1Q50.5 35.1 49.8 34.8Q49.2 34.6 48.8 34.0Q48.5 33.5 48.4 32.7L48.4 32.7L49.9 32.7Q49.9 33.1 50.1 33.4Q50.3 33.6 50.6 33.7Q50.9 33.8 51.3 33.8L51.3 33.8Q51.7 33.8 52.0 33.7Q52.3 33.6 52.5 33.4Q52.7 33.2 52.7 32.9L52.7 32.9Q52.7 32.7 52.5 32.5Q52.4 32.3 52.1 32.2Q51.8 32.1 51.4 32.0L51.4 32.0L50.6 31.8Q49.7 31.6 49.2 31.1Q48.6 30.6 48.6 29.8L48.6 29.8Q48.6 29.2 49.0 28.7Q49.3 28.2 50.0 27.9Q50.6 27.6 51.4 27.6L51.4 27.6Q52.2 27.6 52.8 27.9Q53.4 28.2 53.7 28.7Q54.0 29.2 54.1 29.8L54.1 29.8L52.6 29.8Q52.6 29.4 52.2 29.1Q51.9 28.9 51.4 28.9L51.4 28.9Q51.0 28.9 50.7 29.0Q50.4 29.1 50.3 29.3Q50.2 29.5 50.2 29.7L50.2 29.7Q50.2 30.0 50.3 30.2Q50.5 30.3 50.8 30.5Q51.0 30.6 51.3 30.6L51.3 30.6L52.0 30.8Q52.4 30.9 52.8 31.1Q53.2 31.3 53.5 31.5Q53.8 31.8 54.0 32.1Q54.2 32.5 54.2 32.9L54.2 32.9Q54.2 33.6 53.8 34.1Q53.5 34.6 52.9 34.8Q52.2 35.1 51.3 35.1ZM60.2 29.0L57.9 29.0L57.9 27.7L63.9 27.7L63.9 29.0L61.7 29.0L61.7 35L60.2 35L60.2 29.0Z M76.3 35.1L76.3 35.1Q75.4 35.1 74.7 34.8Q74.0 34.4 73.6 33.8Q73.3 33.2 73.3 32.4L73.3 32.4L73.3 27.7L74.8 27.7L74.8 32.3Q74.8 32.7 74.9 33.1Q75.1 33.4 75.5 33.6Q75.8 33.8 76.3 33.8L76.3 33.8Q76.7 33.8 77.1 33.6Q77.4 33.4 77.6 33.1Q77.8 32.7 77.8 32.3L77.8 32.3L77.8 27.7L79.3 27.7L79.3 32.4Q79.3 33.2 78.9 33.8Q78.5 34.4 77.8 34.8Q77.2 35.1 76.3 35.1ZM86.3 35.1L86.3 35.1Q85.4 35.1 84.7 34.8Q84.1 34.6 83.7 34.0Q83.4 33.5 83.3 32.7L83.3 32.7L84.8 32.7Q84.8 33.1 85.0 33.4Q85.2 33.6 85.5 33.7Q85.8 33.8 86.2 33.8L86.2 33.8Q86.6 33.8 86.9 33.7Q87.2 33.6 87.4 33.4Q87.6 33.2 87.6 32.9L87.6 32.9Q87.6 32.7 87.4 32.5Q87.3 32.3 87.0 32.2Q86.7 32.1 86.3 32.0L86.3 32.0L85.5 31.8Q84.6 31.6 84.1 31.1Q83.5 30.6 83.5 29.8L83.5 29.8Q83.5 29.2 83.9 28.7Q84.3 28.2 84.9 27.9Q85.5 27.6 86.3 27.6L86.3 27.6Q87.1 27.6 87.7 27.9Q88.3 28.2 88.6 28.7Q89.0 29.2 89.0 29.8L89.0 29.8L87.5 29.8Q87.5 29.4 87.2 29.1Q86.8 28.9 86.3 28.9L86.3 28.9Q85.9 28.9 85.6 29.0Q85.3 29.1 85.2 29.3Q85.1 29.5 85.1 29.7L85.1 29.7Q85.1 30.0 85.2 30.2Q85.4 30.3 85.7 30.5Q85.9 30.6 86.2 30.6L86.2 30.6L86.9 30.8Q87.4 30.9 87.7 31.1Q88.1 31.3 88.4 31.5Q88.7 31.8 88.9 32.1Q89.1 32.5 89.1 32.9L89.1 32.9Q89.1 33.6 88.7 34.1Q88.4 34.6 87.8 34.8Q87.1 35.1 86.3 35.1ZM98.0 35L93.1 35L93.1 27.7L98.0 27.7L98.0 29.0L94.6 29.0L94.6 30.7L97.8 30.7L97.8 31.9L94.6 31.9L94.6 33.8L98.0 33.8L98.0 35ZM104.8 35L104.8 35L102.2 35L102.2 27.7L104.8 27.7Q105.9 27.7 106.7 28.2Q107.5 28.6 107.9 29.4Q108.3 30.2 108.3 31.4L108.3 31.4Q108.3 32.5 107.9 33.3Q107.5 34.1 106.7 34.6Q105.9 35 104.8 35ZM103.7 29.0L103.7 33.7L104.7 33.7Q105.4 33.7 105.9 33.5Q106.4 33.2 106.6 32.7Q106.8 32.2 106.8 31.4L106.8 31.4Q106.8 30.5 106.6 30.0Q106.3 29.5 105.9 29.3Q105.4 29.0 104.7 29.0L104.7 29.0L103.7 29.0Z M122.4 35L117.8 35L117.8 27.7L119.3 27.7L119.3 33.8L122.4 33.8L122.4 35ZM127.7 35L126.0 35L128.5 27.7L130.5 27.7L133.0 35L131.4 35L130.8 33.3L128.2 33.3L127.7 35ZM128.6 32.1L130.4 32.1L130.2 31.5Q130.0 30.8 129.8 30L129.8 30Q129.6 29.5 129.5 28.9L129.5 28.9Q129.3 29.5 129.2 30.0L129.2 30.0Q129.0 30.8 128.8 31.5L128.8 31.5L128.6 32.1ZM138.4 35L136.9 35L136.9 27.7L138.6 27.7L140.9 31.4Q141.1 31.7 141.2 32.0Q141.4 32.4 141.6 32.8L141.6 32.8Q141.7 33.0 141.8 33.2L141.8 33.2Q141.8 33.0 141.8 32.8L141.8 32.8Q141.7 32.3 141.7 31.9Q141.7 31.5 141.7 31.2L141.7 31.2L141.7 27.7L143.2 27.7L143.2 35L141.6 35L139.5 31.7Q139.2 31.3 139.0 30.9Q138.9 30.6 138.6 30.1L138.6 30.1Q138.5 29.9 138.3 29.6L138.3 29.6Q138.4 29.9 138.4 30.1L138.4 30.1Q138.4 30.6 138.4 31.0Q138.4 31.4 138.4 31.7L138.4 31.7L138.4 35ZM150.8 35.1L150.8 35.1Q149.7 35.1 149.0 34.6Q148.2 34.2 147.8 33.4Q147.3 32.5 147.3 31.4L147.3 31.4Q147.3 30.2 147.8 29.4Q148.2 28.5 149.0 28.1Q149.8 27.6 150.7 27.6L150.7 27.6Q151.3 27.6 151.9 27.8Q152.4 28.0 152.8 28.3Q153.2 28.6 153.5 29.1Q153.8 29.5 153.8 30.1L153.8 30.1L152.3 30.1Q152.2 29.8 152.1 29.6Q152.0 29.4 151.8 29.2Q151.6 29.1 151.3 29.0Q151.1 29.0 150.8 29.0L150.8 29.0Q150.2 29.0 149.8 29.2Q149.3 29.5 149.1 30.0Q148.9 30.6 148.9 31.4Q148.9 32.1 149.1 32.7Q149.3 33.2 149.8 33.5Q150.2 33.8 150.8 33.8L150.8 33.8Q151.3 33.8 151.7 33.6Q152.1 33.4 152.3 33.0L152.3 33.0Q152.5 32.7 152.5 32.3L152.5 32.3L150.9 32.3L150.9 31.1L153.9 31.1L153.9 32.0Q153.9 33.0 153.5 33.7Q153.1 34.4 152.4 34.7Q151.7 35.1 150.8 35.1ZM161.0 35.1L161.0 35.1Q160.1 35.1 159.5 34.8Q158.8 34.4 158.4 33.8Q158.0 33.2 158.0 32.4L158.0 32.4L158.0 27.7L159.5 27.7L159.5 32.3Q159.5 32.7 159.7 33.1Q159.9 33.4 160.3 33.6Q160.6 33.8 161.0 33.8L161.0 33.8Q161.5 33.8 161.8 33.6Q162.2 33.4 162.4 33.1Q162.6 32.7 162.6 32.3L162.6 32.3L162.6 27.7L164.1 27.7L164.1 32.4Q164.1 33.2 163.7 33.8Q163.3 34.4 162.6 34.8Q162.0 35.1 161.0 35.1ZM169.6 35L167.9 35L170.4 27.7L172.4 27.7L174.9 35L173.3 35L172.7 33.3L170.1 33.3L169.6 35ZM170.5 32.1L172.3 32.1L172.1 31.5Q171.9 30.8 171.7 30L171.7 30Q171.5 29.5 171.4 28.9L171.4 28.9Q171.3 29.5 171.1 30.0L171.1 30.0Q170.9 30.8 170.7 31.5L170.7 31.5L170.5 32.1ZM182.1 35.1L182.1 35.1Q181.0 35.1 180.3 34.6Q179.5 34.2 179.1 33.4Q178.6 32.5 178.6 31.4L178.6 31.4Q178.6 30.2 179.1 29.4Q179.5 28.5 180.3 28.1Q181.1 27.6 182.0 27.6L182.0 27.6Q182.6 27.6 183.2 27.8Q183.7 28.0 184.1 28.3Q184.5 28.6 184.8 29.1Q185.0 29.5 185.1 30.1L185.1 30.1L183.6 30.1Q183.5 29.8 183.4 29.6Q183.3 29.4 183.1 29.2Q182.9 29.1 182.6 29.0Q182.4 29.0 182.0 29.0L182.0 29.0Q181.5 29.0 181.1 29.2Q180.6 29.5 180.4 30.0Q180.1 30.6 180.1 31.4Q180.1 32.1 180.4 32.7Q180.6 33.2 181.1 33.5Q181.5 33.8 182.1 33.8L182.1 33.8Q182.6 33.8 183.0 33.6Q183.3 33.4 183.6 33.0L183.6 33.0Q183.7 32.7 183.8 32.3L183.8 32.3L182.2 32.3L182.2 31.1L185.2 31.1L185.2 32.0Q185.2 33.0 184.8 33.7Q184.4 34.4 183.7 34.7Q183.0 35.1 182.1 35.1ZM194.2 35L189.3 35L189.3 27.7L194.2 27.7L194.2 29.0L190.8 29.0L190.8 30.7L194.0 30.7L194.0 31.9L190.8 31.9L190.8 33.8L194.2 33.8L194.2 35ZM201.1 35.1L201.1 35.1Q200.2 35.1 199.6 34.8Q198.9 34.6 198.6 34.0Q198.2 33.5 198.2 32.7L198.2 32.7L199.6 32.7Q199.6 33.1 199.8 33.4Q200.0 33.6 200.3 33.7Q200.7 33.8 201.1 33.8L201.1 33.8Q201.5 33.8 201.8 33.7Q202.1 33.6 202.2 33.4Q202.4 33.2 202.4 32.9L202.4 32.9Q202.4 32.7 202.2 32.5Q202.1 32.3 201.8 32.2Q201.5 32.1 201.1 32.0L201.1 32.0L200.3 31.8Q199.4 31.6 198.9 31.1Q198.4 30.6 198.4 29.8L198.4 29.8Q198.4 29.2 198.7 28.7Q199.1 28.2 199.7 27.9Q200.3 27.6 201.1 27.6L201.1 27.6Q201.9 27.6 202.5 27.9Q203.1 28.2 203.4 28.7Q203.8 29.2 203.8 29.8L203.8 29.8L202.3 29.8Q202.3 29.4 202.0 29.1Q201.6 28.9 201.1 28.9L201.1 28.9Q200.7 28.9 200.4 29.0Q200.2 29.1 200.0 29.3Q199.9 29.5 199.9 29.7L199.9 29.7Q199.9 30.0 200.1 30.2Q200.2 30.3 200.5 30.5Q200.8 30.6 201.1 30.6L201.1 30.6L201.7 30.8Q202.2 30.9 202.6 31.1Q203.0 31.3 203.3 31.5Q203.6 31.8 203.7 32.1Q203.9 32.5 203.9 32.9L203.9 32.9Q203.9 33.6 203.6 34.1Q203.2 34.6 202.6 34.8Q202.0 35.1 201.1 35.1Z "/></g><clipPath id="satori_cp-id-2" clip-path="url(#satori_cp-id)"><path x="25" y="53" width="750" height="6" d="M28,53 h744 a3,3 0 0 1 3,3 v0 a3,3 0 0 1 -3,3 h-744 a3,3 0 0 1 -3,-3 v0 a3,3 0 0 1 3,-3"/></clipPath><mask id="satori_om-id-2"><rect x="25" y="53" width="750" height="6" fill="#fff" mask="url(#satori_om-id)"/></mask><path x="25" y="53" width="750" height="6" fill="rgba(255,255,255,0.05)" d="M28,53 h744 a3,3 0 0 1 3,3 v0 a3,3 0 0 1 -3,3 h-744 a3,3 0 0 1 -3,-3 v0 a3,3 0 0 1 3,-3" clip-path="url(#satori_cp-id)" mask="url(#satori_om-id)"/><mask id="satori_om-id-2-0"><rect x="25" y="53" width="225" height="6" fill="#fff" mask="url(#satori_om-id-2)"/></mask><rect x="25" y="53" width="225" height="6" fill="#f34b7d" clip-path="url(#satori_cp-id-2)" mask="url(#satori_om-id-2)"/><mask id="satori_om-id-2-1"><rect x="250" y="53" width="105" height="6" fill="#fff" mask="url(#satori_om-id-2)"/></mask><rect x="250" y="53" width="105" height="6" fill="#555555" clip-path="url(#satori_cp-id-2)" mask="url(#satori_om-id-2)"/><mask id="satori_om-id-2-2"><rect x="355" y="53" width="90" height="6" fill="#fff" mask="url(#satori_om-id-2)"/></mask><rect x="355" y="53" width="90" height="6" fill="#3178c6" clip-path="url(#satori_cp-id-2)" mask="url(#satori_om-id-2)"/><mask id="satori_om-id-2-3"><rect x="445" y="53" width="68" height="6" fill="#fff" mask="url(#satori_om-id-2)"/></mask><rect x="445" y="53" width="68" height="6" fill="#3572A5" clip-path="url(#satori_cp-id-2)" mask="url(#satori_om-id-2)"/><mask id="satori_om-id-2-4"><rect x="513" y="53" width="67" height="6" fill="#fff" mask="url(#satori_om-id-2)"/></mask><rect x="513" y="53" width="67" height="6" fill="#663399" clip-path="url(#satori_cp-id-2)" mask="url(#satori_om-id-2)"/><mask id="satori_om-id-2-5"><rect x="580" y="53" width="38" height="6" fill="#fff" mask="url(#satori_om-id-2)"/></mask><rect x="580" y="53" width="38" height="6" fill="#5686a5" clip-path="url(#satori_cp-id-2)" mask="url(#satori_om-id-2)"/><mask id="satori_om-id-2-6"><rect x="618" y="53" width="37" height="6" fill="#fff" mask="url(#satori_om-id-2)"/></mask><rect x="618" y="53" width="37" height="6" fill="#89e051" clip-path="url(#satori_cp-id-2)" mask="url(#satori_om-id-2)"/><mask id="satori_om-id-2-7"><rect x="655" y="53" width="38" height="6" fill="#fff" mask="url(#satori_om-id-2)"/></mask><rect x="655" y="53" width="38" height="6" fill="#6E4C13" clip-path="url(#satori_cp-id-2)" mask="url(#satori_om-id-2)"/><mask id="satori_om-id-2-8"><rect x="693" y="53" width="15" height="6" fill="#fff" mask="url(#satori_om-id-2)"/></mask><rect x="693" y="53" width="15" height="6" fill="#A97BFF" clip-path="url(#satori_cp-id-2)" mask="url(#satori_om-id-2)"/><mask id="satori_om-id-2-9"><rect x="708" y="53" width="15" height="6" fill="#fff" mask="url(#satori_om-id-2)"/></mask><rect x="708" y="53" width="15" height="6" fill="#e34c26" clip-path="url(#satori_cp-id-2)" mask="url(#satori_om-id-2)"/><mask id="satori_om-id-3"><rect x="25" y="75" width="750" height="46" fill="#fff" mask="url(#satori_om-id)"/></mask><mask id="satori_om-id-3-0"><rect x="25" y="75" width="120" height="16" fill="#fff" mask="url(#satori_om-id)"/></mask><mask id="satori_ms-id-3-0-0-0" maskUnits="userSpaceOnUse"><rect x="0" y="0" width="800" height="180" fill="#fff"/><path x="25" y="78" width="10" height="10" fill="#000"  stroke-width="0" d="M30,78 h0 a5,5 0 0 1 5,5 v0 a5,5 0 0 1 -5,5 h0 a5,5 0 0 1 -5,-5 v0 a5,5 0 0 1 5,-5" clip-path="url(#satori_cp-id)" mask="url(#satori_om-id)"/></mask><defs><filter id="satori_s-id-3-0-0-0" x="-90%" y="-90%" width="280%" height="280%"><feGaussianBlur stdDeviation="3" result="b"/><feFlood flood-color="#f34b7d40" in="SourceGraphic" result="f"/><feComposite in="f" in2="b" operator="in"/></filter></defs><g mask="url(#satori_ms-id-3-0-0-0)" filter="url(#satori_s-id-3-0-0-0)" opacity="1"><path x="25" y="78" width="10" height="10" fill="#fff" stroke="#fff" stroke-width="0" d="M30,78 h0 a5,5 0 0 1 5,5 v0 a5,5 0 0 1 -5,5 h0 a5,5 0 0 1 -5,-5 v0 a5,5 0 0 1 5,-5" clip-path="url(#satori_cp-id)" mask="url(#satori_om-id)"/></g><mask id="satori_om-id-3-0-0"><rect x="25" y="78" width="10" height="10" fill="#fff" mask="url(#satori_om-id)"/></mask><path x="25" y="78" width="10" height="10" fill="#f34b7d" d="M30,78 h0 a5,5 0 0 1 5,5 v0 a5,5 0 0 1 -5,5 h0 a5,5 0 0 1 -5,-5 v0 a5,5 0 0 1 5,-5" clip-path="url(#satori_cp-id)" mask="url(#satori_om-id)"/><mask id="satori_om-id-3-0-1"><rect x="41" y="75" width="27" height="16" fill="#fff" mask="url(#satori_om-id)"/></mask><g mask="url(#satori_om-id)" clip-path="url(#satori_cp-id)"><path fill="#e0e0f0" d="M46.0 88.1L46.0 88.1Q44.8 88.1 43.8 87.5Q42.9 87.0 42.3 85.9Q41.8 84.8 41.8 83.3L41.8 83.3Q41.8 81.8 42.3 80.7Q42.9 79.6 43.8 79.0Q44.8 78.4 46.0 78.4L46.0 78.4Q46.7 78.4 47.3 78.6Q48.0 78.8 48.5 79.2Q49.0 79.6 49.3 80.2Q49.7 80.8 49.8 81.5L49.8 81.5L48.6 81.5Q48.5 81.0 48.2 80.7Q48.0 80.3 47.6 80.0Q47.3 79.8 46.9 79.7Q46.4 79.5 46.0 79.5L46.0 79.5Q45.1 79.5 44.4 80.0Q43.7 80.4 43.3 81.2Q42.9 82.1 42.9 83.3L42.9 83.3Q42.9 84.5 43.4 85.3Q43.8 86.2 44.4 86.6Q45.1 87.0 46.0 87.0L46.0 87.0Q46.4 87.0 46.9 86.9Q47.3 86.7 47.6 86.5Q48.0 86.2 48.2 85.9Q48.5 85.5 48.6 85.0L48.6 85.0L49.8 85.0Q49.7 85.7 49.3 86.3Q49.0 86.9 48.5 87.3Q48.0 87.7 47.3 87.9Q46.7 88.1 46.0 88.1ZM55.3 87.4L54.3 87.4L54.3 84.8L51.7 84.8L51.7 83.8L54.3 83.8L54.3 81.2L55.3 81.2L55.3 83.8L57.9 83.8L57.9 84.8L55.3 84.8L55.3 87.4ZM63.9 87.4L62.9 87.4L62.9 84.8L60.3 84.8L60.3 83.8L62.9 83.8L62.9 81.2L63.9 81.2L63.9 83.8L66.5 83.8L66.5 84.8L63.9 84.8L63.9 87.4Z "/></g><mask id="satori_om-id-3-0-2"><rect x="74" y="77" width="25" height="13" fill="#fff" mask="url(#satori_om-id)"/></mask><g mask="url(#satori_om-id)" clip-path="url(#satori_cp-id)"><path fill="#6a6a8a" d="M77.4 88.1L77.4 88.1Q76.6 88.1 76.0 87.8Q75.4 87.6 75.1 87.1Q74.7 86.6 74.7 86.0L74.7 86.0L75.7 86.0Q75.7 86.4 76.0 86.6Q76.2 86.9 76.6 87.1Q76.9 87.2 77.4 87.2L77.4 87.2Q77.9 87.2 78.3 87.0Q78.7 86.9 78.9 86.5Q79.1 86.2 79.1 85.8L79.1 85.8Q79.1 85.4 78.9 85.0Q78.7 84.7 78.3 84.5Q77.9 84.3 77.3 84.3L77.3 84.3L76.6 84.3L76.6 83.5L77.3 83.5Q77.7 83.5 78.1 83.3Q78.5 83.1 78.7 82.8Q78.9 82.5 78.9 82.1L78.9 82.1Q78.9 81.7 78.7 81.4Q78.5 81.1 78.2 80.9Q77.9 80.8 77.4 80.8L77.4 80.8Q77.0 80.8 76.7 80.9Q76.3 81.1 76.1 81.3Q75.8 81.6 75.8 82.0L75.8 82.0L74.8 82.0Q74.9 81.4 75.2 80.9Q75.6 80.4 76.2 80.2Q76.7 79.9 77.4 79.9L77.4 79.9Q78.2 79.9 78.7 80.2Q79.3 80.5 79.6 81.0Q79.8 81.5 79.8 82.0L79.8 82.0Q79.8 82.7 79.5 83.2Q79.1 83.7 78.5 83.8L78.5 83.8L78.5 83.9Q79.0 84.0 79.4 84.3Q79.8 84.5 79.9 84.9Q80.1 85.3 80.1 85.8L80.1 85.8Q80.1 86.5 79.8 87.0Q79.4 87.5 78.8 87.8Q78.2 88.1 77.4 88.1ZM84.3 88.1L84.3 88.1Q83.4 88.1 82.7 87.6Q82.1 87.1 81.8 86.2Q81.4 85.3 81.4 84.0L81.4 84.0Q81.4 82.7 81.8 81.8Q82.1 80.9 82.7 80.4Q83.4 79.9 84.3 79.9L84.3 79.9Q85.2 79.9 85.8 80.4Q86.4 80.9 86.7 81.8Q87.1 82.7 87.1 84.0L87.1 84.0Q87.1 85.3 86.7 86.2Q86.4 87.1 85.8 87.6Q85.2 88.1 84.3 88.1ZM84.3 87.2L84.3 87.2Q84.8 87.2 85.3 86.8Q85.7 86.5 85.9 85.7Q86.1 85.0 86.1 84.0L86.1 84.0Q86.1 83.0 85.9 82.3Q85.7 81.5 85.3 81.2Q84.8 80.8 84.3 80.8L84.3 80.8Q83.7 80.8 83.3 81.2Q82.9 81.5 82.6 82.3Q82.4 83.0 82.4 84.0L82.4 84.0Q82.4 85.0 82.6 85.7Q82.9 86.5 83.3 86.8Q83.7 87.2 84.3 87.2ZM90.5 83.5L90.5 83.5Q90.0 83.5 89.7 83.3Q89.3 83.1 89.1 82.7Q89.0 82.3 89.0 81.9L89.0 81.9L89.0 81.5Q89.0 81.0 89.2 80.7Q89.3 80.3 89.7 80.1Q90.0 79.9 90.5 79.9L90.5 79.9Q91.1 79.9 91.4 80.1Q91.8 80.3 91.9 80.7Q92.1 81.0 92.1 81.5L92.1 81.5L92.1 81.9Q92.1 82.3 91.9 82.7Q91.7 83.1 91.4 83.3Q91.1 83.5 90.5 83.5ZM90.5 82.8L90.5 82.8Q91.0 82.8 91.1 82.6Q91.3 82.3 91.3 81.9L91.3 81.9L91.3 81.5Q91.3 81.1 91.1 80.9Q91.0 80.6 90.5 80.6L90.5 80.6Q90.1 80.6 90.0 80.9Q89.8 81.1 89.8 81.5L89.8 81.5L89.8 81.9Q89.8 82.3 90.0 82.6Q90.1 82.8 90.5 82.8ZM95.7 88.2L95.7 88.2Q95.2 88.2 94.9 87.9Q94.5 87.7 94.3 87.3Q94.2 87.0 94.2 86.5L94.2 86.5L94.2 86.1Q94.2 85.7 94.3 85.3Q94.5 84.9 94.9 84.7Q95.2 84.5 95.7 84.5L95.7 84.5Q96.3 84.5 96.6 84.7Q97.0 84.9 97.1 85.3Q97.3 85.7 97.3 86.1L97.3 86.1L97.3 86.5Q97.3 87.0 97.1 87.3Q96.9 87.7 96.6 87.9Q96.2 88.2 95.7 88.2ZM95.7 87.5L95.7 87.5Q96.1 87.5 96.3 87.2Q96.5 86.9 96.5 86.5L96.5 86.5L96.5 86.1Q96.5 85.8 96.3 85.5Q96.2 85.2 95.7 85.2L95.7 85.2Q95.3 85.2 95.2 85.5Q95.0 85.8 95.0 86.1L95.0 86.1L95.0 86.5Q95.0 86.9 95.2 87.2Q95.3 87.5 95.7 87.5ZM90.8 88L89.9 88L95.4 80.0L96.3 80.0L90.8 88Z "/></g><mask id="satori_om-id-3-1"><rect x="159" y="75" width="120" height="16" fill="#fff" mask="url(#satori_om-id)"/></mask><mask id="satori_ms-id-3-1-0-0" maskUnits="userSpaceOnUse"><rect x="0" y="0" width="800" height="180" fill="#fff"/><path x="159" y="78" width="10" height="10" fill="#000"  stroke-width="0" d="M164,78 h0 a5,5 0 0 1 5,5 v0 a5,5 0 0 1 -5,5 h0 a5,5 0 0 1 -5,-5 v0 a5,5 0 0 1 5,-5" clip-path="url(#satori_cp-id)" mask="url(#satori_om-id)"/></mask><defs><filter id="satori_s-id-3-1-0-0" x="-90%" y="-90%" width="280%" height="280%"><feGaussianBlur stdDeviation="3" result="b"/><feFlood flood-color="#55555540" in="SourceGraphic" result="f"/><feComposite in="f" in2="b" operator="in"/></filter></defs><g mask="url(#satori_ms-id-3-1-0-0)" filter="url(#satori_s-id-3-1-0-0)" opacity="1"><path x="159" y="78" width="10" height="10" fill="#fff" stroke="#fff" stroke-width="0" d="M164,78 h0 a5,5 0 0 1 5,5 v0 a5,5 0 0 1 -5,5 h0 a5,5 0 0 1 -5,-5 v0 a5,5 0 0 1 5,-5" clip-path="url(#satori_cp-id)" mask="url(#satori_om-id)"/></g><mask id="satori_om-id-3-1-0"><rect x="159" y="78" width="10" height="10" fill="#fff" mask="url(#satori_om-id)"/></mask><path x="159" y="78" width="10" height="10" fill="#555555" d="M164,78 h0 a5,5 0 0 1 5,5 v0 a5,5 0 0 1 -5,5 h0 a5,5 0 0 1 -5,-5 v0 a5,5 0 0 1 5,-5" clip-path="url(#satori_cp-id)" mask="url(#satori_om-id)"/><mask id="satori_om-id-3-1-1"><rect x="175" y="75" width="10" height="16" fill="#fff" mask="url(#satori_om-id)"/></mask><g mask="url(#satori_om-id)" clip-path="url(#satori_cp-id)"><path fill="#e0e0f0" d="M180.0 88.1L180.0 88.1Q178.8 88.1 177.8 87.5Q176.9 87.0 176.3 85.9Q175.8 84.8 175.8 83.3L175.8 83.3Q175.8 81.8 176.3 80.7Q176.9 79.6 177.8 79.0Q178.8 78.4 180.0 78.4L180.0 78.4Q180.7 78.4 181.3 78.6Q182.0 78.8 182.5 79.2Q183.0 79.6 183.3 80.2Q183.7 80.8 183.8 81.5L183.8 81.5L182.6 81.5Q182.5 81.0 182.2 80.7Q182.0 80.3 181.6 80.0Q181.3 79.8 180.9 79.7Q180.4 79.5 180.0 79.5L180.0 79.5Q179.1 79.5 178.4 80.0Q177.7 80.4 177.3 81.2Q176.9 82.1 176.9 83.3L176.9 83.3Q176.9 84.5 177.4 85.3Q177.8 86.2 178.4 86.6Q179.1 87.0 180.0 87.0L180.0 87.0Q180.4 87.0 180.9 86.9Q181.3 86.7 181.6 86.5Q182.0 86.2 182.2 85.9Q182.5 85.5 182.6 85.0L182.6 85.0L183.8 85.0Q183.7 85.7 183.3 86.3Q183.0 86.9 182.5 87.3Q182.0 87.7 181.3 87.9Q180.7 88.1 180.0 88.1Z "/></g><mask id="satori_om-id-3-1-2"><rect x="191" y="77" width="23" height="13" fill="#fff" mask="url(#satori_om-id)"/></mask><g mask="url(#satori_om-id)" clip-path="url(#satori_cp-id)"><path fill="#6a6a8a" d="M193.3 80.0L194.5 80.0L194.5 88L193.5 88L193.5 80.9L193.4 80.9L191.5 82.4L191.5 81.3L193.3 80.0ZM199.9 86.4L196.1 86.4L196.1 85.5L199.6 80.0L200.9 80.0L200.9 85.5L201.9 85.5L201.9 86.4L200.9 86.4L200.9 88L199.9 88L199.9 86.4ZM197.2 85.5L199.9 85.5L199.9 81.3L199.8 81.3L197.2 85.4L197.2 85.5ZM205.4 83.5L205.4 83.5Q204.9 83.5 204.5 83.3Q204.2 83.1 204.0 82.7Q203.8 82.3 203.8 81.9L203.8 81.9L203.8 81.5Q203.8 81.0 204.0 80.7Q204.2 80.3 204.5 80.1Q204.9 79.9 205.4 79.9L205.4 79.9Q205.9 79.9 206.3 80.1Q206.6 80.3 206.8 80.7Q207.0 81.0 207.0 81.5L207.0 81.5L207.0 81.9Q207.0 82.3 206.8 82.7Q206.6 83.1 206.2 83.3Q205.9 83.5 205.4 83.5ZM205.4 82.8L205.4 82.8Q205.8 82.8 206.0 82.6Q206.1 82.3 206.1 81.9L206.1 81.9L206.1 81.5Q206.1 81.1 206.0 80.9Q205.8 80.6 205.4 80.6L205.4 80.6Q205.0 80.6 204.8 80.9Q204.6 81.1 204.6 81.5L204.6 81.5L204.6 81.9Q204.6 82.3 204.8 82.6Q205.0 82.8 205.4 82.8ZM210.6 88.2L210.6 88.2Q210.1 88.2 209.7 87.9Q209.4 87.7 209.2 87.3Q209.0 87.0 209.0 86.5L209.0 86.5L209.0 86.1Q209.0 85.7 209.2 85.3Q209.4 84.9 209.7 84.7Q210.1 84.5 210.6 84.5L210.6 84.5Q211.1 84.5 211.4 84.7Q211.8 84.9 212.0 85.3Q212.1 85.7 212.1 86.1L212.1 86.1L212.1 86.5Q212.1 87.0 212.0 87.3Q211.8 87.7 211.4 87.9Q211.1 88.2 210.6 88.2ZM210.6 87.5L210.6 87.5Q211.0 87.5 211.2 87.2Q211.3 86.9 211.3 86.5L211.3 86.5L211.3 86.1Q211.3 85.8 211.2 85.5Q211.0 85.2 210.6 85.2L210.6 85.2Q210.2 85.2 210.0 85.5Q209.8 85.8 209.8 86.1L209.8 86.1L209.8 86.5Q209.8 86.9 210.0 87.2Q210.2 87.5 210.6 87.5ZM205.7 88L204.8 88L210.3 80.0L211.2 80.0L205.7 88Z "/></g><mask id="satori_om-id-3-2"><rect x="293" y="75" width="120" height="16" fill="#fff" mask="url(#satori_om-id)"/></mask><mask id="satori_ms-id-3-2-0-0" maskUnits="userSpaceOnUse"><rect x="0" y="0" width="800" height="180" fill="#fff"/><path x="293" y="78" width="10" height="10" fill="#000"  stroke-width="0" d="M298,78 h0 a5,5 0 0 1 5,5 v0 a5,5 0 0 1 -5,5 h0 a5,5 0 0 1 -5,-5 v0 a5,5 0 0 1 5,-5" clip-path="url(#satori_cp-id)" mask="url(#satori_om-id)"/></mask><defs><filter id="satori_s-id-3-2-0-0" x="-90%" y="-90%" width="280%" height="280%"><feGaussianBlur stdDeviation="3" result="b"/><feFlood flood-color="#3178c640" in="SourceGraphic" result="f"/><feComposite in="f" in2="b" operator="in"/></filter></defs><g mask="url(#satori_ms-id-3-2-0-0)" filter="url(#satori_s-id-3-2-0-0)" opacity="1"><path x="293" y="78" width="10" height="10" fill="#fff" stroke="#fff" stroke-width="0" d="M298,78 h0 a5,5 0 0 1 5,5 v0 a5,5 0 0 1 -5,5 h0 a5,5 0 0 1 -5,-5 v0 a5,5 0 0 1 5,-5" clip-path="url(#satori_cp-id)" mask="url(#satori_om-id)"/></g><mask id="satori_om-id-3-2-0"><rect x="293" y="78" width="10" height="10" fill="#fff" mask="url(#satori_om-id)"/></mask><path x="293" y="78" width="10" height="10" fill="#3178c6" d="M298,78 h0 a5,5 0 0 1 5,5 v0 a5,5 0 0 1 -5,5 h0 a5,5 0 0 1 -5,-5 v0 a5,5 0 0 1 5,-5" clip-path="url(#satori_cp-id)" mask="url(#satori_om-id)"/><mask id="satori_om-id-3-2-1"><rect x="309" y="75" width="68" height="16" fill="#fff" mask="url(#satori_om-id)"/></mask><g mask="url(#satori_om-id)" clip-path="url(#satori_cp-id)"><path fill="#e0e0f0" d="M312.6 79.6L309.6 79.6L309.6 78.5L316.8 78.5L316.8 79.6L313.8 79.6L313.8 88L312.6 88L312.6 79.6ZM318.3 90.6L318.3 90.6L318.6 89.6L318.7 89.6Q319.0 89.7 319.3 89.7Q319.6 89.6 319.8 89.4Q320.1 89.1 320.2 88.6L320.2 88.6L320.4 88.0L317.7 80.9L319.0 80.9L320.5 85.1Q320.7 85.8 320.9 86.4L320.9 86.4Q321.0 86.7 321.0 87.0L321.0 87.0Q321.1 86.7 321.2 86.4L321.2 86.4Q321.4 85.8 321.6 85.1L321.6 85.1L323.1 80.9L324.4 80.9L321.2 89.1Q321.0 89.6 320.7 90.0Q320.4 90.4 320.0 90.5Q319.6 90.7 319.1 90.7L319.1 90.7Q318.8 90.7 318.6 90.7Q318.4 90.6 318.3 90.6ZM326.8 90.7L325.7 90.7L325.7 80.9L326.8 80.9L326.8 82.0L326.9 82.0Q327.1 81.8 327.3 81.6Q327.5 81.3 327.9 81.0Q328.3 80.8 329.0 80.8L329.0 80.8Q329.9 80.8 330.6 81.3Q331.2 81.7 331.6 82.5Q332.0 83.3 332.0 84.5L332.0 84.5Q332.0 85.6 331.6 86.4Q331.2 87.3 330.6 87.7Q329.9 88.2 329.0 88.2L329.0 88.2Q328.3 88.2 327.9 87.9Q327.5 87.7 327.3 87.4Q327.1 87.1 326.9 86.9L326.9 86.9L326.8 86.9L326.8 90.7ZM328.8 87.1L328.8 87.1Q329.5 87.1 329.9 86.8Q330.4 86.4 330.6 85.8Q330.8 85.2 330.8 84.5L330.8 84.5Q330.8 83.7 330.6 83.1Q330.4 82.5 329.9 82.2Q329.5 81.8 328.8 81.8L328.8 81.8Q328.2 81.8 327.7 82.2Q327.3 82.5 327.1 83.1Q326.8 83.7 326.8 84.5L326.8 84.5Q326.8 85.2 327.1 85.8Q327.3 86.5 327.7 86.8Q328.2 87.1 328.8 87.1ZM336.6 88.2L336.6 88.2Q335.6 88.2 334.9 87.7Q334.1 87.2 333.7 86.4Q333.3 85.6 333.3 84.5Q333.3 83.4 333.7 82.6Q334.1 81.8 334.8 81.3Q335.5 80.8 336.5 80.8L336.5 80.8Q337.1 80.8 337.6 81.0Q338.2 81.2 338.6 81.6Q339.1 82.0 339.3 82.7Q339.6 83.4 339.6 84.4L339.6 84.4L339.6 84.8L334.5 84.8Q334.5 85.5 334.7 86.0L334.7 86.0Q335.0 86.6 335.5 86.9Q336.0 87.1 336.7 87.1L336.7 87.1Q337.1 87.1 337.4 87.0Q337.8 86.9 338.0 86.7Q338.3 86.4 338.4 86.0L338.4 86.0L339.5 86.3Q339.3 86.9 338.9 87.3Q338.5 87.7 338.0 87.9Q337.4 88.2 336.6 88.2ZM334.5 83.9L334.5 83.9L338.4 83.9Q338.4 83.4 338.2 83.0L338.2 83.0Q338.0 82.4 337.6 82.1Q337.2 81.8 336.5 81.8Q335.9 81.8 335.4 82.1Q335.0 82.5 334.7 83.0L334.7 83.0Q334.5 83.4 334.5 83.9ZM344.4 88.2L344.4 88.2Q343.4 88.2 342.6 87.8Q341.9 87.5 341.5 86.9Q341.0 86.3 341.0 85.5L341.0 85.5L342.2 85.5Q342.3 86.1 342.6 86.4Q342.9 86.7 343.4 86.9Q343.9 87.1 344.4 87.1L344.4 87.1Q345.0 87.1 345.6 86.9Q346.1 86.7 346.4 86.3Q346.7 85.9 346.7 85.4L346.7 85.4Q346.7 84.9 346.4 84.7Q346.2 84.4 345.7 84.2Q345.3 84.0 344.8 83.9L344.8 83.9L343.7 83.5Q342.5 83.2 341.9 82.6Q341.2 82.0 341.2 81.1L341.2 81.1Q341.2 80.3 341.7 79.7Q342.1 79.1 342.8 78.7Q343.6 78.4 344.5 78.4L344.5 78.4Q345.4 78.4 346.1 78.7Q346.9 79.1 347.3 79.6Q347.7 80.2 347.7 80.9L347.7 80.9L346.5 80.9Q346.5 80.2 345.9 79.9Q345.3 79.5 344.5 79.5L344.5 79.5Q343.8 79.5 343.4 79.7Q342.9 79.9 342.7 80.2Q342.4 80.6 342.4 81.0L342.4 81.0Q342.4 81.5 342.7 81.8Q343.0 82.1 343.5 82.3Q343.9 82.5 344.2 82.5L344.2 82.5L345.2 82.8Q345.5 82.9 346.0 83.1Q346.5 83.3 346.9 83.6Q347.3 83.9 347.6 84.3Q347.8 84.8 347.8 85.4L347.8 85.4Q347.8 86.2 347.4 86.8Q347.0 87.4 346.3 87.8Q345.5 88.2 344.4 88.2ZM352.5 88.2L352.5 88.2Q351.5 88.2 350.8 87.7Q350.1 87.2 349.6 86.4Q349.2 85.6 349.2 84.5L349.2 84.5Q349.2 83.4 349.6 82.6Q350.1 81.7 350.8 81.3Q351.5 80.8 352.5 80.8L352.5 80.8Q353.0 80.8 353.4 80.9Q353.9 81.1 354.3 81.3Q354.7 81.6 354.9 81.9Q355.2 82.3 355.3 82.8L355.3 82.8L354.2 83.1Q354.2 82.8 354.0 82.6Q353.9 82.4 353.6 82.2Q353.4 82.0 353.1 81.9Q352.8 81.8 352.5 81.8L352.5 81.8Q351.8 81.8 351.3 82.2Q350.8 82.6 350.6 83.2Q350.4 83.8 350.4 84.5L350.4 84.5Q350.4 85.2 350.6 85.8Q350.8 86.4 351.3 86.8Q351.8 87.1 352.5 87.1L352.5 87.1Q352.8 87.1 353.1 87.0Q353.4 86.9 353.7 86.8Q353.9 86.6 354.0 86.3Q354.2 86.1 354.3 85.8L354.3 85.8L355.4 86.1Q355.2 86.6 355.0 87.0Q354.7 87.4 354.3 87.6Q353.9 87.9 353.5 88.0Q353.0 88.2 352.5 88.2ZM358.1 88L357.0 88L357.0 80.9L358.1 80.9L358.1 82.0L358.2 82.0Q358.4 81.5 358.9 81.1Q359.4 80.8 360.0 80.8L360.0 80.8Q360.2 80.8 360.3 80.8Q360.5 80.8 360.6 80.8L360.6 80.8L360.6 82.0Q360.6 82.0 360.4 81.9Q360.1 81.9 359.9 81.9L359.9 81.9Q359.4 81.9 359.0 82.1Q358.6 82.3 358.4 82.7Q358.1 83.1 358.1 83.6L358.1 83.6L358.1 88ZM363.0 88L361.9 88L361.9 80.9L363.0 80.9L363.0 88ZM362.5 79.7L362.5 79.7Q362.2 79.7 361.9 79.5Q361.7 79.3 361.7 79.0L361.7 79.0Q361.7 78.7 361.9 78.4Q362.2 78.2 362.5 78.2L362.5 78.2Q362.8 78.2 363.0 78.4Q363.3 78.7 363.3 79.0L363.3 79.0Q363.3 79.3 363.0 79.5Q362.8 79.7 362.5 79.7ZM366.2 90.7L365.0 90.7L365.0 80.9L366.2 80.9L366.2 82.0L366.3 82.0Q366.4 81.8 366.6 81.6Q366.8 81.3 367.2 81.0Q367.6 80.8 368.3 80.8L368.3 80.8Q369.2 80.8 369.9 81.3Q370.6 81.7 371.0 82.5Q371.3 83.3 371.3 84.5L371.3 84.5Q371.3 85.6 371.0 86.4Q370.6 87.3 369.9 87.7Q369.2 88.2 368.3 88.2L368.3 88.2Q367.7 88.2 367.3 87.9Q366.8 87.7 366.6 87.4Q366.4 87.1 366.3 86.9L366.3 86.9L366.2 86.9L366.2 90.7ZM368.2 87.1L368.2 87.1Q368.8 87.1 369.3 86.8Q369.7 86.4 370.0 85.8Q370.2 85.2 370.2 84.5L370.2 84.5Q370.2 83.7 370.0 83.1Q369.7 82.5 369.3 82.2Q368.8 81.8 368.2 81.8L368.2 81.8Q367.5 81.8 367.1 82.2Q366.6 82.5 366.4 83.1Q366.2 83.7 366.2 84.5L366.2 84.5Q366.2 85.2 366.4 85.8Q366.6 86.5 367.1 86.8Q367.5 87.1 368.2 87.1ZM374.3 80.9L375.8 80.9L375.8 81.9L374.3 81.9L374.3 86.2Q374.3 86.6 374.5 86.9Q374.7 87.1 375.2 87.1L375.2 87.1Q375.3 87.1 375.5 87.0Q375.6 87.0 375.8 87.0L375.8 87.0L376.0 88.0Q375.8 88.0 375.6 88.1Q375.4 88.1 375.1 88.1L375.1 88.1Q374.2 88.1 373.7 87.6Q373.2 87.1 373.2 86.2L373.2 86.2L373.2 81.9L372.1 81.9L372.1 80.9L373.2 80.9L373.2 79.2L374.3 79.2L374.3 80.9Z "/></g><mask id="satori_om-id-3-2-2"><rect x="383" y="77" width="22" height="13" fill="#fff" mask="url(#satori_om-id)"/></mask><g mask="url(#satori_om-id)" clip-path="url(#satori_cp-id)"><path fill="#6a6a8a" d="M385.3 80.0L386.5 80.0L386.5 88L385.5 88L385.5 80.9L385.4 80.9L383.5 82.4L383.5 81.3L385.3 80.0ZM393.4 88L388.3 88L388.3 87.3L391.0 84.4Q391.4 83.9 391.7 83.5Q392.0 83.2 392.1 82.8Q392.3 82.5 392.3 82.1L392.3 82.1Q392.3 81.7 392.1 81.4Q391.9 81.1 391.6 80.9Q391.2 80.8 390.8 80.8L390.8 80.8Q390.3 80.8 390.0 81.0Q389.7 81.1 389.5 81.5Q389.3 81.8 389.3 82.3L389.3 82.3L388.3 82.3Q388.3 81.6 388.7 81.0Q389.0 80.5 389.5 80.2Q390.1 79.9 390.8 79.9L390.8 79.9Q391.5 79.9 392.1 80.2Q392.6 80.5 392.9 81.0Q393.3 81.5 393.3 82.1L393.3 82.1Q393.3 82.6 393.1 83.0Q393.0 83.4 392.6 83.9Q392.2 84.4 391.5 85.2L391.5 85.2L389.7 87.0L389.7 87.1L393.4 87.1L393.4 88ZM397.0 83.5L397.0 83.5Q396.5 83.5 396.1 83.3Q395.8 83.1 395.6 82.7Q395.4 82.3 395.4 81.9L395.4 81.9L395.4 81.5Q395.4 81.0 395.6 80.7Q395.8 80.3 396.1 80.1Q396.5 79.9 397.0 79.9L397.0 79.9Q397.5 79.9 397.9 80.1Q398.2 80.3 398.4 80.7Q398.6 81.0 398.6 81.5L398.6 81.5L398.6 81.9Q398.6 82.3 398.4 82.7Q398.2 83.1 397.8 83.3Q397.5 83.5 397.0 83.5ZM397.0 82.8L397.0 82.8Q397.4 82.8 397.6 82.6Q397.7 82.3 397.7 81.9L397.7 81.9L397.7 81.5Q397.7 81.1 397.6 80.9Q397.4 80.6 397.0 80.6L397.0 80.6Q396.6 80.6 396.4 80.9Q396.2 81.1 396.2 81.5L396.2 81.5L396.2 81.9Q396.2 82.3 396.4 82.6Q396.6 82.8 397.0 82.8ZM402.2 88.2L402.2 88.2Q401.7 88.2 401.3 87.9Q401.0 87.7 400.8 87.3Q400.6 87.0 400.6 86.5L400.6 86.5L400.6 86.1Q400.6 85.7 400.8 85.3Q401.0 84.9 401.3 84.7Q401.7 84.5 402.2 84.5L402.2 84.5Q402.7 84.5 403.1 84.7Q403.4 84.9 403.6 85.3Q403.7 85.7 403.7 86.1L403.7 86.1L403.7 86.5Q403.7 87.0 403.6 87.3Q403.4 87.7 403.0 87.9Q402.7 88.2 402.2 88.2ZM402.2 87.5L402.2 87.5Q402.6 87.5 402.8 87.2Q402.9 86.9 402.9 86.5L402.9 86.5L402.9 86.1Q402.9 85.8 402.8 85.5Q402.6 85.2 402.2 85.2L402.2 85.2Q401.8 85.2 401.6 85.5Q401.4 85.8 401.4 86.1L401.4 86.1L401.4 86.5Q401.4 86.9 401.6 87.2Q401.8 87.5 402.2 87.5ZM397.3 88L396.4 88L401.9 80.0L402.8 80.0L397.3 88Z "/></g><mask id="satori_om-id-3-3"><rect x="427" y="75" width="120" height="16" fill="#fff" mask="url(#satori_om-id)"/></mask><mask id="satori_ms-id-3-3-0-0" maskUnits="userSpaceOnUse"><rect x="0" y="0" width="800" height="180" fill="#fff"/><path x="427" y="78" width="10" height="10" fill="#000"  stroke-width="0" d="M432,78 h0 a5,5 0 0 1 5,5 v0 a5,5 0 0 1 -5,5 h0 a5,5 0 0 1 -5,-5 v0 a5,5 0 0 1 5,-5" clip-path="url(#satori_cp-id)" mask="url(#satori_om-id)"/></mask><defs><filter id="satori_s-id-3-3-0-0" x="-90%" y="-90%" width="280%" height="280%"><feGaussianBlur stdDeviation="3" result="b"/><feFlood flood-color="#3572A540" in="SourceGraphic" result="f"/><feComposite in="f" in2="b" operator="in"/></filter></defs><g mask="url(#satori_ms-id-3-3-0-0)" filter="url(#satori_s-id-3-3-0-0)" opacity="1"><path x="427" y="78" width="10" height="10" fill="#fff" stroke="#fff" stroke-width="0" d="M432,78 h0 a5,5 0 0 1 5,5 v0 a5,5 0 0 1 -5,5 h0 a5,5 0 0 1 -5,-5 v0 a5,5 0 0 1 5,-5" clip-path="url(#satori_cp-id)" mask="url(#satori_om-id)"/></g><mask id="satori_om-id-3-3-0"><rect x="427" y="78" width="10" height="10" fill="#fff" mask="url(#satori_om-id)"/></mask><path x="427" y="78" width="10" height="10" fill="#3572A5" d="M432,78 h0 a5,5 0 0 1 5,5 v0 a5,5 0 0 1 -5,5 h0 a5,5 0 0 1 -5,-5 v0 a5,5 0 0 1 5,-5" clip-path="url(#satori_cp-id)" mask="url(#satori_om-id)"/><mask id="satori_om-id-3-3-1"><rect x="443" y="75" width="44" height="16" fill="#fff" mask="url(#satori_om-id)"/></mask><g mask="url(#satori_om-id)" clip-path="url(#satori_cp-id)"><path fill="#e0e0f0" d="M445.3 88L444.1 88L444.1 78.5L447.4 78.5Q448.5 78.5 449.2 78.9Q449.9 79.3 450.3 80.0Q450.6 80.7 450.6 81.6Q450.6 82.4 450.3 83.1Q449.9 83.8 449.2 84.2Q448.5 84.6 447.4 84.6L447.4 84.6L445.3 84.6L445.3 88ZM445.3 79.6L445.3 83.5L447.3 83.5Q448.1 83.5 448.5 83.3Q449.0 83.0 449.2 82.6Q449.4 82.1 449.4 81.6Q449.4 81.0 449.2 80.6Q449.0 80.1 448.5 79.9Q448.1 79.6 447.3 79.6L447.3 79.6L445.3 79.6ZM452.2 90.6L452.2 90.6L452.5 89.6L452.6 89.6Q453.0 89.7 453.2 89.7Q453.5 89.6 453.8 89.4Q454.0 89.1 454.2 88.6L454.2 88.6L454.4 88.0L451.6 80.9L452.9 80.9L454.4 85.1Q454.6 85.8 454.8 86.4L454.8 86.4Q454.9 86.7 455.0 87.0L455.0 87.0Q455.0 86.7 455.1 86.4L455.1 86.4Q455.3 85.8 455.5 85.1L455.5 85.1L457.0 80.9L458.3 80.9L455.1 89.1Q454.9 89.6 454.6 90.0Q454.3 90.4 453.9 90.5Q453.5 90.7 453.0 90.7L453.0 90.7Q452.7 90.7 452.5 90.7Q452.3 90.6 452.2 90.6ZM460.9 80.9L462.4 80.9L462.4 81.9L460.9 81.9L460.9 86.2Q460.9 86.6 461.1 86.9Q461.3 87.1 461.8 87.1L461.8 87.1Q461.9 87.1 462.1 87.0Q462.2 87.0 462.4 87.0L462.4 87.0L462.6 88.0Q462.4 88.0 462.2 88.1Q462.0 88.1 461.8 88.1L461.8 88.1Q460.8 88.1 460.3 87.6Q459.8 87.1 459.8 86.2L459.8 86.2L459.8 81.9L458.7 81.9L458.7 80.9L459.8 80.9L459.8 79.2L460.9 79.2L460.9 80.9ZM465.0 83.7L465.0 83.7L465.0 88L463.9 88L463.9 78.5L465.0 78.5L465.0 82.1Q465.3 81.5 465.7 81.2L465.7 81.2Q466.3 80.8 467.1 80.8L467.1 80.8Q467.9 80.8 468.4 81.1Q468.9 81.4 469.2 82.0Q469.5 82.6 469.5 83.5L469.5 83.5L469.5 88L468.4 88L468.4 83.6Q468.4 82.8 468.0 82.3Q467.5 81.8 466.8 81.8L466.8 81.8Q466.3 81.8 465.9 82.1Q465.5 82.3 465.2 82.7Q465.0 83.1 465.0 83.7ZM474.4 88.2L474.4 88.2Q473.5 88.2 472.7 87.7Q472.0 87.2 471.6 86.4Q471.2 85.6 471.2 84.5L471.2 84.5Q471.2 83.4 471.6 82.6Q472.0 81.7 472.7 81.3Q473.5 80.8 474.4 80.8L474.4 80.8Q475.4 80.8 476.1 81.3Q476.9 81.7 477.3 82.6Q477.7 83.4 477.7 84.5L477.7 84.5Q477.7 85.6 477.3 86.4Q476.9 87.2 476.1 87.7Q475.4 88.2 474.4 88.2ZM474.4 87.1L474.4 87.1Q475.2 87.1 475.6 86.8Q476.1 86.4 476.3 85.8Q476.5 85.2 476.5 84.5L476.5 84.5Q476.5 83.8 476.3 83.2Q476.1 82.6 475.6 82.2Q475.2 81.8 474.4 81.8L474.4 81.8Q473.7 81.8 473.3 82.2Q472.8 82.6 472.6 83.2Q472.4 83.8 472.4 84.5L472.4 84.5Q472.4 85.2 472.6 85.8Q472.8 86.4 473.3 86.8Q473.7 87.1 474.4 87.1ZM480.5 83.7L480.5 83.7L480.5 88L479.3 88L479.3 80.9L480.4 80.9L480.5 82.2Q480.7 81.6 481.2 81.2L481.2 81.2Q481.8 80.8 482.6 80.8L482.6 80.8Q483.3 80.8 483.9 81.1Q484.4 81.4 484.7 82.0Q485.0 82.6 485.0 83.5L485.0 83.5L485.0 88L483.9 88L483.9 83.6Q483.9 82.8 483.5 82.3Q483.0 81.8 482.3 81.8L482.3 81.8Q481.8 81.8 481.4 82.1Q481.0 82.3 480.7 82.7Q480.5 83.1 480.5 83.7Z "/></g><mask id="satori_om-id-3-3-2"><rect x="493" y="77" width="18" height="13" fill="#fff" mask="url(#satori_om-id)"/></mask><g mask="url(#satori_om-id)" clip-path="url(#satori_cp-id)"><path fill="#6a6a8a" d="M496.2 88.1L496.2 88.1Q495.6 88.1 495.0 87.8Q494.5 87.6 494.2 87.1Q493.8 86.6 493.7 86.0L493.7 86.0L494.7 86.0Q494.9 86.5 495.2 86.9Q495.6 87.2 496.2 87.2L496.2 87.2Q496.9 87.2 497.3 86.8Q497.7 86.5 498.0 85.8Q498.2 85.1 498.2 84.2L498.2 84.2L498.1 84.2Q497.9 84.5 497.6 84.7Q497.3 85.0 497.0 85.1Q496.6 85.2 496.2 85.2L496.2 85.2Q495.5 85.2 494.9 84.9Q494.3 84.5 494.0 83.9Q493.7 83.3 493.7 82.6L493.7 82.6Q493.7 81.8 494.0 81.2Q494.3 80.6 494.9 80.2Q495.6 79.9 496.4 79.9L496.4 79.9Q496.9 79.9 497.4 80.1Q497.9 80.3 498.3 80.7Q498.7 81.1 498.9 81.8Q499.2 82.6 499.2 83.7L499.2 83.7Q499.2 84.7 499.0 85.6Q498.8 86.4 498.4 87.0Q498.0 87.5 497.5 87.8Q496.9 88.1 496.2 88.1ZM496.3 84.3L496.3 84.3Q496.7 84.3 497.0 84.2Q497.3 84.0 497.6 83.8Q497.8 83.5 497.9 83.2Q498.1 82.9 498.1 82.5L498.1 82.5Q498.1 82.1 497.8 81.7Q497.6 81.3 497.2 81.0Q496.9 80.8 496.4 80.8L496.4 80.8Q495.9 80.8 495.5 81.0Q495.1 81.3 494.9 81.7Q494.7 82.1 494.7 82.6L494.7 82.6Q494.7 83.1 494.9 83.5Q495.1 83.9 495.5 84.1Q495.8 84.3 496.3 84.3ZM502.6 83.5L502.6 83.5Q502.1 83.5 501.8 83.3Q501.4 83.1 501.2 82.7Q501.1 82.3 501.1 81.9L501.1 81.9L501.1 81.5Q501.1 81.0 501.2 80.7Q501.4 80.3 501.8 80.1Q502.1 79.9 502.6 79.9L502.6 79.9Q503.1 79.9 503.5 80.1Q503.8 80.3 504.0 80.7Q504.2 81.0 504.2 81.5L504.2 81.5L504.2 81.9Q504.2 82.3 504.0 82.7Q503.8 83.1 503.5 83.3Q503.1 83.5 502.6 83.5ZM502.6 82.8L502.6 82.8Q503.0 82.8 503.2 82.6Q503.4 82.3 503.4 81.9L503.4 81.9L503.4 81.5Q503.4 81.1 503.2 80.9Q503.0 80.6 502.6 80.6L502.6 80.6Q502.2 80.6 502.1 80.9Q501.9 81.1 501.9 81.5L501.9 81.5L501.9 81.9Q501.9 82.3 502.0 82.6Q502.2 82.8 502.6 82.8ZM507.8 88.2L507.8 88.2Q507.3 88.2 507.0 87.9Q506.6 87.7 506.4 87.3Q506.3 87.0 506.3 86.5L506.3 86.5L506.3 86.1Q506.3 85.7 506.4 85.3Q506.6 84.9 507.0 84.7Q507.3 84.5 507.8 84.5L507.8 84.5Q508.3 84.5 508.7 84.7Q509.0 84.9 509.2 85.3Q509.4 85.7 509.4 86.1L509.4 86.1L509.4 86.5Q509.4 87.0 509.2 87.3Q509.0 87.7 508.7 87.9Q508.3 88.2 507.8 88.2ZM507.8 87.5L507.8 87.5Q508.2 87.5 508.4 87.2Q508.6 86.9 508.6 86.5L508.6 86.5L508.6 86.1Q508.6 85.8 508.4 85.5Q508.2 85.2 507.8 85.2L507.8 85.2Q507.4 85.2 507.2 85.5Q507.1 85.8 507.1 86.1L507.1 86.1L507.1 86.5Q507.1 86.9 507.2 87.2Q507.4 87.5 507.8 87.5ZM502.9 88L502.0 88L507.5 80.0L508.4 80.0L502.9 88Z "/></g><mask id="satori_om-id-3-4"><rect x="561" y="75" width="120" height="16" fill="#fff" mask="url(#satori_om-id)"/></mask><mask id="satori_ms-id-3-4-0-0" maskUnits="userSpaceOnUse"><rect x="0" y="0" width="800" height="180" fill="#fff"/><path x="561" y="78" width="10" height="10" fill="#000"  stroke-width="0" d="M566,78 h0 a5,5 0 0 1 5,5 v0 a5,5 0 0 1 -5,5 h0 a5,5 0 0 1 -5,-5 v0 a5,5 0 0 1 5,-5" clip-path="url(#satori_cp-id)" mask="url(#satori_om-id)"/></mask><defs><filter id="satori_s-id-3-4-0-0" x="-90%" y="-90%" width="280%" height="280%"><feGaussianBlur stdDeviation="3" result="b"/><feFlood flood-color="#66339940" in="SourceGraphic" result="f"/><feComposite in="f" in2="b" operator="in"/></filter></defs><g mask="url(#satori_ms-id-3-4-0-0)" filter="url(#satori_s-id-3-4-0-0)" opacity="1"><path x="561" y="78" width="10" height="10" fill="#fff" stroke="#fff" stroke-width="0" d="M566,78 h0 a5,5 0 0 1 5,5 v0 a5,5 0 0 1 -5,5 h0 a5,5 0 0 1 -5,-5 v0 a5,5 0 0 1 5,-5" clip-path="url(#satori_cp-id)" mask="url(#satori_om-id)"/></g><mask id="satori_om-id-3-4-0"><rect x="561" y="78" width="10" height="10" fill="#fff" mask="url(#satori_om-id)"/></mask><path x="561" y="78" width="10" height="10" fill="#663399" d="M566,78 h0 a5,5 0 0 1 5,5 v0 a5,5 0 0 1 -5,5 h0 a5,5 0 0 1 -5,-5 v0 a5,5 0 0 1 5,-5" clip-path="url(#satori_cp-id)" mask="url(#satori_om-id)"/><mask id="satori_om-id-3-4-1"><rect x="577" y="75" width="27" height="16" fill="#fff" mask="url(#satori_om-id)"/></mask><g mask="url(#satori_om-id)" clip-path="url(#satori_cp-id)"><path fill="#e0e0f0" d="M582.0 88.1L582.0 88.1Q580.8 88.1 579.8 87.5Q578.9 87.0 578.3 85.9Q577.8 84.8 577.8 83.3L577.8 83.3Q577.8 81.8 578.3 80.7Q578.9 79.6 579.8 79.0Q580.8 78.4 582.0 78.4L582.0 78.4Q582.7 78.4 583.3 78.6Q584.0 78.8 584.5 79.2Q585.0 79.6 585.3 80.2Q585.7 80.8 585.8 81.5L585.8 81.5L584.6 81.5Q584.5 81.0 584.2 80.7Q584.0 80.3 583.6 80.0Q583.3 79.8 582.9 79.7Q582.4 79.5 582.0 79.5L582.0 79.5Q581.1 79.5 580.4 80.0Q579.7 80.4 579.3 81.2Q578.9 82.1 578.9 83.3L578.9 83.3Q578.9 84.5 579.4 85.3Q579.8 86.2 580.4 86.6Q581.1 87.0 582.0 87.0L582.0 87.0Q582.4 87.0 582.9 86.9Q583.3 86.7 583.6 86.5Q584.0 86.2 584.2 85.9Q584.5 85.5 584.6 85.0L584.6 85.0L585.8 85.0Q585.7 85.7 585.3 86.3Q585.0 86.9 584.5 87.3Q584.0 87.7 583.3 87.9Q582.7 88.1 582.0 88.1ZM590.7 88.2L590.7 88.2Q589.6 88.2 588.9 87.8Q588.1 87.5 587.7 86.9Q587.3 86.3 587.2 85.5L587.2 85.5L588.5 85.5Q588.5 86.1 588.8 86.4Q589.1 86.7 589.6 86.9Q590.1 87.1 590.7 87.1L590.7 87.1Q591.3 87.1 591.8 86.9Q592.3 86.7 592.6 86.3Q592.9 85.9 592.9 85.4L592.9 85.4Q592.9 84.9 592.7 84.7Q592.4 84.4 592.0 84.2Q591.6 84.0 591.1 83.9L591.1 83.9L589.9 83.5Q588.8 83.2 588.1 82.6Q587.5 82.0 587.5 81.1L587.5 81.1Q587.5 80.3 587.9 79.7Q588.4 79.1 589.1 78.7Q589.8 78.4 590.7 78.4L590.7 78.4Q591.7 78.4 592.4 78.7Q593.1 79.1 593.5 79.6Q593.9 80.2 594.0 80.9L594.0 80.9L592.8 80.9Q592.7 80.2 592.1 79.9Q591.6 79.5 590.7 79.5L590.7 79.5Q590.1 79.5 589.6 79.7Q589.2 79.9 588.9 80.2Q588.7 80.6 588.7 81.0L588.7 81.0Q588.7 81.5 589.0 81.8Q589.3 82.1 589.7 82.3Q590.1 82.5 590.5 82.5L590.5 82.5L591.4 82.8Q591.8 82.9 592.3 83.1Q592.7 83.3 593.1 83.6Q593.6 83.9 593.8 84.3Q594.1 84.8 594.1 85.4L594.1 85.4Q594.1 86.2 593.7 86.8Q593.3 87.4 592.5 87.8Q591.8 88.2 590.7 88.2ZM599.0 88.2L599.0 88.2Q598.0 88.2 597.2 87.8Q596.5 87.5 596.1 86.9Q595.6 86.3 595.6 85.5L595.6 85.5L596.8 85.5Q596.9 86.1 597.2 86.4Q597.5 86.7 598.0 86.9Q598.5 87.1 599.0 87.1L599.0 87.1Q599.6 87.1 600.2 86.9Q600.7 86.7 601.0 86.3Q601.3 85.9 601.3 85.4L601.3 85.4Q601.3 84.9 601.0 84.7Q600.8 84.4 600.3 84.2Q599.9 84.0 599.4 83.9L599.4 83.9L598.3 83.5Q597.1 83.2 596.5 82.6Q595.8 82.0 595.8 81.1L595.8 81.1Q595.8 80.3 596.3 79.7Q596.7 79.1 597.4 78.7Q598.2 78.4 599.1 78.4L599.1 78.4Q600.0 78.4 600.7 78.7Q601.5 79.1 601.9 79.6Q602.3 80.2 602.3 80.9L602.3 80.9L601.1 80.9Q601.1 80.2 600.5 79.9Q599.9 79.5 599.1 79.5L599.1 79.5Q598.4 79.5 598.0 79.7Q597.5 79.9 597.3 80.2Q597.0 80.6 597.0 81.0L597.0 81.0Q597.0 81.5 597.3 81.8Q597.6 82.1 598.1 82.3Q598.5 82.5 598.8 82.5L598.8 82.5L599.8 82.8Q600.1 82.9 600.6 83.1Q601.1 83.3 601.5 83.6Q601.9 83.9 602.2 84.3Q602.4 84.8 602.4 85.4L602.4 85.4Q602.4 86.2 602.0 86.8Q601.6 87.4 600.9 87.8Q600.1 88.2 599.0 88.2Z "/></g><mask id="satori_om-id-3-4-2"><rect x="610" y="77" width="18" height="13" fill="#fff" mask="url(#satori_om-id)"/></mask><g mask="url(#satori_om-id)" clip-path="url(#satori_cp-id)"><path fill="#6a6a8a" d="M613.2 88.1L613.2 88.1Q612.6 88.1 612.0 87.8Q611.5 87.6 611.2 87.1Q610.8 86.6 610.7 86.0L610.7 86.0L611.7 86.0Q611.9 86.5 612.2 86.9Q612.6 87.2 613.2 87.2L613.2 87.2Q613.9 87.2 614.3 86.8Q614.7 86.5 615.0 85.8Q615.2 85.1 615.2 84.2L615.2 84.2L615.1 84.2Q614.9 84.5 614.6 84.7Q614.3 85.0 614.0 85.1Q613.6 85.2 613.2 85.2L613.2 85.2Q612.5 85.2 611.9 84.9Q611.3 84.5 611.0 83.9Q610.7 83.3 610.7 82.6L610.7 82.6Q610.7 81.8 611.0 81.2Q611.3 80.6 611.9 80.2Q612.6 79.9 613.4 79.9L613.4 79.9Q613.9 79.9 614.4 80.1Q614.9 80.3 615.3 80.7Q615.7 81.1 615.9 81.8Q616.2 82.6 616.2 83.7L616.2 83.7Q616.2 84.7 616.0 85.6Q615.8 86.4 615.4 87.0Q615.0 87.5 614.5 87.8Q613.9 88.1 613.2 88.1ZM613.3 84.3L613.3 84.3Q613.7 84.3 614.0 84.2Q614.3 84.0 614.6 83.8Q614.8 83.5 614.9 83.2Q615.1 82.9 615.1 82.5L615.1 82.5Q615.1 82.1 614.8 81.7Q614.6 81.3 614.2 81.0Q613.9 80.8 613.4 80.8L613.4 80.8Q612.9 80.8 612.5 81.0Q612.1 81.3 611.9 81.7Q611.7 82.1 611.7 82.6L611.7 82.6Q611.7 83.1 611.9 83.5Q612.1 83.9 612.5 84.1Q612.8 84.3 613.3 84.3ZM619.6 83.5L619.6 83.5Q619.1 83.5 618.8 83.3Q618.4 83.1 618.2 82.7Q618.1 82.3 618.1 81.9L618.1 81.9L618.1 81.5Q618.1 81.0 618.2 80.7Q618.4 80.3 618.8 80.1Q619.1 79.9 619.6 79.9L619.6 79.9Q620.1 79.9 620.5 80.1Q620.8 80.3 621.0 80.7Q621.2 81.0 621.2 81.5L621.2 81.5L621.2 81.9Q621.2 82.3 621.0 82.7Q620.8 83.1 620.5 83.3Q620.1 83.5 619.6 83.5ZM619.6 82.8L619.6 82.8Q620.0 82.8 620.2 82.6Q620.4 82.3 620.4 81.9L620.4 81.9L620.4 81.5Q620.4 81.1 620.2 80.9Q620.0 80.6 619.6 80.6L619.6 80.6Q619.2 80.6 619.1 80.9Q618.9 81.1 618.9 81.5L618.9 81.5L618.9 81.9Q618.9 82.3 619.0 82.6Q619.2 82.8 619.6 82.8ZM624.8 88.2L624.8 88.2Q624.3 88.2 624.0 87.9Q623.6 87.7 623.4 87.3Q623.3 87.0 623.3 86.5L623.3 86.5L623.3 86.1Q623.3 85.7 623.4 85.3Q623.6 84.9 624.0 84.7Q624.3 84.5 624.8 84.5L624.8 84.5Q625.3 84.5 625.7 84.7Q626.0 84.9 626.2 85.3Q626.4 85.7 626.4 86.1L626.4 86.1L626.4 86.5Q626.4 87.0 626.2 87.3Q626.0 87.7 625.7 87.9Q625.3 88.2 624.8 88.2ZM624.8 87.5L624.8 87.5Q625.2 87.5 625.4 87.2Q625.6 86.9 625.6 86.5L625.6 86.5L625.6 86.1Q625.6 85.8 625.4 85.5Q625.2 85.2 624.8 85.2L624.8 85.2Q624.4 85.2 624.2 85.5Q624.1 85.8 624.1 86.1L624.1 86.1L624.1 86.5Q624.1 86.9 624.2 87.2Q624.4 87.5 624.8 87.5ZM619.9 88L619.0 88L624.5 80.0L625.4 80.0L619.9 88Z "/></g><mask id="satori_om-id-3-5"><rect x="25" y="105" width="120" height="16" fill="#fff" mask="url(#satori_om-id)"/></mask><mask id="satori_ms-id-3-5-0-0" maskUnits="userSpaceOnUse"><rect x="0" y="0" width="800" height="180" fill="#fff"/><path x="25" y="108" width="10" height="10" fill="#000"  stroke-width="0" d="M30,108 h0 a5,5 0 0 1 5,5 v0 a5,5 0 0 1 -5,5 h0 a5,5 0 0 1 -5,-5 v0 a5,5 0 0 1 5,-5" clip-path="url(#satori_cp-id)" mask="url(#satori_om-id)"/></mask><defs><filter id="satori_s-id-3-5-0-0" x="-90%" y="-90%" width="280%" height="280%"><feGaussianBlur stdDeviation="3" result="b"/><feFlood flood-color="#5686a540" in="SourceGraphic" result="f"/><feComposite in="f" in2="b" operator="in"/></filter></defs><g mask="url(#satori_ms-id-3-5-0-0)" filter="url(#satori_s-id-3-5-0-0)" opacity="1"><path x="25" y="108" width="10" height="10" fill="#fff" stroke="#fff" stroke-width="0" d="M30,108 h0 a5,5 0 0 1 5,5 v0 a5,5 0 0 1 -5,5 h0 a5,5 0 0 1 -5,-5 v0 a5,5 0 0 1 5,-5" clip-path="url(#satori_cp-id)" mask="url(#satori_om-id)"/></g><mask id="satori_om-id-3-5-0"><rect x="25" y="108" width="10" height="10" fill="#fff" mask="url(#satori_om-id)"/></mask><path x="25" y="108" width="10" height="10" fill="#5686a5" d="M30,108 h0 a5,5 0 0 1 5,5 v0 a5,5 0 0 1 -5,5 h0 a5,5 0 0 1 -5,-5 v0 a5,5 0 0 1 5,-5" clip-path="url(#satori_cp-id)" mask="url(#satori_om-id)"/><mask id="satori_om-id-3-5-1"><rect x="41" y="105" width="33" height="16" fill="#fff" mask="url(#satori_om-id)"/></mask><g mask="url(#satori_om-id)" clip-path="url(#satori_cp-id)"><path fill="#e0e0f0" d="M46.0 118.1L46.0 118.1Q44.7 118.1 43.8 117.5Q42.8 116.9 42.3 115.9Q41.8 114.8 41.8 113.3L41.8 113.3Q41.8 111.8 42.3 110.7Q42.8 109.6 43.8 109.0Q44.7 108.4 45.9 108.4L45.9 108.4Q46.7 108.4 47.3 108.6Q48.0 108.9 48.5 109.3Q49.0 109.7 49.4 110.3Q49.7 110.8 49.8 111.5L49.8 111.5L48.6 111.5Q48.4 111.0 48.2 110.7Q47.9 110.3 47.6 110.1Q47.3 109.8 46.9 109.7Q46.4 109.5 45.9 109.5L45.9 109.5Q45.1 109.5 44.4 110.0Q43.7 110.4 43.3 111.2Q42.9 112.1 42.9 113.3L42.9 113.3Q42.9 114.5 43.4 115.3Q43.8 116.1 44.4 116.6Q45.1 117.0 46.0 117.0L46.0 117.0Q46.8 117.0 47.4 116.7Q48.0 116.3 48.4 115.7L48.4 115.7Q48.7 115.1 48.7 114.3L48.7 114.3L46.3 114.3L46.3 113.2L49.9 113.2L49.9 114.3Q49.9 115.5 49.4 116.3Q48.9 117.2 48.0 117.7Q47.1 118.1 46.0 118.1ZM57.4 118L51.8 118L51.8 108.5L53.0 108.5L53.0 116.9L57.4 116.9L57.4 118ZM62.2 118.2L62.2 118.2Q61.2 118.2 60.4 117.8Q59.7 117.5 59.3 116.9Q58.8 116.3 58.8 115.5L58.8 115.5L60.0 115.5Q60.1 116.1 60.4 116.4Q60.7 116.7 61.2 116.9Q61.7 117.1 62.2 117.1L62.2 117.1Q62.9 117.1 63.4 116.9Q63.9 116.7 64.2 116.3Q64.5 115.9 64.5 115.4L64.5 115.4Q64.5 114.9 64.2 114.7Q64.0 114.4 63.5 114.2Q63.1 114.0 62.6 113.9L62.6 113.9L61.5 113.5Q60.3 113.2 59.7 112.6Q59.1 112.0 59.1 111.1L59.1 111.1Q59.1 110.3 59.5 109.7Q59.9 109.1 60.7 108.7Q61.4 108.4 62.3 108.4L62.3 108.4Q63.2 108.4 64.0 108.7Q64.7 109.1 65.1 109.6Q65.5 110.2 65.5 110.9L65.5 110.9L64.3 110.9Q64.3 110.2 63.7 109.9Q63.1 109.5 62.3 109.5L62.3 109.5Q61.7 109.5 61.2 109.7Q60.7 109.9 60.5 110.2Q60.2 110.6 60.2 111.0L60.2 111.0Q60.2 111.5 60.5 111.8Q60.8 112.1 61.3 112.3Q61.7 112.5 62.0 112.5L62.0 112.5L63.0 112.8Q63.4 112.9 63.8 113.1Q64.3 113.3 64.7 113.6Q65.1 113.9 65.4 114.3Q65.7 114.8 65.7 115.4L65.7 115.4Q65.7 116.2 65.3 116.8Q64.8 117.4 64.1 117.8Q63.3 118.2 62.2 118.2ZM73.1 118L67.5 118L67.5 108.5L68.7 108.5L68.7 116.9L73.1 116.9L73.1 118Z "/></g><mask id="satori_om-id-3-5-2"><rect x="80" y="107" width="18" height="13" fill="#fff" mask="url(#satori_om-id)"/></mask><g mask="url(#satori_om-id)" clip-path="url(#satori_cp-id)"><path fill="#6a6a8a" d="M83.2 118.1L83.2 118.1Q82.5 118.1 81.9 117.8Q81.4 117.6 81.0 117.1Q80.7 116.6 80.7 116.0L80.7 116.0L81.7 116.0Q81.7 116.3 81.9 116.6Q82.1 116.9 82.5 117.1Q82.8 117.2 83.2 117.2L83.2 117.2Q83.7 117.2 84.1 117.0Q84.4 116.8 84.7 116.4Q84.9 116.0 84.9 115.5L84.9 115.5Q84.9 114.9 84.6 114.5Q84.4 114.1 84.0 113.9Q83.6 113.7 83.1 113.7L83.1 113.7Q82.8 113.7 82.4 113.8Q82.0 113.9 81.8 114.1L81.8 114.1L80.8 114.0L81.3 110.0L85.5 110.0L85.5 110.9L82.1 110.9L81.9 113.2L81.9 113.2Q82.2 113.0 82.5 112.9Q82.9 112.8 83.3 112.8L83.3 112.8Q83.9 112.8 84.3 113.0Q84.8 113.2 85.1 113.5Q85.5 113.9 85.7 114.4Q85.9 114.9 85.9 115.4L85.9 115.4Q85.9 116.2 85.5 116.8Q85.2 117.4 84.6 117.8Q84.0 118.1 83.2 118.1ZM89.3 113.5L89.3 113.5Q88.8 113.5 88.5 113.3Q88.1 113.1 87.9 112.7Q87.8 112.3 87.8 111.9L87.8 111.9L87.8 111.5Q87.8 111.0 87.9 110.7Q88.1 110.3 88.5 110.1Q88.8 109.9 89.3 109.9L89.3 109.9Q89.9 109.9 90.2 110.1Q90.5 110.3 90.7 110.7Q90.9 111.0 90.9 111.5L90.9 111.5L90.9 111.9Q90.9 112.3 90.7 112.7Q90.5 113.1 90.2 113.3Q89.8 113.5 89.3 113.5ZM89.3 112.8L89.3 112.8Q89.7 112.8 89.9 112.6Q90.1 112.3 90.1 111.9L90.1 111.9L90.1 111.5Q90.1 111.1 89.9 110.9Q89.8 110.6 89.3 110.6L89.3 110.6Q88.9 110.6 88.8 110.9Q88.6 111.1 88.6 111.5L88.6 111.5L88.6 111.9Q88.6 112.3 88.8 112.6Q88.9 112.8 89.3 112.8ZM94.5 118.2L94.5 118.2Q94.0 118.2 93.7 117.9Q93.3 117.7 93.1 117.3Q93.0 117.0 93.0 116.5L93.0 116.5L93.0 116.1Q93.0 115.7 93.1 115.3Q93.3 114.9 93.7 114.7Q94.0 114.5 94.5 114.5L94.5 114.5Q95.0 114.5 95.4 114.7Q95.7 114.9 95.9 115.3Q96.1 115.7 96.1 116.1L96.1 116.1L96.1 116.5Q96.1 117.0 95.9 117.3Q95.7 117.7 95.4 117.9Q95.0 118.2 94.5 118.2ZM94.5 117.5L94.5 117.5Q94.9 117.5 95.1 117.2Q95.3 116.9 95.3 116.5L95.3 116.5L95.3 116.1Q95.3 115.8 95.1 115.5Q94.9 115.2 94.5 115.2L94.5 115.2Q94.1 115.2 94.0 115.5Q93.8 115.8 93.8 116.1L93.8 116.1L93.8 116.5Q93.8 116.9 93.9 117.2Q94.1 117.5 94.5 117.5ZM89.6 118L88.7 118L94.2 110.0L95.1 110.0L89.6 118Z "/></g><mask id="satori_om-id-3-6"><rect x="159" y="105" width="120" height="16" fill="#fff" mask="url(#satori_om-id)"/></mask><mask id="satori_ms-id-3-6-0-0" maskUnits="userSpaceOnUse"><rect x="0" y="0" width="800" height="180" fill="#fff"/><path x="159" y="108" width="10" height="10" fill="#000"  stroke-width="0" d="M164,108 h0 a5,5 0 0 1 5,5 v0 a5,5 0 0 1 -5,5 h0 a5,5 0 0 1 -5,-5 v0 a5,5 0 0 1 5,-5" clip-path="url(#satori_cp-id)" mask="url(#satori_om-id)"/></mask><defs><filter id="satori_s-id-3-6-0-0" x="-90%" y="-90%" width="280%" height="280%"><feGaussianBlur stdDeviation="3" result="b"/><feFlood flood-color="#89e05140" in="SourceGraphic" result="f"/><feComposite in="f" in2="b" operator="in"/></filter></defs><g mask="url(#satori_ms-id-3-6-0-0)" filter="url(#satori_s-id-3-6-0-0)" opacity="1"><path x="159" y="108" width="10" height="10" fill="#fff" stroke="#fff" stroke-width="0" d="M164,108 h0 a5,5 0 0 1 5,5 v0 a5,5 0 0 1 -5,5 h0 a5,5 0 0 1 -5,-5 v0 a5,5 0 0 1 5,-5" clip-path="url(#satori_cp-id)" mask="url(#satori_om-id)"/></g><mask id="satori_om-id-3-6-0"><rect x="159" y="108" width="10" height="10" fill="#fff" mask="url(#satori_om-id)"/></mask><path x="159" y="108" width="10" height="10" fill="#89e051" d="M164,108 h0 a5,5 0 0 1 5,5 v0 a5,5 0 0 1 -5,5 h0 a5,5 0 0 1 -5,-5 v0 a5,5 0 0 1 5,-5" clip-path="url(#satori_cp-id)" mask="url(#satori_om-id)"/><mask id="satori_om-id-3-6-1"><rect x="175" y="105" width="30" height="16" fill="#fff" mask="url(#satori_om-id)"/></mask><g mask="url(#satori_om-id)" clip-path="url(#satori_cp-id)"><path fill="#e0e0f0" d="M179.2 118.2L179.2 118.2Q178.1 118.2 177.4 117.8Q176.6 117.5 176.2 116.9Q175.8 116.3 175.7 115.5L175.7 115.5L177.0 115.5Q177.0 116.1 177.3 116.4Q177.6 116.7 178.1 116.9Q178.6 117.1 179.2 117.1L179.2 117.1Q179.8 117.1 180.3 116.9Q180.8 116.7 181.1 116.3Q181.4 115.9 181.4 115.4L181.4 115.4Q181.4 114.9 181.2 114.7Q180.9 114.4 180.5 114.2Q180.1 114.0 179.6 113.9L179.6 113.9L178.4 113.5Q177.3 113.2 176.6 112.6Q176.0 112.0 176.0 111.1L176.0 111.1Q176.0 110.3 176.4 109.7Q176.9 109.1 177.6 108.7Q178.3 108.4 179.3 108.4L179.3 108.4Q180.2 108.4 180.9 108.7Q181.6 109.1 182.0 109.6Q182.5 110.2 182.5 110.9L182.5 110.9L181.3 110.9Q181.2 110.2 180.6 109.9Q180.1 109.5 179.2 109.5L179.2 109.5Q178.6 109.5 178.1 109.7Q177.7 109.9 177.4 110.2Q177.2 110.6 177.2 111.0L177.2 111.0Q177.2 111.5 177.5 111.8Q177.8 112.1 178.2 112.3Q178.6 112.5 179.0 112.5L179.0 112.5L179.9 112.8Q180.3 112.9 180.8 113.1Q181.2 113.3 181.6 113.6Q182.1 113.9 182.3 114.3Q182.6 114.8 182.6 115.4L182.6 115.4Q182.6 116.2 182.2 116.8Q181.8 117.4 181.0 117.8Q180.3 118.2 179.2 118.2ZM185.5 113.7L185.5 113.7L185.5 118L184.3 118L184.3 108.5L185.5 108.5L185.5 112.1Q185.8 111.5 186.2 111.2L186.2 111.2Q186.8 110.8 187.6 110.8L187.6 110.8Q188.3 110.8 188.9 111.1Q189.4 111.4 189.7 112.0Q190.0 112.6 190.0 113.5L190.0 113.5L190.0 118L188.9 118L188.9 113.6Q188.9 112.8 188.4 112.3Q188.0 111.8 187.3 111.8L187.3 111.8Q186.8 111.8 186.4 112.1Q186.0 112.3 185.7 112.7Q185.5 113.1 185.5 113.7ZM195.0 118.2L195.0 118.2Q194.0 118.2 193.2 117.7Q192.5 117.2 192.1 116.4Q191.7 115.6 191.7 114.5Q191.7 113.4 192.1 112.6Q192.5 111.8 193.2 111.3Q193.9 110.8 194.9 110.8L194.9 110.8Q195.4 110.8 196.0 111.0Q196.5 111.2 197.0 111.6Q197.4 112.0 197.7 112.7Q198.0 113.4 198.0 114.4L198.0 114.4L198.0 114.8L192.8 114.8Q192.9 115.5 193.1 116.0L193.1 116.0Q193.4 116.6 193.9 116.9Q194.4 117.1 195.0 117.1L195.0 117.1Q195.4 117.1 195.8 117.0Q196.1 116.9 196.4 116.7Q196.6 116.4 196.8 116.0L196.8 116.0L197.9 116.3Q197.7 116.9 197.3 117.3Q196.9 117.7 196.3 117.9Q195.7 118.2 195.0 118.2ZM192.8 113.9L192.8 113.9L196.8 113.9Q196.8 113.4 196.6 113.0L196.6 113.0Q196.4 112.4 196.0 112.1Q195.5 111.8 194.9 111.8Q194.2 111.8 193.8 112.1Q193.3 112.5 193.1 113.0L193.1 113.0Q192.9 113.4 192.8 113.9ZM199.6 108.5L200.8 108.5L200.8 118L199.6 118L199.6 108.5ZM202.8 108.5L203.9 108.5L203.9 118L202.8 118L202.8 108.5Z "/></g><mask id="satori_om-id-3-6-2"><rect x="211" y="107" width="18" height="13" fill="#fff" mask="url(#satori_om-id)"/></mask><g mask="url(#satori_om-id)" clip-path="url(#satori_cp-id)"><path fill="#6a6a8a" d="M214.2 118.1L214.2 118.1Q213.5 118.1 212.9 117.8Q212.4 117.6 212.0 117.1Q211.7 116.6 211.7 116.0L211.7 116.0L212.7 116.0Q212.7 116.3 212.9 116.6Q213.1 116.9 213.5 117.1Q213.8 117.2 214.2 117.2L214.2 117.2Q214.7 117.2 215.1 117.0Q215.4 116.8 215.7 116.4Q215.9 116.0 215.9 115.5L215.9 115.5Q215.9 114.9 215.6 114.5Q215.4 114.1 215.0 113.9Q214.6 113.7 214.1 113.7L214.1 113.7Q213.8 113.7 213.4 113.8Q213.0 113.9 212.8 114.1L212.8 114.1L211.8 114.0L212.3 110.0L216.5 110.0L216.5 110.9L213.1 110.9L212.9 113.2L212.9 113.2Q213.2 113.0 213.5 112.9Q213.9 112.8 214.3 112.8L214.3 112.8Q214.9 112.8 215.3 113.0Q215.8 113.2 216.1 113.5Q216.5 113.9 216.7 114.4Q216.9 114.9 216.9 115.4L216.9 115.4Q216.9 116.2 216.5 116.8Q216.2 117.4 215.6 117.8Q215.0 118.1 214.2 118.1ZM220.3 113.5L220.3 113.5Q219.8 113.5 219.5 113.3Q219.1 113.1 218.9 112.7Q218.8 112.3 218.8 111.9L218.8 111.9L218.8 111.5Q218.8 111.0 218.9 110.7Q219.1 110.3 219.5 110.1Q219.8 109.9 220.3 109.9L220.3 109.9Q220.9 109.9 221.2 110.1Q221.5 110.3 221.7 110.7Q221.9 111.0 221.9 111.5L221.9 111.5L221.9 111.9Q221.9 112.3 221.7 112.7Q221.5 113.1 221.2 113.3Q220.8 113.5 220.3 113.5ZM220.3 112.8L220.3 112.8Q220.7 112.8 220.9 112.6Q221.1 112.3 221.1 111.9L221.1 111.9L221.1 111.5Q221.1 111.1 220.9 110.9Q220.8 110.6 220.3 110.6L220.3 110.6Q219.9 110.6 219.8 110.9Q219.6 111.1 219.6 111.5L219.6 111.5L219.6 111.9Q219.6 112.3 219.8 112.6Q219.9 112.8 220.3 112.8ZM225.5 118.2L225.5 118.2Q225.0 118.2 224.7 117.9Q224.3 117.7 224.1 117.3Q224.0 117.0 224.0 116.5L224.0 116.5L224.0 116.1Q224.0 115.7 224.1 115.3Q224.3 114.9 224.7 114.7Q225.0 114.5 225.5 114.5L225.5 114.5Q226.0 114.5 226.4 114.7Q226.7 114.9 226.9 115.3Q227.1 115.7 227.1 116.1L227.1 116.1L227.1 116.5Q227.1 117.0 226.9 117.3Q226.7 117.7 226.4 117.9Q226.0 118.2 225.5 118.2ZM225.5 117.5L225.5 117.5Q225.9 117.5 226.1 117.2Q226.3 116.9 226.3 116.5L226.3 116.5L226.3 116.1Q226.3 115.8 226.1 115.5Q225.9 115.2 225.5 115.2L225.5 115.2Q225.1 115.2 225.0 115.5Q224.8 115.8 224.8 116.1L224.8 116.1L224.8 116.5Q224.8 116.9 224.9 117.2Q225.1 117.5 225.5 117.5ZM220.6 118L219.7 118L225.2 110.0L226.1 110.0L220.6 118Z "/></g><mask id="satori_om-id-3-7"><rect x="293" y="105" width="120" height="16" fill="#fff" mask="url(#satori_om-id)"/></mask><mask id="satori_ms-id-3-7-0-0" maskUnits="userSpaceOnUse"><rect x="0" y="0" width="800" height="180" fill="#fff"/><path x="293" y="108" width="10" height="10" fill="#000"  stroke-width="0" d="M298,108 h0 a5,5 0 0 1 5,5 v0 a5,5 0 0 1 -5,5 h0 a5,5 0 0 1 -5,-5 v0 a5,5 0 0 1 5,-5" clip-path="url(#satori_cp-id)" mask="url(#satori_om-id)"/></mask><defs><filter id="satori_s-id-3-7-0-0" x="-90%" y="-90%" width="280%" height="280%"><feGaussianBlur stdDeviation="3" result="b"/><feFlood flood-color="#6E4C1340" in="SourceGraphic" result="f"/><feComposite in="f" in2="b" operator="in"/></filter></defs><g mask="url(#satori_ms-id-3-7-0-0)" filter="url(#satori_s-id-3-7-0-0)" opacity="1"><path x="293" y="108" width="10" height="10" fill="#fff" stroke="#fff" stroke-width="0" d="M298,108 h0 a5,5 0 0 1 5,5 v0 a5,5 0 0 1 -5,5 h0 a5,5 0 0 1 -5,-5 v0 a5,5 0 0 1 5,-5" clip-path="url(#satori_cp-id)" mask="url(#satori_om-id)"/></g><mask id="satori_om-id-3-7-0"><rect x="293" y="108" width="10" height="10" fill="#fff" mask="url(#satori_om-id)"/></mask><path x="293" y="108" width="10" height="10" fill="#6E4C13" d="M298,108 h0 a5,5 0 0 1 5,5 v0 a5,5 0 0 1 -5,5 h0 a5,5 0 0 1 -5,-5 v0 a5,5 0 0 1 5,-5" clip-path="url(#satori_cp-id)" mask="url(#satori_om-id)"/><mask id="satori_om-id-3-7-1"><rect x="309" y="105" width="61" height="16" fill="#fff" mask="url(#satori_om-id)"/></mask><g mask="url(#satori_om-id)" clip-path="url(#satori_cp-id)"><path fill="#e0e0f0" d="M310.6 118L309.3 118L312.8 108.5L314.2 108.5L317.6 118L316.4 118L315.4 115.4L311.5 115.4L310.6 118ZM311.9 114.3L315.0 114.3L314.4 112.4Q314.2 111.9 313.9 111.1L313.9 111.1Q313.7 110.4 313.5 109.5L313.5 109.5Q313.2 110.5 313.0 111.1L313.0 111.1Q312.7 111.9 312.6 112.4L312.6 112.4L311.9 114.3ZM321.4 118.2L321.4 118.2Q320.7 118.2 320.1 117.9Q319.5 117.7 319.1 117.3Q318.8 116.9 318.7 116.3L318.7 116.3L319.7 116.0Q319.9 116.6 320.3 116.9Q320.7 117.1 321.4 117.1L321.4 117.1Q322.1 117.1 322.6 116.8Q323.0 116.5 323.0 116.1L323.0 116.1Q323.0 115.7 322.7 115.5Q322.5 115.2 322.0 115.1L322.0 115.1L320.8 114.8Q319.8 114.6 319.3 114.1Q318.9 113.6 318.9 112.9L318.9 112.9Q318.9 112.3 319.2 111.8Q319.6 111.3 320.1 111.1Q320.7 110.8 321.5 110.8L321.5 110.8Q322.2 110.8 322.7 111.0Q323.3 111.3 323.6 111.6Q323.9 112.0 324.1 112.5L324.1 112.5L323.0 112.8Q322.9 112.4 322.5 112.1Q322.2 111.8 321.5 111.8L321.5 111.8Q320.9 111.8 320.4 112.1Q320.0 112.4 320.0 112.8L320.0 112.8Q320.0 113.2 320.3 113.4Q320.6 113.7 321.2 113.8L321.2 113.8L322.3 114.1Q323.3 114.3 323.7 114.8Q324.2 115.3 324.2 116.0L324.2 116.0Q324.2 116.6 323.8 117.1Q323.5 117.6 322.8 117.9Q322.2 118.2 321.4 118.2ZM328.2 118.2L328.2 118.2Q327.5 118.2 326.9 117.9Q326.4 117.7 326.0 117.3Q325.6 116.9 325.5 116.3L325.5 116.3L326.6 116.0Q326.8 116.6 327.2 116.9Q327.6 117.1 328.2 117.1L328.2 117.1Q329.0 117.1 329.4 116.8Q329.9 116.5 329.9 116.1L329.9 116.1Q329.9 115.7 329.6 115.5Q329.3 115.2 328.8 115.1L328.8 115.1L327.6 114.8Q326.7 114.6 326.2 114.1Q325.7 113.6 325.7 112.9L325.7 112.9Q325.7 112.3 326.1 111.8Q326.4 111.3 327.0 111.1Q327.6 110.8 328.4 110.8L328.4 110.8Q329.1 110.8 329.6 111.0Q330.1 111.3 330.4 111.6Q330.8 112.0 330.9 112.5L330.9 112.5L329.9 112.8Q329.7 112.4 329.4 112.1Q329.1 111.8 328.4 111.8L328.4 111.8Q327.7 111.8 327.3 112.1Q326.9 112.4 326.9 112.8L326.9 112.8Q326.9 113.2 327.2 113.4Q327.5 113.7 328.1 113.8L328.1 113.8L329.2 114.1Q330.1 114.3 330.6 114.8Q331.0 115.3 331.0 116.0L331.0 116.0Q331.0 116.6 330.7 117.1Q330.3 117.6 329.7 117.9Q329.1 118.2 328.2 118.2ZM335.7 118.2L335.7 118.2Q334.7 118.2 333.9 117.7Q333.2 117.2 332.8 116.4Q332.4 115.6 332.4 114.5Q332.4 113.4 332.7 112.6Q333.1 111.8 333.9 111.3Q334.6 110.8 335.5 110.8L335.5 110.8Q336.1 110.8 336.7 111.0Q337.2 111.2 337.7 111.6Q338.1 112.0 338.4 112.7Q338.6 113.4 338.6 114.4L338.6 114.4L338.6 114.8L333.5 114.8Q333.5 115.5 333.8 116.0L333.8 116.0Q334.1 116.6 334.5 116.9Q335.0 117.1 335.7 117.1L335.7 117.1Q336.1 117.1 336.4 117.0Q336.8 116.9 337.0 116.7Q337.3 116.4 337.4 116.0L337.4 116.0L338.5 116.3Q338.4 116.9 338.0 117.3Q337.6 117.7 337.0 117.9Q336.4 118.2 335.7 118.2ZM333.5 113.9L333.5 113.9L337.5 113.9Q337.4 113.4 337.3 113.0L337.3 113.0Q337.1 112.4 336.6 112.1Q336.2 111.8 335.5 111.8Q334.9 111.8 334.4 112.1Q334.0 112.5 333.7 113.0L333.7 113.0Q333.5 113.4 333.5 113.9ZM341.4 118L340.3 118L340.3 110.9L341.4 110.9L341.4 112.2Q341.5 111.8 341.8 111.5L341.8 111.5Q342.1 111.2 342.5 111.0Q342.9 110.8 343.4 110.8L343.4 110.8Q344.2 110.8 344.6 111.3L344.6 111.3Q345.0 111.6 345.2 112.2L345.2 112.2Q345.3 111.9 345.6 111.6L345.6 111.6Q345.9 111.2 346.4 111.0Q346.9 110.8 347.4 110.8L347.4 110.8Q348.0 110.8 348.5 111.0Q349.1 111.3 349.4 111.8Q349.7 112.4 349.7 113.2L349.7 113.2L349.7 118L348.5 118L348.5 113.2Q348.5 112.5 348.1 112.1Q347.7 111.8 347.1 111.8L347.1 111.8Q346.6 111.8 346.3 112.0Q345.9 112.2 345.7 112.6Q345.5 112.9 345.5 113.4L345.5 113.4L345.5 118L344.4 118L344.4 113.1Q344.4 112.5 344.0 112.2Q343.6 111.8 343.0 111.8L343.0 111.8Q342.6 111.8 342.2 112.0Q341.9 112.2 341.6 112.6Q341.4 113.0 341.4 113.5L341.4 113.5L341.4 118ZM355.0 118.2L355.0 118.2Q354.3 118.2 353.9 117.9Q353.5 117.7 353.2 117.4Q353.0 117.1 352.9 116.9L352.9 116.9L352.8 116.9L352.8 118L351.7 118L351.7 108.5L352.8 108.5L352.8 112.0L352.9 112.0Q353.0 111.8 353.2 111.6Q353.4 111.3 353.9 111.0Q354.3 110.8 355.0 110.8L355.0 110.8Q355.8 110.8 356.5 111.3Q357.2 111.7 357.6 112.5Q358.0 113.3 358.0 114.5L358.0 114.5Q358.0 115.6 357.6 116.4Q357.2 117.3 356.5 117.7Q355.8 118.2 355.0 118.2ZM354.8 117.1L354.8 117.1Q355.5 117.1 355.9 116.8Q356.3 116.4 356.6 115.8Q356.8 115.2 356.8 114.5L356.8 114.5Q356.8 113.7 356.6 113.1Q356.4 112.5 355.9 112.2Q355.5 111.8 354.8 111.8L354.8 111.8Q354.1 111.8 353.7 112.2Q353.2 112.5 353.0 113.1Q352.8 113.7 352.8 114.5L352.8 114.5Q352.8 115.2 353.0 115.8Q353.2 116.5 353.7 116.8Q354.1 117.1 354.8 117.1ZM359.6 108.5L360.8 108.5L360.8 118L359.6 118L359.6 108.5ZM362.7 120.6L362.7 120.6L362.9 119.6L363.1 119.6Q363.4 119.7 363.7 119.7Q364.0 119.6 364.2 119.4Q364.4 119.1 364.6 118.6L364.6 118.6L364.8 118.0L362.1 110.9L363.4 110.9L364.9 115.1Q365.1 115.8 365.3 116.4L365.3 116.4Q365.3 116.7 365.4 117.0L365.4 117.0Q365.5 116.7 365.6 116.4L365.6 116.4Q365.7 115.8 366.0 115.1L366.0 115.1L367.5 110.9L368.7 110.9L365.6 119.1Q365.4 119.6 365.1 120.0Q364.8 120.4 364.4 120.5Q364.0 120.7 363.5 120.7L363.5 120.7Q363.2 120.7 363.0 120.7Q362.7 120.6 362.7 120.6Z "/></g><mask id="satori_om-id-3-7-2"><rect x="376" y="107" width="18" height="13" fill="#fff" mask="url(#satori_om-id)"/></mask><g mask="url(#satori_om-id)" clip-path="url(#satori_cp-id)"><path fill="#6a6a8a" d="M379.2 118.1L379.2 118.1Q378.5 118.1 377.9 117.8Q377.4 117.6 377.0 117.1Q376.7 116.6 376.7 116.0L376.7 116.0L377.7 116.0Q377.7 116.3 377.9 116.6Q378.1 116.9 378.5 117.1Q378.8 117.2 379.2 117.2L379.2 117.2Q379.7 117.2 380.1 117.0Q380.4 116.8 380.7 116.4Q380.9 116.0 380.9 115.5L380.9 115.5Q380.9 114.9 380.6 114.5Q380.4 114.1 380.0 113.9Q379.6 113.7 379.1 113.7L379.1 113.7Q378.8 113.7 378.4 113.8Q378.0 113.9 377.8 114.1L377.8 114.1L376.8 114.0L377.3 110.0L381.5 110.0L381.5 110.9L378.1 110.9L377.9 113.2L377.9 113.2Q378.2 113.0 378.5 112.9Q378.9 112.8 379.3 112.8L379.3 112.8Q379.9 112.8 380.3 113.0Q380.8 113.2 381.1 113.5Q381.5 113.9 381.7 114.4Q381.9 114.9 381.9 115.4L381.9 115.4Q381.9 116.2 381.5 116.8Q381.2 117.4 380.6 117.8Q380.0 118.1 379.2 118.1ZM385.3 113.5L385.3 113.5Q384.8 113.5 384.5 113.3Q384.1 113.1 383.9 112.7Q383.8 112.3 383.8 111.9L383.8 111.9L383.8 111.5Q383.8 111.0 383.9 110.7Q384.1 110.3 384.5 110.1Q384.8 109.9 385.3 109.9L385.3 109.9Q385.9 109.9 386.2 110.1Q386.5 110.3 386.7 110.7Q386.9 111.0 386.9 111.5L386.9 111.5L386.9 111.9Q386.9 112.3 386.7 112.7Q386.5 113.1 386.2 113.3Q385.8 113.5 385.3 113.5ZM385.3 112.8L385.3 112.8Q385.7 112.8 385.9 112.6Q386.1 112.3 386.1 111.9L386.1 111.9L386.1 111.5Q386.1 111.1 385.9 110.9Q385.8 110.6 385.3 110.6L385.3 110.6Q384.9 110.6 384.8 110.9Q384.6 111.1 384.6 111.5L384.6 111.5L384.6 111.9Q384.6 112.3 384.8 112.6Q384.9 112.8 385.3 112.8ZM390.5 118.2L390.5 118.2Q390.0 118.2 389.7 117.9Q389.3 117.7 389.1 117.3Q389.0 117.0 389.0 116.5L389.0 116.5L389.0 116.1Q389.0 115.7 389.1 115.3Q389.3 114.9 389.7 114.7Q390.0 114.5 390.5 114.5L390.5 114.5Q391.0 114.5 391.4 114.7Q391.7 114.9 391.9 115.3Q392.1 115.7 392.1 116.1L392.1 116.1L392.1 116.5Q392.1 117.0 391.9 117.3Q391.7 117.7 391.4 117.9Q391.0 118.2 390.5 118.2ZM390.5 117.5L390.5 117.5Q390.9 117.5 391.1 117.2Q391.3 116.9 391.3 116.5L391.3 116.5L391.3 116.1Q391.3 115.8 391.1 115.5Q390.9 115.2 390.5 115.2L390.5 115.2Q390.1 115.2 390.0 115.5Q389.8 115.8 389.8 116.1L389.8 116.1L389.8 116.5Q389.8 116.9 389.9 117.2Q390.1 117.5 390.5 117.5ZM385.6 118L384.7 118L390.2 110.0L391.1 110.0L385.6 118Z "/></g><mask id="satori_om-id-3-8"><rect x="427" y="105" width="120" height="16" fill="#fff" mask="url(#satori_om-id)"/></mask><mask id="satori_ms-id-3-8-0-0" maskUnits="userSpaceOnUse"><rect x="0" y="0" width="800" height="180" fill="#fff"/><path x="427" y="108" width="10" height="10" fill="#000"  stroke-width="0" d="M432,108 h0 a5,5 0 0 1 5,5 v0 a5,5 0 0 1 -5,5 h0 a5,5 0 0 1 -5,-5 v0 a5,5 0 0 1 5,-5" clip-path="url(#satori_cp-id)" mask="url(#satori_om-id)"/></mask><defs><filter id="satori_s-id-3-8-0-0" x="-90%" y="-90%" width="280%" height="280%"><feGaussianBlur stdDeviation="3" result="b"/><feFlood flood-color="#A97BFF40" in="SourceGraphic" result="f"/><feComposite in="f" in2="b" operator="in"/></filter></defs><g mask="url(#satori_ms-id-3-8-0-0)" filter="url(#satori_s-id-3-8-0-0)" opacity="1"><path x="427" y="108" width="10" height="10" fill="#fff" stroke="#fff" stroke-width="0" d="M432,108 h0 a5,5 0 0 1 5,5 v0 a5,5 0 0 1 -5,5 h0 a5,5 0 0 1 -5,-5 v0 a5,5 0 0 1 5,-5" clip-path="url(#satori_cp-id)" mask="url(#satori_om-id)"/></g><mask id="satori_om-id-3-8-0"><rect x="427" y="108" width="10" height="10" fill="#fff" mask="url(#satori_om-id)"/></mask><path x="427" y="108" width="10" height="10" fill="#A97BFF" d="M432,108 h0 a5,5 0 0 1 5,5 v0 a5,5 0 0 1 -5,5 h0 a5,5 0 0 1 -5,-5 v0 a5,5 0 0 1 5,-5" clip-path="url(#satori_cp-id)" mask="url(#satori_om-id)"/><mask id="satori_om-id-3-8-1"><rect x="443" y="105" width="35" height="16" fill="#fff" mask="url(#satori_om-id)"/></mask><g mask="url(#satori_om-id)" clip-path="url(#satori_cp-id)"><path fill="#e0e0f0" d="M445.3 118L444.1 118L444.1 108.5L445.3 108.5L445.3 111.8L445.3 113.5Q445.5 113.3 445.6 113.2L445.6 113.2Q445.9 112.8 446.3 112.4Q446.6 112.0 447.0 111.6L447.0 111.6L449.8 108.5L451.4 108.5L447.5 112.6L451.4 118L449.9 118L446.7 113.5L445.3 114.9L445.3 118ZM455.6 118.2L455.6 118.2Q454.7 118.2 453.9 117.7Q453.2 117.2 452.8 116.4Q452.4 115.6 452.4 114.5L452.4 114.5Q452.4 113.4 452.8 112.6Q453.2 111.7 453.9 111.3Q454.7 110.8 455.6 110.8L455.6 110.8Q456.6 110.8 457.3 111.3Q458.1 111.7 458.5 112.6Q458.9 113.4 458.9 114.5L458.9 114.5Q458.9 115.6 458.5 116.4Q458.1 117.2 457.3 117.7Q456.6 118.2 455.6 118.2ZM455.6 117.1L455.6 117.1Q456.3 117.1 456.8 116.8Q457.3 116.4 457.5 115.8Q457.7 115.2 457.7 114.5L457.7 114.5Q457.7 113.8 457.5 113.2Q457.3 112.6 456.8 112.2Q456.3 111.8 455.6 111.8L455.6 111.8Q454.9 111.8 454.5 112.2Q454.0 112.6 453.8 113.2Q453.6 113.8 453.6 114.5L453.6 114.5Q453.6 115.2 453.8 115.8Q454.0 116.4 454.5 116.8Q454.9 117.1 455.6 117.1ZM461.9 110.9L463.3 110.9L463.3 111.9L461.9 111.9L461.9 116.2Q461.9 116.6 462.1 116.9Q462.3 117.1 462.7 117.1L462.7 117.1Q462.8 117.1 463.0 117.0Q463.1 117.0 463.3 117.0L463.3 117.0L463.5 118.0Q463.3 118.0 463.1 118.1Q462.9 118.1 462.7 118.1L462.7 118.1Q461.8 118.1 461.2 117.6Q460.7 117.1 460.7 116.2L460.7 116.2L460.7 111.9L459.7 111.9L459.7 110.9L460.7 110.9L460.7 109.2L461.9 109.2L461.9 110.9ZM464.8 108.5L465.9 108.5L465.9 118L464.8 118L464.8 108.5ZM469.1 118L467.9 118L467.9 110.9L469.1 110.9L469.1 118ZM468.5 109.7L468.5 109.7Q468.2 109.7 468.0 109.5Q467.7 109.3 467.7 109.0L467.7 109.0Q467.7 108.7 468.0 108.4Q468.2 108.2 468.5 108.2L468.5 108.2Q468.8 108.2 469.1 108.4Q469.3 108.7 469.3 109.0L469.3 109.0Q469.3 109.3 469.1 109.5Q468.8 109.7 468.5 109.7ZM472.2 113.7L472.2 113.7L472.2 118L471.1 118L471.1 110.9L472.2 110.9L472.2 112.2Q472.5 111.6 473.0 111.2L473.0 111.2Q473.6 110.8 474.4 110.8L474.4 110.8Q475.1 110.8 475.6 111.1Q476.2 111.4 476.5 112.0Q476.8 112.6 476.8 113.5L476.8 113.5L476.8 118L475.6 118L475.6 113.6Q475.6 112.8 475.2 112.3Q474.8 111.8 474.0 111.8L474.0 111.8Q473.5 111.8 473.1 112.1Q472.7 112.3 472.5 112.7Q472.2 113.1 472.2 113.7Z "/></g><mask id="satori_om-id-3-8-2"><rect x="484" y="107" width="18" height="13" fill="#fff" mask="url(#satori_om-id)"/></mask><g mask="url(#satori_om-id)" clip-path="url(#satori_cp-id)"><path fill="#6a6a8a" d="M489.9 118L484.8 118L484.8 117.3L487.5 114.4Q487.9 113.9 488.2 113.5Q488.5 113.2 488.7 112.8Q488.8 112.5 488.8 112.1L488.8 112.1Q488.8 111.7 488.6 111.4Q488.4 111.1 488.1 110.9Q487.7 110.8 487.3 110.8L487.3 110.8Q486.9 110.8 486.5 111.0Q486.2 111.1 486.0 111.5Q485.8 111.8 485.8 112.3L485.8 112.3L484.8 112.3Q484.8 111.6 485.2 111.0Q485.5 110.5 486.1 110.2Q486.6 109.9 487.3 109.9L487.3 109.9Q488.1 109.9 488.6 110.2Q489.2 110.5 489.5 111.0Q489.8 111.5 489.8 112.1L489.8 112.1Q489.8 112.6 489.6 113.0Q489.5 113.4 489.1 113.9Q488.7 114.4 488.0 115.2L488.0 115.2L486.2 117.0L486.2 117.1L489.9 117.1L489.9 118ZM493.5 113.5L493.5 113.5Q493.0 113.5 492.7 113.3Q492.3 113.1 492.1 112.7Q491.9 112.3 491.9 111.9L491.9 111.9L491.9 111.5Q491.9 111.0 492.1 110.7Q492.3 110.3 492.7 110.1Q493.0 109.9 493.5 109.9L493.5 109.9Q494.0 109.9 494.4 110.1Q494.7 110.3 494.9 110.7Q495.1 111.0 495.1 111.5L495.1 111.5L495.1 111.9Q495.1 112.3 494.9 112.7Q494.7 113.1 494.4 113.3Q494.0 113.5 493.5 113.5ZM493.5 112.8L493.5 112.8Q493.9 112.8 494.1 112.6Q494.3 112.3 494.3 111.9L494.3 111.9L494.3 111.5Q494.3 111.1 494.1 110.9Q493.9 110.6 493.5 110.6L493.5 110.6Q493.1 110.6 492.9 110.9Q492.8 111.1 492.8 111.5L492.8 111.5L492.8 111.9Q492.8 112.3 492.9 112.6Q493.1 112.8 493.5 112.8ZM498.7 118.2L498.7 118.2Q498.2 118.2 497.8 117.9Q497.5 117.7 497.3 117.3Q497.1 117.0 497.1 116.5L497.1 116.5L497.1 116.1Q497.1 115.7 497.3 115.3Q497.5 114.9 497.9 114.7Q498.2 114.5 498.7 114.5L498.7 114.5Q499.2 114.5 499.6 114.7Q499.9 114.9 500.1 115.3Q500.3 115.7 500.3 116.1L500.3 116.1L500.3 116.5Q500.3 117.0 500.1 117.3Q499.9 117.7 499.6 117.9Q499.2 118.2 498.7 118.2ZM498.7 117.5L498.7 117.5Q499.1 117.5 499.3 117.2Q499.5 116.9 499.5 116.5L499.5 116.5L499.5 116.1Q499.5 115.8 499.3 115.5Q499.1 115.2 498.7 115.2L498.7 115.2Q498.3 115.2 498.1 115.5Q498.0 115.8 498.0 116.1L498.0 116.1L498.0 116.5Q498.0 116.9 498.1 117.2Q498.3 117.5 498.7 117.5ZM493.8 118L492.9 118L498.4 110.0L499.3 110.0L493.8 118Z "/></g><mask id="satori_om-id-3-9"><rect x="561" y="105" width="120" height="16" fill="#fff" mask="url(#satori_om-id)"/></mask><mask id="satori_ms-id-3-9-0-0" maskUnits="userSpaceOnUse"><rect x="0" y="0" width="800" height="180" fill="#fff"/><path x="561" y="108" width="10" height="10" fill="#000"  stroke-width="0" d="M566,108 h0 a5,5 0 0 1 5,5 v0 a5,5 0 0 1 -5,5 h0 a5,5 0 0 1 -5,-5 v0 a5,5 0 0 1 5,-5" clip-path="url(#satori_cp-id)" mask="url(#satori_om-id)"/></mask><defs><filter id="satori_s-id-3-9-0-0" x="-90%" y="-90%" width="280%" height="280%"><feGaussianBlur stdDeviation="3" result="b"/><feFlood flood-color="#e34c2640" in="SourceGraphic" result="f"/><feComposite in="f" in2="b" operator="in"/></filter></defs><g mask="url(#satori_ms-id-3-9-0-0)" filter="url(#satori_s-id-3-9-0-0)" opacity="1"><path x="561" y="108" width="10" height="10" fill="#fff" stroke="#fff" stroke-width="0" d="M566,108 h0 a5,5 0 0 1 5,5 v0 a5,5 0 0 1 -5,5 h0 a5,5 0 0 1 -5,-5 v0 a5,5 0 0 1 5,-5" clip-path="url(#satori_cp-id)" mask="url(#satori_om-id)"/></g><mask id="satori_om-id-3-9-0"><rect x="561" y="108" width="10" height="10" fill="#fff" mask="url(#satori_om-id)"/></mask><path x="561" y="108" width="10" height="10" fill="#e34c26" d="M566,108 h0 a5,5 0 0 1 5,5 v0 a5,5 0 0 1 -5,5 h0 a5,5 0 0 1 -5,-5 v0 a5,5 0 0 1 5,-5" clip-path="url(#satori_cp-id)" mask="url(#satori_om-id)"/><mask id="satori_om-id-3-9-1"><rect x="577" y="105" width="38" height="16" fill="#fff" mask="url(#satori_om-id)"/></mask><g mask="url(#satori_om-id)" clip-path="url(#satori_cp-id)"><path fill="#e0e0f0" d="M579.3 118L578.1 118L578.1 108.5L579.3 108.5L579.3 112.6L584.3 112.6L584.3 108.5L585.5 108.5L585.5 118L584.3 118L584.3 113.7L579.3 113.7L579.3 118ZM590.3 109.6L587.3 109.6L587.3 108.5L594.4 108.5L594.4 109.6L591.5 109.6L591.5 118L590.3 118L590.3 109.6ZM597.3 118L596.2 118L596.2 108.5L597.9 108.5L600.2 114.5Q600.3 114.7 600.4 115.0Q600.5 115.3 600.6 115.7Q600.8 116.1 600.9 116.4L600.9 116.4Q600.9 116.6 600.9 116.7L600.9 116.7Q601.0 116.6 601.0 116.5L601.0 116.5Q601.1 116.1 601.2 115.7Q601.3 115.4 601.4 115.0Q601.6 114.7 601.6 114.5L601.6 114.5L603.9 108.5L605.7 108.5L605.7 118L604.5 118L604.5 112.6Q604.5 112.3 604.5 111.9Q604.5 111.6 604.5 111.1Q604.5 110.7 604.5 110.3L604.5 110.3Q604.5 110.1 604.5 109.8L604.5 109.8Q604.4 110.1 604.3 110.4L604.3 110.4Q604.2 110.8 604.0 111.2Q603.9 111.7 603.8 112.0Q603.6 112.4 603.6 112.6L603.6 112.6L601.4 118L600.4 118L598.3 112.6Q598.2 112.4 598.0 112.0Q597.9 111.7 597.8 111.3Q597.6 110.9 597.5 110.4L597.5 110.4Q597.4 110.1 597.3 109.8L597.3 109.8Q597.3 110.0 597.3 110.2L597.3 110.2Q597.3 110.7 597.3 111.1Q597.3 111.5 597.3 111.9Q597.3 112.3 597.3 112.6L597.3 112.6L597.3 118ZM613.5 118L607.9 118L607.9 108.5L609.1 108.5L609.1 116.9L613.5 116.9L613.5 118Z "/></g><mask id="satori_om-id-3-9-2"><rect x="621" y="107" width="18" height="13" fill="#fff" mask="url(#satori_om-id)"/></mask><g mask="url(#satori_om-id)" clip-path="url(#satori_cp-id)"><path fill="#6a6a8a" d="M626.9 118L621.8 118L621.8 117.3L624.5 114.4Q624.9 113.9 625.2 113.5Q625.5 113.2 625.7 112.8Q625.8 112.5 625.8 112.1L625.8 112.1Q625.8 111.7 625.6 111.4Q625.4 111.1 625.1 110.9Q624.7 110.8 624.3 110.8L624.3 110.8Q623.9 110.8 623.5 111.0Q623.2 111.1 623.0 111.5Q622.8 111.8 622.8 112.3L622.8 112.3L621.8 112.3Q621.8 111.6 622.2 111.0Q622.5 110.5 623.1 110.2Q623.6 109.9 624.3 109.9L624.3 109.9Q625.1 109.9 625.6 110.2Q626.2 110.5 626.5 111.0Q626.8 111.5 626.8 112.1L626.8 112.1Q626.8 112.6 626.6 113.0Q626.5 113.4 626.1 113.9Q625.7 114.4 625.0 115.2L625.0 115.2L623.2 117.0L623.2 117.1L626.9 117.1L626.9 118ZM630.5 113.5L630.5 113.5Q630.0 113.5 629.7 113.3Q629.3 113.1 629.1 112.7Q628.9 112.3 628.9 111.9L628.9 111.9L628.9 111.5Q628.9 111.0 629.1 110.7Q629.3 110.3 629.7 110.1Q630.0 109.9 630.5 109.9L630.5 109.9Q631.0 109.9 631.4 110.1Q631.7 110.3 631.9 110.7Q632.1 111.0 632.1 111.5L632.1 111.5L632.1 111.9Q632.1 112.3 631.9 112.7Q631.7 113.1 631.4 113.3Q631.0 113.5 630.5 113.5ZM630.5 112.8L630.5 112.8Q630.9 112.8 631.1 112.6Q631.3 112.3 631.3 111.9L631.3 111.9L631.3 111.5Q631.3 111.1 631.1 110.9Q630.9 110.6 630.5 110.6L630.5 110.6Q630.1 110.6 629.9 110.9Q629.8 111.1 629.8 111.5L629.8 111.5L629.8 111.9Q629.8 112.3 629.9 112.6Q630.1 112.8 630.5 112.8ZM635.7 118.2L635.7 118.2Q635.2 118.2 634.8 117.9Q634.5 117.7 634.3 117.3Q634.1 117.0 634.1 116.5L634.1 116.5L634.1 116.1Q634.1 115.7 634.3 115.3Q634.5 114.9 634.9 114.7Q635.2 114.5 635.7 114.5L635.7 114.5Q636.2 114.5 636.6 114.7Q636.9 114.9 637.1 115.3Q637.3 115.7 637.3 116.1L637.3 116.1L637.3 116.5Q637.3 117.0 637.1 117.3Q636.9 117.7 636.6 117.9Q636.2 118.2 635.7 118.2ZM635.7 117.5L635.7 117.5Q636.1 117.5 636.3 117.2Q636.5 116.9 636.5 116.5L636.5 116.5L636.5 116.1Q636.5 115.8 636.3 115.5Q636.1 115.2 635.7 115.2L635.7 115.2Q635.3 115.2 635.1 115.5Q635.0 115.8 635.0 116.1L635.0 116.1L635.0 116.5Q635.0 116.9 635.1 117.2Q635.3 117.5 635.7 117.5ZM630.8 118L629.9 118L635.4 110.0L636.3 110.0L630.8 118Z "/></g></svg>