<!-- Generated by readme-aura https://github.com/collectioneur/readme-aura -->
<svg width="800" height="180" viewBox="0 0 800 180" xmlns="http://www.w3.org/2000/svg"><defs><clipPath id="satori_bc-id"><path x="0" y="0" width="800" height="180" d="M16,0 h768 a16,16 0 0 1 16,16 v148 a16,16 0 0 1 -16,16 h-768 a16,16 0 0 1 -16,-16 v-148 a16,16 0 0 1 16,-16"/></clipPath></defs><clipPath id="satori_cp-id"><path x="0" y="0" width="800" height="180" d="M16,0 h768 a16,16 0 0 1 16,16 v148 a16,16 0 0 1 -16,16 h-768 a16,16 0 0 1 -16,-16 v-148 a16,16 0 0 1 16,-16"/></clipPath><mask id="satori_om-id"><rect x="1" y="1" width="798" height="178" fill="#fff"/><path width="800" height="180" fill="none" stroke="#000" stroke-width="2" d="M4.686,4.686 A16,16 0 0 1 16,0 h768 a16,16 0 0 1 16,16 v148 a16,16 0 0 1 -16,16 h-768 a16,16 0 0 1 -16,-16 v-148 A16,16 0 0 1 4.686,4.686"/></mask><path x="0" y="0" width="800" height="180" fill="#06060a" d="M16,0 h768 a16,16 0 0 1 16,16 v148 a16,16 0 0 1 -16,16 h-768 a16,16 0 0 1 -16,-16 v-148 a16,16 0 0 1 16,-16"/><path width="800" height="180" clip-path="url(#satori_bc-id)" fill="none" stroke="rgba(110,80,220,0.15)" stroke-width="2" d="M4.686,4.686 A16,16 0 0 1 16,0 h768 a16,16 0 0 1 16,16 v148 a16,16 0 0 1 -16,16 h-768 a16,16 0 0 1 -16,-16 v-148 A16,16 0 0 1 4.686,4.686"/><clipPath id="satori_cp-id-0" clip-path="url(#satori_cp-id)"><rect x="1" y="1" width="800" height="180"/></clipPath><mask id="satori_om-id-0"><rect x="1" y="1" width="800" height="180" fill="#fff" mask="url(#satori_om-id)"/></mask><svg x="1" y="1" width="800" height="180" preserveAspectRatio="none" clip-path="url(#satori_cp-id-0)" mask="url(#satori_om-id-0)"><defs><radialGradient id="lng1" cx="50%" cy="50%" r="50%"><stop offset="0%" stop-color="rgba(80,40,200,0.4)"></stop><stop offset="100%" stop-color="rgba(80,40,200,0)"></stop></radialGradient><radialGradient id="lng2" cx="50%" cy="50%" r="50%"><stop offset="0%" stop-color="rgba(0,160,220,0.35)"></stop><stop offset="100%" stop-color="rgba(0,160,220,0)"></stop></radialGradient></defs><ellipse id="lang-g1" cx="650" cy="90" rx="180" ry="100" fill="url(#lng1)"></ellipse><ellipse id="lang-g2" cx="150" cy="100" rx="160" ry="90" fill="url(#lng2)"></ellipse><style>

      @keyframes lang-drift-r { 0%, 100% { transform: translate(0, 0); opacity: 0.6; } 50% { transform: translate(30px, -15px); opacity: 1; } }
      @keyframes lang-drift-l { 0%, 100% { transform: translate(0, 0); opacity: 0.55; } 50% { transform: translate(-25px, 12px); opacity: 0.9; } }
      #lang-g1 { animation: lang-drift-r 8s ease-in-out infinite; }
      #lang-g2 { animation: lang-drift-l 7s ease-in-out infinite 0.3s; }
    
</style>
</svg><mask id="satori_om-id-0-0"><rect x="1" y="1" width="0" height="180" fill="#fff" mask="url(#satori_om-id)"/></mask><mask id="satori_om-id-0-0-0"><rect x="1" y="1" width="0" height="180" fill="#fff" mask="url(#satori_om-id)"/></mask><mask id="satori_om-id-0-0-0-0"><rect x="1" y="1" width="0" height="180" fill="#fff" mask="url(#satori_om-id)"/></mask><mask id="satori_om-id-0-0-0-1"><rect x="1" y="1" width="0" height="180" fill="#fff" mask="url(#satori_om-id)"/></mask><mask id="satori_om-id-0-0-1"><rect x="1" y="1" width="0" height="180" fill="#fff" mask="url(#satori_om-id)"/></mask><mask id="satori_om-id-0-0-1-0"><rect x="1" y="1" width="0" height="180" fill="#fff" mask="url(#satori_om-id)"/></mask><mask id="satori_om-id-0-0-1-1"><rect x="1" y="1" width="0" height="180" fill="#fff" mask="url(#satori_om-id)"/></mask><mask id="satori_om-id-0-1"><rect x="1" y="1" width="0" height="180" fill="#fff" mask="url(#satori_om-id)"/></mask><mask id="satori_om-id-0-2"><rect x="1" y="1" width="0" height="180" fill="#fff" mask="url(#satori_om-id)"/></mask><mask id="satori_om-id-1"><rect x="25" y="25" width="750" height="12" fill="#fff" mask="url(#satori_om-id)"/></mask><g mask="url(#satori_om-id)" clip-path="url(#satori_cp-id)"><path fill="rgba(120,200,255,0.7)" d="M27.1 35L25.7 35L25.7 27.7L27.9 27.7L29.1 31.1Q29.2 31.3 29.3 31.7Q29.4 32.0 29.5 32.5L29.5 32.5Q29.6 32.9 29.7 33.3L29.7 33.3Q29.8 32.9 29.8 32.5L29.8 32.5Q29.9 32.1 30.0 31.7Q30.1 31.3 30.2 31.1L30.2 31.1L31.4 27.7L33.7 27.7L33.7 35L32.2 35L32.2 31.6Q32.2 31.3 32.2 31.0Q32.2 30.6 32.2 30.2Q32.2 29.8 32.2 29.4L32.2 29.4Q32.2 29.2 32.2 29.0L32.2 29.0Q32.2 29.2 32.1 29.4L32.1 29.4Q32.0 29.9 31.9 30.3Q31.8 30.7 31.7 31.0Q31.6 31.3 31.5 31.6L31.5 31.6L30.3 35L29.0 35L27.8 31.6Q27.7 31.3 27.6 31.0Q27.5 30.7 27.4 30.3Q27.3 29.9 27.2 29.4L27.2 29.4Q27.1 29.2 27.1 29.1L27.1 29.1Q27.1 29.2 27.1 29.4L27.1 29.4Q27.1 29.8 27.1 30.2Q27.1 30.6 27.1 31.0Q27.1 31.3 27.1 31.6L27.1 31.6L27.1 35ZM41.2 35.1L41.2 35.1Q40.2 35.1 39.4 34.7Q38.7 34.2 38.2 33.4Q37.8 32.5 37.8 31.4L37.8 31.4Q37.8 30.2 38.2 29.3Q38.7 28.5 39.4 28.1Q40.2 27.6 41.2 27.6L41.2 27.6Q42.1 27.6 42.9 28.1Q43.7 28.5 44.1 29.3Q44.6 30.2 44.6 31.4L44.6 31.4Q44.6 32.5 44.1 33.4Q43.7 34.2 42.9 34.7Q42.1 35.1 41.2 35.1ZM41.2 33.8L41.2 33.8Q41.7 33.8 42.2 33.5Q42.6 33.2 42.8 32.7Q43.0 32.1 43.0 31.4L43.0 31.4Q43.0 30.6 42.8 30.0Q42.6 29.5 42.2 29.2Q41.7 29.0 41.2 29.0L41.2 29.0Q40.6 29.0 40.2 29.2Q39.8 29.5 39.5 30.0Q39.3 30.6 39.3 31.4L39.3 31.4Q39.3 32.1 39.5 32.7Q39.8 33.2 40.2 33.5Q40.6 33.8 41.2 33.8ZM51.3 35.1L51.3 35.1Q50.5 35.1 49.8 34.8Q49.2 34.6 48.8 34.0Q48.5 33.5 48.4 32.7L48.4 32.7L49.9 32.7Q49.9 33.1 50.1 33.4Q50.3 33.6 50.6 33.7Q50.9 33.8 51.3 33.8L51.3 33.8Q51.7 33.8 52.0 33.7Q52.3 33.6 52.5 33.4Q52.7 33.2 52.7 32.9L52.7 32.9Q52.7 32.7 52.5 32.5Q52.4 32.3 52.1 32.2Q51.8 32.1 51.4 32.0L51.4 32.0L50.6 31.8Q49.7 31.6 49.2 31.1Q48.6 30.6 48.6 29.8L48.6 29.8Q48.6 29.2 49.0 28.7Q49.3 28.2 50.0 27.9Q50.6 27.6 51.4 27.6L51.4 27.6Q52.2 27.6 52.8 27.9Q53.4 28.2 53.7 28.7Q54.0 29.2 54.1 29.8L54.1 29.8L52.6 29.8Q52.6 29.4 52.2 29.1Q51.9 28.9 51.4 28.9L51.4 28.9Q51.0 28.9 50.7 29.0Q50.4 29.1 50.3 29.3Q50.2 29.5 50.2 29.7L50.2 29.7Q50.2 30.0 50.3 30.2Q50.5 30.3 50.8 30.5Q51.0 30.6 51.3 30.6L51.3 30.6L52.0 30.8Q52.4 30.9 52.8 31.1Q53.2 31.3 53.5 31.5Q53.8 31.8 54.0 32.1Q54.2 32.5 54.2 32.9L54.2 32.9Q54.2 33.6 53.8 34.1Q53.5 34.6 52.9 34.8Q52.2 35.1 51.3 35.1ZM60.2 29.0L57.9 29.0L57.9 27.7L63.9 27.7L63.9 29.0L61.7 29.0L61.7 35L60.2 35L60.2 29.0Z M76.3 35.1L76.3 35.1Q75.4 35.1 74.7 34.8Q74.0 34.4 73.6 33.8Q73.3 33.2 73.3 32.4L73.3 32.4L73.3 27.7L74.8 27.7L74.8 32.3Q74.8 32.7 74.9 33.1Q75.1 33.4 75.5 33.6Q75.8 33.8 76.3 33.8L76.3 33.8Q76.7 33.8 77.1 33.6Q77.4 33.4 77.6 33.1Q77.8 32.7 77.8 32.3L77.8 32.3L77.8 27.7L79.3 27.7L79.3 32.4Q79.3 33.2 78.9 33.8Q78.5 34.4 77.8 34.8Q77.2 35.1 76.3 35.1ZM86.3 35.1L86.3 35.1Q85.4 35.1 84.7 34.8Q84.1 34.6 83.7 34.0Q83.4 33.5 83.3 32.7L83.3 32.7L84.8 32.7Q84.8 33.1 85.0 33.4Q85.2 33.6 85.5 33.7Q85.8 33.8 86.2 33.8L86.2 33.8Q86.6 33.8 86.9 33.7Q87.2 33.6 87.4 33.4Q87.6 33.2 87.6 32.9L87.6 32.9Q87.6 32.7 87.4 32.5Q87.3 32.3 87.0 32.2Q86.7 32.1 86.3 32.0L86.3 32.0L85.5 31.8Q84.6 31.6 84.1 31.1Q83.5 30.6 83.5 29.8L83.5 29.8Q83.5 29.2 83.9 28.7Q84.3 28.2 84.9 27.9Q85.5 27.6 86.3 27.6L86.3 27.6Q87.1 27.6 87.7 27.9Q88.3 28.2 88.6 28.7Q89.0 29.2 89.0 29.8L89.0 29.8L87.5 29.8Q87.5 29.4 87.2 29.1Q86.8 28.9 86.3 28.9L86.3 28.9Q85.9 28.9 85.6 29.0Q85.3 29.1 85.2 29.3Q85.1 29.5 85.1 29.7L85.1 29.7Q85.1 30.0 85.2 30.2Q85.4 30.3 85.7 30.5Q85.9 30.6 86.2 30.6L86.2 30.6L86.9 30.8Q87.4 30.9 87.7 31.1Q88.1 31.3 88.4 31.5Q88.7 31.8 88.9 32.1Q89.1 32.5 89.1 32.9L89.1 32.9Q89.1 33.6 88.7 34.1Q88.4 34.6 87.8 34.8Q87.1 35.1 86.3 35.1ZM98.0 35L93.1 35L93.1 27.7L98.0 27.7L98.0 29.0L94.6 29.0L94.6 30.7L97.8 30.7L97.8 31.9L94.6 31.9L94.6 33.8L98.0 33.8L98.0 35ZM104.8 35L104.8 35L102.2 35L102.2 27.7L104.8 27.7Q105.9 27.7 106.7 28.2Q107.5 28.6 107.9 29.4Q108.3 30.2 108.3 31.4L108.3 31.4Q108.3 32.5 107.9 33.3Q107.5 34.1 106.7 34.6Q105.9 35 104.8 35ZM103.7 29.0L103.7 33.7L104.7 33.7Q105.4 33.7 105.9 33.5Q106.4 33.2 106.6 32.7Q106.8 32.2 106.8 31.4L106.8 31.4Q106.8 30.5 106.6 30.0Q106.3 29.5 105.9 29.3Q105.4 29.0 104.7 29.0L104.7 29.0L103.7 29.0Z M122.4 35L117.8 35L117.8 27.7L119.3 27.7L119.3 33.8L122.4 33.8L122.4 35ZM127.7 35L126.0 35L128.5 27.7L130.5 27.7L133.0 35L131.4 35L130.8 33.3L128.2 33.3L127.7 35ZM128.6 32.1L130.4 32.1L130.2 31.5Q130.0 30.8 129.8 30L129.8 30Q129.6 29.5 129.5 28.9L129.5 28.9Q129.3 29.5 129.2 30.0L129.2 30.0Q129.0 30.8 128.8 31.5L128.8 31.5L128.6 32.1ZM138.4 35L136.9 35L136.9 27.7L138.6 27.7L140.9 31.4Q141.1 31.7 141.2 32.0Q141.4 32.4 141.6 32.8L141.6 32.8Q141.7 33.0 141.8 33.2L141.8 33.2Q141.8 33.0 141.8 32.8L141.8 32.8Q141.7 32.3 141.7 31.9Q141.7 31.5 141.7 31.2L141.7 31.2L141.7 27.7L143.2 27.7L143.2 35L141.6 35L139.5 31.7Q139.2 31.3 139.0 30.9Q138.9 30.6 138.6 30.1L138.6 30.1Q138.5 29.9 138.3 29.6L138.3 29.6Q138.4 29.9 138.4 30.1L138.4 30.1Q138.4 30.6 138.4 31.0Q138.4 31.4 138.4 31.7L138.4 31.7L138.4 35ZM150.8 35.1L150.8 35.1Q149.7 35.1 149.0 34.6Q148.2 34.2 147.8 33.4Q147.3 32.5 147.3 31.4L147.3 31.4Q147.3 30.2 147.8 29.4Q148.2 28.5 149.0 28.1Q149.8 27.6 150.7 27.6L150.7 27.6Q151.3 27.6 151.9 27.8Q152.4 28.0 152.8 28.3Q153.2 28.6 153.5 29.1Q153.8 29.5 153.8 30.1L153.8 30.1L152.3 30.1Q152.2 29.8 152.1 29.6Q152.0 29.4 151.8 29.2Q151.6 29.1 151.3 29.0Q151.1 29.0 150.8 29.0L150.8 29.0Q150.2 29.0 149.8 29.2Q149.3 29.5 149.1 30.0Q148.9 30.6 148.9 31.4Q148.9 32.1 149.1 32.7Q149.3 33.2 149.8 33.5Q150.2 33.8 150.8 33.8L150.8 33.8Q151.3 33.8 151.7 33.6Q152.1 33.4 152.3 33.0L152.3 33.0Q152.5 32.7 152.5 32.3L152.5 32.3L150.9 32.3L150.9 31.1L153.9 31.1L153.9 32.0Q153.9 33.0 153.5 33.7Q153.1 34.4 152.4 34.7Q151.7 35.1 150.8 35.1ZM161.0 35.1L161.0 35.1Q160.1 35.1 159.5 34.8Q158.8 34.4 158.4 33.8Q158.0 33.2 158.0 32.4L158.0 32.4L158.0 27.7L159.5 27.7L159.5 32.3Q159.5 32.7 159.7 33.1Q159.9 33.4 160.3 33.6Q160.6 33.8 161.0 33.8L161.0 33.8Q161.5 33.8 161.8 33.6Q162.2 33.4 162.4 33.1Q162.6 32.7 162.6 32.3L162.6 32.3L162.6 27.7L164.1 27.7L164.1 32.4Q164.1 33.2 163.7 33.8Q163.3 34.4 162.6 34.8Q162.0 35.1 161.0 35.1ZM169.6 35L167.9 35L170.4 27.7L172.4 27.7L174.9 35L173.3 35L172.7 33.3L170.1 33.3L169.6 35ZM170.5 32.1L172.3 32.1L172.1 31.5Q171.9 30.8 171.7 30L171.7 30Q171.5 29.5 171.4 28.9L171.4 28.9Q171.3 29.5 171.1 30.0L171.1 30.0Q170.9 30.8 170.7 31.5L170.7 31.5L170.5 32.1ZM182.1 35.1L182.1 35.1Q181.0 35.1 180.3 34.6Q179.5 34.2 179.1 33.4Q178.6 32.5 178.6 31.4L178.6 31.4Q178.6 30.2 179.1 29.4Q179.5 28.5 180.3 28.1Q181.1 27.6 182.0 27.6L182.0 27.6Q182.6 27.6 183.2 27.8Q183.7 28.0 184.1 28.3Q184.5 28.6 184.8 29.1Q185.0 29.5 185.1 30.1L185.1 30.1L183.6 30.1Q183.5 29.8 183.4 29.6Q183.3 29.4 183.1 29.2Q182.9 29.1 182.6 29.0Q182.4 29.0 182.0 29.0L182.0 29.0Q181.5 29.0 181.1 29.2Q180.6 29.5 180.4 30.0Q180.1 30.6 180.1 31.4Q180.1 32.1 180.4 32.7Q180.6 33.2 181.1 33.5Q181.5 33.8 182.1 33.8L182.1 33.8Q182.6 33.8 183.0 33.6Q183.3 33.4 183.6 33.0L183.6 33.0Q183.7 32.7 183.8 32.3L183.8 32.3L182.2 32.3L182.2 31.1L185.2 31.1L185.2 32.0Q185.2 33.0 184.8 33.7Q184.4 34.4 183.7 34.7Q183.0 35.1 182.1 35.1ZM194.2 35L189.3 35L189.3 27.7L194.2 27.7L194.2 29.0L190.8 29.0L190.8 30.7L194.0 30.7L194.0 31.9L190.8 31.9L190.8 33.8L194.2 33.8L194.2 35ZM201.1 35.1L201.1 35.1Q200.2 35.1 199.6 34.8Q198.9 34.6 198.6 34.0Q198.2 33.5 198.2 32.7L198.2 32.7L199.6 32.7Q199.6 33.1 199.8 33.4Q200.0 33.6 200.3 33.7Q200.7 33.8 201.1 33.8L201.1 33.8Q201.5 33.8 201.8 33.7Q202.1 33.6 202.2 33.4Q202.4 33.2 202.4 32.9L202.4 32.9Q202.4 32.7 202.2 32.5Q202.1 32.3 201.8 32.2Q201.5 32.1 201.1 32.0L201.1 32.0L200.3 31.8Q199.4 31.6 198.9 31.1Q198.4 30.6 198.4 29.8L198.4 29.8Q198.4 29.2 198.7 28.7Q199.1 28.2 199.7 27.9Q200.3 27.6 201.1 27.6L201.1 27.6Q201.9 27.6 202.5 27.9Q203.1 28.2 203.4 28.7Q203.8 29.2 203.8 29.8L203.8 29.8L202.3 29.8Q202.3 29.4 202.0 29.1Q201.6 28.9 201.1 28.9L201.1 28.9Q200.7 28.9 200.4 29.0Q200.2 29.1 200.0 29.3Q199.9 29.5 199.9 29.7L199.9 29.7Q199.9 30.0 200.1 30.2Q200.2 30.3 200.5 30.5Q200.8 30.6 201.1 30.6L201.1 30.6L201.7 30.8Q202.2 30.9 202.6 31.1Q203.0 31.3 203.3 31.5Q203.6 31.8 203.7 32.1Q203.9 32.5 203.9 32.9L203.9 32.9Q203.9 33.6 203.6 34.1Q203.2 34.6 202.6 34.8Q202.0 35.1 201.1 35.1Z "/></g><clipPath id="satori_cp-id-2" clip-path="url(#satori_cp-id)"><path x="25" y="53" width="750" height="6" d="M28,53 h744 a3,3 0 0 1 3,3 v0 a3,3 0 0 1 -3,3 h-744 a3,3 0 0 1 -3,-3 v0 a3,3 0 0 1 3,-3"/></clipPath><mask id="satori_om-id-2"><rect x="25" y="53" width="750" height="6" fill="#fff" mask="url(#satori_om-id)"/></mask><path x="25" y="53" width="750" height="6" fill="rgba(255,255,255,0.05)" d="M28,53 h744 a3,3 0 0 1 3,3 v0 a3,3 0 0 1 -3,3 h-744 a3,3 0 0 1 -3,-3 v0 a3,3 0 0 1 3,-3" clip-path="url(#satori_cp-id)" mask="url(#satori_om-id)"/><mask id="satori_om-id-2-0"><rect x="25" y="53" width="195" height="6" fill="#fff" mask="url(#satori_om-id-2)"/></mask><rect x="25" y="53" width="195" height="6" fill="#f34b7d" clip-path="url(#satori_cp-id-2)" mask="url(#satori_om-id-2)"/><mask id="satori_om-id-2-1"><rect x="220" y="53" width="105" height="6" fill="#fff" mask="url(#satori_om-id-2)"/></mask><rect x="220" y="53" width="105" height="6" fill="#3178c6" clip-path="url(#satori_cp-id-2)" mask="url(#satori_om-id-2)"/><mask id="satori_om-id-2-2"><rect x="325" y="53" width="90" height="6" fill="#fff" mask="url(#satori_om-id-2)"/></mask><rect x="325" y="53" width="90" height="6" fill="#555555" clip-path="url(#satori_cp-id-2)" mask="url(#satori_om-id-2)"/><mask id="satori_om-id-2-3"><rect x="415" y="53" width="60" height="6" fill="#fff" mask="url(#satori_om-id-2)"/></mask><rect x="415" y="53" width="60" height="6" fill="#3572A5" clip-path="url(#satori_cp-id-2)" mask="url(#satori_om-id-2)"/><mask id="satori_om-id-2-4"><rect x="475" y="53" width="60" height="6" fill="#fff" mask="url(#satori_om-id-2)"/></mask><rect x="475" y="53" width="60" height="6" fill="#663399" clip-path="url(#satori_cp-id-2)" mask="url(#satori_om-id-2)"/><mask id="satori_om-id-2-5"><rect x="535" y="53" width="45" height="6" fill="#fff" mask="url(#satori_om-id-2)"/></mask><rect x="535" y="53" width="45" height="6" fill="#89e051" clip-path="url(#satori_cp-id-2)" mask="url(#satori_om-id-2)"/><mask id="satori_om-id-2-6"><rect x="580" y="53" width="30" height="6" fill="#fff" mask="url(#satori_om-id-2)"/></mask><rect x="580" y="53" width="30" height="6" fill="#3D6117" clip-path="url(#satori_cp-id-2)" mask="url(#satori_om-id-2)"/><mask id="satori_om-id-2-7"><rect x="610" y="53" width="30" height="6" fill="#fff" mask="url(#satori_om-id-2)"/></mask><rect x="610" y="53" width="30" height="6" fill="#5686a5" clip-path="url(#satori_cp-id-2)" mask="url(#satori_om-id-2)"/><mask id="satori_om-id-2-8"><rect x="640" y="53" width="30" height="6" fill="#fff" mask="url(#satori_om-id-2)"/></mask><rect x="640" y="53" width="30" height="6" fill="#A97BFF" clip-path="url(#satori_cp-id-2)" mask="url(#satori_om-id-2)"/><mask id="satori_om-id-2-9"><rect x="670" y="53" width="30" height="6" fill="#fff" mask="url(#satori_om-id-2)"/></mask><rect x="670" y="53" width="30" height="6" fill="#6E4C13" clip-path="url(#satori_cp-id-2)" mask="url(#satori_om-id-2)"/><mask id="satori_om-id-3"><rect x="25" y="75" width="750" height="46" fill="#fff" mask="url(#satori_om-id)"/></mask><mask id="satori_om-id-3-0"><rect x="25" y="75" width="120" height="16" fill="#fff" mask="url(#satori_om-id)"/></mask><mask id="satori_ms-id-3-0-0-0" maskUnits="userSpaceOnUse"><rect x="0" y="0" width="800" height="180" fill="#fff"/><path x="25" y="78" width="10" height="10" fill="#000"  stroke-width="0" d="M30,78 h0 a5,5 0 0 1 5,5 v0 a5,5 0 0 1 -5,5 h0 a5,5 0 0 1 -5,-5 v0 a5,5 0 0 1 5,-5" clip-path="url(#satori_cp-id)" mask="url(#satori_om-id)"/></mask><defs><filter id="satori_s-id-3-0-0-0" x="-90%" y="-90%" width="280%" height="280%"><feGaussianBlur stdDeviation="3" result="b"/><feFlood flood-color="#f34b7d40" in="SourceGraphic" result="f"/><feComposite in="f" in2="b" operator="in"/></filter></defs><g mask="url(#satori_ms-id-3-0-0-0)" filter="url(#satori_s-id-3-0-0-0)" opacity="1"><path x="25" y="78" width="10" height="10" fill="#fff" stroke="#fff" stroke-width="0" d="M30,78 h0 a5,5 0 0 1 5,5 v0 a5,5 0 0 1 -5,5 h0 a5,5 0 0 1 -5,-5 v0 a5,5 0 0 1 5,-5" clip-path="url(#satori_cp-id)" mask="url(#satori_om-id)"/></g><mask id="satori_om-id-3-0-0"><rect x="25" y="78" width="10" height="10" fill="#fff" mask="url(#satori_om-id)"/></mask><path x="25" y="78" width="10" height="10" fill="#f34b7d" d="M30,78 h0 a5,5 0 0 1 5,5 v0 a5,5 0 0 1 -5,5 h0 a5,5 0 0 1 -5,-5 v0 a5,5 0 0 1 5,-5" clip-path="url(#satori_cp-id)" mask="url(#satori_om-id)"/><mask id="satori_om-id-3-0-1"><rect x="41" y="75" width="27" height="16" fill="#fff" mask="url(#satori_om-id)"/></mask><g mask="url(#satori_om-id)" clip-path="url(#satori_cp-id)"><path fill="#e0e0f0" d="M46.0 88.1L46.0 88.1Q44.8 88.1 43.8 87.5Q42.9 87.0 42.3 85.9Q41.8 84.8 41.8 83.3L41.8 83.3Q41.8 81.8 42.3 80.7Q42.9 79.6 43.8 79.0Q44.8 78.4 46.0 78.4L46.0 78.4Q46.7 78.4 47.3 78.6Q48.0 78.8 48.5 79.2Q49.0 79.6 49.3 80.2Q49.7 80.8 49.8 81.5L49.8 81.5L48.6 81.5Q48.5 81.0 48.2 80.7Q48.0 80.3 47.6 80.0Q47.3 79.8 46.9 79.7Q46.4 79.5 46.0 79.5L46.0 79.5Q45.1 79.5 44.4 80.0Q43.7 80.4 43.3 81.2Q42.9 82.1 42.9 83.3L42.9 83.3Q42.9 84.5 43.4 85.3Q43.8 86.2 44.4 86.6Q45.1 87.0 46.0 87.0L46.0 87.0Q46.4 87.0 46.9 86.9Q47.3 86.7 47.6 86.5Q48.0 86.2 48.2 85.9Q48.5 85.5 48.6 85.0L48.6 85.0L49.8 85.0Q49.7 85.7 49.3 86.3Q49.0 86.9 48.5 87.3Q48.0 87.7 47.3 87.9Q46.7 88.1 46.0 88.1ZM55.3 87.4L54.3 87.4L54.3 84.8L51.7 84.8L51.7 83.8L54.3 83.8L54.3 81.2L55.3 81.2L55.3 83.8L57.9 83.8L57.9 84.8L55.3 84.8L55.3 87.4ZM63.9 87.4L62.9 87.4L62.9 84.8L60.3 84.8L60.3 83.8L62.9 83.8L62.9 81.2L63.9 81.2L63.9 83.8L66.5 83.8L66.5 84.8L63.9 84.8L63.9 87.4Z "/></g><mask id="satori_om-id-3-0-2"><rect x="74" y="77" width="25" height="13" fill="#fff" mask="url(#satori_om-id)"/></mask><g mask="url(#satori_om-id)" clip-path="url(#satori_cp-id)"><path fill="#6a6a8a" d="M79.9 88L74.8 88L74.8 87.3L77.5 84.4Q77.9 83.9 78.2 83.5Q78.5 83.2 78.7 82.8Q78.8 82.5 78.8 82.1L78.8 82.1Q78.8 81.7 78.6 81.4Q78.4 81.1 78.1 80.9Q77.7 80.8 77.3 80.8L77.3 80.8Q76.9 80.8 76.5 81.0Q76.2 81.1 76.0 81.5Q75.8 81.8 75.8 82.3L75.8 82.3L74.8 82.3Q74.8 81.6 75.2 81.0Q75.5 80.5 76.1 80.2Q76.6 79.9 77.3 79.9L77.3 79.9Q78.1 79.9 78.6 80.2Q79.2 80.5 79.5 81.0Q79.8 81.5 79.8 82.1L79.8 82.1Q79.8 82.6 79.6 83.0Q79.5 83.4 79.1 83.9Q78.7 84.4 78.0 85.2L78.0 85.2L76.2 87.0L76.2 87.1L79.9 87.1L79.9 88ZM84.2 88.1L84.2 88.1Q83.7 88.1 83.2 87.9Q82.7 87.7 82.3 87.3Q81.9 86.9 81.6 86.1Q81.4 85.4 81.4 84.3L81.4 84.3Q81.4 83.2 81.6 82.4Q81.8 81.6 82.2 81.0Q82.5 80.5 83.1 80.2Q83.6 79.9 84.3 79.9L84.3 79.9Q85.0 79.9 85.5 80.2Q86.0 80.4 86.4 80.9Q86.7 81.4 86.8 82.0L86.8 82.0L85.8 82.0Q85.7 81.5 85.3 81.1Q84.9 80.8 84.3 80.8L84.3 80.8Q83.7 80.8 83.2 81.2Q82.8 81.5 82.6 82.2Q82.3 82.9 82.3 83.8L82.3 83.8L82.4 83.8Q82.6 83.5 82.9 83.3Q83.2 83.0 83.6 82.9Q84.0 82.8 84.4 82.8L84.4 82.8Q85.1 82.8 85.6 83.1Q86.2 83.4 86.5 84.0Q86.9 84.6 86.9 85.4L86.9 85.4Q86.9 86.2 86.5 86.8Q86.2 87.4 85.6 87.7Q85.0 88.1 84.2 88.1ZM84.2 87.2L84.2 87.2Q84.7 87.2 85.0 87.0Q85.4 86.7 85.7 86.3Q85.9 85.9 85.9 85.4L85.9 85.4Q85.9 84.9 85.7 84.5Q85.5 84.1 85.1 83.9Q84.7 83.7 84.2 83.7L84.2 83.7Q83.8 83.7 83.5 83.8Q83.2 83.9 83.0 84.2Q82.7 84.4 82.6 84.8Q82.5 85.1 82.5 85.4L82.5 85.4Q82.5 85.9 82.7 86.3Q82.9 86.7 83.3 87.0Q83.7 87.2 84.2 87.2ZM90.3 83.5L90.3 83.5Q89.8 83.5 89.5 83.3Q89.1 83.1 88.9 82.7Q88.8 82.3 88.8 81.9L88.8 81.9L88.8 81.5Q88.8 81.0 88.9 80.7Q89.1 80.3 89.5 80.1Q89.8 79.9 90.3 79.9L90.3 79.9Q90.9 79.9 91.2 80.1Q91.5 80.3 91.7 80.7Q91.9 81.0 91.9 81.5L91.9 81.5L91.9 81.9Q91.9 82.3 91.7 82.7Q91.5 83.1 91.2 83.3Q90.8 83.5 90.3 83.5ZM90.3 82.8L90.3 82.8Q90.7 82.8 90.9 82.6Q91.1 82.3 91.1 81.9L91.1 81.9L91.1 81.5Q91.1 81.1 90.9 80.9Q90.8 80.6 90.3 80.6L90.3 80.6Q89.9 80.6 89.8 80.9Q89.6 81.1 89.6 81.5L89.6 81.5L89.6 81.9Q89.6 82.3 89.8 82.6Q89.9 82.8 90.3 82.8ZM95.5 88.2L95.5 88.2Q95.0 88.2 94.7 87.9Q94.3 87.7 94.1 87.3Q94.0 87.0 94.0 86.5L94.0 86.5L94.0 86.1Q94.0 85.7 94.1 85.3Q94.3 84.9 94.7 84.7Q95.0 84.5 95.5 84.5L95.5 84.5Q96.0 84.5 96.4 84.7Q96.7 84.9 96.9 85.3Q97.1 85.7 97.1 86.1L97.1 86.1L97.1 86.5Q97.1 87.0 96.9 87.3Q96.7 87.7 96.4 87.9Q96.0 88.2 95.5 88.2ZM95.5 87.5L95.5 87.5Q95.9 87.5 96.1 87.2Q96.3 86.9 96.3 86.5L96.3 86.5L96.3 86.1Q96.3 85.8 96.1 85.5Q96.0 85.2 95.5 85.2L95.5 85.2Q95.1 85.2 95.0 85.5Q94.8 85.8 94.8 86.1L94.8 86.1L94.8 86.5Q94.8 86.9 94.9 87.2Q95.1 87.5 95.5 87.5ZM90.6 88L89.7 88L95.2 80.0L96.1 80.0L90.6 88Z "/></g><mask id="satori_om-id-3-1"><rect x="159" y="75" width="120" height="16" fill="#fff" mask="url(#satori_om-id)"/></mask><mask id="satori_ms-id-3-1-0-0" maskUnits="userSpaceOnUse"><rect x="0" y="0" width="800" height="180" fill="#fff"/><path x="159" y="78" width="10" height="10" fill="#000"  stroke-width="0" d="M164,78 h0 a5,5 0 0 1 5,5 v0 a5,5 0 0 1 -5,5 h0 a5,5 0 0 1 -5,-5 v0 a5,5 0 0 1 5,-5" clip-path="url(#satori_cp-id)" mask="url(#satori_om-id)"/></mask><defs><filter id="satori_s-id-3-1-0-0" x="-90%" y="-90%" width="280%" height="280%"><feGaussianBlur stdDeviation="3" result="b"/><feFlood flood-color="#3178c640" in="SourceGraphic" result="f"/><feComposite in="f" in2="b" operator="in"/></filter></defs><g mask="url(#satori_ms-id-3-1-0-0)" filter="url(#satori_s-id-3-1-0-0)" opacity="1"><path x="159" y="78" width="10" height="10" fill="#fff" stroke="#fff" stroke-width="0" d="M164,78 h0 a5,5 0 0 1 5,5 v0 a5,5 0 0 1 -5,5 h0 a5,5 0 0 1 -5,-5 v0 a5,5 0 0 1 5,-5" clip-path="url(#satori_cp-id)" mask="url(#satori_om-id)"/></g><mask id="satori_om-id-3-1-0"><rect x="159" y="78" width="10" height="10" fill="#fff" mask="url(#satori_om-id)"/></mask><path x="159" y="78" width="10" height="10" fill="#3178c6" d="M164,78 h0 a5,5 0 0 1 5,5 v0 a5,5 0 0 1 -5,5 h0 a5,5 0 0 1 -5,-5 v0 a5,5 0 0 1 5,-5" clip-path="url(#satori_cp-id)" mask="url(#satori_om-id)"/><mask id="satori_om-id-3-1-1"><rect x="175" y="75" width="68" height="16" fill="#fff" mask="url(#satori_om-id)"/></mask><g mask="url(#satori_om-id)" clip-path="url(#satori_cp-id)"><path fill="#e0e0f0" d="M178.6 79.6L175.6 79.6L175.6 78.5L182.8 78.5L182.8 79.6L179.8 79.6L179.8 88L178.6 88L178.6 79.6ZM184.3 90.6L184.3 90.6L184.6 89.6L184.7 89.6Q185.0 89.7 185.3 89.7Q185.6 89.6 185.8 89.4Q186.1 89.1 186.2 88.6L186.2 88.6L186.4 88.0L183.7 80.9L185.0 80.9L186.5 85.1Q186.7 85.8 186.9 86.4L186.9 86.4Q187.0 86.7 187.0 87.0L187.0 87.0Q187.1 86.7 187.2 86.4L187.2 86.4Q187.4 85.8 187.6 85.1L187.6 85.1L189.1 80.9L190.4 80.9L187.2 89.1Q187.0 89.6 186.7 90.0Q186.4 90.4 186.0 90.5Q185.6 90.7 185.1 90.7L185.1 90.7Q184.8 90.7 184.6 90.7Q184.4 90.6 184.3 90.6ZM192.8 90.7L191.7 90.7L191.7 80.9L192.8 80.9L192.8 82.0L192.9 82.0Q193.1 81.8 193.3 81.6Q193.5 81.3 193.9 81.0Q194.3 80.8 195.0 80.8L195.0 80.8Q195.9 80.8 196.6 81.3Q197.2 81.7 197.6 82.5Q198.0 83.3 198.0 84.5L198.0 84.5Q198.0 85.6 197.6 86.4Q197.2 87.3 196.6 87.7Q195.9 88.2 195.0 88.2L195.0 88.2Q194.3 88.2 193.9 87.9Q193.5 87.7 193.3 87.4Q193.1 87.1 192.9 86.9L192.9 86.9L192.8 86.9L192.8 90.7ZM194.8 87.1L194.8 87.1Q195.5 87.1 195.9 86.8Q196.4 86.4 196.6 85.8Q196.8 85.2 196.8 84.5L196.8 84.5Q196.8 83.7 196.6 83.1Q196.4 82.5 195.9 82.2Q195.5 81.8 194.8 81.8L194.8 81.8Q194.2 81.8 193.7 82.2Q193.3 82.5 193.1 83.1Q192.8 83.7 192.8 84.5L192.8 84.5Q192.8 85.2 193.1 85.8Q193.3 86.5 193.7 86.8Q194.2 87.1 194.8 87.1ZM202.6 88.2L202.6 88.2Q201.6 88.2 200.9 87.7Q200.1 87.2 199.7 86.4Q199.3 85.6 199.3 84.5Q199.3 83.4 199.7 82.6Q200.1 81.8 200.8 81.3Q201.5 80.8 202.5 80.8L202.5 80.8Q203.1 80.8 203.6 81.0Q204.2 81.2 204.6 81.6Q205.1 82.0 205.3 82.7Q205.6 83.4 205.6 84.4L205.6 84.4L205.6 84.8L200.5 84.8Q200.5 85.5 200.7 86.0L200.7 86.0Q201.0 86.6 201.5 86.9Q202.0 87.1 202.7 87.1L202.7 87.1Q203.1 87.1 203.4 87.0Q203.8 86.9 204.0 86.7Q204.3 86.4 204.4 86.0L204.4 86.0L205.5 86.3Q205.3 86.9 204.9 87.3Q204.5 87.7 204.0 87.9Q203.4 88.2 202.6 88.2ZM200.5 83.9L200.5 83.9L204.4 83.9Q204.4 83.4 204.2 83.0L204.2 83.0Q204.0 82.4 203.6 82.1Q203.2 81.8 202.5 81.8Q201.9 81.8 201.4 82.1Q201.0 82.5 200.7 83.0L200.7 83.0Q200.5 83.4 200.5 83.9ZM210.4 88.2L210.4 88.2Q209.4 88.2 208.6 87.8Q207.9 87.5 207.5 86.9Q207.0 86.3 207.0 85.5L207.0 85.5L208.2 85.5Q208.3 86.1 208.6 86.4Q208.9 86.7 209.4 86.9Q209.9 87.1 210.4 87.1L210.4 87.1Q211.0 87.1 211.6 86.9Q212.1 86.7 212.4 86.3Q212.7 85.9 212.7 85.4L212.7 85.4Q212.7 84.9 212.4 84.7Q212.2 84.4 211.7 84.2Q211.3 84.0 210.8 83.9L210.8 83.9L209.7 83.5Q208.5 83.2 207.9 82.6Q207.2 82.0 207.2 81.1L207.2 81.1Q207.2 80.3 207.7 79.7Q208.1 79.1 208.8 78.7Q209.6 78.4 210.5 78.4L210.5 78.4Q211.4 78.4 212.1 78.7Q212.9 79.1 213.3 79.6Q213.7 80.2 213.7 80.9L213.7 80.9L212.5 80.9Q212.5 80.2 211.9 79.9Q211.3 79.5 210.5 79.5L210.5 79.5Q209.8 79.5 209.4 79.7Q208.9 79.9 208.7 80.2Q208.4 80.6 208.4 81.0L208.4 81.0Q208.4 81.5 208.7 81.8Q209.0 82.1 209.5 82.3Q209.9 82.5 210.2 82.5L210.2 82.5L211.2 82.8Q211.5 82.9 212.0 83.1Q212.5 83.3 212.9 83.6Q213.3 83.9 213.6 84.3Q213.8 84.8 213.8 85.4L213.8 85.4Q213.8 86.2 213.4 86.8Q213.0 87.4 212.3 87.8Q211.5 88.2 210.4 88.2ZM218.5 88.2L218.5 88.2Q217.5 88.2 216.8 87.7Q216.1 87.2 215.6 86.4Q215.2 85.6 215.2 84.5L215.2 84.5Q215.2 83.4 215.6 82.6Q216.1 81.7 216.8 81.3Q217.5 80.8 218.5 80.8L218.5 80.8Q219.0 80.8 219.4 80.9Q219.9 81.1 220.3 81.3Q220.7 81.6 220.9 81.9Q221.2 82.3 221.3 82.8L221.3 82.8L220.2 83.1Q220.2 82.8 220.0 82.6Q219.9 82.4 219.6 82.2Q219.4 82.0 219.1 81.9Q218.8 81.8 218.5 81.8L218.5 81.8Q217.8 81.8 217.3 82.2Q216.8 82.6 216.6 83.2Q216.4 83.8 216.4 84.5L216.4 84.5Q216.4 85.2 216.6 85.8Q216.8 86.4 217.3 86.8Q217.8 87.1 218.5 87.1L218.5 87.1Q218.8 87.1 219.1 87.0Q219.4 86.9 219.7 86.8Q219.9 86.6 220.0 86.3Q220.2 86.1 220.3 85.8L220.3 85.8L221.4 86.1Q221.2 86.6 221.0 87.0Q220.7 87.4 220.3 87.6Q219.9 87.9 219.5 88.0Q219.0 88.2 218.5 88.2ZM224.1 88L223.0 88L223.0 80.9L224.1 80.9L224.1 82.0L224.2 82.0Q224.4 81.5 224.9 81.1Q225.4 80.8 226.0 80.8L226.0 80.8Q226.2 80.8 226.3 80.8Q226.5 80.8 226.6 80.8L226.6 80.8L226.6 82.0Q226.6 82.0 226.4 81.9Q226.1 81.9 225.9 81.9L225.9 81.9Q225.4 81.9 225.0 82.1Q224.6 82.3 224.4 82.7Q224.1 83.1 224.1 83.6L224.1 83.6L224.1 88ZM229.0 88L227.9 88L227.9 80.9L229.0 80.9L229.0 88ZM228.5 79.7L228.5 79.7Q228.2 79.7 227.9 79.5Q227.7 79.3 227.7 79.0L227.7 79.0Q227.7 78.7 227.9 78.4Q228.2 78.2 228.5 78.2L228.5 78.2Q228.8 78.2 229.0 78.4Q229.3 78.7 229.3 79.0L229.3 79.0Q229.3 79.3 229.0 79.5Q228.8 79.7 228.5 79.7ZM232.2 90.7L231.0 90.7L231.0 80.9L232.2 80.9L232.2 82.0L232.3 82.0Q232.4 81.8 232.6 81.6Q232.8 81.3 233.2 81.0Q233.6 80.8 234.3 80.8L234.3 80.8Q235.2 80.8 235.9 81.3Q236.6 81.7 237.0 82.5Q237.3 83.3 237.3 84.5L237.3 84.5Q237.3 85.6 237.0 86.4Q236.6 87.3 235.9 87.7Q235.2 88.2 234.3 88.2L234.3 88.2Q233.7 88.2 233.3 87.9Q232.8 87.7 232.6 87.4Q232.4 87.1 232.3 86.9L232.3 86.9L232.2 86.9L232.2 90.7ZM234.2 87.1L234.2 87.1Q234.8 87.1 235.3 86.8Q235.7 86.4 236.0 85.8Q236.2 85.2 236.2 84.5L236.2 84.5Q236.2 83.7 236.0 83.1Q235.7 82.5 235.3 82.2Q234.8 81.8 234.2 81.8L234.2 81.8Q233.5 81.8 233.1 82.2Q232.6 82.5 232.4 83.1Q232.2 83.7 232.2 84.5L232.2 84.5Q232.2 85.2 232.4 85.8Q232.6 86.5 233.1 86.8Q233.5 87.1 234.2 87.1ZM240.3 80.9L241.8 80.9L241.8 81.9L240.3 81.9L240.3 86.2Q240.3 86.6 240.5 86.9Q240.7 87.1 241.2 87.1L241.2 87.1Q241.3 87.1 241.5 87.0Q241.6 87.0 241.8 87.0L241.8 87.0L242.0 88.0Q241.8 88.0 241.6 88.1Q241.4 88.1 241.1 88.1L241.1 88.1Q240.2 88.1 239.7 87.6Q239.2 87.1 239.2 86.2L239.2 86.2L239.2 81.9L238.1 81.9L238.1 80.9L239.2 80.9L239.2 79.2L240.3 79.2L240.3 80.9Z "/></g><mask id="satori_om-id-3-1-2"><rect x="249" y="77" width="23" height="13" fill="#fff" mask="url(#satori_om-id)"/></mask><g mask="url(#satori_om-id)" clip-path="url(#satori_cp-id)"><path fill="#6a6a8a" d="M251.3 80.0L252.5 80.0L252.5 88L251.5 88L251.5 80.9L251.4 80.9L249.5 82.4L249.5 81.3L251.3 80.0ZM257.9 86.4L254.1 86.4L254.1 85.5L257.6 80.0L258.9 80.0L258.9 85.5L259.9 85.5L259.9 86.4L258.9 86.4L258.9 88L257.9 88L257.9 86.4ZM255.2 85.5L257.9 85.5L257.9 81.3L257.8 81.3L255.2 85.4L255.2 85.5ZM263.4 83.5L263.4 83.5Q262.9 83.5 262.5 83.3Q262.2 83.1 262.0 82.7Q261.8 82.3 261.8 81.9L261.8 81.9L261.8 81.5Q261.8 81.0 262.0 80.7Q262.2 80.3 262.5 80.1Q262.9 79.9 263.4 79.9L263.4 79.9Q263.9 79.9 264.3 80.1Q264.6 80.3 264.8 80.7Q265.0 81.0 265.0 81.5L265.0 81.5L265.0 81.9Q265.0 82.3 264.8 82.7Q264.6 83.1 264.2 83.3Q263.9 83.5 263.4 83.5ZM263.4 82.8L263.4 82.8Q263.8 82.8 264.0 82.6Q264.1 82.3 264.1 81.9L264.1 81.9L264.1 81.5Q264.1 81.1 264.0 80.9Q263.8 80.6 263.4 80.6L263.4 80.6Q263.0 80.6 262.8 80.9Q262.6 81.1 262.6 81.5L262.6 81.5L262.6 81.9Q262.6 82.3 262.8 82.6Q263.0 82.8 263.4 82.8ZM268.6 88.2L268.6 88.2Q268.1 88.2 267.7 87.9Q267.4 87.7 267.2 87.3Q267.0 87.0 267.0 86.5L267.0 86.5L267.0 86.1Q267.0 85.7 267.2 85.3Q267.4 84.9 267.7 84.7Q268.1 84.5 268.6 84.5L268.6 84.5Q269.1 84.5 269.4 84.7Q269.8 84.9 270.0 85.3Q270.1 85.7 270.1 86.1L270.1 86.1L270.1 86.5Q270.1 87.0 270.0 87.3Q269.8 87.7 269.4 87.9Q269.1 88.2 268.6 88.2ZM268.6 87.5L268.6 87.5Q269.0 87.5 269.2 87.2Q269.3 86.9 269.3 86.5L269.3 86.5L269.3 86.1Q269.3 85.8 269.2 85.5Q269.0 85.2 268.6 85.2L268.6 85.2Q268.2 85.2 268.0 85.5Q267.8 85.8 267.8 86.1L267.8 86.1L267.8 86.5Q267.8 86.9 268.0 87.2Q268.2 87.5 268.6 87.5ZM263.7 88L262.8 88L268.3 80.0L269.2 80.0L263.7 88Z "/></g><mask id="satori_om-id-3-2"><rect x="293" y="75" width="120" height="16" fill="#fff" mask="url(#satori_om-id)"/></mask><mask id="satori_ms-id-3-2-0-0" maskUnits="userSpaceOnUse"><rect x="0" y="0" width="800" height="180" fill="#fff"/><path x="293" y="78" width="10" height="10" fill="#000"  stroke-width="0" d="M298,78 h0 a5,5 0 0 1 5,5 v0 a5,5 0 0 1 -5,5 h0 a5,5 0 0 1 -5,-5 v0 a5,5 0 0 1 5,-5" clip-path="url(#satori_cp-id)" mask="url(#satori_om-id)"/></mask><defs><filter id="satori_s-id-3-2-0-0" x="-90%" y="-90%" width="280%" height="280%"><feGaussianBlur stdDeviation="3" result="b"/><feFlood flood-color="#55555540" in="SourceGraphic" result="f"/><feComposite in="f" in2="b" operator="in"/></filter></defs><g mask="url(#satori_ms-id-3-2-0-0)" filter="url(#satori_s-id-3-2-0-0)" opacity="1"><path x="293" y="78" width="10" height="10" fill="#fff" stroke="#fff" stroke-width="0" d="M298,78 h0 a5,5 0 0 1 5,5 v0 a5,5 0 0 1 -5,5 h0 a5,5 0 0 1 -5,-5 v0 a5,5 0 0 1 5,-5" clip-path="url(#satori_cp-id)" mask="url(#satori_om-id)"/></g><mask id="satori_om-id-3-2-0"><rect x="293" y="78" width="10" height="10" fill="#fff" mask="url(#satori_om-id)"/></mask><path x="293" y="78" width="10" height="10" fill="#555555" d="M298,78 h0 a5,5 0 0 1 5,5 v0 a5,5 0 0 1 -5,5 h0 a5,5 0 0 1 -5,-5 v0 a5,5 0 0 1 5,-5" clip-path="url(#satori_cp-id)" mask="url(#satori_om-id)"/><mask id="satori_om-id-3-2-1"><rect x="309" y="75" width="10" height="16" fill="#fff" mask="url(#satori_om-id)"/></mask><g mask="url(#satori_om-id)" clip-path="url(#satori_cp-id)"><path fill="#e0e0f0" d="M314.0 88.1L314.0 88.1Q312.8 88.1 311.8 87.5Q310.9 87.0 310.3 85.9Q309.8 84.8 309.8 83.3L309.8 83.3Q309.8 81.8 310.3 80.7Q310.9 79.6 311.8 79.0Q312.8 78.4 314.0 78.4L314.0 78.4Q314.7 78.4 315.3 78.6Q316.0 78.8 316.5 79.2Q317.0 79.6 317.3 80.2Q317.7 80.8 317.8 81.5L317.8 81.5L316.6 81.5Q316.5 81.0 316.2 80.7Q316.0 80.3 315.6 80.0Q315.3 79.8 314.9 79.7Q314.4 79.5 314.0 79.5L314.0 79.5Q313.1 79.5 312.4 80.0Q311.7 80.4 311.3 81.2Q310.9 82.1 310.9 83.3L310.9 83.3Q310.9 84.5 311.4 85.3Q311.8 86.2 312.4 86.6Q313.1 87.0 314.0 87.0L314.0 87.0Q314.4 87.0 314.9 86.9Q315.3 86.7 315.6 86.5Q316.0 86.2 316.2 85.9Q316.5 85.5 316.6 85.0L316.6 85.0L317.8 85.0Q317.7 85.7 317.3 86.3Q317.0 86.9 316.5 87.3Q316.0 87.7 315.3 87.9Q314.7 88.1 314.0 88.1Z "/></g><mask id="satori_om-id-3-2-2"><rect x="325" y="77" width="22" height="13" fill="#fff" mask="url(#satori_om-id)"/></mask><g mask="url(#satori_om-id)" clip-path="url(#satori_cp-id)"><path fill="#6a6a8a" d="M327.3 80.0L328.5 80.0L328.5 88L327.5 88L327.5 80.9L327.4 80.9L325.5 82.4L325.5 81.3L327.3 80.0ZM335.4 88L330.3 88L330.3 87.3L333.0 84.4Q333.4 83.9 333.7 83.5Q334.0 83.2 334.1 82.8Q334.3 82.5 334.3 82.1L334.3 82.1Q334.3 81.7 334.1 81.4Q333.9 81.1 333.6 80.9Q333.2 80.8 332.8 80.8L332.8 80.8Q332.3 80.8 332.0 81.0Q331.7 81.1 331.5 81.5Q331.3 81.8 331.3 82.3L331.3 82.3L330.3 82.3Q330.3 81.6 330.7 81.0Q331.0 80.5 331.5 80.2Q332.1 79.9 332.8 79.9L332.8 79.9Q333.5 79.9 334.1 80.2Q334.6 80.5 334.9 81.0Q335.3 81.5 335.3 82.1L335.3 82.1Q335.3 82.6 335.1 83.0Q335.0 83.4 334.6 83.9Q334.2 84.4 333.5 85.2L333.5 85.2L331.7 87.0L331.7 87.1L335.4 87.1L335.4 88ZM339.0 83.5L339.0 83.5Q338.5 83.5 338.1 83.3Q337.8 83.1 337.6 82.7Q337.4 82.3 337.4 81.9L337.4 81.9L337.4 81.5Q337.4 81.0 337.6 80.7Q337.8 80.3 338.1 80.1Q338.5 79.9 339.0 79.9L339.0 79.9Q339.5 79.9 339.9 80.1Q340.2 80.3 340.4 80.7Q340.6 81.0 340.6 81.5L340.6 81.5L340.6 81.9Q340.6 82.3 340.4 82.7Q340.2 83.1 339.8 83.3Q339.5 83.5 339.0 83.5ZM339.0 82.8L339.0 82.8Q339.4 82.8 339.6 82.6Q339.7 82.3 339.7 81.9L339.7 81.9L339.7 81.5Q339.7 81.1 339.6 80.9Q339.4 80.6 339.0 80.6L339.0 80.6Q338.6 80.6 338.4 80.9Q338.2 81.1 338.2 81.5L338.2 81.5L338.2 81.9Q338.2 82.3 338.4 82.6Q338.6 82.8 339.0 82.8ZM344.2 88.2L344.2 88.2Q343.7 88.2 343.3 87.9Q343.0 87.7 342.8 87.3Q342.6 87.0 342.6 86.5L342.6 86.5L342.6 86.1Q342.6 85.7 342.8 85.3Q343.0 84.9 343.3 84.7Q343.7 84.5 344.2 84.5L344.2 84.5Q344.7 84.5 345.1 84.7Q345.4 84.9 345.6 85.3Q345.7 85.7 345.7 86.1L345.7 86.1L345.7 86.5Q345.7 87.0 345.6 87.3Q345.4 87.7 345.0 87.9Q344.7 88.2 344.2 88.2ZM344.2 87.5L344.2 87.5Q344.6 87.5 344.8 87.2Q344.9 86.9 344.9 86.5L344.9 86.5L344.9 86.1Q344.9 85.8 344.8 85.5Q344.6 85.2 344.2 85.2L344.2 85.2Q343.8 85.2 343.6 85.5Q343.4 85.8 343.4 86.1L343.4 86.1L343.4 86.5Q343.4 86.9 343.6 87.2Q343.8 87.5 344.2 87.5ZM339.3 88L338.4 88L343.9 80.0L344.8 80.0L339.3 88Z "/></g><mask id="satori_om-id-3-3"><rect x="427" y="75" width="120" height="16" fill="#fff" mask="url(#satori_om-id)"/></mask><mask id="satori_ms-id-3-3-0-0" maskUnits="userSpaceOnUse"><rect x="0" y="0" width="800" height="180" fill="#fff"/><path x="427" y="78" width="10" height="10" fill="#000"  stroke-width="0" d="M432,78 h0 a5,5 0 0 1 5,5 v0 a5,5 0 0 1 -5,5 h0 a5,5 0 0 1 -5,-5 v0 a5,5 0 0 1 5,-5" clip-path="url(#satori_cp-id)" mask="url(#satori_om-id)"/></mask><defs><filter id="satori_s-id-3-3-0-0" x="-90%" y="-90%" width="280%" height="280%"><feGaussianBlur stdDeviation="3" result="b"/><feFlood flood-color="#3572A540" in="SourceGraphic" result="f"/><feComposite in="f" in2="b" operator="in"/></filter></defs><g mask="url(#satori_ms-id-3-3-0-0)" filter="url(#satori_s-id-3-3-0-0)" opacity="1"><path x="427" y="78" width="10" height="10" fill="#fff" stroke="#fff" stroke-width="0" d="M432,78 h0 a5,5 0 0 1 5,5 v0 a5,5 0 0 1 -5,5 h0 a5,5 0 0 1 -5,-5 v0 a5,5 0 0 1 5,-5" clip-path="url(#satori_cp-id)" mask="url(#satori_om-id)"/></g><mask id="satori_om-id-3-3-0"><rect x="427" y="78" width="10" height="10" fill="#fff" mask="url(#satori_om-id)"/></mask><path x="427" y="78" width="10" height="10" fill="#3572A5" d="M432,78 h0 a5,5 0 0 1 5,5 v0 a5,5 0 0 1 -5,5 h0 a5,5 0 0 1 -5,-5 v0 a5,5 0 0 1 5,-5" clip-path="url(#satori_cp-id)" mask="url(#satori_om-id)"/><mask id="satori_om-id-3-3-1"><rect x="443" y="75" width="44" height="16" fill="#fff" mask="url(#satori_om-id)"/></mask><g mask="url(#satori_om-id)" clip-path="url(#satori_cp-id)"><path fill="#e0e0f0" d="M445.3 88L444.1 88L444.1 78.5L447.4 78.5Q448.5 78.5 449.2 78.9Q449.9 79.3 450.3 80.0Q450.6 80.7 450.6 81.6Q450.6 82.4 450.3 83.1Q449.9 83.8 449.2 84.2Q448.5 84.6 447.4 84.6L447.4 84.6L445.3 84.6L445.3 88ZM445.3 79.6L445.3 83.5L447.3 83.5Q448.1 83.5 448.5 83.3Q449.0 83.0 449.2 82.6Q449.4 82.1 449.4 81.6Q449.4 81.0 449.2 80.6Q449.0 80.1 448.5 79.9Q448.1 79.6 447.3 79.6L447.3 79.6L445.3 79.6ZM452.2 90.6L452.2 90.6L452.5 89.6L452.6 89.6Q453.0 89.7 453.2 89.7Q453.5 89.6 453.8 89.4Q454.0 89.1 454.2 88.6L454.2 88.6L454.4 88.0L451.6 80.9L452.9 80.9L454.4 85.1Q454.6 85.8 454.8 86.4L454.8 86.4Q454.9 86.7 455.0 87.0L455.0 87.0Q455.0 86.7 455.1 86.4L455.1 86.4Q455.3 85.8 455.5 85.1L455.5 85.1L457.0 80.9L458.3 80.9L455.1 89.1Q454.9 89.6 454.6 90.0Q454.3 90.4 453.9 90.5Q453.5 90.7 453.0 90.7L453.0 90.7Q452.7 90.7 452.5 90.7Q452.3 90.6 452.2 90.6ZM460.9 80.9L462.4 80.9L462.4 81.9L460.9 81.9L460.9 86.2Q460.9 86.6 461.1 86.9Q461.3 87.1 461.8 87.1L461.8 87.1Q461.9 87.1 462.1 87.0Q462.2 87.0 462.4 87.0L462.4 87.0L462.6 88.0Q462.4 88.0 462.2 88.1Q462.0 88.1 461.8 88.1L461.8 88.1Q460.8 88.1 460.3 87.6Q459.8 87.1 459.8 86.2L459.8 86.2L459.8 81.9L458.7 81.9L458.7 80.9L459.8 80.9L459.8 79.2L460.9 79.2L460.9 80.9ZM465.0 83.7L465.0 83.7L465.0 88L463.9 88L463.9 78.5L465.0 78.5L465.0 82.1Q465.3 81.5 465.7 81.2L465.7 81.2Q466.3 80.8 467.1 80.8L467.1 80.8Q467.9 80.8 468.4 81.1Q468.9 81.4 469.2 82.0Q469.5 82.6 469.5 83.5L469.5 83.5L469.5 88L468.4 88L468.4 83.6Q468.4 82.8 468.0 82.3Q467.5 81.8 466.8 81.8L466.8 81.8Q466.3 81.8 465.9 82.1Q465.5 82.3 465.2 82.7Q465.0 83.1 465.0 83.7ZM474.4 88.2L474.4 88.2Q473.5 88.2 472.7 87.7Q472.0 87.2 471.6 86.4Q471.2 85.6 471.2 84.5L471.2 84.5Q471.2 83.4 471.6 82.6Q472.0 81.7 472.7 81.3Q473.5 80.8 474.4 80.8L474.4 80.8Q475.4 80.8 476.1 81.3Q476.9 81.7 477.3 82.6Q477.7 83.4 477.7 84.5L477.7 84.5Q477.7 85.6 477.3 86.4Q476.9 87.2 476.1 87.7Q475.4 88.2 474.4 88.2ZM474.4 87.1L474.4 87.1Q475.2 87.1 475.6 86.8Q476.1 86.4 476.3 85.8Q476.5 85.2 476.5 84.5L476.5 84.5Q476.5 83.8 476.3 83.2Q476.1 82.6 475.6 82.2Q475.2 81.8 474.4 81.8L474.4 81.8Q473.7 81.8 473.3 82.2Q472.8 82.6 472.6 83.2Q472.4 83.8 472.4 84.5L472.4 84.5Q472.4 85.2 472.6 85.8Q472.8 86.4 473.3 86.8Q473.7 87.1 474.4 87.1ZM480.5 83.7L480.5 83.7L480.5 88L479.3 88L479.3 80.9L480.4 80.9L480.5 82.2Q480.7 81.6 481.2 81.2L481.2 81.2Q481.8 80.8 482.6 80.8L482.6 80.8Q483.3 80.8 483.9 81.1Q484.4 81.4 484.7 82.0Q485.0 82.6 485.0 83.5L485.0 83.5L485.0 88L483.9 88L483.9 83.6Q483.9 82.8 483.5 82.3Q483.0 81.8 482.3 81.8L482.3 81.8Q481.8 81.8 481.4 82.1Q481.0 82.3 480.7 82.7Q480.5 83.1 480.5 83.7Z "/></g><mask id="satori_om-id-3-3-2"><rect x="493" y="77" width="18" height="13" fill="#fff" mask="url(#satori_om-id)"/></mask><g mask="url(#satori_om-id)" clip-path="url(#satori_cp-id)"><path fill="#6a6a8a" d="M496.4 88.1L496.4 88.1Q495.6 88.1 495.0 87.8Q494.3 87.5 494.0 87.0Q493.7 86.5 493.7 85.9L493.7 85.9Q493.7 85.4 493.9 84.9Q494.1 84.5 494.4 84.2Q494.8 83.9 495.2 83.8L495.2 83.8L495.2 83.8Q494.6 83.6 494.3 83.1Q493.9 82.7 493.9 82.0L493.9 82.0Q493.9 81.4 494.3 80.9Q494.6 80.4 495.1 80.2Q495.7 79.9 496.4 79.9L496.4 79.9Q497.1 79.9 497.7 80.2Q498.2 80.4 498.5 80.9Q498.8 81.4 498.8 82.0L498.8 82.0Q498.8 82.7 498.5 83.1Q498.2 83.6 497.6 83.8L497.6 83.8L497.6 83.8Q498.0 83.9 498.4 84.2Q498.7 84.5 498.9 84.9Q499.1 85.4 499.1 85.9L499.1 85.9Q499.1 86.5 498.8 87.0Q498.4 87.5 497.8 87.8Q497.2 88.1 496.4 88.1ZM496.4 87.2L496.4 87.2Q496.9 87.2 497.3 87.0Q497.7 86.9 497.9 86.6Q498.1 86.2 498.1 85.8L498.1 85.8Q498.1 85.4 497.9 85.0Q497.7 84.7 497.3 84.5Q496.9 84.3 496.4 84.3L496.4 84.3Q495.9 84.3 495.5 84.5Q495.1 84.7 494.9 85.0Q494.7 85.4 494.7 85.8L494.7 85.8Q494.7 86.2 494.9 86.6Q495.1 86.9 495.5 87.0Q495.9 87.2 496.4 87.2ZM496.4 83.4L496.4 83.4Q496.8 83.4 497.2 83.3Q497.5 83.1 497.7 82.8Q497.9 82.5 497.9 82.1L497.9 82.1Q497.9 81.7 497.7 81.4Q497.5 81.1 497.2 80.9Q496.8 80.8 496.4 80.8L496.4 80.8Q496.0 80.8 495.6 80.9Q495.3 81.1 495.1 81.4Q494.9 81.7 494.9 82.1L494.9 82.1Q494.9 82.5 495.1 82.8Q495.3 83.1 495.6 83.3Q496.0 83.4 496.4 83.4ZM502.6 83.5L502.6 83.5Q502.1 83.5 501.8 83.3Q501.4 83.1 501.2 82.7Q501.0 82.3 501.0 81.9L501.0 81.9L501.0 81.5Q501.0 81.0 501.2 80.7Q501.4 80.3 501.8 80.1Q502.1 79.9 502.6 79.9L502.6 79.9Q503.1 79.9 503.5 80.1Q503.8 80.3 504 80.7Q504.2 81.0 504.2 81.5L504.2 81.5L504.2 81.9Q504.2 82.3 504.0 82.7Q503.8 83.1 503.5 83.3Q503.1 83.5 502.6 83.5ZM502.6 82.8L502.6 82.8Q503.0 82.8 503.2 82.6Q503.4 82.3 503.4 81.9L503.4 81.9L503.4 81.5Q503.4 81.1 503.2 80.9Q503.0 80.6 502.6 80.6L502.6 80.6Q502.2 80.6 502.0 80.9Q501.9 81.1 501.9 81.5L501.9 81.5L501.9 81.9Q501.9 82.3 502.0 82.6Q502.2 82.8 502.6 82.8ZM507.8 88.2L507.8 88.2Q507.3 88.2 506.9 87.9Q506.6 87.7 506.4 87.3Q506.2 87.0 506.2 86.5L506.2 86.5L506.2 86.1Q506.2 85.7 506.4 85.3Q506.6 84.9 507.0 84.7Q507.3 84.5 507.8 84.5L507.8 84.5Q508.3 84.5 508.7 84.7Q509.0 84.9 509.2 85.3Q509.4 85.7 509.4 86.1L509.4 86.1L509.4 86.5Q509.4 87.0 509.2 87.3Q509.0 87.7 508.7 87.9Q508.3 88.2 507.8 88.2ZM507.8 87.5L507.8 87.5Q508.2 87.5 508.4 87.2Q508.5 86.9 508.5 86.5L508.5 86.5L508.5 86.1Q508.5 85.8 508.4 85.5Q508.2 85.2 507.8 85.2L507.8 85.2Q507.4 85.2 507.2 85.5Q507.1 85.8 507.1 86.1L507.1 86.1L507.1 86.5Q507.1 86.9 507.2 87.2Q507.4 87.5 507.8 87.5ZM502.9 88L502.0 88L507.5 80.0L508.4 80.0L502.9 88Z "/></g><mask id="satori_om-id-3-4"><rect x="561" y="75" width="120" height="16" fill="#fff" mask="url(#satori_om-id)"/></mask><mask id="satori_ms-id-3-4-0-0" maskUnits="userSpaceOnUse"><rect x="0" y="0" width="800" height="180" fill="#fff"/><path x="561" y="78" width="10" height="10" fill="#000"  stroke-width="0" d="M566,78 h0 a5,5 0 0 1 5,5 v0 a5,5 0 0 1 -5,5 h0 a5,5 0 0 1 -5,-5 v0 a5,5 0 0 1 5,-5" clip-path="url(#satori_cp-id)" mask="url(#satori_om-id)"/></mask><defs><filter id="satori_s-id-3-4-0-0" x="-90%" y="-90%" width="280%" height="280%"><feGaussianBlur stdDeviation="3" result="b"/><feFlood flood-color="#66339940" in="SourceGraphic" result="f"/><feComposite in="f" in2="b" operator="in"/></filter></defs><g mask="url(#satori_ms-id-3-4-0-0)" filter="url(#satori_s-id-3-4-0-0)" opacity="1"><path x="561" y="78" width="10" height="10" fill="#fff" stroke="#fff" stroke-width="0" d="M566,78 h0 a5,5 0 0 1 5,5 v0 a5,5 0 0 1 -5,5 h0 a5,5 0 0 1 -5,-5 v0 a5,5 0 0 1 5,-5" clip-path="url(#satori_cp-id)" mask="url(#satori_om-id)"/></g><mask id="satori_om-id-3-4-0"><rect x="561" y="78" width="10" height="10" fill="#fff" mask="url(#satori_om-id)"/></mask><path x="561" y="78" width="10" height="10" fill="#663399" d="M566,78 h0 a5,5 0 0 1 5,5 v0 a5,5 0 0 1 -5,5 h0 a5,5 0 0 1 -5,-5 v0 a5,5 0 0 1 5,-5" clip-path="url(#satori_cp-id)" mask="url(#satori_om-id)"/><mask id="satori_om-id-3-4-1"><rect x="577" y="75" width="27" height="16" fill="#fff" mask="url(#satori_om-id)"/></mask><g mask="url(#satori_om-id)" clip-path="url(#satori_cp-id)"><path fill="#e0e0f0" d="M582.0 88.1L582.0 88.1Q580.8 88.1 579.8 87.5Q578.9 87.0 578.3 85.9Q577.8 84.8 577.8 83.3L577.8 83.3Q577.8 81.8 578.3 80.7Q578.9 79.6 579.8 79.0Q580.8 78.4 582.0 78.4L582.0 78.4Q582.7 78.4 583.3 78.6Q584.0 78.8 584.5 79.2Q585.0 79.6 585.3 80.2Q585.7 80.8 585.8 81.5L585.8 81.5L584.6 81.5Q584.5 81.0 584.2 80.7Q584.0 80.3 583.6 80.0Q583.3 79.8 582.9 79.7Q582.4 79.5 582.0 79.5L582.0 79.5Q581.1 79.5 580.4 80.0Q579.7 80.4 579.3 81.2Q578.9 82.1 578.9 83.3L578.9 83.3Q578.9 84.5 579.4 85.3Q579.8 86.2 580.4 86.6Q581.1 87.0 582.0 87.0L582.0 87.0Q582.4 87.0 582.9 86.9Q583.3 86.7 583.6 86.5Q584.0 86.2 584.2 85.9Q584.5 85.5 584.6 85.0L584.6 85.0L585.8 85.0Q585.7 85.7 585.3 86.3Q585.0 86.9 584.5 87.3Q584.0 87.7 583.3 87.9Q582.7 88.1 582.0 88.1ZM590.7 88.2L590.7 88.2Q589.6 88.2 588.9 87.8Q588.1 87.5 587.7 86.9Q587.3 86.3 587.2 85.5L587.2 85.5L588.5 85.5Q588.5 86.1 588.8 86.4Q589.1 86.7 589.6 86.9Q590.1 87.1 590.7 87.1L590.7 87.1Q591.3 87.1 591.8 86.9Q592.3 86.7 592.6 86.3Q592.9 85.9 592.9 85.4L592.9 85.4Q592.9 84.9 592.7 84.7Q592.4 84.4 592.0 84.2Q591.6 84.0 591.1 83.9L591.1 83.9L589.9 83.5Q588.8 83.2 588.1 82.6Q587.5 82.0 587.5 81.1L587.5 81.1Q587.5 80.3 587.9 79.7Q588.4 79.1 589.1 78.7Q589.8 78.4 590.7 78.4L590.7 78.4Q591.7 78.4 592.4 78.7Q593.1 79.1 593.5 79.6Q593.9 80.2 594.0 80.9L594.0 80.9L592.8 80.9Q592.7 80.2 592.1 79.9Q591.6 79.5 590.7 79.5L590.7 79.5Q590.1 79.5 589.6 79.7Q589.2 79.9 588.9 80.2Q588.7 80.6 588.7 81.0L588.7 81.0Q588.7 81.5 589.0 81.8Q589.3 82.1 589.7 82.3Q590.1 82.5 590.5 82.5L590.5 82.5L591.4 82.8Q591.8 82.9 592.3 83.1Q592.7 83.3 593.1 83.6Q593.6 83.9 593.8 84.3Q594.1 84.8 594.1 85.4L594.1 85.4Q594.1 86.2 593.7 86.8Q593.3 87.4 592.5 87.8Q591.8 88.2 590.7 88.2ZM599.0 88.2L599.0 88.2Q598.0 88.2 597.2 87.8Q596.5 87.5 596.1 86.9Q595.6 86.3 595.6 85.5L595.6 85.5L596.8 85.5Q596.9 86.1 597.2 86.4Q597.5 86.7 598.0 86.9Q598.5 87.1 599.0 87.1L599.0 87.1Q599.6 87.1 600.2 86.9Q600.7 86.7 601.0 86.3Q601.3 85.9 601.3 85.4L601.3 85.4Q601.3 84.9 601.0 84.7Q600.8 84.4 600.3 84.2Q599.9 84.0 599.4 83.9L599.4 83.9L598.3 83.5Q597.1 83.2 596.5 82.6Q595.8 82.0 595.8 81.1L595.8 81.1Q595.8 80.3 596.3 79.7Q596.7 79.1 597.4 78.7Q598.2 78.4 599.1 78.4L599.1 78.4Q600.0 78.4 600.7 78.7Q601.5 79.1 601.9 79.6Q602.3 80.2 602.3 80.9L602.3 80.9L601.1 80.9Q601.1 80.2 600.5 79.9Q599.9 79.5 599.1 79.5L599.1 79.5Q598.4 79.5 598.0 79.7Q597.5 79.9 597.3 80.2Q597.0 80.6 597.0 81.0L597.0 81.0Q597.0 81.5 597.3 81.8Q597.6 82.1 598.1 82.3Q598.5 82.5 598.8 82.5L598.8 82.5L599.8 82.8Q600.1 82.9 600.6 83.1Q601.1 83.3 601.5 83.6Q601.9 83.9 602.2 84.3Q602.4 84.8 602.4 85.4L602.4 85.4Q602.4 86.2 602.0 86.8Q601.6 87.4 600.9 87.8Q600.1 88.2 599.0 88.2Z "/></g><mask id="satori_om-id-3-4-2"><rect x="610" y="77" width="18" height="13" fill="#fff" mask="url(#satori_om-id)"/></mask><g mask="url(#satori_om-id)" clip-path="url(#satori_cp-id)"><path fill="#6a6a8a" d="M613.4 88.1L613.4 88.1Q612.6 88.1 612.0 87.8Q611.3 87.5 611.0 87.0Q610.7 86.5 610.7 85.9L610.7 85.9Q610.7 85.4 610.9 84.9Q611.1 84.5 611.4 84.2Q611.8 83.9 612.2 83.8L612.2 83.8L612.2 83.8Q611.6 83.6 611.3 83.1Q610.9 82.7 610.9 82.0L610.9 82.0Q610.9 81.4 611.3 80.9Q611.6 80.4 612.1 80.2Q612.7 79.9 613.4 79.9L613.4 79.9Q614.1 79.9 614.7 80.2Q615.2 80.4 615.5 80.9Q615.8 81.4 615.8 82.0L615.8 82.0Q615.8 82.7 615.5 83.1Q615.2 83.6 614.6 83.8L614.6 83.8L614.6 83.8Q615.0 83.9 615.4 84.2Q615.7 84.5 615.9 84.9Q616.1 85.4 616.1 85.9L616.1 85.9Q616.1 86.5 615.8 87.0Q615.4 87.5 614.8 87.8Q614.2 88.1 613.4 88.1ZM613.4 87.2L613.4 87.2Q613.9 87.2 614.3 87.0Q614.7 86.9 614.9 86.6Q615.1 86.2 615.1 85.8L615.1 85.8Q615.1 85.4 614.9 85.0Q614.7 84.7 614.3 84.5Q613.9 84.3 613.4 84.3L613.4 84.3Q612.9 84.3 612.5 84.5Q612.1 84.7 611.9 85.0Q611.7 85.4 611.7 85.8L611.7 85.8Q611.7 86.2 611.9 86.6Q612.1 86.9 612.5 87.0Q612.9 87.2 613.4 87.2ZM613.4 83.4L613.4 83.4Q613.8 83.4 614.2 83.3Q614.5 83.1 614.7 82.8Q614.9 82.5 614.9 82.1L614.9 82.1Q614.9 81.7 614.7 81.4Q614.5 81.1 614.2 80.9Q613.8 80.8 613.4 80.8L613.4 80.8Q613.0 80.8 612.6 80.9Q612.3 81.1 612.1 81.4Q611.9 81.7 611.9 82.1L611.9 82.1Q611.9 82.5 612.1 82.8Q612.3 83.1 612.6 83.3Q613.0 83.4 613.4 83.4ZM619.6 83.5L619.6 83.5Q619.1 83.5 618.8 83.3Q618.4 83.1 618.2 82.7Q618.0 82.3 618.0 81.9L618.0 81.9L618.0 81.5Q618.0 81.0 618.2 80.7Q618.4 80.3 618.8 80.1Q619.1 79.9 619.6 79.9L619.6 79.9Q620.1 79.9 620.5 80.1Q620.8 80.3 621 80.7Q621.2 81.0 621.2 81.5L621.2 81.5L621.2 81.9Q621.2 82.3 621.0 82.7Q620.8 83.1 620.5 83.3Q620.1 83.5 619.6 83.5ZM619.6 82.8L619.6 82.8Q620.0 82.8 620.2 82.6Q620.4 82.3 620.4 81.9L620.4 81.9L620.4 81.5Q620.4 81.1 620.2 80.9Q620.0 80.6 619.6 80.6L619.6 80.6Q619.2 80.6 619.0 80.9Q618.9 81.1 618.9 81.5L618.9 81.5L618.9 81.9Q618.9 82.3 619.0 82.6Q619.2 82.8 619.6 82.8ZM624.8 88.2L624.8 88.2Q624.3 88.2 623.9 87.9Q623.6 87.7 623.4 87.3Q623.2 87.0 623.2 86.5L623.2 86.5L623.2 86.1Q623.2 85.7 623.4 85.3Q623.6 84.9 624.0 84.7Q624.3 84.5 624.8 84.5L624.8 84.5Q625.3 84.5 625.7 84.7Q626.0 84.9 626.2 85.3Q626.4 85.7 626.4 86.1L626.4 86.1L626.4 86.5Q626.4 87.0 626.2 87.3Q626.0 87.7 625.7 87.9Q625.3 88.2 624.8 88.2ZM624.8 87.5L624.8 87.5Q625.2 87.5 625.4 87.2Q625.5 86.9 625.5 86.5L625.5 86.5L625.5 86.1Q625.5 85.8 625.4 85.5Q625.2 85.2 624.8 85.2L624.8 85.2Q624.4 85.2 624.2 85.5Q624.1 85.8 624.1 86.1L624.1 86.1L624.1 86.5Q624.1 86.9 624.2 87.2Q624.4 87.5 624.8 87.5ZM619.9 88L619.0 88L624.5 80.0L625.4 80.0L619.9 88Z "/></g><mask id="satori_om-id-3-5"><rect x="25" y="105" width="120" height="16" fill="#fff" mask="url(#satori_om-id)"/></mask><mask id="satori_ms-id-3-5-0-0" maskUnits="userSpaceOnUse"><rect x="0" y="0" width="800" height="180" fill="#fff"/><path x="25" y="108" width="10" height="10" fill="#000"  stroke-width="0" d="M30,108 h0 a5,5 0 0 1 5,5 v0 a5,5 0 0 1 -5,5 h0 a5,5 0 0 1 -5,-5 v0 a5,5 0 0 1 5,-5" clip-path="url(#satori_cp-id)" mask="url(#satori_om-id)"/></mask><defs><filter id="satori_s-id-3-5-0-0" x="-90%" y="-90%" width="280%" height="280%"><feGaussianBlur stdDeviation="3" result="b"/><feFlood flood-color="#89e05140" in="SourceGraphic" result="f"/><feComposite in="f" in2="b" operator="in"/></filter></defs><g mask="url(#satori_ms-id-3-5-0-0)" filter="url(#satori_s-id-3-5-0-0)" opacity="1"><path x="25" y="108" width="10" height="10" fill="#fff" stroke="#fff" stroke-width="0" d="M30,108 h0 a5,5 0 0 1 5,5 v0 a5,5 0 0 1 -5,5 h0 a5,5 0 0 1 -5,-5 v0 a5,5 0 0 1 5,-5" clip-path="url(#satori_cp-id)" mask="url(#satori_om-id)"/></g><mask id="satori_om-id-3-5-0"><rect x="25" y="108" width="10" height="10" fill="#fff" mask="url(#satori_om-id)"/></mask><path x="25" y="108" width="10" height="10" fill="#89e051" d="M30,108 h0 a5,5 0 0 1 5,5 v0 a5,5 0 0 1 -5,5 h0 a5,5 0 0 1 -5,-5 v0 a5,5 0 0 1 5,-5" clip-path="url(#satori_cp-id)" mask="url(#satori_om-id)"/><mask id="satori_om-id-3-5-1"><rect x="41" y="105" width="30" height="16" fill="#fff" mask="url(#satori_om-id)"/></mask><g mask="url(#satori_om-id)" clip-path="url(#satori_cp-id)"><path fill="#e0e0f0" d="M45.2 118.2L45.2 118.2Q44.1 118.2 43.4 117.8Q42.6 117.5 42.2 116.9Q41.8 116.3 41.7 115.5L41.7 115.5L43.0 115.5Q43.0 116.1 43.3 116.4Q43.6 116.7 44.1 116.9Q44.6 117.1 45.2 117.1L45.2 117.1Q45.8 117.1 46.3 116.9Q46.8 116.7 47.1 116.3Q47.4 115.9 47.4 115.4L47.4 115.4Q47.4 114.9 47.2 114.7Q46.9 114.4 46.5 114.2Q46.1 114.0 45.6 113.9L45.6 113.9L44.4 113.5Q43.3 113.2 42.6 112.6Q42.0 112.0 42.0 111.1L42.0 111.1Q42.0 110.3 42.4 109.7Q42.9 109.1 43.6 108.7Q44.3 108.4 45.3 108.4L45.3 108.4Q46.2 108.4 46.9 108.7Q47.6 109.1 48.0 109.6Q48.5 110.2 48.5 110.9L48.5 110.9L47.3 110.9Q47.2 110.2 46.6 109.9Q46.1 109.5 45.2 109.5L45.2 109.5Q44.6 109.5 44.1 109.7Q43.7 109.9 43.4 110.2Q43.2 110.6 43.2 111.0L43.2 111.0Q43.2 111.5 43.5 111.8Q43.8 112.1 44.2 112.3Q44.6 112.5 45.0 112.5L45.0 112.5L45.9 112.8Q46.3 112.9 46.8 113.1Q47.2 113.3 47.6 113.6Q48.1 113.9 48.3 114.3Q48.6 114.8 48.6 115.4L48.6 115.4Q48.6 116.2 48.2 116.8Q47.8 117.4 47.0 117.8Q46.3 118.2 45.2 118.2ZM51.5 113.7L51.5 113.7L51.5 118L50.3 118L50.3 108.5L51.5 108.5L51.5 112.1Q51.8 111.5 52.2 111.2L52.2 111.2Q52.8 110.8 53.6 110.8L53.6 110.8Q54.3 110.8 54.9 111.1Q55.4 111.4 55.7 112.0Q56.0 112.6 56.0 113.5L56.0 113.5L56.0 118L54.9 118L54.9 113.6Q54.9 112.8 54.4 112.3Q54.0 111.8 53.3 111.8L53.3 111.8Q52.8 111.8 52.4 112.1Q52.0 112.3 51.7 112.7Q51.5 113.1 51.5 113.7ZM61.0 118.2L61.0 118.2Q60.0 118.2 59.2 117.7Q58.5 117.2 58.1 116.4Q57.7 115.6 57.7 114.5Q57.7 113.4 58.1 112.6Q58.5 111.8 59.2 111.3Q59.9 110.8 60.9 110.8L60.9 110.8Q61.4 110.8 62.0 111.0Q62.5 111.2 63.0 111.6Q63.4 112.0 63.7 112.7Q64.0 113.4 64.0 114.4L64.0 114.4L64.0 114.8L58.8 114.8Q58.9 115.5 59.1 116.0L59.1 116.0Q59.4 116.6 59.9 116.9Q60.4 117.1 61.0 117.1L61.0 117.1Q61.4 117.1 61.8 117.0Q62.1 116.9 62.4 116.7Q62.6 116.4 62.8 116.0L62.8 116.0L63.9 116.3Q63.7 116.9 63.3 117.3Q62.9 117.7 62.3 117.9Q61.7 118.2 61.0 118.2ZM58.8 113.9L58.8 113.9L62.8 113.9Q62.8 113.4 62.6 113.0L62.6 113.0Q62.4 112.4 62.0 112.1Q61.5 111.8 60.9 111.8Q60.2 111.8 59.8 112.1Q59.3 112.5 59.1 113.0L59.1 113.0Q58.9 113.4 58.8 113.9ZM65.6 108.5L66.8 108.5L66.8 118L65.6 118L65.6 108.5ZM68.8 108.5L69.9 108.5L69.9 118L68.8 118L68.8 108.5Z "/></g><mask id="satori_om-id-3-5-2"><rect x="77" y="107" width="18" height="13" fill="#fff" mask="url(#satori_om-id)"/></mask><g mask="url(#satori_om-id)" clip-path="url(#satori_cp-id)"><path fill="#6a6a8a" d="M80.5 118.1L80.5 118.1Q80.0 118.1 79.5 117.9Q79.0 117.7 78.6 117.3Q78.1 116.9 77.9 116.1Q77.7 115.4 77.7 114.3L77.7 114.3Q77.7 113.2 77.9 112.4Q78.1 111.6 78.4 111.0Q78.8 110.5 79.4 110.2Q79.9 109.9 80.6 109.9L80.6 109.9Q81.3 109.9 81.8 110.2Q82.3 110.4 82.7 110.9Q83.0 111.4 83.1 112.0L83.1 112.0L82.1 112.0Q82.0 111.5 81.6 111.1Q81.2 110.8 80.6 110.8L80.6 110.8Q80.0 110.8 79.5 111.2Q79.1 111.5 78.9 112.2Q78.6 112.9 78.6 113.8L78.6 113.8L78.7 113.8Q78.9 113.5 79.2 113.3Q79.5 113.0 79.9 112.9Q80.2 112.8 80.7 112.8L80.7 112.8Q81.3 112.8 81.9 113.1Q82.5 113.4 82.8 114.0Q83.2 114.6 83.2 115.4L83.2 115.4Q83.2 116.2 82.8 116.8Q82.5 117.4 81.9 117.7Q81.3 118.1 80.5 118.1ZM80.5 117.2L80.5 117.2Q81.0 117.2 81.3 117.0Q81.7 116.7 82.0 116.3Q82.2 115.9 82.2 115.4L82.2 115.4Q82.2 114.9 82.0 114.5Q81.7 114.1 81.4 113.9Q81.0 113.7 80.5 113.7L80.5 113.7Q80.1 113.7 79.8 113.8Q79.5 113.9 79.3 114.2Q79.0 114.4 78.9 114.8Q78.8 115.1 78.8 115.4L78.8 115.4Q78.8 115.9 79.0 116.3Q79.2 116.7 79.6 117.0Q80.0 117.2 80.5 117.2ZM86.6 113.5L86.6 113.5Q86.1 113.5 85.8 113.3Q85.4 113.1 85.2 112.7Q85.1 112.3 85.1 111.9L85.1 111.9L85.1 111.5Q85.1 111.0 85.2 110.7Q85.4 110.3 85.8 110.1Q86.1 109.9 86.6 109.9L86.6 109.9Q87.1 109.9 87.5 110.1Q87.8 110.3 88.0 110.7Q88.2 111.0 88.2 111.5L88.2 111.5L88.2 111.9Q88.2 112.3 88.0 112.7Q87.8 113.1 87.5 113.3Q87.1 113.5 86.6 113.5ZM86.6 112.8L86.6 112.8Q87.0 112.8 87.2 112.6Q87.4 112.3 87.4 111.9L87.4 111.9L87.4 111.5Q87.4 111.1 87.2 110.9Q87.0 110.6 86.6 110.6L86.6 110.6Q86.2 110.6 86.1 110.9Q85.9 111.1 85.9 111.5L85.9 111.5L85.9 111.9Q85.9 112.3 86.0 112.6Q86.2 112.8 86.6 112.8ZM91.8 118.2L91.8 118.2Q91.3 118.2 91.0 117.9Q90.6 117.7 90.4 117.3Q90.3 117.0 90.3 116.5L90.3 116.5L90.3 116.1Q90.3 115.7 90.4 115.3Q90.6 114.9 91.0 114.7Q91.3 114.5 91.8 114.5L91.8 114.5Q92.3 114.5 92.7 114.7Q93.0 114.9 93.2 115.3Q93.4 115.7 93.4 116.1L93.4 116.1L93.4 116.5Q93.4 117.0 93.2 117.3Q93.0 117.7 92.7 117.9Q92.3 118.2 91.8 118.2ZM91.8 117.5L91.8 117.5Q92.2 117.5 92.4 117.2Q92.6 116.9 92.6 116.5L92.6 116.5L92.6 116.1Q92.6 115.8 92.4 115.5Q92.2 115.2 91.8 115.2L91.8 115.2Q91.4 115.2 91.2 115.5Q91.1 115.8 91.1 116.1L91.1 116.1L91.1 116.5Q91.1 116.9 91.2 117.2Q91.4 117.5 91.8 117.5ZM86.9 118L86.0 118L91.5 110.0L92.4 110.0L86.9 118Z "/></g><mask id="satori_om-id-3-6"><rect x="159" y="105" width="120" height="16" fill="#fff" mask="url(#satori_om-id)"/></mask><mask id="satori_ms-id-3-6-0-0" maskUnits="userSpaceOnUse"><rect x="0" y="0" width="800" height="180" fill="#fff"/><path x="159" y="108" width="10" height="10" fill="#000"  stroke-width="0" d="M164,108 h0 a5,5 0 0 1 5,5 v0 a5,5 0 0 1 -5,5 h0 a5,5 0 0 1 -5,-5 v0 a5,5 0 0 1 5,-5" clip-path="url(#satori_cp-id)" mask="url(#satori_om-id)"/></mask><defs><filter id="satori_s-id-3-6-0-0" x="-90%" y="-90%" width="280%" height="280%"><feGaussianBlur stdDeviation="3" result="b"/><feFlood flood-color="#3D611740" in="SourceGraphic" result="f"/><feComposite in="f" in2="b" operator="in"/></filter></defs><g mask="url(#satori_ms-id-3-6-0-0)" filter="url(#satori_s-id-3-6-0-0)" opacity="1"><path x="159" y="108" width="10" height="10" fill="#fff" stroke="#fff" stroke-width="0" d="M164,108 h0 a5,5 0 0 1 5,5 v0 a5,5 0 0 1 -5,5 h0 a5,5 0 0 1 -5,-5 v0 a5,5 0 0 1 5,-5" clip-path="url(#satori_cp-id)" mask="url(#satori_om-id)"/></g><mask id="satori_om-id-3-6-0"><rect x="159" y="108" width="10" height="10" fill="#fff" mask="url(#satori_om-id)"/></mask><path x="159" y="108" width="10" height="10" fill="#3D6117" d="M164,108 h0 a5,5 0 0 1 5,5 v0 a5,5 0 0 1 -5,5 h0 a5,5 0 0 1 -5,-5 v0 a5,5 0 0 1 5,-5" clip-path="url(#satori_cp-id)" mask="url(#satori_om-id)"/><mask id="satori_om-id-3-6-1"><rect x="175" y="105" width="25" height="16" fill="#fff" mask="url(#satori_om-id)"/></mask><g mask="url(#satori_om-id)" clip-path="url(#satori_cp-id)"><path fill="#e0e0f0" d="M178.6 109.6L175.6 109.6L175.6 108.5L182.8 108.5L182.8 109.6L179.8 109.6L179.8 118L178.6 118L178.6 109.6ZM187.4 118.2L187.4 118.2Q186.3 118.2 185.6 117.7Q184.9 117.2 184.5 116.4Q184.1 115.6 184.1 114.5Q184.1 113.4 184.4 112.6Q184.8 111.8 185.6 111.3Q186.3 110.8 187.2 110.8L187.2 110.8Q187.8 110.8 188.4 111.0Q188.9 111.2 189.4 111.6Q189.8 112.0 190.1 112.7Q190.3 113.4 190.3 114.4L190.3 114.4L190.3 114.8L185.2 114.8Q185.2 115.5 185.5 116.0L185.5 116.0Q185.8 116.6 186.2 116.9Q186.7 117.1 187.4 117.1L187.4 117.1Q187.8 117.1 188.1 117.0Q188.5 116.9 188.7 116.7Q189.0 116.4 189.1 116.0L189.1 116.0L190.2 116.3Q190.1 116.9 189.7 117.3Q189.3 117.7 188.7 117.9Q188.1 118.2 187.4 118.2ZM185.2 113.9L185.2 113.9L189.2 113.9Q189.1 113.4 189.0 113.0L189.0 113.0Q188.7 112.4 188.3 112.1Q187.9 111.8 187.2 111.8Q186.6 111.8 186.1 112.1Q185.7 112.5 185.4 113.0L185.4 113.0Q185.2 113.4 185.2 113.9ZM192.7 118L191.3 118L194.7 113.2L191.5 108.5L192.9 108.5L194.3 110.5Q194.6 111.0 194.8 111.3Q195.0 111.6 195.2 111.9L195.2 111.9Q195.3 112.1 195.4 112.4L195.4 112.4Q195.6 112.1 195.7 111.9L195.7 111.9Q195.8 111.6 196.0 111.3Q196.2 111.0 196.5 110.5L196.5 110.5L197.9 108.5L199.3 108.5L196.1 113.1L199.5 118L198.1 118L196.4 115.6Q196.2 115.2 196.0 114.9Q195.8 114.6 195.6 114.4L195.6 114.4Q195.5 114.2 195.4 113.9L195.4 113.9Q195.3 114.2 195.2 114.3L195.2 114.3Q195.0 114.6 194.8 114.9Q194.7 115.2 194.4 115.6L194.4 115.6L192.7 118Z "/></g><mask id="satori_om-id-3-6-2"><rect x="206" y="107" width="18" height="13" fill="#fff" mask="url(#satori_om-id)"/></mask><g mask="url(#satori_om-id)" clip-path="url(#satori_cp-id)"><path fill="#6a6a8a" d="M210.4 116.4L206.6 116.4L206.6 115.5L210.1 110.0L211.4 110.0L211.4 115.5L212.5 115.5L212.5 116.4L211.4 116.4L211.4 118L210.4 118L210.4 116.4ZM207.7 115.5L210.4 115.5L210.4 111.3L210.4 111.3L207.7 115.4L207.7 115.5ZM215.9 113.5L215.9 113.5Q215.4 113.5 215.1 113.3Q214.7 113.1 214.5 112.7Q214.3 112.3 214.3 111.9L214.3 111.9L214.3 111.5Q214.3 111.0 214.5 110.7Q214.7 110.3 215.1 110.1Q215.4 109.9 215.9 109.9L215.9 109.9Q216.4 109.9 216.8 110.1Q217.1 110.3 217.3 110.7Q217.5 111.0 217.5 111.5L217.5 111.5L217.5 111.9Q217.5 112.3 217.3 112.7Q217.1 113.1 216.8 113.3Q216.4 113.5 215.9 113.5ZM215.9 112.8L215.9 112.8Q216.3 112.8 216.5 112.6Q216.7 112.3 216.7 111.9L216.7 111.9L216.7 111.5Q216.7 111.1 216.5 110.9Q216.3 110.6 215.9 110.6L215.9 110.6Q215.5 110.6 215.3 110.9Q215.2 111.1 215.2 111.5L215.2 111.5L215.2 111.9Q215.2 112.3 215.3 112.6Q215.5 112.8 215.9 112.8ZM221.1 118.2L221.1 118.2Q220.6 118.2 220.2 117.9Q219.9 117.7 219.7 117.3Q219.5 117.0 219.5 116.5L219.5 116.5L219.5 116.1Q219.5 115.7 219.7 115.3Q219.9 114.9 220.3 114.7Q220.6 114.5 221.1 114.5L221.1 114.5Q221.6 114.5 222.0 114.7Q222.3 114.9 222.5 115.3Q222.7 115.7 222.7 116.1L222.7 116.1L222.7 116.5Q222.7 117.0 222.5 117.3Q222.3 117.7 222.0 117.9Q221.6 118.2 221.1 118.2ZM221.1 117.5L221.1 117.5Q221.5 117.5 221.7 117.2Q221.9 116.9 221.9 116.5L221.9 116.5L221.9 116.1Q221.9 115.8 221.7 115.5Q221.5 115.2 221.1 115.2L221.1 115.2Q220.7 115.2 220.5 115.5Q220.4 115.8 220.4 116.1L220.4 116.1L220.4 116.5Q220.4 116.9 220.5 117.2Q220.7 117.5 221.1 117.5ZM216.2 118L215.3 118L220.8 110.0L221.7 110.0L216.2 118Z "/></g><mask id="satori_om-id-3-7"><rect x="293" y="105" width="120" height="16" fill="#fff" mask="url(#satori_om-id)"/></mask><mask id="satori_ms-id-3-7-0-0" maskUnits="userSpaceOnUse"><rect x="0" y="0" width="800" height="180" fill="#fff"/><path x="293" y="108" width="10" height="10" fill="#000"  stroke-width="0" d="M298,108 h0 a5,5 0 0 1 5,5 v0 a5,5 0 0 1 -5,5 h0 a5,5 0 0 1 -5,-5 v0 a5,5 0 0 1 5,-5" clip-path="url(#satori_cp-id)" mask="url(#satori_om-id)"/></mask><defs><filter id="satori_s-id-3-7-0-0" x="-90%" y="-90%" width="280%" height="280%"><feGaussianBlur stdDeviation="3" result="b"/><feFlood flood-color="#5686a540" in="SourceGraphic" result="f"/><feComposite in="f" in2="b" operator="in"/></filter></defs><g mask="url(#satori_ms-id-3-7-0-0)" filter="url(#satori_s-id-3-7-0-0)" opacity="1"><path x="293" y="108" width="10" height="10" fill="#fff" stroke="#fff" stroke-width="0" d="M298,108 h0 a5,5 0 0 1 5,5 v0 a5,5 0 0 1 -5,5 h0 a5,5 0 0 1 -5,-5 v0 a5,5 0 0 1 5,-5" clip-path="url(#satori_cp-id)" mask="url(#satori_om-id)"/></g><mask id="satori_om-id-3-7-0"><rect x="293" y="108" width="10" height="10" fill="#fff" mask="url(#satori_om-id)"/></mask><path x="293" y="108" width="10" height="10" fill="#5686a5" d="M298,108 h0 a5,5 0 0 1 5,5 v0 a5,5 0 0 1 -5,5 h0 a5,5 0 0 1 -5,-5 v0 a5,5 0 0 1 5,-5" clip-path="url(#satori_cp-id)" mask="url(#satori_om-id)"/><mask id="satori_om-id-3-7-1"><rect x="309" y="105" width="33" height="16" fill="#fff" mask="url(#satori_om-id)"/></mask><g mask="url(#satori_om-id)" clip-path="url(#satori_cp-id)"><path fill="#e0e0f0" d="M314.0 118.1L314.0 118.1Q312.7 118.1 311.8 117.5Q310.8 116.9 310.3 115.9Q309.8 114.8 309.8 113.3L309.8 113.3Q309.8 111.8 310.3 110.7Q310.8 109.6 311.8 109.0Q312.7 108.4 313.9 108.4L313.9 108.4Q314.7 108.4 315.3 108.6Q316.0 108.9 316.5 109.3Q317.0 109.7 317.4 110.3Q317.7 110.8 317.8 111.5L317.8 111.5L316.6 111.5Q316.4 111.0 316.2 110.7Q315.9 110.3 315.6 110.1Q315.3 109.8 314.9 109.7Q314.4 109.5 313.9 109.5L313.9 109.5Q313.1 109.5 312.4 110.0Q311.7 110.4 311.3 111.2Q310.9 112.1 310.9 113.3L310.9 113.3Q310.9 114.5 311.4 115.3Q311.8 116.1 312.4 116.6Q313.1 117.0 314.0 117.0L314.0 117.0Q314.8 117.0 315.4 116.7Q316.0 116.3 316.4 115.7L316.4 115.7Q316.7 115.1 316.7 114.3L316.7 114.3L314.3 114.3L314.3 113.2L317.9 113.2L317.9 114.3Q317.9 115.5 317.4 116.3Q316.9 117.2 316.0 117.7Q315.1 118.1 314.0 118.1ZM325.4 118L319.8 118L319.8 108.5L321.0 108.5L321.0 116.9L325.4 116.9L325.4 118ZM330.2 118.2L330.2 118.2Q329.2 118.2 328.4 117.8Q327.7 117.5 327.3 116.9Q326.8 116.3 326.8 115.5L326.8 115.5L328.0 115.5Q328.1 116.1 328.4 116.4Q328.7 116.7 329.2 116.9Q329.7 117.1 330.2 117.1L330.2 117.1Q330.9 117.1 331.4 116.9Q331.9 116.7 332.2 116.3Q332.5 115.9 332.5 115.4L332.5 115.4Q332.5 114.9 332.2 114.7Q332.0 114.4 331.5 114.2Q331.1 114.0 330.6 113.9L330.6 113.9L329.5 113.5Q328.3 113.2 327.7 112.6Q327.1 112.0 327.1 111.1L327.1 111.1Q327.1 110.3 327.5 109.7Q327.9 109.1 328.7 108.7Q329.4 108.4 330.3 108.4L330.3 108.4Q331.2 108.4 332.0 108.7Q332.7 109.1 333.1 109.6Q333.5 110.2 333.5 110.9L333.5 110.9L332.3 110.9Q332.3 110.2 331.7 109.9Q331.1 109.5 330.3 109.5L330.3 109.5Q329.7 109.5 329.2 109.7Q328.7 109.9 328.5 110.2Q328.2 110.6 328.2 111.0L328.2 111.0Q328.2 111.5 328.5 111.8Q328.8 112.1 329.3 112.3Q329.7 112.5 330.0 112.5L330.0 112.5L331.0 112.8Q331.4 112.9 331.8 113.1Q332.3 113.3 332.7 113.6Q333.1 113.9 333.4 114.3Q333.7 114.8 333.7 115.4L333.7 115.4Q333.7 116.2 333.3 116.8Q332.8 117.4 332.1 117.8Q331.3 118.2 330.2 118.2ZM341.1 118L335.5 118L335.5 108.5L336.7 108.5L336.7 116.9L341.1 116.9L341.1 118Z "/></g><mask id="satori_om-id-3-7-2"><rect x="348" y="107" width="18" height="13" fill="#fff" mask="url(#satori_om-id)"/></mask><g mask="url(#satori_om-id)" clip-path="url(#satori_cp-id)"><path fill="#6a6a8a" d="M352.4 116.4L348.6 116.4L348.6 115.5L352.1 110.0L353.4 110.0L353.4 115.5L354.5 115.5L354.5 116.4L353.4 116.4L353.4 118L352.4 118L352.4 116.4ZM349.7 115.5L352.4 115.5L352.4 111.3L352.4 111.3L349.7 115.4L349.7 115.5ZM357.9 113.5L357.9 113.5Q357.4 113.5 357.1 113.3Q356.7 113.1 356.5 112.7Q356.3 112.3 356.3 111.9L356.3 111.9L356.3 111.5Q356.3 111.0 356.5 110.7Q356.7 110.3 357.1 110.1Q357.4 109.9 357.9 109.9L357.9 109.9Q358.4 109.9 358.8 110.1Q359.1 110.3 359.3 110.7Q359.5 111.0 359.5 111.5L359.5 111.5L359.5 111.9Q359.5 112.3 359.3 112.7Q359.1 113.1 358.8 113.3Q358.4 113.5 357.9 113.5ZM357.9 112.8L357.9 112.8Q358.3 112.8 358.5 112.6Q358.7 112.3 358.7 111.9L358.7 111.9L358.7 111.5Q358.7 111.1 358.5 110.9Q358.3 110.6 357.9 110.6L357.9 110.6Q357.5 110.6 357.3 110.9Q357.2 111.1 357.2 111.5L357.2 111.5L357.2 111.9Q357.2 112.3 357.3 112.6Q357.5 112.8 357.9 112.8ZM363.1 118.2L363.1 118.2Q362.6 118.2 362.2 117.9Q361.9 117.7 361.7 117.3Q361.5 117.0 361.5 116.5L361.5 116.5L361.5 116.1Q361.5 115.7 361.7 115.3Q361.9 114.9 362.3 114.7Q362.6 114.5 363.1 114.5L363.1 114.5Q363.6 114.5 364.0 114.7Q364.3 114.9 364.5 115.3Q364.7 115.7 364.7 116.1L364.7 116.1L364.7 116.5Q364.7 117.0 364.5 117.3Q364.3 117.7 364.0 117.9Q363.6 118.2 363.1 118.2ZM363.1 117.5L363.1 117.5Q363.5 117.5 363.7 117.2Q363.9 116.9 363.9 116.5L363.9 116.5L363.9 116.1Q363.9 115.8 363.7 115.5Q363.5 115.2 363.1 115.2L363.1 115.2Q362.7 115.2 362.5 115.5Q362.4 115.8 362.4 116.1L362.4 116.1L362.4 116.5Q362.4 116.9 362.5 117.2Q362.7 117.5 363.1 117.5ZM358.2 118L357.3 118L362.8 110.0L363.7 110.0L358.2 118Z "/></g><mask id="satori_om-id-3-8"><rect x="427" y="105" width="120" height="16" fill="#fff" mask="url(#satori_om-id)"/></mask><mask id="satori_ms-id-3-8-0-0" maskUnits="userSpaceOnUse"><rect x="0" y="0" width="800" height="180" fill="#fff"/><path x="427" y="108" width="10" height="10" fill="#000"  stroke-width="0" d="M432,108 h0 a5,5 0 0 1 5,5 v0 a5,5 0 0 1 -5,5 h0 a5,5 0 0 1 -5,-5 v0 a5,5 0 0 1 5,-5" clip-path="url(#satori_cp-id)" mask="url(#satori_om-id)"/></mask><defs><filter id="satori_s-id-3-8-0-0" x="-90%" y="-90%" width="280%" height="280%"><feGaussianBlur stdDeviation="3" result="b"/><feFlood flood-color="#A97BFF40" in="SourceGraphic" result="f"/><feComposite in="f" in2="b" operator="in"/></filter></defs><g mask="url(#satori_ms-id-3-8-0-0)" filter="url(#satori_s-id-3-8-0-0)" opacity="1"><path x="427" y="108" width="10" height="10" fill="#fff" stroke="#fff" stroke-width="0" d="M432,108 h0 a5,5 0 0 1 5,5 v0 a5,5 0 0 1 -5,5 h0 a5,5 0 0 1 -5,-5 v0 a5,5 0 0 1 5,-5" clip-path="url(#satori_cp-id)" mask="url(#satori_om-id)"/></g><mask id="satori_om-id-3-8-0"><rect x="427" y="108" width="10" height="10" fill="#fff" mask="url(#satori_om-id)"/></mask><path x="427" y="108" width="10" height="10" fill="#A97BFF" d="M432,108 h0 a5,5 0 0 1 5,5 v0 a5,5 0 0 1 -5,5 h0 a5,5 0 0 1 -5,-5 v0 a5,5 0 0 1 5,-5" clip-path="url(#satori_cp-id)" mask="url(#satori_om-id)"/><mask id="satori_om-id-3-8-1"><rect x="443" y="105" width="35" height="16" fill="#fff" mask="url(#satori_om-id)"/></mask><g mask="url(#satori_om-id)" clip-path="url(#satori_cp-id)"><path fill="#e0e0f0" d="M445.3 118L444.1 118L444.1 108.5L445.3 108.5L445.3 111.8L445.3 113.5Q445.5 113.3 445.6 113.2L445.6 113.2Q445.9 112.8 446.3 112.4Q446.6 112.0 447.0 111.6L447.0 111.6L449.8 108.5L451.4 108.5L447.5 112.6L451.4 118L449.9 118L446.7 113.5L445.3 114.9L445.3 118ZM455.6 118.2L455.6 118.2Q454.7 118.2 453.9 117.7Q453.2 117.2 452.8 116.4Q452.4 115.6 452.4 114.5L452.4 114.5Q452.4 113.4 452.8 112.6Q453.2 111.7 453.9 111.3Q454.7 110.8 455.6 110.8L455.6 110.8Q456.6 110.8 457.3 111.3Q458.1 111.7 458.5 112.6Q458.9 113.4 458.9 114.5L458.9 114.5Q458.9 115.6 458.5 116.4Q458.1 117.2 457.3 117.7Q456.6 118.2 455.6 118.2ZM455.6 117.1L455.6 117.1Q456.3 117.1 456.8 116.8Q457.3 116.4 457.5 115.8Q457.7 115.2 457.7 114.5L457.7 114.5Q457.7 113.8 457.5 113.2Q457.3 112.6 456.8 112.2Q456.3 111.8 455.6 111.8L455.6 111.8Q454.9 111.8 454.5 112.2Q454.0 112.6 453.8 113.2Q453.6 113.8 453.6 114.5L453.6 114.5Q453.6 115.2 453.8 115.8Q454.0 116.4 454.5 116.8Q454.9 117.1 455.6 117.1ZM461.9 110.9L463.3 110.9L463.3 111.9L461.9 111.9L461.9 116.2Q461.9 116.6 462.1 116.9Q462.3 117.1 462.7 117.1L462.7 117.1Q462.8 117.1 463.0 117.0Q463.1 117.0 463.3 117.0L463.3 117.0L463.5 118.0Q463.3 118.0 463.1 118.1Q462.9 118.1 462.7 118.1L462.7 118.1Q461.8 118.1 461.2 117.6Q460.7 117.1 460.7 116.2L460.7 116.2L460.7 111.9L459.7 111.9L459.7 110.9L460.7 110.9L460.7 109.2L461.9 109.2L461.9 110.9ZM464.8 108.5L465.9 108.5L465.9 118L464.8 118L464.8 108.5ZM469.1 118L467.9 118L467.9 110.9L469.1 110.9L469.1 118ZM468.5 109.7L468.5 109.7Q468.2 109.7 468.0 109.5Q467.7 109.3 467.7 109.0L467.7 109.0Q467.7 108.7 468.0 108.4Q468.2 108.2 468.5 108.2L468.5 108.2Q468.8 108.2 469.1 108.4Q469.3 108.7 469.3 109.0L469.3 109.0Q469.3 109.3 469.1 109.5Q468.8 109.7 468.5 109.7ZM472.2 113.7L472.2 113.7L472.2 118L471.1 118L471.1 110.9L472.2 110.9L472.2 112.2Q472.5 111.6 473.0 111.2L473.0 111.2Q473.6 110.8 474.4 110.8L474.4 110.8Q475.1 110.8 475.6 111.1Q476.2 111.4 476.5 112.0Q476.8 112.6 476.8 113.5L476.8 113.5L476.8 118L475.6 118L475.6 113.6Q475.6 112.8 475.2 112.3Q474.8 111.8 474.0 111.8L474.0 111.8Q473.5 111.8 473.1 112.1Q472.7 112.3 472.5 112.7Q472.2 113.1 472.2 113.7Z "/></g><mask id="satori_om-id-3-8-2"><rect x="484" y="107" width="18" height="13" fill="#fff" mask="url(#satori_om-id)"/></mask><g mask="url(#satori_om-id)" clip-path="url(#satori_cp-id)"><path fill="#6a6a8a" d="M488.4 116.4L484.6 116.4L484.6 115.5L488.1 110.0L489.4 110.0L489.4 115.5L490.5 115.5L490.5 116.4L489.4 116.4L489.4 118L488.4 118L488.4 116.4ZM485.7 115.5L488.4 115.5L488.4 111.3L488.4 111.3L485.7 115.4L485.7 115.5ZM493.9 113.5L493.9 113.5Q493.4 113.5 493.1 113.3Q492.7 113.1 492.5 112.7Q492.3 112.3 492.3 111.9L492.3 111.9L492.3 111.5Q492.3 111.0 492.5 110.7Q492.7 110.3 493.1 110.1Q493.4 109.9 493.9 109.9L493.9 109.9Q494.4 109.9 494.8 110.1Q495.1 110.3 495.3 110.7Q495.5 111.0 495.5 111.5L495.5 111.5L495.5 111.9Q495.5 112.3 495.3 112.7Q495.1 113.1 494.8 113.3Q494.4 113.5 493.9 113.5ZM493.9 112.8L493.9 112.8Q494.3 112.8 494.5 112.6Q494.7 112.3 494.7 111.9L494.7 111.9L494.7 111.5Q494.7 111.1 494.5 110.9Q494.3 110.6 493.9 110.6L493.9 110.6Q493.5 110.6 493.3 110.9Q493.2 111.1 493.2 111.5L493.2 111.5L493.2 111.9Q493.2 112.3 493.3 112.6Q493.5 112.8 493.9 112.8ZM499.1 118.2L499.1 118.2Q498.6 118.2 498.2 117.9Q497.9 117.7 497.7 117.3Q497.5 117.0 497.5 116.5L497.5 116.5L497.5 116.1Q497.5 115.7 497.7 115.3Q497.9 114.9 498.3 114.7Q498.6 114.5 499.1 114.5L499.1 114.5Q499.6 114.5 500.0 114.7Q500.3 114.9 500.5 115.3Q500.7 115.7 500.7 116.1L500.7 116.1L500.7 116.5Q500.7 117.0 500.5 117.3Q500.3 117.7 500.0 117.9Q499.6 118.2 499.1 118.2ZM499.1 117.5L499.1 117.5Q499.5 117.5 499.7 117.2Q499.9 116.9 499.9 116.5L499.9 116.5L499.9 116.1Q499.9 115.8 499.7 115.5Q499.5 115.2 499.1 115.2L499.1 115.2Q498.7 115.2 498.5 115.5Q498.4 115.8 498.4 116.1L498.4 116.1L498.4 116.5Q498.4 116.9 498.5 117.2Q498.7 117.5 499.1 117.5ZM494.2 118L493.3 118L498.8 110.0L499.7 110.0L494.2 118Z "/></g><mask id="satori_om-id-3-9"><rect x="561" y="105" width="120" height="16" fill="#fff" mask="url(#satori_om-id)"/></mask><mask id="satori_ms-id-3-9-0-0" maskUnits="userSpaceOnUse"><rect x="0" y="0" width="800" height="180" fill="#fff"/><path x="561" y="108" width="10" height="10" fill="#000"  stroke-width="0" d="M566,108 h0 a5,5 0 0 1 5,5 v0 a5,5 0 0 1 -5,5 h0 a5,5 0 0 1 -5,-5 v0 a5,5 0 0 1 5,-5" clip-path="url(#satori_cp-id)" mask="url(#satori_om-id)"/></mask><defs><filter id="satori_s-id-3-9-0-0" x="-90%" y="-90%" width="280%" height="280%"><feGaussianBlur stdDeviation="3" result="b"/><feFlood flood-color="#6E4C1340" in="SourceGraphic" result="f"/><feComposite in="f" in2="b" operator="in"/></filter></defs><g mask="url(#satori_ms-id-3-9-0-0)" filter="url(#satori_s-id-3-9-0-0)" opacity="1"><path x="561" y="108" width="10" height="10" fill="#fff" stroke="#fff" stroke-width="0" d="M566,108 h0 a5,5 0 0 1 5,5 v0 a5,5 0 0 1 -5,5 h0 a5,5 0 0 1 -5,-5 v0 a5,5 0 0 1 5,-5" clip-path="url(#satori_cp-id)" mask="url(#satori_om-id)"/></g><mask id="satori_om-id-3-9-0"><rect x="561" y="108" width="10" height="10" fill="#fff" mask="url(#satori_om-id)"/></mask><path x="561" y="108" width="10" height="10" fill="#6E4C13" d="M566,108 h0 a5,5 0 0 1 5,5 v0 a5,5 0 0 1 -5,5 h0 a5,5 0 0 1 -5,-5 v0 a5,5 0 0 1 5,-5" clip-path="url(#satori_cp-id)" mask="url(#satori_om-id)"/><mask id="satori_om-id-3-9-1"><rect x="577" y="105" width="61" height="16" fill="#fff" mask="url(#satori_om-id)"/></mask><g mask="url(#satori_om-id)" clip-path="url(#satori_cp-id)"><path fill="#e0e0f0" d="M578.6 118L577.3 118L580.8 108.5L582.2 108.5L585.6 118L584.4 118L583.4 115.4L579.5 115.4L578.6 118ZM579.9 114.3L583.0 114.3L582.4 112.4Q582.2 111.9 581.9 111.1L581.9 111.1Q581.7 110.4 581.5 109.5L581.5 109.5Q581.2 110.5 581.0 111.1L581.0 111.1Q580.7 111.9 580.6 112.4L580.6 112.4L579.9 114.3ZM589.4 118.2L589.4 118.2Q588.7 118.2 588.1 117.9Q587.5 117.7 587.1 117.3Q586.8 116.9 586.7 116.3L586.7 116.3L587.7 116.0Q587.9 116.6 588.3 116.9Q588.7 117.1 589.4 117.1L589.4 117.1Q590.1 117.1 590.6 116.8Q591.0 116.5 591.0 116.1L591.0 116.1Q591.0 115.7 590.7 115.5Q590.5 115.2 590.0 115.1L590.0 115.1L588.8 114.8Q587.8 114.6 587.3 114.1Q586.9 113.6 586.9 112.9L586.9 112.9Q586.9 112.3 587.2 111.8Q587.6 111.3 588.1 111.1Q588.7 110.8 589.5 110.8L589.5 110.8Q590.2 110.8 590.7 111.0Q591.3 111.3 591.6 111.6Q591.9 112.0 592.1 112.5L592.1 112.5L591.0 112.8Q590.9 112.4 590.5 112.1Q590.2 111.8 589.5 111.8L589.5 111.8Q588.9 111.8 588.4 112.1Q588.0 112.4 588.0 112.8L588.0 112.8Q588.0 113.2 588.3 113.4Q588.6 113.7 589.2 113.8L589.2 113.8L590.3 114.1Q591.3 114.3 591.7 114.8Q592.2 115.3 592.2 116.0L592.2 116.0Q592.2 116.6 591.8 117.1Q591.5 117.6 590.8 117.9Q590.2 118.2 589.4 118.2ZM596.2 118.2L596.2 118.2Q595.5 118.2 594.9 117.9Q594.4 117.7 594.0 117.3Q593.6 116.9 593.5 116.3L593.5 116.3L594.6 116.0Q594.8 116.6 595.2 116.9Q595.6 117.1 596.2 117.1L596.2 117.1Q597.0 117.1 597.4 116.8Q597.9 116.5 597.9 116.1L597.9 116.1Q597.9 115.7 597.6 115.5Q597.3 115.2 596.8 115.1L596.8 115.1L595.6 114.8Q594.7 114.6 594.2 114.1Q593.7 113.6 593.7 112.9L593.7 112.9Q593.7 112.3 594.1 111.8Q594.4 111.3 595.0 111.1Q595.6 110.8 596.4 110.8L596.4 110.8Q597.1 110.8 597.6 111.0Q598.1 111.3 598.4 111.6Q598.8 112.0 598.9 112.5L598.9 112.5L597.9 112.8Q597.7 112.4 597.4 112.1Q597.1 111.8 596.4 111.8L596.4 111.8Q595.7 111.8 595.3 112.1Q594.9 112.4 594.9 112.8L594.9 112.8Q594.9 113.2 595.2 113.4Q595.5 113.7 596.1 113.8L596.1 113.8L597.2 114.1Q598.1 114.3 598.6 114.8Q599.0 115.3 599.0 116.0L599.0 116.0Q599.0 116.6 598.7 117.1Q598.3 117.6 597.7 117.9Q597.1 118.2 596.2 118.2ZM603.7 118.2L603.7 118.2Q602.7 118.2 601.9 117.7Q601.2 117.2 600.8 116.4Q600.4 115.6 600.4 114.5Q600.4 113.4 600.7 112.6Q601.1 111.8 601.9 111.3Q602.6 110.8 603.5 110.8L603.5 110.8Q604.1 110.8 604.7 111.0Q605.2 111.2 605.7 111.6Q606.1 112.0 606.4 112.7Q606.6 113.4 606.6 114.4L606.6 114.4L606.6 114.8L601.5 114.8Q601.5 115.5 601.8 116.0L601.8 116.0Q602.1 116.6 602.5 116.9Q603.0 117.1 603.7 117.1L603.7 117.1Q604.1 117.1 604.4 117.0Q604.8 116.9 605.0 116.7Q605.3 116.4 605.4 116.0L605.4 116.0L606.5 116.3Q606.4 116.9 606.0 117.3Q605.6 117.7 605.0 117.9Q604.4 118.2 603.7 118.2ZM601.5 113.9L601.5 113.9L605.5 113.9Q605.4 113.4 605.3 113.0L605.3 113.0Q605.1 112.4 604.6 112.1Q604.2 111.8 603.5 111.8Q602.9 111.8 602.4 112.1Q602.0 112.5 601.7 113.0L601.7 113.0Q601.5 113.4 601.5 113.9ZM609.4 118L608.3 118L608.3 110.9L609.4 110.9L609.4 112.2Q609.5 111.8 609.8 111.5L609.8 111.5Q610.1 111.2 610.5 111.0Q610.9 110.8 611.4 110.8L611.4 110.8Q612.2 110.8 612.6 111.3L612.6 111.3Q613.0 111.6 613.2 112.2L613.2 112.2Q613.3 111.9 613.6 111.6L613.6 111.6Q613.9 111.2 614.4 111.0Q614.9 110.8 615.4 110.8L615.4 110.8Q616.0 110.8 616.5 111.0Q617.1 111.3 617.4 111.8Q617.7 112.4 617.7 113.2L617.7 113.2L617.7 118L616.5 118L616.5 113.2Q616.5 112.5 616.1 112.1Q615.7 111.8 615.1 111.8L615.1 111.8Q614.6 111.8 614.3 112.0Q613.9 112.2 613.7 112.6Q613.5 112.9 613.5 113.4L613.5 113.4L613.5 118L612.4 118L612.4 113.1Q612.4 112.5 612.0 112.2Q611.6 111.8 611.0 111.8L611.0 111.8Q610.6 111.8 610.2 112.0Q609.9 112.2 609.6 112.6Q609.4 113.0 609.4 113.5L609.4 113.5L609.4 118ZM623.0 118.2L623.0 118.2Q622.3 118.2 621.9 117.9Q621.5 117.7 621.2 117.4Q621.0 117.1 620.9 116.9L620.9 116.9L620.8 116.9L620.8 118L619.7 118L619.7 108.5L620.8 108.5L620.8 112.0L620.9 112.0Q621.0 111.8 621.2 111.6Q621.4 111.3 621.9 111.0Q622.3 110.8 623.0 110.8L623.0 110.8Q623.8 110.8 624.5 111.3Q625.2 111.7 625.6 112.5Q626.0 113.3 626.0 114.5L626.0 114.5Q626.0 115.6 625.6 116.4Q625.2 117.3 624.5 117.7Q623.8 118.2 623.0 118.2ZM622.8 117.1L622.8 117.1Q623.5 117.1 623.9 116.8Q624.3 116.4 624.6 115.8Q624.8 115.2 624.8 114.5L624.8 114.5Q624.8 113.7 624.6 113.1Q624.4 112.5 623.9 112.2Q623.5 111.8 622.8 111.8L622.8 111.8Q622.1 111.8 621.7 112.2Q621.2 112.5 621.0 113.1Q620.8 113.7 620.8 114.5L620.8 114.5Q620.8 115.2 621.0 115.8Q621.2 116.5 621.7 116.8Q622.1 117.1 622.8 117.1ZM627.6 108.5L628.8 108.5L628.8 118L627.6 118L627.6 108.5ZM630.7 120.6L630.7 120.6L630.9 119.6L631.1 119.6Q631.4 119.7 631.7 119.7Q632.0 119.6 632.2 119.4Q632.4 119.1 632.6 118.6L632.6 118.6L632.8 118.0L630.1 110.9L631.4 110.9L632.9 115.1Q633.1 115.8 633.3 116.4L633.3 116.4Q633.3 116.7 633.4 117.0L633.4 117.0Q633.5 116.7 633.6 116.4L633.6 116.4Q633.7 115.8 634.0 115.1L634.0 115.1L635.5 110.9L636.7 110.9L633.6 119.1Q633.4 119.6 633.1 120.0Q632.8 120.4 632.4 120.5Q632.0 120.7 631.5 120.7L631.5 120.7Q631.2 120.7 631.0 120.7Q630.7 120.6 630.7 120.6Z "/></g><mask id="satori_om-id-3-9-2"><rect x="644" y="107" width="18" height="13" fill="#fff" mask="url(#satori_om-id)"/></mask><g mask="url(#satori_om-id)" clip-path="url(#satori_cp-id)"><path fill="#6a6a8a" d="M648.4 116.4L644.6 116.4L644.6 115.5L648.1 110.0L649.4 110.0L649.4 115.5L650.5 115.5L650.5 116.4L649.4 116.4L649.4 118L648.4 118L648.4 116.4ZM645.7 115.5L648.4 115.5L648.4 111.3L648.4 111.3L645.7 115.4L645.7 115.5ZM653.9 113.5L653.9 113.5Q653.4 113.5 653.1 113.3Q652.7 113.1 652.5 112.7Q652.3 112.3 652.3 111.9L652.3 111.9L652.3 111.5Q652.3 111.0 652.5 110.7Q652.7 110.3 653.1 110.1Q653.4 109.9 653.9 109.9L653.9 109.9Q654.4 109.9 654.8 110.1Q655.1 110.3 655.3 110.7Q655.5 111.0 655.5 111.5L655.5 111.5L655.5 111.9Q655.5 112.3 655.3 112.7Q655.1 113.1 654.8 113.3Q654.4 113.5 653.9 113.5ZM653.9 112.8L653.9 112.8Q654.3 112.8 654.5 112.6Q654.7 112.3 654.7 111.9L654.7 111.9L654.7 111.5Q654.7 111.1 654.5 110.9Q654.3 110.6 653.9 110.6L653.9 110.6Q653.5 110.6 653.3 110.9Q653.2 111.1 653.2 111.5L653.2 111.5L653.2 111.9Q653.2 112.3 653.3 112.6Q653.5 112.8 653.9 112.8ZM659.1 118.2L659.1 118.2Q658.6 118.2 658.2 117.9Q657.9 117.7 657.7 117.3Q657.5 117.0 657.5 116.5L657.5 116.5L657.5 116.1Q657.5 115.7 657.7 115.3Q657.9 114.9 658.3 114.7Q658.6 114.5 659.1 114.5L659.1 114.5Q659.6 114.5 660.0 114.7Q660.3 114.9 660.5 115.3Q660.7 115.7 660.7 116.1L660.7 116.1L660.7 116.5Q660.7 117.0 660.5 117.3Q660.3 117.7 660.0 117.9Q659.6 118.2 659.1 118.2ZM659.1 117.5L659.1 117.5Q659.5 117.5 659.7 117.2Q659.9 116.9 659.9 116.5L659.9 116.5L659.9 116.1Q659.9 115.8 659.7 115.5Q659.5 115.2 659.1 115.2L659.1 115.2Q658.7 115.2 658.5 115.5Q658.4 115.8 658.4 116.1L658.4 116.1L658.4 116.5Q658.4 116.9 658.5 117.2Q658.7 117.5 659.1 117.5ZM654.2 118L653.3 118L658.8 110.0L659.7 110.0L654.2 118Z "/></g></svg>