<!-- Generated by readme-aura https://github.com/collectioneur/readme-aura -->
<svg width="800" height="100" viewBox="0 0 800 100" xmlns="http://www.w3.org/2000/svg"><defs><clipPath id="satori_bc-id"><path x="0" y="0" width="800" height="100" d="M16,0 h768 a16,16 0 0 1 16,16 v68 a16,16 0 0 1 -16,16 h-768 a16,16 0 0 1 -16,-16 v-68 a16,16 0 0 1 16,-16"/></clipPath></defs><clipPath id="satori_cp-id"><path x="0" y="0" width="800" height="100" d="M16,0 h768 a16,16 0 0 1 16,16 v68 a16,16 0 0 1 -16,16 h-768 a16,16 0 0 1 -16,-16 v-68 a16,16 0 0 1 16,-16"/></clipPath><mask id="satori_om-id"><rect x="1" y="1" width="798" height="98" fill="#fff"/><path width="800" height="100" fill="none" stroke="#000" stroke-width="2" d="M4.686,4.686 A16,16 0 0 1 16,0 h768 a16,16 0 0 1 16,16 v68 a16,16 0 0 1 -16,16 h-768 a16,16 0 0 1 -16,-16 v-68 A16,16 0 0 1 4.686,4.686"/></mask><path x="0" y="0" width="800" height="100" fill="#06060a" d="M16,0 h768 a16,16 0 0 1 16,16 v68 a16,16 0 0 1 -16,16 h-768 a16,16 0 0 1 -16,-16 v-68 a16,16 0 0 1 16,-16"/><path width="800" height="100" clip-path="url(#satori_bc-id)" fill="none" stroke="rgba(110,80,220,0.15)" stroke-width="2" d="M4.686,4.686 A16,16 0 0 1 16,0 h768 a16,16 0 0 1 16,16 v68 a16,16 0 0 1 -16,16 h-768 a16,16 0 0 1 -16,-16 v-68 A16,16 0 0 1 4.686,4.686"/><clipPath id="satori_cp-id-0" clip-path="url(#satori_cp-id)"><rect x="1" y="1" width="800" height="100"/></clipPath><mask id="satori_om-id-0"><rect x="1" y="1" width="800" height="100" fill="#fff" mask="url(#satori_om-id)"/></mask><svg x="1" y="1" width="800" height="100" preserveAspectRatio="none" clip-path="url(#satori_cp-id-0)" mask="url(#satori_om-id-0)"><defs><radialGradient id="stg1" cx="50%" cy="50%" r="50%"><stop offset="0%" stop-color="rgba(120,40,220,0.5)"></stop><stop offset="100%" stop-color="rgba(120,40,220,0)"></stop></radialGradient><linearGradient id="st-scg" x1="0%" y1="0%" x2="100%" y2="0%"><stop offset="0%" stop-color="rgba(120,200,255,0)"></stop><stop offset="45%" stop-color="rgba(120,200,255,0.12)"></stop><stop offset="50%" stop-color="rgba(180,120,255,0.3)"></stop><stop offset="55%" stop-color="rgba(120,200,255,0.12)"></stop><stop offset="100%" stop-color="rgba(120,200,255,0)"></stop></linearGradient></defs><ellipse id="stat-g1" cx="400" cy="50" rx="250" ry="60" fill="url(#stg1)"></ellipse><rect id="stat-scan1" x="0" y="50" width="160" height="1" fill="url(#st-scg)"></rect><style>

      @keyframes stat-drift-r { 0%, 100% { transform: translate(0, 0); opacity: 0.7; } 50% { transform: translate(25px, -12px); opacity: 1; } }
      @keyframes stat-scan { 0% { transform: translate(-900px, 0); } 100% { transform: translate(900px, 0); } }
      #stat-g1 { animation: stat-drift-r 7s ease-in-out infinite; }
      #stat-scan1 { animation: stat-scan 4s linear infinite; }
    
</style>
</svg><mask id="satori_om-id-0-0"><rect x="1" y="1" width="0" height="100" fill="#fff" mask="url(#satori_om-id)"/></mask><mask id="satori_om-id-0-0-0"><rect x="1" y="1" width="0" height="100" fill="#fff" mask="url(#satori_om-id)"/></mask><mask id="satori_om-id-0-0-0-0"><rect x="1" y="1" width="0" height="100" fill="#fff" mask="url(#satori_om-id)"/></mask><mask id="satori_om-id-0-0-0-1"><rect x="1" y="1" width="0" height="100" fill="#fff" mask="url(#satori_om-id)"/></mask><mask id="satori_om-id-0-0-1"><rect x="1" y="1" width="0" height="100" fill="#fff" mask="url(#satori_om-id)"/></mask><mask id="satori_om-id-0-0-1-0"><rect x="1" y="1" width="0" height="100" fill="#fff" mask="url(#satori_om-id)"/></mask><mask id="satori_om-id-0-0-1-1"><rect x="1" y="1" width="0" height="100" fill="#fff" mask="url(#satori_om-id)"/></mask><mask id="satori_om-id-0-0-1-2"><rect x="1" y="1" width="0" height="100" fill="#fff" mask="url(#satori_om-id)"/></mask><mask id="satori_om-id-0-0-1-3"><rect x="1" y="1" width="0" height="100" fill="#fff" mask="url(#satori_om-id)"/></mask><mask id="satori_om-id-0-0-1-4"><rect x="1" y="1" width="0" height="100" fill="#fff" mask="url(#satori_om-id)"/></mask><mask id="satori_om-id-0-1"><rect x="1" y="1" width="0" height="100" fill="#fff" mask="url(#satori_om-id)"/></mask><mask id="satori_om-id-0-2"><rect x="1" y="1" width="0" height="100" fill="#fff" mask="url(#satori_om-id)"/></mask><mask id="satori_om-id-1"><rect x="210" y="28" width="381" height="45" fill="#fff" mask="url(#satori_om-id)"/></mask><mask id="satori_om-id-1-0"><rect x="210" y="28" width="44" height="45" fill="#fff" mask="url(#satori_om-id)"/></mask><mask id="satori_om-id-1-0-0"><rect x="217" y="28" width="31" height="29" fill="#fff" mask="url(#satori_om-id)"/></mask><g mask="url(#satori_om-id)" clip-path="url(#satori_cp-id)"><path fill="#ffffff" d="M230.8 51L218.5 51L218.5 48.4L224.6 42.6Q225.4 41.8 226.0 41.2Q226.5 40.6 226.8 40.0Q227.1 39.4 227.1 38.7L227.1 38.7Q227.1 37.9 226.8 37.3Q226.4 36.8 225.8 36.5Q225.2 36.2 224.4 36.2L224.4 36.2Q223.6 36.2 223.0 36.5Q222.4 36.8 222.0 37.4Q221.7 38.0 221.7 38.9L221.7 38.9L218.3 38.9Q218.3 37.2 219.1 35.9Q219.8 34.7 221.2 34.0Q222.6 33.3 224.4 33.3L224.4 33.3Q226.3 33.3 227.7 34.0Q229.0 34.6 229.8 35.8Q230.6 36.9 230.6 38.5L230.6 38.5Q230.6 39.4 230.2 40.4Q229.8 41.3 228.8 42.5Q227.9 43.7 226.1 45.3L226.1 45.3L223.4 47.9L223.4 48.1L230.8 48.1L230.8 51ZM239.9 51.2L239.9 51.2Q238.0 51.2 236.5 50.6Q234.9 49.9 234.1 48.8Q233.2 47.7 233.2 46.3L233.2 46.3Q233.2 45.2 233.7 44.3Q234.2 43.4 235.1 42.8Q235.9 42.2 237.0 42.0L237.0 42.0L237.0 41.9Q235.6 41.6 234.7 40.5Q233.9 39.4 233.9 38.0L233.9 38.0Q233.9 36.6 234.6 35.6Q235.4 34.5 236.8 33.9Q238.2 33.3 239.9 33.3L239.9 33.3Q241.7 33.3 243.0 33.9Q244.4 34.5 245.2 35.6Q246.0 36.6 246.0 38.0L246.0 38.0Q246.0 39.4 245.1 40.5Q244.2 41.6 242.9 41.9L242.9 41.9L242.9 42.0Q243.9 42.2 244.8 42.8Q245.6 43.4 246.1 44.3Q246.6 45.2 246.6 46.3L246.6 46.3Q246.6 47.7 245.8 48.8Q244.9 49.9 243.4 50.6Q241.9 51.2 239.9 51.2ZM239.9 48.6L239.9 48.6Q240.8 48.6 241.5 48.3Q242.2 47.9 242.5 47.4Q242.9 46.8 242.9 46.0L242.9 46.0Q242.9 45.3 242.5 44.7Q242.1 44.1 241.5 43.7Q240.8 43.4 239.9 43.4L239.9 43.4Q239.1 43.4 238.4 43.7Q237.7 44.1 237.3 44.7Q236.9 45.2 236.9 46.0L236.9 46.0Q236.9 46.8 237.3 47.4Q237.7 47.9 238.4 48.3Q239.0 48.6 239.9 48.6ZM239.9 40.8L239.9 40.8Q240.7 40.8 241.3 40.5Q241.8 40.1 242.2 39.6Q242.5 39.1 242.5 38.4L242.5 38.4Q242.5 37.7 242.2 37.1Q241.8 36.6 241.3 36.3Q240.7 36.0 239.9 36.0L239.9 36.0Q239.2 36.0 238.6 36.3Q238 36.6 237.7 37.1Q237.3 37.7 237.3 38.4L237.3 38.4Q237.3 39.1 237.7 39.6Q238 40.1 238.6 40.5Q239.2 40.8 239.9 40.8Z "/></g><mask id="satori_om-id-1-0-1"><rect x="210" y="61" width="44" height="12" fill="#fff" mask="url(#satori_om-id)"/></mask><g mask="url(#satori_om-id)" clip-path="url(#satori_cp-id)"><path fill="#b8860b" d="M213.3 71.1L213.3 71.1Q212.5 71.1 211.8 70.8Q211.2 70.6 210.8 70.0Q210.4 69.5 210.4 68.7L210.4 68.7L211.9 68.7Q211.9 69.1 212.1 69.4Q212.3 69.6 212.6 69.7Q212.9 69.8 213.3 69.8L213.3 69.8Q213.7 69.8 214.0 69.7Q214.3 69.6 214.5 69.4Q214.6 69.2 214.6 68.9L214.6 68.9Q214.6 68.7 214.5 68.5Q214.3 68.3 214.1 68.2Q213.8 68.1 213.4 68.0L213.4 68.0L212.6 67.8Q211.7 67.6 211.1 67.1Q210.6 66.6 210.6 65.8L210.6 65.8Q210.6 65.2 211.0 64.7Q211.3 64.2 211.9 63.9Q212.6 63.6 213.3 63.6L213.3 63.6Q214.2 63.6 214.8 63.9Q215.4 64.2 215.7 64.7Q216.0 65.2 216.0 65.8L216.0 65.8L214.6 65.8Q214.6 65.4 214.2 65.1Q213.9 64.9 213.3 64.9L213.3 64.9Q213.0 64.9 212.7 65.0Q212.4 65.1 212.3 65.3Q212.1 65.5 212.1 65.7L212.1 65.7Q212.1 66.0 212.3 66.2Q212.5 66.3 212.7 66.5Q213.0 66.6 213.3 66.6L213.3 66.6L214.0 66.8Q214.4 66.9 214.8 67.1Q215.2 67.3 215.5 67.5Q215.8 67.8 216.0 68.1Q216.1 68.5 216.1 68.9L216.1 68.9Q216.1 69.6 215.8 70.1Q215.5 70.6 214.8 70.8Q214.2 71.1 213.3 71.1ZM221.1 65.0L218.9 65.0L218.9 63.7L224.9 63.7L224.9 65.0L222.6 65.0L222.6 71L221.1 71L221.1 65.0ZM229.1 71L227.5 71L229.9 63.7L231.9 63.7L234.4 71L232.8 71L232.2 69.3L229.6 69.3L229.1 71ZM230.0 68.1L231.8 68.1L231.6 67.5Q231.4 66.8 231.2 66L231.2 66Q231.1 65.5 230.9 64.9L230.9 64.9Q230.8 65.5 230.6 66.0L230.6 66.0Q230.4 66.8 230.2 67.5L230.2 67.5L230.0 68.1ZM238.8 71L237.3 71L237.3 63.7L240.2 63.7Q241.0 63.7 241.6 64.0Q242.2 64.3 242.5 64.8Q242.8 65.4 242.8 66.1Q242.8 66.8 242.5 67.3Q242.2 67.9 241.6 68.1L241.6 68.1Q241.5 68.1 241.5 68.2L241.5 68.2L243.0 71L241.4 71L240.0 68.4L238.8 68.4L238.8 71ZM238.8 65.0L238.8 67.2L239.9 67.2Q240.4 67.2 240.7 67.1Q241.0 66.9 241.1 66.7Q241.2 66.5 241.2 66.1L241.2 66.1Q241.2 65.7 241.1 65.5Q241.0 65.2 240.7 65.1Q240.4 65.0 239.9 65.0L239.9 65.0L238.8 65.0ZM248.6 71.1L248.6 71.1Q247.7 71.1 247.1 70.8Q246.4 70.6 246.1 70.0Q245.7 69.5 245.7 68.7L245.7 68.7L247.1 68.7Q247.2 69.1 247.3 69.4Q247.5 69.6 247.8 69.7Q248.2 69.8 248.6 69.8L248.6 69.8Q249.0 69.8 249.3 69.7Q249.6 69.6 249.7 69.4Q249.9 69.2 249.9 68.9L249.9 68.9Q249.9 68.7 249.7 68.5Q249.6 68.3 249.3 68.2Q249.0 68.1 248.6 68.0L248.6 68.0L247.8 67.8Q246.9 67.6 246.4 67.1Q245.9 66.6 245.9 65.8L245.9 65.8Q245.9 65.2 246.2 64.7Q246.6 64.2 247.2 63.9Q247.8 63.6 248.6 63.6L248.6 63.6Q249.4 63.6 250.0 63.9Q250.6 64.2 250.9 64.7Q251.3 65.2 251.3 65.8L251.3 65.8L249.9 65.8Q249.8 65.4 249.5 65.1Q249.1 64.9 248.6 64.9L248.6 64.9Q248.2 64.9 247.9 65.0Q247.7 65.1 247.5 65.3Q247.4 65.5 247.4 65.7L247.4 65.7Q247.4 66.0 247.6 66.2Q247.7 66.3 248.0 66.5Q248.3 66.6 248.6 66.6L248.6 66.6L249.2 66.8Q249.7 66.9 250.1 67.1Q250.5 67.3 250.8 67.5Q251.1 67.8 251.2 68.1Q251.4 68.5 251.4 68.9L251.4 68.9Q251.4 69.6 251.1 70.1Q250.7 70.6 250.1 70.8Q249.5 71.1 248.6 71.1Z "/></g><mask id="satori_om-id-1-1"><rect x="284" y="31" width="1" height="40" fill="#fff" mask="url(#satori_om-id)"/></mask><rect x="284" y="31" width="1" height="40" fill="rgba(120,80,220,0.2)" clip-path="url(#satori_cp-id)" mask="url(#satori_om-id)"/><mask id="satori_om-id-1-2"><rect x="315" y="28" width="44" height="45" fill="#fff" mask="url(#satori_om-id)"/></mask><mask id="satori_om-id-1-2-0"><rect x="329" y="28" width="17" height="29" fill="#fff" mask="url(#satori_om-id)"/></mask><g mask="url(#satori_om-id)" clip-path="url(#satori_cp-id)"><path fill="#ffffff" d="M338.5 47.9L330.2 47.9L330.2 45.1L337.5 33.5L342.0 33.5L342.0 45.0L344.2 45.0L344.2 47.9L342.0 47.9L342.0 51L338.5 51L338.5 47.9ZM333.8 45.0L338.6 45.0L338.6 37.5L338.5 37.5L333.8 44.9L333.8 45.0Z "/></g><mask id="satori_om-id-1-2-1"><rect x="315" y="61" width="44" height="12" fill="#fff" mask="url(#satori_om-id)"/></mask><g mask="url(#satori_om-id)" clip-path="url(#satori_cp-id)"><path fill="#8b7ec8" d="M317.1 71L315.7 71L315.7 63.7L320.4 63.7L320.4 65.0L317.1 65.0L317.1 67.0L320.1 67.0L320.1 68.2L317.1 68.2L317.1 71ZM326.7 71.1L326.7 71.1Q325.8 71.1 325.0 70.7Q324.2 70.2 323.8 69.4Q323.3 68.5 323.3 67.4L323.3 67.4Q323.3 66.2 323.8 65.3Q324.2 64.5 325.0 64.1Q325.8 63.6 326.7 63.6L326.7 63.6Q327.7 63.6 328.5 64.1Q329.2 64.5 329.7 65.3Q330.1 66.2 330.1 67.4L330.1 67.4Q330.1 68.5 329.7 69.4Q329.2 70.2 328.5 70.7Q327.7 71.1 326.7 71.1ZM326.7 69.8L326.7 69.8Q327.3 69.8 327.7 69.5Q328.1 69.2 328.4 68.7Q328.6 68.1 328.6 67.4L328.6 67.4Q328.6 66.6 328.4 66.0Q328.1 65.5 327.7 65.2Q327.3 65.0 326.7 65.0L326.7 65.0Q326.2 65.0 325.7 65.2Q325.3 65.5 325.1 66.0Q324.8 66.6 324.8 67.4L324.8 67.4Q324.8 68.1 325.1 68.7Q325.3 69.2 325.7 69.5Q326.2 69.8 326.7 69.8ZM334.7 71L333.2 71L333.2 63.7L336.1 63.7Q336.9 63.7 337.5 64.0Q338.1 64.3 338.4 64.8Q338.7 65.4 338.7 66.1Q338.7 66.8 338.4 67.3Q338.1 67.9 337.5 68.1L337.5 68.1Q337.4 68.1 337.4 68.2L337.4 68.2L338.9 71L337.3 71L335.9 68.4L334.7 68.4L334.7 71ZM334.7 65.0L334.7 67.2L335.8 67.2Q336.3 67.2 336.5 67.1Q336.8 66.9 337.0 66.7Q337.1 66.5 337.1 66.1L337.1 66.1Q337.1 65.7 337.0 65.5Q336.8 65.2 336.5 65.1Q336.3 65.0 335.8 65.0L335.8 65.0L334.7 65.0ZM343.3 71L341.8 71L341.8 63.7L343.3 63.7L343.3 65.7L343.3 67.4Q343.3 67.3 343.3 67.3L343.3 67.3Q343.6 66.9 343.8 66.6Q344.1 66.2 344.4 65.8L344.4 65.8L346.2 63.7L348.0 63.7L345.3 66.9L348.1 71L346.3 71L344.3 67.9L343.3 68.9L343.3 71ZM353.7 71.1L353.7 71.1Q352.8 71.1 352.1 70.8Q351.5 70.6 351.1 70.0Q350.8 69.5 350.7 68.7L350.7 68.7L352.2 68.7Q352.2 69.1 352.4 69.4Q352.6 69.6 352.9 69.7Q353.2 69.8 353.6 69.8L353.6 69.8Q354.0 69.8 354.3 69.7Q354.6 69.6 354.8 69.4Q355.0 69.2 355.0 68.9L355.0 68.9Q355.0 68.7 354.8 68.5Q354.7 68.3 354.4 68.2Q354.1 68.1 353.7 68.0L353.7 68.0L352.9 67.8Q352.0 67.6 351.5 67.1Q350.9 66.6 350.9 65.8L350.9 65.8Q350.9 65.2 351.3 64.7Q351.7 64.2 352.3 63.9Q352.9 63.6 353.7 63.6L353.7 63.6Q354.5 63.6 355.1 63.9Q355.7 64.2 356.0 64.7Q356.4 65.2 356.4 65.8L356.4 65.8L354.9 65.8Q354.9 65.4 354.6 65.1Q354.2 64.9 353.7 64.9L353.7 64.9Q353.3 64.9 353.0 65.0Q352.8 65.1 352.6 65.3Q352.5 65.5 352.5 65.7L352.5 65.7Q352.5 66.0 352.6 66.2Q352.8 66.3 353.1 66.5Q353.3 66.6 353.6 66.6L353.6 66.6L354.3 66.8Q354.8 66.9 355.1 67.1Q355.5 67.3 355.8 67.5Q356.1 67.8 356.3 68.1Q356.5 68.5 356.5 68.9L356.5 68.9Q356.5 69.6 356.1 70.1Q355.8 70.6 355.2 70.8Q354.5 71.1 353.7 71.1Z "/></g><mask id="satori_om-id-1-3"><rect x="389" y="31" width="1" height="40" fill="#fff" mask="url(#satori_om-id)"/></mask><rect x="389" y="31" width="1" height="40" fill="rgba(120,80,220,0.2)" clip-path="url(#satori_cp-id)" mask="url(#satori_om-id)"/><mask id="satori_om-id-1-4"><rect x="420" y="28" width="44" height="45" fill="#fff" mask="url(#satori_om-id)"/></mask><mask id="satori_om-id-1-4-0"><rect x="427" y="28" width="31" height="29" fill="#fff" mask="url(#satori_om-id)"/></mask><g mask="url(#satori_om-id)" clip-path="url(#satori_cp-id)"><path fill="#ffffff" d="M434.4 51.2L434.4 51.2Q432.6 51.2 431.2 50.6Q429.8 49.9 429.0 48.8Q428.1 47.6 428.1 46.1L428.1 46.1L431.6 46.1Q431.6 46.8 432.0 47.3Q432.4 47.8 433 48.1Q433.6 48.4 434.4 48.4L434.4 48.4Q435.2 48.4 435.9 48.0Q436.6 47.6 437.0 46.9Q437.4 46.2 437.4 45.3L437.4 45.3Q437.4 44.4 437.0 43.6Q436.6 42.9 435.9 42.5Q435.2 42.1 434.3 42.1L434.3 42.1Q433.5 42.1 432.8 42.4Q432.1 42.7 431.7 43.3L431.7 43.3L428.5 42.7L429.3 33.5L439.9 33.5L439.9 36.5L432.3 36.5L431.8 40.9L431.9 40.9Q432.4 40.3 433.3 39.9Q434.2 39.5 435.3 39.5L435.3 39.5Q436.5 39.5 437.5 39.9Q438.5 40.3 439.3 41.1Q440.0 41.8 440.4 42.9Q440.8 43.9 440.8 45.2L440.8 45.2Q440.8 47.0 440.0 48.3Q439.2 49.7 437.7 50.5Q436.3 51.2 434.4 51.2ZM449.4 51.3L449.4 51.3Q447.7 51.3 446.3 50.6Q445 49.9 444.2 48.7Q443.4 47.6 443.2 46.1L443.2 46.1L446.7 46.1Q447.0 47.1 447.6 47.6Q448.3 48.2 449.4 48.2L449.4 48.2Q450.5 48.2 451.3 47.5Q452.1 46.8 452.5 45.5Q452.9 44.3 452.9 42.6L452.9 42.6L452.8 42.6Q452.4 43.3 451.7 43.9Q451.1 44.4 450.2 44.7Q449.4 45.0 448.4 45.0L448.4 45.0Q446.9 45.0 445.7 44.3Q444.4 43.6 443.7 42.3Q443.0 41.0 443.0 39.4L443.0 39.4Q443.0 37.6 443.9 36.2Q444.7 34.8 446.1 34.0Q447.6 33.3 449.5 33.3L449.5 33.3Q450.9 33.3 452.1 33.7Q453.3 34.2 454.3 35.2Q455.3 36.2 455.9 37.8Q456.4 39.4 456.4 41.8L456.4 41.8Q456.4 44.1 455.9 45.8Q455.4 47.5 454.5 48.8Q453.6 50.0 452.3 50.6Q451.0 51.3 449.4 51.3ZM449.5 42.4L449.5 42.4Q450.2 42.4 450.7 42.1Q451.3 41.9 451.7 41.5Q452.1 41.0 452.3 40.5Q452.6 39.9 452.6 39.2L452.6 39.2Q452.6 38.4 452.2 37.7Q451.8 37.0 451.1 36.6Q450.4 36.1 449.5 36.1L449.5 36.1Q448.7 36.1 448.0 36.6Q447.3 37.0 446.9 37.7Q446.5 38.4 446.5 39.3L446.5 39.3Q446.5 40.1 446.9 40.9Q447.3 41.6 448.0 42.0Q448.6 42.4 449.5 42.4Z "/></g><mask id="satori_om-id-1-4-1"><rect x="420" y="61" width="44" height="12" fill="#fff" mask="url(#satori_om-id)"/></mask><g mask="url(#satori_om-id)" clip-path="url(#satori_cp-id)"><path fill="#5a9ca8" d="M422.1 71L420.7 71L420.7 63.7L423.5 63.7Q424.3 63.7 424.9 64.0Q425.5 64.3 425.8 64.8Q426.1 65.4 426.1 66.1Q426.1 66.8 425.8 67.3Q425.5 67.9 424.9 68.1L424.9 68.1Q424.8 68.1 424.8 68.2L424.8 68.2L426.4 71L424.7 71L423.3 68.4L422.1 68.4L422.1 71ZM422.1 65.0L422.1 67.2L423.2 67.2Q423.7 67.2 424.0 67.1Q424.3 66.9 424.4 66.7Q424.6 66.5 424.6 66.1L424.6 66.1Q424.6 65.7 424.4 65.5Q424.3 65.2 424.0 65.1Q423.7 65.0 423.2 65.0L423.2 65.0L422.1 65.0ZM434.1 71L429.2 71L429.2 63.7L434.1 63.7L434.1 65.0L430.7 65.0L430.7 66.7L433.8 66.7L433.8 67.9L430.7 67.9L430.7 69.8L434.1 69.8L434.1 71ZM438.8 71L437.3 71L437.3 63.7L440.1 63.7Q441.0 63.7 441.5 64.0Q442.1 64.4 442.4 64.9Q442.7 65.5 442.7 66.2L442.7 66.2Q442.7 66.9 442.4 67.5Q442.1 68.0 441.5 68.3Q440.9 68.6 440.1 68.6L440.1 68.6L438.8 68.6L438.8 71ZM438.8 65.0L438.8 67.4L439.9 67.4Q440.3 67.4 440.6 67.3Q440.9 67.1 441.1 66.8Q441.2 66.5 441.2 66.2Q441.2 65.8 441.1 65.5Q440.9 65.3 440.6 65.1Q440.3 65.0 439.9 65.0L439.9 65.0L438.8 65.0ZM449.0 71.1L449.0 71.1Q448.0 71.1 447.2 70.7Q446.5 70.2 446.0 69.4Q445.6 68.5 445.6 67.4L445.6 67.4Q445.6 66.2 446.0 65.3Q446.5 64.5 447.2 64.1Q448.0 63.6 449.0 63.6L449.0 63.6Q449.9 63.6 450.7 64.1Q451.5 64.5 451.9 65.3Q452.4 66.2 452.4 67.4L452.4 67.4Q452.4 68.5 451.9 69.4Q451.5 70.2 450.7 70.7Q449.9 71.1 449.0 71.1ZM449.0 69.8L449.0 69.8Q449.5 69.8 450.0 69.5Q450.4 69.2 450.6 68.7Q450.9 68.1 450.9 67.4L450.9 67.4Q450.9 66.6 450.6 66.0Q450.4 65.5 450.0 65.2Q449.5 65.0 449.0 65.0L449.0 65.0Q448.4 65.0 448.0 65.2Q447.6 65.5 447.3 66.0Q447.1 66.6 447.1 67.4L447.1 67.4Q447.1 68.1 447.3 68.7Q447.6 69.2 448.0 69.5Q448.4 69.8 449.0 69.8ZM458.2 71.1L458.2 71.1Q457.3 71.1 456.6 70.8Q456.0 70.6 455.6 70.0Q455.3 69.5 455.2 68.7L455.2 68.7L456.7 68.7Q456.7 69.1 456.9 69.4Q457.1 69.6 457.4 69.7Q457.7 69.8 458.1 69.8L458.1 69.8Q458.5 69.8 458.8 69.7Q459.1 69.6 459.3 69.4Q459.5 69.2 459.5 68.9L459.5 68.9Q459.5 68.7 459.3 68.5Q459.2 68.3 458.9 68.2Q458.6 68.1 458.2 68.0L458.2 68.0L457.4 67.8Q456.5 67.6 456.0 67.1Q455.4 66.6 455.4 65.8L455.4 65.8Q455.4 65.2 455.8 64.7Q456.1 64.2 456.8 63.9Q457.4 63.6 458.2 63.6L458.2 63.6Q459.0 63.6 459.6 63.9Q460.2 64.2 460.5 64.7Q460.9 65.2 460.9 65.8L460.9 65.8L459.4 65.8Q459.4 65.4 459.0 65.1Q458.7 64.9 458.2 64.9L458.2 64.9Q457.8 64.9 457.5 65.0Q457.2 65.1 457.1 65.3Q457.0 65.5 457.0 65.7L457.0 65.7Q457.0 66.0 457.1 66.2Q457.3 66.3 457.6 66.5Q457.8 66.6 458.1 66.6L458.1 66.6L458.8 66.8Q459.2 66.9 459.6 67.1Q460.0 67.3 460.3 67.5Q460.6 67.8 460.8 68.1Q461.0 68.5 461.0 68.9L461.0 68.9Q461.0 69.6 460.6 70.1Q460.3 70.6 459.7 70.8Q459.0 71.1 458.2 71.1Z "/></g><mask id="satori_om-id-1-5"><rect x="494" y="31" width="1" height="40" fill="#fff" mask="url(#satori_om-id)"/></mask><rect x="494" y="31" width="1" height="40" fill="rgba(120,80,220,0.2)" clip-path="url(#satori_cp-id)" mask="url(#satori_om-id)"/><mask id="satori_om-id-1-6"><rect x="525" y="28" width="66" height="45" fill="#fff" mask="url(#satori_om-id)"/></mask><mask id="satori_om-id-1-6-0"><rect x="525" y="28" width="66" height="29" fill="#fff" mask="url(#satori_om-id)"/></mask><g mask="url(#satori_om-id)" clip-path="url(#satori_cp-id)"><path fill="#ffffff" d="M534.5 47.9L526.2 47.9L526.2 45.1L533.5 33.5L538.0 33.5L538.0 45.0L540.2 45.0L540.2 47.9L538.0 47.9L538.0 51L534.5 51L534.5 47.9ZM529.8 45.0L534.6 45.0L534.6 37.5L534.5 37.5L529.8 44.9L529.8 45.0ZM545.3 33.5L549.1 33.5L549.1 51L545.5 51L545.5 36.7L545.4 36.7L541.4 39.5L541.4 36.2L545.3 33.5ZM558.0 51.2L558.0 51.2Q556.2 51.2 554.8 50.6Q553.4 49.9 552.6 48.8Q551.8 47.6 551.8 46.1L551.8 46.1L555.2 46.1Q555.3 46.8 555.7 47.3Q556.0 47.8 556.7 48.1Q557.3 48.4 558.0 48.4L558.0 48.4Q558.9 48.4 559.6 48.0Q560.3 47.6 560.6 46.9Q561.0 46.2 561.0 45.3L561.0 45.3Q561.0 44.4 560.6 43.6Q560.2 42.9 559.6 42.5Q558.9 42.1 558.0 42.1L558.0 42.1Q557.2 42.1 556.5 42.4Q555.7 42.7 555.3 43.3L555.3 43.3L552.1 42.7L553.0 33.5L563.5 33.5L563.5 36.5L555.9 36.5L555.5 40.9L555.6 40.9Q556.0 40.3 557.0 39.9Q557.9 39.5 559.0 39.5L559.0 39.5Q560.2 39.5 561.2 39.9Q562.2 40.3 562.9 41.1Q563.7 41.8 564.1 42.9Q564.5 43.9 564.5 45.2L564.5 45.2Q564.5 47.0 563.7 48.3Q562.9 49.7 561.4 50.5Q559.9 51.2 558.0 51.2ZM570.5 33.5L574.4 33.5L574.4 51L570.8 51L570.8 36.7L570.7 36.7L566.7 39.5L566.7 36.2L570.5 33.5ZM581.7 51L578.0 51L585.3 36.6L585.3 36.5L576.8 36.5L576.8 33.5L589.0 33.5L589.0 36.5L581.7 51Z "/></g><mask id="satori_om-id-1-6-1"><rect x="526" y="61" width="64" height="12" fill="#fff" mask="url(#satori_om-id)"/></mask><g mask="url(#satori_om-id)" clip-path="url(#satori_cp-id)"><path fill="#7ee7ff" d="M529.8 71.1L529.8 71.1Q528.9 71.1 528.1 70.7Q527.3 70.2 526.9 69.4Q526.5 68.5 526.5 67.4L526.5 67.4Q526.5 66.2 526.9 65.3Q527.3 64.5 528.1 64.1Q528.9 63.6 529.8 63.6L529.8 63.6Q530.5 63.6 531.0 63.8Q531.5 64.0 531.9 64.3Q532.4 64.6 532.6 65.1Q532.9 65.6 533.0 66.2L533.0 66.2L531.5 66.2Q531.4 65.9 531.3 65.7Q531.1 65.4 530.9 65.3Q530.7 65.1 530.4 65.0Q530.2 65.0 529.9 65.0L529.9 65.0Q529.3 65.0 528.9 65.2Q528.4 65.5 528.2 66.1Q528.0 66.6 528.0 67.4L528.0 67.4Q528.0 68.2 528.2 68.7Q528.5 69.2 528.9 69.5Q529.3 69.8 529.9 69.8L529.9 69.8Q530.2 69.8 530.4 69.7Q530.7 69.6 530.9 69.4Q531.1 69.3 531.3 69.0Q531.4 68.8 531.5 68.5L531.5 68.5L533.0 68.5Q532.9 69.0 532.7 69.5Q532.4 69.9 532.0 70.3Q531.6 70.7 531.1 70.9Q530.5 71.1 529.8 71.1ZM539.3 71.1L539.3 71.1Q538.3 71.1 537.5 70.7Q536.8 70.2 536.3 69.4Q535.9 68.5 535.9 67.4L535.9 67.4Q535.9 66.2 536.3 65.3Q536.8 64.5 537.5 64.1Q538.3 63.6 539.3 63.6L539.3 63.6Q540.2 63.6 541.0 64.1Q541.8 64.5 542.2 65.3Q542.6 66.2 542.6 67.4L542.6 67.4Q542.6 68.5 542.2 69.4Q541.8 70.2 541.0 70.7Q540.2 71.1 539.3 71.1ZM539.3 69.8L539.3 69.8Q539.8 69.8 540.2 69.5Q540.7 69.2 540.9 68.7Q541.1 68.1 541.1 67.4L541.1 67.4Q541.1 66.6 540.9 66.0Q540.7 65.5 540.2 65.2Q539.8 65.0 539.3 65.0L539.3 65.0Q538.7 65.0 538.3 65.2Q537.8 65.5 537.6 66.0Q537.4 66.6 537.4 67.4L537.4 67.4Q537.4 68.1 537.6 68.7Q537.8 69.2 538.3 69.5Q538.7 69.8 539.3 69.8ZM547.2 71L545.8 71L545.8 63.7L548.0 63.7L549.2 67.1Q549.3 67.3 549.4 67.7Q549.5 68.0 549.6 68.5L549.6 68.5Q549.7 68.9 549.8 69.3L549.8 69.3Q549.9 68.9 549.9 68.5L549.9 68.5Q550.0 68.1 550.1 67.7Q550.2 67.3 550.3 67.1L550.3 67.1L551.5 63.7L553.8 63.7L553.8 71L552.3 71L552.3 67.6Q552.3 67.3 552.3 67.0Q552.3 66.6 552.3 66.2Q552.3 65.8 552.3 65.4L552.3 65.4Q552.3 65.2 552.3 65.0L552.3 65.0Q552.3 65.2 552.2 65.4L552.2 65.4Q552.1 65.9 552.0 66.3Q551.9 66.7 551.8 67.0Q551.7 67.3 551.6 67.6L551.6 67.6L550.4 71L549.1 71L547.9 67.6Q547.8 67.3 547.7 67.0Q547.6 66.7 547.5 66.3Q547.4 65.9 547.3 65.4L547.3 65.4Q547.2 65.2 547.2 65.1L547.2 65.1Q547.2 65.2 547.2 65.4L547.2 65.4Q547.2 65.8 547.2 66.2Q547.2 66.6 547.2 67.0Q547.2 67.3 547.2 67.6L547.2 67.6L547.2 71ZM558.6 71L557.1 71L557.1 63.7L559.4 63.7L560.5 67.1Q560.6 67.3 560.7 67.7Q560.8 68.0 560.9 68.5L560.9 68.5Q561.0 68.9 561.1 69.3L561.1 69.3Q561.2 68.9 561.3 68.5L561.3 68.5Q561.4 68.1 561.5 67.7Q561.6 67.3 561.6 67.1L561.6 67.1L562.8 63.7L565.1 63.7L565.1 71L563.6 71L563.6 67.6Q563.6 67.3 563.6 67.0Q563.6 66.6 563.6 66.2Q563.6 65.8 563.6 65.4L563.6 65.4Q563.6 65.2 563.6 65.0L563.6 65.0Q563.6 65.2 563.5 65.4L563.5 65.4Q563.4 65.9 563.3 66.3Q563.2 66.7 563.1 67.0Q563.0 67.3 562.9 67.6L562.9 67.6L561.7 71L560.5 71L559.2 67.6Q559.2 67.3 559.1 67.0Q558.9 66.7 558.8 66.3Q558.7 65.9 558.6 65.4L558.6 65.4Q558.6 65.2 558.5 65.1L558.5 65.1Q558.5 65.2 558.5 65.4L558.5 65.4Q558.5 65.8 558.5 66.2Q558.5 66.6 558.6 67.0Q558.6 67.3 558.6 67.6L558.6 67.6L558.6 71ZM568.4 63.7L569.9 63.7L569.9 71L568.4 71L568.4 63.7ZM575.1 65.0L572.9 65.0L572.9 63.7L578.9 63.7L578.9 65.0L576.6 65.0L576.6 71L575.1 71L575.1 65.0ZM584.5 71.1L584.5 71.1Q583.7 71.1 583.0 70.8Q582.4 70.6 582.0 70.0Q581.7 69.5 581.6 68.7L581.6 68.7L583.1 68.7Q583.1 69.1 583.3 69.4Q583.5 69.6 583.8 69.7Q584.1 69.8 584.5 69.8L584.5 69.8Q584.9 69.8 585.2 69.7Q585.5 69.6 585.7 69.4Q585.9 69.2 585.9 68.9L585.9 68.9Q585.9 68.7 585.7 68.5Q585.6 68.3 585.3 68.2Q585.0 68.1 584.6 68.0L584.6 68.0L583.8 67.8Q582.9 67.6 582.4 67.1Q581.8 66.6 581.8 65.8L581.8 65.8Q581.8 65.2 582.2 64.7Q582.5 64.2 583.2 63.9Q583.8 63.6 584.6 63.6L584.6 63.6Q585.4 63.6 586.0 63.9Q586.6 64.2 586.9 64.7Q587.2 65.2 587.3 65.8L587.3 65.8L585.8 65.8Q585.8 65.4 585.4 65.1Q585.1 64.9 584.5 64.9L584.5 64.9Q584.2 64.9 583.9 65.0Q583.6 65.1 583.5 65.3Q583.4 65.5 583.4 65.7L583.4 65.7Q583.4 66.0 583.5 66.2Q583.7 66.3 583.9 66.5Q584.2 66.6 584.5 66.6L584.5 66.6L585.2 66.8Q585.6 66.9 586.0 67.1Q586.4 67.3 586.7 67.5Q587.0 67.8 587.2 68.1Q587.4 68.5 587.4 68.9L587.4 68.9Q587.4 69.6 587.0 70.1Q586.7 70.6 586.1 70.8Q585.4 71.1 584.5 71.1Z "/></g></svg>