<!-- Generated by readme-aura https://github.com/collectioneur/readme-aura -->
<svg width="800" height="100" viewBox="0 0 800 100" xmlns="http://www.w3.org/2000/svg"><defs><clipPath id="satori_bc-id"><path x="0" y="0" width="800" height="100" d="M16,0 h768 a16,16 0 0 1 16,16 v68 a16,16 0 0 1 -16,16 h-768 a16,16 0 0 1 -16,-16 v-68 a16,16 0 0 1 16,-16"/></clipPath></defs><clipPath id="satori_cp-id"><path x="0" y="0" width="800" height="100" d="M16,0 h768 a16,16 0 0 1 16,16 v68 a16,16 0 0 1 -16,16 h-768 a16,16 0 0 1 -16,-16 v-68 a16,16 0 0 1 16,-16"/></clipPath><mask id="satori_om-id"><rect x="1" y="1" width="798" height="98" fill="#fff"/><path width="800" height="100" fill="none" stroke="#000" stroke-width="2" d="M4.686,4.686 A16,16 0 0 1 16,0 h768 a16,16 0 0 1 16,16 v68 a16,16 0 0 1 -16,16 h-768 a16,16 0 0 1 -16,-16 v-68 A16,16 0 0 1 4.686,4.686"/></mask><path x="0" y="0" width="800" height="100" fill="#06060a" d="M16,0 h768 a16,16 0 0 1 16,16 v68 a16,16 0 0 1 -16,16 h-768 a16,16 0 0 1 -16,-16 v-68 a16,16 0 0 1 16,-16"/><path width="800" height="100" clip-path="url(#satori_bc-id)" fill="none" stroke="rgba(110,80,220,0.15)" stroke-width="2" d="M4.686,4.686 A16,16 0 0 1 16,0 h768 a16,16 0 0 1 16,16 v68 a16,16 0 0 1 -16,16 h-768 a16,16 0 0 1 -16,-16 v-68 A16,16 0 0 1 4.686,4.686"/><clipPath id="satori_cp-id-0" clip-path="url(#satori_cp-id)"><rect x="1" y="1" width="800" height="100"/></clipPath><mask id="satori_om-id-0"><rect x="1" y="1" width="800" height="100" fill="#fff" mask="url(#satori_om-id)"/></mask><svg x="1" y="1" width="800" height="100" preserveAspectRatio="none" clip-path="url(#satori_cp-id-0)" mask="url(#satori_om-id-0)"><defs><radialGradient id="stg1" cx="50%" cy="50%" r="50%"><stop offset="0%" stop-color="rgba(120,40,220,0.5)"></stop><stop offset="100%" stop-color="rgba(120,40,220,0)"></stop></radialGradient><linearGradient id="st-scg" x1="0%" y1="0%" x2="100%" y2="0%"><stop offset="0%" stop-color="rgba(120,200,255,0)"></stop><stop offset="45%" stop-color="rgba(120,200,255,0.12)"></stop><stop offset="50%" stop-color="rgba(180,120,255,0.3)"></stop><stop offset="55%" stop-color="rgba(120,200,255,0.12)"></stop><stop offset="100%" stop-color="rgba(120,200,255,0)"></stop></linearGradient></defs><ellipse id="stat-g1" cx="400" cy="50" rx="250" ry="60" fill="url(#stg1)"></ellipse><rect id="stat-scan1" x="0" y="50" width="160" height="1" fill="url(#st-scg)"></rect><style>

      @keyframes stat-drift-r { 0%, 100% { transform: translate(0, 0); opacity: 0.7; } 50% { transform: translate(25px, -12px); opacity: 1; } }
      @keyframes stat-scan { 0% { transform: translate(-900px, 0); } 100% { transform: translate(900px, 0); } }
      #stat-g1 { animation: stat-drift-r 7s ease-in-out infinite; }
      #stat-scan1 { animation: stat-scan 4s linear infinite; }
    
</style>
</svg><mask id="satori_om-id-0-0"><rect x="1" y="1" width="0" height="100" fill="#fff" mask="url(#satori_om-id)"/></mask><mask id="satori_om-id-0-0-0"><rect x="1" y="1" width="0" height="100" fill="#fff" mask="url(#satori_om-id)"/></mask><mask id="satori_om-id-0-0-0-0"><rect x="1" y="1" width="0" height="100" fill="#fff" mask="url(#satori_om-id)"/></mask><mask id="satori_om-id-0-0-0-1"><rect x="1" y="1" width="0" height="100" fill="#fff" mask="url(#satori_om-id)"/></mask><mask id="satori_om-id-0-0-1"><rect x="1" y="1" width="0" height="100" fill="#fff" mask="url(#satori_om-id)"/></mask><mask id="satori_om-id-0-0-1-0"><rect x="1" y="1" width="0" height="100" fill="#fff" mask="url(#satori_om-id)"/></mask><mask id="satori_om-id-0-0-1-1"><rect x="1" y="1" width="0" height="100" fill="#fff" mask="url(#satori_om-id)"/></mask><mask id="satori_om-id-0-0-1-2"><rect x="1" y="1" width="0" height="100" fill="#fff" mask="url(#satori_om-id)"/></mask><mask id="satori_om-id-0-0-1-3"><rect x="1" y="1" width="0" height="100" fill="#fff" mask="url(#satori_om-id)"/></mask><mask id="satori_om-id-0-0-1-4"><rect x="1" y="1" width="0" height="100" fill="#fff" mask="url(#satori_om-id)"/></mask><mask id="satori_om-id-0-1"><rect x="1" y="1" width="0" height="100" fill="#fff" mask="url(#satori_om-id)"/></mask><mask id="satori_om-id-0-2"><rect x="1" y="1" width="0" height="100" fill="#fff" mask="url(#satori_om-id)"/></mask><mask id="satori_om-id-1"><rect x="205" y="28" width="390" height="45" fill="#fff" mask="url(#satori_om-id)"/></mask><mask id="satori_om-id-1-0"><rect x="205" y="28" width="44" height="45" fill="#fff" mask="url(#satori_om-id)"/></mask><mask id="satori_om-id-1-0-0"><rect x="212" y="28" width="31" height="29" fill="#fff" mask="url(#satori_om-id)"/></mask><g mask="url(#satori_om-id)" clip-path="url(#satori_cp-id)"><path fill="#ffffff" d="M225.8 51L213.5 51L213.5 48.4L219.6 42.6Q220.4 41.8 221.0 41.2Q221.5 40.6 221.8 40.0Q222.1 39.4 222.1 38.7L222.1 38.7Q222.1 37.9 221.8 37.3Q221.4 36.8 220.8 36.5Q220.2 36.2 219.4 36.2L219.4 36.2Q218.6 36.2 218.0 36.5Q217.4 36.8 217.0 37.4Q216.7 38.0 216.7 38.9L216.7 38.9L213.3 38.9Q213.3 37.2 214.1 35.9Q214.8 34.7 216.2 34.0Q217.6 33.3 219.4 33.3L219.4 33.3Q221.3 33.3 222.7 34.0Q224.0 34.6 224.8 35.8Q225.6 36.9 225.6 38.5L225.6 38.5Q225.6 39.4 225.2 40.4Q224.8 41.3 223.8 42.5Q222.9 43.7 221.1 45.3L221.1 45.3L218.4 47.9L218.4 48.1L225.8 48.1L225.8 51ZM234.9 51.2L234.9 51.2Q233.0 51.2 231.5 50.6Q229.9 49.9 229.1 48.8Q228.2 47.7 228.2 46.3L228.2 46.3Q228.2 45.2 228.7 44.3Q229.2 43.4 230.1 42.8Q230.9 42.2 232.0 42.0L232.0 42.0L232.0 41.9Q230.6 41.6 229.7 40.5Q228.9 39.4 228.9 38.0L228.9 38.0Q228.9 36.6 229.6 35.6Q230.4 34.5 231.8 33.9Q233.2 33.3 234.9 33.3L234.9 33.3Q236.7 33.3 238.0 33.9Q239.4 34.5 240.2 35.6Q241.0 36.6 241.0 38.0L241.0 38.0Q241.0 39.4 240.1 40.5Q239.2 41.6 237.9 41.9L237.9 41.9L237.9 42.0Q238.9 42.2 239.8 42.8Q240.6 43.4 241.1 44.3Q241.6 45.2 241.6 46.3L241.6 46.3Q241.6 47.7 240.8 48.8Q239.9 49.9 238.4 50.6Q236.9 51.2 234.9 51.2ZM234.9 48.6L234.9 48.6Q235.8 48.6 236.5 48.3Q237.2 47.9 237.5 47.4Q237.9 46.8 237.9 46.0L237.9 46.0Q237.9 45.3 237.5 44.7Q237.1 44.1 236.5 43.7Q235.8 43.4 234.9 43.4L234.9 43.4Q234.1 43.4 233.4 43.7Q232.7 44.1 232.3 44.7Q231.9 45.2 231.9 46.0L231.9 46.0Q231.9 46.8 232.3 47.4Q232.7 47.9 233.4 48.3Q234.0 48.6 234.9 48.6ZM234.9 40.8L234.9 40.8Q235.7 40.8 236.3 40.5Q236.8 40.1 237.2 39.6Q237.5 39.1 237.5 38.4L237.5 38.4Q237.5 37.7 237.2 37.1Q236.8 36.6 236.3 36.3Q235.7 36.0 234.9 36.0L234.9 36.0Q234.2 36.0 233.6 36.3Q233 36.6 232.7 37.1Q232.3 37.7 232.3 38.4L232.3 38.4Q232.3 39.1 232.7 39.6Q233 40.1 233.6 40.5Q234.2 40.8 234.9 40.8Z "/></g><mask id="satori_om-id-1-0-1"><rect x="205" y="61" width="44" height="12" fill="#fff" mask="url(#satori_om-id)"/></mask><g mask="url(#satori_om-id)" clip-path="url(#satori_cp-id)"><path fill="#b8860b" d="M208.3 71.1L208.3 71.1Q207.5 71.1 206.8 70.8Q206.2 70.6 205.8 70.0Q205.4 69.5 205.4 68.7L205.4 68.7L206.9 68.7Q206.9 69.1 207.1 69.4Q207.3 69.6 207.6 69.7Q207.9 69.8 208.3 69.8L208.3 69.8Q208.7 69.8 209.0 69.7Q209.3 69.6 209.5 69.4Q209.6 69.2 209.6 68.9L209.6 68.9Q209.6 68.7 209.5 68.5Q209.3 68.3 209.1 68.2Q208.8 68.1 208.4 68.0L208.4 68.0L207.6 67.8Q206.7 67.6 206.1 67.1Q205.6 66.6 205.6 65.8L205.6 65.8Q205.6 65.2 206.0 64.7Q206.3 64.2 206.9 63.9Q207.6 63.6 208.3 63.6L208.3 63.6Q209.2 63.6 209.8 63.9Q210.4 64.2 210.7 64.7Q211.0 65.2 211.0 65.8L211.0 65.8L209.6 65.8Q209.6 65.4 209.2 65.1Q208.9 64.9 208.3 64.9L208.3 64.9Q208.0 64.9 207.7 65.0Q207.4 65.1 207.3 65.3Q207.1 65.5 207.1 65.7L207.1 65.7Q207.1 66.0 207.3 66.2Q207.5 66.3 207.7 66.5Q208.0 66.6 208.3 66.6L208.3 66.6L209.0 66.8Q209.4 66.9 209.8 67.1Q210.2 67.3 210.5 67.5Q210.8 67.8 211.0 68.1Q211.1 68.5 211.1 68.9L211.1 68.9Q211.1 69.6 210.8 70.1Q210.5 70.6 209.8 70.8Q209.2 71.1 208.3 71.1ZM216.1 65.0L213.9 65.0L213.9 63.7L219.9 63.7L219.9 65.0L217.6 65.0L217.6 71L216.1 71L216.1 65.0ZM224.1 71L222.5 71L224.9 63.7L226.9 63.7L229.4 71L227.8 71L227.2 69.3L224.6 69.3L224.1 71ZM225.0 68.1L226.8 68.1L226.6 67.5Q226.4 66.8 226.2 66L226.2 66Q226.1 65.5 225.9 64.9L225.9 64.9Q225.8 65.5 225.6 66.0L225.6 66.0Q225.4 66.8 225.2 67.5L225.2 67.5L225.0 68.1ZM233.8 71L232.3 71L232.3 63.7L235.2 63.7Q236.0 63.7 236.6 64.0Q237.2 64.3 237.5 64.8Q237.8 65.4 237.8 66.1Q237.8 66.8 237.5 67.3Q237.2 67.9 236.6 68.1L236.6 68.1Q236.5 68.1 236.5 68.2L236.5 68.2L238.0 71L236.4 71L235.0 68.4L233.8 68.4L233.8 71ZM233.8 65.0L233.8 67.2L234.9 67.2Q235.4 67.2 235.7 67.1Q236.0 66.9 236.1 66.7Q236.2 66.5 236.2 66.1L236.2 66.1Q236.2 65.7 236.1 65.5Q236.0 65.2 235.7 65.1Q235.4 65.0 234.9 65.0L234.9 65.0L233.8 65.0ZM243.6 71.1L243.6 71.1Q242.7 71.1 242.1 70.8Q241.4 70.6 241.1 70.0Q240.7 69.5 240.7 68.7L240.7 68.7L242.1 68.7Q242.2 69.1 242.3 69.4Q242.5 69.6 242.8 69.7Q243.2 69.8 243.6 69.8L243.6 69.8Q244.0 69.8 244.3 69.7Q244.6 69.6 244.7 69.4Q244.9 69.2 244.9 68.9L244.9 68.9Q244.9 68.7 244.7 68.5Q244.6 68.3 244.3 68.2Q244.0 68.1 243.6 68.0L243.6 68.0L242.8 67.8Q241.9 67.6 241.4 67.1Q240.9 66.6 240.9 65.8L240.9 65.8Q240.9 65.2 241.2 64.7Q241.6 64.2 242.2 63.9Q242.8 63.6 243.6 63.6L243.6 63.6Q244.4 63.6 245.0 63.9Q245.6 64.2 245.9 64.7Q246.3 65.2 246.3 65.8L246.3 65.8L244.9 65.8Q244.8 65.4 244.5 65.1Q244.1 64.9 243.6 64.9L243.6 64.9Q243.2 64.9 242.9 65.0Q242.7 65.1 242.5 65.3Q242.4 65.5 242.4 65.7L242.4 65.7Q242.4 66.0 242.6 66.2Q242.7 66.3 243.0 66.5Q243.3 66.6 243.6 66.6L243.6 66.6L244.2 66.8Q244.7 66.9 245.1 67.1Q245.5 67.3 245.8 67.5Q246.1 67.8 246.2 68.1Q246.4 68.5 246.4 68.9L246.4 68.9Q246.4 69.6 246.1 70.1Q245.7 70.6 245.1 70.8Q244.5 71.1 243.6 71.1Z "/></g><mask id="satori_om-id-1-1"><rect x="279" y="31" width="1" height="40" fill="#fff" mask="url(#satori_om-id)"/></mask><rect x="279" y="31" width="1" height="40" fill="rgba(120,80,220,0.2)" clip-path="url(#satori_cp-id)" mask="url(#satori_om-id)"/><mask id="satori_om-id-1-2"><rect x="310" y="28" width="44" height="45" fill="#fff" mask="url(#satori_om-id)"/></mask><mask id="satori_om-id-1-2-0"><rect x="324" y="28" width="17" height="29" fill="#fff" mask="url(#satori_om-id)"/></mask><g mask="url(#satori_om-id)" clip-path="url(#satori_cp-id)"><path fill="#ffffff" d="M333.5 47.9L325.2 47.9L325.2 45.1L332.5 33.5L337.0 33.5L337.0 45.0L339.2 45.0L339.2 47.9L337.0 47.9L337.0 51L333.5 51L333.5 47.9ZM328.8 45.0L333.6 45.0L333.6 37.5L333.5 37.5L328.8 44.9L328.8 45.0Z "/></g><mask id="satori_om-id-1-2-1"><rect x="310" y="61" width="44" height="12" fill="#fff" mask="url(#satori_om-id)"/></mask><g mask="url(#satori_om-id)" clip-path="url(#satori_cp-id)"><path fill="#8b7ec8" d="M312.1 71L310.7 71L310.7 63.7L315.4 63.7L315.4 65.0L312.1 65.0L312.1 67.0L315.1 67.0L315.1 68.2L312.1 68.2L312.1 71ZM321.7 71.1L321.7 71.1Q320.8 71.1 320.0 70.7Q319.2 70.2 318.8 69.4Q318.3 68.5 318.3 67.4L318.3 67.4Q318.3 66.2 318.8 65.3Q319.2 64.5 320.0 64.1Q320.8 63.6 321.7 63.6L321.7 63.6Q322.7 63.6 323.5 64.1Q324.2 64.5 324.7 65.3Q325.1 66.2 325.1 67.4L325.1 67.4Q325.1 68.5 324.7 69.4Q324.2 70.2 323.5 70.7Q322.7 71.1 321.7 71.1ZM321.7 69.8L321.7 69.8Q322.3 69.8 322.7 69.5Q323.1 69.2 323.4 68.7Q323.6 68.1 323.6 67.4L323.6 67.4Q323.6 66.6 323.4 66.0Q323.1 65.5 322.7 65.2Q322.3 65.0 321.7 65.0L321.7 65.0Q321.2 65.0 320.7 65.2Q320.3 65.5 320.1 66.0Q319.8 66.6 319.8 67.4L319.8 67.4Q319.8 68.1 320.1 68.7Q320.3 69.2 320.7 69.5Q321.2 69.8 321.7 69.8ZM329.7 71L328.2 71L328.2 63.7L331.1 63.7Q331.9 63.7 332.5 64.0Q333.1 64.3 333.4 64.8Q333.7 65.4 333.7 66.1Q333.7 66.8 333.4 67.3Q333.1 67.9 332.5 68.1L332.5 68.1Q332.4 68.1 332.4 68.2L332.4 68.2L333.9 71L332.3 71L330.9 68.4L329.7 68.4L329.7 71ZM329.7 65.0L329.7 67.2L330.8 67.2Q331.3 67.2 331.5 67.1Q331.8 66.9 332.0 66.7Q332.1 66.5 332.1 66.1L332.1 66.1Q332.1 65.7 332.0 65.5Q331.8 65.2 331.5 65.1Q331.3 65.0 330.8 65.0L330.8 65.0L329.7 65.0ZM338.3 71L336.8 71L336.8 63.7L338.3 63.7L338.3 65.7L338.3 67.4Q338.3 67.3 338.3 67.3L338.3 67.3Q338.6 66.9 338.8 66.6Q339.1 66.2 339.4 65.8L339.4 65.8L341.2 63.7L343.0 63.7L340.3 66.9L343.1 71L341.3 71L339.3 67.9L338.3 68.9L338.3 71ZM348.7 71.1L348.7 71.1Q347.8 71.1 347.1 70.8Q346.5 70.6 346.1 70.0Q345.8 69.5 345.7 68.7L345.7 68.7L347.2 68.7Q347.2 69.1 347.4 69.4Q347.6 69.6 347.9 69.7Q348.2 69.8 348.6 69.8L348.6 69.8Q349.0 69.8 349.3 69.7Q349.6 69.6 349.8 69.4Q350.0 69.2 350.0 68.9L350.0 68.9Q350.0 68.7 349.8 68.5Q349.7 68.3 349.4 68.2Q349.1 68.1 348.7 68.0L348.7 68.0L347.9 67.8Q347.0 67.6 346.5 67.1Q345.9 66.6 345.9 65.8L345.9 65.8Q345.9 65.2 346.3 64.7Q346.7 64.2 347.3 63.9Q347.9 63.6 348.7 63.6L348.7 63.6Q349.5 63.6 350.1 63.9Q350.7 64.2 351.0 64.7Q351.4 65.2 351.4 65.8L351.4 65.8L349.9 65.8Q349.9 65.4 349.6 65.1Q349.2 64.9 348.7 64.9L348.7 64.9Q348.3 64.9 348.0 65.0Q347.8 65.1 347.6 65.3Q347.5 65.5 347.5 65.7L347.5 65.7Q347.5 66.0 347.6 66.2Q347.8 66.3 348.1 66.5Q348.3 66.6 348.6 66.6L348.6 66.6L349.3 66.8Q349.8 66.9 350.1 67.1Q350.5 67.3 350.8 67.5Q351.1 67.8 351.3 68.1Q351.5 68.5 351.5 68.9L351.5 68.9Q351.5 69.6 351.1 70.1Q350.8 70.6 350.2 70.8Q349.5 71.1 348.7 71.1Z "/></g><mask id="satori_om-id-1-3"><rect x="384" y="31" width="1" height="40" fill="#fff" mask="url(#satori_om-id)"/></mask><rect x="384" y="31" width="1" height="40" fill="rgba(120,80,220,0.2)" clip-path="url(#satori_cp-id)" mask="url(#satori_om-id)"/><mask id="satori_om-id-1-4"><rect x="415" y="28" width="44" height="45" fill="#fff" mask="url(#satori_om-id)"/></mask><mask id="satori_om-id-1-4-0"><rect x="422" y="28" width="31" height="29" fill="#fff" mask="url(#satori_om-id)"/></mask><g mask="url(#satori_om-id)" clip-path="url(#satori_cp-id)"><path fill="#ffffff" d="M429.4 51.2L429.4 51.2Q427.6 51.2 426.2 50.6Q424.8 49.9 424.0 48.8Q423.1 47.6 423.1 46.1L423.1 46.1L426.6 46.1Q426.6 46.8 427.0 47.3Q427.4 47.8 428 48.1Q428.6 48.4 429.4 48.4L429.4 48.4Q430.2 48.4 430.9 48.0Q431.6 47.6 432.0 46.9Q432.4 46.2 432.4 45.3L432.4 45.3Q432.4 44.4 432.0 43.6Q431.6 42.9 430.9 42.5Q430.2 42.1 429.3 42.1L429.3 42.1Q428.5 42.1 427.8 42.4Q427.1 42.7 426.7 43.3L426.7 43.3L423.5 42.7L424.3 33.5L434.9 33.5L434.9 36.5L427.3 36.5L426.8 40.9L426.9 40.9Q427.4 40.3 428.3 39.9Q429.2 39.5 430.3 39.5L430.3 39.5Q431.5 39.5 432.5 39.9Q433.5 40.3 434.3 41.1Q435.0 41.8 435.4 42.9Q435.8 43.9 435.8 45.2L435.8 45.2Q435.8 47.0 435.0 48.3Q434.2 49.7 432.7 50.5Q431.3 51.2 429.4 51.2ZM444.7 51.2L444.7 51.2Q442.8 51.2 441.3 50.6Q439.8 49.9 438.9 48.8Q438.0 47.7 438.0 46.3L438.0 46.3Q438.0 45.2 438.5 44.3Q439.0 43.4 439.9 42.8Q440.7 42.2 441.8 42.0L441.8 42.0L441.8 41.9Q440.4 41.6 439.5 40.5Q438.7 39.4 438.7 38.0L438.7 38.0Q438.7 36.6 439.4 35.6Q440.2 34.5 441.6 33.9Q443.0 33.3 444.7 33.3L444.7 33.3Q446.5 33.3 447.9 33.9Q449.2 34.5 450.0 35.6Q450.8 36.6 450.8 38.0L450.8 38.0Q450.8 39.4 449.9 40.5Q449.1 41.6 447.7 41.9L447.7 41.9L447.7 42.0Q448.7 42.2 449.6 42.8Q450.4 43.4 451.0 44.3Q451.5 45.2 451.5 46.3L451.5 46.3Q451.5 47.7 450.6 48.8Q449.7 49.9 448.2 50.6Q446.7 51.2 444.7 51.2ZM444.7 48.6L444.7 48.6Q445.6 48.6 446.3 48.3Q447.0 47.9 447.3 47.4Q447.7 46.8 447.7 46.0L447.7 46.0Q447.7 45.3 447.3 44.7Q446.9 44.1 446.3 43.7Q445.6 43.4 444.7 43.4L444.7 43.4Q443.9 43.4 443.2 43.7Q442.5 44.1 442.1 44.7Q441.7 45.2 441.7 46.0L441.7 46.0Q441.7 46.8 442.1 47.4Q442.5 47.9 443.2 48.3Q443.8 48.6 444.7 48.6ZM444.7 40.8L444.7 40.8Q445.5 40.8 446.1 40.5Q446.6 40.1 447.0 39.6Q447.3 39.1 447.3 38.4L447.3 38.4Q447.3 37.7 447.0 37.1Q446.7 36.6 446.1 36.3Q445.5 36.0 444.7 36.0L444.7 36.0Q444.0 36.0 443.4 36.3Q442.8 36.6 442.5 37.1Q442.2 37.7 442.2 38.4L442.2 38.4Q442.2 39.1 442.5 39.6Q442.8 40.1 443.4 40.5Q444.0 40.8 444.7 40.8Z "/></g><mask id="satori_om-id-1-4-1"><rect x="415" y="61" width="44" height="12" fill="#fff" mask="url(#satori_om-id)"/></mask><g mask="url(#satori_om-id)" clip-path="url(#satori_cp-id)"><path fill="#5a9ca8" d="M417.1 71L415.7 71L415.7 63.7L418.5 63.7Q419.3 63.7 419.9 64.0Q420.5 64.3 420.8 64.8Q421.1 65.4 421.1 66.1Q421.1 66.8 420.8 67.3Q420.5 67.9 419.9 68.1L419.9 68.1Q419.8 68.1 419.8 68.2L419.8 68.2L421.4 71L419.7 71L418.3 68.4L417.1 68.4L417.1 71ZM417.1 65.0L417.1 67.2L418.2 67.2Q418.7 67.2 419.0 67.1Q419.3 66.9 419.4 66.7Q419.6 66.5 419.6 66.1L419.6 66.1Q419.6 65.7 419.4 65.5Q419.3 65.2 419.0 65.1Q418.7 65.0 418.2 65.0L418.2 65.0L417.1 65.0ZM429.1 71L424.2 71L424.2 63.7L429.1 63.7L429.1 65.0L425.7 65.0L425.7 66.7L428.8 66.7L428.8 67.9L425.7 67.9L425.7 69.8L429.1 69.8L429.1 71ZM433.8 71L432.3 71L432.3 63.7L435.1 63.7Q436.0 63.7 436.5 64.0Q437.1 64.4 437.4 64.9Q437.7 65.5 437.7 66.2L437.7 66.2Q437.7 66.9 437.4 67.5Q437.1 68.0 436.5 68.3Q435.9 68.6 435.1 68.6L435.1 68.6L433.8 68.6L433.8 71ZM433.8 65.0L433.8 67.4L434.9 67.4Q435.3 67.4 435.6 67.3Q435.9 67.1 436.1 66.8Q436.2 66.5 436.2 66.2Q436.2 65.8 436.1 65.5Q435.9 65.3 435.6 65.1Q435.3 65.0 434.9 65.0L434.9 65.0L433.8 65.0ZM444.0 71.1L444.0 71.1Q443.0 71.1 442.2 70.7Q441.5 70.2 441.0 69.4Q440.6 68.5 440.6 67.4L440.6 67.4Q440.6 66.2 441.0 65.3Q441.5 64.5 442.2 64.1Q443.0 63.6 444.0 63.6L444.0 63.6Q444.9 63.6 445.7 64.1Q446.5 64.5 446.9 65.3Q447.4 66.2 447.4 67.4L447.4 67.4Q447.4 68.5 446.9 69.4Q446.5 70.2 445.7 70.7Q444.9 71.1 444.0 71.1ZM444.0 69.8L444.0 69.8Q444.5 69.8 445.0 69.5Q445.4 69.2 445.6 68.7Q445.9 68.1 445.9 67.4L445.9 67.4Q445.9 66.6 445.6 66.0Q445.4 65.5 445.0 65.2Q444.5 65.0 444.0 65.0L444.0 65.0Q443.4 65.0 443.0 65.2Q442.6 65.5 442.3 66.0Q442.1 66.6 442.1 67.4L442.1 67.4Q442.1 68.1 442.3 68.7Q442.6 69.2 443.0 69.5Q443.4 69.8 444.0 69.8ZM453.2 71.1L453.2 71.1Q452.3 71.1 451.6 70.8Q451.0 70.6 450.6 70.0Q450.3 69.5 450.2 68.7L450.2 68.7L451.7 68.7Q451.7 69.1 451.9 69.4Q452.1 69.6 452.4 69.7Q452.7 69.8 453.1 69.8L453.1 69.8Q453.5 69.8 453.8 69.7Q454.1 69.6 454.3 69.4Q454.5 69.2 454.5 68.9L454.5 68.9Q454.5 68.7 454.3 68.5Q454.2 68.3 453.9 68.2Q453.6 68.1 453.2 68.0L453.2 68.0L452.4 67.8Q451.5 67.6 451.0 67.1Q450.4 66.6 450.4 65.8L450.4 65.8Q450.4 65.2 450.8 64.7Q451.1 64.2 451.8 63.9Q452.4 63.6 453.2 63.6L453.2 63.6Q454.0 63.6 454.6 63.9Q455.2 64.2 455.5 64.7Q455.9 65.2 455.9 65.8L455.9 65.8L454.4 65.8Q454.4 65.4 454.0 65.1Q453.7 64.9 453.2 64.9L453.2 64.9Q452.8 64.9 452.5 65.0Q452.2 65.1 452.1 65.3Q452.0 65.5 452.0 65.7L452.0 65.7Q452.0 66.0 452.1 66.2Q452.3 66.3 452.6 66.5Q452.8 66.6 453.1 66.6L453.1 66.6L453.8 66.8Q454.2 66.9 454.6 67.1Q455.0 67.3 455.3 67.5Q455.6 67.8 455.8 68.1Q456.0 68.5 456.0 68.9L456.0 68.9Q456.0 69.6 455.6 70.1Q455.3 70.6 454.7 70.8Q454.0 71.1 453.2 71.1Z "/></g><mask id="satori_om-id-1-5"><rect x="489" y="31" width="1" height="40" fill="#fff" mask="url(#satori_om-id)"/></mask><rect x="489" y="31" width="1" height="40" fill="rgba(120,80,220,0.2)" clip-path="url(#satori_cp-id)" mask="url(#satori_om-id)"/><mask id="satori_om-id-1-6"><rect x="520" y="28" width="75" height="45" fill="#fff" mask="url(#satori_om-id)"/></mask><mask id="satori_om-id-1-6-0"><rect x="520" y="28" width="75" height="29" fill="#fff" mask="url(#satori_om-id)"/></mask><g mask="url(#satori_om-id)" clip-path="url(#satori_cp-id)"><path fill="#ffffff" d="M529.5 47.9L521.2 47.9L521.2 45.1L528.5 33.5L533.0 33.5L533.0 45.0L535.2 45.0L535.2 47.9L533.0 47.9L533.0 51L529.5 51L529.5 47.9ZM524.8 45.0L529.6 45.0L529.6 37.5L529.5 37.5L524.8 44.9L524.8 45.0ZM540.3 33.5L544.1 33.5L544.1 51L540.5 51L540.5 36.7L540.4 36.7L536.4 39.5L536.4 36.2L540.3 33.5ZM555.2 47.9L546.8 47.9L546.8 45.1L554.1 33.5L558.6 33.5L558.6 45.0L560.8 45.0L560.8 47.9L558.6 47.9L558.6 51L555.2 51L555.2 47.9ZM550.5 45.0L555.3 45.0L555.3 37.5L555.1 37.5L550.5 44.9L550.5 45.0ZM570.0 51.2L570.0 51.2Q567.8 51.2 566.2 50.2Q564.7 49.1 563.8 47.1Q563.0 45.1 563.0 42.3L563.0 42.3Q563.0 39.5 563.8 37.4Q564.7 35.4 566.2 34.4Q567.8 33.3 570.0 33.3L570.0 33.3Q572.2 33.3 573.7 34.4Q575.3 35.4 576.1 37.5Q577.0 39.5 577.0 42.3L577.0 42.3Q577.0 45.1 576.2 47.1Q575.3 49.1 573.8 50.2Q572.2 51.2 570.0 51.2ZM570.0 48.3L570.0 48.3Q571.1 48.3 571.8 47.6Q572.5 46.9 572.9 45.5Q573.3 44.2 573.3 42.3L573.3 42.3Q573.3 40.4 572.9 39.0Q572.5 37.7 571.8 37.0Q571.1 36.3 570.0 36.3L570.0 36.3Q568.9 36.3 568.2 37.0Q567.4 37.7 567.0 39.0Q566.6 40.4 566.6 42.3L566.6 42.3Q566.6 44.2 567.0 45.5Q567.4 46.9 568.2 47.6Q568.9 48.3 570.0 48.3ZM585.8 51.2L585.8 51.2Q583.9 51.2 582.4 50.6Q581.0 49.9 580.1 48.8Q579.3 47.6 579.2 46.1L579.2 46.1L582.8 46.1Q582.9 46.8 583.3 47.2Q583.7 47.7 584.3 48Q585.0 48.3 585.8 48.3L585.8 48.3Q586.7 48.3 587.3 48.0Q588.0 47.7 588.4 47.1Q588.7 46.6 588.7 45.9L588.7 45.9Q588.7 45.2 588.3 44.6Q588.0 44.1 587.2 43.7Q586.5 43.4 585.5 43.4L585.5 43.4L583.9 43.4L583.9 40.8L585.5 40.8Q586.3 40.8 587.0 40.5Q587.6 40.2 588.0 39.7Q588.4 39.1 588.4 38.4L588.4 38.4Q588.4 37.7 588.1 37.2Q587.7 36.7 587.2 36.5Q586.6 36.2 585.8 36.2L585.8 36.2Q585.1 36.2 584.4 36.4Q583.8 36.7 583.4 37.2Q583.0 37.7 583.0 38.4L583.0 38.4L579.6 38.4Q579.6 36.9 580.4 35.7Q581.3 34.6 582.7 33.9Q584.1 33.3 585.9 33.3L585.9 33.3Q587.7 33.3 589 34.0Q590.3 34.6 591.1 35.7Q591.8 36.8 591.8 38.2L591.8 38.2Q591.8 39.7 590.9 40.7Q590.0 41.6 588.6 41.9L588.6 41.9L588.6 42.0Q589.8 42.2 590.7 42.8Q591.6 43.3 592.0 44.2Q592.5 45.0 592.5 46.1L592.5 46.1Q592.5 47.6 591.6 48.8Q590.8 49.9 589.3 50.6Q587.7 51.2 585.8 51.2Z "/></g><mask id="satori_om-id-1-6-1"><rect x="526" y="61" width="64" height="12" fill="#fff" mask="url(#satori_om-id)"/></mask><g mask="url(#satori_om-id)" clip-path="url(#satori_cp-id)"><path fill="#7ee7ff" d="M529.8 71.1L529.8 71.1Q528.9 71.1 528.1 70.7Q527.3 70.2 526.9 69.4Q526.5 68.5 526.5 67.4L526.5 67.4Q526.5 66.2 526.9 65.3Q527.3 64.5 528.1 64.1Q528.9 63.6 529.8 63.6L529.8 63.6Q530.5 63.6 531.0 63.8Q531.5 64.0 531.9 64.3Q532.4 64.6 532.6 65.1Q532.9 65.6 533.0 66.2L533.0 66.2L531.5 66.2Q531.4 65.9 531.3 65.7Q531.1 65.4 530.9 65.3Q530.7 65.1 530.4 65.0Q530.2 65.0 529.9 65.0L529.9 65.0Q529.3 65.0 528.9 65.2Q528.4 65.5 528.2 66.1Q528.0 66.6 528.0 67.4L528.0 67.4Q528.0 68.2 528.2 68.7Q528.5 69.2 528.9 69.5Q529.3 69.8 529.9 69.8L529.9 69.8Q530.2 69.8 530.4 69.7Q530.7 69.6 530.9 69.4Q531.1 69.3 531.3 69.0Q531.4 68.8 531.5 68.5L531.5 68.5L533.0 68.5Q532.9 69.0 532.7 69.5Q532.4 69.9 532.0 70.3Q531.6 70.7 531.1 70.9Q530.5 71.1 529.8 71.1ZM539.3 71.1L539.3 71.1Q538.3 71.1 537.5 70.7Q536.8 70.2 536.3 69.4Q535.9 68.5 535.9 67.4L535.9 67.4Q535.9 66.2 536.3 65.3Q536.8 64.5 537.5 64.1Q538.3 63.6 539.3 63.6L539.3 63.6Q540.2 63.6 541.0 64.1Q541.8 64.5 542.2 65.3Q542.6 66.2 542.6 67.4L542.6 67.4Q542.6 68.5 542.2 69.4Q541.8 70.2 541.0 70.7Q540.2 71.1 539.3 71.1ZM539.3 69.8L539.3 69.8Q539.8 69.8 540.2 69.5Q540.7 69.2 540.9 68.7Q541.1 68.1 541.1 67.4L541.1 67.4Q541.1 66.6 540.9 66.0Q540.7 65.5 540.2 65.2Q539.8 65.0 539.3 65.0L539.3 65.0Q538.7 65.0 538.3 65.2Q537.8 65.5 537.6 66.0Q537.4 66.6 537.4 67.4L537.4 67.4Q537.4 68.1 537.6 68.7Q537.8 69.2 538.3 69.5Q538.7 69.8 539.3 69.8ZM547.2 71L545.8 71L545.8 63.7L548.0 63.7L549.2 67.1Q549.3 67.3 549.4 67.7Q549.5 68.0 549.6 68.5L549.6 68.5Q549.7 68.9 549.8 69.3L549.8 69.3Q549.9 68.9 549.9 68.5L549.9 68.5Q550.0 68.1 550.1 67.7Q550.2 67.3 550.3 67.1L550.3 67.1L551.5 63.7L553.8 63.7L553.8 71L552.3 71L552.3 67.6Q552.3 67.3 552.3 67.0Q552.3 66.6 552.3 66.2Q552.3 65.8 552.3 65.4L552.3 65.4Q552.3 65.2 552.3 65.0L552.3 65.0Q552.3 65.2 552.2 65.4L552.2 65.4Q552.1 65.9 552.0 66.3Q551.9 66.7 551.8 67.0Q551.7 67.3 551.6 67.6L551.6 67.6L550.4 71L549.1 71L547.9 67.6Q547.8 67.3 547.7 67.0Q547.6 66.7 547.5 66.3Q547.4 65.9 547.3 65.4L547.3 65.4Q547.2 65.2 547.2 65.1L547.2 65.1Q547.2 65.2 547.2 65.4L547.2 65.4Q547.2 65.8 547.2 66.2Q547.2 66.6 547.2 67.0Q547.2 67.3 547.2 67.6L547.2 67.6L547.2 71ZM558.6 71L557.1 71L557.1 63.7L559.4 63.7L560.5 67.1Q560.6 67.3 560.7 67.7Q560.8 68.0 560.9 68.5L560.9 68.5Q561.0 68.9 561.1 69.3L561.1 69.3Q561.2 68.9 561.3 68.5L561.3 68.5Q561.4 68.1 561.5 67.7Q561.6 67.3 561.6 67.1L561.6 67.1L562.8 63.7L565.1 63.7L565.1 71L563.6 71L563.6 67.6Q563.6 67.3 563.6 67.0Q563.6 66.6 563.6 66.2Q563.6 65.8 563.6 65.4L563.6 65.4Q563.6 65.2 563.6 65.0L563.6 65.0Q563.6 65.2 563.5 65.4L563.5 65.4Q563.4 65.9 563.3 66.3Q563.2 66.7 563.1 67.0Q563.0 67.3 562.9 67.6L562.9 67.6L561.7 71L560.5 71L559.2 67.6Q559.2 67.3 559.1 67.0Q558.9 66.7 558.8 66.3Q558.7 65.9 558.6 65.4L558.6 65.4Q558.6 65.2 558.5 65.1L558.5 65.1Q558.5 65.2 558.5 65.4L558.5 65.4Q558.5 65.8 558.5 66.2Q558.5 66.6 558.6 67.0Q558.6 67.3 558.6 67.6L558.6 67.6L558.6 71ZM568.4 63.7L569.9 63.7L569.9 71L568.4 71L568.4 63.7ZM575.1 65.0L572.9 65.0L572.9 63.7L578.9 63.7L578.9 65.0L576.6 65.0L576.6 71L575.1 71L575.1 65.0ZM584.5 71.1L584.5 71.1Q583.7 71.1 583.0 70.8Q582.4 70.6 582.0 70.0Q581.7 69.5 581.6 68.7L581.6 68.7L583.1 68.7Q583.1 69.1 583.3 69.4Q583.5 69.6 583.8 69.7Q584.1 69.8 584.5 69.8L584.5 69.8Q584.9 69.8 585.2 69.7Q585.5 69.6 585.7 69.4Q585.9 69.2 585.9 68.9L585.9 68.9Q585.9 68.7 585.7 68.5Q585.6 68.3 585.3 68.2Q585.0 68.1 584.6 68.0L584.6 68.0L583.8 67.8Q582.9 67.6 582.4 67.1Q581.8 66.6 581.8 65.8L581.8 65.8Q581.8 65.2 582.2 64.7Q582.5 64.2 583.2 63.9Q583.8 63.6 584.6 63.6L584.6 63.6Q585.4 63.6 586.0 63.9Q586.6 64.2 586.9 64.7Q587.2 65.2 587.3 65.8L587.3 65.8L585.8 65.8Q585.8 65.4 585.4 65.1Q585.1 64.9 584.5 64.9L584.5 64.9Q584.2 64.9 583.9 65.0Q583.6 65.1 583.5 65.3Q583.4 65.5 583.4 65.7L583.4 65.7Q583.4 66.0 583.5 66.2Q583.7 66.3 583.9 66.5Q584.2 66.6 584.5 66.6L584.5 66.6L585.2 66.8Q585.6 66.9 586.0 67.1Q586.4 67.3 586.7 67.5Q587.0 67.8 587.2 68.1Q587.4 68.5 587.4 68.9L587.4 68.9Q587.4 69.6 587.0 70.1Q586.7 70.6 586.1 70.8Q585.4 71.1 584.5 71.1Z "/></g></svg>