<!-- Generated by readme-aura https://github.com/collectioneur/readme-aura -->
<svg width="800" height="100" viewBox="0 0 800 100" xmlns="http://www.w3.org/2000/svg"><defs><clipPath id="satori_bc-id"><path x="0" y="0" width="800" height="100" d="M16,0 h768 a16,16 0 0 1 16,16 v68 a16,16 0 0 1 -16,16 h-768 a16,16 0 0 1 -16,-16 v-68 a16,16 0 0 1 16,-16"/></clipPath></defs><clipPath id="satori_cp-id"><path x="0" y="0" width="800" height="100" d="M16,0 h768 a16,16 0 0 1 16,16 v68 a16,16 0 0 1 -16,16 h-768 a16,16 0 0 1 -16,-16 v-68 a16,16 0 0 1 16,-16"/></clipPath><mask id="satori_om-id"><rect x="1" y="1" width="798" height="98" fill="#fff"/><path width="800" height="100" fill="none" stroke="#000" stroke-width="2" d="M4.686,4.686 A16,16 0 0 1 16,0 h768 a16,16 0 0 1 16,16 v68 a16,16 0 0 1 -16,16 h-768 a16,16 0 0 1 -16,-16 v-68 A16,16 0 0 1 4.686,4.686"/></mask><path x="0" y="0" width="800" height="100" fill="#06060a" d="M16,0 h768 a16,16 0 0 1 16,16 v68 a16,16 0 0 1 -16,16 h-768 a16,16 0 0 1 -16,-16 v-68 a16,16 0 0 1 16,-16"/><path width="800" height="100" clip-path="url(#satori_bc-id)" fill="none" stroke="rgba(110,80,220,0.15)" stroke-width="2" d="M4.686,4.686 A16,16 0 0 1 16,0 h768 a16,16 0 0 1 16,16 v68 a16,16 0 0 1 -16,16 h-768 a16,16 0 0 1 -16,-16 v-68 A16,16 0 0 1 4.686,4.686"/><clipPath id="satori_cp-id-0" clip-path="url(#satori_cp-id)"><rect x="1" y="1" width="800" height="100"/></clipPath><mask id="satori_om-id-0"><rect x="1" y="1" width="800" height="100" fill="#fff" mask="url(#satori_om-id)"/></mask><svg x="1" y="1" width="800" height="100" preserveAspectRatio="none" clip-path="url(#satori_cp-id-0)" mask="url(#satori_om-id-0)"><defs><radialGradient id="stg1" cx="50%" cy="50%" r="50%"><stop offset="0%" stop-color="rgba(120,40,220,0.5)"></stop><stop offset="100%" stop-color="rgba(120,40,220,0)"></stop></radialGradient><linearGradient id="st-scg" x1="0%" y1="0%" x2="100%" y2="0%"><stop offset="0%" stop-color="rgba(120,200,255,0)"></stop><stop offset="45%" stop-color="rgba(120,200,255,0.12)"></stop><stop offset="50%" stop-color="rgba(180,120,255,0.3)"></stop><stop offset="55%" stop-color="rgba(120,200,255,0.12)"></stop><stop offset="100%" stop-color="rgba(120,200,255,0)"></stop></linearGradient></defs><ellipse id="stat-g1" cx="400" cy="50" rx="250" ry="60" fill="url(#stg1)"></ellipse><rect id="stat-scan1" x="0" y="50" width="160" height="1" fill="url(#st-scg)"></rect><style>

      @keyframes stat-drift-r { 0%, 100% { transform: translate(0, 0); opacity: 0.7; } 50% { transform: translate(25px, -12px); opacity: 1; } }
      @keyframes stat-scan { 0% { transform: translate(-900px, 0); } 100% { transform: translate(900px, 0); } }
      #stat-g1 { animation: stat-drift-r 7s ease-in-out infinite; }
      #stat-scan1 { animation: stat-scan 4s linear infinite; }
    
</style>
</svg><mask id="satori_om-id-0-0"><rect x="1" y="1" width="0" height="100" fill="#fff" mask="url(#satori_om-id)"/></mask><mask id="satori_om-id-0-0-0"><rect x="1" y="1" width="0" height="100" fill="#fff" mask="url(#satori_om-id)"/></mask><mask id="satori_om-id-0-0-0-0"><rect x="1" y="1" width="0" height="100" fill="#fff" mask="url(#satori_om-id)"/></mask><mask id="satori_om-id-0-0-0-1"><rect x="1" y="1" width="0" height="100" fill="#fff" mask="url(#satori_om-id)"/></mask><mask id="satori_om-id-0-0-1"><rect x="1" y="1" width="0" height="100" fill="#fff" mask="url(#satori_om-id)"/></mask><mask id="satori_om-id-0-0-1-0"><rect x="1" y="1" width="0" height="100" fill="#fff" mask="url(#satori_om-id)"/></mask><mask id="satori_om-id-0-0-1-1"><rect x="1" y="1" width="0" height="100" fill="#fff" mask="url(#satori_om-id)"/></mask><mask id="satori_om-id-0-0-1-2"><rect x="1" y="1" width="0" height="100" fill="#fff" mask="url(#satori_om-id)"/></mask><mask id="satori_om-id-0-0-1-3"><rect x="1" y="1" width="0" height="100" fill="#fff" mask="url(#satori_om-id)"/></mask><mask id="satori_om-id-0-0-1-4"><rect x="1" y="1" width="0" height="100" fill="#fff" mask="url(#satori_om-id)"/></mask><mask id="satori_om-id-0-1"><rect x="1" y="1" width="0" height="100" fill="#fff" mask="url(#satori_om-id)"/></mask><mask id="satori_om-id-0-2"><rect x="1" y="1" width="0" height="100" fill="#fff" mask="url(#satori_om-id)"/></mask><mask id="satori_om-id-1"><rect x="203" y="28" width="394" height="45" fill="#fff" mask="url(#satori_om-id)"/></mask><mask id="satori_om-id-1-0"><rect x="203" y="28" width="44" height="45" fill="#fff" mask="url(#satori_om-id)"/></mask><mask id="satori_om-id-1-0-0"><rect x="210" y="28" width="31" height="29" fill="#fff" mask="url(#satori_om-id)"/></mask><g mask="url(#satori_om-id)" clip-path="url(#satori_cp-id)"><path fill="#ffffff" d="M223.8 51L211.5 51L211.5 48.4L217.6 42.6Q218.4 41.8 219.0 41.2Q219.5 40.6 219.8 40.0Q220.1 39.4 220.1 38.7L220.1 38.7Q220.1 37.9 219.8 37.3Q219.4 36.8 218.8 36.5Q218.2 36.2 217.4 36.2L217.4 36.2Q216.6 36.2 216.0 36.5Q215.4 36.8 215.0 37.4Q214.7 38.0 214.7 38.9L214.7 38.9L211.3 38.9Q211.3 37.2 212.1 35.9Q212.8 34.7 214.2 34.0Q215.6 33.3 217.4 33.3L217.4 33.3Q219.3 33.3 220.7 34.0Q222.0 34.6 222.8 35.8Q223.6 36.9 223.6 38.5L223.6 38.5Q223.6 39.4 223.2 40.4Q222.8 41.3 221.8 42.5Q220.9 43.7 219.1 45.3L219.1 45.3L216.4 47.9L216.4 48.1L223.8 48.1L223.8 51ZM232.9 51.2L232.9 51.2Q231.0 51.2 229.5 50.6Q227.9 49.9 227.1 48.8Q226.2 47.7 226.2 46.3L226.2 46.3Q226.2 45.2 226.7 44.3Q227.2 43.4 228.1 42.8Q228.9 42.2 230.0 42.0L230.0 42.0L230.0 41.9Q228.6 41.6 227.7 40.5Q226.9 39.4 226.9 38.0L226.9 38.0Q226.9 36.6 227.6 35.6Q228.4 34.5 229.8 33.9Q231.2 33.3 232.9 33.3L232.9 33.3Q234.7 33.3 236.0 33.9Q237.4 34.5 238.2 35.6Q239.0 36.6 239.0 38.0L239.0 38.0Q239.0 39.4 238.1 40.5Q237.2 41.6 235.9 41.9L235.9 41.9L235.9 42.0Q236.9 42.2 237.8 42.8Q238.6 43.4 239.1 44.3Q239.6 45.2 239.6 46.3L239.6 46.3Q239.6 47.7 238.8 48.8Q237.9 49.9 236.4 50.6Q234.9 51.2 232.9 51.2ZM232.9 48.6L232.9 48.6Q233.8 48.6 234.5 48.3Q235.2 47.9 235.5 47.4Q235.9 46.8 235.9 46.0L235.9 46.0Q235.9 45.3 235.5 44.7Q235.1 44.1 234.5 43.7Q233.8 43.4 232.9 43.4L232.9 43.4Q232.1 43.4 231.4 43.7Q230.7 44.1 230.3 44.7Q229.9 45.2 229.9 46.0L229.9 46.0Q229.9 46.8 230.3 47.4Q230.7 47.9 231.4 48.3Q232.0 48.6 232.9 48.6ZM232.9 40.8L232.9 40.8Q233.7 40.8 234.3 40.5Q234.8 40.1 235.2 39.6Q235.5 39.1 235.5 38.4L235.5 38.4Q235.5 37.7 235.2 37.1Q234.8 36.6 234.3 36.3Q233.7 36.0 232.9 36.0L232.9 36.0Q232.2 36.0 231.6 36.3Q231 36.6 230.7 37.1Q230.3 37.7 230.3 38.4L230.3 38.4Q230.3 39.1 230.7 39.6Q231 40.1 231.6 40.5Q232.2 40.8 232.9 40.8Z "/></g><mask id="satori_om-id-1-0-1"><rect x="203" y="61" width="44" height="12" fill="#fff" mask="url(#satori_om-id)"/></mask><g mask="url(#satori_om-id)" clip-path="url(#satori_cp-id)"><path fill="#b8860b" d="M206.3 71.1L206.3 71.1Q205.5 71.1 204.8 70.8Q204.2 70.6 203.8 70.0Q203.4 69.5 203.4 68.7L203.4 68.7L204.9 68.7Q204.9 69.1 205.1 69.4Q205.3 69.6 205.6 69.7Q205.9 69.8 206.3 69.8L206.3 69.8Q206.7 69.8 207.0 69.7Q207.3 69.6 207.5 69.4Q207.6 69.2 207.6 68.9L207.6 68.9Q207.6 68.7 207.5 68.5Q207.3 68.3 207.1 68.2Q206.8 68.1 206.4 68.0L206.4 68.0L205.6 67.8Q204.7 67.6 204.1 67.1Q203.6 66.6 203.6 65.8L203.6 65.8Q203.6 65.2 204.0 64.7Q204.3 64.2 204.9 63.9Q205.6 63.6 206.3 63.6L206.3 63.6Q207.2 63.6 207.8 63.9Q208.4 64.2 208.7 64.7Q209.0 65.2 209.0 65.8L209.0 65.8L207.6 65.8Q207.6 65.4 207.2 65.1Q206.9 64.9 206.3 64.9L206.3 64.9Q206.0 64.9 205.7 65.0Q205.4 65.1 205.3 65.3Q205.1 65.5 205.1 65.7L205.1 65.7Q205.1 66.0 205.3 66.2Q205.5 66.3 205.7 66.5Q206.0 66.6 206.3 66.6L206.3 66.6L207.0 66.8Q207.4 66.9 207.8 67.1Q208.2 67.3 208.5 67.5Q208.8 67.8 209.0 68.1Q209.1 68.5 209.1 68.9L209.1 68.9Q209.1 69.6 208.8 70.1Q208.5 70.6 207.8 70.8Q207.2 71.1 206.3 71.1ZM214.1 65.0L211.9 65.0L211.9 63.7L217.9 63.7L217.9 65.0L215.6 65.0L215.6 71L214.1 71L214.1 65.0ZM222.1 71L220.5 71L222.9 63.7L224.9 63.7L227.4 71L225.8 71L225.2 69.3L222.6 69.3L222.1 71ZM223.0 68.1L224.8 68.1L224.6 67.5Q224.4 66.8 224.2 66L224.2 66Q224.1 65.5 223.9 64.9L223.9 64.9Q223.8 65.5 223.6 66.0L223.6 66.0Q223.4 66.8 223.2 67.5L223.2 67.5L223.0 68.1ZM231.8 71L230.3 71L230.3 63.7L233.2 63.7Q234.0 63.7 234.6 64.0Q235.2 64.3 235.5 64.8Q235.8 65.4 235.8 66.1Q235.8 66.8 235.5 67.3Q235.2 67.9 234.6 68.1L234.6 68.1Q234.5 68.1 234.5 68.2L234.5 68.2L236.0 71L234.4 71L233.0 68.4L231.8 68.4L231.8 71ZM231.8 65.0L231.8 67.2L232.9 67.2Q233.4 67.2 233.7 67.1Q234.0 66.9 234.1 66.7Q234.2 66.5 234.2 66.1L234.2 66.1Q234.2 65.7 234.1 65.5Q234.0 65.2 233.7 65.1Q233.4 65.0 232.9 65.0L232.9 65.0L231.8 65.0ZM241.6 71.1L241.6 71.1Q240.7 71.1 240.1 70.8Q239.4 70.6 239.1 70.0Q238.7 69.5 238.7 68.7L238.7 68.7L240.1 68.7Q240.2 69.1 240.3 69.4Q240.5 69.6 240.8 69.7Q241.2 69.8 241.6 69.8L241.6 69.8Q242.0 69.8 242.3 69.7Q242.6 69.6 242.7 69.4Q242.9 69.2 242.9 68.9L242.9 68.9Q242.9 68.7 242.7 68.5Q242.6 68.3 242.3 68.2Q242.0 68.1 241.6 68.0L241.6 68.0L240.8 67.8Q239.9 67.6 239.4 67.1Q238.9 66.6 238.9 65.8L238.9 65.8Q238.9 65.2 239.2 64.7Q239.6 64.2 240.2 63.9Q240.8 63.6 241.6 63.6L241.6 63.6Q242.4 63.6 243.0 63.9Q243.6 64.2 243.9 64.7Q244.3 65.2 244.3 65.8L244.3 65.8L242.9 65.8Q242.8 65.4 242.5 65.1Q242.1 64.9 241.6 64.9L241.6 64.9Q241.2 64.9 240.9 65.0Q240.7 65.1 240.5 65.3Q240.4 65.5 240.4 65.7L240.4 65.7Q240.4 66.0 240.6 66.2Q240.7 66.3 241.0 66.5Q241.3 66.6 241.6 66.6L241.6 66.6L242.2 66.8Q242.7 66.9 243.1 67.1Q243.5 67.3 243.8 67.5Q244.1 67.8 244.2 68.1Q244.4 68.5 244.4 68.9L244.4 68.9Q244.4 69.6 244.1 70.1Q243.7 70.6 243.1 70.8Q242.5 71.1 241.6 71.1Z "/></g><mask id="satori_om-id-1-1"><rect x="277" y="31" width="1" height="40" fill="#fff" mask="url(#satori_om-id)"/></mask><rect x="277" y="31" width="1" height="40" fill="rgba(120,80,220,0.2)" clip-path="url(#satori_cp-id)" mask="url(#satori_om-id)"/><mask id="satori_om-id-1-2"><rect x="308" y="28" width="44" height="45" fill="#fff" mask="url(#satori_om-id)"/></mask><mask id="satori_om-id-1-2-0"><rect x="322" y="28" width="17" height="29" fill="#fff" mask="url(#satori_om-id)"/></mask><g mask="url(#satori_om-id)" clip-path="url(#satori_cp-id)"><path fill="#ffffff" d="M331.5 47.9L323.2 47.9L323.2 45.1L330.5 33.5L335.0 33.5L335.0 45.0L337.2 45.0L337.2 47.9L335.0 47.9L335.0 51L331.5 51L331.5 47.9ZM326.8 45.0L331.6 45.0L331.6 37.5L331.5 37.5L326.8 44.9L326.8 45.0Z "/></g><mask id="satori_om-id-1-2-1"><rect x="308" y="61" width="44" height="12" fill="#fff" mask="url(#satori_om-id)"/></mask><g mask="url(#satori_om-id)" clip-path="url(#satori_cp-id)"><path fill="#8b7ec8" d="M310.1 71L308.7 71L308.7 63.7L313.4 63.7L313.4 65.0L310.1 65.0L310.1 67.0L313.1 67.0L313.1 68.2L310.1 68.2L310.1 71ZM319.7 71.1L319.7 71.1Q318.8 71.1 318.0 70.7Q317.2 70.2 316.8 69.4Q316.3 68.5 316.3 67.4L316.3 67.4Q316.3 66.2 316.8 65.3Q317.2 64.5 318.0 64.1Q318.8 63.6 319.7 63.6L319.7 63.6Q320.7 63.6 321.5 64.1Q322.2 64.5 322.7 65.3Q323.1 66.2 323.1 67.4L323.1 67.4Q323.1 68.5 322.7 69.4Q322.2 70.2 321.5 70.7Q320.7 71.1 319.7 71.1ZM319.7 69.8L319.7 69.8Q320.3 69.8 320.7 69.5Q321.1 69.2 321.4 68.7Q321.6 68.1 321.6 67.4L321.6 67.4Q321.6 66.6 321.4 66.0Q321.1 65.5 320.7 65.2Q320.3 65.0 319.7 65.0L319.7 65.0Q319.2 65.0 318.7 65.2Q318.3 65.5 318.1 66.0Q317.8 66.6 317.8 67.4L317.8 67.4Q317.8 68.1 318.1 68.7Q318.3 69.2 318.7 69.5Q319.2 69.8 319.7 69.8ZM327.7 71L326.2 71L326.2 63.7L329.1 63.7Q329.9 63.7 330.5 64.0Q331.1 64.3 331.4 64.8Q331.7 65.4 331.7 66.1Q331.7 66.8 331.4 67.3Q331.1 67.9 330.5 68.1L330.5 68.1Q330.4 68.1 330.4 68.2L330.4 68.2L331.9 71L330.3 71L328.9 68.4L327.7 68.4L327.7 71ZM327.7 65.0L327.7 67.2L328.8 67.2Q329.3 67.2 329.5 67.1Q329.8 66.9 330.0 66.7Q330.1 66.5 330.1 66.1L330.1 66.1Q330.1 65.7 330.0 65.5Q329.8 65.2 329.5 65.1Q329.3 65.0 328.8 65.0L328.8 65.0L327.7 65.0ZM336.3 71L334.8 71L334.8 63.7L336.3 63.7L336.3 65.7L336.3 67.4Q336.3 67.3 336.3 67.3L336.3 67.3Q336.6 66.9 336.8 66.6Q337.1 66.2 337.4 65.8L337.4 65.8L339.2 63.7L341.0 63.7L338.3 66.9L341.1 71L339.3 71L337.3 67.9L336.3 68.9L336.3 71ZM346.7 71.1L346.7 71.1Q345.8 71.1 345.1 70.8Q344.5 70.6 344.1 70.0Q343.8 69.5 343.7 68.7L343.7 68.7L345.2 68.7Q345.2 69.1 345.4 69.4Q345.6 69.6 345.9 69.7Q346.2 69.8 346.6 69.8L346.6 69.8Q347.0 69.8 347.3 69.7Q347.6 69.6 347.8 69.4Q348.0 69.2 348.0 68.9L348.0 68.9Q348.0 68.7 347.8 68.5Q347.7 68.3 347.4 68.2Q347.1 68.1 346.7 68.0L346.7 68.0L345.9 67.8Q345.0 67.6 344.5 67.1Q343.9 66.6 343.9 65.8L343.9 65.8Q343.9 65.2 344.3 64.7Q344.7 64.2 345.3 63.9Q345.9 63.6 346.7 63.6L346.7 63.6Q347.5 63.6 348.1 63.9Q348.7 64.2 349.0 64.7Q349.4 65.2 349.4 65.8L349.4 65.8L347.9 65.8Q347.9 65.4 347.6 65.1Q347.2 64.9 346.7 64.9L346.7 64.9Q346.3 64.9 346.0 65.0Q345.8 65.1 345.6 65.3Q345.5 65.5 345.5 65.7L345.5 65.7Q345.5 66.0 345.6 66.2Q345.8 66.3 346.1 66.5Q346.3 66.6 346.6 66.6L346.6 66.6L347.3 66.8Q347.8 66.9 348.1 67.1Q348.5 67.3 348.8 67.5Q349.1 67.8 349.3 68.1Q349.5 68.5 349.5 68.9L349.5 68.9Q349.5 69.6 349.1 70.1Q348.8 70.6 348.2 70.8Q347.5 71.1 346.7 71.1Z "/></g><mask id="satori_om-id-1-3"><rect x="382" y="31" width="1" height="40" fill="#fff" mask="url(#satori_om-id)"/></mask><rect x="382" y="31" width="1" height="40" fill="rgba(120,80,220,0.2)" clip-path="url(#satori_cp-id)" mask="url(#satori_om-id)"/><mask id="satori_om-id-1-4"><rect x="413" y="28" width="44" height="45" fill="#fff" mask="url(#satori_om-id)"/></mask><mask id="satori_om-id-1-4-0"><rect x="422" y="28" width="26" height="29" fill="#fff" mask="url(#satori_om-id)"/></mask><g mask="url(#satori_om-id)" clip-path="url(#satori_cp-id)"><path fill="#ffffff" d="M429.4 51.2L429.4 51.2Q427.6 51.2 426.2 50.6Q424.8 49.9 424.0 48.8Q423.1 47.6 423.1 46.1L423.1 46.1L426.6 46.1Q426.6 46.8 427.0 47.3Q427.4 47.8 428 48.1Q428.6 48.4 429.4 48.4L429.4 48.4Q430.2 48.4 430.9 48.0Q431.6 47.6 432.0 46.9Q432.4 46.2 432.4 45.3L432.4 45.3Q432.4 44.4 432.0 43.6Q431.6 42.9 430.9 42.5Q430.2 42.1 429.3 42.1L429.3 42.1Q428.5 42.1 427.8 42.4Q427.1 42.7 426.7 43.3L426.7 43.3L423.5 42.7L424.3 33.5L434.9 33.5L434.9 36.5L427.3 36.5L426.8 40.9L426.9 40.9Q427.4 40.3 428.3 39.9Q429.2 39.5 430.3 39.5L430.3 39.5Q431.5 39.5 432.5 39.9Q433.5 40.3 434.3 41.1Q435.0 41.8 435.4 42.9Q435.8 43.9 435.8 45.2L435.8 45.2Q435.8 47.0 435.0 48.3Q434.2 49.7 432.7 50.5Q431.3 51.2 429.4 51.2ZM441.9 33.5L445.7 33.5L445.7 51L442.1 51L442.1 36.7L442.0 36.7L438.0 39.5L438.0 36.2L441.9 33.5Z "/></g><mask id="satori_om-id-1-4-1"><rect x="413" y="61" width="44" height="12" fill="#fff" mask="url(#satori_om-id)"/></mask><g mask="url(#satori_om-id)" clip-path="url(#satori_cp-id)"><path fill="#5a9ca8" d="M415.1 71L413.7 71L413.7 63.7L416.5 63.7Q417.3 63.7 417.9 64.0Q418.5 64.3 418.8 64.8Q419.1 65.4 419.1 66.1Q419.1 66.8 418.8 67.3Q418.5 67.9 417.9 68.1L417.9 68.1Q417.8 68.1 417.8 68.2L417.8 68.2L419.4 71L417.7 71L416.3 68.4L415.1 68.4L415.1 71ZM415.1 65.0L415.1 67.2L416.2 67.2Q416.7 67.2 417.0 67.1Q417.3 66.9 417.4 66.7Q417.6 66.5 417.6 66.1L417.6 66.1Q417.6 65.7 417.4 65.5Q417.3 65.2 417.0 65.1Q416.7 65.0 416.2 65.0L416.2 65.0L415.1 65.0ZM427.1 71L422.2 71L422.2 63.7L427.1 63.7L427.1 65.0L423.7 65.0L423.7 66.7L426.8 66.7L426.8 67.9L423.7 67.9L423.7 69.8L427.1 69.8L427.1 71ZM431.8 71L430.3 71L430.3 63.7L433.1 63.7Q434.0 63.7 434.5 64.0Q435.1 64.4 435.4 64.9Q435.7 65.5 435.7 66.2L435.7 66.2Q435.7 66.9 435.4 67.5Q435.1 68.0 434.5 68.3Q433.9 68.6 433.1 68.6L433.1 68.6L431.8 68.6L431.8 71ZM431.8 65.0L431.8 67.4L432.9 67.4Q433.3 67.4 433.6 67.3Q433.9 67.1 434.1 66.8Q434.2 66.5 434.2 66.2Q434.2 65.8 434.1 65.5Q433.9 65.3 433.6 65.1Q433.3 65.0 432.9 65.0L432.9 65.0L431.8 65.0ZM442.0 71.1L442.0 71.1Q441.0 71.1 440.2 70.7Q439.5 70.2 439.0 69.4Q438.6 68.5 438.6 67.4L438.6 67.4Q438.6 66.2 439.0 65.3Q439.5 64.5 440.2 64.1Q441.0 63.6 442.0 63.6L442.0 63.6Q442.9 63.6 443.7 64.1Q444.5 64.5 444.9 65.3Q445.4 66.2 445.4 67.4L445.4 67.4Q445.4 68.5 444.9 69.4Q444.5 70.2 443.7 70.7Q442.9 71.1 442.0 71.1ZM442.0 69.8L442.0 69.8Q442.5 69.8 443.0 69.5Q443.4 69.2 443.6 68.7Q443.9 68.1 443.9 67.4L443.9 67.4Q443.9 66.6 443.6 66.0Q443.4 65.5 443.0 65.2Q442.5 65.0 442.0 65.0L442.0 65.0Q441.4 65.0 441.0 65.2Q440.6 65.5 440.3 66.0Q440.1 66.6 440.1 67.4L440.1 67.4Q440.1 68.1 440.3 68.7Q440.6 69.2 441.0 69.5Q441.4 69.8 442.0 69.8ZM451.2 71.1L451.2 71.1Q450.3 71.1 449.6 70.8Q449.0 70.6 448.6 70.0Q448.3 69.5 448.2 68.7L448.2 68.7L449.7 68.7Q449.7 69.1 449.9 69.4Q450.1 69.6 450.4 69.7Q450.7 69.8 451.1 69.8L451.1 69.8Q451.5 69.8 451.8 69.7Q452.1 69.6 452.3 69.4Q452.5 69.2 452.5 68.9L452.5 68.9Q452.5 68.7 452.3 68.5Q452.2 68.3 451.9 68.2Q451.6 68.1 451.2 68.0L451.2 68.0L450.4 67.8Q449.5 67.6 449.0 67.1Q448.4 66.6 448.4 65.8L448.4 65.8Q448.4 65.2 448.8 64.7Q449.1 64.2 449.8 63.9Q450.4 63.6 451.2 63.6L451.2 63.6Q452.0 63.6 452.6 63.9Q453.2 64.2 453.5 64.7Q453.9 65.2 453.9 65.8L453.9 65.8L452.4 65.8Q452.4 65.4 452.0 65.1Q451.7 64.9 451.2 64.9L451.2 64.9Q450.8 64.9 450.5 65.0Q450.2 65.1 450.1 65.3Q450.0 65.5 450.0 65.7L450.0 65.7Q450.0 66.0 450.1 66.2Q450.3 66.3 450.6 66.5Q450.8 66.6 451.1 66.6L451.1 66.6L451.8 66.8Q452.2 66.9 452.6 67.1Q453.0 67.3 453.3 67.5Q453.6 67.8 453.8 68.1Q454.0 68.5 454.0 68.9L454.0 68.9Q454.0 69.6 453.6 70.1Q453.3 70.6 452.7 70.8Q452.0 71.1 451.2 71.1Z "/></g><mask id="satori_om-id-1-5"><rect x="487" y="31" width="1" height="40" fill="#fff" mask="url(#satori_om-id)"/></mask><rect x="487" y="31" width="1" height="40" fill="rgba(120,80,220,0.2)" clip-path="url(#satori_cp-id)" mask="url(#satori_om-id)"/><mask id="satori_om-id-1-6"><rect x="518" y="28" width="79" height="45" fill="#fff" mask="url(#satori_om-id)"/></mask><mask id="satori_om-id-1-6-0"><rect x="518" y="28" width="79" height="29" fill="#fff" mask="url(#satori_om-id)"/></mask><g mask="url(#satori_om-id)" clip-path="url(#satori_cp-id)"><path fill="#ffffff" d="M527.5 47.9L519.2 47.9L519.2 45.1L526.5 33.5L531.0 33.5L531.0 45.0L533.2 45.0L533.2 47.9L531.0 47.9L531.0 51L527.5 51L527.5 47.9ZM522.8 45.0L527.6 45.0L527.6 37.5L527.5 37.5L522.8 44.9L522.8 45.0ZM542.3 51.2L542.3 51.2Q540.1 51.2 538.6 50.2Q537.0 49.1 536.2 47.1Q535.3 45.1 535.3 42.3L535.3 42.3Q535.3 39.5 536.2 37.4Q537.0 35.4 538.6 34.4Q540.1 33.3 542.3 33.3L542.3 33.3Q544.5 33.3 546.1 34.4Q547.6 35.4 548.5 37.5Q549.3 39.5 549.3 42.3L549.3 42.3Q549.3 45.1 548.5 47.1Q547.7 49.1 546.1 50.2Q544.5 51.2 542.3 51.2ZM542.3 48.3L542.3 48.3Q543.4 48.3 544.1 47.6Q544.9 46.9 545.3 45.5Q545.7 44.2 545.7 42.3L545.7 42.3Q545.7 40.4 545.3 39.0Q544.9 37.7 544.1 37.0Q543.4 36.3 542.3 36.3L542.3 36.3Q541.3 36.3 540.5 37.0Q539.8 37.7 539.4 39.0Q539.0 40.4 539.0 42.3L539.0 42.3Q539.0 44.2 539.4 45.5Q539.8 46.9 540.5 47.6Q541.3 48.3 542.3 48.3ZM558.1 51.2L558.1 51.2Q556.2 51.2 554.8 50.6Q553.3 49.9 552.4 48.8Q551.6 47.6 551.6 46.1L551.6 46.1L555.2 46.1Q555.2 46.8 555.6 47.2Q556.0 47.7 556.7 48Q557.3 48.3 558.1 48.3L558.1 48.3Q559.0 48.3 559.7 48.0Q560.3 47.7 560.7 47.1Q561.1 46.6 561.1 45.9L561.1 45.9Q561.1 45.2 560.7 44.6Q560.3 44.1 559.6 43.7Q558.8 43.4 557.8 43.4L557.8 43.4L556.2 43.4L556.2 40.8L557.8 40.8Q558.7 40.8 559.3 40.5Q560.0 40.2 560.3 39.7Q560.7 39.1 560.7 38.4L560.7 38.4Q560.7 37.7 560.4 37.2Q560.1 36.7 559.5 36.5Q558.9 36.2 558.2 36.2L558.2 36.2Q557.4 36.2 556.8 36.4Q556.1 36.7 555.8 37.2Q555.4 37.7 555.4 38.4L555.4 38.4L551.9 38.4Q551.9 36.9 552.8 35.7Q553.6 34.6 555.0 33.9Q556.4 33.3 558.2 33.3L558.2 33.3Q560.0 33.3 561.3 34.0Q562.7 34.6 563.4 35.7Q564.2 36.8 564.2 38.2L564.2 38.2Q564.2 39.7 563.3 40.7Q562.4 41.6 560.9 41.9L560.9 41.9L560.9 42.0Q562.2 42.2 563.0 42.8Q563.9 43.3 564.4 44.2Q564.8 45.0 564.8 46.1L564.8 46.1Q564.8 47.6 563.9 48.8Q563.1 49.9 561.6 50.6Q560.1 51.2 558.1 51.2ZM573.7 51.2L573.7 51.2Q571.8 51.2 570.2 50.6Q568.7 49.9 567.9 48.8Q567.0 47.7 567.0 46.3L567.0 46.3Q567.0 45.2 567.5 44.3Q568.0 43.4 568.9 42.8Q569.7 42.2 570.8 42.0L570.8 42.0L570.8 41.9Q569.4 41.6 568.5 40.5Q567.6 39.4 567.6 38.0L567.6 38.0Q567.6 36.6 568.4 35.6Q569.2 34.5 570.6 33.9Q572.0 33.3 573.7 33.3L573.7 33.3Q575.5 33.3 576.8 33.9Q578.2 34.5 579.0 35.6Q579.8 36.6 579.8 38.0L579.8 38.0Q579.8 39.4 578.9 40.5Q578.0 41.6 576.7 41.9L576.7 41.9L576.7 42.0Q577.7 42.2 578.6 42.8Q579.4 43.4 579.9 44.3Q580.4 45.2 580.4 46.3L580.4 46.3Q580.4 47.7 579.6 48.8Q578.7 49.9 577.2 50.6Q575.7 51.2 573.7 51.2ZM573.7 48.6L573.7 48.6Q574.6 48.6 575.3 48.3Q575.9 47.9 576.3 47.4Q576.7 46.8 576.7 46.0L576.7 46.0Q576.7 45.3 576.3 44.7Q575.9 44.1 575.3 43.7Q574.6 43.4 573.7 43.4L573.7 43.4Q572.8 43.4 572.2 43.7Q571.5 44.1 571.1 44.7Q570.7 45.2 570.7 46.0L570.7 46.0Q570.7 46.8 571.1 47.4Q571.5 47.9 572.1 48.3Q572.8 48.6 573.7 48.6ZM573.7 40.8L573.7 40.8Q574.5 40.8 575.0 40.5Q575.6 40.1 576.0 39.6Q576.3 39.1 576.3 38.4L576.3 38.4Q576.3 37.7 576.0 37.1Q575.6 36.6 575.1 36.3Q574.5 36.0 573.7 36.0L573.7 36.0Q572.9 36.0 572.4 36.3Q571.8 36.6 571.5 37.1Q571.1 37.7 571.1 38.4L571.1 38.4Q571.1 39.1 571.5 39.6Q571.8 40.1 572.4 40.5Q573.0 40.8 573.7 40.8ZM595.3 51L583.0 51L583.0 48.4L589.2 42.6Q590.0 41.8 590.5 41.2Q591.1 40.6 591.3 40.0Q591.6 39.4 591.6 38.7L591.6 38.7Q591.6 37.9 591.3 37.3Q590.9 36.8 590.3 36.5Q589.7 36.2 588.9 36.2L588.9 36.2Q588.1 36.2 587.5 36.5Q586.9 36.8 586.6 37.4Q586.2 38.0 586.2 38.9L586.2 38.9L582.8 38.9Q582.8 37.2 583.6 35.9Q584.4 34.7 585.8 34.0Q587.1 33.3 588.9 33.3L588.9 33.3Q590.8 33.3 592.2 34.0Q593.6 34.6 594.3 35.8Q595.1 36.9 595.1 38.5L595.1 38.5Q595.1 39.4 594.7 40.4Q594.3 41.3 593.4 42.5Q592.4 43.7 590.6 45.3L590.6 45.3L587.9 47.9L587.9 48.1L595.3 48.1L595.3 51Z "/></g><mask id="satori_om-id-1-6-1"><rect x="526" y="61" width="64" height="12" fill="#fff" mask="url(#satori_om-id)"/></mask><g mask="url(#satori_om-id)" clip-path="url(#satori_cp-id)"><path fill="#7ee7ff" d="M529.8 71.1L529.8 71.1Q528.9 71.1 528.1 70.7Q527.3 70.2 526.9 69.4Q526.5 68.5 526.5 67.4L526.5 67.4Q526.5 66.2 526.9 65.3Q527.3 64.5 528.1 64.1Q528.9 63.6 529.8 63.6L529.8 63.6Q530.5 63.6 531.0 63.8Q531.5 64.0 531.9 64.3Q532.4 64.6 532.6 65.1Q532.9 65.6 533.0 66.2L533.0 66.2L531.5 66.2Q531.4 65.9 531.3 65.7Q531.1 65.4 530.9 65.3Q530.7 65.1 530.4 65.0Q530.2 65.0 529.9 65.0L529.9 65.0Q529.3 65.0 528.9 65.2Q528.4 65.5 528.2 66.1Q528.0 66.6 528.0 67.4L528.0 67.4Q528.0 68.2 528.2 68.7Q528.5 69.2 528.9 69.5Q529.3 69.8 529.9 69.8L529.9 69.8Q530.2 69.8 530.4 69.7Q530.7 69.6 530.9 69.4Q531.1 69.3 531.3 69.0Q531.4 68.8 531.5 68.5L531.5 68.5L533.0 68.5Q532.9 69.0 532.7 69.5Q532.4 69.9 532.0 70.3Q531.6 70.7 531.1 70.9Q530.5 71.1 529.8 71.1ZM539.3 71.1L539.3 71.1Q538.3 71.1 537.5 70.7Q536.8 70.2 536.3 69.4Q535.9 68.5 535.9 67.4L535.9 67.4Q535.9 66.2 536.3 65.3Q536.8 64.5 537.5 64.1Q538.3 63.6 539.3 63.6L539.3 63.6Q540.2 63.6 541.0 64.1Q541.8 64.5 542.2 65.3Q542.6 66.2 542.6 67.4L542.6 67.4Q542.6 68.5 542.2 69.4Q541.8 70.2 541.0 70.7Q540.2 71.1 539.3 71.1ZM539.3 69.8L539.3 69.8Q539.8 69.8 540.2 69.5Q540.7 69.2 540.9 68.7Q541.1 68.1 541.1 67.4L541.1 67.4Q541.1 66.6 540.9 66.0Q540.7 65.5 540.2 65.2Q539.8 65.0 539.3 65.0L539.3 65.0Q538.7 65.0 538.3 65.2Q537.8 65.5 537.6 66.0Q537.4 66.6 537.4 67.4L537.4 67.4Q537.4 68.1 537.6 68.7Q537.8 69.2 538.3 69.5Q538.7 69.8 539.3 69.8ZM547.2 71L545.8 71L545.8 63.7L548.0 63.7L549.2 67.1Q549.3 67.3 549.4 67.7Q549.5 68.0 549.6 68.5L549.6 68.5Q549.7 68.9 549.8 69.3L549.8 69.3Q549.9 68.9 549.9 68.5L549.9 68.5Q550.0 68.1 550.1 67.7Q550.2 67.3 550.3 67.1L550.3 67.1L551.5 63.7L553.8 63.7L553.8 71L552.3 71L552.3 67.6Q552.3 67.3 552.3 67.0Q552.3 66.6 552.3 66.2Q552.3 65.8 552.3 65.4L552.3 65.4Q552.3 65.2 552.3 65.0L552.3 65.0Q552.3 65.2 552.2 65.4L552.2 65.4Q552.1 65.9 552.0 66.3Q551.9 66.7 551.8 67.0Q551.7 67.3 551.6 67.6L551.6 67.6L550.4 71L549.1 71L547.9 67.6Q547.8 67.3 547.7 67.0Q547.6 66.7 547.5 66.3Q547.4 65.9 547.3 65.4L547.3 65.4Q547.2 65.2 547.2 65.1L547.2 65.1Q547.2 65.2 547.2 65.4L547.2 65.4Q547.2 65.8 547.2 66.2Q547.2 66.6 547.2 67.0Q547.2 67.3 547.2 67.6L547.2 67.6L547.2 71ZM558.6 71L557.1 71L557.1 63.7L559.4 63.7L560.5 67.1Q560.6 67.3 560.7 67.7Q560.8 68.0 560.9 68.5L560.9 68.5Q561.0 68.9 561.1 69.3L561.1 69.3Q561.2 68.9 561.3 68.5L561.3 68.5Q561.4 68.1 561.5 67.7Q561.6 67.3 561.6 67.1L561.6 67.1L562.8 63.7L565.1 63.7L565.1 71L563.6 71L563.6 67.6Q563.6 67.3 563.6 67.0Q563.6 66.6 563.6 66.2Q563.6 65.8 563.6 65.4L563.6 65.4Q563.6 65.2 563.6 65.0L563.6 65.0Q563.6 65.2 563.5 65.4L563.5 65.4Q563.4 65.9 563.3 66.3Q563.2 66.7 563.1 67.0Q563.0 67.3 562.9 67.6L562.9 67.6L561.7 71L560.5 71L559.2 67.6Q559.2 67.3 559.1 67.0Q558.9 66.7 558.8 66.3Q558.7 65.9 558.6 65.4L558.6 65.4Q558.6 65.2 558.5 65.1L558.5 65.1Q558.5 65.2 558.5 65.4L558.5 65.4Q558.5 65.8 558.5 66.2Q558.5 66.6 558.6 67.0Q558.6 67.3 558.6 67.6L558.6 67.6L558.6 71ZM568.4 63.7L569.9 63.7L569.9 71L568.4 71L568.4 63.7ZM575.1 65.0L572.9 65.0L572.9 63.7L578.9 63.7L578.9 65.0L576.6 65.0L576.6 71L575.1 71L575.1 65.0ZM584.5 71.1L584.5 71.1Q583.7 71.1 583.0 70.8Q582.4 70.6 582.0 70.0Q581.7 69.5 581.6 68.7L581.6 68.7L583.1 68.7Q583.1 69.1 583.3 69.4Q583.5 69.6 583.8 69.7Q584.1 69.8 584.5 69.8L584.5 69.8Q584.9 69.8 585.2 69.7Q585.5 69.6 585.7 69.4Q585.9 69.2 585.9 68.9L585.9 68.9Q585.9 68.7 585.7 68.5Q585.6 68.3 585.3 68.2Q585.0 68.1 584.6 68.0L584.6 68.0L583.8 67.8Q582.9 67.6 582.4 67.1Q581.8 66.6 581.8 65.8L581.8 65.8Q581.8 65.2 582.2 64.7Q582.5 64.2 583.2 63.9Q583.8 63.6 584.6 63.6L584.6 63.6Q585.4 63.6 586.0 63.9Q586.6 64.2 586.9 64.7Q587.2 65.2 587.3 65.8L587.3 65.8L585.8 65.8Q585.8 65.4 585.4 65.1Q585.1 64.9 584.5 64.9L584.5 64.9Q584.2 64.9 583.9 65.0Q583.6 65.1 583.5 65.3Q583.4 65.5 583.4 65.7L583.4 65.7Q583.4 66.0 583.5 66.2Q583.7 66.3 583.9 66.5Q584.2 66.6 584.5 66.6L584.5 66.6L585.2 66.8Q585.6 66.9 586.0 67.1Q586.4 67.3 586.7 67.5Q587.0 67.8 587.2 68.1Q587.4 68.5 587.4 68.9L587.4 68.9Q587.4 69.6 587.0 70.1Q586.7 70.6 586.1 70.8Q585.4 71.1 584.5 71.1Z "/></g></svg>