<!-- Generated by readme-aura https://github.com/collectioneur/readme-aura -->
<svg width="800" height="180" viewBox="0 0 800 180" xmlns="http://www.w3.org/2000/svg"><defs><clipPath id="satori_bc-id"><path x="0" y="0" width="800" height="180" d="M16,0 h768 a16,16 0 0 1 16,16 v148 a16,16 0 0 1 -16,16 h-768 a16,16 0 0 1 -16,-16 v-148 a16,16 0 0 1 16,-16"/></clipPath></defs><clipPath id="satori_cp-id"><path x="0" y="0" width="800" height="180" d="M16,0 h768 a16,16 0 0 1 16,16 v148 a16,16 0 0 1 -16,16 h-768 a16,16 0 0 1 -16,-16 v-148 a16,16 0 0 1 16,-16"/></clipPath><mask id="satori_om-id"><rect x="1" y="1" width="798" height="178" fill="#fff"/><path width="800" height="180" fill="none" stroke="#000" stroke-width="2" d="M4.686,4.686 A16,16 0 0 1 16,0 h768 a16,16 0 0 1 16,16 v148 a16,16 0 0 1 -16,16 h-768 a16,16 0 0 1 -16,-16 v-148 A16,16 0 0 1 4.686,4.686"/></mask><path x="0" y="0" width="800" height="180" fill="#06060a" d="M16,0 h768 a16,16 0 0 1 16,16 v148 a16,16 0 0 1 -16,16 h-768 a16,16 0 0 1 -16,-16 v-148 a16,16 0 0 1 16,-16"/><path width="800" height="180" clip-path="url(#satori_bc-id)" fill="none" stroke="rgba(110,80,220,0.15)" stroke-width="2" d="M4.686,4.686 A16,16 0 0 1 16,0 h768 a16,16 0 0 1 16,16 v148 a16,16 0 0 1 -16,16 h-768 a16,16 0 0 1 -16,-16 v-148 A16,16 0 0 1 4.686,4.686"/><clipPath id="satori_cp-id-0" clip-path="url(#satori_cp-id)"><rect x="1" y="1" width="800" height="180"/></clipPath><mask id="satori_om-id-0"><rect x="1" y="1" width="800" height="180" fill="#fff" mask="url(#satori_om-id)"/></mask><svg x="1" y="1" width="800" height="180" preserveAspectRatio="none" clip-path="url(#satori_cp-id-0)" mask="url(#satori_om-id-0)"><defs><radialGradient id="lng1" cx="50%" cy="50%" r="50%"><stop offset="0%" stop-color="rgba(80,40,200,0.4)"></stop><stop offset="100%" stop-color="rgba(80,40,200,0)"></stop></radialGradient><radialGradient id="lng2" cx="50%" cy="50%" r="50%"><stop offset="0%" stop-color="rgba(0,160,220,0.35)"></stop><stop offset="100%" stop-color="rgba(0,160,220,0)"></stop></radialGradient></defs><ellipse id="lang-g1" cx="650" cy="90" rx="180" ry="100" fill="url(#lng1)"></ellipse><ellipse id="lang-g2" cx="150" cy="100" rx="160" ry="90" fill="url(#lng2)"></ellipse><style>

      @keyframes lang-drift-r { 0%, 100% { transform: translate(0, 0); opacity: 0.6; } 50% { transform: translate(30px, -15px); opacity: 1; } }
      @keyframes lang-drift-l { 0%, 100% { transform: translate(0, 0); opacity: 0.55; } 50% { transform: translate(-25px, 12px); opacity: 0.9; } }
      #lang-g1 { animation: lang-drift-r 8s ease-in-out infinite; }
      #lang-g2 { animation: lang-drift-l 7s ease-in-out infinite 0.3s; }
    
</style>
</svg><mask id="satori_om-id-0-0"><rect x="1" y="1" width="0" height="180" fill="#fff" mask="url(#satori_om-id)"/></mask><mask id="satori_om-id-0-0-0"><rect x="1" y="1" width="0" height="180" fill="#fff" mask="url(#satori_om-id)"/></mask><mask id="satori_om-id-0-0-0-0"><rect x="1" y="1" width="0" height="180" fill="#fff" mask="url(#satori_om-id)"/></mask><mask id="satori_om-id-0-0-0-1"><rect x="1" y="1" width="0" height="180" fill="#fff" mask="url(#satori_om-id)"/></mask><mask id="satori_om-id-0-0-1"><rect x="1" y="1" width="0" height="180" fill="#fff" mask="url(#satori_om-id)"/></mask><mask id="satori_om-id-0-0-1-0"><rect x="1" y="1" width="0" height="180" fill="#fff" mask="url(#satori_om-id)"/></mask><mask id="satori_om-id-0-0-1-1"><rect x="1" y="1" width="0" height="180" fill="#fff" mask="url(#satori_om-id)"/></mask><mask id="satori_om-id-0-1"><rect x="1" y="1" width="0" height="180" fill="#fff" mask="url(#satori_om-id)"/></mask><mask id="satori_om-id-0-2"><rect x="1" y="1" width="0" height="180" fill="#fff" mask="url(#satori_om-id)"/></mask><mask id="satori_om-id-1"><rect x="25" y="25" width="750" height="12" fill="#fff" mask="url(#satori_om-id)"/></mask><g mask="url(#satori_om-id)" clip-path="url(#satori_cp-id)"><path fill="rgba(120,200,255,0.7)" d="M27.1 35L25.7 35L25.7 27.7L27.9 27.7L29.1 31.1Q29.2 31.3 29.3 31.7Q29.4 32.0 29.5 32.5L29.5 32.5Q29.6 32.9 29.7 33.3L29.7 33.3Q29.8 32.9 29.8 32.5L29.8 32.5Q29.9 32.1 30.0 31.7Q30.1 31.3 30.2 31.1L30.2 31.1L31.4 27.7L33.7 27.7L33.7 35L32.2 35L32.2 31.6Q32.2 31.3 32.2 31.0Q32.2 30.6 32.2 30.2Q32.2 29.8 32.2 29.4L32.2 29.4Q32.2 29.2 32.2 29.0L32.2 29.0Q32.2 29.2 32.1 29.4L32.1 29.4Q32.0 29.9 31.9 30.3Q31.8 30.7 31.7 31.0Q31.6 31.3 31.5 31.6L31.5 31.6L30.3 35L29.0 35L27.8 31.6Q27.7 31.3 27.6 31.0Q27.5 30.7 27.4 30.3Q27.3 29.9 27.2 29.4L27.2 29.4Q27.1 29.2 27.1 29.1L27.1 29.1Q27.1 29.2 27.1 29.4L27.1 29.4Q27.1 29.8 27.1 30.2Q27.1 30.6 27.1 31.0Q27.1 31.3 27.1 31.6L27.1 31.6L27.1 35ZM41.2 35.1L41.2 35.1Q40.2 35.1 39.4 34.7Q38.7 34.2 38.2 33.4Q37.8 32.5 37.8 31.4L37.8 31.4Q37.8 30.2 38.2 29.3Q38.7 28.5 39.4 28.1Q40.2 27.6 41.2 27.6L41.2 27.6Q42.1 27.6 42.9 28.1Q43.7 28.5 44.1 29.3Q44.6 30.2 44.6 31.4L44.6 31.4Q44.6 32.5 44.1 33.4Q43.7 34.2 42.9 34.7Q42.1 35.1 41.2 35.1ZM41.2 33.8L41.2 33.8Q41.7 33.8 42.2 33.5Q42.6 33.2 42.8 32.7Q43.0 32.1 43.0 31.4L43.0 31.4Q43.0 30.6 42.8 30.0Q42.6 29.5 42.2 29.2Q41.7 29.0 41.2 29.0L41.2 29.0Q40.6 29.0 40.2 29.2Q39.8 29.5 39.5 30.0Q39.3 30.6 39.3 31.4L39.3 31.4Q39.3 32.1 39.5 32.7Q39.8 33.2 40.2 33.5Q40.6 33.8 41.2 33.8ZM51.3 35.1L51.3 35.1Q50.5 35.1 49.8 34.8Q49.2 34.6 48.8 34.0Q48.5 33.5 48.4 32.7L48.4 32.7L49.9 32.7Q49.9 33.1 50.1 33.4Q50.3 33.6 50.6 33.7Q50.9 33.8 51.3 33.8L51.3 33.8Q51.7 33.8 52.0 33.7Q52.3 33.6 52.5 33.4Q52.7 33.2 52.7 32.9L52.7 32.9Q52.7 32.7 52.5 32.5Q52.4 32.3 52.1 32.2Q51.8 32.1 51.4 32.0L51.4 32.0L50.6 31.8Q49.7 31.6 49.2 31.1Q48.6 30.6 48.6 29.8L48.6 29.8Q48.6 29.2 49.0 28.7Q49.3 28.2 50.0 27.9Q50.6 27.6 51.4 27.6L51.4 27.6Q52.2 27.6 52.8 27.9Q53.4 28.2 53.7 28.7Q54.0 29.2 54.1 29.8L54.1 29.8L52.6 29.8Q52.6 29.4 52.2 29.1Q51.9 28.9 51.4 28.9L51.4 28.9Q51.0 28.9 50.7 29.0Q50.4 29.1 50.3 29.3Q50.2 29.5 50.2 29.7L50.2 29.7Q50.2 30.0 50.3 30.2Q50.5 30.3 50.8 30.5Q51.0 30.6 51.3 30.6L51.3 30.6L52.0 30.8Q52.4 30.9 52.8 31.1Q53.2 31.3 53.5 31.5Q53.8 31.8 54.0 32.1Q54.2 32.5 54.2 32.9L54.2 32.9Q54.2 33.6 53.8 34.1Q53.5 34.6 52.9 34.8Q52.2 35.1 51.3 35.1ZM60.2 29.0L57.9 29.0L57.9 27.7L63.9 27.7L63.9 29.0L61.7 29.0L61.7 35L60.2 35L60.2 29.0Z M76.3 35.1L76.3 35.1Q75.4 35.1 74.7 34.8Q74.0 34.4 73.6 33.8Q73.3 33.2 73.3 32.4L73.3 32.4L73.3 27.7L74.8 27.7L74.8 32.3Q74.8 32.7 74.9 33.1Q75.1 33.4 75.5 33.6Q75.8 33.8 76.3 33.8L76.3 33.8Q76.7 33.8 77.1 33.6Q77.4 33.4 77.6 33.1Q77.8 32.7 77.8 32.3L77.8 32.3L77.8 27.7L79.3 27.7L79.3 32.4Q79.3 33.2 78.9 33.8Q78.5 34.4 77.8 34.8Q77.2 35.1 76.3 35.1ZM86.3 35.1L86.3 35.1Q85.4 35.1 84.7 34.8Q84.1 34.6 83.7 34.0Q83.4 33.5 83.3 32.7L83.3 32.7L84.8 32.7Q84.8 33.1 85.0 33.4Q85.2 33.6 85.5 33.7Q85.8 33.8 86.2 33.8L86.2 33.8Q86.6 33.8 86.9 33.7Q87.2 33.6 87.4 33.4Q87.6 33.2 87.6 32.9L87.6 32.9Q87.6 32.7 87.4 32.5Q87.3 32.3 87.0 32.2Q86.7 32.1 86.3 32.0L86.3 32.0L85.5 31.8Q84.6 31.6 84.1 31.1Q83.5 30.6 83.5 29.8L83.5 29.8Q83.5 29.2 83.9 28.7Q84.3 28.2 84.9 27.9Q85.5 27.6 86.3 27.6L86.3 27.6Q87.1 27.6 87.7 27.9Q88.3 28.2 88.6 28.7Q89.0 29.2 89.0 29.8L89.0 29.8L87.5 29.8Q87.5 29.4 87.2 29.1Q86.8 28.9 86.3 28.9L86.3 28.9Q85.9 28.9 85.6 29.0Q85.3 29.1 85.2 29.3Q85.1 29.5 85.1 29.7L85.1 29.7Q85.1 30.0 85.2 30.2Q85.4 30.3 85.7 30.5Q85.9 30.6 86.2 30.6L86.2 30.6L86.9 30.8Q87.4 30.9 87.7 31.1Q88.1 31.3 88.4 31.5Q88.7 31.8 88.9 32.1Q89.1 32.5 89.1 32.9L89.1 32.9Q89.1 33.6 88.7 34.1Q88.4 34.6 87.8 34.8Q87.1 35.1 86.3 35.1ZM98.0 35L93.1 35L93.1 27.7L98.0 27.7L98.0 29.0L94.6 29.0L94.6 30.7L97.8 30.7L97.8 31.9L94.6 31.9L94.6 33.8L98.0 33.8L98.0 35ZM104.8 35L104.8 35L102.2 35L102.2 27.7L104.8 27.7Q105.9 27.7 106.7 28.2Q107.5 28.6 107.9 29.4Q108.3 30.2 108.3 31.4L108.3 31.4Q108.3 32.5 107.9 33.3Q107.5 34.1 106.7 34.6Q105.9 35 104.8 35ZM103.7 29.0L103.7 33.7L104.7 33.7Q105.4 33.7 105.9 33.5Q106.4 33.2 106.6 32.7Q106.8 32.2 106.8 31.4L106.8 31.4Q106.8 30.5 106.6 30.0Q106.3 29.5 105.9 29.3Q105.4 29.0 104.7 29.0L104.7 29.0L103.7 29.0Z M122.4 35L117.8 35L117.8 27.7L119.3 27.7L119.3 33.8L122.4 33.8L122.4 35ZM127.7 35L126.0 35L128.5 27.7L130.5 27.7L133.0 35L131.4 35L130.8 33.3L128.2 33.3L127.7 35ZM128.6 32.1L130.4 32.1L130.2 31.5Q130.0 30.8 129.8 30L129.8 30Q129.6 29.5 129.5 28.9L129.5 28.9Q129.3 29.5 129.2 30.0L129.2 30.0Q129.0 30.8 128.8 31.5L128.8 31.5L128.6 32.1ZM138.4 35L136.9 35L136.9 27.7L138.6 27.7L140.9 31.4Q141.1 31.7 141.2 32.0Q141.4 32.4 141.6 32.8L141.6 32.8Q141.7 33.0 141.8 33.2L141.8 33.2Q141.8 33.0 141.8 32.8L141.8 32.8Q141.7 32.3 141.7 31.9Q141.7 31.5 141.7 31.2L141.7 31.2L141.7 27.7L143.2 27.7L143.2 35L141.6 35L139.5 31.7Q139.2 31.3 139.0 30.9Q138.9 30.6 138.6 30.1L138.6 30.1Q138.5 29.9 138.3 29.6L138.3 29.6Q138.4 29.9 138.4 30.1L138.4 30.1Q138.4 30.6 138.4 31.0Q138.4 31.4 138.4 31.7L138.4 31.7L138.4 35ZM150.8 35.1L150.8 35.1Q149.7 35.1 149.0 34.6Q148.2 34.2 147.8 33.4Q147.3 32.5 147.3 31.4L147.3 31.4Q147.3 30.2 147.8 29.4Q148.2 28.5 149.0 28.1Q149.8 27.6 150.7 27.6L150.7 27.6Q151.3 27.6 151.9 27.8Q152.4 28.0 152.8 28.3Q153.2 28.6 153.5 29.1Q153.8 29.5 153.8 30.1L153.8 30.1L152.3 30.1Q152.2 29.8 152.1 29.6Q152.0 29.4 151.8 29.2Q151.6 29.1 151.3 29.0Q151.1 29.0 150.8 29.0L150.8 29.0Q150.2 29.0 149.8 29.2Q149.3 29.5 149.1 30.0Q148.9 30.6 148.9 31.4Q148.9 32.1 149.1 32.7Q149.3 33.2 149.8 33.5Q150.2 33.8 150.8 33.8L150.8 33.8Q151.3 33.8 151.7 33.6Q152.1 33.4 152.3 33.0L152.3 33.0Q152.5 32.7 152.5 32.3L152.5 32.3L150.9 32.3L150.9 31.1L153.9 31.1L153.9 32.0Q153.9 33.0 153.5 33.7Q153.1 34.4 152.4 34.7Q151.7 35.1 150.8 35.1ZM161.0 35.1L161.0 35.1Q160.1 35.1 159.5 34.8Q158.8 34.4 158.4 33.8Q158.0 33.2 158.0 32.4L158.0 32.4L158.0 27.7L159.5 27.7L159.5 32.3Q159.5 32.7 159.7 33.1Q159.9 33.4 160.3 33.6Q160.6 33.8 161.0 33.8L161.0 33.8Q161.5 33.8 161.8 33.6Q162.2 33.4 162.4 33.1Q162.6 32.7 162.6 32.3L162.6 32.3L162.6 27.7L164.1 27.7L164.1 32.4Q164.1 33.2 163.7 33.8Q163.3 34.4 162.6 34.8Q162.0 35.1 161.0 35.1ZM169.6 35L167.9 35L170.4 27.7L172.4 27.7L174.9 35L173.3 35L172.7 33.3L170.1 33.3L169.6 35ZM170.5 32.1L172.3 32.1L172.1 31.5Q171.9 30.8 171.7 30L171.7 30Q171.5 29.5 171.4 28.9L171.4 28.9Q171.3 29.5 171.1 30.0L171.1 30.0Q170.9 30.8 170.7 31.5L170.7 31.5L170.5 32.1ZM182.1 35.1L182.1 35.1Q181.0 35.1 180.3 34.6Q179.5 34.2 179.1 33.4Q178.6 32.5 178.6 31.4L178.6 31.4Q178.6 30.2 179.1 29.4Q179.5 28.5 180.3 28.1Q181.1 27.6 182.0 27.6L182.0 27.6Q182.6 27.6 183.2 27.8Q183.7 28.0 184.1 28.3Q184.5 28.6 184.8 29.1Q185.0 29.5 185.1 30.1L185.1 30.1L183.6 30.1Q183.5 29.8 183.4 29.6Q183.3 29.4 183.1 29.2Q182.9 29.1 182.6 29.0Q182.4 29.0 182.0 29.0L182.0 29.0Q181.5 29.0 181.1 29.2Q180.6 29.5 180.4 30.0Q180.1 30.6 180.1 31.4Q180.1 32.1 180.4 32.7Q180.6 33.2 181.1 33.5Q181.5 33.8 182.1 33.8L182.1 33.8Q182.6 33.8 183.0 33.6Q183.3 33.4 183.6 33.0L183.6 33.0Q183.7 32.7 183.8 32.3L183.8 32.3L182.2 32.3L182.2 31.1L185.2 31.1L185.2 32.0Q185.2 33.0 184.8 33.7Q184.4 34.4 183.7 34.7Q183.0 35.1 182.1 35.1ZM194.2 35L189.3 35L189.3 27.7L194.2 27.7L194.2 29.0L190.8 29.0L190.8 30.7L194.0 30.7L194.0 31.9L190.8 31.9L190.8 33.8L194.2 33.8L194.2 35ZM201.1 35.1L201.1 35.1Q200.2 35.1 199.6 34.8Q198.9 34.6 198.6 34.0Q198.2 33.5 198.2 32.7L198.2 32.7L199.6 32.7Q199.6 33.1 199.8 33.4Q200.0 33.6 200.3 33.7Q200.7 33.8 201.1 33.8L201.1 33.8Q201.5 33.8 201.8 33.7Q202.1 33.6 202.2 33.4Q202.4 33.2 202.4 32.9L202.4 32.9Q202.4 32.7 202.2 32.5Q202.1 32.3 201.8 32.2Q201.5 32.1 201.1 32.0L201.1 32.0L200.3 31.8Q199.4 31.6 198.9 31.1Q198.4 30.6 198.4 29.8L198.4 29.8Q198.4 29.2 198.7 28.7Q199.1 28.2 199.7 27.9Q200.3 27.6 201.1 27.6L201.1 27.6Q201.9 27.6 202.5 27.9Q203.1 28.2 203.4 28.7Q203.8 29.2 203.8 29.8L203.8 29.8L202.3 29.8Q202.3 29.4 202.0 29.1Q201.6 28.9 201.1 28.9L201.1 28.9Q200.7 28.9 200.4 29.0Q200.2 29.1 200.0 29.3Q199.9 29.5 199.9 29.7L199.9 29.7Q199.9 30.0 200.1 30.2Q200.2 30.3 200.5 30.5Q200.8 30.6 201.1 30.6L201.1 30.6L201.7 30.8Q202.2 30.9 202.6 31.1Q203.0 31.3 203.3 31.5Q203.6 31.8 203.7 32.1Q203.9 32.5 203.9 32.9L203.9 32.9Q203.9 33.6 203.6 34.1Q203.2 34.6 202.6 34.8Q202.0 35.1 201.1 35.1Z "/></g><clipPath id="satori_cp-id-2" clip-path="url(#satori_cp-id)"><path x="25" y="53" width="750" height="6" d="M28,53 h744 a3,3 0 0 1 3,3 v0 a3,3 0 0 1 -3,3 h-744 a3,3 0 0 1 -3,-3 v0 a3,3 0 0 1 3,-3"/></clipPath><mask id="satori_om-id-2"><rect x="25" y="53" width="750" height="6" fill="#fff" mask="url(#satori_om-id)"/></mask><path x="25" y="53" width="750" height="6" fill="rgba(255,255,255,0.05)" d="M28,53 h744 a3,3 0 0 1 3,3 v0 a3,3 0 0 1 -3,3 h-744 a3,3 0 0 1 -3,-3 v0 a3,3 0 0 1 3,-3" clip-path="url(#satori_cp-id)" mask="url(#satori_om-id)"/><mask id="satori_om-id-2-0"><rect x="25" y="53" width="210" height="6" fill="#fff" mask="url(#satori_om-id-2)"/></mask><rect x="25" y="53" width="210" height="6" fill="#f34b7d" clip-path="url(#satori_cp-id-2)" mask="url(#satori_om-id-2)"/><mask id="satori_om-id-2-1"><rect x="235" y="53" width="98" height="6" fill="#fff" mask="url(#satori_om-id-2)"/></mask><rect x="235" y="53" width="98" height="6" fill="#555555" clip-path="url(#satori_cp-id-2)" mask="url(#satori_om-id-2)"/><mask id="satori_om-id-2-2"><rect x="333" y="53" width="82" height="6" fill="#fff" mask="url(#satori_om-id-2)"/></mask><rect x="333" y="53" width="82" height="6" fill="#3178c6" clip-path="url(#satori_cp-id-2)" mask="url(#satori_om-id-2)"/><mask id="satori_om-id-2-3"><rect x="415" y="53" width="68" height="6" fill="#fff" mask="url(#satori_om-id-2)"/></mask><rect x="415" y="53" width="68" height="6" fill="#3572A5" clip-path="url(#satori_cp-id-2)" mask="url(#satori_om-id-2)"/><mask id="satori_om-id-2-4"><rect x="483" y="53" width="67" height="6" fill="#fff" mask="url(#satori_om-id-2)"/></mask><rect x="483" y="53" width="67" height="6" fill="#663399" clip-path="url(#satori_cp-id-2)" mask="url(#satori_om-id-2)"/><mask id="satori_om-id-2-5"><rect x="550" y="53" width="53" height="6" fill="#fff" mask="url(#satori_om-id-2)"/></mask><rect x="550" y="53" width="53" height="6" fill="#89e051" clip-path="url(#satori_cp-id-2)" mask="url(#satori_om-id-2)"/><mask id="satori_om-id-2-6"><rect x="603" y="53" width="30" height="6" fill="#fff" mask="url(#satori_om-id-2)"/></mask><rect x="603" y="53" width="30" height="6" fill="#3D6117" clip-path="url(#satori_cp-id-2)" mask="url(#satori_om-id-2)"/><mask id="satori_om-id-2-7"><rect x="633" y="53" width="30" height="6" fill="#fff" mask="url(#satori_om-id-2)"/></mask><rect x="633" y="53" width="30" height="6" fill="#5686a5" clip-path="url(#satori_cp-id-2)" mask="url(#satori_om-id-2)"/><mask id="satori_om-id-2-8"><rect x="663" y="53" width="30" height="6" fill="#fff" mask="url(#satori_om-id-2)"/></mask><rect x="663" y="53" width="30" height="6" fill="#6E4C13" clip-path="url(#satori_cp-id-2)" mask="url(#satori_om-id-2)"/><mask id="satori_om-id-2-9"><rect x="693" y="53" width="15" height="6" fill="#fff" mask="url(#satori_om-id-2)"/></mask><rect x="693" y="53" width="15" height="6" fill="#A97BFF" clip-path="url(#satori_cp-id-2)" mask="url(#satori_om-id-2)"/><mask id="satori_om-id-3"><rect x="25" y="75" width="750" height="46" fill="#fff" mask="url(#satori_om-id)"/></mask><mask id="satori_om-id-3-0"><rect x="25" y="75" width="120" height="16" fill="#fff" mask="url(#satori_om-id)"/></mask><mask id="satori_ms-id-3-0-0-0" maskUnits="userSpaceOnUse"><rect x="0" y="0" width="800" height="180" fill="#fff"/><path x="25" y="78" width="10" height="10" fill="#000"  stroke-width="0" d="M30,78 h0 a5,5 0 0 1 5,5 v0 a5,5 0 0 1 -5,5 h0 a5,5 0 0 1 -5,-5 v0 a5,5 0 0 1 5,-5" clip-path="url(#satori_cp-id)" mask="url(#satori_om-id)"/></mask><defs><filter id="satori_s-id-3-0-0-0" x="-90%" y="-90%" width="280%" height="280%"><feGaussianBlur stdDeviation="3" result="b"/><feFlood flood-color="#f34b7d40" in="SourceGraphic" result="f"/><feComposite in="f" in2="b" operator="in"/></filter></defs><g mask="url(#satori_ms-id-3-0-0-0)" filter="url(#satori_s-id-3-0-0-0)" opacity="1"><path x="25" y="78" width="10" height="10" fill="#fff" stroke="#fff" stroke-width="0" d="M30,78 h0 a5,5 0 0 1 5,5 v0 a5,5 0 0 1 -5,5 h0 a5,5 0 0 1 -5,-5 v0 a5,5 0 0 1 5,-5" clip-path="url(#satori_cp-id)" mask="url(#satori_om-id)"/></g><mask id="satori_om-id-3-0-0"><rect x="25" y="78" width="10" height="10" fill="#fff" mask="url(#satori_om-id)"/></mask><path x="25" y="78" width="10" height="10" fill="#f34b7d" d="M30,78 h0 a5,5 0 0 1 5,5 v0 a5,5 0 0 1 -5,5 h0 a5,5 0 0 1 -5,-5 v0 a5,5 0 0 1 5,-5" clip-path="url(#satori_cp-id)" mask="url(#satori_om-id)"/><mask id="satori_om-id-3-0-1"><rect x="41" y="75" width="27" height="16" fill="#fff" mask="url(#satori_om-id)"/></mask><g mask="url(#satori_om-id)" clip-path="url(#satori_cp-id)"><path fill="#e0e0f0" d="M46.0 88.1L46.0 88.1Q44.8 88.1 43.8 87.5Q42.9 87.0 42.3 85.9Q41.8 84.8 41.8 83.3L41.8 83.3Q41.8 81.8 42.3 80.7Q42.9 79.6 43.8 79.0Q44.8 78.4 46.0 78.4L46.0 78.4Q46.7 78.4 47.3 78.6Q48.0 78.8 48.5 79.2Q49.0 79.6 49.3 80.2Q49.7 80.8 49.8 81.5L49.8 81.5L48.6 81.5Q48.5 81.0 48.2 80.7Q48.0 80.3 47.6 80.0Q47.3 79.8 46.9 79.7Q46.4 79.5 46.0 79.5L46.0 79.5Q45.1 79.5 44.4 80.0Q43.7 80.4 43.3 81.2Q42.9 82.1 42.9 83.3L42.9 83.3Q42.9 84.5 43.4 85.3Q43.8 86.2 44.4 86.6Q45.1 87.0 46.0 87.0L46.0 87.0Q46.4 87.0 46.9 86.9Q47.3 86.7 47.6 86.5Q48.0 86.2 48.2 85.9Q48.5 85.5 48.6 85.0L48.6 85.0L49.8 85.0Q49.7 85.7 49.3 86.3Q49.0 86.9 48.5 87.3Q48.0 87.7 47.3 87.9Q46.7 88.1 46.0 88.1ZM55.3 87.4L54.3 87.4L54.3 84.8L51.7 84.8L51.7 83.8L54.3 83.8L54.3 81.2L55.3 81.2L55.3 83.8L57.9 83.8L57.9 84.8L55.3 84.8L55.3 87.4ZM63.9 87.4L62.9 87.4L62.9 84.8L60.3 84.8L60.3 83.8L62.9 83.8L62.9 81.2L63.9 81.2L63.9 83.8L66.5 83.8L66.5 84.8L63.9 84.8L63.9 87.4Z "/></g><mask id="satori_om-id-3-0-2"><rect x="74" y="77" width="25" height="13" fill="#fff" mask="url(#satori_om-id)"/></mask><g mask="url(#satori_om-id)" clip-path="url(#satori_cp-id)"><path fill="#6a6a8a" d="M79.9 88L74.8 88L74.8 87.3L77.5 84.4Q77.9 83.9 78.2 83.5Q78.5 83.2 78.7 82.8Q78.8 82.5 78.8 82.1L78.8 82.1Q78.8 81.7 78.6 81.4Q78.4 81.1 78.1 80.9Q77.7 80.8 77.3 80.8L77.3 80.8Q76.9 80.8 76.5 81.0Q76.2 81.1 76.0 81.5Q75.8 81.8 75.8 82.3L75.8 82.3L74.8 82.3Q74.8 81.6 75.2 81.0Q75.5 80.5 76.1 80.2Q76.6 79.9 77.3 79.9L77.3 79.9Q78.1 79.9 78.6 80.2Q79.2 80.5 79.5 81.0Q79.8 81.5 79.8 82.1L79.8 82.1Q79.8 82.6 79.6 83.0Q79.5 83.4 79.1 83.9Q78.7 84.4 78.0 85.2L78.0 85.2L76.2 87.0L76.2 87.1L79.9 87.1L79.9 88ZM84.1 88.1L84.1 88.1Q83.3 88.1 82.7 87.8Q82.1 87.5 81.7 87.0Q81.4 86.5 81.4 85.9L81.4 85.9Q81.4 85.4 81.6 84.9Q81.8 84.5 82.1 84.2Q82.5 83.9 82.9 83.8L82.9 83.8L82.9 83.8Q82.3 83.6 82.0 83.1Q81.7 82.7 81.7 82.0L81.7 82.0Q81.7 81.4 82.0 80.9Q82.3 80.4 82.8 80.2Q83.4 79.9 84.1 79.9L84.1 79.9Q84.8 79.9 85.4 80.2Q85.9 80.4 86.2 80.9Q86.6 81.4 86.6 82.0L86.6 82.0Q86.6 82.7 86.2 83.1Q85.9 83.6 85.3 83.8L85.3 83.8L85.3 83.8Q85.7 83.9 86.1 84.2Q86.4 84.5 86.6 84.9Q86.9 85.4 86.9 85.9L86.9 85.9Q86.9 86.5 86.5 87.0Q86.2 87.5 85.5 87.8Q84.9 88.1 84.1 88.1ZM84.1 87.2L84.1 87.2Q84.6 87.2 85.0 87.0Q85.4 86.9 85.6 86.6Q85.8 86.2 85.8 85.8L85.8 85.8Q85.8 85.4 85.6 85.0Q85.4 84.7 85.0 84.5Q84.6 84.3 84.1 84.3L84.1 84.3Q83.6 84.3 83.2 84.5Q82.8 84.7 82.6 85.0Q82.4 85.4 82.4 85.8L82.4 85.8Q82.4 86.2 82.6 86.6Q82.8 86.9 83.2 87.0Q83.6 87.2 84.1 87.2ZM84.1 83.4L84.1 83.4Q84.5 83.4 84.9 83.3Q85.2 83.1 85.4 82.8Q85.6 82.5 85.6 82.1L85.6 82.1Q85.6 81.7 85.4 81.4Q85.2 81.1 84.9 80.9Q84.5 80.8 84.1 80.8L84.1 80.8Q83.7 80.8 83.3 80.9Q83.0 81.1 82.8 81.4Q82.6 81.7 82.6 82.1L82.6 82.1Q82.6 82.5 82.8 82.8Q83.0 83.1 83.3 83.3Q83.7 83.4 84.1 83.4ZM90.3 83.5L90.3 83.5Q89.8 83.5 89.5 83.3Q89.1 83.1 88.9 82.7Q88.7 82.3 88.7 81.9L88.7 81.9L88.7 81.5Q88.7 81.0 88.9 80.7Q89.1 80.3 89.5 80.1Q89.8 79.9 90.3 79.9L90.3 79.9Q90.8 79.9 91.2 80.1Q91.5 80.3 91.7 80.7Q91.9 81.0 91.9 81.5L91.9 81.5L91.9 81.9Q91.9 82.3 91.7 82.7Q91.5 83.1 91.2 83.3Q90.8 83.5 90.3 83.5ZM90.3 82.8L90.3 82.8Q90.7 82.8 90.9 82.6Q91.1 82.3 91.1 81.9L91.1 81.9L91.1 81.5Q91.1 81.1 90.9 80.9Q90.7 80.6 90.3 80.6L90.3 80.6Q89.9 80.6 89.7 80.9Q89.6 81.1 89.6 81.5L89.6 81.5L89.6 81.9Q89.6 82.3 89.7 82.6Q89.9 82.8 90.3 82.8ZM95.5 88.2L95.5 88.2Q95.0 88.2 94.7 87.9Q94.3 87.7 94.1 87.3Q93.9 87.0 93.9 86.5L93.9 86.5L93.9 86.1Q93.9 85.7 94.1 85.3Q94.3 84.9 94.7 84.7Q95.0 84.5 95.5 84.5L95.5 84.5Q96.0 84.5 96.4 84.7Q96.7 84.9 96.9 85.3Q97.1 85.7 97.1 86.1L97.1 86.1L97.1 86.5Q97.1 87.0 96.9 87.3Q96.7 87.7 96.4 87.9Q96.0 88.2 95.5 88.2ZM95.5 87.5L95.5 87.5Q95.9 87.5 96.1 87.2Q96.3 86.9 96.3 86.5L96.3 86.5L96.3 86.1Q96.3 85.8 96.1 85.5Q95.9 85.2 95.5 85.2L95.5 85.2Q95.1 85.2 94.9 85.5Q94.8 85.8 94.8 86.1L94.8 86.1L94.8 86.5Q94.8 86.9 94.9 87.2Q95.1 87.5 95.5 87.5ZM90.6 88L89.7 88L95.2 80.0L96.1 80.0L90.6 88Z "/></g><mask id="satori_om-id-3-1"><rect x="159" y="75" width="120" height="16" fill="#fff" mask="url(#satori_om-id)"/></mask><mask id="satori_ms-id-3-1-0-0" maskUnits="userSpaceOnUse"><rect x="0" y="0" width="800" height="180" fill="#fff"/><path x="159" y="78" width="10" height="10" fill="#000"  stroke-width="0" d="M164,78 h0 a5,5 0 0 1 5,5 v0 a5,5 0 0 1 -5,5 h0 a5,5 0 0 1 -5,-5 v0 a5,5 0 0 1 5,-5" clip-path="url(#satori_cp-id)" mask="url(#satori_om-id)"/></mask><defs><filter id="satori_s-id-3-1-0-0" x="-90%" y="-90%" width="280%" height="280%"><feGaussianBlur stdDeviation="3" result="b"/><feFlood flood-color="#55555540" in="SourceGraphic" result="f"/><feComposite in="f" in2="b" operator="in"/></filter></defs><g mask="url(#satori_ms-id-3-1-0-0)" filter="url(#satori_s-id-3-1-0-0)" opacity="1"><path x="159" y="78" width="10" height="10" fill="#fff" stroke="#fff" stroke-width="0" d="M164,78 h0 a5,5 0 0 1 5,5 v0 a5,5 0 0 1 -5,5 h0 a5,5 0 0 1 -5,-5 v0 a5,5 0 0 1 5,-5" clip-path="url(#satori_cp-id)" mask="url(#satori_om-id)"/></g><mask id="satori_om-id-3-1-0"><rect x="159" y="78" width="10" height="10" fill="#fff" mask="url(#satori_om-id)"/></mask><path x="159" y="78" width="10" height="10" fill="#555555" d="M164,78 h0 a5,5 0 0 1 5,5 v0 a5,5 0 0 1 -5,5 h0 a5,5 0 0 1 -5,-5 v0 a5,5 0 0 1 5,-5" clip-path="url(#satori_cp-id)" mask="url(#satori_om-id)"/><mask id="satori_om-id-3-1-1"><rect x="175" y="75" width="10" height="16" fill="#fff" mask="url(#satori_om-id)"/></mask><g mask="url(#satori_om-id)" clip-path="url(#satori_cp-id)"><path fill="#e0e0f0" d="M180.0 88.1L180.0 88.1Q178.8 88.1 177.8 87.5Q176.9 87.0 176.3 85.9Q175.8 84.8 175.8 83.3L175.8 83.3Q175.8 81.8 176.3 80.7Q176.9 79.6 177.8 79.0Q178.8 78.4 180.0 78.4L180.0 78.4Q180.7 78.4 181.3 78.6Q182.0 78.8 182.5 79.2Q183.0 79.6 183.3 80.2Q183.7 80.8 183.8 81.5L183.8 81.5L182.6 81.5Q182.5 81.0 182.2 80.7Q182.0 80.3 181.6 80.0Q181.3 79.8 180.9 79.7Q180.4 79.5 180.0 79.5L180.0 79.5Q179.1 79.5 178.4 80.0Q177.7 80.4 177.3 81.2Q176.9 82.1 176.9 83.3L176.9 83.3Q176.9 84.5 177.4 85.3Q177.8 86.2 178.4 86.6Q179.1 87.0 180.0 87.0L180.0 87.0Q180.4 87.0 180.9 86.9Q181.3 86.7 181.6 86.5Q182.0 86.2 182.2 85.9Q182.5 85.5 182.6 85.0L182.6 85.0L183.8 85.0Q183.7 85.7 183.3 86.3Q183.0 86.9 182.5 87.3Q182.0 87.7 181.3 87.9Q180.7 88.1 180.0 88.1Z "/></g><mask id="satori_om-id-3-1-2"><rect x="191" y="77" width="23" height="13" fill="#fff" mask="url(#satori_om-id)"/></mask><g mask="url(#satori_om-id)" clip-path="url(#satori_cp-id)"><path fill="#6a6a8a" d="M193.3 80.0L194.5 80.0L194.5 88L193.5 88L193.5 80.9L193.4 80.9L191.5 82.4L191.5 81.3L193.3 80.0ZM198.9 88.1L198.9 88.1Q198.1 88.1 197.5 87.8Q196.9 87.6 196.5 87.1Q196.2 86.6 196.1 86.0L196.1 86.0L197.2 86.0Q197.2 86.4 197.4 86.6Q197.7 86.9 198.0 87.1Q198.4 87.2 198.9 87.2L198.9 87.2Q199.4 87.2 199.8 87.0Q200.2 86.9 200.4 86.5Q200.6 86.2 200.6 85.8L200.6 85.8Q200.6 85.4 200.4 85.0Q200.2 84.7 199.8 84.5Q199.3 84.3 198.7 84.3L198.7 84.3L198.1 84.3L198.1 83.5L198.7 83.5Q199.2 83.5 199.6 83.3Q199.9 83.1 200.1 82.8Q200.3 82.5 200.3 82.1L200.3 82.1Q200.3 81.7 200.1 81.4Q200.0 81.1 199.7 80.9Q199.3 80.8 198.9 80.8L198.9 80.8Q198.5 80.8 198.1 80.9Q197.8 81.1 197.5 81.3Q197.3 81.6 197.3 82.0L197.3 82.0L196.3 82.0Q196.3 81.4 196.7 80.9Q197.0 80.4 197.6 80.2Q198.2 79.9 198.9 79.9L198.9 79.9Q199.7 79.9 200.2 80.2Q200.7 80.5 201.0 81.0Q201.3 81.5 201.3 82.0L201.3 82.0Q201.3 82.7 201.0 83.2Q200.6 83.7 200.0 83.8L200.0 83.8L200.0 83.9Q200.5 84.0 200.9 84.3Q201.2 84.5 201.4 84.9Q201.6 85.3 201.6 85.8L201.6 85.8Q201.6 86.5 201.3 87.0Q200.9 87.5 200.3 87.8Q199.7 88.1 198.9 88.1ZM205.1 83.5L205.1 83.5Q204.6 83.5 204.2 83.3Q203.9 83.1 203.7 82.7Q203.5 82.3 203.5 81.9L203.5 81.9L203.5 81.5Q203.5 81.0 203.7 80.7Q203.9 80.3 204.2 80.1Q204.6 79.9 205.1 79.9L205.1 79.9Q205.6 79.9 205.9 80.1Q206.3 80.3 206.5 80.7Q206.6 81.0 206.6 81.5L206.6 81.5L206.6 81.9Q206.6 82.3 206.5 82.7Q206.3 83.1 205.9 83.3Q205.6 83.5 205.1 83.5ZM205.1 82.8L205.1 82.8Q205.5 82.8 205.7 82.6Q205.8 82.3 205.8 81.9L205.8 81.9L205.8 81.5Q205.8 81.1 205.7 80.9Q205.5 80.6 205.1 80.6L205.1 80.6Q204.7 80.6 204.5 80.9Q204.3 81.1 204.3 81.5L204.3 81.5L204.3 81.9Q204.3 82.3 204.5 82.6Q204.7 82.8 205.1 82.8ZM210.3 88.2L210.3 88.2Q209.8 88.2 209.4 87.9Q209.1 87.7 208.9 87.3Q208.7 87.0 208.7 86.5L208.7 86.5L208.7 86.1Q208.7 85.7 208.9 85.3Q209.1 84.9 209.4 84.7Q209.8 84.5 210.3 84.5L210.3 84.5Q210.8 84.5 211.1 84.7Q211.5 84.9 211.7 85.3Q211.8 85.7 211.8 86.1L211.8 86.1L211.8 86.5Q211.8 87.0 211.7 87.3Q211.5 87.7 211.1 87.9Q210.8 88.2 210.3 88.2ZM210.3 87.5L210.3 87.5Q210.7 87.5 210.8 87.2Q211.0 86.9 211.0 86.5L211.0 86.5L211.0 86.1Q211.0 85.8 210.9 85.5Q210.7 85.2 210.3 85.2L210.3 85.2Q209.9 85.2 209.7 85.5Q209.5 85.8 209.5 86.1L209.5 86.1L209.5 86.5Q209.5 86.9 209.7 87.2Q209.9 87.5 210.3 87.5ZM205.3 88L204.4 88L209.9 80.0L210.8 80.0L205.3 88Z "/></g><mask id="satori_om-id-3-2"><rect x="293" y="75" width="120" height="16" fill="#fff" mask="url(#satori_om-id)"/></mask><mask id="satori_ms-id-3-2-0-0" maskUnits="userSpaceOnUse"><rect x="0" y="0" width="800" height="180" fill="#fff"/><path x="293" y="78" width="10" height="10" fill="#000"  stroke-width="0" d="M298,78 h0 a5,5 0 0 1 5,5 v0 a5,5 0 0 1 -5,5 h0 a5,5 0 0 1 -5,-5 v0 a5,5 0 0 1 5,-5" clip-path="url(#satori_cp-id)" mask="url(#satori_om-id)"/></mask><defs><filter id="satori_s-id-3-2-0-0" x="-90%" y="-90%" width="280%" height="280%"><feGaussianBlur stdDeviation="3" result="b"/><feFlood flood-color="#3178c640" in="SourceGraphic" result="f"/><feComposite in="f" in2="b" operator="in"/></filter></defs><g mask="url(#satori_ms-id-3-2-0-0)" filter="url(#satori_s-id-3-2-0-0)" opacity="1"><path x="293" y="78" width="10" height="10" fill="#fff" stroke="#fff" stroke-width="0" d="M298,78 h0 a5,5 0 0 1 5,5 v0 a5,5 0 0 1 -5,5 h0 a5,5 0 0 1 -5,-5 v0 a5,5 0 0 1 5,-5" clip-path="url(#satori_cp-id)" mask="url(#satori_om-id)"/></g><mask id="satori_om-id-3-2-0"><rect x="293" y="78" width="10" height="10" fill="#fff" mask="url(#satori_om-id)"/></mask><path x="293" y="78" width="10" height="10" fill="#3178c6" d="M298,78 h0 a5,5 0 0 1 5,5 v0 a5,5 0 0 1 -5,5 h0 a5,5 0 0 1 -5,-5 v0 a5,5 0 0 1 5,-5" clip-path="url(#satori_cp-id)" mask="url(#satori_om-id)"/><mask id="satori_om-id-3-2-1"><rect x="309" y="75" width="68" height="16" fill="#fff" mask="url(#satori_om-id)"/></mask><g mask="url(#satori_om-id)" clip-path="url(#satori_cp-id)"><path fill="#e0e0f0" d="M312.6 79.6L309.6 79.6L309.6 78.5L316.8 78.5L316.8 79.6L313.8 79.6L313.8 88L312.6 88L312.6 79.6ZM318.3 90.6L318.3 90.6L318.6 89.6L318.7 89.6Q319.0 89.7 319.3 89.7Q319.6 89.6 319.8 89.4Q320.1 89.1 320.2 88.6L320.2 88.6L320.4 88.0L317.7 80.9L319.0 80.9L320.5 85.1Q320.7 85.8 320.9 86.4L320.9 86.4Q321.0 86.7 321.0 87.0L321.0 87.0Q321.1 86.7 321.2 86.4L321.2 86.4Q321.4 85.8 321.6 85.1L321.6 85.1L323.1 80.9L324.4 80.9L321.2 89.1Q321.0 89.6 320.7 90.0Q320.4 90.4 320.0 90.5Q319.6 90.7 319.1 90.7L319.1 90.7Q318.8 90.7 318.6 90.7Q318.4 90.6 318.3 90.6ZM326.8 90.7L325.7 90.7L325.7 80.9L326.8 80.9L326.8 82.0L326.9 82.0Q327.1 81.8 327.3 81.6Q327.5 81.3 327.9 81.0Q328.3 80.8 329.0 80.8L329.0 80.8Q329.9 80.8 330.6 81.3Q331.2 81.7 331.6 82.5Q332.0 83.3 332.0 84.5L332.0 84.5Q332.0 85.6 331.6 86.4Q331.2 87.3 330.6 87.7Q329.9 88.2 329.0 88.2L329.0 88.2Q328.3 88.2 327.9 87.9Q327.5 87.7 327.3 87.4Q327.1 87.1 326.9 86.9L326.9 86.9L326.8 86.9L326.8 90.7ZM328.8 87.1L328.8 87.1Q329.5 87.1 329.9 86.8Q330.4 86.4 330.6 85.8Q330.8 85.2 330.8 84.5L330.8 84.5Q330.8 83.7 330.6 83.1Q330.4 82.5 329.9 82.2Q329.5 81.8 328.8 81.8L328.8 81.8Q328.2 81.8 327.7 82.2Q327.3 82.5 327.1 83.1Q326.8 83.7 326.8 84.5L326.8 84.5Q326.8 85.2 327.1 85.8Q327.3 86.5 327.7 86.8Q328.2 87.1 328.8 87.1ZM336.6 88.2L336.6 88.2Q335.6 88.2 334.9 87.7Q334.1 87.2 333.7 86.4Q333.3 85.6 333.3 84.5Q333.3 83.4 333.7 82.6Q334.1 81.8 334.8 81.3Q335.5 80.8 336.5 80.8L336.5 80.8Q337.1 80.8 337.6 81.0Q338.2 81.2 338.6 81.6Q339.1 82.0 339.3 82.7Q339.6 83.4 339.6 84.4L339.6 84.4L339.6 84.8L334.5 84.8Q334.5 85.5 334.7 86.0L334.7 86.0Q335.0 86.6 335.5 86.9Q336.0 87.1 336.7 87.1L336.7 87.1Q337.1 87.1 337.4 87.0Q337.8 86.9 338.0 86.7Q338.3 86.4 338.4 86.0L338.4 86.0L339.5 86.3Q339.3 86.9 338.9 87.3Q338.5 87.7 338.0 87.9Q337.4 88.2 336.6 88.2ZM334.5 83.9L334.5 83.9L338.4 83.9Q338.4 83.4 338.2 83.0L338.2 83.0Q338.0 82.4 337.6 82.1Q337.2 81.8 336.5 81.8Q335.9 81.8 335.4 82.1Q335.0 82.5 334.7 83.0L334.7 83.0Q334.5 83.4 334.5 83.9ZM344.4 88.2L344.4 88.2Q343.4 88.2 342.6 87.8Q341.9 87.5 341.5 86.9Q341.0 86.3 341.0 85.5L341.0 85.5L342.2 85.5Q342.3 86.1 342.6 86.4Q342.9 86.7 343.4 86.9Q343.9 87.1 344.4 87.1L344.4 87.1Q345.0 87.1 345.6 86.9Q346.1 86.7 346.4 86.3Q346.7 85.9 346.7 85.4L346.7 85.4Q346.7 84.9 346.4 84.7Q346.2 84.4 345.7 84.2Q345.3 84.0 344.8 83.9L344.8 83.9L343.7 83.5Q342.5 83.2 341.9 82.6Q341.2 82.0 341.2 81.1L341.2 81.1Q341.2 80.3 341.7 79.7Q342.1 79.1 342.8 78.7Q343.6 78.4 344.5 78.4L344.5 78.4Q345.4 78.4 346.1 78.7Q346.9 79.1 347.3 79.6Q347.7 80.2 347.7 80.9L347.7 80.9L346.5 80.9Q346.5 80.2 345.9 79.9Q345.3 79.5 344.5 79.5L344.5 79.5Q343.8 79.5 343.4 79.7Q342.9 79.9 342.7 80.2Q342.4 80.6 342.4 81.0L342.4 81.0Q342.4 81.5 342.7 81.8Q343.0 82.1 343.5 82.3Q343.9 82.5 344.2 82.5L344.2 82.5L345.2 82.8Q345.5 82.9 346.0 83.1Q346.5 83.3 346.9 83.6Q347.3 83.9 347.6 84.3Q347.8 84.8 347.8 85.4L347.8 85.4Q347.8 86.2 347.4 86.8Q347.0 87.4 346.3 87.8Q345.5 88.2 344.4 88.2ZM352.5 88.2L352.5 88.2Q351.5 88.2 350.8 87.7Q350.1 87.2 349.6 86.4Q349.2 85.6 349.2 84.5L349.2 84.5Q349.2 83.4 349.6 82.6Q350.1 81.7 350.8 81.3Q351.5 80.8 352.5 80.8L352.5 80.8Q353.0 80.8 353.4 80.9Q353.9 81.1 354.3 81.3Q354.7 81.6 354.9 81.9Q355.2 82.3 355.3 82.8L355.3 82.8L354.2 83.1Q354.2 82.8 354.0 82.6Q353.9 82.4 353.6 82.2Q353.4 82.0 353.1 81.9Q352.8 81.8 352.5 81.8L352.5 81.8Q351.8 81.8 351.3 82.2Q350.8 82.6 350.6 83.2Q350.4 83.8 350.4 84.5L350.4 84.5Q350.4 85.2 350.6 85.8Q350.8 86.4 351.3 86.8Q351.8 87.1 352.5 87.1L352.5 87.1Q352.8 87.1 353.1 87.0Q353.4 86.9 353.7 86.8Q353.9 86.6 354.0 86.3Q354.2 86.1 354.3 85.8L354.3 85.8L355.4 86.1Q355.2 86.6 355.0 87.0Q354.7 87.4 354.3 87.6Q353.9 87.9 353.5 88.0Q353.0 88.2 352.5 88.2ZM358.1 88L357.0 88L357.0 80.9L358.1 80.9L358.1 82.0L358.2 82.0Q358.4 81.5 358.9 81.1Q359.4 80.8 360.0 80.8L360.0 80.8Q360.2 80.8 360.3 80.8Q360.5 80.8 360.6 80.8L360.6 80.8L360.6 82.0Q360.6 82.0 360.4 81.9Q360.1 81.9 359.9 81.9L359.9 81.9Q359.4 81.9 359.0 82.1Q358.6 82.3 358.4 82.7Q358.1 83.1 358.1 83.6L358.1 83.6L358.1 88ZM363.0 88L361.9 88L361.9 80.9L363.0 80.9L363.0 88ZM362.5 79.7L362.5 79.7Q362.2 79.7 361.9 79.5Q361.7 79.3 361.7 79.0L361.7 79.0Q361.7 78.7 361.9 78.4Q362.2 78.2 362.5 78.2L362.5 78.2Q362.8 78.2 363.0 78.4Q363.3 78.7 363.3 79.0L363.3 79.0Q363.3 79.3 363.0 79.5Q362.8 79.7 362.5 79.7ZM366.2 90.7L365.0 90.7L365.0 80.9L366.2 80.9L366.2 82.0L366.3 82.0Q366.4 81.8 366.6 81.6Q366.8 81.3 367.2 81.0Q367.6 80.8 368.3 80.8L368.3 80.8Q369.2 80.8 369.9 81.3Q370.6 81.7 371.0 82.5Q371.3 83.3 371.3 84.5L371.3 84.5Q371.3 85.6 371.0 86.4Q370.6 87.3 369.9 87.7Q369.2 88.2 368.3 88.2L368.3 88.2Q367.7 88.2 367.3 87.9Q366.8 87.7 366.6 87.4Q366.4 87.1 366.3 86.9L366.3 86.9L366.2 86.9L366.2 90.7ZM368.2 87.1L368.2 87.1Q368.8 87.1 369.3 86.8Q369.7 86.4 370.0 85.8Q370.2 85.2 370.2 84.5L370.2 84.5Q370.2 83.7 370.0 83.1Q369.7 82.5 369.3 82.2Q368.8 81.8 368.2 81.8L368.2 81.8Q367.5 81.8 367.1 82.2Q366.6 82.5 366.4 83.1Q366.2 83.7 366.2 84.5L366.2 84.5Q366.2 85.2 366.4 85.8Q366.6 86.5 367.1 86.8Q367.5 87.1 368.2 87.1ZM374.3 80.9L375.8 80.9L375.8 81.9L374.3 81.9L374.3 86.2Q374.3 86.6 374.5 86.9Q374.7 87.1 375.2 87.1L375.2 87.1Q375.3 87.1 375.5 87.0Q375.6 87.0 375.8 87.0L375.8 87.0L376.0 88.0Q375.8 88.0 375.6 88.1Q375.4 88.1 375.1 88.1L375.1 88.1Q374.2 88.1 373.7 87.6Q373.2 87.1 373.2 86.2L373.2 86.2L373.2 81.9L372.1 81.9L372.1 80.9L373.2 80.9L373.2 79.2L374.3 79.2L374.3 80.9Z "/></g><mask id="satori_om-id-3-2-2"><rect x="383" y="77" width="20" height="13" fill="#fff" mask="url(#satori_om-id)"/></mask><g mask="url(#satori_om-id)" clip-path="url(#satori_cp-id)"><path fill="#6a6a8a" d="M385.3 80.0L386.5 80.0L386.5 88L385.5 88L385.5 80.9L385.4 80.9L383.5 82.4L383.5 81.3L385.3 80.0ZM389.7 80.0L391.0 80.0L391.0 88L390.0 88L390.0 80.9L389.9 80.9L388.0 82.4L388.0 81.3L389.7 80.0ZM394.8 83.5L394.8 83.5Q394.2 83.5 393.9 83.3Q393.5 83.1 393.4 82.7Q393.2 82.3 393.2 81.9L393.2 81.9L393.2 81.5Q393.2 81.0 393.4 80.7Q393.5 80.3 393.9 80.1Q394.3 79.9 394.8 79.9L394.8 79.9Q395.3 79.9 395.6 80.1Q396.0 80.3 396.1 80.7Q396.3 81.0 396.3 81.5L396.3 81.5L396.3 81.9Q396.3 82.3 396.1 82.7Q396.0 83.1 395.6 83.3Q395.3 83.5 394.8 83.5ZM394.8 82.8L394.8 82.8Q395.2 82.8 395.3 82.6Q395.5 82.3 395.5 81.9L395.5 81.9L395.5 81.5Q395.5 81.1 395.3 80.9Q395.2 80.6 394.8 80.6L394.8 80.6Q394.4 80.6 394.2 80.9Q394.0 81.1 394.0 81.5L394.0 81.5L394.0 81.9Q394.0 82.3 394.2 82.6Q394.3 82.8 394.8 82.8ZM400.0 88.2L400.0 88.2Q399.4 88.2 399.1 87.9Q398.7 87.7 398.6 87.3Q398.4 87.0 398.4 86.5L398.4 86.5L398.4 86.1Q398.4 85.7 398.6 85.3Q398.7 84.9 399.1 84.7Q399.4 84.5 400.0 84.5L400.0 84.5Q400.5 84.5 400.8 84.7Q401.2 84.9 401.3 85.3Q401.5 85.7 401.5 86.1L401.5 86.1L401.5 86.5Q401.5 87.0 401.3 87.3Q401.2 87.7 400.8 87.9Q400.5 88.2 400.0 88.2ZM400.0 87.5L400.0 87.5Q400.4 87.5 400.5 87.2Q400.7 86.9 400.7 86.5L400.7 86.5L400.7 86.1Q400.7 85.8 400.5 85.5Q400.4 85.2 400.0 85.2L400.0 85.2Q399.5 85.2 399.4 85.5Q399.2 85.8 399.2 86.1L399.2 86.1L399.2 86.5Q399.2 86.9 399.4 87.2Q399.5 87.5 400.0 87.5ZM395.0 88L394.1 88L399.6 80.0L400.5 80.0L395.0 88Z "/></g><mask id="satori_om-id-3-3"><rect x="427" y="75" width="120" height="16" fill="#fff" mask="url(#satori_om-id)"/></mask><mask id="satori_ms-id-3-3-0-0" maskUnits="userSpaceOnUse"><rect x="0" y="0" width="800" height="180" fill="#fff"/><path x="427" y="78" width="10" height="10" fill="#000"  stroke-width="0" d="M432,78 h0 a5,5 0 0 1 5,5 v0 a5,5 0 0 1 -5,5 h0 a5,5 0 0 1 -5,-5 v0 a5,5 0 0 1 5,-5" clip-path="url(#satori_cp-id)" mask="url(#satori_om-id)"/></mask><defs><filter id="satori_s-id-3-3-0-0" x="-90%" y="-90%" width="280%" height="280%"><feGaussianBlur stdDeviation="3" result="b"/><feFlood flood-color="#3572A540" in="SourceGraphic" result="f"/><feComposite in="f" in2="b" operator="in"/></filter></defs><g mask="url(#satori_ms-id-3-3-0-0)" filter="url(#satori_s-id-3-3-0-0)" opacity="1"><path x="427" y="78" width="10" height="10" fill="#fff" stroke="#fff" stroke-width="0" d="M432,78 h0 a5,5 0 0 1 5,5 v0 a5,5 0 0 1 -5,5 h0 a5,5 0 0 1 -5,-5 v0 a5,5 0 0 1 5,-5" clip-path="url(#satori_cp-id)" mask="url(#satori_om-id)"/></g><mask id="satori_om-id-3-3-0"><rect x="427" y="78" width="10" height="10" fill="#fff" mask="url(#satori_om-id)"/></mask><path x="427" y="78" width="10" height="10" fill="#3572A5" d="M432,78 h0 a5,5 0 0 1 5,5 v0 a5,5 0 0 1 -5,5 h0 a5,5 0 0 1 -5,-5 v0 a5,5 0 0 1 5,-5" clip-path="url(#satori_cp-id)" mask="url(#satori_om-id)"/><mask id="satori_om-id-3-3-1"><rect x="443" y="75" width="44" height="16" fill="#fff" mask="url(#satori_om-id)"/></mask><g mask="url(#satori_om-id)" clip-path="url(#satori_cp-id)"><path fill="#e0e0f0" d="M445.3 88L444.1 88L444.1 78.5L447.4 78.5Q448.5 78.5 449.2 78.9Q449.9 79.3 450.3 80.0Q450.6 80.7 450.6 81.6Q450.6 82.4 450.3 83.1Q449.9 83.8 449.2 84.2Q448.5 84.6 447.4 84.6L447.4 84.6L445.3 84.6L445.3 88ZM445.3 79.6L445.3 83.5L447.3 83.5Q448.1 83.5 448.5 83.3Q449.0 83.0 449.2 82.6Q449.4 82.1 449.4 81.6Q449.4 81.0 449.2 80.6Q449.0 80.1 448.5 79.9Q448.1 79.6 447.3 79.6L447.3 79.6L445.3 79.6ZM452.2 90.6L452.2 90.6L452.5 89.6L452.6 89.6Q453.0 89.7 453.2 89.7Q453.5 89.6 453.8 89.4Q454.0 89.1 454.2 88.6L454.2 88.6L454.4 88.0L451.6 80.9L452.9 80.9L454.4 85.1Q454.6 85.8 454.8 86.4L454.8 86.4Q454.9 86.7 455.0 87.0L455.0 87.0Q455.0 86.7 455.1 86.4L455.1 86.4Q455.3 85.8 455.5 85.1L455.5 85.1L457.0 80.9L458.3 80.9L455.1 89.1Q454.9 89.6 454.6 90.0Q454.3 90.4 453.9 90.5Q453.5 90.7 453.0 90.7L453.0 90.7Q452.7 90.7 452.5 90.7Q452.3 90.6 452.2 90.6ZM460.9 80.9L462.4 80.9L462.4 81.9L460.9 81.9L460.9 86.2Q460.9 86.6 461.1 86.9Q461.3 87.1 461.8 87.1L461.8 87.1Q461.9 87.1 462.1 87.0Q462.2 87.0 462.4 87.0L462.4 87.0L462.6 88.0Q462.4 88.0 462.2 88.1Q462.0 88.1 461.8 88.1L461.8 88.1Q460.8 88.1 460.3 87.6Q459.8 87.1 459.8 86.2L459.8 86.2L459.8 81.9L458.7 81.9L458.7 80.9L459.8 80.9L459.8 79.2L460.9 79.2L460.9 80.9ZM465.0 83.7L465.0 83.7L465.0 88L463.9 88L463.9 78.5L465.0 78.5L465.0 82.1Q465.3 81.5 465.7 81.2L465.7 81.2Q466.3 80.8 467.1 80.8L467.1 80.8Q467.9 80.8 468.4 81.1Q468.9 81.4 469.2 82.0Q469.5 82.6 469.5 83.5L469.5 83.5L469.5 88L468.4 88L468.4 83.6Q468.4 82.8 468.0 82.3Q467.5 81.8 466.8 81.8L466.8 81.8Q466.3 81.8 465.9 82.1Q465.5 82.3 465.2 82.7Q465.0 83.1 465.0 83.7ZM474.4 88.2L474.4 88.2Q473.5 88.2 472.7 87.7Q472.0 87.2 471.6 86.4Q471.2 85.6 471.2 84.5L471.2 84.5Q471.2 83.4 471.6 82.6Q472.0 81.7 472.7 81.3Q473.5 80.8 474.4 80.8L474.4 80.8Q475.4 80.8 476.1 81.3Q476.9 81.7 477.3 82.6Q477.7 83.4 477.7 84.5L477.7 84.5Q477.7 85.6 477.3 86.4Q476.9 87.2 476.1 87.7Q475.4 88.2 474.4 88.2ZM474.4 87.1L474.4 87.1Q475.2 87.1 475.6 86.8Q476.1 86.4 476.3 85.8Q476.5 85.2 476.5 84.5L476.5 84.5Q476.5 83.8 476.3 83.2Q476.1 82.6 475.6 82.2Q475.2 81.8 474.4 81.8L474.4 81.8Q473.7 81.8 473.3 82.2Q472.8 82.6 472.6 83.2Q472.4 83.8 472.4 84.5L472.4 84.5Q472.4 85.2 472.6 85.8Q472.8 86.4 473.3 86.8Q473.7 87.1 474.4 87.1ZM480.5 83.7L480.5 83.7L480.5 88L479.3 88L479.3 80.9L480.4 80.9L480.5 82.2Q480.7 81.6 481.2 81.2L481.2 81.2Q481.8 80.8 482.6 80.8L482.6 80.8Q483.3 80.8 483.9 81.1Q484.4 81.4 484.7 82.0Q485.0 82.6 485.0 83.5L485.0 83.5L485.0 88L483.9 88L483.9 83.6Q483.9 82.8 483.5 82.3Q483.0 81.8 482.3 81.8L482.3 81.8Q481.8 81.8 481.4 82.1Q481.0 82.3 480.7 82.7Q480.5 83.1 480.5 83.7Z "/></g><mask id="satori_om-id-3-3-2"><rect x="493" y="77" width="18" height="13" fill="#fff" mask="url(#satori_om-id)"/></mask><g mask="url(#satori_om-id)" clip-path="url(#satori_cp-id)"><path fill="#6a6a8a" d="M496.2 88.1L496.2 88.1Q495.6 88.1 495.0 87.8Q494.5 87.6 494.2 87.1Q493.8 86.6 493.7 86.0L493.7 86.0L494.7 86.0Q494.9 86.5 495.2 86.9Q495.6 87.2 496.2 87.2L496.2 87.2Q496.9 87.2 497.3 86.8Q497.7 86.5 498.0 85.8Q498.2 85.1 498.2 84.2L498.2 84.2L498.1 84.2Q497.9 84.5 497.6 84.7Q497.3 85.0 497.0 85.1Q496.6 85.2 496.2 85.2L496.2 85.2Q495.5 85.2 494.9 84.9Q494.3 84.5 494.0 83.9Q493.7 83.3 493.7 82.6L493.7 82.6Q493.7 81.8 494.0 81.2Q494.3 80.6 494.9 80.2Q495.6 79.9 496.4 79.9L496.4 79.9Q496.9 79.9 497.4 80.1Q497.9 80.3 498.3 80.7Q498.7 81.1 498.9 81.8Q499.2 82.6 499.2 83.7L499.2 83.7Q499.2 84.7 499.0 85.6Q498.8 86.4 498.4 87.0Q498.0 87.5 497.5 87.8Q496.9 88.1 496.2 88.1ZM496.3 84.3L496.3 84.3Q496.7 84.3 497.0 84.2Q497.3 84.0 497.6 83.8Q497.8 83.5 497.9 83.2Q498.1 82.9 498.1 82.5L498.1 82.5Q498.1 82.1 497.8 81.7Q497.6 81.3 497.2 81.0Q496.9 80.8 496.4 80.8L496.4 80.8Q495.9 80.8 495.5 81.0Q495.1 81.3 494.9 81.7Q494.7 82.1 494.7 82.6L494.7 82.6Q494.7 83.1 494.9 83.5Q495.1 83.9 495.5 84.1Q495.8 84.3 496.3 84.3ZM502.6 83.5L502.6 83.5Q502.1 83.5 501.8 83.3Q501.4 83.1 501.2 82.7Q501.1 82.3 501.1 81.9L501.1 81.9L501.1 81.5Q501.1 81.0 501.2 80.7Q501.4 80.3 501.8 80.1Q502.1 79.9 502.6 79.9L502.6 79.9Q503.1 79.9 503.5 80.1Q503.8 80.3 504.0 80.7Q504.2 81.0 504.2 81.5L504.2 81.5L504.2 81.9Q504.2 82.3 504.0 82.7Q503.8 83.1 503.5 83.3Q503.1 83.5 502.6 83.5ZM502.6 82.8L502.6 82.8Q503.0 82.8 503.2 82.6Q503.4 82.3 503.4 81.9L503.4 81.9L503.4 81.5Q503.4 81.1 503.2 80.9Q503.0 80.6 502.6 80.6L502.6 80.6Q502.2 80.6 502.1 80.9Q501.9 81.1 501.9 81.5L501.9 81.5L501.9 81.9Q501.9 82.3 502.0 82.6Q502.2 82.8 502.6 82.8ZM507.8 88.2L507.8 88.2Q507.3 88.2 507.0 87.9Q506.6 87.7 506.4 87.3Q506.3 87.0 506.3 86.5L506.3 86.5L506.3 86.1Q506.3 85.7 506.4 85.3Q506.6 84.9 507.0 84.7Q507.3 84.5 507.8 84.5L507.8 84.5Q508.3 84.5 508.7 84.7Q509.0 84.9 509.2 85.3Q509.4 85.7 509.4 86.1L509.4 86.1L509.4 86.5Q509.4 87.0 509.2 87.3Q509.0 87.7 508.7 87.9Q508.3 88.2 507.8 88.2ZM507.8 87.5L507.8 87.5Q508.2 87.5 508.4 87.2Q508.6 86.9 508.6 86.5L508.6 86.5L508.6 86.1Q508.6 85.8 508.4 85.5Q508.2 85.2 507.8 85.2L507.8 85.2Q507.4 85.2 507.2 85.5Q507.1 85.8 507.1 86.1L507.1 86.1L507.1 86.5Q507.1 86.9 507.2 87.2Q507.4 87.5 507.8 87.5ZM502.9 88L502.0 88L507.5 80.0L508.4 80.0L502.9 88Z "/></g><mask id="satori_om-id-3-4"><rect x="561" y="75" width="120" height="16" fill="#fff" mask="url(#satori_om-id)"/></mask><mask id="satori_ms-id-3-4-0-0" maskUnits="userSpaceOnUse"><rect x="0" y="0" width="800" height="180" fill="#fff"/><path x="561" y="78" width="10" height="10" fill="#000"  stroke-width="0" d="M566,78 h0 a5,5 0 0 1 5,5 v0 a5,5 0 0 1 -5,5 h0 a5,5 0 0 1 -5,-5 v0 a5,5 0 0 1 5,-5" clip-path="url(#satori_cp-id)" mask="url(#satori_om-id)"/></mask><defs><filter id="satori_s-id-3-4-0-0" x="-90%" y="-90%" width="280%" height="280%"><feGaussianBlur stdDeviation="3" result="b"/><feFlood flood-color="#66339940" in="SourceGraphic" result="f"/><feComposite in="f" in2="b" operator="in"/></filter></defs><g mask="url(#satori_ms-id-3-4-0-0)" filter="url(#satori_s-id-3-4-0-0)" opacity="1"><path x="561" y="78" width="10" height="10" fill="#fff" stroke="#fff" stroke-width="0" d="M566,78 h0 a5,5 0 0 1 5,5 v0 a5,5 0 0 1 -5,5 h0 a5,5 0 0 1 -5,-5 v0 a5,5 0 0 1 5,-5" clip-path="url(#satori_cp-id)" mask="url(#satori_om-id)"/></g><mask id="satori_om-id-3-4-0"><rect x="561" y="78" width="10" height="10" fill="#fff" mask="url(#satori_om-id)"/></mask><path x="561" y="78" width="10" height="10" fill="#663399" d="M566,78 h0 a5,5 0 0 1 5,5 v0 a5,5 0 0 1 -5,5 h0 a5,5 0 0 1 -5,-5 v0 a5,5 0 0 1 5,-5" clip-path="url(#satori_cp-id)" mask="url(#satori_om-id)"/><mask id="satori_om-id-3-4-1"><rect x="577" y="75" width="27" height="16" fill="#fff" mask="url(#satori_om-id)"/></mask><g mask="url(#satori_om-id)" clip-path="url(#satori_cp-id)"><path fill="#e0e0f0" d="M582.0 88.1L582.0 88.1Q580.8 88.1 579.8 87.5Q578.9 87.0 578.3 85.9Q577.8 84.8 577.8 83.3L577.8 83.3Q577.8 81.8 578.3 80.7Q578.9 79.6 579.8 79.0Q580.8 78.4 582.0 78.4L582.0 78.4Q582.7 78.4 583.3 78.6Q584.0 78.8 584.5 79.2Q585.0 79.6 585.3 80.2Q585.7 80.8 585.8 81.5L585.8 81.5L584.6 81.5Q584.5 81.0 584.2 80.7Q584.0 80.3 583.6 80.0Q583.3 79.8 582.9 79.7Q582.4 79.5 582.0 79.5L582.0 79.5Q581.1 79.5 580.4 80.0Q579.7 80.4 579.3 81.2Q578.9 82.1 578.9 83.3L578.9 83.3Q578.9 84.5 579.4 85.3Q579.8 86.2 580.4 86.6Q581.1 87.0 582.0 87.0L582.0 87.0Q582.4 87.0 582.9 86.9Q583.3 86.7 583.6 86.5Q584.0 86.2 584.2 85.9Q584.5 85.5 584.6 85.0L584.6 85.0L585.8 85.0Q585.7 85.7 585.3 86.3Q585.0 86.9 584.5 87.3Q584.0 87.7 583.3 87.9Q582.7 88.1 582.0 88.1ZM590.7 88.2L590.7 88.2Q589.6 88.2 588.9 87.8Q588.1 87.5 587.7 86.9Q587.3 86.3 587.2 85.5L587.2 85.5L588.5 85.5Q588.5 86.1 588.8 86.4Q589.1 86.7 589.6 86.9Q590.1 87.1 590.7 87.1L590.7 87.1Q591.3 87.1 591.8 86.9Q592.3 86.7 592.6 86.3Q592.9 85.9 592.9 85.4L592.9 85.4Q592.9 84.9 592.7 84.7Q592.4 84.4 592.0 84.2Q591.6 84.0 591.1 83.9L591.1 83.9L589.9 83.5Q588.8 83.2 588.1 82.6Q587.5 82.0 587.5 81.1L587.5 81.1Q587.5 80.3 587.9 79.7Q588.4 79.1 589.1 78.7Q589.8 78.4 590.7 78.4L590.7 78.4Q591.7 78.4 592.4 78.7Q593.1 79.1 593.5 79.6Q593.9 80.2 594.0 80.9L594.0 80.9L592.8 80.9Q592.7 80.2 592.1 79.9Q591.6 79.5 590.7 79.5L590.7 79.5Q590.1 79.5 589.6 79.7Q589.2 79.9 588.9 80.2Q588.7 80.6 588.7 81.0L588.7 81.0Q588.7 81.5 589.0 81.8Q589.3 82.1 589.7 82.3Q590.1 82.5 590.5 82.5L590.5 82.5L591.4 82.8Q591.8 82.9 592.3 83.1Q592.7 83.3 593.1 83.6Q593.6 83.9 593.8 84.3Q594.1 84.8 594.1 85.4L594.1 85.4Q594.1 86.2 593.7 86.8Q593.3 87.4 592.5 87.8Q591.8 88.2 590.7 88.2ZM599.0 88.2L599.0 88.2Q598.0 88.2 597.2 87.8Q596.5 87.5 596.1 86.9Q595.6 86.3 595.6 85.5L595.6 85.5L596.8 85.5Q596.9 86.1 597.2 86.4Q597.5 86.7 598.0 86.9Q598.5 87.1 599.0 87.1L599.0 87.1Q599.6 87.1 600.2 86.9Q600.7 86.7 601.0 86.3Q601.3 85.9 601.3 85.4L601.3 85.4Q601.3 84.9 601.0 84.7Q600.8 84.4 600.3 84.2Q599.9 84.0 599.4 83.9L599.4 83.9L598.3 83.5Q597.1 83.2 596.5 82.6Q595.8 82.0 595.8 81.1L595.8 81.1Q595.8 80.3 596.3 79.7Q596.7 79.1 597.4 78.7Q598.2 78.4 599.1 78.4L599.1 78.4Q600.0 78.4 600.7 78.7Q601.5 79.1 601.9 79.6Q602.3 80.2 602.3 80.9L602.3 80.9L601.1 80.9Q601.1 80.2 600.5 79.9Q599.9 79.5 599.1 79.5L599.1 79.5Q598.4 79.5 598.0 79.7Q597.5 79.9 597.3 80.2Q597.0 80.6 597.0 81.0L597.0 81.0Q597.0 81.5 597.3 81.8Q597.6 82.1 598.1 82.3Q598.5 82.5 598.8 82.5L598.8 82.5L599.8 82.8Q600.1 82.9 600.6 83.1Q601.1 83.3 601.5 83.6Q601.9 83.9 602.2 84.3Q602.4 84.8 602.4 85.4L602.4 85.4Q602.4 86.2 602.0 86.8Q601.6 87.4 600.9 87.8Q600.1 88.2 599.0 88.2Z "/></g><mask id="satori_om-id-3-4-2"><rect x="610" y="77" width="18" height="13" fill="#fff" mask="url(#satori_om-id)"/></mask><g mask="url(#satori_om-id)" clip-path="url(#satori_cp-id)"><path fill="#6a6a8a" d="M613.2 88.1L613.2 88.1Q612.6 88.1 612.0 87.8Q611.5 87.6 611.2 87.1Q610.8 86.6 610.7 86.0L610.7 86.0L611.7 86.0Q611.9 86.5 612.2 86.9Q612.6 87.2 613.2 87.2L613.2 87.2Q613.9 87.2 614.3 86.8Q614.7 86.5 615.0 85.8Q615.2 85.1 615.2 84.2L615.2 84.2L615.1 84.2Q614.9 84.5 614.6 84.7Q614.3 85.0 614.0 85.1Q613.6 85.2 613.2 85.2L613.2 85.2Q612.5 85.2 611.9 84.9Q611.3 84.5 611.0 83.9Q610.7 83.3 610.7 82.6L610.7 82.6Q610.7 81.8 611.0 81.2Q611.3 80.6 611.9 80.2Q612.6 79.9 613.4 79.9L613.4 79.9Q613.9 79.9 614.4 80.1Q614.9 80.3 615.3 80.7Q615.7 81.1 615.9 81.8Q616.2 82.6 616.2 83.7L616.2 83.7Q616.2 84.7 616.0 85.6Q615.8 86.4 615.4 87.0Q615.0 87.5 614.5 87.8Q613.9 88.1 613.2 88.1ZM613.3 84.3L613.3 84.3Q613.7 84.3 614.0 84.2Q614.3 84.0 614.6 83.8Q614.8 83.5 614.9 83.2Q615.1 82.9 615.1 82.5L615.1 82.5Q615.1 82.1 614.8 81.7Q614.6 81.3 614.2 81.0Q613.9 80.8 613.4 80.8L613.4 80.8Q612.9 80.8 612.5 81.0Q612.1 81.3 611.9 81.7Q611.7 82.1 611.7 82.6L611.7 82.6Q611.7 83.1 611.9 83.5Q612.1 83.9 612.5 84.1Q612.8 84.3 613.3 84.3ZM619.6 83.5L619.6 83.5Q619.1 83.5 618.8 83.3Q618.4 83.1 618.2 82.7Q618.1 82.3 618.1 81.9L618.1 81.9L618.1 81.5Q618.1 81.0 618.2 80.7Q618.4 80.3 618.8 80.1Q619.1 79.9 619.6 79.9L619.6 79.9Q620.1 79.9 620.5 80.1Q620.8 80.3 621.0 80.7Q621.2 81.0 621.2 81.5L621.2 81.5L621.2 81.9Q621.2 82.3 621.0 82.7Q620.8 83.1 620.5 83.3Q620.1 83.5 619.6 83.5ZM619.6 82.8L619.6 82.8Q620.0 82.8 620.2 82.6Q620.4 82.3 620.4 81.9L620.4 81.9L620.4 81.5Q620.4 81.1 620.2 80.9Q620.0 80.6 619.6 80.6L619.6 80.6Q619.2 80.6 619.1 80.9Q618.9 81.1 618.9 81.5L618.9 81.5L618.9 81.9Q618.9 82.3 619.0 82.6Q619.2 82.8 619.6 82.8ZM624.8 88.2L624.8 88.2Q624.3 88.2 624.0 87.9Q623.6 87.7 623.4 87.3Q623.3 87.0 623.3 86.5L623.3 86.5L623.3 86.1Q623.3 85.7 623.4 85.3Q623.6 84.9 624.0 84.7Q624.3 84.5 624.8 84.5L624.8 84.5Q625.3 84.5 625.7 84.7Q626.0 84.9 626.2 85.3Q626.4 85.7 626.4 86.1L626.4 86.1L626.4 86.5Q626.4 87.0 626.2 87.3Q626.0 87.7 625.7 87.9Q625.3 88.2 624.8 88.2ZM624.8 87.5L624.8 87.5Q625.2 87.5 625.4 87.2Q625.6 86.9 625.6 86.5L625.6 86.5L625.6 86.1Q625.6 85.8 625.4 85.5Q625.2 85.2 624.8 85.2L624.8 85.2Q624.4 85.2 624.2 85.5Q624.1 85.8 624.1 86.1L624.1 86.1L624.1 86.5Q624.1 86.9 624.2 87.2Q624.4 87.5 624.8 87.5ZM619.9 88L619.0 88L624.5 80.0L625.4 80.0L619.9 88Z "/></g><mask id="satori_om-id-3-5"><rect x="25" y="105" width="120" height="16" fill="#fff" mask="url(#satori_om-id)"/></mask><mask id="satori_ms-id-3-5-0-0" maskUnits="userSpaceOnUse"><rect x="0" y="0" width="800" height="180" fill="#fff"/><path x="25" y="108" width="10" height="10" fill="#000"  stroke-width="0" d="M30,108 h0 a5,5 0 0 1 5,5 v0 a5,5 0 0 1 -5,5 h0 a5,5 0 0 1 -5,-5 v0 a5,5 0 0 1 5,-5" clip-path="url(#satori_cp-id)" mask="url(#satori_om-id)"/></mask><defs><filter id="satori_s-id-3-5-0-0" x="-90%" y="-90%" width="280%" height="280%"><feGaussianBlur stdDeviation="3" result="b"/><feFlood flood-color="#89e05140" in="SourceGraphic" result="f"/><feComposite in="f" in2="b" operator="in"/></filter></defs><g mask="url(#satori_ms-id-3-5-0-0)" filter="url(#satori_s-id-3-5-0-0)" opacity="1"><path x="25" y="108" width="10" height="10" fill="#fff" stroke="#fff" stroke-width="0" d="M30,108 h0 a5,5 0 0 1 5,5 v0 a5,5 0 0 1 -5,5 h0 a5,5 0 0 1 -5,-5 v0 a5,5 0 0 1 5,-5" clip-path="url(#satori_cp-id)" mask="url(#satori_om-id)"/></g><mask id="satori_om-id-3-5-0"><rect x="25" y="108" width="10" height="10" fill="#fff" mask="url(#satori_om-id)"/></mask><path x="25" y="108" width="10" height="10" fill="#89e051" d="M30,108 h0 a5,5 0 0 1 5,5 v0 a5,5 0 0 1 -5,5 h0 a5,5 0 0 1 -5,-5 v0 a5,5 0 0 1 5,-5" clip-path="url(#satori_cp-id)" mask="url(#satori_om-id)"/><mask id="satori_om-id-3-5-1"><rect x="41" y="105" width="30" height="16" fill="#fff" mask="url(#satori_om-id)"/></mask><g mask="url(#satori_om-id)" clip-path="url(#satori_cp-id)"><path fill="#e0e0f0" d="M45.2 118.2L45.2 118.2Q44.1 118.2 43.4 117.8Q42.6 117.5 42.2 116.9Q41.8 116.3 41.7 115.5L41.7 115.5L43.0 115.5Q43.0 116.1 43.3 116.4Q43.6 116.7 44.1 116.9Q44.6 117.1 45.2 117.1L45.2 117.1Q45.8 117.1 46.3 116.9Q46.8 116.7 47.1 116.3Q47.4 115.9 47.4 115.4L47.4 115.4Q47.4 114.9 47.2 114.7Q46.9 114.4 46.5 114.2Q46.1 114.0 45.6 113.9L45.6 113.9L44.4 113.5Q43.3 113.2 42.6 112.6Q42.0 112.0 42.0 111.1L42.0 111.1Q42.0 110.3 42.4 109.7Q42.9 109.1 43.6 108.7Q44.3 108.4 45.3 108.4L45.3 108.4Q46.2 108.4 46.9 108.7Q47.6 109.1 48.0 109.6Q48.5 110.2 48.5 110.9L48.5 110.9L47.3 110.9Q47.2 110.2 46.6 109.9Q46.1 109.5 45.2 109.5L45.2 109.5Q44.6 109.5 44.1 109.7Q43.7 109.9 43.4 110.2Q43.2 110.6 43.2 111.0L43.2 111.0Q43.2 111.5 43.5 111.8Q43.8 112.1 44.2 112.3Q44.6 112.5 45.0 112.5L45.0 112.5L45.9 112.8Q46.3 112.9 46.8 113.1Q47.2 113.3 47.6 113.6Q48.1 113.9 48.3 114.3Q48.6 114.8 48.6 115.4L48.6 115.4Q48.6 116.2 48.2 116.8Q47.8 117.4 47.0 117.8Q46.3 118.2 45.2 118.2ZM51.5 113.7L51.5 113.7L51.5 118L50.3 118L50.3 108.5L51.5 108.5L51.5 112.1Q51.8 111.5 52.2 111.2L52.2 111.2Q52.8 110.8 53.6 110.8L53.6 110.8Q54.3 110.8 54.9 111.1Q55.4 111.4 55.7 112.0Q56.0 112.6 56.0 113.5L56.0 113.5L56.0 118L54.9 118L54.9 113.6Q54.9 112.8 54.4 112.3Q54.0 111.8 53.3 111.8L53.3 111.8Q52.8 111.8 52.4 112.1Q52.0 112.3 51.7 112.7Q51.5 113.1 51.5 113.7ZM61.0 118.2L61.0 118.2Q60.0 118.2 59.2 117.7Q58.5 117.2 58.1 116.4Q57.7 115.6 57.7 114.5Q57.7 113.4 58.1 112.6Q58.5 111.8 59.2 111.3Q59.9 110.8 60.9 110.8L60.9 110.8Q61.4 110.8 62.0 111.0Q62.5 111.2 63.0 111.6Q63.4 112.0 63.7 112.7Q64.0 113.4 64.0 114.4L64.0 114.4L64.0 114.8L58.8 114.8Q58.9 115.5 59.1 116.0L59.1 116.0Q59.4 116.6 59.9 116.9Q60.4 117.1 61.0 117.1L61.0 117.1Q61.4 117.1 61.8 117.0Q62.1 116.9 62.4 116.7Q62.6 116.4 62.8 116.0L62.8 116.0L63.9 116.3Q63.7 116.9 63.3 117.3Q62.9 117.7 62.3 117.9Q61.7 118.2 61.0 118.2ZM58.8 113.9L58.8 113.9L62.8 113.9Q62.8 113.4 62.6 113.0L62.6 113.0Q62.4 112.4 62.0 112.1Q61.5 111.8 60.9 111.8Q60.2 111.8 59.8 112.1Q59.3 112.5 59.1 113.0L59.1 113.0Q58.9 113.4 58.8 113.9ZM65.6 108.5L66.8 108.5L66.8 118L65.6 118L65.6 108.5ZM68.8 108.5L69.9 108.5L69.9 118L68.8 118L68.8 108.5Z "/></g><mask id="satori_om-id-3-5-2"><rect x="77" y="107" width="18" height="13" fill="#fff" mask="url(#satori_om-id)"/></mask><g mask="url(#satori_om-id)" clip-path="url(#satori_cp-id)"><path fill="#6a6a8a" d="M79.1 118L78.1 118L81.6 111.0L81.6 110.9L77.5 110.9L77.5 110.0L82.7 110.0L82.7 110.9L79.1 118ZM86.0 113.5L86.0 113.5Q85.5 113.5 85.2 113.3Q84.8 113.1 84.6 112.7Q84.5 112.3 84.5 111.9L84.5 111.9L84.5 111.5Q84.5 111.0 84.6 110.7Q84.8 110.3 85.2 110.1Q85.5 109.9 86.0 109.9L86.0 109.9Q86.5 109.9 86.9 110.1Q87.2 110.3 87.4 110.7Q87.6 111.0 87.6 111.5L87.6 111.5L87.6 111.9Q87.6 112.3 87.4 112.7Q87.2 113.1 86.9 113.3Q86.5 113.5 86.0 113.5ZM86.0 112.8L86.0 112.8Q86.4 112.8 86.6 112.6Q86.8 112.3 86.8 111.9L86.8 111.9L86.8 111.5Q86.8 111.1 86.6 110.9Q86.5 110.6 86.0 110.6L86.0 110.6Q85.6 110.6 85.5 110.9Q85.3 111.1 85.3 111.5L85.3 111.5L85.3 111.9Q85.3 112.3 85.5 112.6Q85.6 112.8 86.0 112.8ZM91.2 118.2L91.2 118.2Q90.7 118.2 90.4 117.9Q90.0 117.7 89.8 117.3Q89.7 117.0 89.7 116.5L89.7 116.5L89.7 116.1Q89.7 115.7 89.8 115.3Q90.0 114.9 90.4 114.7Q90.7 114.5 91.2 114.5L91.2 114.5Q91.7 114.5 92.1 114.7Q92.4 114.9 92.6 115.3Q92.8 115.7 92.8 116.1L92.8 116.1L92.8 116.5Q92.8 117.0 92.6 117.3Q92.4 117.7 92.1 117.9Q91.7 118.2 91.2 118.2ZM91.2 117.5L91.2 117.5Q91.6 117.5 91.8 117.2Q92.0 116.9 92.0 116.5L92.0 116.5L92.0 116.1Q92.0 115.8 91.8 115.5Q91.6 115.2 91.2 115.2L91.2 115.2Q90.8 115.2 90.7 115.5Q90.5 115.8 90.5 116.1L90.5 116.1L90.5 116.5Q90.5 116.9 90.6 117.2Q90.8 117.5 91.2 117.5ZM86.3 118L85.4 118L90.9 110.0L91.8 110.0L86.3 118Z "/></g><mask id="satori_om-id-3-6"><rect x="159" y="105" width="120" height="16" fill="#fff" mask="url(#satori_om-id)"/></mask><mask id="satori_ms-id-3-6-0-0" maskUnits="userSpaceOnUse"><rect x="0" y="0" width="800" height="180" fill="#fff"/><path x="159" y="108" width="10" height="10" fill="#000"  stroke-width="0" d="M164,108 h0 a5,5 0 0 1 5,5 v0 a5,5 0 0 1 -5,5 h0 a5,5 0 0 1 -5,-5 v0 a5,5 0 0 1 5,-5" clip-path="url(#satori_cp-id)" mask="url(#satori_om-id)"/></mask><defs><filter id="satori_s-id-3-6-0-0" x="-90%" y="-90%" width="280%" height="280%"><feGaussianBlur stdDeviation="3" result="b"/><feFlood flood-color="#3D611740" in="SourceGraphic" result="f"/><feComposite in="f" in2="b" operator="in"/></filter></defs><g mask="url(#satori_ms-id-3-6-0-0)" filter="url(#satori_s-id-3-6-0-0)" opacity="1"><path x="159" y="108" width="10" height="10" fill="#fff" stroke="#fff" stroke-width="0" d="M164,108 h0 a5,5 0 0 1 5,5 v0 a5,5 0 0 1 -5,5 h0 a5,5 0 0 1 -5,-5 v0 a5,5 0 0 1 5,-5" clip-path="url(#satori_cp-id)" mask="url(#satori_om-id)"/></g><mask id="satori_om-id-3-6-0"><rect x="159" y="108" width="10" height="10" fill="#fff" mask="url(#satori_om-id)"/></mask><path x="159" y="108" width="10" height="10" fill="#3D6117" d="M164,108 h0 a5,5 0 0 1 5,5 v0 a5,5 0 0 1 -5,5 h0 a5,5 0 0 1 -5,-5 v0 a5,5 0 0 1 5,-5" clip-path="url(#satori_cp-id)" mask="url(#satori_om-id)"/><mask id="satori_om-id-3-6-1"><rect x="175" y="105" width="25" height="16" fill="#fff" mask="url(#satori_om-id)"/></mask><g mask="url(#satori_om-id)" clip-path="url(#satori_cp-id)"><path fill="#e0e0f0" d="M178.6 109.6L175.6 109.6L175.6 108.5L182.8 108.5L182.8 109.6L179.8 109.6L179.8 118L178.6 118L178.6 109.6ZM187.4 118.2L187.4 118.2Q186.3 118.2 185.6 117.7Q184.9 117.2 184.5 116.4Q184.1 115.6 184.1 114.5Q184.1 113.4 184.4 112.6Q184.8 111.8 185.6 111.3Q186.3 110.8 187.2 110.8L187.2 110.8Q187.8 110.8 188.4 111.0Q188.9 111.2 189.4 111.6Q189.8 112.0 190.1 112.7Q190.3 113.4 190.3 114.4L190.3 114.4L190.3 114.8L185.2 114.8Q185.2 115.5 185.5 116.0L185.5 116.0Q185.8 116.6 186.2 116.9Q186.7 117.1 187.4 117.1L187.4 117.1Q187.8 117.1 188.1 117.0Q188.5 116.9 188.7 116.7Q189.0 116.4 189.1 116.0L189.1 116.0L190.2 116.3Q190.1 116.9 189.7 117.3Q189.3 117.7 188.7 117.9Q188.1 118.2 187.4 118.2ZM185.2 113.9L185.2 113.9L189.2 113.9Q189.1 113.4 189.0 113.0L189.0 113.0Q188.7 112.4 188.3 112.1Q187.9 111.8 187.2 111.8Q186.6 111.8 186.1 112.1Q185.7 112.5 185.4 113.0L185.4 113.0Q185.2 113.4 185.2 113.9ZM192.7 118L191.3 118L194.7 113.2L191.5 108.5L192.9 108.5L194.3 110.5Q194.6 111.0 194.8 111.3Q195.0 111.6 195.2 111.9L195.2 111.9Q195.3 112.1 195.4 112.4L195.4 112.4Q195.6 112.1 195.7 111.9L195.7 111.9Q195.8 111.6 196.0 111.3Q196.2 111.0 196.5 110.5L196.5 110.5L197.9 108.5L199.3 108.5L196.1 113.1L199.5 118L198.1 118L196.4 115.6Q196.2 115.2 196.0 114.9Q195.8 114.6 195.6 114.4L195.6 114.4Q195.5 114.2 195.4 113.9L195.4 113.9Q195.3 114.2 195.2 114.3L195.2 114.3Q195.0 114.6 194.8 114.9Q194.7 115.2 194.4 115.6L194.4 115.6L192.7 118Z "/></g><mask id="satori_om-id-3-6-2"><rect x="206" y="107" width="18" height="13" fill="#fff" mask="url(#satori_om-id)"/></mask><g mask="url(#satori_om-id)" clip-path="url(#satori_cp-id)"><path fill="#6a6a8a" d="M210.4 116.4L206.6 116.4L206.6 115.5L210.1 110.0L211.4 110.0L211.4 115.5L212.5 115.5L212.5 116.4L211.4 116.4L211.4 118L210.4 118L210.4 116.4ZM207.7 115.5L210.4 115.5L210.4 111.3L210.4 111.3L207.7 115.4L207.7 115.5ZM215.9 113.5L215.9 113.5Q215.4 113.5 215.1 113.3Q214.7 113.1 214.5 112.7Q214.3 112.3 214.3 111.9L214.3 111.9L214.3 111.5Q214.3 111.0 214.5 110.7Q214.7 110.3 215.1 110.1Q215.4 109.9 215.9 109.9L215.9 109.9Q216.4 109.9 216.8 110.1Q217.1 110.3 217.3 110.7Q217.5 111.0 217.5 111.5L217.5 111.5L217.5 111.9Q217.5 112.3 217.3 112.7Q217.1 113.1 216.8 113.3Q216.4 113.5 215.9 113.5ZM215.9 112.8L215.9 112.8Q216.3 112.8 216.5 112.6Q216.7 112.3 216.7 111.9L216.7 111.9L216.7 111.5Q216.7 111.1 216.5 110.9Q216.3 110.6 215.9 110.6L215.9 110.6Q215.5 110.6 215.3 110.9Q215.2 111.1 215.2 111.5L215.2 111.5L215.2 111.9Q215.2 112.3 215.3 112.6Q215.5 112.8 215.9 112.8ZM221.1 118.2L221.1 118.2Q220.6 118.2 220.2 117.9Q219.9 117.7 219.7 117.3Q219.5 117.0 219.5 116.5L219.5 116.5L219.5 116.1Q219.5 115.7 219.7 115.3Q219.9 114.9 220.3 114.7Q220.6 114.5 221.1 114.5L221.1 114.5Q221.6 114.5 222.0 114.7Q222.3 114.9 222.5 115.3Q222.7 115.7 222.7 116.1L222.7 116.1L222.7 116.5Q222.7 117.0 222.5 117.3Q222.3 117.7 222.0 117.9Q221.6 118.2 221.1 118.2ZM221.1 117.5L221.1 117.5Q221.5 117.5 221.7 117.2Q221.9 116.9 221.9 116.5L221.9 116.5L221.9 116.1Q221.9 115.8 221.7 115.5Q221.5 115.2 221.1 115.2L221.1 115.2Q220.7 115.2 220.5 115.5Q220.4 115.8 220.4 116.1L220.4 116.1L220.4 116.5Q220.4 116.9 220.5 117.2Q220.7 117.5 221.1 117.5ZM216.2 118L215.3 118L220.8 110.0L221.7 110.0L216.2 118Z "/></g><mask id="satori_om-id-3-7"><rect x="293" y="105" width="120" height="16" fill="#fff" mask="url(#satori_om-id)"/></mask><mask id="satori_ms-id-3-7-0-0" maskUnits="userSpaceOnUse"><rect x="0" y="0" width="800" height="180" fill="#fff"/><path x="293" y="108" width="10" height="10" fill="#000"  stroke-width="0" d="M298,108 h0 a5,5 0 0 1 5,5 v0 a5,5 0 0 1 -5,5 h0 a5,5 0 0 1 -5,-5 v0 a5,5 0 0 1 5,-5" clip-path="url(#satori_cp-id)" mask="url(#satori_om-id)"/></mask><defs><filter id="satori_s-id-3-7-0-0" x="-90%" y="-90%" width="280%" height="280%"><feGaussianBlur stdDeviation="3" result="b"/><feFlood flood-color="#5686a540" in="SourceGraphic" result="f"/><feComposite in="f" in2="b" operator="in"/></filter></defs><g mask="url(#satori_ms-id-3-7-0-0)" filter="url(#satori_s-id-3-7-0-0)" opacity="1"><path x="293" y="108" width="10" height="10" fill="#fff" stroke="#fff" stroke-width="0" d="M298,108 h0 a5,5 0 0 1 5,5 v0 a5,5 0 0 1 -5,5 h0 a5,5 0 0 1 -5,-5 v0 a5,5 0 0 1 5,-5" clip-path="url(#satori_cp-id)" mask="url(#satori_om-id)"/></g><mask id="satori_om-id-3-7-0"><rect x="293" y="108" width="10" height="10" fill="#fff" mask="url(#satori_om-id)"/></mask><path x="293" y="108" width="10" height="10" fill="#5686a5" d="M298,108 h0 a5,5 0 0 1 5,5 v0 a5,5 0 0 1 -5,5 h0 a5,5 0 0 1 -5,-5 v0 a5,5 0 0 1 5,-5" clip-path="url(#satori_cp-id)" mask="url(#satori_om-id)"/><mask id="satori_om-id-3-7-1"><rect x="309" y="105" width="33" height="16" fill="#fff" mask="url(#satori_om-id)"/></mask><g mask="url(#satori_om-id)" clip-path="url(#satori_cp-id)"><path fill="#e0e0f0" d="M314.0 118.1L314.0 118.1Q312.7 118.1 311.8 117.5Q310.8 116.9 310.3 115.9Q309.8 114.8 309.8 113.3L309.8 113.3Q309.8 111.8 310.3 110.7Q310.8 109.6 311.8 109.0Q312.7 108.4 313.9 108.4L313.9 108.4Q314.7 108.4 315.3 108.6Q316.0 108.9 316.5 109.3Q317.0 109.7 317.4 110.3Q317.7 110.8 317.8 111.5L317.8 111.5L316.6 111.5Q316.4 111.0 316.2 110.7Q315.9 110.3 315.6 110.1Q315.3 109.8 314.9 109.7Q314.4 109.5 313.9 109.5L313.9 109.5Q313.1 109.5 312.4 110.0Q311.7 110.4 311.3 111.2Q310.9 112.1 310.9 113.3L310.9 113.3Q310.9 114.5 311.4 115.3Q311.8 116.1 312.4 116.6Q313.1 117.0 314.0 117.0L314.0 117.0Q314.8 117.0 315.4 116.7Q316.0 116.3 316.4 115.7L316.4 115.7Q316.7 115.1 316.7 114.3L316.7 114.3L314.3 114.3L314.3 113.2L317.9 113.2L317.9 114.3Q317.9 115.5 317.4 116.3Q316.9 117.2 316.0 117.7Q315.1 118.1 314.0 118.1ZM325.4 118L319.8 118L319.8 108.5L321.0 108.5L321.0 116.9L325.4 116.9L325.4 118ZM330.2 118.2L330.2 118.2Q329.2 118.2 328.4 117.8Q327.7 117.5 327.3 116.9Q326.8 116.3 326.8 115.5L326.8 115.5L328.0 115.5Q328.1 116.1 328.4 116.4Q328.7 116.7 329.2 116.9Q329.7 117.1 330.2 117.1L330.2 117.1Q330.9 117.1 331.4 116.9Q331.9 116.7 332.2 116.3Q332.5 115.9 332.5 115.4L332.5 115.4Q332.5 114.9 332.2 114.7Q332.0 114.4 331.5 114.2Q331.1 114.0 330.6 113.9L330.6 113.9L329.5 113.5Q328.3 113.2 327.7 112.6Q327.1 112.0 327.1 111.1L327.1 111.1Q327.1 110.3 327.5 109.7Q327.9 109.1 328.7 108.7Q329.4 108.4 330.3 108.4L330.3 108.4Q331.2 108.4 332.0 108.7Q332.7 109.1 333.1 109.6Q333.5 110.2 333.5 110.9L333.5 110.9L332.3 110.9Q332.3 110.2 331.7 109.9Q331.1 109.5 330.3 109.5L330.3 109.5Q329.7 109.5 329.2 109.7Q328.7 109.9 328.5 110.2Q328.2 110.6 328.2 111.0L328.2 111.0Q328.2 111.5 328.5 111.8Q328.8 112.1 329.3 112.3Q329.7 112.5 330.0 112.5L330.0 112.5L331.0 112.8Q331.4 112.9 331.8 113.1Q332.3 113.3 332.7 113.6Q333.1 113.9 333.4 114.3Q333.7 114.8 333.7 115.4L333.7 115.4Q333.7 116.2 333.3 116.8Q332.8 117.4 332.1 117.8Q331.3 118.2 330.2 118.2ZM341.1 118L335.5 118L335.5 108.5L336.7 108.5L336.7 116.9L341.1 116.9L341.1 118Z "/></g><mask id="satori_om-id-3-7-2"><rect x="348" y="107" width="18" height="13" fill="#fff" mask="url(#satori_om-id)"/></mask><g mask="url(#satori_om-id)" clip-path="url(#satori_cp-id)"><path fill="#6a6a8a" d="M352.4 116.4L348.6 116.4L348.6 115.5L352.1 110.0L353.4 110.0L353.4 115.5L354.5 115.5L354.5 116.4L353.4 116.4L353.4 118L352.4 118L352.4 116.4ZM349.7 115.5L352.4 115.5L352.4 111.3L352.4 111.3L349.7 115.4L349.7 115.5ZM357.9 113.5L357.9 113.5Q357.4 113.5 357.1 113.3Q356.7 113.1 356.5 112.7Q356.3 112.3 356.3 111.9L356.3 111.9L356.3 111.5Q356.3 111.0 356.5 110.7Q356.7 110.3 357.1 110.1Q357.4 109.9 357.9 109.9L357.9 109.9Q358.4 109.9 358.8 110.1Q359.1 110.3 359.3 110.7Q359.5 111.0 359.5 111.5L359.5 111.5L359.5 111.9Q359.5 112.3 359.3 112.7Q359.1 113.1 358.8 113.3Q358.4 113.5 357.9 113.5ZM357.9 112.8L357.9 112.8Q358.3 112.8 358.5 112.6Q358.7 112.3 358.7 111.9L358.7 111.9L358.7 111.5Q358.7 111.1 358.5 110.9Q358.3 110.6 357.9 110.6L357.9 110.6Q357.5 110.6 357.3 110.9Q357.2 111.1 357.2 111.5L357.2 111.5L357.2 111.9Q357.2 112.3 357.3 112.6Q357.5 112.8 357.9 112.8ZM363.1 118.2L363.1 118.2Q362.6 118.2 362.2 117.9Q361.9 117.7 361.7 117.3Q361.5 117.0 361.5 116.5L361.5 116.5L361.5 116.1Q361.5 115.7 361.7 115.3Q361.9 114.9 362.3 114.7Q362.6 114.5 363.1 114.5L363.1 114.5Q363.6 114.5 364.0 114.7Q364.3 114.9 364.5 115.3Q364.7 115.7 364.7 116.1L364.7 116.1L364.7 116.5Q364.7 117.0 364.5 117.3Q364.3 117.7 364.0 117.9Q363.6 118.2 363.1 118.2ZM363.1 117.5L363.1 117.5Q363.5 117.5 363.7 117.2Q363.9 116.9 363.9 116.5L363.9 116.5L363.9 116.1Q363.9 115.8 363.7 115.5Q363.5 115.2 363.1 115.2L363.1 115.2Q362.7 115.2 362.5 115.5Q362.4 115.8 362.4 116.1L362.4 116.1L362.4 116.5Q362.4 116.9 362.5 117.2Q362.7 117.5 363.1 117.5ZM358.2 118L357.3 118L362.8 110.0L363.7 110.0L358.2 118Z "/></g><mask id="satori_om-id-3-8"><rect x="427" y="105" width="120" height="16" fill="#fff" mask="url(#satori_om-id)"/></mask><mask id="satori_ms-id-3-8-0-0" maskUnits="userSpaceOnUse"><rect x="0" y="0" width="800" height="180" fill="#fff"/><path x="427" y="108" width="10" height="10" fill="#000"  stroke-width="0" d="M432,108 h0 a5,5 0 0 1 5,5 v0 a5,5 0 0 1 -5,5 h0 a5,5 0 0 1 -5,-5 v0 a5,5 0 0 1 5,-5" clip-path="url(#satori_cp-id)" mask="url(#satori_om-id)"/></mask><defs><filter id="satori_s-id-3-8-0-0" x="-90%" y="-90%" width="280%" height="280%"><feGaussianBlur stdDeviation="3" result="b"/><feFlood flood-color="#6E4C1340" in="SourceGraphic" result="f"/><feComposite in="f" in2="b" operator="in"/></filter></defs><g mask="url(#satori_ms-id-3-8-0-0)" filter="url(#satori_s-id-3-8-0-0)" opacity="1"><path x="427" y="108" width="10" height="10" fill="#fff" stroke="#fff" stroke-width="0" d="M432,108 h0 a5,5 0 0 1 5,5 v0 a5,5 0 0 1 -5,5 h0 a5,5 0 0 1 -5,-5 v0 a5,5 0 0 1 5,-5" clip-path="url(#satori_cp-id)" mask="url(#satori_om-id)"/></g><mask id="satori_om-id-3-8-0"><rect x="427" y="108" width="10" height="10" fill="#fff" mask="url(#satori_om-id)"/></mask><path x="427" y="108" width="10" height="10" fill="#6E4C13" d="M432,108 h0 a5,5 0 0 1 5,5 v0 a5,5 0 0 1 -5,5 h0 a5,5 0 0 1 -5,-5 v0 a5,5 0 0 1 5,-5" clip-path="url(#satori_cp-id)" mask="url(#satori_om-id)"/><mask id="satori_om-id-3-8-1"><rect x="443" y="105" width="61" height="16" fill="#fff" mask="url(#satori_om-id)"/></mask><g mask="url(#satori_om-id)" clip-path="url(#satori_cp-id)"><path fill="#e0e0f0" d="M444.6 118L443.3 118L446.8 108.5L448.2 108.5L451.6 118L450.4 118L449.4 115.4L445.5 115.4L444.6 118ZM445.9 114.3L449.0 114.3L448.4 112.4Q448.2 111.9 447.9 111.1L447.9 111.1Q447.7 110.4 447.5 109.5L447.5 109.5Q447.2 110.5 447.0 111.1L447.0 111.1Q446.7 111.9 446.6 112.4L446.6 112.4L445.9 114.3ZM455.4 118.2L455.4 118.2Q454.7 118.2 454.1 117.9Q453.5 117.7 453.1 117.3Q452.8 116.9 452.7 116.3L452.7 116.3L453.7 116.0Q453.9 116.6 454.3 116.9Q454.7 117.1 455.4 117.1L455.4 117.1Q456.1 117.1 456.6 116.8Q457.0 116.5 457.0 116.1L457.0 116.1Q457.0 115.7 456.7 115.5Q456.5 115.2 456.0 115.1L456.0 115.1L454.8 114.8Q453.8 114.6 453.3 114.1Q452.9 113.6 452.9 112.9L452.9 112.9Q452.9 112.3 453.2 111.8Q453.6 111.3 454.1 111.1Q454.7 110.8 455.5 110.8L455.5 110.8Q456.2 110.8 456.7 111.0Q457.3 111.3 457.6 111.6Q457.9 112.0 458.1 112.5L458.1 112.5L457.0 112.8Q456.9 112.4 456.5 112.1Q456.2 111.8 455.5 111.8L455.5 111.8Q454.9 111.8 454.4 112.1Q454.0 112.4 454.0 112.8L454.0 112.8Q454.0 113.2 454.3 113.4Q454.6 113.7 455.2 113.8L455.2 113.8L456.3 114.1Q457.3 114.3 457.7 114.8Q458.2 115.3 458.2 116.0L458.2 116.0Q458.2 116.6 457.8 117.1Q457.5 117.6 456.8 117.9Q456.2 118.2 455.4 118.2ZM462.2 118.2L462.2 118.2Q461.5 118.2 460.9 117.9Q460.4 117.7 460.0 117.3Q459.6 116.9 459.5 116.3L459.5 116.3L460.6 116.0Q460.8 116.6 461.2 116.9Q461.6 117.1 462.2 117.1L462.2 117.1Q463.0 117.1 463.4 116.8Q463.9 116.5 463.9 116.1L463.9 116.1Q463.9 115.7 463.6 115.5Q463.3 115.2 462.8 115.1L462.8 115.1L461.6 114.8Q460.7 114.6 460.2 114.1Q459.7 113.6 459.7 112.9L459.7 112.9Q459.7 112.3 460.1 111.8Q460.4 111.3 461.0 111.1Q461.6 110.8 462.4 110.8L462.4 110.8Q463.1 110.8 463.6 111.0Q464.1 111.3 464.4 111.6Q464.8 112.0 464.9 112.5L464.9 112.5L463.9 112.8Q463.7 112.4 463.4 112.1Q463.1 111.8 462.4 111.8L462.4 111.8Q461.7 111.8 461.3 112.1Q460.9 112.4 460.9 112.8L460.9 112.8Q460.9 113.2 461.2 113.4Q461.5 113.7 462.1 113.8L462.1 113.8L463.2 114.1Q464.1 114.3 464.6 114.8Q465.0 115.3 465.0 116.0L465.0 116.0Q465.0 116.6 464.7 117.1Q464.3 117.6 463.7 117.9Q463.1 118.2 462.2 118.2ZM469.7 118.2L469.7 118.2Q468.7 118.2 467.9 117.7Q467.2 117.2 466.8 116.4Q466.4 115.6 466.4 114.5Q466.4 113.4 466.7 112.6Q467.1 111.8 467.9 111.3Q468.6 110.8 469.5 110.8L469.5 110.8Q470.1 110.8 470.7 111.0Q471.2 111.2 471.7 111.6Q472.1 112.0 472.4 112.7Q472.6 113.4 472.6 114.4L472.6 114.4L472.6 114.8L467.5 114.8Q467.5 115.5 467.8 116.0L467.8 116.0Q468.1 116.6 468.5 116.9Q469.0 117.1 469.7 117.1L469.7 117.1Q470.1 117.1 470.4 117.0Q470.8 116.9 471.0 116.7Q471.3 116.4 471.4 116.0L471.4 116.0L472.5 116.3Q472.4 116.9 472.0 117.3Q471.6 117.7 471.0 117.9Q470.4 118.2 469.7 118.2ZM467.5 113.9L467.5 113.9L471.5 113.9Q471.4 113.4 471.3 113.0L471.3 113.0Q471.1 112.4 470.6 112.1Q470.2 111.8 469.5 111.8Q468.9 111.8 468.4 112.1Q468.0 112.5 467.7 113.0L467.7 113.0Q467.5 113.4 467.5 113.9ZM475.4 118L474.3 118L474.3 110.9L475.4 110.9L475.4 112.2Q475.5 111.8 475.8 111.5L475.8 111.5Q476.1 111.2 476.5 111.0Q476.9 110.8 477.4 110.8L477.4 110.8Q478.2 110.8 478.6 111.3L478.6 111.3Q479.0 111.6 479.2 112.2L479.2 112.2Q479.3 111.9 479.6 111.6L479.6 111.6Q479.9 111.2 480.4 111.0Q480.9 110.8 481.4 110.8L481.4 110.8Q482.0 110.8 482.5 111.0Q483.1 111.3 483.4 111.8Q483.7 112.4 483.7 113.2L483.7 113.2L483.7 118L482.5 118L482.5 113.2Q482.5 112.5 482.1 112.1Q481.7 111.8 481.1 111.8L481.1 111.8Q480.6 111.8 480.3 112.0Q479.9 112.2 479.7 112.6Q479.5 112.9 479.5 113.4L479.5 113.4L479.5 118L478.4 118L478.4 113.1Q478.4 112.5 478.0 112.2Q477.6 111.8 477.0 111.8L477.0 111.8Q476.6 111.8 476.2 112.0Q475.9 112.2 475.6 112.6Q475.4 113.0 475.4 113.5L475.4 113.5L475.4 118ZM489.0 118.2L489.0 118.2Q488.3 118.2 487.9 117.9Q487.5 117.7 487.2 117.4Q487.0 117.1 486.9 116.9L486.9 116.9L486.8 116.9L486.8 118L485.7 118L485.7 108.5L486.8 108.5L486.8 112.0L486.9 112.0Q487.0 111.8 487.2 111.6Q487.4 111.3 487.9 111.0Q488.3 110.8 489.0 110.8L489.0 110.8Q489.8 110.8 490.5 111.3Q491.2 111.7 491.6 112.5Q492.0 113.3 492.0 114.5L492.0 114.5Q492.0 115.6 491.6 116.4Q491.2 117.3 490.5 117.7Q489.8 118.2 489.0 118.2ZM488.8 117.1L488.8 117.1Q489.5 117.1 489.9 116.8Q490.3 116.4 490.6 115.8Q490.8 115.2 490.8 114.5L490.8 114.5Q490.8 113.7 490.6 113.1Q490.4 112.5 489.9 112.2Q489.5 111.8 488.8 111.8L488.8 111.8Q488.1 111.8 487.7 112.2Q487.2 112.5 487.0 113.1Q486.8 113.7 486.8 114.5L486.8 114.5Q486.8 115.2 487.0 115.8Q487.2 116.5 487.7 116.8Q488.1 117.1 488.8 117.1ZM493.6 108.5L494.8 108.5L494.8 118L493.6 118L493.6 108.5ZM496.7 120.6L496.7 120.6L496.9 119.6L497.1 119.6Q497.4 119.7 497.7 119.7Q498.0 119.6 498.2 119.4Q498.4 119.1 498.6 118.6L498.6 118.6L498.8 118.0L496.1 110.9L497.4 110.9L498.9 115.1Q499.1 115.8 499.3 116.4L499.3 116.4Q499.3 116.7 499.4 117.0L499.4 117.0Q499.5 116.7 499.6 116.4L499.6 116.4Q499.7 115.8 500.0 115.1L500.0 115.1L501.5 110.9L502.7 110.9L499.6 119.1Q499.4 119.6 499.1 120.0Q498.8 120.4 498.4 120.5Q498.0 120.7 497.5 120.7L497.5 120.7Q497.2 120.7 497.0 120.7Q496.7 120.6 496.7 120.6Z "/></g><mask id="satori_om-id-3-8-2"><rect x="510" y="107" width="18" height="13" fill="#fff" mask="url(#satori_om-id)"/></mask><g mask="url(#satori_om-id)" clip-path="url(#satori_cp-id)"><path fill="#6a6a8a" d="M514.4 116.4L510.6 116.4L510.6 115.5L514.1 110.0L515.4 110.0L515.4 115.5L516.5 115.5L516.5 116.4L515.4 116.4L515.4 118L514.4 118L514.4 116.4ZM511.7 115.5L514.4 115.5L514.4 111.3L514.4 111.3L511.7 115.4L511.7 115.5ZM519.9 113.5L519.9 113.5Q519.4 113.5 519.1 113.3Q518.7 113.1 518.5 112.7Q518.3 112.3 518.3 111.9L518.3 111.9L518.3 111.5Q518.3 111.0 518.5 110.7Q518.7 110.3 519.1 110.1Q519.4 109.9 519.9 109.9L519.9 109.9Q520.4 109.9 520.8 110.1Q521.1 110.3 521.3 110.7Q521.5 111.0 521.5 111.5L521.5 111.5L521.5 111.9Q521.5 112.3 521.3 112.7Q521.1 113.1 520.8 113.3Q520.4 113.5 519.9 113.5ZM519.9 112.8L519.9 112.8Q520.3 112.8 520.5 112.6Q520.7 112.3 520.7 111.9L520.7 111.9L520.7 111.5Q520.7 111.1 520.5 110.9Q520.3 110.6 519.9 110.6L519.9 110.6Q519.5 110.6 519.3 110.9Q519.2 111.1 519.2 111.5L519.2 111.5L519.2 111.9Q519.2 112.3 519.3 112.6Q519.5 112.8 519.9 112.8ZM525.1 118.2L525.1 118.2Q524.6 118.2 524.2 117.9Q523.9 117.7 523.7 117.3Q523.5 117.0 523.5 116.5L523.5 116.5L523.5 116.1Q523.5 115.7 523.7 115.3Q523.9 114.9 524.3 114.7Q524.6 114.5 525.1 114.5L525.1 114.5Q525.6 114.5 526.0 114.7Q526.3 114.9 526.5 115.3Q526.7 115.7 526.7 116.1L526.7 116.1L526.7 116.5Q526.7 117.0 526.5 117.3Q526.3 117.7 526.0 117.9Q525.6 118.2 525.1 118.2ZM525.1 117.5L525.1 117.5Q525.5 117.5 525.7 117.2Q525.9 116.9 525.9 116.5L525.9 116.5L525.9 116.1Q525.9 115.8 525.7 115.5Q525.5 115.2 525.1 115.2L525.1 115.2Q524.7 115.2 524.5 115.5Q524.4 115.8 524.4 116.1L524.4 116.1L524.4 116.5Q524.4 116.9 524.5 117.2Q524.7 117.5 525.1 117.5ZM520.2 118L519.3 118L524.8 110.0L525.7 110.0L520.2 118Z "/></g><mask id="satori_om-id-3-9"><rect x="561" y="105" width="120" height="16" fill="#fff" mask="url(#satori_om-id)"/></mask><mask id="satori_ms-id-3-9-0-0" maskUnits="userSpaceOnUse"><rect x="0" y="0" width="800" height="180" fill="#fff"/><path x="561" y="108" width="10" height="10" fill="#000"  stroke-width="0" d="M566,108 h0 a5,5 0 0 1 5,5 v0 a5,5 0 0 1 -5,5 h0 a5,5 0 0 1 -5,-5 v0 a5,5 0 0 1 5,-5" clip-path="url(#satori_cp-id)" mask="url(#satori_om-id)"/></mask><defs><filter id="satori_s-id-3-9-0-0" x="-90%" y="-90%" width="280%" height="280%"><feGaussianBlur stdDeviation="3" result="b"/><feFlood flood-color="#A97BFF40" in="SourceGraphic" result="f"/><feComposite in="f" in2="b" operator="in"/></filter></defs><g mask="url(#satori_ms-id-3-9-0-0)" filter="url(#satori_s-id-3-9-0-0)" opacity="1"><path x="561" y="108" width="10" height="10" fill="#fff" stroke="#fff" stroke-width="0" d="M566,108 h0 a5,5 0 0 1 5,5 v0 a5,5 0 0 1 -5,5 h0 a5,5 0 0 1 -5,-5 v0 a5,5 0 0 1 5,-5" clip-path="url(#satori_cp-id)" mask="url(#satori_om-id)"/></g><mask id="satori_om-id-3-9-0"><rect x="561" y="108" width="10" height="10" fill="#fff" mask="url(#satori_om-id)"/></mask><path x="561" y="108" width="10" height="10" fill="#A97BFF" d="M566,108 h0 a5,5 0 0 1 5,5 v0 a5,5 0 0 1 -5,5 h0 a5,5 0 0 1 -5,-5 v0 a5,5 0 0 1 5,-5" clip-path="url(#satori_cp-id)" mask="url(#satori_om-id)"/><mask id="satori_om-id-3-9-1"><rect x="577" y="105" width="35" height="16" fill="#fff" mask="url(#satori_om-id)"/></mask><g mask="url(#satori_om-id)" clip-path="url(#satori_cp-id)"><path fill="#e0e0f0" d="M579.3 118L578.1 118L578.1 108.5L579.3 108.5L579.3 111.8L579.3 113.5Q579.5 113.3 579.6 113.2L579.6 113.2Q579.9 112.8 580.3 112.4Q580.6 112.0 581.0 111.6L581.0 111.6L583.8 108.5L585.4 108.5L581.5 112.6L585.4 118L583.9 118L580.7 113.5L579.3 114.9L579.3 118ZM589.6 118.2L589.6 118.2Q588.7 118.2 587.9 117.7Q587.2 117.2 586.8 116.4Q586.4 115.6 586.4 114.5L586.4 114.5Q586.4 113.4 586.8 112.6Q587.2 111.7 587.9 111.3Q588.7 110.8 589.6 110.8L589.6 110.8Q590.6 110.8 591.3 111.3Q592.1 111.7 592.5 112.6Q592.9 113.4 592.9 114.5L592.9 114.5Q592.9 115.6 592.5 116.4Q592.1 117.2 591.3 117.7Q590.6 118.2 589.6 118.2ZM589.6 117.1L589.6 117.1Q590.3 117.1 590.8 116.8Q591.3 116.4 591.5 115.8Q591.7 115.2 591.7 114.5L591.7 114.5Q591.7 113.8 591.5 113.2Q591.3 112.6 590.8 112.2Q590.3 111.8 589.6 111.8L589.6 111.8Q588.9 111.8 588.5 112.2Q588.0 112.6 587.8 113.2Q587.6 113.8 587.6 114.5L587.6 114.5Q587.6 115.2 587.8 115.8Q588.0 116.4 588.5 116.8Q588.9 117.1 589.6 117.1ZM595.9 110.9L597.3 110.9L597.3 111.9L595.9 111.9L595.9 116.2Q595.9 116.6 596.1 116.9Q596.3 117.1 596.7 117.1L596.7 117.1Q596.8 117.1 597.0 117.0Q597.1 117.0 597.3 117.0L597.3 117.0L597.5 118.0Q597.3 118.0 597.1 118.1Q596.9 118.1 596.7 118.1L596.7 118.1Q595.8 118.1 595.2 117.6Q594.7 117.1 594.7 116.2L594.7 116.2L594.7 111.9L593.7 111.9L593.7 110.9L594.7 110.9L594.7 109.2L595.9 109.2L595.9 110.9ZM598.8 108.5L599.9 108.5L599.9 118L598.8 118L598.8 108.5ZM603.1 118L601.9 118L601.9 110.9L603.1 110.9L603.1 118ZM602.5 109.7L602.5 109.7Q602.2 109.7 602.0 109.5Q601.7 109.3 601.7 109.0L601.7 109.0Q601.7 108.7 602.0 108.4Q602.2 108.2 602.5 108.2L602.5 108.2Q602.8 108.2 603.1 108.4Q603.3 108.7 603.3 109.0L603.3 109.0Q603.3 109.3 603.1 109.5Q602.8 109.7 602.5 109.7ZM606.2 113.7L606.2 113.7L606.2 118L605.1 118L605.1 110.9L606.2 110.9L606.2 112.2Q606.5 111.6 607.0 111.2L607.0 111.2Q607.6 110.8 608.4 110.8L608.4 110.8Q609.1 110.8 609.6 111.1Q610.2 111.4 610.5 112.0Q610.8 112.6 610.8 113.5L610.8 113.5L610.8 118L609.6 118L609.6 113.6Q609.6 112.8 609.2 112.3Q608.8 111.8 608.0 111.8L608.0 111.8Q607.5 111.8 607.1 112.1Q606.7 112.3 606.5 112.7Q606.2 113.1 606.2 113.7Z "/></g><mask id="satori_om-id-3-9-2"><rect x="618" y="107" width="18" height="13" fill="#fff" mask="url(#satori_om-id)"/></mask><g mask="url(#satori_om-id)" clip-path="url(#satori_cp-id)"><path fill="#6a6a8a" d="M623.9 118L618.8 118L618.8 117.3L621.5 114.4Q621.9 113.9 622.2 113.5Q622.5 113.2 622.7 112.8Q622.8 112.5 622.8 112.1L622.8 112.1Q622.8 111.7 622.6 111.4Q622.4 111.1 622.1 110.9Q621.7 110.8 621.3 110.8L621.3 110.8Q620.9 110.8 620.5 111.0Q620.2 111.1 620.0 111.5Q619.8 111.8 619.8 112.3L619.8 112.3L618.8 112.3Q618.8 111.6 619.2 111.0Q619.5 110.5 620.1 110.2Q620.6 109.9 621.3 109.9L621.3 109.9Q622.1 109.9 622.6 110.2Q623.2 110.5 623.5 111.0Q623.8 111.5 623.8 112.1L623.8 112.1Q623.8 112.6 623.6 113.0Q623.5 113.4 623.1 113.9Q622.7 114.4 622.0 115.2L622.0 115.2L620.2 117.0L620.2 117.1L623.9 117.1L623.9 118ZM627.5 113.5L627.5 113.5Q627.0 113.5 626.7 113.3Q626.3 113.1 626.1 112.7Q625.9 112.3 625.9 111.9L625.9 111.9L625.9 111.5Q625.9 111.0 626.1 110.7Q626.3 110.3 626.7 110.1Q627.0 109.9 627.5 109.9L627.5 109.9Q628.0 109.9 628.4 110.1Q628.7 110.3 628.9 110.7Q629.1 111.0 629.1 111.5L629.1 111.5L629.1 111.9Q629.1 112.3 628.9 112.7Q628.7 113.1 628.4 113.3Q628.0 113.5 627.5 113.5ZM627.5 112.8L627.5 112.8Q627.9 112.8 628.1 112.6Q628.3 112.3 628.3 111.9L628.3 111.9L628.3 111.5Q628.3 111.1 628.1 110.9Q627.9 110.6 627.5 110.6L627.5 110.6Q627.1 110.6 626.9 110.9Q626.8 111.1 626.8 111.5L626.8 111.5L626.8 111.9Q626.8 112.3 626.9 112.6Q627.1 112.8 627.5 112.8ZM632.7 118.2L632.7 118.2Q632.2 118.2 631.8 117.9Q631.5 117.7 631.3 117.3Q631.1 117.0 631.1 116.5L631.1 116.5L631.1 116.1Q631.1 115.7 631.3 115.3Q631.5 114.9 631.9 114.7Q632.2 114.5 632.7 114.5L632.7 114.5Q633.2 114.5 633.6 114.7Q633.9 114.9 634.1 115.3Q634.3 115.7 634.3 116.1L634.3 116.1L634.3 116.5Q634.3 117.0 634.1 117.3Q633.9 117.7 633.6 117.9Q633.2 118.2 632.7 118.2ZM632.7 117.5L632.7 117.5Q633.1 117.5 633.3 117.2Q633.5 116.9 633.5 116.5L633.5 116.5L633.5 116.1Q633.5 115.8 633.3 115.5Q633.1 115.2 632.7 115.2L632.7 115.2Q632.3 115.2 632.1 115.5Q632.0 115.8 632.0 116.1L632.0 116.1L632.0 116.5Q632.0 116.9 632.1 117.2Q632.3 117.5 632.7 117.5ZM627.8 118L626.9 118L632.4 110.0L633.3 110.0L627.8 118Z "/></g></svg>