<!-- Generated by readme-aura https://github.com/collectioneur/readme-aura -->
<svg width="800" height="100" viewBox="0 0 800 100" xmlns="http://www.w3.org/2000/svg"><defs><clipPath id="satori_bc-id"><path x="0" y="0" width="800" height="100" d="M16,0 h768 a16,16 0 0 1 16,16 v68 a16,16 0 0 1 -16,16 h-768 a16,16 0 0 1 -16,-16 v-68 a16,16 0 0 1 16,-16"/></clipPath></defs><clipPath id="satori_cp-id"><path x="0" y="0" width="800" height="100" d="M16,0 h768 a16,16 0 0 1 16,16 v68 a16,16 0 0 1 -16,16 h-768 a16,16 0 0 1 -16,-16 v-68 a16,16 0 0 1 16,-16"/></clipPath><mask id="satori_om-id"><rect x="1" y="1" width="798" height="98" fill="#fff"/><path width="800" height="100" fill="none" stroke="#000" stroke-width="2" d="M4.686,4.686 A16,16 0 0 1 16,0 h768 a16,16 0 0 1 16,16 v68 a16,16 0 0 1 -16,16 h-768 a16,16 0 0 1 -16,-16 v-68 A16,16 0 0 1 4.686,4.686"/></mask><path x="0" y="0" width="800" height="100" fill="#06060a" d="M16,0 h768 a16,16 0 0 1 16,16 v68 a16,16 0 0 1 -16,16 h-768 a16,16 0 0 1 -16,-16 v-68 a16,16 0 0 1 16,-16"/><path width="800" height="100" clip-path="url(#satori_bc-id)" fill="none" stroke="rgba(110,80,220,0.15)" stroke-width="2" d="M4.686,4.686 A16,16 0 0 1 16,0 h768 a16,16 0 0 1 16,16 v68 a16,16 0 0 1 -16,16 h-768 a16,16 0 0 1 -16,-16 v-68 A16,16 0 0 1 4.686,4.686"/><clipPath id="satori_cp-id-0" clip-path="url(#satori_cp-id)"><rect x="1" y="1" width="800" height="100"/></clipPath><mask id="satori_om-id-0"><rect x="1" y="1" width="800" height="100" fill="#fff" mask="url(#satori_om-id)"/></mask><svg x="1" y="1" width="800" height="100" preserveAspectRatio="none" clip-path="url(#satori_cp-id-0)" mask="url(#satori_om-id-0)"><defs><radialGradient id="stg1" cx="50%" cy="50%" r="50%"><stop offset="0%" stop-color="rgba(120,40,220,0.5)"></stop><stop offset="100%" stop-color="rgba(120,40,220,0)"></stop></radialGradient><linearGradient id="st-scg" x1="0%" y1="0%" x2="100%" y2="0%"><stop offset="0%" stop-color="rgba(120,200,255,0)"></stop><stop offset="45%" stop-color="rgba(120,200,255,0.12)"></stop><stop offset="50%" stop-color="rgba(180,120,255,0.3)"></stop><stop offset="55%" stop-color="rgba(120,200,255,0.12)"></stop><stop offset="100%" stop-color="rgba(120,200,255,0)"></stop></linearGradient></defs><ellipse id="stat-g1" cx="400" cy="50" rx="250" ry="60" fill="url(#stg1)"></ellipse><rect id="stat-scan1" x="0" y="50" width="160" height="1" fill="url(#st-scg)"></rect><style>

      @keyframes stat-drift-r { 0%, 100% { transform: translate(0, 0); opacity: 0.7; } 50% { transform: translate(25px, -12px); opacity: 1; } }
      @keyframes stat-scan { 0% { transform: translate(-900px, 0); } 100% { transform: translate(900px, 0); } }
      #stat-g1 { animation: stat-drift-r 7s ease-in-out infinite; }
      #stat-scan1 { animation: stat-scan 4s linear infinite; }
    
</style>
</svg><mask id="satori_om-id-0-0"><rect x="1" y="1" width="0" height="100" fill="#fff" mask="url(#satori_om-id)"/></mask><mask id="satori_om-id-0-0-0"><rect x="1" y="1" width="0" height="100" fill="#fff" mask="url(#satori_om-id)"/></mask><mask id="satori_om-id-0-0-0-0"><rect x="1" y="1" width="0" height="100" fill="#fff" mask="url(#satori_om-id)"/></mask><mask id="satori_om-id-0-0-0-1"><rect x="1" y="1" width="0" height="100" fill="#fff" mask="url(#satori_om-id)"/></mask><mask id="satori_om-id-0-0-1"><rect x="1" y="1" width="0" height="100" fill="#fff" mask="url(#satori_om-id)"/></mask><mask id="satori_om-id-0-0-1-0"><rect x="1" y="1" width="0" height="100" fill="#fff" mask="url(#satori_om-id)"/></mask><mask id="satori_om-id-0-0-1-1"><rect x="1" y="1" width="0" height="100" fill="#fff" mask="url(#satori_om-id)"/></mask><mask id="satori_om-id-0-0-1-2"><rect x="1" y="1" width="0" height="100" fill="#fff" mask="url(#satori_om-id)"/></mask><mask id="satori_om-id-0-0-1-3"><rect x="1" y="1" width="0" height="100" fill="#fff" mask="url(#satori_om-id)"/></mask><mask id="satori_om-id-0-0-1-4"><rect x="1" y="1" width="0" height="100" fill="#fff" mask="url(#satori_om-id)"/></mask><mask id="satori_om-id-0-1"><rect x="1" y="1" width="0" height="100" fill="#fff" mask="url(#satori_om-id)"/></mask><mask id="satori_om-id-0-2"><rect x="1" y="1" width="0" height="100" fill="#fff" mask="url(#satori_om-id)"/></mask><mask id="satori_om-id-1"><rect x="204" y="28" width="393" height="45" fill="#fff" mask="url(#satori_om-id)"/></mask><mask id="satori_om-id-1-0"><rect x="204" y="28" width="44" height="45" fill="#fff" mask="url(#satori_om-id)"/></mask><mask id="satori_om-id-1-0-0"><rect x="213" y="28" width="27" height="29" fill="#fff" mask="url(#satori_om-id)"/></mask><g mask="url(#satori_om-id)" clip-path="url(#satori_cp-id)"><path fill="#ffffff" d="M222.5 47.9L214.2 47.9L214.2 45.1L221.5 33.5L226.0 33.5L226.0 45.0L228.2 45.0L228.2 47.9L226.0 47.9L226.0 51L222.5 51L222.5 47.9ZM217.8 45.0L222.6 45.0L222.6 37.5L222.5 37.5L217.8 44.9L217.8 45.0ZM233.3 33.5L237.1 33.5L237.1 51L233.5 51L233.5 36.7L233.4 36.7L229.4 39.5L229.4 36.2L233.3 33.5Z "/></g><mask id="satori_om-id-1-0-1"><rect x="204" y="61" width="44" height="12" fill="#fff" mask="url(#satori_om-id)"/></mask><g mask="url(#satori_om-id)" clip-path="url(#satori_cp-id)"><path fill="#b8860b" d="M207.3 71.1L207.3 71.1Q206.5 71.1 205.8 70.8Q205.2 70.6 204.8 70.0Q204.4 69.5 204.4 68.7L204.4 68.7L205.9 68.7Q205.9 69.1 206.1 69.4Q206.3 69.6 206.6 69.7Q206.9 69.8 207.3 69.8L207.3 69.8Q207.7 69.8 208.0 69.7Q208.3 69.6 208.5 69.4Q208.6 69.2 208.6 68.9L208.6 68.9Q208.6 68.7 208.5 68.5Q208.3 68.3 208.1 68.2Q207.8 68.1 207.4 68.0L207.4 68.0L206.6 67.8Q205.7 67.6 205.1 67.1Q204.6 66.6 204.6 65.8L204.6 65.8Q204.6 65.2 205.0 64.7Q205.3 64.2 205.9 63.9Q206.6 63.6 207.3 63.6L207.3 63.6Q208.2 63.6 208.8 63.9Q209.4 64.2 209.7 64.7Q210.0 65.2 210.0 65.8L210.0 65.8L208.6 65.8Q208.6 65.4 208.2 65.1Q207.9 64.9 207.3 64.9L207.3 64.9Q207.0 64.9 206.7 65.0Q206.4 65.1 206.3 65.3Q206.1 65.5 206.1 65.7L206.1 65.7Q206.1 66.0 206.3 66.2Q206.5 66.3 206.7 66.5Q207.0 66.6 207.3 66.6L207.3 66.6L208.0 66.8Q208.4 66.9 208.8 67.1Q209.2 67.3 209.5 67.5Q209.8 67.8 210.0 68.1Q210.1 68.5 210.1 68.9L210.1 68.9Q210.1 69.6 209.8 70.1Q209.5 70.6 208.8 70.8Q208.2 71.1 207.3 71.1ZM215.1 65.0L212.9 65.0L212.9 63.7L218.9 63.7L218.9 65.0L216.6 65.0L216.6 71L215.1 71L215.1 65.0ZM223.1 71L221.5 71L223.9 63.7L225.9 63.7L228.4 71L226.8 71L226.2 69.3L223.6 69.3L223.1 71ZM224.0 68.1L225.8 68.1L225.6 67.5Q225.4 66.8 225.2 66L225.2 66Q225.1 65.5 224.9 64.9L224.9 64.9Q224.8 65.5 224.6 66.0L224.6 66.0Q224.4 66.8 224.2 67.5L224.2 67.5L224.0 68.1ZM232.8 71L231.3 71L231.3 63.7L234.2 63.7Q235.0 63.7 235.6 64.0Q236.2 64.3 236.5 64.8Q236.8 65.4 236.8 66.1Q236.8 66.8 236.5 67.3Q236.2 67.9 235.6 68.1L235.6 68.1Q235.5 68.1 235.5 68.2L235.5 68.2L237.0 71L235.4 71L234.0 68.4L232.8 68.4L232.8 71ZM232.8 65.0L232.8 67.2L233.9 67.2Q234.4 67.2 234.7 67.1Q235.0 66.9 235.1 66.7Q235.2 66.5 235.2 66.1L235.2 66.1Q235.2 65.7 235.1 65.5Q235.0 65.2 234.7 65.1Q234.4 65.0 233.9 65.0L233.9 65.0L232.8 65.0ZM242.6 71.1L242.6 71.1Q241.7 71.1 241.1 70.8Q240.4 70.6 240.1 70.0Q239.7 69.5 239.7 68.7L239.7 68.7L241.1 68.7Q241.2 69.1 241.3 69.4Q241.5 69.6 241.8 69.7Q242.2 69.8 242.6 69.8L242.6 69.8Q243.0 69.8 243.3 69.7Q243.6 69.6 243.7 69.4Q243.9 69.2 243.9 68.9L243.9 68.9Q243.9 68.7 243.7 68.5Q243.6 68.3 243.3 68.2Q243.0 68.1 242.6 68.0L242.6 68.0L241.8 67.8Q240.9 67.6 240.4 67.1Q239.9 66.6 239.9 65.8L239.9 65.8Q239.9 65.2 240.2 64.7Q240.6 64.2 241.2 63.9Q241.8 63.6 242.6 63.6L242.6 63.6Q243.4 63.6 244.0 63.9Q244.6 64.2 244.9 64.7Q245.3 65.2 245.3 65.8L245.3 65.8L243.9 65.8Q243.8 65.4 243.5 65.1Q243.1 64.9 242.6 64.9L242.6 64.9Q242.2 64.9 241.9 65.0Q241.7 65.1 241.5 65.3Q241.4 65.5 241.4 65.7L241.4 65.7Q241.4 66.0 241.6 66.2Q241.7 66.3 242.0 66.5Q242.3 66.6 242.6 66.6L242.6 66.6L243.2 66.8Q243.7 66.9 244.1 67.1Q244.5 67.3 244.8 67.5Q245.1 67.8 245.2 68.1Q245.4 68.5 245.4 68.9L245.4 68.9Q245.4 69.6 245.1 70.1Q244.7 70.6 244.1 70.8Q243.5 71.1 242.6 71.1Z "/></g><mask id="satori_om-id-1-1"><rect x="278" y="31" width="1" height="40" fill="#fff" mask="url(#satori_om-id)"/></mask><rect x="278" y="31" width="1" height="40" fill="rgba(120,80,220,0.2)" clip-path="url(#satori_cp-id)" mask="url(#satori_om-id)"/><mask id="satori_om-id-1-2"><rect x="309" y="28" width="44" height="45" fill="#fff" mask="url(#satori_om-id)"/></mask><mask id="satori_om-id-1-2-0"><rect x="324" y="28" width="15" height="29" fill="#fff" mask="url(#satori_om-id)"/></mask><g mask="url(#satori_om-id)" clip-path="url(#satori_cp-id)"><path fill="#ffffff" d="M331.4 51.2L331.4 51.2Q329.6 51.2 328.2 50.6Q326.8 49.9 326.0 48.8Q325.1 47.6 325.1 46.1L325.1 46.1L328.6 46.1Q328.6 46.8 329.0 47.3Q329.4 47.8 330 48.1Q330.6 48.4 331.4 48.4L331.4 48.4Q332.2 48.4 332.9 48.0Q333.6 47.6 334.0 46.9Q334.4 46.2 334.4 45.3L334.4 45.3Q334.4 44.4 334.0 43.6Q333.6 42.9 332.9 42.5Q332.2 42.1 331.3 42.1L331.3 42.1Q330.5 42.1 329.8 42.4Q329.1 42.7 328.7 43.3L328.7 43.3L325.5 42.7L326.3 33.5L336.9 33.5L336.9 36.5L329.3 36.5L328.8 40.9L328.9 40.9Q329.4 40.3 330.3 39.9Q331.2 39.5 332.3 39.5L332.3 39.5Q333.5 39.5 334.5 39.9Q335.5 40.3 336.3 41.1Q337.0 41.8 337.4 42.9Q337.8 43.9 337.8 45.2L337.8 45.2Q337.8 47.0 337.0 48.3Q336.2 49.7 334.7 50.5Q333.3 51.2 331.4 51.2Z "/></g><mask id="satori_om-id-1-2-1"><rect x="309" y="61" width="44" height="12" fill="#fff" mask="url(#satori_om-id)"/></mask><g mask="url(#satori_om-id)" clip-path="url(#satori_cp-id)"><path fill="#8b7ec8" d="M311.1 71L309.7 71L309.7 63.7L314.4 63.7L314.4 65.0L311.1 65.0L311.1 67.0L314.1 67.0L314.1 68.2L311.1 68.2L311.1 71ZM320.7 71.1L320.7 71.1Q319.8 71.1 319.0 70.7Q318.2 70.2 317.8 69.4Q317.3 68.5 317.3 67.4L317.3 67.4Q317.3 66.2 317.8 65.3Q318.2 64.5 319.0 64.1Q319.8 63.6 320.7 63.6L320.7 63.6Q321.7 63.6 322.5 64.1Q323.2 64.5 323.7 65.3Q324.1 66.2 324.1 67.4L324.1 67.4Q324.1 68.5 323.7 69.4Q323.2 70.2 322.5 70.7Q321.7 71.1 320.7 71.1ZM320.7 69.8L320.7 69.8Q321.3 69.8 321.7 69.5Q322.1 69.2 322.4 68.7Q322.6 68.1 322.6 67.4L322.6 67.4Q322.6 66.6 322.4 66.0Q322.1 65.5 321.7 65.2Q321.3 65.0 320.7 65.0L320.7 65.0Q320.2 65.0 319.7 65.2Q319.3 65.5 319.1 66.0Q318.8 66.6 318.8 67.4L318.8 67.4Q318.8 68.1 319.1 68.7Q319.3 69.2 319.7 69.5Q320.2 69.8 320.7 69.8ZM328.7 71L327.2 71L327.2 63.7L330.1 63.7Q330.9 63.7 331.5 64.0Q332.1 64.3 332.4 64.8Q332.7 65.4 332.7 66.1Q332.7 66.8 332.4 67.3Q332.1 67.9 331.5 68.1L331.5 68.1Q331.4 68.1 331.4 68.2L331.4 68.2L332.9 71L331.3 71L329.9 68.4L328.7 68.4L328.7 71ZM328.7 65.0L328.7 67.2L329.8 67.2Q330.3 67.2 330.5 67.1Q330.8 66.9 331.0 66.7Q331.1 66.5 331.1 66.1L331.1 66.1Q331.1 65.7 331.0 65.5Q330.8 65.2 330.5 65.1Q330.3 65.0 329.8 65.0L329.8 65.0L328.7 65.0ZM337.3 71L335.8 71L335.8 63.7L337.3 63.7L337.3 65.7L337.3 67.4Q337.3 67.3 337.3 67.3L337.3 67.3Q337.6 66.9 337.8 66.6Q338.1 66.2 338.4 65.8L338.4 65.8L340.2 63.7L342.0 63.7L339.3 66.9L342.1 71L340.3 71L338.3 67.9L337.3 68.9L337.3 71ZM347.7 71.1L347.7 71.1Q346.8 71.1 346.1 70.8Q345.5 70.6 345.1 70.0Q344.8 69.5 344.7 68.7L344.7 68.7L346.2 68.7Q346.2 69.1 346.4 69.4Q346.6 69.6 346.9 69.7Q347.2 69.8 347.6 69.8L347.6 69.8Q348.0 69.8 348.3 69.7Q348.6 69.6 348.8 69.4Q349.0 69.2 349.0 68.9L349.0 68.9Q349.0 68.7 348.8 68.5Q348.7 68.3 348.4 68.2Q348.1 68.1 347.7 68.0L347.7 68.0L346.9 67.8Q346.0 67.6 345.5 67.1Q344.9 66.6 344.9 65.8L344.9 65.8Q344.9 65.2 345.3 64.7Q345.7 64.2 346.3 63.9Q346.9 63.6 347.7 63.6L347.7 63.6Q348.5 63.6 349.1 63.9Q349.7 64.2 350.0 64.7Q350.4 65.2 350.4 65.8L350.4 65.8L348.9 65.8Q348.9 65.4 348.6 65.1Q348.2 64.9 347.7 64.9L347.7 64.9Q347.3 64.9 347.0 65.0Q346.8 65.1 346.6 65.3Q346.5 65.5 346.5 65.7L346.5 65.7Q346.5 66.0 346.6 66.2Q346.8 66.3 347.1 66.5Q347.3 66.6 347.6 66.6L347.6 66.6L348.3 66.8Q348.8 66.9 349.1 67.1Q349.5 67.3 349.8 67.5Q350.1 67.8 350.3 68.1Q350.5 68.5 350.5 68.9L350.5 68.9Q350.5 69.6 350.1 70.1Q349.8 70.6 349.2 70.8Q348.5 71.1 347.7 71.1Z "/></g><mask id="satori_om-id-1-3"><rect x="383" y="31" width="1" height="40" fill="#fff" mask="url(#satori_om-id)"/></mask><rect x="383" y="31" width="1" height="40" fill="rgba(120,80,220,0.2)" clip-path="url(#satori_cp-id)" mask="url(#satori_om-id)"/><mask id="satori_om-id-1-4"><rect x="414" y="28" width="44" height="45" fill="#fff" mask="url(#satori_om-id)"/></mask><mask id="satori_om-id-1-4-0"><rect x="420" y="28" width="32" height="29" fill="#fff" mask="url(#satori_om-id)"/></mask><g mask="url(#satori_om-id)" clip-path="url(#satori_cp-id)"><path fill="#ffffff" d="M428.0 51.2L428.0 51.2Q426.7 51.2 425.4 50.8Q424.2 50.3 423.2 49.4Q422.3 48.4 421.7 46.7Q421.1 45.1 421.1 42.7L421.1 42.7Q421.1 40.5 421.6 38.7Q422.1 37.0 423.0 35.8Q423.9 34.6 425.2 33.9Q426.5 33.3 428.1 33.3L428.1 33.3Q429.9 33.3 431.2 34.0Q432.5 34.7 433.3 35.8Q434.1 36.9 434.3 38.4L434.3 38.4L430.8 38.4Q430.6 37.5 429.9 36.9Q429.2 36.4 428.1 36.4L428.1 36.4Q427.0 36.4 426.2 37.1Q425.4 37.7 425.0 39.0Q424.6 40.2 424.6 42.0L424.6 42.0L424.7 42.0Q425.1 41.2 425.8 40.7Q426.5 40.1 427.3 39.8Q428.2 39.5 429.1 39.5L429.1 39.5Q430.7 39.5 431.9 40.2Q433.1 41.0 433.8 42.2Q434.5 43.5 434.5 45.2L434.5 45.2Q434.5 46.9 433.7 48.3Q432.9 49.7 431.4 50.5Q429.9 51.2 428.0 51.2ZM428.0 48.4L428.0 48.4Q428.9 48.4 429.5 48.0Q430.2 47.6 430.6 46.9Q431.0 46.1 431.0 45.3L431.0 45.3Q431.0 44.4 430.6 43.7Q430.2 43.0 429.6 42.6Q428.9 42.1 428.0 42.1L428.0 42.1Q427.4 42.1 426.8 42.4Q426.3 42.6 425.9 43.1Q425.4 43.5 425.2 44.1Q425.0 44.6 425.0 45.3L425.0 45.3Q425.0 46.1 425.4 46.8Q425.8 47.5 426.4 48.0Q427.1 48.4 428.0 48.4ZM443.0 51.3L443.0 51.3Q441.3 51.3 440.0 50.6Q438.7 49.9 437.8 48.7Q437.0 47.6 436.9 46.1L436.9 46.1L440.4 46.1Q440.6 47.1 441.3 47.6Q442.0 48.2 443.0 48.2L443.0 48.2Q444.2 48.2 445.0 47.5Q445.8 46.8 446.2 45.5Q446.6 44.3 446.6 42.6L446.6 42.6L446.5 42.6Q446.1 43.3 445.4 43.9Q444.7 44.4 443.9 44.7Q443.0 45.0 442.1 45.0L442.1 45.0Q440.5 45.0 439.3 44.3Q438.1 43.6 437.4 42.3Q436.7 41.0 436.7 39.4L436.7 39.4Q436.7 37.6 437.5 36.2Q438.3 34.8 439.8 34.0Q441.3 33.3 443.2 33.3L443.2 33.3Q444.5 33.3 445.7 33.7Q447.0 34.2 448.0 35.2Q448.9 36.2 449.5 37.8Q450.1 39.4 450.1 41.8L450.1 41.8Q450.1 44.1 449.6 45.8Q449.1 47.5 448.2 48.8Q447.2 50.0 445.9 50.6Q444.6 51.3 443.0 51.3ZM443.2 42.4L443.2 42.4Q443.8 42.4 444.4 42.1Q444.9 41.9 445.3 41.5Q445.7 41.0 446.0 40.5Q446.2 39.9 446.2 39.2L446.2 39.2Q446.2 38.4 445.8 37.7Q445.4 37.0 444.8 36.6Q444.1 36.1 443.2 36.1L443.2 36.1Q442.3 36.1 441.7 36.6Q441.0 37.0 440.6 37.7Q440.2 38.4 440.2 39.3L440.2 39.3Q440.2 40.1 440.6 40.9Q441.0 41.6 441.6 42.0Q442.3 42.4 443.2 42.4Z "/></g><mask id="satori_om-id-1-4-1"><rect x="414" y="61" width="44" height="12" fill="#fff" mask="url(#satori_om-id)"/></mask><g mask="url(#satori_om-id)" clip-path="url(#satori_cp-id)"><path fill="#5a9ca8" d="M416.1 71L414.7 71L414.7 63.7L417.5 63.7Q418.3 63.7 418.9 64.0Q419.5 64.3 419.8 64.8Q420.1 65.4 420.1 66.1Q420.1 66.8 419.8 67.3Q419.5 67.9 418.9 68.1L418.9 68.1Q418.8 68.1 418.8 68.2L418.8 68.2L420.4 71L418.7 71L417.3 68.4L416.1 68.4L416.1 71ZM416.1 65.0L416.1 67.2L417.2 67.2Q417.7 67.2 418.0 67.1Q418.3 66.9 418.4 66.7Q418.6 66.5 418.6 66.1L418.6 66.1Q418.6 65.7 418.4 65.5Q418.3 65.2 418.0 65.1Q417.7 65.0 417.2 65.0L417.2 65.0L416.1 65.0ZM428.1 71L423.2 71L423.2 63.7L428.1 63.7L428.1 65.0L424.7 65.0L424.7 66.7L427.8 66.7L427.8 67.9L424.7 67.9L424.7 69.8L428.1 69.8L428.1 71ZM432.8 71L431.3 71L431.3 63.7L434.1 63.7Q435.0 63.7 435.5 64.0Q436.1 64.4 436.4 64.9Q436.7 65.5 436.7 66.2L436.7 66.2Q436.7 66.9 436.4 67.5Q436.1 68.0 435.5 68.3Q434.9 68.6 434.1 68.6L434.1 68.6L432.8 68.6L432.8 71ZM432.8 65.0L432.8 67.4L433.9 67.4Q434.3 67.4 434.6 67.3Q434.9 67.1 435.1 66.8Q435.2 66.5 435.2 66.2Q435.2 65.8 435.1 65.5Q434.9 65.3 434.6 65.1Q434.3 65.0 433.9 65.0L433.9 65.0L432.8 65.0ZM443.0 71.1L443.0 71.1Q442.0 71.1 441.2 70.7Q440.5 70.2 440.0 69.4Q439.6 68.5 439.6 67.4L439.6 67.4Q439.6 66.2 440.0 65.3Q440.5 64.5 441.2 64.1Q442.0 63.6 443.0 63.6L443.0 63.6Q443.9 63.6 444.7 64.1Q445.5 64.5 445.9 65.3Q446.4 66.2 446.4 67.4L446.4 67.4Q446.4 68.5 445.9 69.4Q445.5 70.2 444.7 70.7Q443.9 71.1 443.0 71.1ZM443.0 69.8L443.0 69.8Q443.5 69.8 444.0 69.5Q444.4 69.2 444.6 68.7Q444.9 68.1 444.9 67.4L444.9 67.4Q444.9 66.6 444.6 66.0Q444.4 65.5 444.0 65.2Q443.5 65.0 443.0 65.0L443.0 65.0Q442.4 65.0 442.0 65.2Q441.6 65.5 441.3 66.0Q441.1 66.6 441.1 67.4L441.1 67.4Q441.1 68.1 441.3 68.7Q441.6 69.2 442.0 69.5Q442.4 69.8 443.0 69.8ZM452.2 71.1L452.2 71.1Q451.3 71.1 450.6 70.8Q450.0 70.6 449.6 70.0Q449.3 69.5 449.2 68.7L449.2 68.7L450.7 68.7Q450.7 69.1 450.9 69.4Q451.1 69.6 451.4 69.7Q451.7 69.8 452.1 69.8L452.1 69.8Q452.5 69.8 452.8 69.7Q453.1 69.6 453.3 69.4Q453.5 69.2 453.5 68.9L453.5 68.9Q453.5 68.7 453.3 68.5Q453.2 68.3 452.9 68.2Q452.6 68.1 452.2 68.0L452.2 68.0L451.4 67.8Q450.5 67.6 450.0 67.1Q449.4 66.6 449.4 65.8L449.4 65.8Q449.4 65.2 449.8 64.7Q450.1 64.2 450.8 63.9Q451.4 63.6 452.2 63.6L452.2 63.6Q453.0 63.6 453.6 63.9Q454.2 64.2 454.5 64.7Q454.9 65.2 454.9 65.8L454.9 65.8L453.4 65.8Q453.4 65.4 453.0 65.1Q452.7 64.9 452.2 64.9L452.2 64.9Q451.8 64.9 451.5 65.0Q451.2 65.1 451.1 65.3Q451.0 65.5 451.0 65.7L451.0 65.7Q451.0 66.0 451.1 66.2Q451.3 66.3 451.6 66.5Q451.8 66.6 452.1 66.6L452.1 66.6L452.8 66.8Q453.2 66.9 453.6 67.1Q454.0 67.3 454.3 67.5Q454.6 67.8 454.8 68.1Q455.0 68.5 455.0 68.9L455.0 68.9Q455.0 69.6 454.6 70.1Q454.3 70.6 453.7 70.8Q453.0 71.1 452.2 71.1Z "/></g><mask id="satori_om-id-1-5"><rect x="488" y="31" width="1" height="40" fill="#fff" mask="url(#satori_om-id)"/></mask><rect x="488" y="31" width="1" height="40" fill="rgba(120,80,220,0.2)" clip-path="url(#satori_cp-id)" mask="url(#satori_om-id)"/><mask id="satori_om-id-1-6"><rect x="519" y="28" width="78" height="45" fill="#fff" mask="url(#satori_om-id)"/></mask><mask id="satori_om-id-1-6-0"><rect x="519" y="28" width="78" height="29" fill="#fff" mask="url(#satori_om-id)"/></mask><g mask="url(#satori_om-id)" clip-path="url(#satori_cp-id)"><path fill="#ffffff" d="M528.5 47.9L520.2 47.9L520.2 45.1L527.5 33.5L532.0 33.5L532.0 45.0L534.2 45.0L534.2 47.9L532.0 47.9L532.0 51L528.5 51L528.5 47.9ZM523.8 45.0L528.6 45.0L528.6 37.5L528.5 37.5L523.8 44.9L523.8 45.0ZM543.0 51.2L543.0 51.2Q541.1 51.2 539.6 50.6Q538.1 49.9 537.3 48.8Q536.4 47.6 536.4 46.1L536.4 46.1L540.0 46.1Q540.0 46.8 540.4 47.2Q540.8 47.7 541.5 48Q542.1 48.3 543.0 48.3L543.0 48.3Q543.8 48.3 544.5 48.0Q545.1 47.7 545.5 47.1Q545.9 46.6 545.9 45.9L545.9 45.9Q545.9 45.2 545.5 44.6Q545.1 44.1 544.4 43.7Q543.7 43.4 542.6 43.4L542.6 43.4L541.0 43.4L541.0 40.8L542.6 40.8Q543.5 40.8 544.1 40.5Q544.8 40.2 545.2 39.7Q545.5 39.1 545.5 38.4L545.5 38.4Q545.5 37.7 545.2 37.2Q544.9 36.7 544.3 36.5Q543.8 36.2 543.0 36.2L543.0 36.2Q542.2 36.2 541.6 36.4Q541.0 36.7 540.6 37.2Q540.2 37.7 540.2 38.4L540.2 38.4L536.7 38.4Q536.8 36.9 537.6 35.7Q538.4 34.6 539.8 33.9Q541.2 33.3 543.0 33.3L543.0 33.3Q544.8 33.3 546.2 34.0Q547.5 34.6 548.2 35.7Q549.0 36.8 549.0 38.2L549.0 38.2Q549.0 39.7 548.1 40.7Q547.2 41.6 545.7 41.9L545.7 41.9L545.7 42.0Q547.0 42.2 547.9 42.8Q548.7 43.3 549.2 44.2Q549.6 45.0 549.6 46.1L549.6 46.1Q549.6 47.6 548.8 48.8Q547.9 49.9 546.4 50.6Q544.9 51.2 543.0 51.2ZM558.4 51.2L558.4 51.2Q556.5 51.2 555.1 50.6Q553.6 49.9 552.8 48.8Q551.9 47.6 551.9 46.1L551.9 46.1L555.5 46.1Q555.5 46.8 555.9 47.2Q556.3 47.7 557.0 48Q557.6 48.3 558.5 48.3L558.5 48.3Q559.3 48.3 560.0 48.0Q560.6 47.7 561.0 47.1Q561.4 46.6 561.4 45.9L561.4 45.9Q561.4 45.2 561.0 44.6Q560.6 44.1 559.9 43.7Q559.1 43.4 558.1 43.4L558.1 43.4L556.5 43.4L556.5 40.8L558.1 40.8Q559.0 40.8 559.6 40.5Q560.3 40.2 560.6 39.7Q561.0 39.1 561.0 38.4L561.0 38.4Q561.0 37.7 560.7 37.2Q560.4 36.7 559.8 36.5Q559.2 36.2 558.5 36.2L558.5 36.2Q557.7 36.2 557.1 36.4Q556.5 36.7 556.1 37.2Q555.7 37.7 555.7 38.4L555.7 38.4L552.2 38.4Q552.2 36.9 553.1 35.7Q553.9 34.6 555.3 33.9Q556.7 33.3 558.5 33.3L558.5 33.3Q560.3 33.3 561.6 34.0Q563.0 34.6 563.7 35.7Q564.5 36.8 564.5 38.2L564.5 38.2Q564.5 39.7 563.6 40.7Q562.7 41.6 561.2 41.9L561.2 41.9L561.2 42.0Q562.5 42.2 563.3 42.8Q564.2 43.3 564.7 44.2Q565.1 45.0 565.1 46.1L565.1 46.1Q565.1 47.6 564.3 48.8Q563.4 49.9 561.9 50.6Q560.4 51.2 558.4 51.2ZM573.6 51.2L573.6 51.2Q571.8 51.2 570.4 50.6Q569.0 49.9 568.2 48.8Q567.4 47.6 567.3 46.1L567.3 46.1L570.8 46.1Q570.8 46.8 571.2 47.3Q571.6 47.8 572.2 48.1Q572.8 48.4 573.6 48.4L573.6 48.4Q574.5 48.4 575.1 48.0Q575.8 47.6 576.2 46.9Q576.6 46.2 576.6 45.3L576.6 45.3Q576.6 44.4 576.2 43.6Q575.8 42.9 575.1 42.5Q574.4 42.1 573.5 42.1L573.5 42.1Q572.7 42.1 572.0 42.4Q571.3 42.7 570.9 43.3L570.9 43.3L567.7 42.7L568.5 33.5L579.1 33.5L579.1 36.5L571.5 36.5L571.0 40.9L571.1 40.9Q571.6 40.3 572.5 39.9Q573.4 39.5 574.6 39.5L574.6 39.5Q575.7 39.5 576.7 39.9Q577.7 40.3 578.5 41.1Q579.2 41.8 579.6 42.9Q580.0 43.9 580.0 45.2L580.0 45.2Q580.0 47.0 579.2 48.3Q578.4 49.7 577.0 50.5Q575.5 51.2 573.6 51.2ZM588.5 51.2L588.5 51.2Q586.7 51.2 585.3 50.6Q583.9 49.9 583.1 48.8Q582.3 47.6 582.2 46.1L582.2 46.1L585.7 46.1Q585.8 46.8 586.1 47.3Q586.5 47.8 587.1 48.1Q587.8 48.4 588.5 48.4L588.5 48.4Q589.4 48.4 590.1 48.0Q590.7 47.6 591.1 46.9Q591.5 46.2 591.5 45.3L591.5 45.3Q591.5 44.4 591.1 43.6Q590.7 42.9 590.0 42.5Q589.3 42.1 588.4 42.1L588.4 42.1Q587.7 42.1 586.9 42.4Q586.2 42.7 585.8 43.3L585.8 43.3L582.6 42.7L583.4 33.5L594.0 33.5L594.0 36.5L586.4 36.5L586.0 40.9L586.1 40.9Q586.5 40.3 587.4 39.9Q588.4 39.5 589.5 39.5L589.5 39.5Q590.7 39.5 591.7 39.9Q592.7 40.3 593.4 41.1Q594.2 41.8 594.6 42.9Q595.0 43.9 595.0 45.2L595.0 45.2Q595.0 47.0 594.2 48.3Q593.3 49.7 591.9 50.5Q590.4 51.2 588.5 51.2Z "/></g><mask id="satori_om-id-1-6-1"><rect x="526" y="61" width="64" height="12" fill="#fff" mask="url(#satori_om-id)"/></mask><g mask="url(#satori_om-id)" clip-path="url(#satori_cp-id)"><path fill="#7ee7ff" d="M529.8 71.1L529.8 71.1Q528.9 71.1 528.1 70.7Q527.3 70.2 526.9 69.4Q526.5 68.5 526.5 67.4L526.5 67.4Q526.5 66.2 526.9 65.3Q527.3 64.5 528.1 64.1Q528.9 63.6 529.8 63.6L529.8 63.6Q530.5 63.6 531.0 63.8Q531.5 64.0 531.9 64.3Q532.4 64.6 532.6 65.1Q532.9 65.6 533.0 66.2L533.0 66.2L531.5 66.2Q531.4 65.9 531.3 65.7Q531.1 65.4 530.9 65.3Q530.7 65.1 530.4 65.0Q530.2 65.0 529.9 65.0L529.9 65.0Q529.3 65.0 528.9 65.2Q528.4 65.5 528.2 66.1Q528.0 66.6 528.0 67.4L528.0 67.4Q528.0 68.2 528.2 68.7Q528.5 69.2 528.9 69.5Q529.3 69.8 529.9 69.8L529.9 69.8Q530.2 69.8 530.4 69.7Q530.7 69.6 530.9 69.4Q531.1 69.3 531.3 69.0Q531.4 68.8 531.5 68.5L531.5 68.5L533.0 68.5Q532.9 69.0 532.7 69.5Q532.4 69.9 532.0 70.3Q531.6 70.7 531.1 70.9Q530.5 71.1 529.8 71.1ZM539.3 71.1L539.3 71.1Q538.3 71.1 537.5 70.7Q536.8 70.2 536.3 69.4Q535.9 68.5 535.9 67.4L535.9 67.4Q535.9 66.2 536.3 65.3Q536.8 64.5 537.5 64.1Q538.3 63.6 539.3 63.6L539.3 63.6Q540.2 63.6 541.0 64.1Q541.8 64.5 542.2 65.3Q542.6 66.2 542.6 67.4L542.6 67.4Q542.6 68.5 542.2 69.4Q541.8 70.2 541.0 70.7Q540.2 71.1 539.3 71.1ZM539.3 69.8L539.3 69.8Q539.8 69.8 540.2 69.5Q540.7 69.2 540.9 68.7Q541.1 68.1 541.1 67.4L541.1 67.4Q541.1 66.6 540.9 66.0Q540.7 65.5 540.2 65.2Q539.8 65.0 539.3 65.0L539.3 65.0Q538.7 65.0 538.3 65.2Q537.8 65.5 537.6 66.0Q537.4 66.6 537.4 67.4L537.4 67.4Q537.4 68.1 537.6 68.7Q537.8 69.2 538.3 69.5Q538.7 69.8 539.3 69.8ZM547.2 71L545.8 71L545.8 63.7L548.0 63.7L549.2 67.1Q549.3 67.3 549.4 67.7Q549.5 68.0 549.6 68.5L549.6 68.5Q549.7 68.9 549.8 69.3L549.8 69.3Q549.9 68.9 549.9 68.5L549.9 68.5Q550.0 68.1 550.1 67.7Q550.2 67.3 550.3 67.1L550.3 67.1L551.5 63.7L553.8 63.7L553.8 71L552.3 71L552.3 67.6Q552.3 67.3 552.3 67.0Q552.3 66.6 552.3 66.2Q552.3 65.8 552.3 65.4L552.3 65.4Q552.3 65.2 552.3 65.0L552.3 65.0Q552.3 65.2 552.2 65.4L552.2 65.4Q552.1 65.9 552.0 66.3Q551.9 66.7 551.8 67.0Q551.7 67.3 551.6 67.6L551.6 67.6L550.4 71L549.1 71L547.9 67.6Q547.8 67.3 547.7 67.0Q547.6 66.7 547.5 66.3Q547.4 65.9 547.3 65.4L547.3 65.4Q547.2 65.2 547.2 65.1L547.2 65.1Q547.2 65.2 547.2 65.4L547.2 65.4Q547.2 65.8 547.2 66.2Q547.2 66.6 547.2 67.0Q547.2 67.3 547.2 67.6L547.2 67.6L547.2 71ZM558.6 71L557.1 71L557.1 63.7L559.4 63.7L560.5 67.1Q560.6 67.3 560.7 67.7Q560.8 68.0 560.9 68.5L560.9 68.5Q561.0 68.9 561.1 69.3L561.1 69.3Q561.2 68.9 561.3 68.5L561.3 68.5Q561.4 68.1 561.5 67.7Q561.6 67.3 561.6 67.1L561.6 67.1L562.8 63.7L565.1 63.7L565.1 71L563.6 71L563.6 67.6Q563.6 67.3 563.6 67.0Q563.6 66.6 563.6 66.2Q563.6 65.8 563.6 65.4L563.6 65.4Q563.6 65.2 563.6 65.0L563.6 65.0Q563.6 65.2 563.5 65.4L563.5 65.4Q563.4 65.9 563.3 66.3Q563.2 66.7 563.1 67.0Q563.0 67.3 562.9 67.6L562.9 67.6L561.7 71L560.5 71L559.2 67.6Q559.2 67.3 559.1 67.0Q558.9 66.7 558.8 66.3Q558.7 65.9 558.6 65.4L558.6 65.4Q558.6 65.2 558.5 65.1L558.5 65.1Q558.5 65.2 558.5 65.4L558.5 65.4Q558.5 65.8 558.5 66.2Q558.5 66.6 558.6 67.0Q558.6 67.3 558.6 67.6L558.6 67.6L558.6 71ZM568.4 63.7L569.9 63.7L569.9 71L568.4 71L568.4 63.7ZM575.1 65.0L572.9 65.0L572.9 63.7L578.9 63.7L578.9 65.0L576.6 65.0L576.6 71L575.1 71L575.1 65.0ZM584.5 71.1L584.5 71.1Q583.7 71.1 583.0 70.8Q582.4 70.6 582.0 70.0Q581.7 69.5 581.6 68.7L581.6 68.7L583.1 68.7Q583.1 69.1 583.3 69.4Q583.5 69.6 583.8 69.7Q584.1 69.8 584.5 69.8L584.5 69.8Q584.9 69.8 585.2 69.7Q585.5 69.6 585.7 69.4Q585.9 69.2 585.9 68.9L585.9 68.9Q585.9 68.7 585.7 68.5Q585.6 68.3 585.3 68.2Q585.0 68.1 584.6 68.0L584.6 68.0L583.8 67.8Q582.9 67.6 582.4 67.1Q581.8 66.6 581.8 65.8L581.8 65.8Q581.8 65.2 582.2 64.7Q582.5 64.2 583.2 63.9Q583.8 63.6 584.6 63.6L584.6 63.6Q585.4 63.6 586.0 63.9Q586.6 64.2 586.9 64.7Q587.2 65.2 587.3 65.8L587.3 65.8L585.8 65.8Q585.8 65.4 585.4 65.1Q585.1 64.9 584.5 64.9L584.5 64.9Q584.2 64.9 583.9 65.0Q583.6 65.1 583.5 65.3Q583.4 65.5 583.4 65.7L583.4 65.7Q583.4 66.0 583.5 66.2Q583.7 66.3 583.9 66.5Q584.2 66.6 584.5 66.6L584.5 66.6L585.2 66.8Q585.6 66.9 586.0 67.1Q586.4 67.3 586.7 67.5Q587.0 67.8 587.2 68.1Q587.4 68.5 587.4 68.9L587.4 68.9Q587.4 69.6 587.0 70.1Q586.7 70.6 586.1 70.8Q585.4 71.1 584.5 71.1Z "/></g></svg>