<!-- Generated by readme-aura https://github.com/collectioneur/readme-aura -->
<svg width="800" height="100" viewBox="0 0 800 100" xmlns="http://www.w3.org/2000/svg"><defs><clipPath id="satori_bc-id"><path x="0" y="0" width="800" height="100" d="M16,0 h768 a16,16 0 0 1 16,16 v68 a16,16 0 0 1 -16,16 h-768 a16,16 0 0 1 -16,-16 v-68 a16,16 0 0 1 16,-16"/></clipPath></defs><clipPath id="satori_cp-id"><path x="0" y="0" width="800" height="100" d="M16,0 h768 a16,16 0 0 1 16,16 v68 a16,16 0 0 1 -16,16 h-768 a16,16 0 0 1 -16,-16 v-68 a16,16 0 0 1 16,-16"/></clipPath><mask id="satori_om-id"><rect x="1" y="1" width="798" height="98" fill="#fff"/><path width="800" height="100" fill="none" stroke="#000" stroke-width="2" d="M4.686,4.686 A16,16 0 0 1 16,0 h768 a16,16 0 0 1 16,16 v68 a16,16 0 0 1 -16,16 h-768 a16,16 0 0 1 -16,-16 v-68 A16,16 0 0 1 4.686,4.686"/></mask><path x="0" y="0" width="800" height="100" fill="#06060a" d="M16,0 h768 a16,16 0 0 1 16,16 v68 a16,16 0 0 1 -16,16 h-768 a16,16 0 0 1 -16,-16 v-68 a16,16 0 0 1 16,-16"/><path width="800" height="100" clip-path="url(#satori_bc-id)" fill="none" stroke="rgba(110,80,220,0.15)" stroke-width="2" d="M4.686,4.686 A16,16 0 0 1 16,0 h768 a16,16 0 0 1 16,16 v68 a16,16 0 0 1 -16,16 h-768 a16,16 0 0 1 -16,-16 v-68 A16,16 0 0 1 4.686,4.686"/><clipPath id="satori_cp-id-0" clip-path="url(#satori_cp-id)"><rect x="1" y="1" width="800" height="100"/></clipPath><mask id="satori_om-id-0"><rect x="1" y="1" width="800" height="100" fill="#fff" mask="url(#satori_om-id)"/></mask><svg x="1" y="1" width="800" height="100" preserveAspectRatio="none" clip-path="url(#satori_cp-id-0)" mask="url(#satori_om-id-0)"><defs><radialGradient id="stg1" cx="50%" cy="50%" r="50%"><stop offset="0%" stop-color="rgba(120,40,220,0.5)"></stop><stop offset="100%" stop-color="rgba(120,40,220,0)"></stop></radialGradient><linearGradient id="st-scg" x1="0%" y1="0%" x2="100%" y2="0%"><stop offset="0%" stop-color="rgba(120,200,255,0)"></stop><stop offset="45%" stop-color="rgba(120,200,255,0.12)"></stop><stop offset="50%" stop-color="rgba(180,120,255,0.3)"></stop><stop offset="55%" stop-color="rgba(120,200,255,0.12)"></stop><stop offset="100%" stop-color="rgba(120,200,255,0)"></stop></linearGradient></defs><ellipse id="stat-g1" cx="400" cy="50" rx="250" ry="60" fill="url(#stg1)"></ellipse><rect id="stat-scan1" x="0" y="50" width="160" height="1" fill="url(#st-scg)"></rect><style>

      @keyframes stat-drift-r { 0%, 100% { transform: translate(0, 0); opacity: 0.7; } 50% { transform: translate(25px, -12px); opacity: 1; } }
      @keyframes stat-scan { 0% { transform: translate(-900px, 0); } 100% { transform: translate(900px, 0); } }
      #stat-g1 { animation: stat-drift-r 7s ease-in-out infinite; }
      #stat-scan1 { animation: stat-scan 4s linear infinite; }
    
</style>
</svg><mask id="satori_om-id-0-0"><rect x="1" y="1" width="0" height="100" fill="#fff" mask="url(#satori_om-id)"/></mask><mask id="satori_om-id-0-0-0"><rect x="1" y="1" width="0" height="100" fill="#fff" mask="url(#satori_om-id)"/></mask><mask id="satori_om-id-0-0-0-0"><rect x="1" y="1" width="0" height="100" fill="#fff" mask="url(#satori_om-id)"/></mask><mask id="satori_om-id-0-0-0-1"><rect x="1" y="1" width="0" height="100" fill="#fff" mask="url(#satori_om-id)"/></mask><mask id="satori_om-id-0-0-1"><rect x="1" y="1" width="0" height="100" fill="#fff" mask="url(#satori_om-id)"/></mask><mask id="satori_om-id-0-0-1-0"><rect x="1" y="1" width="0" height="100" fill="#fff" mask="url(#satori_om-id)"/></mask><mask id="satori_om-id-0-0-1-1"><rect x="1" y="1" width="0" height="100" fill="#fff" mask="url(#satori_om-id)"/></mask><mask id="satori_om-id-0-0-1-2"><rect x="1" y="1" width="0" height="100" fill="#fff" mask="url(#satori_om-id)"/></mask><mask id="satori_om-id-0-0-1-3"><rect x="1" y="1" width="0" height="100" fill="#fff" mask="url(#satori_om-id)"/></mask><mask id="satori_om-id-0-0-1-4"><rect x="1" y="1" width="0" height="100" fill="#fff" mask="url(#satori_om-id)"/></mask><mask id="satori_om-id-0-1"><rect x="1" y="1" width="0" height="100" fill="#fff" mask="url(#satori_om-id)"/></mask><mask id="satori_om-id-0-2"><rect x="1" y="1" width="0" height="100" fill="#fff" mask="url(#satori_om-id)"/></mask><mask id="satori_om-id-1"><rect x="202" y="28" width="396" height="45" fill="#fff" mask="url(#satori_om-id)"/></mask><mask id="satori_om-id-1-0"><rect x="202" y="28" width="44" height="45" fill="#fff" mask="url(#satori_om-id)"/></mask><mask id="satori_om-id-1-0-0"><rect x="208" y="28" width="33" height="29" fill="#fff" mask="url(#satori_om-id)"/></mask><g mask="url(#satori_om-id)" clip-path="url(#satori_cp-id)"><path fill="#ffffff" d="M217.5 47.9L209.2 47.9L209.2 45.1L216.5 33.5L221.0 33.5L221.0 45.0L223.2 45.0L223.2 47.9L221.0 47.9L221.0 51L217.5 51L217.5 47.9ZM212.8 45.0L217.6 45.0L217.6 37.5L217.5 37.5L212.8 44.9L212.8 45.0ZM232.3 51.2L232.3 51.2Q230.1 51.2 228.6 50.2Q227.0 49.1 226.2 47.1Q225.3 45.1 225.3 42.3L225.3 42.3Q225.3 39.5 226.2 37.4Q227.0 35.4 228.6 34.4Q230.1 33.3 232.3 33.3L232.3 33.3Q234.5 33.3 236.1 34.4Q237.6 35.4 238.5 37.5Q239.3 39.5 239.3 42.3L239.3 42.3Q239.3 45.1 238.5 47.1Q237.7 49.1 236.1 50.2Q234.5 51.2 232.3 51.2ZM232.3 48.3L232.3 48.3Q233.4 48.3 234.1 47.6Q234.9 46.9 235.3 45.5Q235.7 44.2 235.7 42.3L235.7 42.3Q235.7 40.4 235.3 39.0Q234.9 37.7 234.1 37.0Q233.4 36.3 232.3 36.3L232.3 36.3Q231.3 36.3 230.5 37.0Q229.8 37.7 229.4 39.0Q229.0 40.4 229.0 42.3L229.0 42.3Q229.0 44.2 229.4 45.5Q229.8 46.9 230.5 47.6Q231.3 48.3 232.3 48.3Z "/></g><mask id="satori_om-id-1-0-1"><rect x="202" y="61" width="44" height="12" fill="#fff" mask="url(#satori_om-id)"/></mask><g mask="url(#satori_om-id)" clip-path="url(#satori_cp-id)"><path fill="#b8860b" d="M205.3 71.1L205.3 71.1Q204.5 71.1 203.8 70.8Q203.2 70.6 202.8 70.0Q202.4 69.5 202.4 68.7L202.4 68.7L203.9 68.7Q203.9 69.1 204.1 69.4Q204.3 69.6 204.6 69.7Q204.9 69.8 205.3 69.8L205.3 69.8Q205.7 69.8 206.0 69.7Q206.3 69.6 206.5 69.4Q206.6 69.2 206.6 68.9L206.6 68.9Q206.6 68.7 206.5 68.5Q206.3 68.3 206.1 68.2Q205.8 68.1 205.4 68.0L205.4 68.0L204.6 67.8Q203.7 67.6 203.1 67.1Q202.6 66.6 202.6 65.8L202.6 65.8Q202.6 65.2 203.0 64.7Q203.3 64.2 203.9 63.9Q204.6 63.6 205.3 63.6L205.3 63.6Q206.2 63.6 206.8 63.9Q207.4 64.2 207.7 64.7Q208.0 65.2 208.0 65.8L208.0 65.8L206.6 65.8Q206.6 65.4 206.2 65.1Q205.9 64.9 205.3 64.9L205.3 64.9Q205.0 64.9 204.7 65.0Q204.4 65.1 204.3 65.3Q204.1 65.5 204.1 65.7L204.1 65.7Q204.1 66.0 204.3 66.2Q204.5 66.3 204.7 66.5Q205.0 66.6 205.3 66.6L205.3 66.6L206.0 66.8Q206.4 66.9 206.8 67.1Q207.2 67.3 207.5 67.5Q207.8 67.8 208.0 68.1Q208.1 68.5 208.1 68.9L208.1 68.9Q208.1 69.6 207.8 70.1Q207.5 70.6 206.8 70.8Q206.2 71.1 205.3 71.1ZM213.1 65.0L210.9 65.0L210.9 63.7L216.9 63.7L216.9 65.0L214.6 65.0L214.6 71L213.1 71L213.1 65.0ZM221.1 71L219.5 71L221.9 63.7L223.9 63.7L226.4 71L224.8 71L224.2 69.3L221.6 69.3L221.1 71ZM222.0 68.1L223.8 68.1L223.6 67.5Q223.4 66.8 223.2 66L223.2 66Q223.1 65.5 222.9 64.9L222.9 64.9Q222.8 65.5 222.6 66.0L222.6 66.0Q222.4 66.8 222.2 67.5L222.2 67.5L222.0 68.1ZM230.8 71L229.3 71L229.3 63.7L232.2 63.7Q233.0 63.7 233.6 64.0Q234.2 64.3 234.5 64.8Q234.8 65.4 234.8 66.1Q234.8 66.8 234.5 67.3Q234.2 67.9 233.6 68.1L233.6 68.1Q233.5 68.1 233.5 68.2L233.5 68.2L235.0 71L233.4 71L232.0 68.4L230.8 68.4L230.8 71ZM230.8 65.0L230.8 67.2L231.9 67.2Q232.4 67.2 232.7 67.1Q233.0 66.9 233.1 66.7Q233.2 66.5 233.2 66.1L233.2 66.1Q233.2 65.7 233.1 65.5Q233.0 65.2 232.7 65.1Q232.4 65.0 231.9 65.0L231.9 65.0L230.8 65.0ZM240.6 71.1L240.6 71.1Q239.7 71.1 239.1 70.8Q238.4 70.6 238.1 70.0Q237.7 69.5 237.7 68.7L237.7 68.7L239.1 68.7Q239.2 69.1 239.3 69.4Q239.5 69.6 239.8 69.7Q240.2 69.8 240.6 69.8L240.6 69.8Q241.0 69.8 241.3 69.7Q241.6 69.6 241.7 69.4Q241.9 69.2 241.9 68.9L241.9 68.9Q241.9 68.7 241.7 68.5Q241.6 68.3 241.3 68.2Q241.0 68.1 240.6 68.0L240.6 68.0L239.8 67.8Q238.9 67.6 238.4 67.1Q237.9 66.6 237.9 65.8L237.9 65.8Q237.9 65.2 238.2 64.7Q238.6 64.2 239.2 63.9Q239.8 63.6 240.6 63.6L240.6 63.6Q241.4 63.6 242.0 63.9Q242.6 64.2 242.9 64.7Q243.3 65.2 243.3 65.8L243.3 65.8L241.9 65.8Q241.8 65.4 241.5 65.1Q241.1 64.9 240.6 64.9L240.6 64.9Q240.2 64.9 239.9 65.0Q239.7 65.1 239.5 65.3Q239.4 65.5 239.4 65.7L239.4 65.7Q239.4 66.0 239.6 66.2Q239.7 66.3 240.0 66.5Q240.3 66.6 240.6 66.6L240.6 66.6L241.2 66.8Q241.7 66.9 242.1 67.1Q242.5 67.3 242.8 67.5Q243.1 67.8 243.2 68.1Q243.4 68.5 243.4 68.9L243.4 68.9Q243.4 69.6 243.1 70.1Q242.7 70.6 242.1 70.8Q241.5 71.1 240.6 71.1Z "/></g><mask id="satori_om-id-1-1"><rect x="276" y="31" width="1" height="40" fill="#fff" mask="url(#satori_om-id)"/></mask><rect x="276" y="31" width="1" height="40" fill="rgba(120,80,220,0.2)" clip-path="url(#satori_cp-id)" mask="url(#satori_om-id)"/><mask id="satori_om-id-1-2"><rect x="307" y="28" width="44" height="45" fill="#fff" mask="url(#satori_om-id)"/></mask><mask id="satori_om-id-1-2-0"><rect x="321" y="28" width="17" height="29" fill="#fff" mask="url(#satori_om-id)"/></mask><g mask="url(#satori_om-id)" clip-path="url(#satori_cp-id)"><path fill="#ffffff" d="M330.5 47.9L322.2 47.9L322.2 45.1L329.5 33.5L334.0 33.5L334.0 45.0L336.2 45.0L336.2 47.9L334.0 47.9L334.0 51L330.5 51L330.5 47.9ZM325.8 45.0L330.6 45.0L330.6 37.5L330.5 37.5L325.8 44.9L325.8 45.0Z "/></g><mask id="satori_om-id-1-2-1"><rect x="307" y="61" width="44" height="12" fill="#fff" mask="url(#satori_om-id)"/></mask><g mask="url(#satori_om-id)" clip-path="url(#satori_cp-id)"><path fill="#8b7ec8" d="M309.1 71L307.7 71L307.7 63.7L312.4 63.7L312.4 65.0L309.1 65.0L309.1 67.0L312.1 67.0L312.1 68.2L309.1 68.2L309.1 71ZM318.7 71.1L318.7 71.1Q317.8 71.1 317.0 70.7Q316.2 70.2 315.8 69.4Q315.3 68.5 315.3 67.4L315.3 67.4Q315.3 66.2 315.8 65.3Q316.2 64.5 317.0 64.1Q317.8 63.6 318.7 63.6L318.7 63.6Q319.7 63.6 320.5 64.1Q321.2 64.5 321.7 65.3Q322.1 66.2 322.1 67.4L322.1 67.4Q322.1 68.5 321.7 69.4Q321.2 70.2 320.5 70.7Q319.7 71.1 318.7 71.1ZM318.7 69.8L318.7 69.8Q319.3 69.8 319.7 69.5Q320.1 69.2 320.4 68.7Q320.6 68.1 320.6 67.4L320.6 67.4Q320.6 66.6 320.4 66.0Q320.1 65.5 319.7 65.2Q319.3 65.0 318.7 65.0L318.7 65.0Q318.2 65.0 317.7 65.2Q317.3 65.5 317.1 66.0Q316.8 66.6 316.8 67.4L316.8 67.4Q316.8 68.1 317.1 68.7Q317.3 69.2 317.7 69.5Q318.2 69.8 318.7 69.8ZM326.7 71L325.2 71L325.2 63.7L328.1 63.7Q328.9 63.7 329.5 64.0Q330.1 64.3 330.4 64.8Q330.7 65.4 330.7 66.1Q330.7 66.8 330.4 67.3Q330.1 67.9 329.5 68.1L329.5 68.1Q329.4 68.1 329.4 68.2L329.4 68.2L330.9 71L329.3 71L327.9 68.4L326.7 68.4L326.7 71ZM326.7 65.0L326.7 67.2L327.8 67.2Q328.3 67.2 328.5 67.1Q328.8 66.9 329.0 66.7Q329.1 66.5 329.1 66.1L329.1 66.1Q329.1 65.7 329.0 65.5Q328.8 65.2 328.5 65.1Q328.3 65.0 327.8 65.0L327.8 65.0L326.7 65.0ZM335.3 71L333.8 71L333.8 63.7L335.3 63.7L335.3 65.7L335.3 67.4Q335.3 67.3 335.3 67.3L335.3 67.3Q335.6 66.9 335.8 66.6Q336.1 66.2 336.4 65.8L336.4 65.8L338.2 63.7L340.0 63.7L337.3 66.9L340.1 71L338.3 71L336.3 67.9L335.3 68.9L335.3 71ZM345.7 71.1L345.7 71.1Q344.8 71.1 344.1 70.8Q343.5 70.6 343.1 70.0Q342.8 69.5 342.7 68.7L342.7 68.7L344.2 68.7Q344.2 69.1 344.4 69.4Q344.6 69.6 344.9 69.7Q345.2 69.8 345.6 69.8L345.6 69.8Q346.0 69.8 346.3 69.7Q346.6 69.6 346.8 69.4Q347.0 69.2 347.0 68.9L347.0 68.9Q347.0 68.7 346.8 68.5Q346.7 68.3 346.4 68.2Q346.1 68.1 345.7 68.0L345.7 68.0L344.9 67.8Q344.0 67.6 343.5 67.1Q342.9 66.6 342.9 65.8L342.9 65.8Q342.9 65.2 343.3 64.7Q343.7 64.2 344.3 63.9Q344.9 63.6 345.7 63.6L345.7 63.6Q346.5 63.6 347.1 63.9Q347.7 64.2 348.0 64.7Q348.4 65.2 348.4 65.8L348.4 65.8L346.9 65.8Q346.9 65.4 346.6 65.1Q346.2 64.9 345.7 64.9L345.7 64.9Q345.3 64.9 345.0 65.0Q344.8 65.1 344.6 65.3Q344.5 65.5 344.5 65.7L344.5 65.7Q344.5 66.0 344.6 66.2Q344.8 66.3 345.1 66.5Q345.3 66.6 345.6 66.6L345.6 66.6L346.3 66.8Q346.8 66.9 347.1 67.1Q347.5 67.3 347.8 67.5Q348.1 67.8 348.3 68.1Q348.5 68.5 348.5 68.9L348.5 68.9Q348.5 69.6 348.1 70.1Q347.8 70.6 347.2 70.8Q346.5 71.1 345.7 71.1Z "/></g><mask id="satori_om-id-1-3"><rect x="381" y="31" width="1" height="40" fill="#fff" mask="url(#satori_om-id)"/></mask><rect x="381" y="31" width="1" height="40" fill="rgba(120,80,220,0.2)" clip-path="url(#satori_cp-id)" mask="url(#satori_om-id)"/><mask id="satori_om-id-1-4"><rect x="412" y="28" width="44" height="45" fill="#fff" mask="url(#satori_om-id)"/></mask><mask id="satori_om-id-1-4-0"><rect x="419" y="28" width="30" height="29" fill="#fff" mask="url(#satori_om-id)"/></mask><g mask="url(#satori_om-id)" clip-path="url(#satori_cp-id)"><path fill="#ffffff" d="M427.0 51.2L427.0 51.2Q425.7 51.2 424.4 50.8Q423.2 50.3 422.2 49.4Q421.3 48.4 420.7 46.7Q420.1 45.1 420.1 42.7L420.1 42.7Q420.1 40.5 420.6 38.7Q421.1 37.0 422.0 35.8Q422.9 34.6 424.2 33.9Q425.5 33.3 427.1 33.3L427.1 33.3Q428.9 33.3 430.2 34.0Q431.5 34.7 432.3 35.8Q433.1 36.9 433.3 38.4L433.3 38.4L429.8 38.4Q429.6 37.5 428.9 36.9Q428.2 36.4 427.1 36.4L427.1 36.4Q426.0 36.4 425.2 37.1Q424.4 37.7 424.0 39.0Q423.6 40.2 423.6 42.0L423.6 42.0L423.7 42.0Q424.1 41.2 424.8 40.7Q425.5 40.1 426.3 39.8Q427.2 39.5 428.1 39.5L428.1 39.5Q429.7 39.5 430.9 40.2Q432.1 41.0 432.8 42.2Q433.5 43.5 433.5 45.2L433.5 45.2Q433.5 46.9 432.7 48.3Q431.9 49.7 430.4 50.5Q428.9 51.2 427.0 51.2ZM427.0 48.4L427.0 48.4Q427.9 48.4 428.5 48.0Q429.2 47.6 429.6 46.9Q430.0 46.1 430.0 45.3L430.0 45.3Q430.0 44.4 429.6 43.7Q429.2 43.0 428.6 42.6Q427.9 42.1 427.0 42.1L427.0 42.1Q426.4 42.1 425.8 42.4Q425.3 42.6 424.9 43.1Q424.4 43.5 424.2 44.1Q424.0 44.6 424.0 45.3L424.0 45.3Q424.0 46.1 424.4 46.8Q424.8 47.5 425.4 48.0Q426.1 48.4 427.0 48.4ZM440.4 51L436.7 51L443.9 36.6L443.9 36.5L435.5 36.5L435.5 33.5L447.7 33.5L447.7 36.5L440.4 51Z "/></g><mask id="satori_om-id-1-4-1"><rect x="412" y="61" width="44" height="12" fill="#fff" mask="url(#satori_om-id)"/></mask><g mask="url(#satori_om-id)" clip-path="url(#satori_cp-id)"><path fill="#5a9ca8" d="M414.1 71L412.7 71L412.7 63.7L415.5 63.7Q416.3 63.7 416.9 64.0Q417.5 64.3 417.8 64.8Q418.1 65.4 418.1 66.1Q418.1 66.8 417.8 67.3Q417.5 67.9 416.9 68.1L416.9 68.1Q416.8 68.1 416.8 68.2L416.8 68.2L418.4 71L416.7 71L415.3 68.4L414.1 68.4L414.1 71ZM414.1 65.0L414.1 67.2L415.2 67.2Q415.7 67.2 416.0 67.1Q416.3 66.9 416.4 66.7Q416.6 66.5 416.6 66.1L416.6 66.1Q416.6 65.7 416.4 65.5Q416.3 65.2 416.0 65.1Q415.7 65.0 415.2 65.0L415.2 65.0L414.1 65.0ZM426.1 71L421.2 71L421.2 63.7L426.1 63.7L426.1 65.0L422.7 65.0L422.7 66.7L425.8 66.7L425.8 67.9L422.7 67.9L422.7 69.8L426.1 69.8L426.1 71ZM430.8 71L429.3 71L429.3 63.7L432.1 63.7Q433.0 63.7 433.5 64.0Q434.1 64.4 434.4 64.9Q434.7 65.5 434.7 66.2L434.7 66.2Q434.7 66.9 434.4 67.5Q434.1 68.0 433.5 68.3Q432.9 68.6 432.1 68.6L432.1 68.6L430.8 68.6L430.8 71ZM430.8 65.0L430.8 67.4L431.9 67.4Q432.3 67.4 432.6 67.3Q432.9 67.1 433.1 66.8Q433.2 66.5 433.2 66.2Q433.2 65.8 433.1 65.5Q432.9 65.3 432.6 65.1Q432.3 65.0 431.9 65.0L431.9 65.0L430.8 65.0ZM441.0 71.1L441.0 71.1Q440.0 71.1 439.2 70.7Q438.5 70.2 438.0 69.4Q437.6 68.5 437.6 67.4L437.6 67.4Q437.6 66.2 438.0 65.3Q438.5 64.5 439.2 64.1Q440.0 63.6 441.0 63.6L441.0 63.6Q441.9 63.6 442.7 64.1Q443.5 64.5 443.9 65.3Q444.4 66.2 444.4 67.4L444.4 67.4Q444.4 68.5 443.9 69.4Q443.5 70.2 442.7 70.7Q441.9 71.1 441.0 71.1ZM441.0 69.8L441.0 69.8Q441.5 69.8 442.0 69.5Q442.4 69.2 442.6 68.7Q442.9 68.1 442.9 67.4L442.9 67.4Q442.9 66.6 442.6 66.0Q442.4 65.5 442.0 65.2Q441.5 65.0 441.0 65.0L441.0 65.0Q440.4 65.0 440.0 65.2Q439.6 65.5 439.3 66.0Q439.1 66.6 439.1 67.4L439.1 67.4Q439.1 68.1 439.3 68.7Q439.6 69.2 440.0 69.5Q440.4 69.8 441.0 69.8ZM450.2 71.1L450.2 71.1Q449.3 71.1 448.6 70.8Q448.0 70.6 447.6 70.0Q447.3 69.5 447.2 68.7L447.2 68.7L448.7 68.7Q448.7 69.1 448.9 69.4Q449.1 69.6 449.4 69.7Q449.7 69.8 450.1 69.8L450.1 69.8Q450.5 69.8 450.8 69.7Q451.1 69.6 451.3 69.4Q451.5 69.2 451.5 68.9L451.5 68.9Q451.5 68.7 451.3 68.5Q451.2 68.3 450.9 68.2Q450.6 68.1 450.2 68.0L450.2 68.0L449.4 67.8Q448.5 67.6 448.0 67.1Q447.4 66.6 447.4 65.8L447.4 65.8Q447.4 65.2 447.8 64.7Q448.1 64.2 448.8 63.9Q449.4 63.6 450.2 63.6L450.2 63.6Q451.0 63.6 451.6 63.9Q452.2 64.2 452.5 64.7Q452.9 65.2 452.9 65.8L452.9 65.8L451.4 65.8Q451.4 65.4 451.0 65.1Q450.7 64.9 450.2 64.9L450.2 64.9Q449.8 64.9 449.5 65.0Q449.2 65.1 449.1 65.3Q449.0 65.5 449.0 65.7L449.0 65.7Q449.0 66.0 449.1 66.2Q449.3 66.3 449.6 66.5Q449.8 66.6 450.1 66.6L450.1 66.6L450.8 66.8Q451.2 66.9 451.6 67.1Q452.0 67.3 452.3 67.5Q452.6 67.8 452.8 68.1Q453.0 68.5 453.0 68.9L453.0 68.9Q453.0 69.6 452.6 70.1Q452.3 70.6 451.7 70.8Q451.0 71.1 450.2 71.1Z "/></g><mask id="satori_om-id-1-5"><rect x="486" y="31" width="1" height="40" fill="#fff" mask="url(#satori_om-id)"/></mask><rect x="486" y="31" width="1" height="40" fill="rgba(120,80,220,0.2)" clip-path="url(#satori_cp-id)" mask="url(#satori_om-id)"/><mask id="satori_om-id-1-6"><rect x="517" y="28" width="81" height="45" fill="#fff" mask="url(#satori_om-id)"/></mask><mask id="satori_om-id-1-6-0"><rect x="517" y="28" width="81" height="29" fill="#fff" mask="url(#satori_om-id)"/></mask><g mask="url(#satori_om-id)" clip-path="url(#satori_cp-id)"><path fill="#ffffff" d="M526.5 47.9L518.2 47.9L518.2 45.1L525.5 33.5L530.0 33.5L530.0 45.0L532.2 45.0L532.2 47.9L530.0 47.9L530.0 51L526.5 51L526.5 47.9ZM521.8 45.0L526.6 45.0L526.6 37.5L526.5 37.5L521.8 44.9L521.8 45.0ZM541.0 51.2L541.0 51.2Q539.1 51.2 537.6 50.6Q536.1 49.9 535.3 48.8Q534.4 47.6 534.4 46.1L534.4 46.1L538.0 46.1Q538.0 46.8 538.4 47.2Q538.8 47.7 539.5 48Q540.1 48.3 541.0 48.3L541.0 48.3Q541.8 48.3 542.5 48.0Q543.1 47.7 543.5 47.1Q543.9 46.6 543.9 45.9L543.9 45.9Q543.9 45.2 543.5 44.6Q543.1 44.1 542.4 43.7Q541.7 43.4 540.6 43.4L540.6 43.4L539.0 43.4L539.0 40.8L540.6 40.8Q541.5 40.8 542.1 40.5Q542.8 40.2 543.2 39.7Q543.5 39.1 543.5 38.4L543.5 38.4Q543.5 37.7 543.2 37.2Q542.9 36.7 542.3 36.5Q541.8 36.2 541.0 36.2L541.0 36.2Q540.2 36.2 539.6 36.4Q539.0 36.7 538.6 37.2Q538.2 37.7 538.2 38.4L538.2 38.4L534.7 38.4Q534.8 36.9 535.6 35.7Q536.4 34.6 537.8 33.9Q539.2 33.3 541.0 33.3L541.0 33.3Q542.8 33.3 544.2 34.0Q545.5 34.6 546.2 35.7Q547.0 36.8 547.0 38.2L547.0 38.2Q547.0 39.7 546.1 40.7Q545.2 41.6 543.7 41.9L543.7 41.9L543.7 42.0Q545.0 42.2 545.9 42.8Q546.7 43.3 547.2 44.2Q547.6 45.0 547.6 46.1L547.6 46.1Q547.6 47.6 546.8 48.8Q545.9 49.9 544.4 50.6Q542.9 51.2 541.0 51.2ZM556.8 51.2L556.8 51.2Q554.6 51.2 553.0 50.2Q551.5 49.1 550.7 47.1Q549.8 45.1 549.8 42.3L549.8 42.3Q549.8 39.5 550.7 37.4Q551.5 35.4 553.0 34.4Q554.6 33.3 556.8 33.3L556.8 33.3Q559.0 33.3 560.6 34.4Q562.1 35.4 563.0 37.5Q563.8 39.5 563.8 42.3L563.8 42.3Q563.8 45.1 563.0 47.1Q562.2 49.1 560.6 50.2Q559.0 51.2 556.8 51.2ZM556.8 48.3L556.8 48.3Q557.9 48.3 558.6 47.6Q559.4 46.9 559.8 45.5Q560.2 44.2 560.2 42.3L560.2 42.3Q560.2 40.4 559.8 39.0Q559.4 37.7 558.6 37.0Q557.9 36.3 556.8 36.3L556.8 36.3Q555.7 36.3 555.0 37.0Q554.2 37.7 553.9 39.0Q553.5 40.4 553.5 42.3L553.5 42.3Q553.5 44.2 553.9 45.5Q554.2 46.9 555.0 47.6Q555.7 48.3 556.8 48.3ZM573.0 51.2L573.0 51.2Q570.8 51.2 569.2 50.2Q567.7 49.1 566.8 47.1Q566.0 45.1 566.0 42.3L566.0 42.3Q566.0 39.5 566.8 37.4Q567.7 35.4 569.2 34.4Q570.8 33.3 573.0 33.3L573.0 33.3Q575.2 33.3 576.8 34.4Q578.3 35.4 579.2 37.5Q580.0 39.5 580.0 42.3L580.0 42.3Q580.0 45.1 579.2 47.1Q578.3 49.1 576.8 50.2Q575.2 51.2 573.0 51.2ZM573.0 48.3L573.0 48.3Q574.1 48.3 574.8 47.6Q575.6 46.9 576.0 45.5Q576.3 44.2 576.3 42.3L576.3 42.3Q576.3 40.4 576.0 39.0Q575.6 37.7 574.8 37.0Q574.1 36.3 573.0 36.3L573.0 36.3Q571.9 36.3 571.2 37.0Q570.4 37.7 570.0 39.0Q569.7 40.4 569.7 42.3L569.7 42.3Q569.7 44.2 570.0 45.5Q570.4 46.9 571.2 47.6Q571.9 48.3 573.0 48.3ZM590.6 47.9L582.3 47.9L582.3 45.1L589.6 33.5L594.1 33.5L594.1 45.0L596.2 45.0L596.2 47.9L594.1 47.9L594.1 51L590.6 51L590.6 47.9ZM585.9 45.0L590.7 45.0L590.7 37.5L590.6 37.5L585.9 44.9L585.9 45.0Z "/></g><mask id="satori_om-id-1-6-1"><rect x="526" y="61" width="64" height="12" fill="#fff" mask="url(#satori_om-id)"/></mask><g mask="url(#satori_om-id)" clip-path="url(#satori_cp-id)"><path fill="#7ee7ff" d="M529.8 71.1L529.8 71.1Q528.9 71.1 528.1 70.7Q527.3 70.2 526.9 69.4Q526.5 68.5 526.5 67.4L526.5 67.4Q526.5 66.2 526.9 65.3Q527.3 64.5 528.1 64.1Q528.9 63.6 529.8 63.6L529.8 63.6Q530.5 63.6 531.0 63.8Q531.5 64.0 531.9 64.3Q532.4 64.6 532.6 65.1Q532.9 65.6 533.0 66.2L533.0 66.2L531.5 66.2Q531.4 65.9 531.3 65.7Q531.1 65.4 530.9 65.3Q530.7 65.1 530.4 65.0Q530.2 65.0 529.9 65.0L529.9 65.0Q529.3 65.0 528.9 65.2Q528.4 65.5 528.2 66.1Q528.0 66.6 528.0 67.4L528.0 67.4Q528.0 68.2 528.2 68.7Q528.5 69.2 528.9 69.5Q529.3 69.8 529.9 69.8L529.9 69.8Q530.2 69.8 530.4 69.7Q530.7 69.6 530.9 69.4Q531.1 69.3 531.3 69.0Q531.4 68.8 531.5 68.5L531.5 68.5L533.0 68.5Q532.9 69.0 532.7 69.5Q532.4 69.9 532.0 70.3Q531.6 70.7 531.1 70.9Q530.5 71.1 529.8 71.1ZM539.3 71.1L539.3 71.1Q538.3 71.1 537.5 70.7Q536.8 70.2 536.3 69.4Q535.9 68.5 535.9 67.4L535.9 67.4Q535.9 66.2 536.3 65.3Q536.8 64.5 537.5 64.1Q538.3 63.6 539.3 63.6L539.3 63.6Q540.2 63.6 541.0 64.1Q541.8 64.5 542.2 65.3Q542.6 66.2 542.6 67.4L542.6 67.4Q542.6 68.5 542.2 69.4Q541.8 70.2 541.0 70.7Q540.2 71.1 539.3 71.1ZM539.3 69.8L539.3 69.8Q539.8 69.8 540.2 69.5Q540.7 69.2 540.9 68.7Q541.1 68.1 541.1 67.4L541.1 67.4Q541.1 66.6 540.9 66.0Q540.7 65.5 540.2 65.2Q539.8 65.0 539.3 65.0L539.3 65.0Q538.7 65.0 538.3 65.2Q537.8 65.5 537.6 66.0Q537.4 66.6 537.4 67.4L537.4 67.4Q537.4 68.1 537.6 68.7Q537.8 69.2 538.3 69.5Q538.7 69.8 539.3 69.8ZM547.2 71L545.8 71L545.8 63.7L548.0 63.7L549.2 67.1Q549.3 67.3 549.4 67.7Q549.5 68.0 549.6 68.5L549.6 68.5Q549.7 68.9 549.8 69.3L549.8 69.3Q549.9 68.9 549.9 68.5L549.9 68.5Q550.0 68.1 550.1 67.7Q550.2 67.3 550.3 67.1L550.3 67.1L551.5 63.7L553.8 63.7L553.8 71L552.3 71L552.3 67.6Q552.3 67.3 552.3 67.0Q552.3 66.6 552.3 66.2Q552.3 65.8 552.3 65.4L552.3 65.4Q552.3 65.2 552.3 65.0L552.3 65.0Q552.3 65.2 552.2 65.4L552.2 65.4Q552.1 65.9 552.0 66.3Q551.9 66.7 551.8 67.0Q551.7 67.3 551.6 67.6L551.6 67.6L550.4 71L549.1 71L547.9 67.6Q547.8 67.3 547.7 67.0Q547.6 66.7 547.5 66.3Q547.4 65.9 547.3 65.4L547.3 65.4Q547.2 65.2 547.2 65.1L547.2 65.1Q547.2 65.2 547.2 65.4L547.2 65.4Q547.2 65.8 547.2 66.2Q547.2 66.6 547.2 67.0Q547.2 67.3 547.2 67.6L547.2 67.6L547.2 71ZM558.6 71L557.1 71L557.1 63.7L559.4 63.7L560.5 67.1Q560.6 67.3 560.7 67.7Q560.8 68.0 560.9 68.5L560.9 68.5Q561.0 68.9 561.1 69.3L561.1 69.3Q561.2 68.9 561.3 68.5L561.3 68.5Q561.4 68.1 561.5 67.7Q561.6 67.3 561.6 67.1L561.6 67.1L562.8 63.7L565.1 63.7L565.1 71L563.6 71L563.6 67.6Q563.6 67.3 563.6 67.0Q563.6 66.6 563.6 66.2Q563.6 65.8 563.6 65.4L563.6 65.4Q563.6 65.2 563.6 65.0L563.6 65.0Q563.6 65.2 563.5 65.4L563.5 65.4Q563.4 65.9 563.3 66.3Q563.2 66.7 563.1 67.0Q563.0 67.3 562.9 67.6L562.9 67.6L561.7 71L560.5 71L559.2 67.6Q559.2 67.3 559.1 67.0Q558.9 66.7 558.8 66.3Q558.7 65.9 558.6 65.4L558.6 65.4Q558.6 65.2 558.5 65.1L558.5 65.1Q558.5 65.2 558.5 65.4L558.5 65.4Q558.5 65.8 558.5 66.2Q558.5 66.6 558.6 67.0Q558.6 67.3 558.6 67.6L558.6 67.6L558.6 71ZM568.4 63.7L569.9 63.7L569.9 71L568.4 71L568.4 63.7ZM575.1 65.0L572.9 65.0L572.9 63.7L578.9 63.7L578.9 65.0L576.6 65.0L576.6 71L575.1 71L575.1 65.0ZM584.5 71.1L584.5 71.1Q583.7 71.1 583.0 70.8Q582.4 70.6 582.0 70.0Q581.7 69.5 581.6 68.7L581.6 68.7L583.1 68.7Q583.1 69.1 583.3 69.4Q583.5 69.6 583.8 69.7Q584.1 69.8 584.5 69.8L584.5 69.8Q584.9 69.8 585.2 69.7Q585.5 69.6 585.7 69.4Q585.9 69.2 585.9 68.9L585.9 68.9Q585.9 68.7 585.7 68.5Q585.6 68.3 585.3 68.2Q585.0 68.1 584.6 68.0L584.6 68.0L583.8 67.8Q582.9 67.6 582.4 67.1Q581.8 66.6 581.8 65.8L581.8 65.8Q581.8 65.2 582.2 64.7Q582.5 64.2 583.2 63.9Q583.8 63.6 584.6 63.6L584.6 63.6Q585.4 63.6 586.0 63.9Q586.6 64.2 586.9 64.7Q587.2 65.2 587.3 65.8L587.3 65.8L585.8 65.8Q585.8 65.4 585.4 65.1Q585.1 64.9 584.5 64.9L584.5 64.9Q584.2 64.9 583.9 65.0Q583.6 65.1 583.5 65.3Q583.4 65.5 583.4 65.7L583.4 65.7Q583.4 66.0 583.5 66.2Q583.7 66.3 583.9 66.5Q584.2 66.6 584.5 66.6L584.5 66.6L585.2 66.8Q585.6 66.9 586.0 67.1Q586.4 67.3 586.7 67.5Q587.0 67.8 587.2 68.1Q587.4 68.5 587.4 68.9L587.4 68.9Q587.4 69.6 587.0 70.1Q586.7 70.6 586.1 70.8Q585.4 71.1 584.5 71.1Z "/></g></svg>