<!-- Generated by readme-aura https://github.com/collectioneur/readme-aura -->
<svg width="800" height="180" viewBox="0 0 800 180" xmlns="http://www.w3.org/2000/svg"><defs><clipPath id="satori_bc-id"><path x="0" y="0" width="800" height="180" d="M16,0 h768 a16,16 0 0 1 16,16 v148 a16,16 0 0 1 -16,16 h-768 a16,16 0 0 1 -16,-16 v-148 a16,16 0 0 1 16,-16"/></clipPath></defs><clipPath id="satori_cp-id"><path x="0" y="0" width="800" height="180" d="M16,0 h768 a16,16 0 0 1 16,16 v148 a16,16 0 0 1 -16,16 h-768 a16,16 0 0 1 -16,-16 v-148 a16,16 0 0 1 16,-16"/></clipPath><mask id="satori_om-id"><rect x="1" y="1" width="798" height="178" fill="#fff"/><path width="800" height="180" fill="none" stroke="#000" stroke-width="2" d="M4.686,4.686 A16,16 0 0 1 16,0 h768 a16,16 0 0 1 16,16 v148 a16,16 0 0 1 -16,16 h-768 a16,16 0 0 1 -16,-16 v-148 A16,16 0 0 1 4.686,4.686"/></mask><path x="0" y="0" width="800" height="180" fill="#06060a" d="M16,0 h768 a16,16 0 0 1 16,16 v148 a16,16 0 0 1 -16,16 h-768 a16,16 0 0 1 -16,-16 v-148 a16,16 0 0 1 16,-16"/><path width="800" height="180" clip-path="url(#satori_bc-id)" fill="none" stroke="rgba(110,80,220,0.15)" stroke-width="2" d="M4.686,4.686 A16,16 0 0 1 16,0 h768 a16,16 0 0 1 16,16 v148 a16,16 0 0 1 -16,16 h-768 a16,16 0 0 1 -16,-16 v-148 A16,16 0 0 1 4.686,4.686"/><clipPath id="satori_cp-id-0" clip-path="url(#satori_cp-id)"><rect x="1" y="1" width="800" height="180"/></clipPath><mask id="satori_om-id-0"><rect x="1" y="1" width="800" height="180" fill="#fff" mask="url(#satori_om-id)"/></mask><svg x="1" y="1" width="800" height="180" preserveAspectRatio="none" clip-path="url(#satori_cp-id-0)" mask="url(#satori_om-id-0)"><defs><radialGradient id="lng1" cx="50%" cy="50%" r="50%"><stop offset="0%" stop-color="rgba(80,40,200,0.4)"></stop><stop offset="100%" stop-color="rgba(80,40,200,0)"></stop></radialGradient><radialGradient id="lng2" cx="50%" cy="50%" r="50%"><stop offset="0%" stop-color="rgba(0,160,220,0.35)"></stop><stop offset="100%" stop-color="rgba(0,160,220,0)"></stop></radialGradient></defs><ellipse id="lang-g1" cx="650" cy="90" rx="180" ry="100" fill="url(#lng1)"></ellipse><ellipse id="lang-g2" cx="150" cy="100" rx="160" ry="90" fill="url(#lng2)"></ellipse><style>

      @keyframes lang-drift-r { 0%, 100% { transform: translate(0, 0); opacity: 0.6; } 50% { transform: translate(30px, -15px); opacity: 1; } }
      @keyframes lang-drift-l { 0%, 100% { transform: translate(0, 0); opacity: 0.55; } 50% { transform: translate(-25px, 12px); opacity: 0.9; } }
      #lang-g1 { animation: lang-drift-r 8s ease-in-out infinite; }
      #lang-g2 { animation: lang-drift-l 7s ease-in-out infinite 0.3s; }
    
</style>
</svg><mask id="satori_om-id-0-0"><rect x="1" y="1" width="0" height="180" fill="#fff" mask="url(#satori_om-id)"/></mask><mask id="satori_om-id-0-0-0"><rect x="1" y="1" width="0" height="180" fill="#fff" mask="url(#satori_om-id)"/></mask><mask id="satori_om-id-0-0-0-0"><rect x="1" y="1" width="0" height="180" fill="#fff" mask="url(#satori_om-id)"/></mask><mask id="satori_om-id-0-0-0-1"><rect x="1" y="1" width="0" height="180" fill="#fff" mask="url(#satori_om-id)"/></mask><mask id="satori_om-id-0-0-1"><rect x="1" y="1" width="0" height="180" fill="#fff" mask="url(#satori_om-id)"/></mask><mask id="satori_om-id-0-0-1-0"><rect x="1" y="1" width="0" height="180" fill="#fff" mask="url(#satori_om-id)"/></mask><mask id="satori_om-id-0-0-1-1"><rect x="1" y="1" width="0" height="180" fill="#fff" mask="url(#satori_om-id)"/></mask><mask id="satori_om-id-0-1"><rect x="1" y="1" width="0" height="180" fill="#fff" mask="url(#satori_om-id)"/></mask><mask id="satori_om-id-0-2"><rect x="1" y="1" width="0" height="180" fill="#fff" mask="url(#satori_om-id)"/></mask><mask id="satori_om-id-1"><rect x="25" y="25" width="750" height="12" fill="#fff" mask="url(#satori_om-id)"/></mask><g mask="url(#satori_om-id)" clip-path="url(#satori_cp-id)"><path fill="rgba(120,200,255,0.7)" d="M27.1 35L25.7 35L25.7 27.7L27.9 27.7L29.1 31.1Q29.2 31.3 29.3 31.7Q29.4 32.0 29.5 32.5L29.5 32.5Q29.6 32.9 29.7 33.3L29.7 33.3Q29.8 32.9 29.8 32.5L29.8 32.5Q29.9 32.1 30.0 31.7Q30.1 31.3 30.2 31.1L30.2 31.1L31.4 27.7L33.7 27.7L33.7 35L32.2 35L32.2 31.6Q32.2 31.3 32.2 31.0Q32.2 30.6 32.2 30.2Q32.2 29.8 32.2 29.4L32.2 29.4Q32.2 29.2 32.2 29.0L32.2 29.0Q32.2 29.2 32.1 29.4L32.1 29.4Q32.0 29.9 31.9 30.3Q31.8 30.7 31.7 31.0Q31.6 31.3 31.5 31.6L31.5 31.6L30.3 35L29.0 35L27.8 31.6Q27.7 31.3 27.6 31.0Q27.5 30.7 27.4 30.3Q27.3 29.9 27.2 29.4L27.2 29.4Q27.1 29.2 27.1 29.1L27.1 29.1Q27.1 29.2 27.1 29.4L27.1 29.4Q27.1 29.8 27.1 30.2Q27.1 30.6 27.1 31.0Q27.1 31.3 27.1 31.6L27.1 31.6L27.1 35ZM41.2 35.1L41.2 35.1Q40.2 35.1 39.4 34.7Q38.7 34.2 38.2 33.4Q37.8 32.5 37.8 31.4L37.8 31.4Q37.8 30.2 38.2 29.3Q38.7 28.5 39.4 28.1Q40.2 27.6 41.2 27.6L41.2 27.6Q42.1 27.6 42.9 28.1Q43.7 28.5 44.1 29.3Q44.6 30.2 44.6 31.4L44.6 31.4Q44.6 32.5 44.1 33.4Q43.7 34.2 42.9 34.7Q42.1 35.1 41.2 35.1ZM41.2 33.8L41.2 33.8Q41.7 33.8 42.2 33.5Q42.6 33.2 42.8 32.7Q43.0 32.1 43.0 31.4L43.0 31.4Q43.0 30.6 42.8 30.0Q42.6 29.5 42.2 29.2Q41.7 29.0 41.2 29.0L41.2 29.0Q40.6 29.0 40.2 29.2Q39.8 29.5 39.5 30.0Q39.3 30.6 39.3 31.4L39.3 31.4Q39.3 32.1 39.5 32.7Q39.8 33.2 40.2 33.5Q40.6 33.8 41.2 33.8ZM51.3 35.1L51.3 35.1Q50.5 35.1 49.8 34.8Q49.2 34.6 48.8 34.0Q48.5 33.5 48.4 32.7L48.4 32.7L49.9 32.7Q49.9 33.1 50.1 33.4Q50.3 33.6 50.6 33.7Q50.9 33.8 51.3 33.8L51.3 33.8Q51.7 33.8 52.0 33.7Q52.3 33.6 52.5 33.4Q52.7 33.2 52.7 32.9L52.7 32.9Q52.7 32.7 52.5 32.5Q52.4 32.3 52.1 32.2Q51.8 32.1 51.4 32.0L51.4 32.0L50.6 31.8Q49.7 31.6 49.2 31.1Q48.6 30.6 48.6 29.8L48.6 29.8Q48.6 29.2 49.0 28.7Q49.3 28.2 50.0 27.9Q50.6 27.6 51.4 27.6L51.4 27.6Q52.2 27.6 52.8 27.9Q53.4 28.2 53.7 28.7Q54.0 29.2 54.1 29.8L54.1 29.8L52.6 29.8Q52.6 29.4 52.2 29.1Q51.9 28.9 51.4 28.9L51.4 28.9Q51.0 28.9 50.7 29.0Q50.4 29.1 50.3 29.3Q50.2 29.5 50.2 29.7L50.2 29.7Q50.2 30.0 50.3 30.2Q50.5 30.3 50.8 30.5Q51.0 30.6 51.3 30.6L51.3 30.6L52.0 30.8Q52.4 30.9 52.8 31.1Q53.2 31.3 53.5 31.5Q53.8 31.8 54.0 32.1Q54.2 32.5 54.2 32.9L54.2 32.9Q54.2 33.6 53.8 34.1Q53.5 34.6 52.9 34.8Q52.2 35.1 51.3 35.1ZM60.2 29.0L57.9 29.0L57.9 27.7L63.9 27.7L63.9 29.0L61.7 29.0L61.7 35L60.2 35L60.2 29.0Z M76.3 35.1L76.3 35.1Q75.4 35.1 74.7 34.8Q74.0 34.4 73.6 33.8Q73.3 33.2 73.3 32.4L73.3 32.4L73.3 27.7L74.8 27.7L74.8 32.3Q74.8 32.7 74.9 33.1Q75.1 33.4 75.5 33.6Q75.8 33.8 76.3 33.8L76.3 33.8Q76.7 33.8 77.1 33.6Q77.4 33.4 77.6 33.1Q77.8 32.7 77.8 32.3L77.8 32.3L77.8 27.7L79.3 27.7L79.3 32.4Q79.3 33.2 78.9 33.8Q78.5 34.4 77.8 34.8Q77.2 35.1 76.3 35.1ZM86.3 35.1L86.3 35.1Q85.4 35.1 84.7 34.8Q84.1 34.6 83.7 34.0Q83.4 33.5 83.3 32.7L83.3 32.7L84.8 32.7Q84.8 33.1 85.0 33.4Q85.2 33.6 85.5 33.7Q85.8 33.8 86.2 33.8L86.2 33.8Q86.6 33.8 86.9 33.7Q87.2 33.6 87.4 33.4Q87.6 33.2 87.6 32.9L87.6 32.9Q87.6 32.7 87.4 32.5Q87.3 32.3 87.0 32.2Q86.7 32.1 86.3 32.0L86.3 32.0L85.5 31.8Q84.6 31.6 84.1 31.1Q83.5 30.6 83.5 29.8L83.5 29.8Q83.5 29.2 83.9 28.7Q84.3 28.2 84.9 27.9Q85.5 27.6 86.3 27.6L86.3 27.6Q87.1 27.6 87.7 27.9Q88.3 28.2 88.6 28.7Q89.0 29.2 89.0 29.8L89.0 29.8L87.5 29.8Q87.5 29.4 87.2 29.1Q86.8 28.9 86.3 28.9L86.3 28.9Q85.9 28.9 85.6 29.0Q85.3 29.1 85.2 29.3Q85.1 29.5 85.1 29.7L85.1 29.7Q85.1 30.0 85.2 30.2Q85.4 30.3 85.7 30.5Q85.9 30.6 86.2 30.6L86.2 30.6L86.9 30.8Q87.4 30.9 87.7 31.1Q88.1 31.3 88.4 31.5Q88.7 31.8 88.9 32.1Q89.1 32.5 89.1 32.9L89.1 32.9Q89.1 33.6 88.7 34.1Q88.4 34.6 87.8 34.8Q87.1 35.1 86.3 35.1ZM98.0 35L93.1 35L93.1 27.7L98.0 27.7L98.0 29.0L94.6 29.0L94.6 30.7L97.8 30.7L97.8 31.9L94.6 31.9L94.6 33.8L98.0 33.8L98.0 35ZM104.8 35L104.8 35L102.2 35L102.2 27.7L104.8 27.7Q105.9 27.7 106.7 28.2Q107.5 28.6 107.9 29.4Q108.3 30.2 108.3 31.4L108.3 31.4Q108.3 32.5 107.9 33.3Q107.5 34.1 106.7 34.6Q105.9 35 104.8 35ZM103.7 29.0L103.7 33.7L104.7 33.7Q105.4 33.7 105.9 33.5Q106.4 33.2 106.6 32.7Q106.8 32.2 106.8 31.4L106.8 31.4Q106.8 30.5 106.6 30.0Q106.3 29.5 105.9 29.3Q105.4 29.0 104.7 29.0L104.7 29.0L103.7 29.0Z M122.4 35L117.8 35L117.8 27.7L119.3 27.7L119.3 33.8L122.4 33.8L122.4 35ZM127.7 35L126.0 35L128.5 27.7L130.5 27.7L133.0 35L131.4 35L130.8 33.3L128.2 33.3L127.7 35ZM128.6 32.1L130.4 32.1L130.2 31.5Q130.0 30.8 129.8 30L129.8 30Q129.6 29.5 129.5 28.9L129.5 28.9Q129.3 29.5 129.2 30.0L129.2 30.0Q129.0 30.8 128.8 31.5L128.8 31.5L128.6 32.1ZM138.4 35L136.9 35L136.9 27.7L138.6 27.7L140.9 31.4Q141.1 31.7 141.2 32.0Q141.4 32.4 141.6 32.8L141.6 32.8Q141.7 33.0 141.8 33.2L141.8 33.2Q141.8 33.0 141.8 32.8L141.8 32.8Q141.7 32.3 141.7 31.9Q141.7 31.5 141.7 31.2L141.7 31.2L141.7 27.7L143.2 27.7L143.2 35L141.6 35L139.5 31.7Q139.2 31.3 139.0 30.9Q138.9 30.6 138.6 30.1L138.6 30.1Q138.5 29.9 138.3 29.6L138.3 29.6Q138.4 29.9 138.4 30.1L138.4 30.1Q138.4 30.6 138.4 31.0Q138.4 31.4 138.4 31.7L138.4 31.7L138.4 35ZM150.8 35.1L150.8 35.1Q149.7 35.1 149.0 34.6Q148.2 34.2 147.8 33.4Q147.3 32.5 147.3 31.4L147.3 31.4Q147.3 30.2 147.8 29.4Q148.2 28.5 149.0 28.1Q149.8 27.6 150.7 27.6L150.7 27.6Q151.3 27.6 151.9 27.8Q152.4 28.0 152.8 28.3Q153.2 28.6 153.5 29.1Q153.8 29.5 153.8 30.1L153.8 30.1L152.3 30.1Q152.2 29.8 152.1 29.6Q152.0 29.4 151.8 29.2Q151.6 29.1 151.3 29.0Q151.1 29.0 150.8 29.0L150.8 29.0Q150.2 29.0 149.8 29.2Q149.3 29.5 149.1 30.0Q148.9 30.6 148.9 31.4Q148.9 32.1 149.1 32.7Q149.3 33.2 149.8 33.5Q150.2 33.8 150.8 33.8L150.8 33.8Q151.3 33.8 151.7 33.6Q152.1 33.4 152.3 33.0L152.3 33.0Q152.5 32.7 152.5 32.3L152.5 32.3L150.9 32.3L150.9 31.1L153.9 31.1L153.9 32.0Q153.9 33.0 153.5 33.7Q153.1 34.4 152.4 34.7Q151.7 35.1 150.8 35.1ZM161.0 35.1L161.0 35.1Q160.1 35.1 159.5 34.8Q158.8 34.4 158.4 33.8Q158.0 33.2 158.0 32.4L158.0 32.4L158.0 27.7L159.5 27.7L159.5 32.3Q159.5 32.7 159.7 33.1Q159.9 33.4 160.3 33.6Q160.6 33.8 161.0 33.8L161.0 33.8Q161.5 33.8 161.8 33.6Q162.2 33.4 162.4 33.1Q162.6 32.7 162.6 32.3L162.6 32.3L162.6 27.7L164.1 27.7L164.1 32.4Q164.1 33.2 163.7 33.8Q163.3 34.4 162.6 34.8Q162.0 35.1 161.0 35.1ZM169.6 35L167.9 35L170.4 27.7L172.4 27.7L174.9 35L173.3 35L172.7 33.3L170.1 33.3L169.6 35ZM170.5 32.1L172.3 32.1L172.1 31.5Q171.9 30.8 171.7 30L171.7 30Q171.5 29.5 171.4 28.9L171.4 28.9Q171.3 29.5 171.1 30.0L171.1 30.0Q170.9 30.8 170.7 31.5L170.7 31.5L170.5 32.1ZM182.1 35.1L182.1 35.1Q181.0 35.1 180.3 34.6Q179.5 34.2 179.1 33.4Q178.6 32.5 178.6 31.4L178.6 31.4Q178.6 30.2 179.1 29.4Q179.5 28.5 180.3 28.1Q181.1 27.6 182.0 27.6L182.0 27.6Q182.6 27.6 183.2 27.8Q183.7 28.0 184.1 28.3Q184.5 28.6 184.8 29.1Q185.0 29.5 185.1 30.1L185.1 30.1L183.6 30.1Q183.5 29.8 183.4 29.6Q183.3 29.4 183.1 29.2Q182.9 29.1 182.6 29.0Q182.4 29.0 182.0 29.0L182.0 29.0Q181.5 29.0 181.1 29.2Q180.6 29.5 180.4 30.0Q180.1 30.6 180.1 31.4Q180.1 32.1 180.4 32.7Q180.6 33.2 181.1 33.5Q181.5 33.8 182.1 33.8L182.1 33.8Q182.6 33.8 183.0 33.6Q183.3 33.4 183.6 33.0L183.6 33.0Q183.7 32.7 183.8 32.3L183.8 32.3L182.2 32.3L182.2 31.1L185.2 31.1L185.2 32.0Q185.2 33.0 184.8 33.7Q184.4 34.4 183.7 34.7Q183.0 35.1 182.1 35.1ZM194.2 35L189.3 35L189.3 27.7L194.2 27.7L194.2 29.0L190.8 29.0L190.8 30.7L194.0 30.7L194.0 31.9L190.8 31.9L190.8 33.8L194.2 33.8L194.2 35ZM201.1 35.1L201.1 35.1Q200.2 35.1 199.6 34.8Q198.9 34.6 198.6 34.0Q198.2 33.5 198.2 32.7L198.2 32.7L199.6 32.7Q199.6 33.1 199.8 33.4Q200.0 33.6 200.3 33.7Q200.7 33.8 201.1 33.8L201.1 33.8Q201.5 33.8 201.8 33.7Q202.1 33.6 202.2 33.4Q202.4 33.2 202.4 32.9L202.4 32.9Q202.4 32.7 202.2 32.5Q202.1 32.3 201.8 32.2Q201.5 32.1 201.1 32.0L201.1 32.0L200.3 31.8Q199.4 31.6 198.9 31.1Q198.4 30.6 198.4 29.8L198.4 29.8Q198.4 29.2 198.7 28.7Q199.1 28.2 199.7 27.9Q200.3 27.6 201.1 27.6L201.1 27.6Q201.9 27.6 202.5 27.9Q203.1 28.2 203.4 28.7Q203.8 29.2 203.8 29.8L203.8 29.8L202.3 29.8Q202.3 29.4 202.0 29.1Q201.6 28.9 201.1 28.9L201.1 28.9Q200.7 28.9 200.4 29.0Q200.2 29.1 200.0 29.3Q199.9 29.5 199.9 29.7L199.9 29.7Q199.9 30.0 200.1 30.2Q200.2 30.3 200.5 30.5Q200.8 30.6 201.1 30.6L201.1 30.6L201.7 30.8Q202.2 30.9 202.6 31.1Q203.0 31.3 203.3 31.5Q203.6 31.8 203.7 32.1Q203.9 32.5 203.9 32.9L203.9 32.9Q203.9 33.6 203.6 34.1Q203.2 34.6 202.6 34.8Q202.0 35.1 201.1 35.1Z "/></g><clipPath id="satori_cp-id-2" clip-path="url(#satori_cp-id)"><path x="25" y="53" width="750" height="6" d="M28,53 h744 a3,3 0 0 1 3,3 v0 a3,3 0 0 1 -3,3 h-744 a3,3 0 0 1 -3,-3 v0 a3,3 0 0 1 3,-3"/></clipPath><mask id="satori_om-id-2"><rect x="25" y="53" width="750" height="6" fill="#fff" mask="url(#satori_om-id)"/></mask><path x="25" y="53" width="750" height="6" fill="rgba(255,255,255,0.05)" d="M28,53 h744 a3,3 0 0 1 3,3 v0 a3,3 0 0 1 -3,3 h-744 a3,3 0 0 1 -3,-3 v0 a3,3 0 0 1 3,-3" clip-path="url(#satori_cp-id)" mask="url(#satori_om-id)"/><mask id="satori_om-id-2-0"><rect x="25" y="53" width="263" height="6" fill="#fff" mask="url(#satori_om-id-2)"/></mask><rect x="25" y="53" width="263" height="6" fill="#f34b7d" clip-path="url(#satori_cp-id-2)" mask="url(#satori_om-id-2)"/><mask id="satori_om-id-2-1"><rect x="288" y="53" width="105" height="6" fill="#fff" mask="url(#satori_om-id-2)"/></mask><rect x="288" y="53" width="105" height="6" fill="#555555" clip-path="url(#satori_cp-id-2)" mask="url(#satori_om-id-2)"/><mask id="satori_om-id-2-2"><rect x="393" y="53" width="82" height="6" fill="#fff" mask="url(#satori_om-id-2)"/></mask><rect x="393" y="53" width="82" height="6" fill="#3572A5" clip-path="url(#satori_cp-id-2)" mask="url(#satori_om-id-2)"/><mask id="satori_om-id-2-3"><rect x="475" y="53" width="83" height="6" fill="#fff" mask="url(#satori_om-id-2)"/></mask><rect x="475" y="53" width="83" height="6" fill="#663399" clip-path="url(#satori_cp-id-2)" mask="url(#satori_om-id-2)"/><mask id="satori_om-id-2-4"><rect x="558" y="53" width="37" height="6" fill="#fff" mask="url(#satori_om-id-2)"/></mask><rect x="558" y="53" width="37" height="6" fill="#5686a5" clip-path="url(#satori_cp-id-2)" mask="url(#satori_om-id-2)"/><mask id="satori_om-id-2-5"><rect x="595" y="53" width="38" height="6" fill="#fff" mask="url(#satori_om-id-2)"/></mask><rect x="595" y="53" width="38" height="6" fill="#89e051" clip-path="url(#satori_cp-id-2)" mask="url(#satori_om-id-2)"/><mask id="satori_om-id-2-6"><rect x="633" y="53" width="37" height="6" fill="#fff" mask="url(#satori_om-id-2)"/></mask><rect x="633" y="53" width="37" height="6" fill="#6E4C13" clip-path="url(#satori_cp-id-2)" mask="url(#satori_om-id-2)"/><mask id="satori_om-id-2-7"><rect x="670" y="53" width="23" height="6" fill="#fff" mask="url(#satori_om-id-2)"/></mask><rect x="670" y="53" width="23" height="6" fill="#3178c6" clip-path="url(#satori_cp-id-2)" mask="url(#satori_om-id-2)"/><mask id="satori_om-id-2-8"><rect x="693" y="53" width="22" height="6" fill="#fff" mask="url(#satori_om-id-2)"/></mask><rect x="693" y="53" width="22" height="6" fill="#e34c26" clip-path="url(#satori_cp-id-2)" mask="url(#satori_om-id-2)"/><mask id="satori_om-id-2-9"><rect x="715" y="53" width="23" height="6" fill="#fff" mask="url(#satori_om-id-2)"/></mask><rect x="715" y="53" width="23" height="6" fill="#f1e05a" clip-path="url(#satori_cp-id-2)" mask="url(#satori_om-id-2)"/><mask id="satori_om-id-3"><rect x="25" y="75" width="750" height="46" fill="#fff" mask="url(#satori_om-id)"/></mask><mask id="satori_om-id-3-0"><rect x="25" y="75" width="120" height="16" fill="#fff" mask="url(#satori_om-id)"/></mask><mask id="satori_ms-id-3-0-0-0" maskUnits="userSpaceOnUse"><rect x="0" y="0" width="800" height="180" fill="#fff"/><path x="25" y="78" width="10" height="10" fill="#000"  stroke-width="0" d="M30,78 h0 a5,5 0 0 1 5,5 v0 a5,5 0 0 1 -5,5 h0 a5,5 0 0 1 -5,-5 v0 a5,5 0 0 1 5,-5" clip-path="url(#satori_cp-id)" mask="url(#satori_om-id)"/></mask><defs><filter id="satori_s-id-3-0-0-0" x="-90%" y="-90%" width="280%" height="280%"><feGaussianBlur stdDeviation="3" result="b"/><feFlood flood-color="#f34b7d40" in="SourceGraphic" result="f"/><feComposite in="f" in2="b" operator="in"/></filter></defs><g mask="url(#satori_ms-id-3-0-0-0)" filter="url(#satori_s-id-3-0-0-0)" opacity="1"><path x="25" y="78" width="10" height="10" fill="#fff" stroke="#fff" stroke-width="0" d="M30,78 h0 a5,5 0 0 1 5,5 v0 a5,5 0 0 1 -5,5 h0 a5,5 0 0 1 -5,-5 v0 a5,5 0 0 1 5,-5" clip-path="url(#satori_cp-id)" mask="url(#satori_om-id)"/></g><mask id="satori_om-id-3-0-0"><rect x="25" y="78" width="10" height="10" fill="#fff" mask="url(#satori_om-id)"/></mask><path x="25" y="78" width="10" height="10" fill="#f34b7d" d="M30,78 h0 a5,5 0 0 1 5,5 v0 a5,5 0 0 1 -5,5 h0 a5,5 0 0 1 -5,-5 v0 a5,5 0 0 1 5,-5" clip-path="url(#satori_cp-id)" mask="url(#satori_om-id)"/><mask id="satori_om-id-3-0-1"><rect x="41" y="75" width="27" height="16" fill="#fff" mask="url(#satori_om-id)"/></mask><g mask="url(#satori_om-id)" clip-path="url(#satori_cp-id)"><path fill="#e0e0f0" d="M46.0 88.1L46.0 88.1Q44.8 88.1 43.8 87.5Q42.9 87.0 42.3 85.9Q41.8 84.8 41.8 83.3L41.8 83.3Q41.8 81.8 42.3 80.7Q42.9 79.6 43.8 79.0Q44.8 78.4 46.0 78.4L46.0 78.4Q46.7 78.4 47.3 78.6Q48.0 78.8 48.5 79.2Q49.0 79.6 49.3 80.2Q49.7 80.8 49.8 81.5L49.8 81.5L48.6 81.5Q48.5 81.0 48.2 80.7Q48.0 80.3 47.6 80.0Q47.3 79.8 46.9 79.7Q46.4 79.5 46.0 79.5L46.0 79.5Q45.1 79.5 44.4 80.0Q43.7 80.4 43.3 81.2Q42.9 82.1 42.9 83.3L42.9 83.3Q42.9 84.5 43.4 85.3Q43.8 86.2 44.4 86.6Q45.1 87.0 46.0 87.0L46.0 87.0Q46.4 87.0 46.9 86.9Q47.3 86.7 47.6 86.5Q48.0 86.2 48.2 85.9Q48.5 85.5 48.6 85.0L48.6 85.0L49.8 85.0Q49.7 85.7 49.3 86.3Q49.0 86.9 48.5 87.3Q48.0 87.7 47.3 87.9Q46.7 88.1 46.0 88.1ZM55.3 87.4L54.3 87.4L54.3 84.8L51.7 84.8L51.7 83.8L54.3 83.8L54.3 81.2L55.3 81.2L55.3 83.8L57.9 83.8L57.9 84.8L55.3 84.8L55.3 87.4ZM63.9 87.4L62.9 87.4L62.9 84.8L60.3 84.8L60.3 83.8L62.9 83.8L62.9 81.2L63.9 81.2L63.9 83.8L66.5 83.8L66.5 84.8L63.9 84.8L63.9 87.4Z "/></g><mask id="satori_om-id-3-0-2"><rect x="74" y="77" width="25" height="13" fill="#fff" mask="url(#satori_om-id)"/></mask><g mask="url(#satori_om-id)" clip-path="url(#satori_cp-id)"><path fill="#6a6a8a" d="M77.4 88.1L77.4 88.1Q76.6 88.1 76.0 87.8Q75.4 87.6 75.1 87.1Q74.7 86.6 74.7 86.0L74.7 86.0L75.7 86.0Q75.7 86.4 76.0 86.6Q76.2 86.9 76.6 87.1Q76.9 87.2 77.4 87.2L77.4 87.2Q77.9 87.2 78.3 87.0Q78.7 86.9 78.9 86.5Q79.1 86.2 79.1 85.8L79.1 85.8Q79.1 85.4 78.9 85.0Q78.7 84.7 78.3 84.5Q77.9 84.3 77.3 84.3L77.3 84.3L76.6 84.3L76.6 83.5L77.3 83.5Q77.7 83.5 78.1 83.3Q78.5 83.1 78.7 82.8Q78.9 82.5 78.9 82.1L78.9 82.1Q78.9 81.7 78.7 81.4Q78.5 81.1 78.2 80.9Q77.9 80.8 77.4 80.8L77.4 80.8Q77.0 80.8 76.7 80.9Q76.3 81.1 76.1 81.3Q75.8 81.6 75.8 82.0L75.8 82.0L74.8 82.0Q74.9 81.4 75.2 80.9Q75.6 80.4 76.2 80.2Q76.7 79.9 77.4 79.9L77.4 79.9Q78.2 79.9 78.7 80.2Q79.3 80.5 79.6 81.0Q79.8 81.5 79.8 82.0L79.8 82.0Q79.8 82.7 79.5 83.2Q79.1 83.7 78.5 83.8L78.5 83.8L78.5 83.9Q79.0 84.0 79.4 84.3Q79.8 84.5 79.9 84.9Q80.1 85.3 80.1 85.8L80.1 85.8Q80.1 86.5 79.8 87.0Q79.4 87.5 78.8 87.8Q78.2 88.1 77.4 88.1ZM84.0 88.1L84.0 88.1Q83.3 88.1 82.7 87.8Q82.2 87.6 81.8 87.1Q81.5 86.6 81.5 86.0L81.5 86.0L82.5 86.0Q82.5 86.3 82.7 86.6Q82.9 86.9 83.3 87.1Q83.6 87.2 84.0 87.2L84.0 87.2Q84.5 87.2 84.9 87.0Q85.2 86.8 85.5 86.4Q85.7 86.0 85.7 85.5L85.7 85.5Q85.7 84.9 85.4 84.5Q85.2 84.1 84.8 83.9Q84.4 83.7 83.9 83.7L83.9 83.7Q83.6 83.7 83.2 83.8Q82.8 83.9 82.6 84.1L82.6 84.1L81.6 84.0L82.1 80.0L86.3 80.0L86.3 80.9L82.9 80.9L82.7 83.2L82.7 83.2Q83.0 83.0 83.3 82.9Q83.7 82.8 84.1 82.8L84.1 82.8Q84.7 82.8 85.1 83.0Q85.6 83.2 85.9 83.5Q86.3 83.9 86.5 84.4Q86.7 84.9 86.7 85.4L86.7 85.4Q86.7 86.2 86.3 86.8Q86.0 87.4 85.4 87.8Q84.8 88.1 84.0 88.1ZM90.1 83.5L90.1 83.5Q89.6 83.5 89.3 83.3Q88.9 83.1 88.7 82.7Q88.6 82.3 88.6 81.9L88.6 81.9L88.6 81.5Q88.6 81.0 88.7 80.7Q88.9 80.3 89.3 80.1Q89.6 79.9 90.1 79.9L90.1 79.9Q90.6 79.9 91.0 80.1Q91.3 80.3 91.5 80.7Q91.7 81.0 91.7 81.5L91.7 81.5L91.7 81.9Q91.7 82.3 91.5 82.7Q91.3 83.1 91.0 83.3Q90.6 83.5 90.1 83.5ZM90.1 82.8L90.1 82.8Q90.5 82.8 90.7 82.6Q90.9 82.3 90.9 81.9L90.9 81.9L90.9 81.5Q90.9 81.1 90.7 80.9Q90.5 80.6 90.1 80.6L90.1 80.6Q89.7 80.6 89.6 80.9Q89.4 81.1 89.4 81.5L89.4 81.5L89.4 81.9Q89.4 82.3 89.5 82.6Q89.7 82.8 90.1 82.8ZM95.3 88.2L95.3 88.2Q94.8 88.2 94.5 87.9Q94.1 87.7 93.9 87.3Q93.7 87.0 93.7 86.5L93.7 86.5L93.7 86.1Q93.7 85.7 93.9 85.3Q94.1 84.9 94.5 84.7Q94.8 84.5 95.3 84.5L95.3 84.5Q95.8 84.5 96.2 84.7Q96.5 84.9 96.7 85.3Q96.9 85.7 96.9 86.1L96.9 86.1L96.9 86.5Q96.9 87.0 96.7 87.3Q96.5 87.7 96.2 87.9Q95.8 88.2 95.3 88.2ZM95.3 87.5L95.3 87.5Q95.7 87.5 95.9 87.2Q96.1 86.9 96.1 86.5L96.1 86.5L96.1 86.1Q96.1 85.8 95.9 85.5Q95.7 85.2 95.3 85.2L95.3 85.2Q94.9 85.2 94.7 85.5Q94.6 85.8 94.6 86.1L94.6 86.1L94.6 86.5Q94.6 86.9 94.7 87.2Q94.9 87.5 95.3 87.5ZM90.4 88L89.5 88L95.0 80.0L95.9 80.0L90.4 88Z "/></g><mask id="satori_om-id-3-1"><rect x="159" y="75" width="120" height="16" fill="#fff" mask="url(#satori_om-id)"/></mask><mask id="satori_ms-id-3-1-0-0" maskUnits="userSpaceOnUse"><rect x="0" y="0" width="800" height="180" fill="#fff"/><path x="159" y="78" width="10" height="10" fill="#000"  stroke-width="0" d="M164,78 h0 a5,5 0 0 1 5,5 v0 a5,5 0 0 1 -5,5 h0 a5,5 0 0 1 -5,-5 v0 a5,5 0 0 1 5,-5" clip-path="url(#satori_cp-id)" mask="url(#satori_om-id)"/></mask><defs><filter id="satori_s-id-3-1-0-0" x="-90%" y="-90%" width="280%" height="280%"><feGaussianBlur stdDeviation="3" result="b"/><feFlood flood-color="#55555540" in="SourceGraphic" result="f"/><feComposite in="f" in2="b" operator="in"/></filter></defs><g mask="url(#satori_ms-id-3-1-0-0)" filter="url(#satori_s-id-3-1-0-0)" opacity="1"><path x="159" y="78" width="10" height="10" fill="#fff" stroke="#fff" stroke-width="0" d="M164,78 h0 a5,5 0 0 1 5,5 v0 a5,5 0 0 1 -5,5 h0 a5,5 0 0 1 -5,-5 v0 a5,5 0 0 1 5,-5" clip-path="url(#satori_cp-id)" mask="url(#satori_om-id)"/></g><mask id="satori_om-id-3-1-0"><rect x="159" y="78" width="10" height="10" fill="#fff" mask="url(#satori_om-id)"/></mask><path x="159" y="78" width="10" height="10" fill="#555555" d="M164,78 h0 a5,5 0 0 1 5,5 v0 a5,5 0 0 1 -5,5 h0 a5,5 0 0 1 -5,-5 v0 a5,5 0 0 1 5,-5" clip-path="url(#satori_cp-id)" mask="url(#satori_om-id)"/><mask id="satori_om-id-3-1-1"><rect x="175" y="75" width="10" height="16" fill="#fff" mask="url(#satori_om-id)"/></mask><g mask="url(#satori_om-id)" clip-path="url(#satori_cp-id)"><path fill="#e0e0f0" d="M180.0 88.1L180.0 88.1Q178.8 88.1 177.8 87.5Q176.9 87.0 176.3 85.9Q175.8 84.8 175.8 83.3L175.8 83.3Q175.8 81.8 176.3 80.7Q176.9 79.6 177.8 79.0Q178.8 78.4 180.0 78.4L180.0 78.4Q180.7 78.4 181.3 78.6Q182.0 78.8 182.5 79.2Q183.0 79.6 183.3 80.2Q183.7 80.8 183.8 81.5L183.8 81.5L182.6 81.5Q182.5 81.0 182.2 80.7Q182.0 80.3 181.6 80.0Q181.3 79.8 180.9 79.7Q180.4 79.5 180.0 79.5L180.0 79.5Q179.1 79.5 178.4 80.0Q177.7 80.4 177.3 81.2Q176.9 82.1 176.9 83.3L176.9 83.3Q176.9 84.5 177.4 85.3Q177.8 86.2 178.4 86.6Q179.1 87.0 180.0 87.0L180.0 87.0Q180.4 87.0 180.9 86.9Q181.3 86.7 181.6 86.5Q182.0 86.2 182.2 85.9Q182.5 85.5 182.6 85.0L182.6 85.0L183.8 85.0Q183.7 85.7 183.3 86.3Q183.0 86.9 182.5 87.3Q182.0 87.7 181.3 87.9Q180.7 88.1 180.0 88.1Z "/></g><mask id="satori_om-id-3-1-2"><rect x="191" y="77" width="23" height="13" fill="#fff" mask="url(#satori_om-id)"/></mask><g mask="url(#satori_om-id)" clip-path="url(#satori_cp-id)"><path fill="#6a6a8a" d="M193.3 80.0L194.5 80.0L194.5 88L193.5 88L193.5 80.9L193.4 80.9L191.5 82.4L191.5 81.3L193.3 80.0ZM199.9 86.4L196.1 86.4L196.1 85.5L199.6 80.0L200.9 80.0L200.9 85.5L201.9 85.5L201.9 86.4L200.9 86.4L200.9 88L199.9 88L199.9 86.4ZM197.2 85.5L199.9 85.5L199.9 81.3L199.8 81.3L197.2 85.4L197.2 85.5ZM205.4 83.5L205.4 83.5Q204.9 83.5 204.5 83.3Q204.2 83.1 204.0 82.7Q203.8 82.3 203.8 81.9L203.8 81.9L203.8 81.5Q203.8 81.0 204.0 80.7Q204.2 80.3 204.5 80.1Q204.9 79.9 205.4 79.9L205.4 79.9Q205.9 79.9 206.3 80.1Q206.6 80.3 206.8 80.7Q207.0 81.0 207.0 81.5L207.0 81.5L207.0 81.9Q207.0 82.3 206.8 82.7Q206.6 83.1 206.2 83.3Q205.9 83.5 205.4 83.5ZM205.4 82.8L205.4 82.8Q205.8 82.8 206.0 82.6Q206.1 82.3 206.1 81.9L206.1 81.9L206.1 81.5Q206.1 81.1 206.0 80.9Q205.8 80.6 205.4 80.6L205.4 80.6Q205.0 80.6 204.8 80.9Q204.6 81.1 204.6 81.5L204.6 81.5L204.6 81.9Q204.6 82.3 204.8 82.6Q205.0 82.8 205.4 82.8ZM210.6 88.2L210.6 88.2Q210.1 88.2 209.7 87.9Q209.4 87.7 209.2 87.3Q209.0 87.0 209.0 86.5L209.0 86.5L209.0 86.1Q209.0 85.7 209.2 85.3Q209.4 84.9 209.7 84.7Q210.1 84.5 210.6 84.5L210.6 84.5Q211.1 84.5 211.4 84.7Q211.8 84.9 212.0 85.3Q212.1 85.7 212.1 86.1L212.1 86.1L212.1 86.5Q212.1 87.0 212.0 87.3Q211.8 87.7 211.4 87.9Q211.1 88.2 210.6 88.2ZM210.6 87.5L210.6 87.5Q211.0 87.5 211.2 87.2Q211.3 86.9 211.3 86.5L211.3 86.5L211.3 86.1Q211.3 85.8 211.2 85.5Q211.0 85.2 210.6 85.2L210.6 85.2Q210.2 85.2 210.0 85.5Q209.8 85.8 209.8 86.1L209.8 86.1L209.8 86.5Q209.8 86.9 210.0 87.2Q210.2 87.5 210.6 87.5ZM205.7 88L204.8 88L210.3 80.0L211.2 80.0L205.7 88Z "/></g><mask id="satori_om-id-3-2"><rect x="293" y="75" width="120" height="16" fill="#fff" mask="url(#satori_om-id)"/></mask><mask id="satori_ms-id-3-2-0-0" maskUnits="userSpaceOnUse"><rect x="0" y="0" width="800" height="180" fill="#fff"/><path x="293" y="78" width="10" height="10" fill="#000"  stroke-width="0" d="M298,78 h0 a5,5 0 0 1 5,5 v0 a5,5 0 0 1 -5,5 h0 a5,5 0 0 1 -5,-5 v0 a5,5 0 0 1 5,-5" clip-path="url(#satori_cp-id)" mask="url(#satori_om-id)"/></mask><defs><filter id="satori_s-id-3-2-0-0" x="-90%" y="-90%" width="280%" height="280%"><feGaussianBlur stdDeviation="3" result="b"/><feFlood flood-color="#3572A540" in="SourceGraphic" result="f"/><feComposite in="f" in2="b" operator="in"/></filter></defs><g mask="url(#satori_ms-id-3-2-0-0)" filter="url(#satori_s-id-3-2-0-0)" opacity="1"><path x="293" y="78" width="10" height="10" fill="#fff" stroke="#fff" stroke-width="0" d="M298,78 h0 a5,5 0 0 1 5,5 v0 a5,5 0 0 1 -5,5 h0 a5,5 0 0 1 -5,-5 v0 a5,5 0 0 1 5,-5" clip-path="url(#satori_cp-id)" mask="url(#satori_om-id)"/></g><mask id="satori_om-id-3-2-0"><rect x="293" y="78" width="10" height="10" fill="#fff" mask="url(#satori_om-id)"/></mask><path x="293" y="78" width="10" height="10" fill="#3572A5" d="M298,78 h0 a5,5 0 0 1 5,5 v0 a5,5 0 0 1 -5,5 h0 a5,5 0 0 1 -5,-5 v0 a5,5 0 0 1 5,-5" clip-path="url(#satori_cp-id)" mask="url(#satori_om-id)"/><mask id="satori_om-id-3-2-1"><rect x="309" y="75" width="44" height="16" fill="#fff" mask="url(#satori_om-id)"/></mask><g mask="url(#satori_om-id)" clip-path="url(#satori_cp-id)"><path fill="#e0e0f0" d="M311.3 88L310.1 88L310.1 78.5L313.4 78.5Q314.5 78.5 315.2 78.9Q315.9 79.3 316.3 80.0Q316.6 80.7 316.6 81.6Q316.6 82.4 316.3 83.1Q315.9 83.8 315.2 84.2Q314.5 84.6 313.4 84.6L313.4 84.6L311.3 84.6L311.3 88ZM311.3 79.6L311.3 83.5L313.3 83.5Q314.1 83.5 314.5 83.3Q315.0 83.0 315.2 82.6Q315.4 82.1 315.4 81.6Q315.4 81.0 315.2 80.6Q315.0 80.1 314.5 79.9Q314.1 79.6 313.3 79.6L313.3 79.6L311.3 79.6ZM318.2 90.6L318.2 90.6L318.5 89.6L318.6 89.6Q319.0 89.7 319.2 89.7Q319.5 89.6 319.8 89.4Q320.0 89.1 320.2 88.6L320.2 88.6L320.4 88.0L317.6 80.9L318.9 80.9L320.4 85.1Q320.6 85.8 320.8 86.4L320.8 86.4Q320.9 86.7 321.0 87.0L321.0 87.0Q321.0 86.7 321.1 86.4L321.1 86.4Q321.3 85.8 321.5 85.1L321.5 85.1L323.0 80.9L324.3 80.9L321.1 89.1Q320.9 89.6 320.6 90.0Q320.3 90.4 319.9 90.5Q319.5 90.7 319.0 90.7L319.0 90.7Q318.7 90.7 318.5 90.7Q318.3 90.6 318.2 90.6ZM326.9 80.9L328.4 80.9L328.4 81.9L326.9 81.9L326.9 86.2Q326.9 86.6 327.1 86.9Q327.3 87.1 327.8 87.1L327.8 87.1Q327.9 87.1 328.1 87.0Q328.2 87.0 328.4 87.0L328.4 87.0L328.6 88.0Q328.4 88.0 328.2 88.1Q328.0 88.1 327.8 88.1L327.8 88.1Q326.8 88.1 326.3 87.6Q325.8 87.1 325.8 86.2L325.8 86.2L325.8 81.9L324.7 81.9L324.7 80.9L325.8 80.9L325.8 79.2L326.9 79.2L326.9 80.9ZM331.0 83.7L331.0 83.7L331.0 88L329.9 88L329.9 78.5L331.0 78.5L331.0 82.1Q331.3 81.5 331.7 81.2L331.7 81.2Q332.3 80.8 333.1 80.8L333.1 80.8Q333.9 80.8 334.4 81.1Q334.9 81.4 335.2 82.0Q335.5 82.6 335.5 83.5L335.5 83.5L335.5 88L334.4 88L334.4 83.6Q334.4 82.8 334.0 82.3Q333.5 81.8 332.8 81.8L332.8 81.8Q332.3 81.8 331.9 82.1Q331.5 82.3 331.2 82.7Q331.0 83.1 331.0 83.7ZM340.4 88.2L340.4 88.2Q339.5 88.2 338.7 87.7Q338.0 87.2 337.6 86.4Q337.2 85.6 337.2 84.5L337.2 84.5Q337.2 83.4 337.6 82.6Q338.0 81.7 338.7 81.3Q339.5 80.8 340.4 80.8L340.4 80.8Q341.4 80.8 342.1 81.3Q342.9 81.7 343.3 82.6Q343.7 83.4 343.7 84.5L343.7 84.5Q343.7 85.6 343.3 86.4Q342.9 87.2 342.1 87.7Q341.4 88.2 340.4 88.2ZM340.4 87.1L340.4 87.1Q341.2 87.1 341.6 86.8Q342.1 86.4 342.3 85.8Q342.5 85.2 342.5 84.5L342.5 84.5Q342.5 83.8 342.3 83.2Q342.1 82.6 341.6 82.2Q341.2 81.8 340.4 81.8L340.4 81.8Q339.7 81.8 339.3 82.2Q338.8 82.6 338.6 83.2Q338.4 83.8 338.4 84.5L338.4 84.5Q338.4 85.2 338.6 85.8Q338.8 86.4 339.3 86.8Q339.7 87.1 340.4 87.1ZM346.5 83.7L346.5 83.7L346.5 88L345.3 88L345.3 80.9L346.4 80.9L346.5 82.2Q346.7 81.6 347.2 81.2L347.2 81.2Q347.8 80.8 348.6 80.8L348.6 80.8Q349.3 80.8 349.9 81.1Q350.4 81.4 350.7 82.0Q351.0 82.6 351.0 83.5L351.0 83.5L351.0 88L349.9 88L349.9 83.6Q349.9 82.8 349.5 82.3Q349.0 81.8 348.3 81.8L348.3 81.8Q347.8 81.8 347.4 82.1Q347.0 82.3 346.7 82.7Q346.5 83.1 346.5 83.7Z "/></g><mask id="satori_om-id-3-2-2"><rect x="359" y="77" width="20" height="13" fill="#fff" mask="url(#satori_om-id)"/></mask><g mask="url(#satori_om-id)" clip-path="url(#satori_cp-id)"><path fill="#6a6a8a" d="M361.3 80.0L362.5 80.0L362.5 88L361.5 88L361.5 80.9L361.4 80.9L359.5 82.4L359.5 81.3L361.3 80.0ZM365.7 80.0L367.0 80.0L367.0 88L366.0 88L366.0 80.9L365.9 80.9L364.0 82.4L364.0 81.3L365.7 80.0ZM370.8 83.5L370.8 83.5Q370.2 83.5 369.9 83.3Q369.5 83.1 369.4 82.7Q369.2 82.3 369.2 81.9L369.2 81.9L369.2 81.5Q369.2 81.0 369.4 80.7Q369.5 80.3 369.9 80.1Q370.3 79.9 370.8 79.9L370.8 79.9Q371.3 79.9 371.6 80.1Q372.0 80.3 372.1 80.7Q372.3 81.0 372.3 81.5L372.3 81.5L372.3 81.9Q372.3 82.3 372.1 82.7Q372.0 83.1 371.6 83.3Q371.3 83.5 370.8 83.5ZM370.8 82.8L370.8 82.8Q371.2 82.8 371.3 82.6Q371.5 82.3 371.5 81.9L371.5 81.9L371.5 81.5Q371.5 81.1 371.3 80.9Q371.2 80.6 370.8 80.6L370.8 80.6Q370.4 80.6 370.2 80.9Q370.0 81.1 370.0 81.5L370.0 81.5L370.0 81.9Q370.0 82.3 370.2 82.6Q370.3 82.8 370.8 82.8ZM376.0 88.2L376.0 88.2Q375.4 88.2 375.1 87.9Q374.7 87.7 374.6 87.3Q374.4 87.0 374.4 86.5L374.4 86.5L374.4 86.1Q374.4 85.7 374.6 85.3Q374.7 84.9 375.1 84.7Q375.4 84.5 376.0 84.5L376.0 84.5Q376.5 84.5 376.8 84.7Q377.2 84.9 377.3 85.3Q377.5 85.7 377.5 86.1L377.5 86.1L377.5 86.5Q377.5 87.0 377.3 87.3Q377.2 87.7 376.8 87.9Q376.5 88.2 376.0 88.2ZM376.0 87.5L376.0 87.5Q376.4 87.5 376.5 87.2Q376.7 86.9 376.7 86.5L376.7 86.5L376.7 86.1Q376.7 85.8 376.5 85.5Q376.4 85.2 376.0 85.2L376.0 85.2Q375.5 85.2 375.4 85.5Q375.2 85.8 375.2 86.1L375.2 86.1L375.2 86.5Q375.2 86.9 375.4 87.2Q375.5 87.5 376.0 87.5ZM371.0 88L370.1 88L375.6 80.0L376.5 80.0L371.0 88Z "/></g><mask id="satori_om-id-3-3"><rect x="427" y="75" width="120" height="16" fill="#fff" mask="url(#satori_om-id)"/></mask><mask id="satori_ms-id-3-3-0-0" maskUnits="userSpaceOnUse"><rect x="0" y="0" width="800" height="180" fill="#fff"/><path x="427" y="78" width="10" height="10" fill="#000"  stroke-width="0" d="M432,78 h0 a5,5 0 0 1 5,5 v0 a5,5 0 0 1 -5,5 h0 a5,5 0 0 1 -5,-5 v0 a5,5 0 0 1 5,-5" clip-path="url(#satori_cp-id)" mask="url(#satori_om-id)"/></mask><defs><filter id="satori_s-id-3-3-0-0" x="-90%" y="-90%" width="280%" height="280%"><feGaussianBlur stdDeviation="3" result="b"/><feFlood flood-color="#66339940" in="SourceGraphic" result="f"/><feComposite in="f" in2="b" operator="in"/></filter></defs><g mask="url(#satori_ms-id-3-3-0-0)" filter="url(#satori_s-id-3-3-0-0)" opacity="1"><path x="427" y="78" width="10" height="10" fill="#fff" stroke="#fff" stroke-width="0" d="M432,78 h0 a5,5 0 0 1 5,5 v0 a5,5 0 0 1 -5,5 h0 a5,5 0 0 1 -5,-5 v0 a5,5 0 0 1 5,-5" clip-path="url(#satori_cp-id)" mask="url(#satori_om-id)"/></g><mask id="satori_om-id-3-3-0"><rect x="427" y="78" width="10" height="10" fill="#fff" mask="url(#satori_om-id)"/></mask><path x="427" y="78" width="10" height="10" fill="#663399" d="M432,78 h0 a5,5 0 0 1 5,5 v0 a5,5 0 0 1 -5,5 h0 a5,5 0 0 1 -5,-5 v0 a5,5 0 0 1 5,-5" clip-path="url(#satori_cp-id)" mask="url(#satori_om-id)"/><mask id="satori_om-id-3-3-1"><rect x="443" y="75" width="27" height="16" fill="#fff" mask="url(#satori_om-id)"/></mask><g mask="url(#satori_om-id)" clip-path="url(#satori_cp-id)"><path fill="#e0e0f0" d="M448.0 88.1L448.0 88.1Q446.8 88.1 445.8 87.5Q444.9 87.0 444.3 85.9Q443.8 84.8 443.8 83.3L443.8 83.3Q443.8 81.8 444.3 80.7Q444.9 79.6 445.8 79.0Q446.8 78.4 448.0 78.4L448.0 78.4Q448.7 78.4 449.3 78.6Q450.0 78.8 450.5 79.2Q451.0 79.6 451.3 80.2Q451.7 80.8 451.8 81.5L451.8 81.5L450.6 81.5Q450.5 81.0 450.2 80.7Q450.0 80.3 449.6 80.0Q449.3 79.8 448.9 79.7Q448.4 79.5 448.0 79.5L448.0 79.5Q447.1 79.5 446.4 80.0Q445.7 80.4 445.3 81.2Q444.9 82.1 444.9 83.3L444.9 83.3Q444.9 84.5 445.4 85.3Q445.8 86.2 446.4 86.6Q447.1 87.0 448.0 87.0L448.0 87.0Q448.4 87.0 448.9 86.9Q449.3 86.7 449.6 86.5Q450.0 86.2 450.2 85.9Q450.5 85.5 450.6 85.0L450.6 85.0L451.8 85.0Q451.7 85.7 451.3 86.3Q451.0 86.9 450.5 87.3Q450.0 87.7 449.3 87.9Q448.7 88.1 448.0 88.1ZM456.7 88.2L456.7 88.2Q455.6 88.2 454.9 87.8Q454.1 87.5 453.7 86.9Q453.3 86.3 453.2 85.5L453.2 85.5L454.5 85.5Q454.5 86.1 454.8 86.4Q455.1 86.7 455.6 86.9Q456.1 87.1 456.7 87.1L456.7 87.1Q457.3 87.1 457.8 86.9Q458.3 86.7 458.6 86.3Q458.9 85.9 458.9 85.4L458.9 85.4Q458.9 84.9 458.7 84.7Q458.4 84.4 458.0 84.2Q457.6 84.0 457.1 83.9L457.1 83.9L455.9 83.5Q454.8 83.2 454.1 82.6Q453.5 82.0 453.5 81.1L453.5 81.1Q453.5 80.3 453.9 79.7Q454.4 79.1 455.1 78.7Q455.8 78.4 456.7 78.4L456.7 78.4Q457.7 78.4 458.4 78.7Q459.1 79.1 459.5 79.6Q459.9 80.2 460.0 80.9L460.0 80.9L458.8 80.9Q458.7 80.2 458.1 79.9Q457.6 79.5 456.7 79.5L456.7 79.5Q456.1 79.5 455.6 79.7Q455.2 79.9 454.9 80.2Q454.7 80.6 454.7 81.0L454.7 81.0Q454.7 81.5 455.0 81.8Q455.3 82.1 455.7 82.3Q456.1 82.5 456.5 82.5L456.5 82.5L457.4 82.8Q457.8 82.9 458.3 83.1Q458.7 83.3 459.1 83.6Q459.6 83.9 459.8 84.3Q460.1 84.8 460.1 85.4L460.1 85.4Q460.1 86.2 459.7 86.8Q459.3 87.4 458.5 87.8Q457.8 88.2 456.7 88.2ZM465.0 88.2L465.0 88.2Q464.0 88.2 463.2 87.8Q462.5 87.5 462.1 86.9Q461.6 86.3 461.6 85.5L461.6 85.5L462.8 85.5Q462.9 86.1 463.2 86.4Q463.5 86.7 464.0 86.9Q464.5 87.1 465.0 87.1L465.0 87.1Q465.6 87.1 466.2 86.9Q466.7 86.7 467.0 86.3Q467.3 85.9 467.3 85.4L467.3 85.4Q467.3 84.9 467.0 84.7Q466.8 84.4 466.3 84.2Q465.9 84.0 465.4 83.9L465.4 83.9L464.3 83.5Q463.1 83.2 462.5 82.6Q461.8 82.0 461.8 81.1L461.8 81.1Q461.8 80.3 462.3 79.7Q462.7 79.1 463.4 78.7Q464.2 78.4 465.1 78.4L465.1 78.4Q466.0 78.4 466.7 78.7Q467.5 79.1 467.9 79.6Q468.3 80.2 468.3 80.9L468.3 80.9L467.1 80.9Q467.1 80.2 466.5 79.9Q465.9 79.5 465.1 79.5L465.1 79.5Q464.4 79.5 464.0 79.7Q463.5 79.9 463.3 80.2Q463.0 80.6 463.0 81.0L463.0 81.0Q463.0 81.5 463.3 81.8Q463.6 82.1 464.1 82.3Q464.5 82.5 464.8 82.5L464.8 82.5L465.8 82.8Q466.1 82.9 466.6 83.1Q467.1 83.3 467.5 83.6Q467.9 83.9 468.2 84.3Q468.4 84.8 468.4 85.4L468.4 85.4Q468.4 86.2 468.0 86.8Q467.6 87.4 466.9 87.8Q466.1 88.2 465.0 88.2Z "/></g><mask id="satori_om-id-3-3-2"><rect x="476" y="77" width="20" height="13" fill="#fff" mask="url(#satori_om-id)"/></mask><g mask="url(#satori_om-id)" clip-path="url(#satori_cp-id)"><path fill="#6a6a8a" d="M478.3 80.0L479.5 80.0L479.5 88L478.5 88L478.5 80.9L478.4 80.9L476.5 82.4L476.5 81.3L478.3 80.0ZM482.7 80.0L484.0 80.0L484.0 88L483.0 88L483.0 80.9L482.9 80.9L481.0 82.4L481.0 81.3L482.7 80.0ZM487.8 83.5L487.8 83.5Q487.2 83.5 486.9 83.3Q486.5 83.1 486.4 82.7Q486.2 82.3 486.2 81.9L486.2 81.9L486.2 81.5Q486.2 81.0 486.4 80.7Q486.5 80.3 486.9 80.1Q487.3 79.9 487.8 79.9L487.8 79.9Q488.3 79.9 488.6 80.1Q489.0 80.3 489.1 80.7Q489.3 81.0 489.3 81.5L489.3 81.5L489.3 81.9Q489.3 82.3 489.1 82.7Q489.0 83.1 488.6 83.3Q488.3 83.5 487.8 83.5ZM487.8 82.8L487.8 82.8Q488.2 82.8 488.3 82.6Q488.5 82.3 488.5 81.9L488.5 81.9L488.5 81.5Q488.5 81.1 488.3 80.9Q488.2 80.6 487.8 80.6L487.8 80.6Q487.4 80.6 487.2 80.9Q487.0 81.1 487.0 81.5L487.0 81.5L487.0 81.9Q487.0 82.3 487.2 82.6Q487.3 82.8 487.8 82.8ZM493.0 88.2L493.0 88.2Q492.4 88.2 492.1 87.9Q491.7 87.7 491.6 87.3Q491.4 87.0 491.4 86.5L491.4 86.5L491.4 86.1Q491.4 85.7 491.6 85.3Q491.7 84.9 492.1 84.7Q492.4 84.5 493.0 84.5L493.0 84.5Q493.5 84.5 493.8 84.7Q494.2 84.9 494.3 85.3Q494.5 85.7 494.5 86.1L494.5 86.1L494.5 86.5Q494.5 87.0 494.3 87.3Q494.2 87.7 493.8 87.9Q493.5 88.2 493.0 88.2ZM493.0 87.5L493.0 87.5Q493.4 87.5 493.5 87.2Q493.7 86.9 493.7 86.5L493.7 86.5L493.7 86.1Q493.7 85.8 493.5 85.5Q493.4 85.2 493.0 85.2L493.0 85.2Q492.5 85.2 492.4 85.5Q492.2 85.8 492.2 86.1L492.2 86.1L492.2 86.5Q492.2 86.9 492.4 87.2Q492.5 87.5 493.0 87.5ZM488.0 88L487.1 88L492.6 80.0L493.5 80.0L488.0 88Z "/></g><mask id="satori_om-id-3-4"><rect x="561" y="75" width="120" height="16" fill="#fff" mask="url(#satori_om-id)"/></mask><mask id="satori_ms-id-3-4-0-0" maskUnits="userSpaceOnUse"><rect x="0" y="0" width="800" height="180" fill="#fff"/><path x="561" y="78" width="10" height="10" fill="#000"  stroke-width="0" d="M566,78 h0 a5,5 0 0 1 5,5 v0 a5,5 0 0 1 -5,5 h0 a5,5 0 0 1 -5,-5 v0 a5,5 0 0 1 5,-5" clip-path="url(#satori_cp-id)" mask="url(#satori_om-id)"/></mask><defs><filter id="satori_s-id-3-4-0-0" x="-90%" y="-90%" width="280%" height="280%"><feGaussianBlur stdDeviation="3" result="b"/><feFlood flood-color="#5686a540" in="SourceGraphic" result="f"/><feComposite in="f" in2="b" operator="in"/></filter></defs><g mask="url(#satori_ms-id-3-4-0-0)" filter="url(#satori_s-id-3-4-0-0)" opacity="1"><path x="561" y="78" width="10" height="10" fill="#fff" stroke="#fff" stroke-width="0" d="M566,78 h0 a5,5 0 0 1 5,5 v0 a5,5 0 0 1 -5,5 h0 a5,5 0 0 1 -5,-5 v0 a5,5 0 0 1 5,-5" clip-path="url(#satori_cp-id)" mask="url(#satori_om-id)"/></g><mask id="satori_om-id-3-4-0"><rect x="561" y="78" width="10" height="10" fill="#fff" mask="url(#satori_om-id)"/></mask><path x="561" y="78" width="10" height="10" fill="#5686a5" d="M566,78 h0 a5,5 0 0 1 5,5 v0 a5,5 0 0 1 -5,5 h0 a5,5 0 0 1 -5,-5 v0 a5,5 0 0 1 5,-5" clip-path="url(#satori_cp-id)" mask="url(#satori_om-id)"/><mask id="satori_om-id-3-4-1"><rect x="577" y="75" width="33" height="16" fill="#fff" mask="url(#satori_om-id)"/></mask><g mask="url(#satori_om-id)" clip-path="url(#satori_cp-id)"><path fill="#e0e0f0" d="M582.0 88.1L582.0 88.1Q580.7 88.1 579.8 87.5Q578.8 86.9 578.3 85.9Q577.8 84.8 577.8 83.3L577.8 83.3Q577.8 81.8 578.3 80.7Q578.8 79.6 579.8 79.0Q580.7 78.4 581.9 78.4L581.9 78.4Q582.7 78.4 583.3 78.6Q584.0 78.9 584.5 79.3Q585.0 79.7 585.4 80.3Q585.7 80.8 585.8 81.5L585.8 81.5L584.6 81.5Q584.4 81.0 584.2 80.7Q583.9 80.3 583.6 80.1Q583.3 79.8 582.9 79.7Q582.4 79.5 581.9 79.5L581.9 79.5Q581.1 79.5 580.4 80.0Q579.7 80.4 579.3 81.2Q578.9 82.1 578.9 83.3L578.9 83.3Q578.9 84.5 579.4 85.3Q579.8 86.1 580.4 86.6Q581.1 87.0 582.0 87.0L582.0 87.0Q582.8 87.0 583.4 86.7Q584.0 86.3 584.4 85.7L584.4 85.7Q584.7 85.1 584.7 84.3L584.7 84.3L582.3 84.3L582.3 83.2L585.9 83.2L585.9 84.3Q585.9 85.5 585.4 86.3Q584.9 87.2 584.0 87.7Q583.1 88.1 582.0 88.1ZM593.4 88L587.8 88L587.8 78.5L589.0 78.5L589.0 86.9L593.4 86.9L593.4 88ZM598.2 88.2L598.2 88.2Q597.2 88.2 596.4 87.8Q595.7 87.5 595.3 86.9Q594.8 86.3 594.8 85.5L594.8 85.5L596.0 85.5Q596.1 86.1 596.4 86.4Q596.7 86.7 597.2 86.9Q597.7 87.1 598.2 87.1L598.2 87.1Q598.9 87.1 599.4 86.9Q599.9 86.7 600.2 86.3Q600.5 85.9 600.5 85.4L600.5 85.4Q600.5 84.9 600.2 84.7Q600.0 84.4 599.5 84.2Q599.1 84.0 598.6 83.9L598.6 83.9L597.5 83.5Q596.3 83.2 595.7 82.6Q595.1 82.0 595.1 81.1L595.1 81.1Q595.1 80.3 595.5 79.7Q595.9 79.1 596.7 78.7Q597.4 78.4 598.3 78.4L598.3 78.4Q599.2 78.4 600.0 78.7Q600.7 79.1 601.1 79.6Q601.5 80.2 601.5 80.9L601.5 80.9L600.3 80.9Q600.3 80.2 599.7 79.9Q599.1 79.5 598.3 79.5L598.3 79.5Q597.7 79.5 597.2 79.7Q596.7 79.9 596.5 80.2Q596.2 80.6 596.2 81.0L596.2 81.0Q596.2 81.5 596.5 81.8Q596.8 82.1 597.3 82.3Q597.7 82.5 598.0 82.5L598.0 82.5L599.0 82.8Q599.4 82.9 599.8 83.1Q600.3 83.3 600.7 83.6Q601.1 83.9 601.4 84.3Q601.7 84.8 601.7 85.4L601.7 85.4Q601.7 86.2 601.3 86.8Q600.8 87.4 600.1 87.8Q599.3 88.2 598.2 88.2ZM609.1 88L603.5 88L603.5 78.5L604.7 78.5L604.7 86.9L609.1 86.9L609.1 88Z "/></g><mask id="satori_om-id-3-4-2"><rect x="616" y="77" width="18" height="13" fill="#fff" mask="url(#satori_om-id)"/></mask><g mask="url(#satori_om-id)" clip-path="url(#satori_cp-id)"><path fill="#6a6a8a" d="M619.2 88.1L619.2 88.1Q618.5 88.1 617.9 87.8Q617.4 87.6 617.0 87.1Q616.7 86.6 616.7 86.0L616.7 86.0L617.7 86.0Q617.7 86.3 617.9 86.6Q618.1 86.9 618.5 87.1Q618.8 87.2 619.2 87.2L619.2 87.2Q619.7 87.2 620.1 87.0Q620.4 86.8 620.7 86.4Q620.9 86.0 620.9 85.5L620.9 85.5Q620.9 84.9 620.6 84.5Q620.4 84.1 620.0 83.9Q619.6 83.7 619.1 83.7L619.1 83.7Q618.8 83.7 618.4 83.8Q618.0 83.9 617.8 84.1L617.8 84.1L616.8 84.0L617.3 80.0L621.5 80.0L621.5 80.9L618.1 80.9L617.9 83.2L617.9 83.2Q618.2 83.0 618.5 82.9Q618.9 82.8 619.3 82.8L619.3 82.8Q619.9 82.8 620.3 83.0Q620.8 83.2 621.1 83.5Q621.5 83.9 621.7 84.4Q621.9 84.9 621.9 85.4L621.9 85.4Q621.9 86.2 621.5 86.8Q621.2 87.4 620.6 87.8Q620.0 88.1 619.2 88.1ZM625.3 83.5L625.3 83.5Q624.8 83.5 624.5 83.3Q624.1 83.1 623.9 82.7Q623.8 82.3 623.8 81.9L623.8 81.9L623.8 81.5Q623.8 81.0 623.9 80.7Q624.1 80.3 624.5 80.1Q624.8 79.9 625.3 79.9L625.3 79.9Q625.9 79.9 626.2 80.1Q626.5 80.3 626.7 80.7Q626.9 81.0 626.9 81.5L626.9 81.5L626.9 81.9Q626.9 82.3 626.7 82.7Q626.5 83.1 626.2 83.3Q625.8 83.5 625.3 83.5ZM625.3 82.8L625.3 82.8Q625.7 82.8 625.9 82.6Q626.1 82.3 626.1 81.9L626.1 81.9L626.1 81.5Q626.1 81.1 625.9 80.9Q625.8 80.6 625.3 80.6L625.3 80.6Q624.9 80.6 624.8 80.9Q624.6 81.1 624.6 81.5L624.6 81.5L624.6 81.9Q624.6 82.3 624.8 82.6Q624.9 82.8 625.3 82.8ZM630.5 88.2L630.5 88.2Q630.0 88.2 629.7 87.9Q629.3 87.7 629.1 87.3Q629.0 87.0 629.0 86.5L629.0 86.5L629.0 86.1Q629.0 85.7 629.1 85.3Q629.3 84.9 629.7 84.7Q630.0 84.5 630.5 84.5L630.5 84.5Q631.0 84.5 631.4 84.7Q631.7 84.9 631.9 85.3Q632.1 85.7 632.1 86.1L632.1 86.1L632.1 86.5Q632.1 87.0 631.9 87.3Q631.7 87.7 631.4 87.9Q631.0 88.2 630.5 88.2ZM630.5 87.5L630.5 87.5Q630.9 87.5 631.1 87.2Q631.3 86.9 631.3 86.5L631.3 86.5L631.3 86.1Q631.3 85.8 631.1 85.5Q630.9 85.2 630.5 85.2L630.5 85.2Q630.1 85.2 630.0 85.5Q629.8 85.8 629.8 86.1L629.8 86.1L629.8 86.5Q629.8 86.9 629.9 87.2Q630.1 87.5 630.5 87.5ZM625.6 88L624.7 88L630.2 80.0L631.1 80.0L625.6 88Z "/></g><mask id="satori_om-id-3-5"><rect x="25" y="105" width="120" height="16" fill="#fff" mask="url(#satori_om-id)"/></mask><mask id="satori_ms-id-3-5-0-0" maskUnits="userSpaceOnUse"><rect x="0" y="0" width="800" height="180" fill="#fff"/><path x="25" y="108" width="10" height="10" fill="#000"  stroke-width="0" d="M30,108 h0 a5,5 0 0 1 5,5 v0 a5,5 0 0 1 -5,5 h0 a5,5 0 0 1 -5,-5 v0 a5,5 0 0 1 5,-5" clip-path="url(#satori_cp-id)" mask="url(#satori_om-id)"/></mask><defs><filter id="satori_s-id-3-5-0-0" x="-90%" y="-90%" width="280%" height="280%"><feGaussianBlur stdDeviation="3" result="b"/><feFlood flood-color="#89e05140" in="SourceGraphic" result="f"/><feComposite in="f" in2="b" operator="in"/></filter></defs><g mask="url(#satori_ms-id-3-5-0-0)" filter="url(#satori_s-id-3-5-0-0)" opacity="1"><path x="25" y="108" width="10" height="10" fill="#fff" stroke="#fff" stroke-width="0" d="M30,108 h0 a5,5 0 0 1 5,5 v0 a5,5 0 0 1 -5,5 h0 a5,5 0 0 1 -5,-5 v0 a5,5 0 0 1 5,-5" clip-path="url(#satori_cp-id)" mask="url(#satori_om-id)"/></g><mask id="satori_om-id-3-5-0"><rect x="25" y="108" width="10" height="10" fill="#fff" mask="url(#satori_om-id)"/></mask><path x="25" y="108" width="10" height="10" fill="#89e051" d="M30,108 h0 a5,5 0 0 1 5,5 v0 a5,5 0 0 1 -5,5 h0 a5,5 0 0 1 -5,-5 v0 a5,5 0 0 1 5,-5" clip-path="url(#satori_cp-id)" mask="url(#satori_om-id)"/><mask id="satori_om-id-3-5-1"><rect x="41" y="105" width="30" height="16" fill="#fff" mask="url(#satori_om-id)"/></mask><g mask="url(#satori_om-id)" clip-path="url(#satori_cp-id)"><path fill="#e0e0f0" d="M45.2 118.2L45.2 118.2Q44.1 118.2 43.4 117.8Q42.6 117.5 42.2 116.9Q41.8 116.3 41.7 115.5L41.7 115.5L43.0 115.5Q43.0 116.1 43.3 116.4Q43.6 116.7 44.1 116.9Q44.6 117.1 45.2 117.1L45.2 117.1Q45.8 117.1 46.3 116.9Q46.8 116.7 47.1 116.3Q47.4 115.9 47.4 115.4L47.4 115.4Q47.4 114.9 47.2 114.7Q46.9 114.4 46.5 114.2Q46.1 114.0 45.6 113.9L45.6 113.9L44.4 113.5Q43.3 113.2 42.6 112.6Q42.0 112.0 42.0 111.1L42.0 111.1Q42.0 110.3 42.4 109.7Q42.9 109.1 43.6 108.7Q44.3 108.4 45.3 108.4L45.3 108.4Q46.2 108.4 46.9 108.7Q47.6 109.1 48.0 109.6Q48.5 110.2 48.5 110.9L48.5 110.9L47.3 110.9Q47.2 110.2 46.6 109.9Q46.1 109.5 45.2 109.5L45.2 109.5Q44.6 109.5 44.1 109.7Q43.7 109.9 43.4 110.2Q43.2 110.6 43.2 111.0L43.2 111.0Q43.2 111.5 43.5 111.8Q43.8 112.1 44.2 112.3Q44.6 112.5 45.0 112.5L45.0 112.5L45.9 112.8Q46.3 112.9 46.8 113.1Q47.2 113.3 47.6 113.6Q48.1 113.9 48.3 114.3Q48.6 114.8 48.6 115.4L48.6 115.4Q48.6 116.2 48.2 116.8Q47.8 117.4 47.0 117.8Q46.3 118.2 45.2 118.2ZM51.5 113.7L51.5 113.7L51.5 118L50.3 118L50.3 108.5L51.5 108.5L51.5 112.1Q51.8 111.5 52.2 111.2L52.2 111.2Q52.8 110.8 53.6 110.8L53.6 110.8Q54.3 110.8 54.9 111.1Q55.4 111.4 55.7 112.0Q56.0 112.6 56.0 113.5L56.0 113.5L56.0 118L54.9 118L54.9 113.6Q54.9 112.8 54.4 112.3Q54.0 111.8 53.3 111.8L53.3 111.8Q52.8 111.8 52.4 112.1Q52.0 112.3 51.7 112.7Q51.5 113.1 51.5 113.7ZM61.0 118.2L61.0 118.2Q60.0 118.2 59.2 117.7Q58.5 117.2 58.1 116.4Q57.7 115.6 57.7 114.5Q57.7 113.4 58.1 112.6Q58.5 111.8 59.2 111.3Q59.9 110.8 60.9 110.8L60.9 110.8Q61.4 110.8 62.0 111.0Q62.5 111.2 63.0 111.6Q63.4 112.0 63.7 112.7Q64.0 113.4 64.0 114.4L64.0 114.4L64.0 114.8L58.8 114.8Q58.9 115.5 59.1 116.0L59.1 116.0Q59.4 116.6 59.9 116.9Q60.4 117.1 61.0 117.1L61.0 117.1Q61.4 117.1 61.8 117.0Q62.1 116.9 62.4 116.7Q62.6 116.4 62.8 116.0L62.8 116.0L63.9 116.3Q63.7 116.9 63.3 117.3Q62.9 117.7 62.3 117.9Q61.7 118.2 61.0 118.2ZM58.8 113.9L58.8 113.9L62.8 113.9Q62.8 113.4 62.6 113.0L62.6 113.0Q62.4 112.4 62.0 112.1Q61.5 111.8 60.9 111.8Q60.2 111.8 59.8 112.1Q59.3 112.5 59.1 113.0L59.1 113.0Q58.9 113.4 58.8 113.9ZM65.6 108.5L66.8 108.5L66.8 118L65.6 118L65.6 108.5ZM68.8 108.5L69.9 108.5L69.9 118L68.8 118L68.8 108.5Z "/></g><mask id="satori_om-id-3-5-2"><rect x="77" y="107" width="18" height="13" fill="#fff" mask="url(#satori_om-id)"/></mask><g mask="url(#satori_om-id)" clip-path="url(#satori_cp-id)"><path fill="#6a6a8a" d="M80.2 118.1L80.2 118.1Q79.5 118.1 78.9 117.8Q78.4 117.6 78.0 117.1Q77.7 116.6 77.7 116.0L77.7 116.0L78.7 116.0Q78.7 116.3 78.9 116.6Q79.1 116.9 79.5 117.1Q79.8 117.2 80.2 117.2L80.2 117.2Q80.7 117.2 81.1 117.0Q81.4 116.8 81.7 116.4Q81.9 116.0 81.9 115.5L81.9 115.5Q81.9 114.9 81.6 114.5Q81.4 114.1 81.0 113.9Q80.6 113.7 80.1 113.7L80.1 113.7Q79.8 113.7 79.4 113.8Q79.0 113.9 78.8 114.1L78.8 114.1L77.8 114.0L78.3 110.0L82.5 110.0L82.5 110.9L79.1 110.9L78.9 113.2L78.9 113.2Q79.2 113.0 79.5 112.9Q79.9 112.8 80.3 112.8L80.3 112.8Q80.9 112.8 81.3 113.0Q81.8 113.2 82.1 113.5Q82.5 113.9 82.7 114.4Q82.9 114.9 82.9 115.4L82.9 115.4Q82.9 116.2 82.5 116.8Q82.2 117.4 81.6 117.8Q81.0 118.1 80.2 118.1ZM86.3 113.5L86.3 113.5Q85.8 113.5 85.5 113.3Q85.1 113.1 84.9 112.7Q84.8 112.3 84.8 111.9L84.8 111.9L84.8 111.5Q84.8 111.0 84.9 110.7Q85.1 110.3 85.5 110.1Q85.8 109.9 86.3 109.9L86.3 109.9Q86.9 109.9 87.2 110.1Q87.5 110.3 87.7 110.7Q87.9 111.0 87.9 111.5L87.9 111.5L87.9 111.9Q87.9 112.3 87.7 112.7Q87.5 113.1 87.2 113.3Q86.8 113.5 86.3 113.5ZM86.3 112.8L86.3 112.8Q86.7 112.8 86.9 112.6Q87.1 112.3 87.1 111.9L87.1 111.9L87.1 111.5Q87.1 111.1 86.9 110.9Q86.8 110.6 86.3 110.6L86.3 110.6Q85.9 110.6 85.8 110.9Q85.6 111.1 85.6 111.5L85.6 111.5L85.6 111.9Q85.6 112.3 85.8 112.6Q85.9 112.8 86.3 112.8ZM91.5 118.2L91.5 118.2Q91.0 118.2 90.7 117.9Q90.3 117.7 90.1 117.3Q90.0 117.0 90.0 116.5L90.0 116.5L90.0 116.1Q90.0 115.7 90.1 115.3Q90.3 114.9 90.7 114.7Q91.0 114.5 91.5 114.5L91.5 114.5Q92.0 114.5 92.4 114.7Q92.7 114.9 92.9 115.3Q93.1 115.7 93.1 116.1L93.1 116.1L93.1 116.5Q93.1 117.0 92.9 117.3Q92.7 117.7 92.4 117.9Q92.0 118.2 91.5 118.2ZM91.5 117.5L91.5 117.5Q91.9 117.5 92.1 117.2Q92.3 116.9 92.3 116.5L92.3 116.5L92.3 116.1Q92.3 115.8 92.1 115.5Q91.9 115.2 91.5 115.2L91.5 115.2Q91.1 115.2 91.0 115.5Q90.8 115.8 90.8 116.1L90.8 116.1L90.8 116.5Q90.8 116.9 90.9 117.2Q91.1 117.5 91.5 117.5ZM86.6 118L85.7 118L91.2 110.0L92.1 110.0L86.6 118Z "/></g><mask id="satori_om-id-3-6"><rect x="159" y="105" width="120" height="16" fill="#fff" mask="url(#satori_om-id)"/></mask><mask id="satori_ms-id-3-6-0-0" maskUnits="userSpaceOnUse"><rect x="0" y="0" width="800" height="180" fill="#fff"/><path x="159" y="108" width="10" height="10" fill="#000"  stroke-width="0" d="M164,108 h0 a5,5 0 0 1 5,5 v0 a5,5 0 0 1 -5,5 h0 a5,5 0 0 1 -5,-5 v0 a5,5 0 0 1 5,-5" clip-path="url(#satori_cp-id)" mask="url(#satori_om-id)"/></mask><defs><filter id="satori_s-id-3-6-0-0" x="-90%" y="-90%" width="280%" height="280%"><feGaussianBlur stdDeviation="3" result="b"/><feFlood flood-color="#6E4C1340" in="SourceGraphic" result="f"/><feComposite in="f" in2="b" operator="in"/></filter></defs><g mask="url(#satori_ms-id-3-6-0-0)" filter="url(#satori_s-id-3-6-0-0)" opacity="1"><path x="159" y="108" width="10" height="10" fill="#fff" stroke="#fff" stroke-width="0" d="M164,108 h0 a5,5 0 0 1 5,5 v0 a5,5 0 0 1 -5,5 h0 a5,5 0 0 1 -5,-5 v0 a5,5 0 0 1 5,-5" clip-path="url(#satori_cp-id)" mask="url(#satori_om-id)"/></g><mask id="satori_om-id-3-6-0"><rect x="159" y="108" width="10" height="10" fill="#fff" mask="url(#satori_om-id)"/></mask><path x="159" y="108" width="10" height="10" fill="#6E4C13" d="M164,108 h0 a5,5 0 0 1 5,5 v0 a5,5 0 0 1 -5,5 h0 a5,5 0 0 1 -5,-5 v0 a5,5 0 0 1 5,-5" clip-path="url(#satori_cp-id)" mask="url(#satori_om-id)"/><mask id="satori_om-id-3-6-1"><rect x="175" y="105" width="61" height="16" fill="#fff" mask="url(#satori_om-id)"/></mask><g mask="url(#satori_om-id)" clip-path="url(#satori_cp-id)"><path fill="#e0e0f0" d="M176.6 118L175.3 118L178.8 108.5L180.2 108.5L183.6 118L182.4 118L181.4 115.4L177.5 115.4L176.6 118ZM177.9 114.3L181.0 114.3L180.4 112.4Q180.2 111.9 179.9 111.1L179.9 111.1Q179.7 110.4 179.5 109.5L179.5 109.5Q179.2 110.5 179.0 111.1L179.0 111.1Q178.7 111.9 178.6 112.4L178.6 112.4L177.9 114.3ZM187.4 118.2L187.4 118.2Q186.7 118.2 186.1 117.9Q185.5 117.7 185.1 117.3Q184.8 116.9 184.7 116.3L184.7 116.3L185.7 116.0Q185.9 116.6 186.3 116.9Q186.7 117.1 187.4 117.1L187.4 117.1Q188.1 117.1 188.6 116.8Q189.0 116.5 189.0 116.1L189.0 116.1Q189.0 115.7 188.7 115.5Q188.5 115.2 188.0 115.1L188.0 115.1L186.8 114.8Q185.8 114.6 185.3 114.1Q184.9 113.6 184.9 112.9L184.9 112.9Q184.9 112.3 185.2 111.8Q185.6 111.3 186.1 111.1Q186.7 110.8 187.5 110.8L187.5 110.8Q188.2 110.8 188.7 111.0Q189.3 111.3 189.6 111.6Q189.9 112.0 190.1 112.5L190.1 112.5L189.0 112.8Q188.9 112.4 188.5 112.1Q188.2 111.8 187.5 111.8L187.5 111.8Q186.9 111.8 186.4 112.1Q186.0 112.4 186.0 112.8L186.0 112.8Q186.0 113.2 186.3 113.4Q186.6 113.7 187.2 113.8L187.2 113.8L188.3 114.1Q189.3 114.3 189.7 114.8Q190.2 115.3 190.2 116.0L190.2 116.0Q190.2 116.6 189.8 117.1Q189.5 117.6 188.8 117.9Q188.2 118.2 187.4 118.2ZM194.2 118.2L194.2 118.2Q193.5 118.2 192.9 117.9Q192.4 117.7 192.0 117.3Q191.6 116.9 191.5 116.3L191.5 116.3L192.6 116.0Q192.8 116.6 193.2 116.9Q193.6 117.1 194.2 117.1L194.2 117.1Q195.0 117.1 195.4 116.8Q195.9 116.5 195.9 116.1L195.9 116.1Q195.9 115.7 195.6 115.5Q195.3 115.2 194.8 115.1L194.8 115.1L193.6 114.8Q192.7 114.6 192.2 114.1Q191.7 113.6 191.7 112.9L191.7 112.9Q191.7 112.3 192.1 111.8Q192.4 111.3 193.0 111.1Q193.6 110.8 194.4 110.8L194.4 110.8Q195.1 110.8 195.6 111.0Q196.1 111.3 196.4 111.6Q196.8 112.0 196.9 112.5L196.9 112.5L195.9 112.8Q195.7 112.4 195.4 112.1Q195.1 111.8 194.4 111.8L194.4 111.8Q193.7 111.8 193.3 112.1Q192.9 112.4 192.9 112.8L192.9 112.8Q192.9 113.2 193.2 113.4Q193.5 113.7 194.1 113.8L194.1 113.8L195.2 114.1Q196.1 114.3 196.6 114.8Q197.0 115.3 197.0 116.0L197.0 116.0Q197.0 116.6 196.7 117.1Q196.3 117.6 195.7 117.9Q195.1 118.2 194.2 118.2ZM201.7 118.2L201.7 118.2Q200.7 118.2 199.9 117.7Q199.2 117.2 198.8 116.4Q198.4 115.6 198.4 114.5Q198.4 113.4 198.7 112.6Q199.1 111.8 199.9 111.3Q200.6 110.8 201.5 110.8L201.5 110.8Q202.1 110.8 202.7 111.0Q203.2 111.2 203.7 111.6Q204.1 112.0 204.4 112.7Q204.6 113.4 204.6 114.4L204.6 114.4L204.6 114.8L199.5 114.8Q199.5 115.5 199.8 116.0L199.8 116.0Q200.1 116.6 200.5 116.9Q201.0 117.1 201.7 117.1L201.7 117.1Q202.1 117.1 202.4 117.0Q202.8 116.9 203.0 116.7Q203.3 116.4 203.4 116.0L203.4 116.0L204.5 116.3Q204.4 116.9 204.0 117.3Q203.6 117.7 203.0 117.9Q202.4 118.2 201.7 118.2ZM199.5 113.9L199.5 113.9L203.5 113.9Q203.4 113.4 203.3 113.0L203.3 113.0Q203.1 112.4 202.6 112.1Q202.2 111.8 201.5 111.8Q200.9 111.8 200.4 112.1Q200.0 112.5 199.7 113.0L199.7 113.0Q199.5 113.4 199.5 113.9ZM207.4 118L206.3 118L206.3 110.9L207.4 110.9L207.4 112.2Q207.5 111.8 207.8 111.5L207.8 111.5Q208.1 111.2 208.5 111.0Q208.9 110.8 209.4 110.8L209.4 110.8Q210.2 110.8 210.6 111.3L210.6 111.3Q211.0 111.6 211.2 112.2L211.2 112.2Q211.3 111.9 211.6 111.6L211.6 111.6Q211.9 111.2 212.4 111.0Q212.9 110.8 213.4 110.8L213.4 110.8Q214.0 110.8 214.5 111.0Q215.1 111.3 215.4 111.8Q215.7 112.4 215.7 113.2L215.7 113.2L215.7 118L214.5 118L214.5 113.2Q214.5 112.5 214.1 112.1Q213.7 111.8 213.1 111.8L213.1 111.8Q212.6 111.8 212.3 112.0Q211.9 112.2 211.7 112.6Q211.5 112.9 211.5 113.4L211.5 113.4L211.5 118L210.4 118L210.4 113.1Q210.4 112.5 210.0 112.2Q209.6 111.8 209.0 111.8L209.0 111.8Q208.6 111.8 208.2 112.0Q207.9 112.2 207.6 112.6Q207.4 113.0 207.4 113.5L207.4 113.5L207.4 118ZM221.0 118.2L221.0 118.2Q220.3 118.2 219.9 117.9Q219.5 117.7 219.2 117.4Q219.0 117.1 218.9 116.9L218.9 116.9L218.8 116.9L218.8 118L217.7 118L217.7 108.5L218.8 108.5L218.8 112.0L218.9 112.0Q219.0 111.8 219.2 111.6Q219.4 111.3 219.9 111.0Q220.3 110.8 221.0 110.8L221.0 110.8Q221.8 110.8 222.5 111.3Q223.2 111.7 223.6 112.5Q224.0 113.3 224.0 114.5L224.0 114.5Q224.0 115.6 223.6 116.4Q223.2 117.3 222.5 117.7Q221.8 118.2 221.0 118.2ZM220.8 117.1L220.8 117.1Q221.5 117.1 221.9 116.8Q222.3 116.4 222.6 115.8Q222.8 115.2 222.8 114.5L222.8 114.5Q222.8 113.7 222.6 113.1Q222.4 112.5 221.9 112.2Q221.5 111.8 220.8 111.8L220.8 111.8Q220.1 111.8 219.7 112.2Q219.2 112.5 219.0 113.1Q218.8 113.7 218.8 114.5L218.8 114.5Q218.8 115.2 219.0 115.8Q219.2 116.5 219.7 116.8Q220.1 117.1 220.8 117.1ZM225.6 108.5L226.8 108.5L226.8 118L225.6 118L225.6 108.5ZM228.7 120.6L228.7 120.6L228.9 119.6L229.1 119.6Q229.4 119.7 229.7 119.7Q230.0 119.6 230.2 119.4Q230.4 119.1 230.6 118.6L230.6 118.6L230.8 118.0L228.1 110.9L229.4 110.9L230.9 115.1Q231.1 115.8 231.3 116.4L231.3 116.4Q231.3 116.7 231.4 117.0L231.4 117.0Q231.5 116.7 231.6 116.4L231.6 116.4Q231.7 115.8 232.0 115.1L232.0 115.1L233.5 110.9L234.7 110.9L231.6 119.1Q231.4 119.6 231.1 120.0Q230.8 120.4 230.4 120.5Q230.0 120.7 229.5 120.7L229.5 120.7Q229.2 120.7 229.0 120.7Q228.7 120.6 228.7 120.6Z "/></g><mask id="satori_om-id-3-6-2"><rect x="242" y="107" width="18" height="13" fill="#fff" mask="url(#satori_om-id)"/></mask><g mask="url(#satori_om-id)" clip-path="url(#satori_cp-id)"><path fill="#6a6a8a" d="M245.2 118.1L245.2 118.1Q244.5 118.1 243.9 117.8Q243.4 117.6 243.0 117.1Q242.7 116.6 242.7 116.0L242.7 116.0L243.7 116.0Q243.7 116.3 243.9 116.6Q244.1 116.9 244.5 117.1Q244.8 117.2 245.2 117.2L245.2 117.2Q245.7 117.2 246.1 117.0Q246.4 116.8 246.7 116.4Q246.9 116.0 246.9 115.5L246.9 115.5Q246.9 114.9 246.6 114.5Q246.4 114.1 246.0 113.9Q245.6 113.7 245.1 113.7L245.1 113.7Q244.8 113.7 244.4 113.8Q244.0 113.9 243.8 114.1L243.8 114.1L242.8 114.0L243.3 110.0L247.5 110.0L247.5 110.9L244.1 110.9L243.9 113.2L243.9 113.2Q244.2 113.0 244.5 112.9Q244.9 112.8 245.3 112.8L245.3 112.8Q245.9 112.8 246.3 113.0Q246.8 113.2 247.1 113.5Q247.5 113.9 247.7 114.4Q247.9 114.9 247.9 115.4L247.9 115.4Q247.9 116.2 247.5 116.8Q247.2 117.4 246.6 117.8Q246.0 118.1 245.2 118.1ZM251.3 113.5L251.3 113.5Q250.8 113.5 250.5 113.3Q250.1 113.1 249.9 112.7Q249.8 112.3 249.8 111.9L249.8 111.9L249.8 111.5Q249.8 111.0 249.9 110.7Q250.1 110.3 250.5 110.1Q250.8 109.9 251.3 109.9L251.3 109.9Q251.9 109.9 252.2 110.1Q252.5 110.3 252.7 110.7Q252.9 111.0 252.9 111.5L252.9 111.5L252.9 111.9Q252.9 112.3 252.7 112.7Q252.5 113.1 252.2 113.3Q251.8 113.5 251.3 113.5ZM251.3 112.8L251.3 112.8Q251.7 112.8 251.9 112.6Q252.1 112.3 252.1 111.9L252.1 111.9L252.1 111.5Q252.1 111.1 251.9 110.9Q251.8 110.6 251.3 110.6L251.3 110.6Q250.9 110.6 250.8 110.9Q250.6 111.1 250.6 111.5L250.6 111.5L250.6 111.9Q250.6 112.3 250.8 112.6Q250.9 112.8 251.3 112.8ZM256.5 118.2L256.5 118.2Q256.0 118.2 255.7 117.9Q255.3 117.7 255.1 117.3Q255.0 117.0 255.0 116.5L255.0 116.5L255.0 116.1Q255.0 115.7 255.1 115.3Q255.3 114.9 255.7 114.7Q256.0 114.5 256.5 114.5L256.5 114.5Q257.0 114.5 257.4 114.7Q257.7 114.9 257.9 115.3Q258.1 115.7 258.1 116.1L258.1 116.1L258.1 116.5Q258.1 117.0 257.9 117.3Q257.7 117.7 257.4 117.9Q257.0 118.2 256.5 118.2ZM256.5 117.5L256.5 117.5Q256.9 117.5 257.1 117.2Q257.3 116.9 257.3 116.5L257.3 116.5L257.3 116.1Q257.3 115.8 257.1 115.5Q256.9 115.2 256.5 115.2L256.5 115.2Q256.1 115.2 256.0 115.5Q255.8 115.8 255.8 116.1L255.8 116.1L255.8 116.5Q255.8 116.9 255.9 117.2Q256.1 117.5 256.5 117.5ZM251.6 118L250.7 118L256.2 110.0L257.1 110.0L251.6 118Z "/></g><mask id="satori_om-id-3-7"><rect x="293" y="105" width="120" height="16" fill="#fff" mask="url(#satori_om-id)"/></mask><mask id="satori_ms-id-3-7-0-0" maskUnits="userSpaceOnUse"><rect x="0" y="0" width="800" height="180" fill="#fff"/><path x="293" y="108" width="10" height="10" fill="#000"  stroke-width="0" d="M298,108 h0 a5,5 0 0 1 5,5 v0 a5,5 0 0 1 -5,5 h0 a5,5 0 0 1 -5,-5 v0 a5,5 0 0 1 5,-5" clip-path="url(#satori_cp-id)" mask="url(#satori_om-id)"/></mask><defs><filter id="satori_s-id-3-7-0-0" x="-90%" y="-90%" width="280%" height="280%"><feGaussianBlur stdDeviation="3" result="b"/><feFlood flood-color="#3178c640" in="SourceGraphic" result="f"/><feComposite in="f" in2="b" operator="in"/></filter></defs><g mask="url(#satori_ms-id-3-7-0-0)" filter="url(#satori_s-id-3-7-0-0)" opacity="1"><path x="293" y="108" width="10" height="10" fill="#fff" stroke="#fff" stroke-width="0" d="M298,108 h0 a5,5 0 0 1 5,5 v0 a5,5 0 0 1 -5,5 h0 a5,5 0 0 1 -5,-5 v0 a5,5 0 0 1 5,-5" clip-path="url(#satori_cp-id)" mask="url(#satori_om-id)"/></g><mask id="satori_om-id-3-7-0"><rect x="293" y="108" width="10" height="10" fill="#fff" mask="url(#satori_om-id)"/></mask><path x="293" y="108" width="10" height="10" fill="#3178c6" d="M298,108 h0 a5,5 0 0 1 5,5 v0 a5,5 0 0 1 -5,5 h0 a5,5 0 0 1 -5,-5 v0 a5,5 0 0 1 5,-5" clip-path="url(#satori_cp-id)" mask="url(#satori_om-id)"/><mask id="satori_om-id-3-7-1"><rect x="309" y="105" width="68" height="16" fill="#fff" mask="url(#satori_om-id)"/></mask><g mask="url(#satori_om-id)" clip-path="url(#satori_cp-id)"><path fill="#e0e0f0" d="M312.6 109.6L309.6 109.6L309.6 108.5L316.8 108.5L316.8 109.6L313.8 109.6L313.8 118L312.6 118L312.6 109.6ZM318.3 120.6L318.3 120.6L318.6 119.6L318.7 119.6Q319.0 119.7 319.3 119.7Q319.6 119.6 319.8 119.4Q320.1 119.1 320.2 118.6L320.2 118.6L320.4 118.0L317.7 110.9L319.0 110.9L320.5 115.1Q320.7 115.8 320.9 116.4L320.9 116.4Q321.0 116.7 321.0 117.0L321.0 117.0Q321.1 116.7 321.2 116.4L321.2 116.4Q321.4 115.8 321.6 115.1L321.6 115.1L323.1 110.9L324.4 110.9L321.2 119.1Q321.0 119.6 320.7 120.0Q320.4 120.4 320.0 120.5Q319.6 120.7 319.1 120.7L319.1 120.7Q318.8 120.7 318.6 120.7Q318.4 120.6 318.3 120.6ZM326.8 120.7L325.7 120.7L325.7 110.9L326.8 110.9L326.8 112.0L326.9 112.0Q327.1 111.8 327.3 111.6Q327.5 111.3 327.9 111.0Q328.3 110.8 329.0 110.8L329.0 110.8Q329.9 110.8 330.6 111.3Q331.2 111.7 331.6 112.5Q332.0 113.3 332.0 114.5L332.0 114.5Q332.0 115.6 331.6 116.4Q331.2 117.3 330.6 117.7Q329.9 118.2 329.0 118.2L329.0 118.2Q328.3 118.2 327.9 117.9Q327.5 117.7 327.3 117.4Q327.1 117.1 326.9 116.9L326.9 116.9L326.8 116.9L326.8 120.7ZM328.8 117.1L328.8 117.1Q329.5 117.1 329.9 116.8Q330.4 116.4 330.6 115.8Q330.8 115.2 330.8 114.5L330.8 114.5Q330.8 113.7 330.6 113.1Q330.4 112.5 329.9 112.2Q329.5 111.8 328.8 111.8L328.8 111.8Q328.2 111.8 327.7 112.2Q327.3 112.5 327.1 113.1Q326.8 113.7 326.8 114.5L326.8 114.5Q326.8 115.2 327.1 115.8Q327.3 116.5 327.7 116.8Q328.2 117.1 328.8 117.1ZM336.6 118.2L336.6 118.2Q335.6 118.2 334.9 117.7Q334.1 117.2 333.7 116.4Q333.3 115.6 333.3 114.5Q333.3 113.4 333.7 112.6Q334.1 111.8 334.8 111.3Q335.5 110.8 336.5 110.8L336.5 110.8Q337.1 110.8 337.6 111.0Q338.2 111.2 338.6 111.6Q339.1 112.0 339.3 112.7Q339.6 113.4 339.6 114.4L339.6 114.4L339.6 114.8L334.5 114.8Q334.5 115.5 334.7 116.0L334.7 116.0Q335.0 116.6 335.5 116.9Q336.0 117.1 336.7 117.1L336.7 117.1Q337.1 117.1 337.4 117.0Q337.8 116.9 338.0 116.7Q338.3 116.4 338.4 116.0L338.4 116.0L339.5 116.3Q339.3 116.9 338.9 117.3Q338.5 117.7 338.0 117.9Q337.4 118.2 336.6 118.2ZM334.5 113.9L334.5 113.9L338.4 113.9Q338.4 113.4 338.2 113.0L338.2 113.0Q338.0 112.4 337.6 112.1Q337.2 111.8 336.5 111.8Q335.9 111.8 335.4 112.1Q335.0 112.5 334.7 113.0L334.7 113.0Q334.5 113.4 334.5 113.9ZM344.4 118.2L344.4 118.2Q343.4 118.2 342.6 117.8Q341.9 117.5 341.5 116.9Q341.0 116.3 341.0 115.5L341.0 115.5L342.2 115.5Q342.3 116.1 342.6 116.4Q342.9 116.7 343.4 116.9Q343.9 117.1 344.4 117.1L344.4 117.1Q345.0 117.1 345.6 116.9Q346.1 116.7 346.4 116.3Q346.7 115.9 346.7 115.4L346.7 115.4Q346.7 114.9 346.4 114.7Q346.2 114.4 345.7 114.2Q345.3 114.0 344.8 113.9L344.8 113.9L343.7 113.5Q342.5 113.2 341.9 112.6Q341.2 112.0 341.2 111.1L341.2 111.1Q341.2 110.3 341.7 109.7Q342.1 109.1 342.8 108.7Q343.6 108.4 344.5 108.4L344.5 108.4Q345.4 108.4 346.1 108.7Q346.9 109.1 347.3 109.6Q347.7 110.2 347.7 110.9L347.7 110.9L346.5 110.9Q346.5 110.2 345.9 109.9Q345.3 109.5 344.5 109.5L344.5 109.5Q343.8 109.5 343.4 109.7Q342.9 109.9 342.7 110.2Q342.4 110.6 342.4 111.0L342.4 111.0Q342.4 111.5 342.7 111.8Q343.0 112.1 343.5 112.3Q343.9 112.5 344.2 112.5L344.2 112.5L345.2 112.8Q345.5 112.9 346.0 113.1Q346.5 113.3 346.9 113.6Q347.3 113.9 347.6 114.3Q347.8 114.8 347.8 115.4L347.8 115.4Q347.8 116.2 347.4 116.8Q347.0 117.4 346.3 117.8Q345.5 118.2 344.4 118.2ZM352.5 118.2L352.5 118.2Q351.5 118.2 350.8 117.7Q350.1 117.2 349.6 116.4Q349.2 115.6 349.2 114.5L349.2 114.5Q349.2 113.4 349.6 112.6Q350.1 111.7 350.8 111.3Q351.5 110.8 352.5 110.8L352.5 110.8Q353.0 110.8 353.4 110.9Q353.9 111.1 354.3 111.3Q354.7 111.6 354.9 111.9Q355.2 112.3 355.3 112.8L355.3 112.8L354.2 113.1Q354.2 112.8 354.0 112.6Q353.9 112.4 353.6 112.2Q353.4 112.0 353.1 111.9Q352.8 111.8 352.5 111.8L352.5 111.8Q351.8 111.8 351.3 112.2Q350.8 112.6 350.6 113.2Q350.4 113.8 350.4 114.5L350.4 114.5Q350.4 115.2 350.6 115.8Q350.8 116.4 351.3 116.8Q351.8 117.1 352.5 117.1L352.5 117.1Q352.8 117.1 353.1 117.0Q353.4 116.9 353.7 116.8Q353.9 116.6 354.0 116.3Q354.2 116.1 354.3 115.8L354.3 115.8L355.4 116.1Q355.2 116.6 355.0 117.0Q354.7 117.4 354.3 117.6Q353.9 117.9 353.5 118.0Q353.0 118.2 352.5 118.2ZM358.1 118L357.0 118L357.0 110.9L358.1 110.9L358.1 112.0L358.2 112.0Q358.4 111.5 358.9 111.1Q359.4 110.8 360.0 110.8L360.0 110.8Q360.2 110.8 360.3 110.8Q360.5 110.8 360.6 110.8L360.6 110.8L360.6 112.0Q360.6 112.0 360.4 111.9Q360.1 111.9 359.9 111.9L359.9 111.9Q359.4 111.9 359.0 112.1Q358.6 112.3 358.4 112.7Q358.1 113.1 358.1 113.6L358.1 113.6L358.1 118ZM363.0 118L361.9 118L361.9 110.9L363.0 110.9L363.0 118ZM362.5 109.7L362.5 109.7Q362.2 109.7 361.9 109.5Q361.7 109.3 361.7 109.0L361.7 109.0Q361.7 108.7 361.9 108.4Q362.2 108.2 362.5 108.2L362.5 108.2Q362.8 108.2 363.0 108.4Q363.3 108.7 363.3 109.0L363.3 109.0Q363.3 109.3 363.0 109.5Q362.8 109.7 362.5 109.7ZM366.2 120.7L365.0 120.7L365.0 110.9L366.2 110.9L366.2 112.0L366.3 112.0Q366.4 111.8 366.6 111.6Q366.8 111.3 367.2 111.0Q367.6 110.8 368.3 110.8L368.3 110.8Q369.2 110.8 369.9 111.3Q370.6 111.7 371.0 112.5Q371.3 113.3 371.3 114.5L371.3 114.5Q371.3 115.6 371.0 116.4Q370.6 117.3 369.9 117.7Q369.2 118.2 368.3 118.2L368.3 118.2Q367.7 118.2 367.3 117.9Q366.8 117.7 366.6 117.4Q366.4 117.1 366.3 116.9L366.3 116.9L366.2 116.9L366.2 120.7ZM368.2 117.1L368.2 117.1Q368.8 117.1 369.3 116.8Q369.7 116.4 370.0 115.8Q370.2 115.2 370.2 114.5L370.2 114.5Q370.2 113.7 370.0 113.1Q369.7 112.5 369.3 112.2Q368.8 111.8 368.2 111.8L368.2 111.8Q367.5 111.8 367.1 112.2Q366.6 112.5 366.4 113.1Q366.2 113.7 366.2 114.5L366.2 114.5Q366.2 115.2 366.4 115.8Q366.6 116.5 367.1 116.8Q367.5 117.1 368.2 117.1ZM374.3 110.9L375.8 110.9L375.8 111.9L374.3 111.9L374.3 116.2Q374.3 116.6 374.5 116.9Q374.7 117.1 375.2 117.1L375.2 117.1Q375.3 117.1 375.5 117.0Q375.6 117.0 375.8 117.0L375.8 117.0L376.0 118.0Q375.8 118.0 375.6 118.1Q375.4 118.1 375.1 118.1L375.1 118.1Q374.2 118.1 373.7 117.6Q373.2 117.1 373.2 116.2L373.2 116.2L373.2 111.9L372.1 111.9L372.1 110.9L373.2 110.9L373.2 109.2L374.3 109.2L374.3 110.9Z "/></g><mask id="satori_om-id-3-7-2"><rect x="383" y="107" width="18" height="13" fill="#fff" mask="url(#satori_om-id)"/></mask><g mask="url(#satori_om-id)" clip-path="url(#satori_cp-id)"><path fill="#6a6a8a" d="M386.4 118.1L386.4 118.1Q385.6 118.1 385.0 117.8Q384.4 117.6 384.1 117.1Q383.7 116.6 383.7 116.0L383.7 116.0L384.7 116.0Q384.7 116.4 385.0 116.6Q385.2 116.9 385.6 117.1Q385.9 117.2 386.4 117.2L386.4 117.2Q386.9 117.2 387.3 117.0Q387.7 116.9 387.9 116.5Q388.1 116.2 388.1 115.8L388.1 115.8Q388.1 115.4 387.9 115.0Q387.7 114.7 387.3 114.5Q386.9 114.3 386.3 114.3L386.3 114.3L385.6 114.3L385.6 113.5L386.3 113.5Q386.7 113.5 387.1 113.3Q387.5 113.1 387.7 112.8Q387.9 112.5 387.9 112.1L387.9 112.1Q387.9 111.7 387.7 111.4Q387.5 111.1 387.2 110.9Q386.9 110.8 386.4 110.8L386.4 110.8Q386.0 110.8 385.7 110.9Q385.3 111.1 385.1 111.3Q384.8 111.6 384.8 112.0L384.8 112.0L383.8 112.0Q383.9 111.4 384.2 110.9Q384.6 110.4 385.2 110.2Q385.7 109.9 386.4 109.9L386.4 109.9Q387.2 109.9 387.7 110.2Q388.3 110.5 388.6 111.0Q388.8 111.5 388.8 112.0L388.8 112.0Q388.8 112.7 388.5 113.2Q388.1 113.7 387.5 113.8L387.5 113.8L387.5 113.9Q388.0 114.0 388.4 114.3Q388.8 114.5 388.9 114.9Q389.1 115.3 389.1 115.8L389.1 115.8Q389.1 116.5 388.8 117.0Q388.4 117.5 387.8 117.8Q387.2 118.1 386.4 118.1ZM392.6 113.5L392.6 113.5Q392.1 113.5 391.7 113.3Q391.4 113.1 391.2 112.7Q391.0 112.3 391.0 111.9L391.0 111.9L391.0 111.5Q391.0 111.0 391.2 110.7Q391.4 110.3 391.7 110.1Q392.1 109.9 392.6 109.9L392.6 109.9Q393.1 109.9 393.5 110.1Q393.8 110.3 394.0 110.7Q394.2 111.0 394.2 111.5L394.2 111.5L394.2 111.9Q394.2 112.3 394.0 112.7Q393.8 113.1 393.5 113.3Q393.1 113.5 392.6 113.5ZM392.6 112.8L392.6 112.8Q393.0 112.8 393.2 112.6Q393.3 112.3 393.3 111.9L393.3 111.9L393.3 111.5Q393.3 111.1 393.2 110.9Q393.0 110.6 392.6 110.6L392.6 110.6Q392.2 110.6 392.0 110.9Q391.9 111.1 391.9 111.5L391.9 111.5L391.9 111.9Q391.9 112.3 392.0 112.6Q392.2 112.8 392.6 112.8ZM397.8 118.2L397.8 118.2Q397.3 118.2 396.9 117.9Q396.6 117.7 396.4 117.3Q396.2 117.0 396.2 116.5L396.2 116.5L396.2 116.1Q396.2 115.7 396.4 115.3Q396.6 114.9 396.9 114.7Q397.3 114.5 397.8 114.5L397.8 114.5Q398.3 114.5 398.7 114.7Q399.0 114.9 399.2 115.3Q399.4 115.7 399.4 116.1L399.4 116.1L399.4 116.5Q399.4 117.0 399.2 117.3Q399.0 117.7 398.7 117.9Q398.3 118.2 397.8 118.2ZM397.8 117.5L397.8 117.5Q398.2 117.5 398.4 117.2Q398.5 116.9 398.5 116.5L398.5 116.5L398.5 116.1Q398.5 115.8 398.4 115.5Q398.2 115.2 397.8 115.2L397.8 115.2Q397.4 115.2 397.2 115.5Q397.0 115.8 397.0 116.1L397.0 116.1L397.0 116.5Q397.0 116.9 397.2 117.2Q397.4 117.5 397.8 117.5ZM392.9 118L392.0 118L397.5 110.0L398.4 110.0L392.9 118Z "/></g><mask id="satori_om-id-3-8"><rect x="427" y="105" width="120" height="16" fill="#fff" mask="url(#satori_om-id)"/></mask><mask id="satori_ms-id-3-8-0-0" maskUnits="userSpaceOnUse"><rect x="0" y="0" width="800" height="180" fill="#fff"/><path x="427" y="108" width="10" height="10" fill="#000"  stroke-width="0" d="M432,108 h0 a5,5 0 0 1 5,5 v0 a5,5 0 0 1 -5,5 h0 a5,5 0 0 1 -5,-5 v0 a5,5 0 0 1 5,-5" clip-path="url(#satori_cp-id)" mask="url(#satori_om-id)"/></mask><defs><filter id="satori_s-id-3-8-0-0" x="-90%" y="-90%" width="280%" height="280%"><feGaussianBlur stdDeviation="3" result="b"/><feFlood flood-color="#e34c2640" in="SourceGraphic" result="f"/><feComposite in="f" in2="b" operator="in"/></filter></defs><g mask="url(#satori_ms-id-3-8-0-0)" filter="url(#satori_s-id-3-8-0-0)" opacity="1"><path x="427" y="108" width="10" height="10" fill="#fff" stroke="#fff" stroke-width="0" d="M432,108 h0 a5,5 0 0 1 5,5 v0 a5,5 0 0 1 -5,5 h0 a5,5 0 0 1 -5,-5 v0 a5,5 0 0 1 5,-5" clip-path="url(#satori_cp-id)" mask="url(#satori_om-id)"/></g><mask id="satori_om-id-3-8-0"><rect x="427" y="108" width="10" height="10" fill="#fff" mask="url(#satori_om-id)"/></mask><path x="427" y="108" width="10" height="10" fill="#e34c26" d="M432,108 h0 a5,5 0 0 1 5,5 v0 a5,5 0 0 1 -5,5 h0 a5,5 0 0 1 -5,-5 v0 a5,5 0 0 1 5,-5" clip-path="url(#satori_cp-id)" mask="url(#satori_om-id)"/><mask id="satori_om-id-3-8-1"><rect x="443" y="105" width="38" height="16" fill="#fff" mask="url(#satori_om-id)"/></mask><g mask="url(#satori_om-id)" clip-path="url(#satori_cp-id)"><path fill="#e0e0f0" d="M445.3 118L444.1 118L444.1 108.5L445.3 108.5L445.3 112.6L450.3 112.6L450.3 108.5L451.5 108.5L451.5 118L450.3 118L450.3 113.7L445.3 113.7L445.3 118ZM456.3 109.6L453.3 109.6L453.3 108.5L460.4 108.5L460.4 109.6L457.5 109.6L457.5 118L456.3 118L456.3 109.6ZM463.3 118L462.2 118L462.2 108.5L463.9 108.5L466.2 114.5Q466.3 114.7 466.4 115.0Q466.5 115.3 466.6 115.7Q466.8 116.1 466.9 116.4L466.9 116.4Q466.9 116.6 466.9 116.7L466.9 116.7Q467.0 116.6 467.0 116.5L467.0 116.5Q467.1 116.1 467.2 115.7Q467.3 115.4 467.4 115.0Q467.6 114.7 467.6 114.5L467.6 114.5L469.9 108.5L471.7 108.5L471.7 118L470.5 118L470.5 112.6Q470.5 112.3 470.5 111.9Q470.5 111.6 470.5 111.1Q470.5 110.7 470.5 110.3L470.5 110.3Q470.5 110.1 470.5 109.8L470.5 109.8Q470.4 110.1 470.3 110.4L470.3 110.4Q470.2 110.8 470.0 111.2Q469.9 111.7 469.8 112.0Q469.6 112.4 469.6 112.6L469.6 112.6L467.4 118L466.4 118L464.3 112.6Q464.2 112.4 464.0 112.0Q463.9 111.7 463.8 111.3Q463.6 110.9 463.5 110.4L463.5 110.4Q463.4 110.1 463.3 109.8L463.3 109.8Q463.3 110.0 463.3 110.2L463.3 110.2Q463.3 110.7 463.3 111.1Q463.3 111.5 463.3 111.9Q463.3 112.3 463.3 112.6L463.3 112.6L463.3 118ZM479.5 118L473.9 118L473.9 108.5L475.1 108.5L475.1 116.9L479.5 116.9L479.5 118Z "/></g><mask id="satori_om-id-3-8-2"><rect x="487" y="107" width="18" height="13" fill="#fff" mask="url(#satori_om-id)"/></mask><g mask="url(#satori_om-id)" clip-path="url(#satori_cp-id)"><path fill="#6a6a8a" d="M490.4 118.1L490.4 118.1Q489.6 118.1 489.0 117.8Q488.4 117.6 488.1 117.1Q487.7 116.6 487.7 116.0L487.7 116.0L488.7 116.0Q488.7 116.4 489.0 116.6Q489.2 116.9 489.6 117.1Q489.9 117.2 490.4 117.2L490.4 117.2Q490.9 117.2 491.3 117.0Q491.7 116.9 491.9 116.5Q492.1 116.2 492.1 115.8L492.1 115.8Q492.1 115.4 491.9 115.0Q491.7 114.7 491.3 114.5Q490.9 114.3 490.3 114.3L490.3 114.3L489.6 114.3L489.6 113.5L490.3 113.5Q490.7 113.5 491.1 113.3Q491.5 113.1 491.7 112.8Q491.9 112.5 491.9 112.1L491.9 112.1Q491.9 111.7 491.7 111.4Q491.5 111.1 491.2 110.9Q490.9 110.8 490.4 110.8L490.4 110.8Q490.0 110.8 489.7 110.9Q489.3 111.1 489.1 111.3Q488.8 111.6 488.8 112.0L488.8 112.0L487.8 112.0Q487.9 111.4 488.2 110.9Q488.6 110.4 489.2 110.2Q489.7 109.9 490.4 109.9L490.4 109.9Q491.2 109.9 491.7 110.2Q492.3 110.5 492.6 111.0Q492.8 111.5 492.8 112.0L492.8 112.0Q492.8 112.7 492.5 113.2Q492.1 113.7 491.5 113.8L491.5 113.8L491.5 113.9Q492.0 114.0 492.4 114.3Q492.8 114.5 492.9 114.9Q493.1 115.3 493.1 115.8L493.1 115.8Q493.1 116.5 492.8 117.0Q492.4 117.5 491.8 117.8Q491.2 118.1 490.4 118.1ZM496.6 113.5L496.6 113.5Q496.1 113.5 495.7 113.3Q495.4 113.1 495.2 112.7Q495.0 112.3 495.0 111.9L495.0 111.9L495.0 111.5Q495.0 111.0 495.2 110.7Q495.4 110.3 495.7 110.1Q496.1 109.9 496.6 109.9L496.6 109.9Q497.1 109.9 497.5 110.1Q497.8 110.3 498.0 110.7Q498.2 111.0 498.2 111.5L498.2 111.5L498.2 111.9Q498.2 112.3 498.0 112.7Q497.8 113.1 497.5 113.3Q497.1 113.5 496.6 113.5ZM496.6 112.8L496.6 112.8Q497.0 112.8 497.2 112.6Q497.3 112.3 497.3 111.9L497.3 111.9L497.3 111.5Q497.3 111.1 497.2 110.9Q497.0 110.6 496.6 110.6L496.6 110.6Q496.2 110.6 496.0 110.9Q495.9 111.1 495.9 111.5L495.9 111.5L495.9 111.9Q495.9 112.3 496.0 112.6Q496.2 112.8 496.6 112.8ZM501.8 118.2L501.8 118.2Q501.3 118.2 500.9 117.9Q500.6 117.7 500.4 117.3Q500.2 117.0 500.2 116.5L500.2 116.5L500.2 116.1Q500.2 115.7 500.4 115.3Q500.6 114.9 500.9 114.7Q501.3 114.5 501.8 114.5L501.8 114.5Q502.3 114.5 502.7 114.7Q503.0 114.9 503.2 115.3Q503.4 115.7 503.4 116.1L503.4 116.1L503.4 116.5Q503.4 117.0 503.2 117.3Q503.0 117.7 502.7 117.9Q502.3 118.2 501.8 118.2ZM501.8 117.5L501.8 117.5Q502.2 117.5 502.4 117.2Q502.5 116.9 502.5 116.5L502.5 116.5L502.5 116.1Q502.5 115.8 502.4 115.5Q502.2 115.2 501.8 115.2L501.8 115.2Q501.4 115.2 501.2 115.5Q501.0 115.8 501.0 116.1L501.0 116.1L501.0 116.5Q501.0 116.9 501.2 117.2Q501.4 117.5 501.8 117.5ZM496.9 118L496.0 118L501.5 110.0L502.4 110.0L496.9 118Z "/></g><mask id="satori_om-id-3-9"><rect x="561" y="105" width="120" height="16" fill="#fff" mask="url(#satori_om-id)"/></mask><mask id="satori_ms-id-3-9-0-0" maskUnits="userSpaceOnUse"><rect x="0" y="0" width="800" height="180" fill="#fff"/><path x="561" y="108" width="10" height="10" fill="#000"  stroke-width="0" d="M566,108 h0 a5,5 0 0 1 5,5 v0 a5,5 0 0 1 -5,5 h0 a5,5 0 0 1 -5,-5 v0 a5,5 0 0 1 5,-5" clip-path="url(#satori_cp-id)" mask="url(#satori_om-id)"/></mask><defs><filter id="satori_s-id-3-9-0-0" x="-90%" y="-90%" width="280%" height="280%"><feGaussianBlur stdDeviation="3" result="b"/><feFlood flood-color="#f1e05a40" in="SourceGraphic" result="f"/><feComposite in="f" in2="b" operator="in"/></filter></defs><g mask="url(#satori_ms-id-3-9-0-0)" filter="url(#satori_s-id-3-9-0-0)" opacity="1"><path x="561" y="108" width="10" height="10" fill="#fff" stroke="#fff" stroke-width="0" d="M566,108 h0 a5,5 0 0 1 5,5 v0 a5,5 0 0 1 -5,5 h0 a5,5 0 0 1 -5,-5 v0 a5,5 0 0 1 5,-5" clip-path="url(#satori_cp-id)" mask="url(#satori_om-id)"/></g><mask id="satori_om-id-3-9-0"><rect x="561" y="108" width="10" height="10" fill="#fff" mask="url(#satori_om-id)"/></mask><path x="561" y="108" width="10" height="10" fill="#f1e05a" d="M566,108 h0 a5,5 0 0 1 5,5 v0 a5,5 0 0 1 -5,5 h0 a5,5 0 0 1 -5,-5 v0 a5,5 0 0 1 5,-5" clip-path="url(#satori_cp-id)" mask="url(#satori_om-id)"/><mask id="satori_om-id-3-9-1"><rect x="577" y="105" width="66" height="16" fill="#fff" mask="url(#satori_om-id)"/></mask><g mask="url(#satori_om-id)" clip-path="url(#satori_cp-id)"><path fill="#e0e0f0" d="M580.5 118.1L580.5 118.1Q579.2 118.1 578.4 117.4Q577.6 116.7 577.6 115.3L577.6 115.3L577.6 114.8L578.8 114.8L578.8 115.3Q578.8 116.2 579.3 116.6Q579.7 117.1 580.5 117.1L580.5 117.1Q581.2 117.1 581.6 116.6Q582.1 116.2 582.1 115.3L582.1 115.3L582.1 108.5L583.3 108.5L583.3 115.3Q583.3 116.7 582.5 117.4Q581.7 118.1 580.5 118.1ZM587.4 118.2L587.4 118.2Q586.7 118.2 586.2 117.9Q585.6 117.7 585.3 117.2Q585.0 116.7 585.0 116.0L585.0 116.0Q585.0 115.4 585.2 115.0Q585.5 114.6 585.9 114.4Q586.3 114.2 586.8 114.1Q587.3 114.0 587.8 113.9L587.8 113.9Q588.4 113.8 588.8 113.8Q589.2 113.7 589.4 113.6Q589.6 113.5 589.6 113.2L589.6 113.2L589.6 113.2Q589.6 112.8 589.4 112.5Q589.2 112.1 588.9 112.0Q588.6 111.8 588.1 111.8L588.1 111.8Q587.6 111.8 587.2 112.0Q586.9 112.1 586.6 112.4Q586.4 112.6 586.3 112.9L586.3 112.9L585.2 112.5Q585.5 111.8 585.9 111.5Q586.4 111.1 587.0 111.0Q587.5 110.8 588.1 110.8L588.1 110.8Q588.4 110.8 588.9 110.9Q589.3 111.0 589.7 111.2Q590.2 111.5 590.4 112.0Q590.7 112.5 590.7 113.3L590.7 113.3L590.7 118L589.6 118L589.6 117.0L589.5 117.0Q589.4 117.3 589.1 117.5Q588.9 117.8 588.4 118.0Q588.0 118.2 587.4 118.2ZM587.6 117.2L587.6 117.2Q588.2 117.2 588.7 116.9Q589.1 116.7 589.3 116.3Q589.6 115.9 589.6 115.4L589.6 115.4L589.6 114.5Q589.5 114.5 589.3 114.6Q589.0 114.7 588.7 114.7Q588.4 114.8 588.1 114.8Q587.9 114.8 587.7 114.9L587.7 114.9Q587.3 114.9 586.9 115.0Q586.6 115.2 586.4 115.4Q586.1 115.6 586.1 116.0L586.1 116.0Q586.1 116.4 586.3 116.7Q586.5 116.9 586.9 117.0Q587.2 117.2 587.6 117.2ZM596.0 118L594.8 118L592.1 110.9L593.3 110.9L594.8 115.1Q595.1 115.8 595.2 116.4L595.2 116.4Q595.3 116.7 595.4 117.0L595.4 117.0Q595.4 116.7 595.5 116.4L595.5 116.4Q595.7 115.8 595.9 115.1L595.9 115.1L597.4 110.9L598.7 110.9L596.0 118ZM602.0 118.2L602.0 118.2Q601.3 118.2 600.8 117.9Q600.2 117.7 599.9 117.2Q599.6 116.7 599.6 116.0L599.6 116.0Q599.6 115.4 599.8 115.0Q600.1 114.6 600.5 114.4Q600.9 114.2 601.4 114.1Q601.9 114.0 602.4 113.9L602.4 113.9Q603.0 113.8 603.4 113.8Q603.8 113.7 604.0 113.6Q604.2 113.5 604.2 113.2L604.2 113.2L604.2 113.2Q604.2 112.8 604.0 112.5Q603.9 112.1 603.5 112.0Q603.2 111.8 602.7 111.8L602.7 111.8Q602.2 111.8 601.8 112.0Q601.5 112.1 601.2 112.4Q601.0 112.6 600.9 112.9L600.9 112.9L599.8 112.5Q600.1 111.8 600.5 111.5Q601.0 111.1 601.6 111.0Q602.1 110.8 602.7 110.8L602.7 110.8Q603.0 110.8 603.5 110.9Q603.9 111.0 604.3 111.2Q604.8 111.5 605.0 112.0Q605.3 112.5 605.3 113.3L605.3 113.3L605.3 118L604.2 118L604.2 117.0L604.1 117.0Q604.0 117.3 603.7 117.5Q603.5 117.8 603.0 118.0Q602.6 118.2 602.0 118.2ZM602.2 117.2L602.2 117.2Q602.8 117.2 603.3 116.9Q603.7 116.7 604.0 116.3Q604.2 115.9 604.2 115.4L604.2 115.4L604.2 114.5Q604.1 114.5 603.9 114.6Q603.6 114.7 603.3 114.7Q603.0 114.8 602.8 114.8Q602.5 114.8 602.3 114.9L602.3 114.9Q601.9 114.9 601.5 115.0Q601.2 115.2 601.0 115.4Q600.7 115.6 600.7 116.0L600.7 116.0Q600.7 116.4 600.9 116.7Q601.1 116.9 601.5 117.0Q601.8 117.2 602.2 117.2ZM610.5 118.2L610.5 118.2Q609.5 118.2 608.7 117.8Q608.0 117.5 607.5 116.9Q607.1 116.3 607.1 115.5L607.1 115.5L608.3 115.5Q608.4 116.1 608.7 116.4Q609.0 116.7 609.5 116.9Q609.9 117.1 610.5 117.1L610.5 117.1Q611.1 117.1 611.6 116.9Q612.2 116.7 612.5 116.3Q612.8 115.9 612.8 115.4L612.8 115.4Q612.8 114.9 612.5 114.7Q612.2 114.4 611.8 114.2Q611.4 114.0 610.9 113.9L610.9 113.9L609.7 113.5Q608.6 113.2 608.0 112.6Q607.3 112.0 607.3 111.1L607.3 111.1Q607.3 110.3 607.8 109.7Q608.2 109.1 608.9 108.7Q609.7 108.4 610.6 108.4L610.6 108.4Q611.5 108.4 612.2 108.7Q612.9 109.1 613.4 109.6Q613.8 110.2 613.8 110.9L613.8 110.9L612.6 110.9Q612.5 110.2 612.0 109.9Q611.4 109.5 610.5 109.5L610.5 109.5Q609.9 109.5 609.5 109.7Q609.0 109.9 608.8 110.2Q608.5 110.6 608.5 111.0L608.5 111.0Q608.5 111.5 608.8 111.8Q609.1 112.1 609.5 112.3Q610.0 112.5 610.3 112.5L610.3 112.5L611.3 112.8Q611.6 112.9 612.1 113.1Q612.6 113.3 613.0 113.6Q613.4 113.9 613.7 114.3Q613.9 114.8 613.9 115.4L613.9 115.4Q613.9 116.2 613.5 116.8Q613.1 117.4 612.4 117.8Q611.6 118.2 610.5 118.2ZM618.6 118.2L618.6 118.2Q617.6 118.2 616.9 117.7Q616.1 117.2 615.7 116.4Q615.3 115.6 615.3 114.5L615.3 114.5Q615.3 113.4 615.7 112.6Q616.1 111.7 616.9 111.3Q617.6 110.8 618.6 110.8L618.6 110.8Q619.1 110.8 619.5 110.9Q620.0 111.1 620.4 111.3Q620.7 111.6 621.0 111.9Q621.3 112.3 621.4 112.8L621.4 112.8L620.3 113.1Q620.3 112.8 620.1 112.6Q619.9 112.4 619.7 112.2Q619.5 112.0 619.2 111.9Q618.9 111.8 618.6 111.8L618.6 111.8Q617.8 111.8 617.4 112.2Q616.9 112.6 616.7 113.2Q616.5 113.8 616.5 114.5L616.5 114.5Q616.5 115.2 616.7 115.8Q616.9 116.4 617.4 116.8Q617.8 117.1 618.6 117.1L618.6 117.1Q618.9 117.1 619.2 117.0Q619.5 116.9 619.7 116.8Q620.0 116.6 620.1 116.3Q620.3 116.1 620.4 115.8L620.4 115.8L621.5 116.1Q621.3 116.6 621.0 117.0Q620.8 117.4 620.4 117.6Q620.0 117.9 619.5 118.0Q619.1 118.2 618.6 118.2ZM624.2 118L623.1 118L623.1 110.9L624.2 110.9L624.2 112.0L624.3 112.0Q624.5 111.5 625.0 111.1Q625.5 110.8 626.1 110.8L626.1 110.8Q626.2 110.8 626.4 110.8Q626.6 110.8 626.7 110.8L626.7 110.8L626.7 112.0Q626.6 112.0 626.4 111.9Q626.2 111.9 626.0 111.9L626.0 111.9Q625.5 111.9 625.1 112.1Q624.7 112.3 624.5 112.7Q624.2 113.1 624.2 113.6L624.2 113.6L624.2 118ZM629.1 118L628.0 118L628.0 110.9L629.1 110.9L629.1 118ZM628.6 109.7L628.6 109.7Q628.2 109.7 628.0 109.5Q627.8 109.3 627.8 109.0L627.8 109.0Q627.8 108.7 628.0 108.4Q628.2 108.2 628.6 108.2L628.6 108.2Q628.9 108.2 629.1 108.4Q629.4 108.7 629.4 109.0L629.4 109.0Q629.4 109.3 629.1 109.5Q628.9 109.7 628.6 109.7ZM632.3 120.7L631.1 120.7L631.1 110.9L632.2 110.9L632.2 112.0L632.4 112.0Q632.5 111.8 632.7 111.6Q632.9 111.3 633.3 111.0Q633.7 110.8 634.4 110.8L634.4 110.8Q635.3 110.8 636.0 111.3Q636.7 111.7 637.1 112.5Q637.4 113.3 637.4 114.5L637.4 114.5Q637.4 115.6 637.1 116.4Q636.7 117.3 636.0 117.7Q635.3 118.2 634.4 118.2L634.4 118.2Q633.8 118.2 633.3 117.9Q632.9 117.7 632.7 117.4Q632.5 117.1 632.4 116.9L632.4 116.9L632.3 116.9L632.3 120.7ZM634.3 117.1L634.3 117.1Q634.9 117.1 635.4 116.8Q635.8 116.4 636.0 115.8Q636.3 115.2 636.3 114.5L636.3 114.5Q636.3 113.7 636.1 113.1Q635.8 112.5 635.4 112.2Q634.9 111.8 634.3 111.8L634.3 111.8Q633.6 111.8 633.2 112.2Q632.7 112.5 632.5 113.1Q632.3 113.7 632.3 114.5L632.3 114.5Q632.3 115.2 632.5 115.8Q632.7 116.5 633.2 116.8Q633.6 117.1 634.3 117.1ZM640.4 110.9L641.9 110.9L641.9 111.9L640.4 111.9L640.4 116.2Q640.4 116.6 640.6 116.9Q640.8 117.1 641.3 117.1L641.3 117.1Q641.4 117.1 641.5 117.0Q641.7 117.0 641.9 117.0L641.9 117.0L642.1 118.0Q641.9 118.0 641.7 118.1Q641.5 118.1 641.2 118.1L641.2 118.1Q640.3 118.1 639.8 117.6Q639.3 117.1 639.3 116.2L639.3 116.2L639.3 111.9L638.2 111.9L638.2 110.9L639.3 110.9L639.3 109.2L640.4 109.2L640.4 110.9Z "/></g><mask id="satori_om-id-3-9-2"><rect x="649" y="107" width="18" height="13" fill="#fff" mask="url(#satori_om-id)"/></mask><g mask="url(#satori_om-id)" clip-path="url(#satori_cp-id)"><path fill="#6a6a8a" d="M652.4 118.1L652.4 118.1Q651.6 118.1 651.0 117.8Q650.4 117.6 650.1 117.1Q649.7 116.6 649.7 116.0L649.7 116.0L650.7 116.0Q650.7 116.4 651.0 116.6Q651.2 116.9 651.6 117.1Q651.9 117.2 652.4 117.2L652.4 117.2Q652.9 117.2 653.3 117.0Q653.7 116.9 653.9 116.5Q654.1 116.2 654.1 115.8L654.1 115.8Q654.1 115.4 653.9 115.0Q653.7 114.7 653.3 114.5Q652.9 114.3 652.3 114.3L652.3 114.3L651.6 114.3L651.6 113.5L652.3 113.5Q652.7 113.5 653.1 113.3Q653.5 113.1 653.7 112.8Q653.9 112.5 653.9 112.1L653.9 112.1Q653.9 111.7 653.7 111.4Q653.5 111.1 653.2 110.9Q652.9 110.8 652.4 110.8L652.4 110.8Q652.0 110.8 651.7 110.9Q651.3 111.1 651.1 111.3Q650.8 111.6 650.8 112.0L650.8 112.0L649.8 112.0Q649.9 111.4 650.2 110.9Q650.6 110.4 651.2 110.2Q651.7 109.9 652.4 109.9L652.4 109.9Q653.2 109.9 653.7 110.2Q654.3 110.5 654.6 111.0Q654.8 111.5 654.8 112.0L654.8 112.0Q654.8 112.7 654.5 113.2Q654.1 113.7 653.5 113.8L653.5 113.8L653.5 113.9Q654.0 114.0 654.4 114.3Q654.8 114.5 654.9 114.9Q655.1 115.3 655.1 115.8L655.1 115.8Q655.1 116.5 654.8 117.0Q654.4 117.5 653.8 117.8Q653.2 118.1 652.4 118.1ZM658.6 113.5L658.6 113.5Q658.1 113.5 657.7 113.3Q657.4 113.1 657.2 112.7Q657.0 112.3 657.0 111.9L657.0 111.9L657.0 111.5Q657.0 111.0 657.2 110.7Q657.4 110.3 657.7 110.1Q658.1 109.9 658.6 109.9L658.6 109.9Q659.1 109.9 659.5 110.1Q659.8 110.3 660.0 110.7Q660.2 111.0 660.2 111.5L660.2 111.5L660.2 111.9Q660.2 112.3 660.0 112.7Q659.8 113.1 659.5 113.3Q659.1 113.5 658.6 113.5ZM658.6 112.8L658.6 112.8Q659.0 112.8 659.2 112.6Q659.3 112.3 659.3 111.9L659.3 111.9L659.3 111.5Q659.3 111.1 659.2 110.9Q659.0 110.6 658.6 110.6L658.6 110.6Q658.2 110.6 658.0 110.9Q657.9 111.1 657.9 111.5L657.9 111.5L657.9 111.9Q657.9 112.3 658.0 112.6Q658.2 112.8 658.6 112.8ZM663.8 118.2L663.8 118.2Q663.3 118.2 662.9 117.9Q662.6 117.7 662.4 117.3Q662.2 117.0 662.2 116.5L662.2 116.5L662.2 116.1Q662.2 115.7 662.4 115.3Q662.6 114.9 662.9 114.7Q663.3 114.5 663.8 114.5L663.8 114.5Q664.3 114.5 664.7 114.7Q665.0 114.9 665.2 115.3Q665.4 115.7 665.4 116.1L665.4 116.1L665.4 116.5Q665.4 117.0 665.2 117.3Q665.0 117.7 664.7 117.9Q664.3 118.2 663.8 118.2ZM663.8 117.5L663.8 117.5Q664.2 117.5 664.4 117.2Q664.5 116.9 664.5 116.5L664.5 116.5L664.5 116.1Q664.5 115.8 664.4 115.5Q664.2 115.2 663.8 115.2L663.8 115.2Q663.4 115.2 663.2 115.5Q663.0 115.8 663.0 116.1L663.0 116.1L663.0 116.5Q663.0 116.9 663.2 117.2Q663.4 117.5 663.8 117.5ZM658.9 118L658.0 118L663.5 110.0L664.4 110.0L658.9 118Z "/></g></svg>