<!-- Generated by readme-aura https://github.com/collectioneur/readme-aura -->
<svg width="800" height="100" viewBox="0 0 800 100" xmlns="http://www.w3.org/2000/svg"><defs><clipPath id="satori_bc-id"><path x="0" y="0" width="800" height="100" d="M16,0 h768 a16,16 0 0 1 16,16 v68 a16,16 0 0 1 -16,16 h-768 a16,16 0 0 1 -16,-16 v-68 a16,16 0 0 1 16,-16"/></clipPath></defs><clipPath id="satori_cp-id"><path x="0" y="0" width="800" height="100" d="M16,0 h768 a16,16 0 0 1 16,16 v68 a16,16 0 0 1 -16,16 h-768 a16,16 0 0 1 -16,-16 v-68 a16,16 0 0 1 16,-16"/></clipPath><mask id="satori_om-id"><rect x="1" y="1" width="798" height="98" fill="#fff"/><path width="800" height="100" fill="none" stroke="#000" stroke-width="2" d="M4.686,4.686 A16,16 0 0 1 16,0 h768 a16,16 0 0 1 16,16 v68 a16,16 0 0 1 -16,16 h-768 a16,16 0 0 1 -16,-16 v-68 A16,16 0 0 1 4.686,4.686"/></mask><path x="0" y="0" width="800" height="100" fill="#06060a" d="M16,0 h768 a16,16 0 0 1 16,16 v68 a16,16 0 0 1 -16,16 h-768 a16,16 0 0 1 -16,-16 v-68 a16,16 0 0 1 16,-16"/><path width="800" height="100" clip-path="url(#satori_bc-id)" fill="none" stroke="rgba(110,80,220,0.15)" stroke-width="2" d="M4.686,4.686 A16,16 0 0 1 16,0 h768 a16,16 0 0 1 16,16 v68 a16,16 0 0 1 -16,16 h-768 a16,16 0 0 1 -16,-16 v-68 A16,16 0 0 1 4.686,4.686"/><clipPath id="satori_cp-id-0" clip-path="url(#satori_cp-id)"><rect x="1" y="1" width="800" height="100"/></clipPath><mask id="satori_om-id-0"><rect x="1" y="1" width="800" height="100" fill="#fff" mask="url(#satori_om-id)"/></mask><svg x="1" y="1" width="800" height="100" preserveAspectRatio="none" clip-path="url(#satori_cp-id-0)" mask="url(#satori_om-id-0)"><defs><radialGradient id="stg1" cx="50%" cy="50%" r="50%"><stop offset="0%" stop-color="rgba(120,40,220,0.5)"></stop><stop offset="100%" stop-color="rgba(120,40,220,0)"></stop></radialGradient><linearGradient id="st-scg" x1="0%" y1="0%" x2="100%" y2="0%"><stop offset="0%" stop-color="rgba(120,200,255,0)"></stop><stop offset="45%" stop-color="rgba(120,200,255,0.12)"></stop><stop offset="50%" stop-color="rgba(180,120,255,0.3)"></stop><stop offset="55%" stop-color="rgba(120,200,255,0.12)"></stop><stop offset="100%" stop-color="rgba(120,200,255,0)"></stop></linearGradient></defs><ellipse id="stat-g1" cx="400" cy="50" rx="250" ry="60" fill="url(#stg1)"></ellipse><rect id="stat-scan1" x="0" y="50" width="160" height="1" fill="url(#st-scg)"></rect><style>

      @keyframes stat-drift-r { 0%, 100% { transform: translate(0, 0); opacity: 0.7; } 50% { transform: translate(25px, -12px); opacity: 1; } }
      @keyframes stat-scan { 0% { transform: translate(-900px, 0); } 100% { transform: translate(900px, 0); } }
      #stat-g1 { animation: stat-drift-r 7s ease-in-out infinite; }
      #stat-scan1 { animation: stat-scan 4s linear infinite; }
    
</style>
</svg><mask id="satori_om-id-0-0"><rect x="1" y="1" width="0" height="100" fill="#fff" mask="url(#satori_om-id)"/></mask><mask id="satori_om-id-0-0-0"><rect x="1" y="1" width="0" height="100" fill="#fff" mask="url(#satori_om-id)"/></mask><mask id="satori_om-id-0-0-0-0"><rect x="1" y="1" width="0" height="100" fill="#fff" mask="url(#satori_om-id)"/></mask><mask id="satori_om-id-0-0-0-1"><rect x="1" y="1" width="0" height="100" fill="#fff" mask="url(#satori_om-id)"/></mask><mask id="satori_om-id-0-0-1"><rect x="1" y="1" width="0" height="100" fill="#fff" mask="url(#satori_om-id)"/></mask><mask id="satori_om-id-0-0-1-0"><rect x="1" y="1" width="0" height="100" fill="#fff" mask="url(#satori_om-id)"/></mask><mask id="satori_om-id-0-0-1-1"><rect x="1" y="1" width="0" height="100" fill="#fff" mask="url(#satori_om-id)"/></mask><mask id="satori_om-id-0-0-1-2"><rect x="1" y="1" width="0" height="100" fill="#fff" mask="url(#satori_om-id)"/></mask><mask id="satori_om-id-0-0-1-3"><rect x="1" y="1" width="0" height="100" fill="#fff" mask="url(#satori_om-id)"/></mask><mask id="satori_om-id-0-0-1-4"><rect x="1" y="1" width="0" height="100" fill="#fff" mask="url(#satori_om-id)"/></mask><mask id="satori_om-id-0-1"><rect x="1" y="1" width="0" height="100" fill="#fff" mask="url(#satori_om-id)"/></mask><mask id="satori_om-id-0-2"><rect x="1" y="1" width="0" height="100" fill="#fff" mask="url(#satori_om-id)"/></mask><mask id="satori_om-id-1"><rect x="203" y="28" width="395" height="45" fill="#fff" mask="url(#satori_om-id)"/></mask><mask id="satori_om-id-1-0"><rect x="203" y="28" width="44" height="45" fill="#fff" mask="url(#satori_om-id)"/></mask><mask id="satori_om-id-1-0-0"><rect x="212" y="28" width="27" height="29" fill="#fff" mask="url(#satori_om-id)"/></mask><g mask="url(#satori_om-id)" clip-path="url(#satori_cp-id)"><path fill="#ffffff" d="M221.5 47.9L213.2 47.9L213.2 45.1L220.5 33.5L225.0 33.5L225.0 45.0L227.2 45.0L227.2 47.9L225.0 47.9L225.0 51L221.5 51L221.5 47.9ZM216.8 45.0L221.6 45.0L221.6 37.5L221.5 37.5L216.8 44.9L216.8 45.0ZM232.3 33.5L236.1 33.5L236.1 51L232.5 51L232.5 36.7L232.4 36.7L228.4 39.5L228.4 36.2L232.3 33.5Z "/></g><mask id="satori_om-id-1-0-1"><rect x="203" y="61" width="44" height="12" fill="#fff" mask="url(#satori_om-id)"/></mask><g mask="url(#satori_om-id)" clip-path="url(#satori_cp-id)"><path fill="#b8860b" d="M206.3 71.1L206.3 71.1Q205.5 71.1 204.8 70.8Q204.2 70.6 203.8 70.0Q203.4 69.5 203.4 68.7L203.4 68.7L204.9 68.7Q204.9 69.1 205.1 69.4Q205.3 69.6 205.6 69.7Q205.9 69.8 206.3 69.8L206.3 69.8Q206.7 69.8 207.0 69.7Q207.3 69.6 207.5 69.4Q207.6 69.2 207.6 68.9L207.6 68.9Q207.6 68.7 207.5 68.5Q207.3 68.3 207.1 68.2Q206.8 68.1 206.4 68.0L206.4 68.0L205.6 67.8Q204.7 67.6 204.1 67.1Q203.6 66.6 203.6 65.8L203.6 65.8Q203.6 65.2 204.0 64.7Q204.3 64.2 204.9 63.9Q205.6 63.6 206.3 63.6L206.3 63.6Q207.2 63.6 207.8 63.9Q208.4 64.2 208.7 64.7Q209.0 65.2 209.0 65.8L209.0 65.8L207.6 65.8Q207.6 65.4 207.2 65.1Q206.9 64.9 206.3 64.9L206.3 64.9Q206.0 64.9 205.7 65.0Q205.4 65.1 205.3 65.3Q205.1 65.5 205.1 65.7L205.1 65.7Q205.1 66.0 205.3 66.2Q205.5 66.3 205.7 66.5Q206.0 66.6 206.3 66.6L206.3 66.6L207.0 66.8Q207.4 66.9 207.8 67.1Q208.2 67.3 208.5 67.5Q208.8 67.8 209.0 68.1Q209.1 68.5 209.1 68.9L209.1 68.9Q209.1 69.6 208.8 70.1Q208.5 70.6 207.8 70.8Q207.2 71.1 206.3 71.1ZM214.1 65.0L211.9 65.0L211.9 63.7L217.9 63.7L217.9 65.0L215.6 65.0L215.6 71L214.1 71L214.1 65.0ZM222.1 71L220.5 71L222.9 63.7L224.9 63.7L227.4 71L225.8 71L225.2 69.3L222.6 69.3L222.1 71ZM223.0 68.1L224.8 68.1L224.6 67.5Q224.4 66.8 224.2 66L224.2 66Q224.1 65.5 223.9 64.9L223.9 64.9Q223.8 65.5 223.6 66.0L223.6 66.0Q223.4 66.8 223.2 67.5L223.2 67.5L223.0 68.1ZM231.8 71L230.3 71L230.3 63.7L233.2 63.7Q234.0 63.7 234.6 64.0Q235.2 64.3 235.5 64.8Q235.8 65.4 235.8 66.1Q235.8 66.8 235.5 67.3Q235.2 67.9 234.6 68.1L234.6 68.1Q234.5 68.1 234.5 68.2L234.5 68.2L236.0 71L234.4 71L233.0 68.4L231.8 68.4L231.8 71ZM231.8 65.0L231.8 67.2L232.9 67.2Q233.4 67.2 233.7 67.1Q234.0 66.9 234.1 66.7Q234.2 66.5 234.2 66.1L234.2 66.1Q234.2 65.7 234.1 65.5Q234.0 65.2 233.7 65.1Q233.4 65.0 232.9 65.0L232.9 65.0L231.8 65.0ZM241.6 71.1L241.6 71.1Q240.7 71.1 240.1 70.8Q239.4 70.6 239.1 70.0Q238.7 69.5 238.7 68.7L238.7 68.7L240.1 68.7Q240.2 69.1 240.3 69.4Q240.5 69.6 240.8 69.7Q241.2 69.8 241.6 69.8L241.6 69.8Q242.0 69.8 242.3 69.7Q242.6 69.6 242.7 69.4Q242.9 69.2 242.9 68.9L242.9 68.9Q242.9 68.7 242.7 68.5Q242.6 68.3 242.3 68.2Q242.0 68.1 241.6 68.0L241.6 68.0L240.8 67.8Q239.9 67.6 239.4 67.1Q238.9 66.6 238.9 65.8L238.9 65.8Q238.9 65.2 239.2 64.7Q239.6 64.2 240.2 63.9Q240.8 63.6 241.6 63.6L241.6 63.6Q242.4 63.6 243.0 63.9Q243.6 64.2 243.9 64.7Q244.3 65.2 244.3 65.8L244.3 65.8L242.9 65.8Q242.8 65.4 242.5 65.1Q242.1 64.9 241.6 64.9L241.6 64.9Q241.2 64.9 240.9 65.0Q240.7 65.1 240.5 65.3Q240.4 65.5 240.4 65.7L240.4 65.7Q240.4 66.0 240.6 66.2Q240.7 66.3 241.0 66.5Q241.3 66.6 241.6 66.6L241.6 66.6L242.2 66.8Q242.7 66.9 243.1 67.1Q243.5 67.3 243.8 67.5Q244.1 67.8 244.2 68.1Q244.4 68.5 244.4 68.9L244.4 68.9Q244.4 69.6 244.1 70.1Q243.7 70.6 243.1 70.8Q242.5 71.1 241.6 71.1Z "/></g><mask id="satori_om-id-1-1"><rect x="277" y="31" width="1" height="40" fill="#fff" mask="url(#satori_om-id)"/></mask><rect x="277" y="31" width="1" height="40" fill="rgba(120,80,220,0.2)" clip-path="url(#satori_cp-id)" mask="url(#satori_om-id)"/><mask id="satori_om-id-1-2"><rect x="308" y="28" width="44" height="45" fill="#fff" mask="url(#satori_om-id)"/></mask><mask id="satori_om-id-1-2-0"><rect x="323" y="28" width="15" height="29" fill="#fff" mask="url(#satori_om-id)"/></mask><g mask="url(#satori_om-id)" clip-path="url(#satori_cp-id)"><path fill="#ffffff" d="M330.4 51.2L330.4 51.2Q328.6 51.2 327.2 50.6Q325.8 49.9 325.0 48.8Q324.1 47.6 324.1 46.1L324.1 46.1L327.6 46.1Q327.6 46.8 328.0 47.3Q328.4 47.8 329 48.1Q329.6 48.4 330.4 48.4L330.4 48.4Q331.2 48.4 331.9 48.0Q332.6 47.6 333.0 46.9Q333.4 46.2 333.4 45.3L333.4 45.3Q333.4 44.4 333.0 43.6Q332.6 42.9 331.9 42.5Q331.2 42.1 330.3 42.1L330.3 42.1Q329.5 42.1 328.8 42.4Q328.1 42.7 327.7 43.3L327.7 43.3L324.5 42.7L325.3 33.5L335.9 33.5L335.9 36.5L328.3 36.5L327.8 40.9L327.9 40.9Q328.4 40.3 329.3 39.9Q330.2 39.5 331.3 39.5L331.3 39.5Q332.5 39.5 333.5 39.9Q334.5 40.3 335.3 41.1Q336.0 41.8 336.4 42.9Q336.8 43.9 336.8 45.2L336.8 45.2Q336.8 47.0 336.0 48.3Q335.2 49.7 333.7 50.5Q332.3 51.2 330.4 51.2Z "/></g><mask id="satori_om-id-1-2-1"><rect x="308" y="61" width="44" height="12" fill="#fff" mask="url(#satori_om-id)"/></mask><g mask="url(#satori_om-id)" clip-path="url(#satori_cp-id)"><path fill="#8b7ec8" d="M310.1 71L308.7 71L308.7 63.7L313.4 63.7L313.4 65.0L310.1 65.0L310.1 67.0L313.1 67.0L313.1 68.2L310.1 68.2L310.1 71ZM319.7 71.1L319.7 71.1Q318.8 71.1 318.0 70.7Q317.2 70.2 316.8 69.4Q316.3 68.5 316.3 67.4L316.3 67.4Q316.3 66.2 316.8 65.3Q317.2 64.5 318.0 64.1Q318.8 63.6 319.7 63.6L319.7 63.6Q320.7 63.6 321.5 64.1Q322.2 64.5 322.7 65.3Q323.1 66.2 323.1 67.4L323.1 67.4Q323.1 68.5 322.7 69.4Q322.2 70.2 321.5 70.7Q320.7 71.1 319.7 71.1ZM319.7 69.8L319.7 69.8Q320.3 69.8 320.7 69.5Q321.1 69.2 321.4 68.7Q321.6 68.1 321.6 67.4L321.6 67.4Q321.6 66.6 321.4 66.0Q321.1 65.5 320.7 65.2Q320.3 65.0 319.7 65.0L319.7 65.0Q319.2 65.0 318.7 65.2Q318.3 65.5 318.1 66.0Q317.8 66.6 317.8 67.4L317.8 67.4Q317.8 68.1 318.1 68.7Q318.3 69.2 318.7 69.5Q319.2 69.8 319.7 69.8ZM327.7 71L326.2 71L326.2 63.7L329.1 63.7Q329.9 63.7 330.5 64.0Q331.1 64.3 331.4 64.8Q331.7 65.4 331.7 66.1Q331.7 66.8 331.4 67.3Q331.1 67.9 330.5 68.1L330.5 68.1Q330.4 68.1 330.4 68.2L330.4 68.2L331.9 71L330.3 71L328.9 68.4L327.7 68.4L327.7 71ZM327.7 65.0L327.7 67.2L328.8 67.2Q329.3 67.2 329.5 67.1Q329.8 66.9 330.0 66.7Q330.1 66.5 330.1 66.1L330.1 66.1Q330.1 65.7 330.0 65.5Q329.8 65.2 329.5 65.1Q329.3 65.0 328.8 65.0L328.8 65.0L327.7 65.0ZM336.3 71L334.8 71L334.8 63.7L336.3 63.7L336.3 65.7L336.3 67.4Q336.3 67.3 336.3 67.3L336.3 67.3Q336.6 66.9 336.8 66.6Q337.1 66.2 337.4 65.8L337.4 65.8L339.2 63.7L341.0 63.7L338.3 66.9L341.1 71L339.3 71L337.3 67.9L336.3 68.9L336.3 71ZM346.7 71.1L346.7 71.1Q345.8 71.1 345.1 70.8Q344.5 70.6 344.1 70.0Q343.8 69.5 343.7 68.7L343.7 68.7L345.2 68.7Q345.2 69.1 345.4 69.4Q345.6 69.6 345.9 69.7Q346.2 69.8 346.6 69.8L346.6 69.8Q347.0 69.8 347.3 69.7Q347.6 69.6 347.8 69.4Q348.0 69.2 348.0 68.9L348.0 68.9Q348.0 68.7 347.8 68.5Q347.7 68.3 347.4 68.2Q347.1 68.1 346.7 68.0L346.7 68.0L345.9 67.8Q345.0 67.6 344.5 67.1Q343.9 66.6 343.9 65.8L343.9 65.8Q343.9 65.2 344.3 64.7Q344.7 64.2 345.3 63.9Q345.9 63.6 346.7 63.6L346.7 63.6Q347.5 63.6 348.1 63.9Q348.7 64.2 349.0 64.7Q349.4 65.2 349.4 65.8L349.4 65.8L347.9 65.8Q347.9 65.4 347.6 65.1Q347.2 64.9 346.7 64.9L346.7 64.9Q346.3 64.9 346.0 65.0Q345.8 65.1 345.6 65.3Q345.5 65.5 345.5 65.7L345.5 65.7Q345.5 66.0 345.6 66.2Q345.8 66.3 346.1 66.5Q346.3 66.6 346.6 66.6L346.6 66.6L347.3 66.8Q347.8 66.9 348.1 67.1Q348.5 67.3 348.8 67.5Q349.1 67.8 349.3 68.1Q349.5 68.5 349.5 68.9L349.5 68.9Q349.5 69.6 349.1 70.1Q348.8 70.6 348.2 70.8Q347.5 71.1 346.7 71.1Z "/></g><mask id="satori_om-id-1-3"><rect x="382" y="31" width="1" height="40" fill="#fff" mask="url(#satori_om-id)"/></mask><rect x="382" y="31" width="1" height="40" fill="rgba(120,80,220,0.2)" clip-path="url(#satori_cp-id)" mask="url(#satori_om-id)"/><mask id="satori_om-id-1-4"><rect x="413" y="28" width="44" height="45" fill="#fff" mask="url(#satori_om-id)"/></mask><mask id="satori_om-id-1-4-0"><rect x="419" y="28" width="32" height="29" fill="#fff" mask="url(#satori_om-id)"/></mask><g mask="url(#satori_om-id)" clip-path="url(#satori_cp-id)"><path fill="#ffffff" d="M427.0 51.2L427.0 51.2Q425.7 51.2 424.4 50.8Q423.2 50.3 422.2 49.4Q421.3 48.4 420.7 46.7Q420.1 45.1 420.1 42.7L420.1 42.7Q420.1 40.5 420.6 38.7Q421.1 37.0 422.0 35.8Q422.9 34.6 424.2 33.9Q425.5 33.3 427.1 33.3L427.1 33.3Q428.9 33.3 430.2 34.0Q431.5 34.7 432.3 35.8Q433.1 36.9 433.3 38.4L433.3 38.4L429.8 38.4Q429.6 37.5 428.9 36.9Q428.2 36.4 427.1 36.4L427.1 36.4Q426.0 36.4 425.2 37.1Q424.4 37.7 424.0 39.0Q423.6 40.2 423.6 42.0L423.6 42.0L423.7 42.0Q424.1 41.2 424.8 40.7Q425.5 40.1 426.3 39.8Q427.2 39.5 428.1 39.5L428.1 39.5Q429.7 39.5 430.9 40.2Q432.1 41.0 432.8 42.2Q433.5 43.5 433.5 45.2L433.5 45.2Q433.5 46.9 432.7 48.3Q431.9 49.7 430.4 50.5Q428.9 51.2 427.0 51.2ZM427.0 48.4L427.0 48.4Q427.9 48.4 428.5 48.0Q429.2 47.6 429.6 46.9Q430.0 46.1 430.0 45.3L430.0 45.3Q430.0 44.4 429.6 43.7Q429.2 43.0 428.6 42.6Q427.9 42.1 427.0 42.1L427.0 42.1Q426.4 42.1 425.8 42.4Q425.3 42.6 424.9 43.1Q424.4 43.5 424.2 44.1Q424.0 44.6 424.0 45.3L424.0 45.3Q424.0 46.1 424.4 46.8Q424.8 47.5 425.4 48.0Q426.1 48.4 427.0 48.4ZM442.0 51.3L442.0 51.3Q440.3 51.3 439.0 50.6Q437.7 49.9 436.8 48.7Q436.0 47.6 435.9 46.1L435.9 46.1L439.4 46.1Q439.6 47.1 440.3 47.6Q441.0 48.2 442.0 48.2L442.0 48.2Q443.2 48.2 444.0 47.5Q444.8 46.8 445.2 45.5Q445.6 44.3 445.6 42.6L445.6 42.6L445.5 42.6Q445.1 43.3 444.4 43.9Q443.7 44.4 442.9 44.7Q442.0 45.0 441.1 45.0L441.1 45.0Q439.5 45.0 438.3 44.3Q437.1 43.6 436.4 42.3Q435.7 41.0 435.7 39.4L435.7 39.4Q435.7 37.6 436.5 36.2Q437.3 34.8 438.8 34.0Q440.3 33.3 442.2 33.3L442.2 33.3Q443.5 33.3 444.7 33.7Q446.0 34.2 447.0 35.2Q447.9 36.2 448.5 37.8Q449.1 39.4 449.1 41.8L449.1 41.8Q449.1 44.1 448.6 45.8Q448.1 47.5 447.2 48.8Q446.2 50.0 444.9 50.6Q443.6 51.3 442.0 51.3ZM442.2 42.4L442.2 42.4Q442.8 42.4 443.4 42.1Q443.9 41.9 444.3 41.5Q444.7 41.0 445.0 40.5Q445.2 39.9 445.2 39.2L445.2 39.2Q445.2 38.4 444.8 37.7Q444.4 37.0 443.8 36.6Q443.1 36.1 442.2 36.1L442.2 36.1Q441.3 36.1 440.7 36.6Q440.0 37.0 439.6 37.7Q439.2 38.4 439.2 39.3L439.2 39.3Q439.2 40.1 439.6 40.9Q440.0 41.6 440.6 42.0Q441.3 42.4 442.2 42.4Z "/></g><mask id="satori_om-id-1-4-1"><rect x="413" y="61" width="44" height="12" fill="#fff" mask="url(#satori_om-id)"/></mask><g mask="url(#satori_om-id)" clip-path="url(#satori_cp-id)"><path fill="#5a9ca8" d="M415.1 71L413.7 71L413.7 63.7L416.5 63.7Q417.3 63.7 417.9 64.0Q418.5 64.3 418.8 64.8Q419.1 65.4 419.1 66.1Q419.1 66.8 418.8 67.3Q418.5 67.9 417.9 68.1L417.9 68.1Q417.8 68.1 417.8 68.2L417.8 68.2L419.4 71L417.7 71L416.3 68.4L415.1 68.4L415.1 71ZM415.1 65.0L415.1 67.2L416.2 67.2Q416.7 67.2 417.0 67.1Q417.3 66.9 417.4 66.7Q417.6 66.5 417.6 66.1L417.6 66.1Q417.6 65.7 417.4 65.5Q417.3 65.2 417.0 65.1Q416.7 65.0 416.2 65.0L416.2 65.0L415.1 65.0ZM427.1 71L422.2 71L422.2 63.7L427.1 63.7L427.1 65.0L423.7 65.0L423.7 66.7L426.8 66.7L426.8 67.9L423.7 67.9L423.7 69.8L427.1 69.8L427.1 71ZM431.8 71L430.3 71L430.3 63.7L433.1 63.7Q434.0 63.7 434.5 64.0Q435.1 64.4 435.4 64.9Q435.7 65.5 435.7 66.2L435.7 66.2Q435.7 66.9 435.4 67.5Q435.1 68.0 434.5 68.3Q433.9 68.6 433.1 68.6L433.1 68.6L431.8 68.6L431.8 71ZM431.8 65.0L431.8 67.4L432.9 67.4Q433.3 67.4 433.6 67.3Q433.9 67.1 434.1 66.8Q434.2 66.5 434.2 66.2Q434.2 65.8 434.1 65.5Q433.9 65.3 433.6 65.1Q433.3 65.0 432.9 65.0L432.9 65.0L431.8 65.0ZM442.0 71.1L442.0 71.1Q441.0 71.1 440.2 70.7Q439.5 70.2 439.0 69.4Q438.6 68.5 438.6 67.4L438.6 67.4Q438.6 66.2 439.0 65.3Q439.5 64.5 440.2 64.1Q441.0 63.6 442.0 63.6L442.0 63.6Q442.9 63.6 443.7 64.1Q444.5 64.5 444.9 65.3Q445.4 66.2 445.4 67.4L445.4 67.4Q445.4 68.5 444.9 69.4Q444.5 70.2 443.7 70.7Q442.9 71.1 442.0 71.1ZM442.0 69.8L442.0 69.8Q442.5 69.8 443.0 69.5Q443.4 69.2 443.6 68.7Q443.9 68.1 443.9 67.4L443.9 67.4Q443.9 66.6 443.6 66.0Q443.4 65.5 443.0 65.2Q442.5 65.0 442.0 65.0L442.0 65.0Q441.4 65.0 441.0 65.2Q440.6 65.5 440.3 66.0Q440.1 66.6 440.1 67.4L440.1 67.4Q440.1 68.1 440.3 68.7Q440.6 69.2 441.0 69.5Q441.4 69.8 442.0 69.8ZM451.2 71.1L451.2 71.1Q450.3 71.1 449.6 70.8Q449.0 70.6 448.6 70.0Q448.3 69.5 448.2 68.7L448.2 68.7L449.7 68.7Q449.7 69.1 449.9 69.4Q450.1 69.6 450.4 69.7Q450.7 69.8 451.1 69.8L451.1 69.8Q451.5 69.8 451.8 69.7Q452.1 69.6 452.3 69.4Q452.5 69.2 452.5 68.9L452.5 68.9Q452.5 68.7 452.3 68.5Q452.2 68.3 451.9 68.2Q451.6 68.1 451.2 68.0L451.2 68.0L450.4 67.8Q449.5 67.6 449.0 67.1Q448.4 66.6 448.4 65.8L448.4 65.8Q448.4 65.2 448.8 64.7Q449.1 64.2 449.8 63.9Q450.4 63.6 451.2 63.6L451.2 63.6Q452.0 63.6 452.6 63.9Q453.2 64.2 453.5 64.7Q453.9 65.2 453.9 65.8L453.9 65.8L452.4 65.8Q452.4 65.4 452.0 65.1Q451.7 64.9 451.2 64.9L451.2 64.9Q450.8 64.9 450.5 65.0Q450.2 65.1 450.1 65.3Q450.0 65.5 450.0 65.7L450.0 65.7Q450.0 66.0 450.1 66.2Q450.3 66.3 450.6 66.5Q450.8 66.6 451.1 66.6L451.1 66.6L451.8 66.8Q452.2 66.9 452.6 67.1Q453.0 67.3 453.3 67.5Q453.6 67.8 453.8 68.1Q454.0 68.5 454.0 68.9L454.0 68.9Q454.0 69.6 453.6 70.1Q453.3 70.6 452.7 70.8Q452.0 71.1 451.2 71.1Z "/></g><mask id="satori_om-id-1-5"><rect x="487" y="31" width="1" height="40" fill="#fff" mask="url(#satori_om-id)"/></mask><rect x="487" y="31" width="1" height="40" fill="rgba(120,80,220,0.2)" clip-path="url(#satori_cp-id)" mask="url(#satori_om-id)"/><mask id="satori_om-id-1-6"><rect x="518" y="28" width="80" height="45" fill="#fff" mask="url(#satori_om-id)"/></mask><mask id="satori_om-id-1-6-0"><rect x="518" y="28" width="80" height="29" fill="#fff" mask="url(#satori_om-id)"/></mask><g mask="url(#satori_om-id)" clip-path="url(#satori_cp-id)"><path fill="#ffffff" d="M527.5 47.9L519.2 47.9L519.2 45.1L526.5 33.5L531.0 33.5L531.0 45.0L533.2 45.0L533.2 47.9L531.0 47.9L531.0 51L527.5 51L527.5 47.9ZM522.8 45.0L527.6 45.0L527.6 37.5L527.5 37.5L522.8 44.9L522.8 45.0ZM542.0 51.2L542.0 51.2Q540.1 51.2 538.6 50.6Q537.1 49.9 536.3 48.8Q535.4 47.6 535.4 46.1L535.4 46.1L539.0 46.1Q539.0 46.8 539.4 47.2Q539.8 47.7 540.5 48Q541.1 48.3 542.0 48.3L542.0 48.3Q542.8 48.3 543.5 48.0Q544.1 47.7 544.5 47.1Q544.9 46.6 544.9 45.9L544.9 45.9Q544.9 45.2 544.5 44.6Q544.1 44.1 543.4 43.7Q542.7 43.4 541.6 43.4L541.6 43.4L540.0 43.4L540.0 40.8L541.6 40.8Q542.5 40.8 543.1 40.5Q543.8 40.2 544.2 39.7Q544.5 39.1 544.5 38.4L544.5 38.4Q544.5 37.7 544.2 37.2Q543.9 36.7 543.3 36.5Q542.8 36.2 542.0 36.2L542.0 36.2Q541.2 36.2 540.6 36.4Q540.0 36.7 539.6 37.2Q539.2 37.7 539.2 38.4L539.2 38.4L535.7 38.4Q535.8 36.9 536.6 35.7Q537.4 34.6 538.8 33.9Q540.2 33.3 542.0 33.3L542.0 33.3Q543.8 33.3 545.2 34.0Q546.5 34.6 547.2 35.7Q548.0 36.8 548.0 38.2L548.0 38.2Q548.0 39.7 547.1 40.7Q546.2 41.6 544.7 41.9L544.7 41.9L544.7 42.0Q546.0 42.2 546.9 42.8Q547.7 43.3 548.2 44.2Q548.6 45.0 548.6 46.1L548.6 46.1Q548.6 47.6 547.8 48.8Q546.9 49.9 545.4 50.6Q543.9 51.2 542.0 51.2ZM559.3 47.9L550.9 47.9L550.9 45.1L558.2 33.5L562.7 33.5L562.7 45.0L564.9 45.0L564.9 47.9L562.7 47.9L562.7 51L559.3 51L559.3 47.9ZM554.5 45.0L559.3 45.0L559.3 37.5L559.2 37.5L554.5 44.9L554.5 45.0ZM574.0 51.2L574.0 51.2Q571.8 51.2 570.3 50.2Q568.7 49.1 567.9 47.1Q567.1 45.1 567.1 42.3L567.1 42.3Q567.1 39.5 567.9 37.4Q568.7 35.4 570.3 34.4Q571.8 33.3 574.0 33.3L574.0 33.3Q576.2 33.3 577.8 34.4Q579.4 35.4 580.2 37.5Q581.0 39.5 581.0 42.3L581.0 42.3Q581.0 45.1 580.2 47.1Q579.4 49.1 577.8 50.2Q576.3 51.2 574.0 51.2ZM574.0 48.3L574.0 48.3Q575.1 48.3 575.9 47.6Q576.6 46.9 577.0 45.5Q577.4 44.2 577.4 42.3L577.4 42.3Q577.4 40.4 577.0 39.0Q576.6 37.7 575.9 37.0Q575.1 36.3 574.0 36.3L574.0 36.3Q573.0 36.3 572.2 37.0Q571.5 37.7 571.1 39.0Q570.7 40.4 570.7 42.3L570.7 42.3Q570.7 44.2 571.1 45.5Q571.5 46.9 572.2 47.6Q573.0 48.3 574.0 48.3ZM589.9 51.2L589.9 51.2Q588.0 51.2 586.5 50.6Q585.0 49.9 584.2 48.8Q583.3 47.6 583.3 46.1L583.3 46.1L586.9 46.1Q586.9 46.8 587.3 47.2Q587.7 47.7 588.4 48Q589.1 48.3 589.9 48.3L589.9 48.3Q590.7 48.3 591.4 48.0Q592.1 47.7 592.4 47.1Q592.8 46.6 592.8 45.9L592.8 45.9Q592.8 45.2 592.4 44.6Q592.0 44.1 591.3 43.7Q590.6 43.4 589.5 43.4L589.5 43.4L587.9 43.4L587.9 40.8L589.5 40.8Q590.4 40.8 591.0 40.5Q591.7 40.2 592.1 39.7Q592.4 39.1 592.4 38.4L592.4 38.4Q592.4 37.7 592.1 37.2Q591.8 36.7 591.2 36.5Q590.7 36.2 589.9 36.2L589.9 36.2Q589.1 36.2 588.5 36.4Q587.9 36.7 587.5 37.2Q587.1 37.7 587.1 38.4L587.1 38.4L583.6 38.4Q583.7 36.9 584.5 35.7Q585.3 34.6 586.7 33.9Q588.1 33.3 589.9 33.3L589.9 33.3Q591.7 33.3 593.1 34.0Q594.4 34.6 595.2 35.7Q595.9 36.8 595.9 38.2L595.9 38.2Q595.9 39.7 595.0 40.7Q594.1 41.6 592.6 41.9L592.6 41.9L592.6 42.0Q593.9 42.2 594.8 42.8Q595.6 43.3 596.1 44.2Q596.5 45.0 596.5 46.1L596.5 46.1Q596.5 47.6 595.7 48.8Q594.8 49.9 593.3 50.6Q591.8 51.2 589.9 51.2Z "/></g><mask id="satori_om-id-1-6-1"><rect x="526" y="61" width="64" height="12" fill="#fff" mask="url(#satori_om-id)"/></mask><g mask="url(#satori_om-id)" clip-path="url(#satori_cp-id)"><path fill="#7ee7ff" d="M529.8 71.1L529.8 71.1Q528.9 71.1 528.1 70.7Q527.3 70.2 526.9 69.4Q526.5 68.5 526.5 67.4L526.5 67.4Q526.5 66.2 526.9 65.3Q527.3 64.5 528.1 64.1Q528.9 63.6 529.8 63.6L529.8 63.6Q530.5 63.6 531.0 63.8Q531.5 64.0 531.9 64.3Q532.4 64.6 532.6 65.1Q532.9 65.6 533.0 66.2L533.0 66.2L531.5 66.2Q531.4 65.9 531.3 65.7Q531.1 65.4 530.9 65.3Q530.7 65.1 530.4 65.0Q530.2 65.0 529.9 65.0L529.9 65.0Q529.3 65.0 528.9 65.2Q528.4 65.5 528.2 66.1Q528.0 66.6 528.0 67.4L528.0 67.4Q528.0 68.2 528.2 68.7Q528.5 69.2 528.9 69.5Q529.3 69.8 529.9 69.8L529.9 69.8Q530.2 69.8 530.4 69.7Q530.7 69.6 530.9 69.4Q531.1 69.3 531.3 69.0Q531.4 68.8 531.5 68.5L531.5 68.5L533.0 68.5Q532.9 69.0 532.7 69.5Q532.4 69.9 532.0 70.3Q531.6 70.7 531.1 70.9Q530.5 71.1 529.8 71.1ZM539.3 71.1L539.3 71.1Q538.3 71.1 537.5 70.7Q536.8 70.2 536.3 69.4Q535.9 68.5 535.9 67.4L535.9 67.4Q535.9 66.2 536.3 65.3Q536.8 64.5 537.5 64.1Q538.3 63.6 539.3 63.6L539.3 63.6Q540.2 63.6 541.0 64.1Q541.8 64.5 542.2 65.3Q542.6 66.2 542.6 67.4L542.6 67.4Q542.6 68.5 542.2 69.4Q541.8 70.2 541.0 70.7Q540.2 71.1 539.3 71.1ZM539.3 69.8L539.3 69.8Q539.8 69.8 540.2 69.5Q540.7 69.2 540.9 68.7Q541.1 68.1 541.1 67.4L541.1 67.4Q541.1 66.6 540.9 66.0Q540.7 65.5 540.2 65.2Q539.8 65.0 539.3 65.0L539.3 65.0Q538.7 65.0 538.3 65.2Q537.8 65.5 537.6 66.0Q537.4 66.6 537.4 67.4L537.4 67.4Q537.4 68.1 537.6 68.7Q537.8 69.2 538.3 69.5Q538.7 69.8 539.3 69.8ZM547.2 71L545.8 71L545.8 63.7L548.0 63.7L549.2 67.1Q549.3 67.3 549.4 67.7Q549.5 68.0 549.6 68.5L549.6 68.5Q549.7 68.9 549.8 69.3L549.8 69.3Q549.9 68.9 549.9 68.5L549.9 68.5Q550.0 68.1 550.1 67.7Q550.2 67.3 550.3 67.1L550.3 67.1L551.5 63.7L553.8 63.7L553.8 71L552.3 71L552.3 67.6Q552.3 67.3 552.3 67.0Q552.3 66.6 552.3 66.2Q552.3 65.8 552.3 65.4L552.3 65.4Q552.3 65.2 552.3 65.0L552.3 65.0Q552.3 65.2 552.2 65.4L552.2 65.4Q552.1 65.9 552.0 66.3Q551.9 66.7 551.8 67.0Q551.7 67.3 551.6 67.6L551.6 67.6L550.4 71L549.1 71L547.9 67.6Q547.8 67.3 547.7 67.0Q547.6 66.7 547.5 66.3Q547.4 65.9 547.3 65.4L547.3 65.4Q547.2 65.2 547.2 65.1L547.2 65.1Q547.2 65.2 547.2 65.4L547.2 65.4Q547.2 65.8 547.2 66.2Q547.2 66.6 547.2 67.0Q547.2 67.3 547.2 67.6L547.2 67.6L547.2 71ZM558.6 71L557.1 71L557.1 63.7L559.4 63.7L560.5 67.1Q560.6 67.3 560.7 67.7Q560.8 68.0 560.9 68.5L560.9 68.5Q561.0 68.9 561.1 69.3L561.1 69.3Q561.2 68.9 561.3 68.5L561.3 68.5Q561.4 68.1 561.5 67.7Q561.6 67.3 561.6 67.1L561.6 67.1L562.8 63.7L565.1 63.7L565.1 71L563.6 71L563.6 67.6Q563.6 67.3 563.6 67.0Q563.6 66.6 563.6 66.2Q563.6 65.8 563.6 65.4L563.6 65.4Q563.6 65.2 563.6 65.0L563.6 65.0Q563.6 65.2 563.5 65.4L563.5 65.4Q563.4 65.9 563.3 66.3Q563.2 66.7 563.1 67.0Q563.0 67.3 562.9 67.6L562.9 67.6L561.7 71L560.5 71L559.2 67.6Q559.2 67.3 559.1 67.0Q558.9 66.7 558.8 66.3Q558.7 65.9 558.6 65.4L558.6 65.4Q558.6 65.2 558.5 65.1L558.5 65.1Q558.5 65.2 558.5 65.4L558.5 65.4Q558.5 65.8 558.5 66.2Q558.5 66.6 558.6 67.0Q558.6 67.3 558.6 67.6L558.6 67.6L558.6 71ZM568.4 63.7L569.9 63.7L569.9 71L568.4 71L568.4 63.7ZM575.1 65.0L572.9 65.0L572.9 63.7L578.9 63.7L578.9 65.0L576.6 65.0L576.6 71L575.1 71L575.1 65.0ZM584.5 71.1L584.5 71.1Q583.7 71.1 583.0 70.8Q582.4 70.6 582.0 70.0Q581.7 69.5 581.6 68.7L581.6 68.7L583.1 68.7Q583.1 69.1 583.3 69.4Q583.5 69.6 583.8 69.7Q584.1 69.8 584.5 69.8L584.5 69.8Q584.9 69.8 585.2 69.7Q585.5 69.6 585.7 69.4Q585.9 69.2 585.9 68.9L585.9 68.9Q585.9 68.7 585.7 68.5Q585.6 68.3 585.3 68.2Q585.0 68.1 584.6 68.0L584.6 68.0L583.8 67.8Q582.9 67.6 582.4 67.1Q581.8 66.6 581.8 65.8L581.8 65.8Q581.8 65.2 582.2 64.7Q582.5 64.2 583.2 63.9Q583.8 63.6 584.6 63.6L584.6 63.6Q585.4 63.6 586.0 63.9Q586.6 64.2 586.9 64.7Q587.2 65.2 587.3 65.8L587.3 65.8L585.8 65.8Q585.8 65.4 585.4 65.1Q585.1 64.9 584.5 64.9L584.5 64.9Q584.2 64.9 583.9 65.0Q583.6 65.1 583.5 65.3Q583.4 65.5 583.4 65.7L583.4 65.7Q583.4 66.0 583.5 66.2Q583.7 66.3 583.9 66.5Q584.2 66.6 584.5 66.6L584.5 66.6L585.2 66.8Q585.6 66.9 586.0 67.1Q586.4 67.3 586.7 67.5Q587.0 67.8 587.2 68.1Q587.4 68.5 587.4 68.9L587.4 68.9Q587.4 69.6 587.0 70.1Q586.7 70.6 586.1 70.8Q585.4 71.1 584.5 71.1Z "/></g></svg>