<!-- Generated by readme-aura https://github.com/collectioneur/readme-aura -->
<svg width="800" height="100" viewBox="0 0 800 100" xmlns="http://www.w3.org/2000/svg"><defs><clipPath id="satori_bc-id"><path x="0" y="0" width="800" height="100" d="M16,0 h768 a16,16 0 0 1 16,16 v68 a16,16 0 0 1 -16,16 h-768 a16,16 0 0 1 -16,-16 v-68 a16,16 0 0 1 16,-16"/></clipPath></defs><clipPath id="satori_cp-id"><path x="0" y="0" width="800" height="100" d="M16,0 h768 a16,16 0 0 1 16,16 v68 a16,16 0 0 1 -16,16 h-768 a16,16 0 0 1 -16,-16 v-68 a16,16 0 0 1 16,-16"/></clipPath><mask id="satori_om-id"><rect x="1" y="1" width="798" height="98" fill="#fff"/><path width="800" height="100" fill="none" stroke="#000" stroke-width="2" d="M4.686,4.686 A16,16 0 0 1 16,0 h768 a16,16 0 0 1 16,16 v68 a16,16 0 0 1 -16,16 h-768 a16,16 0 0 1 -16,-16 v-68 A16,16 0 0 1 4.686,4.686"/></mask><path x="0" y="0" width="800" height="100" fill="#06060a" d="M16,0 h768 a16,16 0 0 1 16,16 v68 a16,16 0 0 1 -16,16 h-768 a16,16 0 0 1 -16,-16 v-68 a16,16 0 0 1 16,-16"/><path width="800" height="100" clip-path="url(#satori_bc-id)" fill="none" stroke="rgba(110,80,220,0.15)" stroke-width="2" d="M4.686,4.686 A16,16 0 0 1 16,0 h768 a16,16 0 0 1 16,16 v68 a16,16 0 0 1 -16,16 h-768 a16,16 0 0 1 -16,-16 v-68 A16,16 0 0 1 4.686,4.686"/><clipPath id="satori_cp-id-0" clip-path="url(#satori_cp-id)"><rect x="1" y="1" width="800" height="100"/></clipPath><mask id="satori_om-id-0"><rect x="1" y="1" width="800" height="100" fill="#fff" mask="url(#satori_om-id)"/></mask><svg x="1" y="1" width="800" height="100" preserveAspectRatio="none" clip-path="url(#satori_cp-id-0)" mask="url(#satori_om-id-0)"><defs><radialGradient id="stg1" cx="50%" cy="50%" r="50%"><stop offset="0%" stop-color="rgba(120,40,220,0.5)"></stop><stop offset="100%" stop-color="rgba(120,40,220,0)"></stop></radialGradient><linearGradient id="st-scg" x1="0%" y1="0%" x2="100%" y2="0%"><stop offset="0%" stop-color="rgba(120,200,255,0)"></stop><stop offset="45%" stop-color="rgba(120,200,255,0.12)"></stop><stop offset="50%" stop-color="rgba(180,120,255,0.3)"></stop><stop offset="55%" stop-color="rgba(120,200,255,0.12)"></stop><stop offset="100%" stop-color="rgba(120,200,255,0)"></stop></linearGradient></defs><ellipse id="stat-g1" cx="400" cy="50" rx="250" ry="60" fill="url(#stg1)"></ellipse><rect id="stat-scan1" x="0" y="50" width="160" height="1" fill="url(#st-scg)"></rect><style>

      @keyframes stat-drift-r { 0%, 100% { transform: translate(0, 0); opacity: 0.7; } 50% { transform: translate(25px, -12px); opacity: 1; } }
      @keyframes stat-scan { 0% { transform: translate(-900px, 0); } 100% { transform: translate(900px, 0); } }
      #stat-g1 { animation: stat-drift-r 7s ease-in-out infinite; }
      #stat-scan1 { animation: stat-scan 4s linear infinite; }
    
</style>
</svg><mask id="satori_om-id-0-0"><rect x="1" y="1" width="0" height="100" fill="#fff" mask="url(#satori_om-id)"/></mask><mask id="satori_om-id-0-0-0"><rect x="1" y="1" width="0" height="100" fill="#fff" mask="url(#satori_om-id)"/></mask><mask id="satori_om-id-0-0-0-0"><rect x="1" y="1" width="0" height="100" fill="#fff" mask="url(#satori_om-id)"/></mask><mask id="satori_om-id-0-0-0-1"><rect x="1" y="1" width="0" height="100" fill="#fff" mask="url(#satori_om-id)"/></mask><mask id="satori_om-id-0-0-1"><rect x="1" y="1" width="0" height="100" fill="#fff" mask="url(#satori_om-id)"/></mask><mask id="satori_om-id-0-0-1-0"><rect x="1" y="1" width="0" height="100" fill="#fff" mask="url(#satori_om-id)"/></mask><mask id="satori_om-id-0-0-1-1"><rect x="1" y="1" width="0" height="100" fill="#fff" mask="url(#satori_om-id)"/></mask><mask id="satori_om-id-0-0-1-2"><rect x="1" y="1" width="0" height="100" fill="#fff" mask="url(#satori_om-id)"/></mask><mask id="satori_om-id-0-0-1-3"><rect x="1" y="1" width="0" height="100" fill="#fff" mask="url(#satori_om-id)"/></mask><mask id="satori_om-id-0-0-1-4"><rect x="1" y="1" width="0" height="100" fill="#fff" mask="url(#satori_om-id)"/></mask><mask id="satori_om-id-0-1"><rect x="1" y="1" width="0" height="100" fill="#fff" mask="url(#satori_om-id)"/></mask><mask id="satori_om-id-0-2"><rect x="1" y="1" width="0" height="100" fill="#fff" mask="url(#satori_om-id)"/></mask><mask id="satori_om-id-1"><rect x="209" y="28" width="382" height="45" fill="#fff" mask="url(#satori_om-id)"/></mask><mask id="satori_om-id-1-0"><rect x="209" y="28" width="44" height="45" fill="#fff" mask="url(#satori_om-id)"/></mask><mask id="satori_om-id-1-0-0"><rect x="216" y="28" width="31" height="29" fill="#fff" mask="url(#satori_om-id)"/></mask><g mask="url(#satori_om-id)" clip-path="url(#satori_cp-id)"><path fill="#ffffff" d="M229.8 51L217.5 51L217.5 48.4L223.6 42.6Q224.4 41.8 225.0 41.2Q225.5 40.6 225.8 40.0Q226.1 39.4 226.1 38.7L226.1 38.7Q226.1 37.9 225.8 37.3Q225.4 36.8 224.8 36.5Q224.2 36.2 223.4 36.2L223.4 36.2Q222.6 36.2 222.0 36.5Q221.4 36.8 221.0 37.4Q220.7 38.0 220.7 38.9L220.7 38.9L217.3 38.9Q217.3 37.2 218.1 35.9Q218.8 34.7 220.2 34.0Q221.6 33.3 223.4 33.3L223.4 33.3Q225.3 33.3 226.7 34.0Q228.0 34.6 228.8 35.8Q229.6 36.9 229.6 38.5L229.6 38.5Q229.6 39.4 229.2 40.4Q228.8 41.3 227.8 42.5Q226.9 43.7 225.1 45.3L225.1 45.3L222.4 47.9L222.4 48.1L229.8 48.1L229.8 51ZM238.9 51.2L238.9 51.2Q237.0 51.2 235.5 50.6Q233.9 49.9 233.1 48.8Q232.2 47.7 232.2 46.3L232.2 46.3Q232.2 45.2 232.7 44.3Q233.2 43.4 234.1 42.8Q234.9 42.2 236.0 42.0L236.0 42.0L236.0 41.9Q234.6 41.6 233.7 40.5Q232.9 39.4 232.9 38.0L232.9 38.0Q232.9 36.6 233.6 35.6Q234.4 34.5 235.8 33.9Q237.2 33.3 238.9 33.3L238.9 33.3Q240.7 33.3 242.0 33.9Q243.4 34.5 244.2 35.6Q245.0 36.6 245.0 38.0L245.0 38.0Q245.0 39.4 244.1 40.5Q243.2 41.6 241.9 41.9L241.9 41.9L241.9 42.0Q242.9 42.2 243.8 42.8Q244.6 43.4 245.1 44.3Q245.6 45.2 245.6 46.3L245.6 46.3Q245.6 47.7 244.8 48.8Q243.9 49.9 242.4 50.6Q240.9 51.2 238.9 51.2ZM238.9 48.6L238.9 48.6Q239.8 48.6 240.5 48.3Q241.2 47.9 241.5 47.4Q241.9 46.8 241.9 46.0L241.9 46.0Q241.9 45.3 241.5 44.7Q241.1 44.1 240.5 43.7Q239.8 43.4 238.9 43.4L238.9 43.4Q238.1 43.4 237.4 43.7Q236.7 44.1 236.3 44.7Q235.9 45.2 235.9 46.0L235.9 46.0Q235.9 46.8 236.3 47.4Q236.7 47.9 237.4 48.3Q238.0 48.6 238.9 48.6ZM238.9 40.8L238.9 40.8Q239.7 40.8 240.3 40.5Q240.8 40.1 241.2 39.6Q241.5 39.1 241.5 38.4L241.5 38.4Q241.5 37.7 241.2 37.1Q240.8 36.6 240.3 36.3Q239.7 36.0 238.9 36.0L238.9 36.0Q238.2 36.0 237.6 36.3Q237 36.6 236.7 37.1Q236.3 37.7 236.3 38.4L236.3 38.4Q236.3 39.1 236.7 39.6Q237 40.1 237.6 40.5Q238.2 40.8 238.9 40.8Z "/></g><mask id="satori_om-id-1-0-1"><rect x="209" y="61" width="44" height="12" fill="#fff" mask="url(#satori_om-id)"/></mask><g mask="url(#satori_om-id)" clip-path="url(#satori_cp-id)"><path fill="#b8860b" d="M212.3 71.1L212.3 71.1Q211.5 71.1 210.8 70.8Q210.2 70.6 209.8 70.0Q209.4 69.5 209.4 68.7L209.4 68.7L210.9 68.7Q210.9 69.1 211.1 69.4Q211.3 69.6 211.6 69.7Q211.9 69.8 212.3 69.8L212.3 69.8Q212.7 69.8 213.0 69.7Q213.3 69.6 213.5 69.4Q213.6 69.2 213.6 68.9L213.6 68.9Q213.6 68.7 213.5 68.5Q213.3 68.3 213.1 68.2Q212.8 68.1 212.4 68.0L212.4 68.0L211.6 67.8Q210.7 67.6 210.1 67.1Q209.6 66.6 209.6 65.8L209.6 65.8Q209.6 65.2 210.0 64.7Q210.3 64.2 210.9 63.9Q211.6 63.6 212.3 63.6L212.3 63.6Q213.2 63.6 213.8 63.9Q214.4 64.2 214.7 64.7Q215.0 65.2 215.0 65.8L215.0 65.8L213.6 65.8Q213.6 65.4 213.2 65.1Q212.9 64.9 212.3 64.9L212.3 64.9Q212.0 64.9 211.7 65.0Q211.4 65.1 211.3 65.3Q211.1 65.5 211.1 65.7L211.1 65.7Q211.1 66.0 211.3 66.2Q211.5 66.3 211.7 66.5Q212.0 66.6 212.3 66.6L212.3 66.6L213.0 66.8Q213.4 66.9 213.8 67.1Q214.2 67.3 214.5 67.5Q214.8 67.8 215.0 68.1Q215.1 68.5 215.1 68.9L215.1 68.9Q215.1 69.6 214.8 70.1Q214.5 70.6 213.8 70.8Q213.2 71.1 212.3 71.1ZM220.1 65.0L217.9 65.0L217.9 63.7L223.9 63.7L223.9 65.0L221.6 65.0L221.6 71L220.1 71L220.1 65.0ZM228.1 71L226.5 71L228.9 63.7L230.9 63.7L233.4 71L231.8 71L231.2 69.3L228.6 69.3L228.1 71ZM229.0 68.1L230.8 68.1L230.6 67.5Q230.4 66.8 230.2 66L230.2 66Q230.1 65.5 229.9 64.9L229.9 64.9Q229.8 65.5 229.6 66.0L229.6 66.0Q229.4 66.8 229.2 67.5L229.2 67.5L229.0 68.1ZM237.8 71L236.3 71L236.3 63.7L239.2 63.7Q240.0 63.7 240.6 64.0Q241.2 64.3 241.5 64.8Q241.8 65.4 241.8 66.1Q241.8 66.8 241.5 67.3Q241.2 67.9 240.6 68.1L240.6 68.1Q240.5 68.1 240.5 68.2L240.5 68.2L242.0 71L240.4 71L239.0 68.4L237.8 68.4L237.8 71ZM237.8 65.0L237.8 67.2L238.9 67.2Q239.4 67.2 239.7 67.1Q240.0 66.9 240.1 66.7Q240.2 66.5 240.2 66.1L240.2 66.1Q240.2 65.7 240.1 65.5Q240.0 65.2 239.7 65.1Q239.4 65.0 238.9 65.0L238.9 65.0L237.8 65.0ZM247.6 71.1L247.6 71.1Q246.7 71.1 246.1 70.8Q245.4 70.6 245.1 70.0Q244.7 69.5 244.7 68.7L244.7 68.7L246.1 68.7Q246.2 69.1 246.3 69.4Q246.5 69.6 246.8 69.7Q247.2 69.8 247.6 69.8L247.6 69.8Q248.0 69.8 248.3 69.7Q248.6 69.6 248.7 69.4Q248.9 69.2 248.9 68.9L248.9 68.9Q248.9 68.7 248.7 68.5Q248.6 68.3 248.3 68.2Q248.0 68.1 247.6 68.0L247.6 68.0L246.8 67.8Q245.9 67.6 245.4 67.1Q244.9 66.6 244.9 65.8L244.9 65.8Q244.9 65.2 245.2 64.7Q245.6 64.2 246.2 63.9Q246.8 63.6 247.6 63.6L247.6 63.6Q248.4 63.6 249.0 63.9Q249.6 64.2 249.9 64.7Q250.3 65.2 250.3 65.8L250.3 65.8L248.9 65.8Q248.8 65.4 248.5 65.1Q248.1 64.9 247.6 64.9L247.6 64.9Q247.2 64.9 246.9 65.0Q246.7 65.1 246.5 65.3Q246.4 65.5 246.4 65.7L246.4 65.7Q246.4 66.0 246.6 66.2Q246.7 66.3 247.0 66.5Q247.3 66.6 247.6 66.6L247.6 66.6L248.2 66.8Q248.7 66.9 249.1 67.1Q249.5 67.3 249.8 67.5Q250.1 67.8 250.2 68.1Q250.4 68.5 250.4 68.9L250.4 68.9Q250.4 69.6 250.1 70.1Q249.7 70.6 249.1 70.8Q248.5 71.1 247.6 71.1Z "/></g><mask id="satori_om-id-1-1"><rect x="283" y="31" width="1" height="40" fill="#fff" mask="url(#satori_om-id)"/></mask><rect x="283" y="31" width="1" height="40" fill="rgba(120,80,220,0.2)" clip-path="url(#satori_cp-id)" mask="url(#satori_om-id)"/><mask id="satori_om-id-1-2"><rect x="314" y="28" width="44" height="45" fill="#fff" mask="url(#satori_om-id)"/></mask><mask id="satori_om-id-1-2-0"><rect x="328" y="28" width="17" height="29" fill="#fff" mask="url(#satori_om-id)"/></mask><g mask="url(#satori_om-id)" clip-path="url(#satori_cp-id)"><path fill="#ffffff" d="M337.5 47.9L329.2 47.9L329.2 45.1L336.5 33.5L341.0 33.5L341.0 45.0L343.2 45.0L343.2 47.9L341.0 47.9L341.0 51L337.5 51L337.5 47.9ZM332.8 45.0L337.6 45.0L337.6 37.5L337.5 37.5L332.8 44.9L332.8 45.0Z "/></g><mask id="satori_om-id-1-2-1"><rect x="314" y="61" width="44" height="12" fill="#fff" mask="url(#satori_om-id)"/></mask><g mask="url(#satori_om-id)" clip-path="url(#satori_cp-id)"><path fill="#8b7ec8" d="M316.1 71L314.7 71L314.7 63.7L319.4 63.7L319.4 65.0L316.1 65.0L316.1 67.0L319.1 67.0L319.1 68.2L316.1 68.2L316.1 71ZM325.7 71.1L325.7 71.1Q324.8 71.1 324.0 70.7Q323.2 70.2 322.8 69.4Q322.3 68.5 322.3 67.4L322.3 67.4Q322.3 66.2 322.8 65.3Q323.2 64.5 324.0 64.1Q324.8 63.6 325.7 63.6L325.7 63.6Q326.7 63.6 327.5 64.1Q328.2 64.5 328.7 65.3Q329.1 66.2 329.1 67.4L329.1 67.4Q329.1 68.5 328.7 69.4Q328.2 70.2 327.5 70.7Q326.7 71.1 325.7 71.1ZM325.7 69.8L325.7 69.8Q326.3 69.8 326.7 69.5Q327.1 69.2 327.4 68.7Q327.6 68.1 327.6 67.4L327.6 67.4Q327.6 66.6 327.4 66.0Q327.1 65.5 326.7 65.2Q326.3 65.0 325.7 65.0L325.7 65.0Q325.2 65.0 324.7 65.2Q324.3 65.5 324.1 66.0Q323.8 66.6 323.8 67.4L323.8 67.4Q323.8 68.1 324.1 68.7Q324.3 69.2 324.7 69.5Q325.2 69.8 325.7 69.8ZM333.7 71L332.2 71L332.2 63.7L335.1 63.7Q335.9 63.7 336.5 64.0Q337.1 64.3 337.4 64.8Q337.7 65.4 337.7 66.1Q337.7 66.8 337.4 67.3Q337.1 67.9 336.5 68.1L336.5 68.1Q336.4 68.1 336.4 68.2L336.4 68.2L337.9 71L336.3 71L334.9 68.4L333.7 68.4L333.7 71ZM333.7 65.0L333.7 67.2L334.8 67.2Q335.3 67.2 335.5 67.1Q335.8 66.9 336.0 66.7Q336.1 66.5 336.1 66.1L336.1 66.1Q336.1 65.7 336.0 65.5Q335.8 65.2 335.5 65.1Q335.3 65.0 334.8 65.0L334.8 65.0L333.7 65.0ZM342.3 71L340.8 71L340.8 63.7L342.3 63.7L342.3 65.7L342.3 67.4Q342.3 67.3 342.3 67.3L342.3 67.3Q342.6 66.9 342.8 66.6Q343.1 66.2 343.4 65.8L343.4 65.8L345.2 63.7L347.0 63.7L344.3 66.9L347.1 71L345.3 71L343.3 67.9L342.3 68.9L342.3 71ZM352.7 71.1L352.7 71.1Q351.8 71.1 351.1 70.8Q350.5 70.6 350.1 70.0Q349.8 69.5 349.7 68.7L349.7 68.7L351.2 68.7Q351.2 69.1 351.4 69.4Q351.6 69.6 351.9 69.7Q352.2 69.8 352.6 69.8L352.6 69.8Q353.0 69.8 353.3 69.7Q353.6 69.6 353.8 69.4Q354.0 69.2 354.0 68.9L354.0 68.9Q354.0 68.7 353.8 68.5Q353.7 68.3 353.4 68.2Q353.1 68.1 352.7 68.0L352.7 68.0L351.9 67.8Q351.0 67.6 350.5 67.1Q349.9 66.6 349.9 65.8L349.9 65.8Q349.9 65.2 350.3 64.7Q350.7 64.2 351.3 63.9Q351.9 63.6 352.7 63.6L352.7 63.6Q353.5 63.6 354.1 63.9Q354.7 64.2 355.0 64.7Q355.4 65.2 355.4 65.8L355.4 65.8L353.9 65.8Q353.9 65.4 353.6 65.1Q353.2 64.9 352.7 64.9L352.7 64.9Q352.3 64.9 352.0 65.0Q351.8 65.1 351.6 65.3Q351.5 65.5 351.5 65.7L351.5 65.7Q351.5 66.0 351.6 66.2Q351.8 66.3 352.1 66.5Q352.3 66.6 352.6 66.6L352.6 66.6L353.3 66.8Q353.8 66.9 354.1 67.1Q354.5 67.3 354.8 67.5Q355.1 67.8 355.3 68.1Q355.5 68.5 355.5 68.9L355.5 68.9Q355.5 69.6 355.1 70.1Q354.8 70.6 354.2 70.8Q353.5 71.1 352.7 71.1Z "/></g><mask id="satori_om-id-1-3"><rect x="388" y="31" width="1" height="40" fill="#fff" mask="url(#satori_om-id)"/></mask><rect x="388" y="31" width="1" height="40" fill="rgba(120,80,220,0.2)" clip-path="url(#satori_cp-id)" mask="url(#satori_om-id)"/><mask id="satori_om-id-1-4"><rect x="419" y="28" width="44" height="45" fill="#fff" mask="url(#satori_om-id)"/></mask><mask id="satori_om-id-1-4-0"><rect x="426" y="28" width="31" height="29" fill="#fff" mask="url(#satori_om-id)"/></mask><g mask="url(#satori_om-id)" clip-path="url(#satori_cp-id)"><path fill="#ffffff" d="M433.4 51.2L433.4 51.2Q431.6 51.2 430.2 50.6Q428.8 49.9 428.0 48.8Q427.1 47.6 427.1 46.1L427.1 46.1L430.6 46.1Q430.6 46.8 431.0 47.3Q431.4 47.8 432 48.1Q432.6 48.4 433.4 48.4L433.4 48.4Q434.2 48.4 434.9 48.0Q435.6 47.6 436.0 46.9Q436.4 46.2 436.4 45.3L436.4 45.3Q436.4 44.4 436.0 43.6Q435.6 42.9 434.9 42.5Q434.2 42.1 433.3 42.1L433.3 42.1Q432.5 42.1 431.8 42.4Q431.1 42.7 430.7 43.3L430.7 43.3L427.5 42.7L428.3 33.5L438.9 33.5L438.9 36.5L431.3 36.5L430.8 40.9L430.9 40.9Q431.4 40.3 432.3 39.9Q433.2 39.5 434.3 39.5L434.3 39.5Q435.5 39.5 436.5 39.9Q437.5 40.3 438.3 41.1Q439.0 41.8 439.4 42.9Q439.8 43.9 439.8 45.2L439.8 45.2Q439.8 47.0 439.0 48.3Q438.2 49.7 436.7 50.5Q435.3 51.2 433.4 51.2ZM448.4 51.3L448.4 51.3Q446.7 51.3 445.3 50.6Q444 49.9 443.2 48.7Q442.4 47.6 442.2 46.1L442.2 46.1L445.7 46.1Q446.0 47.1 446.6 47.6Q447.3 48.2 448.4 48.2L448.4 48.2Q449.5 48.2 450.3 47.5Q451.1 46.8 451.5 45.5Q451.9 44.3 451.9 42.6L451.9 42.6L451.8 42.6Q451.4 43.3 450.7 43.9Q450.1 44.4 449.2 44.7Q448.4 45.0 447.4 45.0L447.4 45.0Q445.9 45.0 444.7 44.3Q443.4 43.6 442.7 42.3Q442.0 41.0 442.0 39.4L442.0 39.4Q442.0 37.6 442.9 36.2Q443.7 34.8 445.1 34.0Q446.6 33.3 448.5 33.3L448.5 33.3Q449.9 33.3 451.1 33.7Q452.3 34.2 453.3 35.2Q454.3 36.2 454.9 37.8Q455.4 39.4 455.4 41.8L455.4 41.8Q455.4 44.1 454.9 45.8Q454.4 47.5 453.5 48.8Q452.6 50.0 451.3 50.6Q450.0 51.3 448.4 51.3ZM448.5 42.4L448.5 42.4Q449.2 42.4 449.7 42.1Q450.3 41.9 450.7 41.5Q451.1 41.0 451.3 40.5Q451.6 39.9 451.6 39.2L451.6 39.2Q451.6 38.4 451.2 37.7Q450.8 37.0 450.1 36.6Q449.4 36.1 448.5 36.1L448.5 36.1Q447.7 36.1 447.0 36.6Q446.3 37.0 445.9 37.7Q445.5 38.4 445.5 39.3L445.5 39.3Q445.5 40.1 445.9 40.9Q446.3 41.6 447.0 42.0Q447.6 42.4 448.5 42.4Z "/></g><mask id="satori_om-id-1-4-1"><rect x="419" y="61" width="44" height="12" fill="#fff" mask="url(#satori_om-id)"/></mask><g mask="url(#satori_om-id)" clip-path="url(#satori_cp-id)"><path fill="#5a9ca8" d="M421.1 71L419.7 71L419.7 63.7L422.5 63.7Q423.3 63.7 423.9 64.0Q424.5 64.3 424.8 64.8Q425.1 65.4 425.1 66.1Q425.1 66.8 424.8 67.3Q424.5 67.9 423.9 68.1L423.9 68.1Q423.8 68.1 423.8 68.2L423.8 68.2L425.4 71L423.7 71L422.3 68.4L421.1 68.4L421.1 71ZM421.1 65.0L421.1 67.2L422.2 67.2Q422.7 67.2 423.0 67.1Q423.3 66.9 423.4 66.7Q423.6 66.5 423.6 66.1L423.6 66.1Q423.6 65.7 423.4 65.5Q423.3 65.2 423.0 65.1Q422.7 65.0 422.2 65.0L422.2 65.0L421.1 65.0ZM433.1 71L428.2 71L428.2 63.7L433.1 63.7L433.1 65.0L429.7 65.0L429.7 66.7L432.8 66.7L432.8 67.9L429.7 67.9L429.7 69.8L433.1 69.8L433.1 71ZM437.8 71L436.3 71L436.3 63.7L439.1 63.7Q440.0 63.7 440.5 64.0Q441.1 64.4 441.4 64.9Q441.7 65.5 441.7 66.2L441.7 66.2Q441.7 66.9 441.4 67.5Q441.1 68.0 440.5 68.3Q439.9 68.6 439.1 68.6L439.1 68.6L437.8 68.6L437.8 71ZM437.8 65.0L437.8 67.4L438.9 67.4Q439.3 67.4 439.6 67.3Q439.9 67.1 440.1 66.8Q440.2 66.5 440.2 66.2Q440.2 65.8 440.1 65.5Q439.9 65.3 439.6 65.1Q439.3 65.0 438.9 65.0L438.9 65.0L437.8 65.0ZM448.0 71.1L448.0 71.1Q447.0 71.1 446.2 70.7Q445.5 70.2 445.0 69.4Q444.6 68.5 444.6 67.4L444.6 67.4Q444.6 66.2 445.0 65.3Q445.5 64.5 446.2 64.1Q447.0 63.6 448.0 63.6L448.0 63.6Q448.9 63.6 449.7 64.1Q450.5 64.5 450.9 65.3Q451.4 66.2 451.4 67.4L451.4 67.4Q451.4 68.5 450.9 69.4Q450.5 70.2 449.7 70.7Q448.9 71.1 448.0 71.1ZM448.0 69.8L448.0 69.8Q448.5 69.8 449.0 69.5Q449.4 69.2 449.6 68.7Q449.9 68.1 449.9 67.4L449.9 67.4Q449.9 66.6 449.6 66.0Q449.4 65.5 449.0 65.2Q448.5 65.0 448.0 65.0L448.0 65.0Q447.4 65.0 447.0 65.2Q446.6 65.5 446.3 66.0Q446.1 66.6 446.1 67.4L446.1 67.4Q446.1 68.1 446.3 68.7Q446.6 69.2 447.0 69.5Q447.4 69.8 448.0 69.8ZM457.2 71.1L457.2 71.1Q456.3 71.1 455.6 70.8Q455.0 70.6 454.6 70.0Q454.3 69.5 454.2 68.7L454.2 68.7L455.7 68.7Q455.7 69.1 455.9 69.4Q456.1 69.6 456.4 69.7Q456.7 69.8 457.1 69.8L457.1 69.8Q457.5 69.8 457.8 69.7Q458.1 69.6 458.3 69.4Q458.5 69.2 458.5 68.9L458.5 68.9Q458.5 68.7 458.3 68.5Q458.2 68.3 457.9 68.2Q457.6 68.1 457.2 68.0L457.2 68.0L456.4 67.8Q455.5 67.6 455.0 67.1Q454.4 66.6 454.4 65.8L454.4 65.8Q454.4 65.2 454.8 64.7Q455.1 64.2 455.8 63.9Q456.4 63.6 457.2 63.6L457.2 63.6Q458.0 63.6 458.6 63.9Q459.2 64.2 459.5 64.7Q459.9 65.2 459.9 65.8L459.9 65.8L458.4 65.8Q458.4 65.4 458.0 65.1Q457.7 64.9 457.2 64.9L457.2 64.9Q456.8 64.9 456.5 65.0Q456.2 65.1 456.1 65.3Q456.0 65.5 456.0 65.7L456.0 65.7Q456.0 66.0 456.1 66.2Q456.3 66.3 456.6 66.5Q456.8 66.6 457.1 66.6L457.1 66.6L457.8 66.8Q458.2 66.9 458.6 67.1Q459.0 67.3 459.3 67.5Q459.6 67.8 459.8 68.1Q460.0 68.5 460.0 68.9L460.0 68.9Q460.0 69.6 459.6 70.1Q459.3 70.6 458.7 70.8Q458.0 71.1 457.2 71.1Z "/></g><mask id="satori_om-id-1-5"><rect x="493" y="31" width="1" height="40" fill="#fff" mask="url(#satori_om-id)"/></mask><rect x="493" y="31" width="1" height="40" fill="rgba(120,80,220,0.2)" clip-path="url(#satori_cp-id)" mask="url(#satori_om-id)"/><mask id="satori_om-id-1-6"><rect x="524" y="28" width="67" height="45" fill="#fff" mask="url(#satori_om-id)"/></mask><mask id="satori_om-id-1-6-0"><rect x="524" y="28" width="67" height="29" fill="#fff" mask="url(#satori_om-id)"/></mask><g mask="url(#satori_om-id)" clip-path="url(#satori_cp-id)"><path fill="#ffffff" d="M533.5 47.9L525.2 47.9L525.2 45.1L532.5 33.5L537.0 33.5L537.0 45.0L539.2 45.0L539.2 47.9L537.0 47.9L537.0 51L533.5 51L533.5 47.9ZM528.8 45.0L533.6 45.0L533.6 37.5L533.5 37.5L528.8 44.9L528.8 45.0ZM544.3 33.5L548.1 33.5L548.1 51L544.5 51L544.5 36.7L544.4 36.7L540.4 39.5L540.4 36.2L544.3 33.5ZM557.0 51.2L557.0 51.2Q555.2 51.2 553.8 50.6Q552.4 49.9 551.6 48.8Q550.8 47.6 550.8 46.1L550.8 46.1L554.2 46.1Q554.3 46.8 554.7 47.3Q555.0 47.8 555.7 48.1Q556.3 48.4 557.0 48.4L557.0 48.4Q557.9 48.4 558.6 48.0Q559.3 47.6 559.6 46.9Q560.0 46.2 560.0 45.3L560.0 45.3Q560.0 44.4 559.6 43.6Q559.2 42.9 558.6 42.5Q557.9 42.1 557.0 42.1L557.0 42.1Q556.2 42.1 555.5 42.4Q554.7 42.7 554.3 43.3L554.3 43.3L551.1 42.7L552.0 33.5L562.5 33.5L562.5 36.5L554.9 36.5L554.5 40.9L554.6 40.9Q555.0 40.3 556.0 39.9Q556.9 39.5 558.0 39.5L558.0 39.5Q559.2 39.5 560.2 39.9Q561.2 40.3 561.9 41.1Q562.7 41.8 563.1 42.9Q563.5 43.9 563.5 45.2L563.5 45.2Q563.5 47.0 562.7 48.3Q561.9 49.7 560.4 50.5Q558.9 51.2 557.0 51.2ZM569.5 33.5L573.4 33.5L573.4 51L569.8 51L569.8 36.7L569.7 36.7L565.7 39.5L565.7 36.2L569.5 33.5ZM582.3 51.2L582.3 51.2Q580.5 51.2 579.1 50.6Q577.7 49.9 576.9 48.8Q576.1 47.6 576.0 46.1L576.0 46.1L579.5 46.1Q579.6 46.8 579.9 47.3Q580.3 47.8 580.9 48.1Q581.6 48.4 582.3 48.4L582.3 48.4Q583.2 48.4 583.9 48.0Q584.5 47.6 584.9 46.9Q585.3 46.2 585.3 45.3L585.3 45.3Q585.3 44.4 584.9 43.6Q584.5 42.9 583.8 42.5Q583.1 42.1 582.2 42.1L582.2 42.1Q581.5 42.1 580.7 42.4Q580.0 42.7 579.6 43.3L579.6 43.3L576.4 42.7L577.2 33.5L587.8 33.5L587.8 36.5L580.2 36.5L579.8 40.9L579.9 40.9Q580.3 40.3 581.2 39.9Q582.2 39.5 583.3 39.5L583.3 39.5Q584.5 39.5 585.5 39.9Q586.5 40.3 587.2 41.1Q587.9 41.8 588.4 42.9Q588.8 43.9 588.8 45.2L588.8 45.2Q588.8 47.0 588.0 48.3Q587.1 49.7 585.7 50.5Q584.2 51.2 582.3 51.2Z "/></g><mask id="satori_om-id-1-6-1"><rect x="526" y="61" width="64" height="12" fill="#fff" mask="url(#satori_om-id)"/></mask><g mask="url(#satori_om-id)" clip-path="url(#satori_cp-id)"><path fill="#7ee7ff" d="M529.8 71.1L529.8 71.1Q528.9 71.1 528.1 70.7Q527.3 70.2 526.9 69.4Q526.5 68.5 526.5 67.4L526.5 67.4Q526.5 66.2 526.9 65.3Q527.3 64.5 528.1 64.1Q528.9 63.6 529.8 63.6L529.8 63.6Q530.5 63.6 531.0 63.8Q531.5 64.0 531.9 64.3Q532.4 64.6 532.6 65.1Q532.9 65.6 533.0 66.2L533.0 66.2L531.5 66.2Q531.4 65.9 531.3 65.7Q531.1 65.4 530.9 65.3Q530.7 65.1 530.4 65.0Q530.2 65.0 529.9 65.0L529.9 65.0Q529.3 65.0 528.9 65.2Q528.4 65.5 528.2 66.1Q528.0 66.6 528.0 67.4L528.0 67.4Q528.0 68.2 528.2 68.7Q528.5 69.2 528.9 69.5Q529.3 69.8 529.9 69.8L529.9 69.8Q530.2 69.8 530.4 69.7Q530.7 69.6 530.9 69.4Q531.1 69.3 531.3 69.0Q531.4 68.8 531.5 68.5L531.5 68.5L533.0 68.5Q532.9 69.0 532.7 69.5Q532.4 69.9 532.0 70.3Q531.6 70.7 531.1 70.9Q530.5 71.1 529.8 71.1ZM539.3 71.1L539.3 71.1Q538.3 71.1 537.5 70.7Q536.8 70.2 536.3 69.4Q535.9 68.5 535.9 67.4L535.9 67.4Q535.9 66.2 536.3 65.3Q536.8 64.5 537.5 64.1Q538.3 63.6 539.3 63.6L539.3 63.6Q540.2 63.6 541.0 64.1Q541.8 64.5 542.2 65.3Q542.6 66.2 542.6 67.4L542.6 67.4Q542.6 68.5 542.2 69.4Q541.8 70.2 541.0 70.7Q540.2 71.1 539.3 71.1ZM539.3 69.8L539.3 69.8Q539.8 69.8 540.2 69.5Q540.7 69.2 540.9 68.7Q541.1 68.1 541.1 67.4L541.1 67.4Q541.1 66.6 540.9 66.0Q540.7 65.5 540.2 65.2Q539.8 65.0 539.3 65.0L539.3 65.0Q538.7 65.0 538.3 65.2Q537.8 65.5 537.6 66.0Q537.4 66.6 537.4 67.4L537.4 67.4Q537.4 68.1 537.6 68.7Q537.8 69.2 538.3 69.5Q538.7 69.8 539.3 69.8ZM547.2 71L545.8 71L545.8 63.7L548.0 63.7L549.2 67.1Q549.3 67.3 549.4 67.7Q549.5 68.0 549.6 68.5L549.6 68.5Q549.7 68.9 549.8 69.3L549.8 69.3Q549.9 68.9 549.9 68.5L549.9 68.5Q550.0 68.1 550.1 67.7Q550.2 67.3 550.3 67.1L550.3 67.1L551.5 63.7L553.8 63.7L553.8 71L552.3 71L552.3 67.6Q552.3 67.3 552.3 67.0Q552.3 66.6 552.3 66.2Q552.3 65.8 552.3 65.4L552.3 65.4Q552.3 65.2 552.3 65.0L552.3 65.0Q552.3 65.2 552.2 65.4L552.2 65.4Q552.1 65.9 552.0 66.3Q551.9 66.7 551.8 67.0Q551.7 67.3 551.6 67.6L551.6 67.6L550.4 71L549.1 71L547.9 67.6Q547.8 67.3 547.7 67.0Q547.6 66.7 547.5 66.3Q547.4 65.9 547.3 65.4L547.3 65.4Q547.2 65.2 547.2 65.1L547.2 65.1Q547.2 65.2 547.2 65.4L547.2 65.4Q547.2 65.8 547.2 66.2Q547.2 66.6 547.2 67.0Q547.2 67.3 547.2 67.6L547.2 67.6L547.2 71ZM558.6 71L557.1 71L557.1 63.7L559.4 63.7L560.5 67.1Q560.6 67.3 560.7 67.7Q560.8 68.0 560.9 68.5L560.9 68.5Q561.0 68.9 561.1 69.3L561.1 69.3Q561.2 68.9 561.3 68.5L561.3 68.5Q561.4 68.1 561.5 67.7Q561.6 67.3 561.6 67.1L561.6 67.1L562.8 63.7L565.1 63.7L565.1 71L563.6 71L563.6 67.6Q563.6 67.3 563.6 67.0Q563.6 66.6 563.6 66.2Q563.6 65.8 563.6 65.4L563.6 65.4Q563.6 65.2 563.6 65.0L563.6 65.0Q563.6 65.2 563.5 65.4L563.5 65.4Q563.4 65.9 563.3 66.3Q563.2 66.7 563.1 67.0Q563.0 67.3 562.9 67.6L562.9 67.6L561.7 71L560.5 71L559.2 67.6Q559.2 67.3 559.1 67.0Q558.9 66.7 558.8 66.3Q558.7 65.9 558.6 65.4L558.6 65.4Q558.6 65.2 558.5 65.1L558.5 65.1Q558.5 65.2 558.5 65.4L558.5 65.4Q558.5 65.8 558.5 66.2Q558.5 66.6 558.6 67.0Q558.6 67.3 558.6 67.6L558.6 67.6L558.6 71ZM568.4 63.7L569.9 63.7L569.9 71L568.4 71L568.4 63.7ZM575.1 65.0L572.9 65.0L572.9 63.7L578.9 63.7L578.9 65.0L576.6 65.0L576.6 71L575.1 71L575.1 65.0ZM584.5 71.1L584.5 71.1Q583.7 71.1 583.0 70.8Q582.4 70.6 582.0 70.0Q581.7 69.5 581.6 68.7L581.6 68.7L583.1 68.7Q583.1 69.1 583.3 69.4Q583.5 69.6 583.8 69.7Q584.1 69.8 584.5 69.8L584.5 69.8Q584.9 69.8 585.2 69.7Q585.5 69.6 585.7 69.4Q585.9 69.2 585.9 68.9L585.9 68.9Q585.9 68.7 585.7 68.5Q585.6 68.3 585.3 68.2Q585.0 68.1 584.6 68.0L584.6 68.0L583.8 67.8Q582.9 67.6 582.4 67.1Q581.8 66.6 581.8 65.8L581.8 65.8Q581.8 65.2 582.2 64.7Q582.5 64.2 583.2 63.9Q583.8 63.6 584.6 63.6L584.6 63.6Q585.4 63.6 586.0 63.9Q586.6 64.2 586.9 64.7Q587.2 65.2 587.3 65.8L587.3 65.8L585.8 65.8Q585.8 65.4 585.4 65.1Q585.1 64.9 584.5 64.9L584.5 64.9Q584.2 64.9 583.9 65.0Q583.6 65.1 583.5 65.3Q583.4 65.5 583.4 65.7L583.4 65.7Q583.4 66.0 583.5 66.2Q583.7 66.3 583.9 66.5Q584.2 66.6 584.5 66.6L584.5 66.6L585.2 66.8Q585.6 66.9 586.0 67.1Q586.4 67.3 586.7 67.5Q587.0 67.8 587.2 68.1Q587.4 68.5 587.4 68.9L587.4 68.9Q587.4 69.6 587.0 70.1Q586.7 70.6 586.1 70.8Q585.4 71.1 584.5 71.1Z "/></g></svg>