<!-- Generated by readme-aura https://github.com/collectioneur/readme-aura -->
<svg width="800" height="180" viewBox="0 0 800 180" xmlns="http://www.w3.org/2000/svg"><defs><clipPath id="satori_bc-id"><path x="0" y="0" width="800" height="180" d="M16,0 h768 a16,16 0 0 1 16,16 v148 a16,16 0 0 1 -16,16 h-768 a16,16 0 0 1 -16,-16 v-148 a16,16 0 0 1 16,-16"/></clipPath></defs><clipPath id="satori_cp-id"><path x="0" y="0" width="800" height="180" d="M16,0 h768 a16,16 0 0 1 16,16 v148 a16,16 0 0 1 -16,16 h-768 a16,16 0 0 1 -16,-16 v-148 a16,16 0 0 1 16,-16"/></clipPath><mask id="satori_om-id"><rect x="1" y="1" width="798" height="178" fill="#fff"/><path width="800" height="180" fill="none" stroke="#000" stroke-width="2" d="M4.686,4.686 A16,16 0 0 1 16,0 h768 a16,16 0 0 1 16,16 v148 a16,16 0 0 1 -16,16 h-768 a16,16 0 0 1 -16,-16 v-148 A16,16 0 0 1 4.686,4.686"/></mask><path x="0" y="0" width="800" height="180" fill="#06060a" d="M16,0 h768 a16,16 0 0 1 16,16 v148 a16,16 0 0 1 -16,16 h-768 a16,16 0 0 1 -16,-16 v-148 a16,16 0 0 1 16,-16"/><path width="800" height="180" clip-path="url(#satori_bc-id)" fill="none" stroke="rgba(110,80,220,0.15)" stroke-width="2" d="M4.686,4.686 A16,16 0 0 1 16,0 h768 a16,16 0 0 1 16,16 v148 a16,16 0 0 1 -16,16 h-768 a16,16 0 0 1 -16,-16 v-148 A16,16 0 0 1 4.686,4.686"/><clipPath id="satori_cp-id-0" clip-path="url(#satori_cp-id)"><rect x="1" y="1" width="800" height="180"/></clipPath><mask id="satori_om-id-0"><rect x="1" y="1" width="800" height="180" fill="#fff" mask="url(#satori_om-id)"/></mask><svg x="1" y="1" width="800" height="180" preserveAspectRatio="none" clip-path="url(#satori_cp-id-0)" mask="url(#satori_om-id-0)"><defs><radialGradient id="lng1" cx="50%" cy="50%" r="50%"><stop offset="0%" stop-color="rgba(80,40,200,0.4)"></stop><stop offset="100%" stop-color="rgba(80,40,200,0)"></stop></radialGradient><radialGradient id="lng2" cx="50%" cy="50%" r="50%"><stop offset="0%" stop-color="rgba(0,160,220,0.35)"></stop><stop offset="100%" stop-color="rgba(0,160,220,0)"></stop></radialGradient></defs><ellipse id="lang-g1" cx="650" cy="90" rx="180" ry="100" fill="url(#lng1)"></ellipse><ellipse id="lang-g2" cx="150" cy="100" rx="160" ry="90" fill="url(#lng2)"></ellipse><style>

      @keyframes lang-drift-r { 0%, 100% { transform: translate(0, 0); opacity: 0.6; } 50% { transform: translate(30px, -15px); opacity: 1; } }
      @keyframes lang-drift-l { 0%, 100% { transform: translate(0, 0); opacity: 0.55; } 50% { transform: translate(-25px, 12px); opacity: 0.9; } }
      #lang-g1 { animation: lang-drift-r 8s ease-in-out infinite; }
      #lang-g2 { animation: lang-drift-l 7s ease-in-out infinite 0.3s; }
    
</style>
</svg><mask id="satori_om-id-0-0"><rect x="1" y="1" width="0" height="180" fill="#fff" mask="url(#satori_om-id)"/></mask><mask id="satori_om-id-0-0-0"><rect x="1" y="1" width="0" height="180" fill="#fff" mask="url(#satori_om-id)"/></mask><mask id="satori_om-id-0-0-0-0"><rect x="1" y="1" width="0" height="180" fill="#fff" mask="url(#satori_om-id)"/></mask><mask id="satori_om-id-0-0-0-1"><rect x="1" y="1" width="0" height="180" fill="#fff" mask="url(#satori_om-id)"/></mask><mask id="satori_om-id-0-0-1"><rect x="1" y="1" width="0" height="180" fill="#fff" mask="url(#satori_om-id)"/></mask><mask id="satori_om-id-0-0-1-0"><rect x="1" y="1" width="0" height="180" fill="#fff" mask="url(#satori_om-id)"/></mask><mask id="satori_om-id-0-0-1-1"><rect x="1" y="1" width="0" height="180" fill="#fff" mask="url(#satori_om-id)"/></mask><mask id="satori_om-id-0-1"><rect x="1" y="1" width="0" height="180" fill="#fff" mask="url(#satori_om-id)"/></mask><mask id="satori_om-id-0-2"><rect x="1" y="1" width="0" height="180" fill="#fff" mask="url(#satori_om-id)"/></mask><mask id="satori_om-id-1"><rect x="25" y="25" width="750" height="12" fill="#fff" mask="url(#satori_om-id)"/></mask><g mask="url(#satori_om-id)" clip-path="url(#satori_cp-id)"><path fill="rgba(120,200,255,0.7)" d="M27.1 35L25.7 35L25.7 27.7L27.9 27.7L29.1 31.1Q29.2 31.3 29.3 31.7Q29.4 32.0 29.5 32.5L29.5 32.5Q29.6 32.9 29.7 33.3L29.7 33.3Q29.8 32.9 29.8 32.5L29.8 32.5Q29.9 32.1 30.0 31.7Q30.1 31.3 30.2 31.1L30.2 31.1L31.4 27.7L33.7 27.7L33.7 35L32.2 35L32.2 31.6Q32.2 31.3 32.2 31.0Q32.2 30.6 32.2 30.2Q32.2 29.8 32.2 29.4L32.2 29.4Q32.2 29.2 32.2 29.0L32.2 29.0Q32.2 29.2 32.1 29.4L32.1 29.4Q32.0 29.9 31.9 30.3Q31.8 30.7 31.7 31.0Q31.6 31.3 31.5 31.6L31.5 31.6L30.3 35L29.0 35L27.8 31.6Q27.7 31.3 27.6 31.0Q27.5 30.7 27.4 30.3Q27.3 29.9 27.2 29.4L27.2 29.4Q27.1 29.2 27.1 29.1L27.1 29.1Q27.1 29.2 27.1 29.4L27.1 29.4Q27.1 29.8 27.1 30.2Q27.1 30.6 27.1 31.0Q27.1 31.3 27.1 31.6L27.1 31.6L27.1 35ZM41.2 35.1L41.2 35.1Q40.2 35.1 39.4 34.7Q38.7 34.2 38.2 33.4Q37.8 32.5 37.8 31.4L37.8 31.4Q37.8 30.2 38.2 29.3Q38.7 28.5 39.4 28.1Q40.2 27.6 41.2 27.6L41.2 27.6Q42.1 27.6 42.9 28.1Q43.7 28.5 44.1 29.3Q44.6 30.2 44.6 31.4L44.6 31.4Q44.6 32.5 44.1 33.4Q43.7 34.2 42.9 34.7Q42.1 35.1 41.2 35.1ZM41.2 33.8L41.2 33.8Q41.7 33.8 42.2 33.5Q42.6 33.2 42.8 32.7Q43.0 32.1 43.0 31.4L43.0 31.4Q43.0 30.6 42.8 30.0Q42.6 29.5 42.2 29.2Q41.7 29.0 41.2 29.0L41.2 29.0Q40.6 29.0 40.2 29.2Q39.8 29.5 39.5 30.0Q39.3 30.6 39.3 31.4L39.3 31.4Q39.3 32.1 39.5 32.7Q39.8 33.2 40.2 33.5Q40.6 33.8 41.2 33.8ZM51.3 35.1L51.3 35.1Q50.5 35.1 49.8 34.8Q49.2 34.6 48.8 34.0Q48.5 33.5 48.4 32.7L48.4 32.7L49.9 32.7Q49.9 33.1 50.1 33.4Q50.3 33.6 50.6 33.7Q50.9 33.8 51.3 33.8L51.3 33.8Q51.7 33.8 52.0 33.7Q52.3 33.6 52.5 33.4Q52.7 33.2 52.7 32.9L52.7 32.9Q52.7 32.7 52.5 32.5Q52.4 32.3 52.1 32.2Q51.8 32.1 51.4 32.0L51.4 32.0L50.6 31.8Q49.7 31.6 49.2 31.1Q48.6 30.6 48.6 29.8L48.6 29.8Q48.6 29.2 49.0 28.7Q49.3 28.2 50.0 27.9Q50.6 27.6 51.4 27.6L51.4 27.6Q52.2 27.6 52.8 27.9Q53.4 28.2 53.7 28.7Q54.0 29.2 54.1 29.8L54.1 29.8L52.6 29.8Q52.6 29.4 52.2 29.1Q51.9 28.9 51.4 28.9L51.4 28.9Q51.0 28.9 50.7 29.0Q50.4 29.1 50.3 29.3Q50.2 29.5 50.2 29.7L50.2 29.7Q50.2 30.0 50.3 30.2Q50.5 30.3 50.8 30.5Q51.0 30.6 51.3 30.6L51.3 30.6L52.0 30.8Q52.4 30.9 52.8 31.1Q53.2 31.3 53.5 31.5Q53.8 31.8 54.0 32.1Q54.2 32.5 54.2 32.9L54.2 32.9Q54.2 33.6 53.8 34.1Q53.5 34.6 52.9 34.8Q52.2 35.1 51.3 35.1ZM60.2 29.0L57.9 29.0L57.9 27.7L63.9 27.7L63.9 29.0L61.7 29.0L61.7 35L60.2 35L60.2 29.0Z M76.3 35.1L76.3 35.1Q75.4 35.1 74.7 34.8Q74.0 34.4 73.6 33.8Q73.3 33.2 73.3 32.4L73.3 32.4L73.3 27.7L74.8 27.7L74.8 32.3Q74.8 32.7 74.9 33.1Q75.1 33.4 75.5 33.6Q75.8 33.8 76.3 33.8L76.3 33.8Q76.7 33.8 77.1 33.6Q77.4 33.4 77.6 33.1Q77.8 32.7 77.8 32.3L77.8 32.3L77.8 27.7L79.3 27.7L79.3 32.4Q79.3 33.2 78.9 33.8Q78.5 34.4 77.8 34.8Q77.2 35.1 76.3 35.1ZM86.3 35.1L86.3 35.1Q85.4 35.1 84.7 34.8Q84.1 34.6 83.7 34.0Q83.4 33.5 83.3 32.7L83.3 32.7L84.8 32.7Q84.8 33.1 85.0 33.4Q85.2 33.6 85.5 33.7Q85.8 33.8 86.2 33.8L86.2 33.8Q86.6 33.8 86.9 33.7Q87.2 33.6 87.4 33.4Q87.6 33.2 87.6 32.9L87.6 32.9Q87.6 32.7 87.4 32.5Q87.3 32.3 87.0 32.2Q86.7 32.1 86.3 32.0L86.3 32.0L85.5 31.8Q84.6 31.6 84.1 31.1Q83.5 30.6 83.5 29.8L83.5 29.8Q83.5 29.2 83.9 28.7Q84.3 28.2 84.9 27.9Q85.5 27.6 86.3 27.6L86.3 27.6Q87.1 27.6 87.7 27.9Q88.3 28.2 88.6 28.7Q89.0 29.2 89.0 29.8L89.0 29.8L87.5 29.8Q87.5 29.4 87.2 29.1Q86.8 28.9 86.3 28.9L86.3 28.9Q85.9 28.9 85.6 29.0Q85.3 29.1 85.2 29.3Q85.1 29.5 85.1 29.7L85.1 29.7Q85.1 30.0 85.2 30.2Q85.4 30.3 85.7 30.5Q85.9 30.6 86.2 30.6L86.2 30.6L86.9 30.8Q87.4 30.9 87.7 31.1Q88.1 31.3 88.4 31.5Q88.7 31.8 88.9 32.1Q89.1 32.5 89.1 32.9L89.1 32.9Q89.1 33.6 88.7 34.1Q88.4 34.6 87.8 34.8Q87.1 35.1 86.3 35.1ZM98.0 35L93.1 35L93.1 27.7L98.0 27.7L98.0 29.0L94.6 29.0L94.6 30.7L97.8 30.7L97.8 31.9L94.6 31.9L94.6 33.8L98.0 33.8L98.0 35ZM104.8 35L104.8 35L102.2 35L102.2 27.7L104.8 27.7Q105.9 27.7 106.7 28.2Q107.5 28.6 107.9 29.4Q108.3 30.2 108.3 31.4L108.3 31.4Q108.3 32.5 107.9 33.3Q107.5 34.1 106.7 34.6Q105.9 35 104.8 35ZM103.7 29.0L103.7 33.7L104.7 33.7Q105.4 33.7 105.9 33.5Q106.4 33.2 106.6 32.7Q106.8 32.2 106.8 31.4L106.8 31.4Q106.8 30.5 106.6 30.0Q106.3 29.5 105.9 29.3Q105.4 29.0 104.7 29.0L104.7 29.0L103.7 29.0Z M122.4 35L117.8 35L117.8 27.7L119.3 27.7L119.3 33.8L122.4 33.8L122.4 35ZM127.7 35L126.0 35L128.5 27.7L130.5 27.7L133.0 35L131.4 35L130.8 33.3L128.2 33.3L127.7 35ZM128.6 32.1L130.4 32.1L130.2 31.5Q130.0 30.8 129.8 30L129.8 30Q129.6 29.5 129.5 28.9L129.5 28.9Q129.3 29.5 129.2 30.0L129.2 30.0Q129.0 30.8 128.8 31.5L128.8 31.5L128.6 32.1ZM138.4 35L136.9 35L136.9 27.7L138.6 27.7L140.9 31.4Q141.1 31.7 141.2 32.0Q141.4 32.4 141.6 32.8L141.6 32.8Q141.7 33.0 141.8 33.2L141.8 33.2Q141.8 33.0 141.8 32.8L141.8 32.8Q141.7 32.3 141.7 31.9Q141.7 31.5 141.7 31.2L141.7 31.2L141.7 27.7L143.2 27.7L143.2 35L141.6 35L139.5 31.7Q139.2 31.3 139.0 30.9Q138.9 30.6 138.6 30.1L138.6 30.1Q138.5 29.9 138.3 29.6L138.3 29.6Q138.4 29.9 138.4 30.1L138.4 30.1Q138.4 30.6 138.4 31.0Q138.4 31.4 138.4 31.7L138.4 31.7L138.4 35ZM150.8 35.1L150.8 35.1Q149.7 35.1 149.0 34.6Q148.2 34.2 147.8 33.4Q147.3 32.5 147.3 31.4L147.3 31.4Q147.3 30.2 147.8 29.4Q148.2 28.5 149.0 28.1Q149.8 27.6 150.7 27.6L150.7 27.6Q151.3 27.6 151.9 27.8Q152.4 28.0 152.8 28.3Q153.2 28.6 153.5 29.1Q153.8 29.5 153.8 30.1L153.8 30.1L152.3 30.1Q152.2 29.8 152.1 29.6Q152.0 29.4 151.8 29.2Q151.6 29.1 151.3 29.0Q151.1 29.0 150.8 29.0L150.8 29.0Q150.2 29.0 149.8 29.2Q149.3 29.5 149.1 30.0Q148.9 30.6 148.9 31.4Q148.9 32.1 149.1 32.7Q149.3 33.2 149.8 33.5Q150.2 33.8 150.8 33.8L150.8 33.8Q151.3 33.8 151.7 33.6Q152.1 33.4 152.3 33.0L152.3 33.0Q152.5 32.7 152.5 32.3L152.5 32.3L150.9 32.3L150.9 31.1L153.9 31.1L153.9 32.0Q153.9 33.0 153.5 33.7Q153.1 34.4 152.4 34.7Q151.7 35.1 150.8 35.1ZM161.0 35.1L161.0 35.1Q160.1 35.1 159.5 34.8Q158.8 34.4 158.4 33.8Q158.0 33.2 158.0 32.4L158.0 32.4L158.0 27.7L159.5 27.7L159.5 32.3Q159.5 32.7 159.7 33.1Q159.9 33.4 160.3 33.6Q160.6 33.8 161.0 33.8L161.0 33.8Q161.5 33.8 161.8 33.6Q162.2 33.4 162.4 33.1Q162.6 32.7 162.6 32.3L162.6 32.3L162.6 27.7L164.1 27.7L164.1 32.4Q164.1 33.2 163.7 33.8Q163.3 34.4 162.6 34.8Q162.0 35.1 161.0 35.1ZM169.6 35L167.9 35L170.4 27.7L172.4 27.7L174.9 35L173.3 35L172.7 33.3L170.1 33.3L169.6 35ZM170.5 32.1L172.3 32.1L172.1 31.5Q171.9 30.8 171.7 30L171.7 30Q171.5 29.5 171.4 28.9L171.4 28.9Q171.3 29.5 171.1 30.0L171.1 30.0Q170.9 30.8 170.7 31.5L170.7 31.5L170.5 32.1ZM182.1 35.1L182.1 35.1Q181.0 35.1 180.3 34.6Q179.5 34.2 179.1 33.4Q178.6 32.5 178.6 31.4L178.6 31.4Q178.6 30.2 179.1 29.4Q179.5 28.5 180.3 28.1Q181.1 27.6 182.0 27.6L182.0 27.6Q182.6 27.6 183.2 27.8Q183.7 28.0 184.1 28.3Q184.5 28.6 184.8 29.1Q185.0 29.5 185.1 30.1L185.1 30.1L183.6 30.1Q183.5 29.8 183.4 29.6Q183.3 29.4 183.1 29.2Q182.9 29.1 182.6 29.0Q182.4 29.0 182.0 29.0L182.0 29.0Q181.5 29.0 181.1 29.2Q180.6 29.5 180.4 30.0Q180.1 30.6 180.1 31.4Q180.1 32.1 180.4 32.7Q180.6 33.2 181.1 33.5Q181.5 33.8 182.1 33.8L182.1 33.8Q182.6 33.8 183.0 33.6Q183.3 33.4 183.6 33.0L183.6 33.0Q183.7 32.7 183.8 32.3L183.8 32.3L182.2 32.3L182.2 31.1L185.2 31.1L185.2 32.0Q185.2 33.0 184.8 33.7Q184.4 34.4 183.7 34.7Q183.0 35.1 182.1 35.1ZM194.2 35L189.3 35L189.3 27.7L194.2 27.7L194.2 29.0L190.8 29.0L190.8 30.7L194.0 30.7L194.0 31.9L190.8 31.9L190.8 33.8L194.2 33.8L194.2 35ZM201.1 35.1L201.1 35.1Q200.2 35.1 199.6 34.8Q198.9 34.6 198.6 34.0Q198.2 33.5 198.2 32.7L198.2 32.7L199.6 32.7Q199.6 33.1 199.8 33.4Q200.0 33.6 200.3 33.7Q200.7 33.8 201.1 33.8L201.1 33.8Q201.5 33.8 201.8 33.7Q202.1 33.6 202.2 33.4Q202.4 33.2 202.4 32.9L202.4 32.9Q202.4 32.7 202.2 32.5Q202.1 32.3 201.8 32.2Q201.5 32.1 201.1 32.0L201.1 32.0L200.3 31.8Q199.4 31.6 198.9 31.1Q198.4 30.6 198.4 29.8L198.4 29.8Q198.4 29.2 198.7 28.7Q199.1 28.2 199.7 27.9Q200.3 27.6 201.1 27.6L201.1 27.6Q201.9 27.6 202.5 27.9Q203.1 28.2 203.4 28.7Q203.8 29.2 203.8 29.8L203.8 29.8L202.3 29.8Q202.3 29.4 202.0 29.1Q201.6 28.9 201.1 28.9L201.1 28.9Q200.7 28.9 200.4 29.0Q200.2 29.1 200.0 29.3Q199.9 29.5 199.9 29.7L199.9 29.7Q199.9 30.0 200.1 30.2Q200.2 30.3 200.5 30.5Q200.8 30.6 201.1 30.6L201.1 30.6L201.7 30.8Q202.2 30.9 202.6 31.1Q203.0 31.3 203.3 31.5Q203.6 31.8 203.7 32.1Q203.9 32.5 203.9 32.9L203.9 32.9Q203.9 33.6 203.6 34.1Q203.2 34.6 202.6 34.8Q202.0 35.1 201.1 35.1Z "/></g><clipPath id="satori_cp-id-2" clip-path="url(#satori_cp-id)"><path x="25" y="53" width="750" height="6" d="M28,53 h744 a3,3 0 0 1 3,3 v0 a3,3 0 0 1 -3,3 h-744 a3,3 0 0 1 -3,-3 v0 a3,3 0 0 1 3,-3"/></clipPath><mask id="satori_om-id-2"><rect x="25" y="53" width="750" height="6" fill="#fff" mask="url(#satori_om-id)"/></mask><path x="25" y="53" width="750" height="6" fill="rgba(255,255,255,0.05)" d="M28,53 h744 a3,3 0 0 1 3,3 v0 a3,3 0 0 1 -3,3 h-744 a3,3 0 0 1 -3,-3 v0 a3,3 0 0 1 3,-3" clip-path="url(#satori_cp-id)" mask="url(#satori_om-id)"/><mask id="satori_om-id-2-0"><rect x="25" y="53" width="248" height="6" fill="#fff" mask="url(#satori_om-id-2)"/></mask><rect x="25" y="53" width="248" height="6" fill="#f34b7d" clip-path="url(#satori_cp-id-2)" mask="url(#satori_om-id-2)"/><mask id="satori_om-id-2-1"><rect x="273" y="53" width="97" height="6" fill="#fff" mask="url(#satori_om-id-2)"/></mask><rect x="273" y="53" width="97" height="6" fill="#555555" clip-path="url(#satori_cp-id-2)" mask="url(#satori_om-id-2)"/><mask id="satori_om-id-2-2"><rect x="370" y="53" width="75" height="6" fill="#fff" mask="url(#satori_om-id-2)"/></mask><rect x="370" y="53" width="75" height="6" fill="#3572A5" clip-path="url(#satori_cp-id-2)" mask="url(#satori_om-id-2)"/><mask id="satori_om-id-2-3"><rect x="445" y="53" width="75" height="6" fill="#fff" mask="url(#satori_om-id-2)"/></mask><rect x="445" y="53" width="75" height="6" fill="#663399" clip-path="url(#satori_cp-id-2)" mask="url(#satori_om-id-2)"/><mask id="satori_om-id-2-4"><rect x="520" y="53" width="60" height="6" fill="#fff" mask="url(#satori_om-id-2)"/></mask><rect x="520" y="53" width="60" height="6" fill="#3178c6" clip-path="url(#satori_cp-id-2)" mask="url(#satori_om-id-2)"/><mask id="satori_om-id-2-5"><rect x="580" y="53" width="38" height="6" fill="#fff" mask="url(#satori_om-id-2)"/></mask><rect x="580" y="53" width="38" height="6" fill="#5686a5" clip-path="url(#satori_cp-id-2)" mask="url(#satori_om-id-2)"/><mask id="satori_om-id-2-6"><rect x="618" y="53" width="37" height="6" fill="#fff" mask="url(#satori_om-id-2)"/></mask><rect x="618" y="53" width="37" height="6" fill="#89e051" clip-path="url(#satori_cp-id-2)" mask="url(#satori_om-id-2)"/><mask id="satori_om-id-2-7"><rect x="655" y="53" width="38" height="6" fill="#fff" mask="url(#satori_om-id-2)"/></mask><rect x="655" y="53" width="38" height="6" fill="#6E4C13" clip-path="url(#satori_cp-id-2)" mask="url(#satori_om-id-2)"/><mask id="satori_om-id-2-8"><rect x="693" y="53" width="22" height="6" fill="#fff" mask="url(#satori_om-id-2)"/></mask><rect x="693" y="53" width="22" height="6" fill="#e34c26" clip-path="url(#satori_cp-id-2)" mask="url(#satori_om-id-2)"/><mask id="satori_om-id-2-9"><rect x="715" y="53" width="23" height="6" fill="#fff" mask="url(#satori_om-id-2)"/></mask><rect x="715" y="53" width="23" height="6" fill="#f1e05a" clip-path="url(#satori_cp-id-2)" mask="url(#satori_om-id-2)"/><mask id="satori_om-id-3"><rect x="25" y="75" width="750" height="46" fill="#fff" mask="url(#satori_om-id)"/></mask><mask id="satori_om-id-3-0"><rect x="25" y="75" width="120" height="16" fill="#fff" mask="url(#satori_om-id)"/></mask><mask id="satori_ms-id-3-0-0-0" maskUnits="userSpaceOnUse"><rect x="0" y="0" width="800" height="180" fill="#fff"/><path x="25" y="78" width="10" height="10" fill="#000"  stroke-width="0" d="M30,78 h0 a5,5 0 0 1 5,5 v0 a5,5 0 0 1 -5,5 h0 a5,5 0 0 1 -5,-5 v0 a5,5 0 0 1 5,-5" clip-path="url(#satori_cp-id)" mask="url(#satori_om-id)"/></mask><defs><filter id="satori_s-id-3-0-0-0" x="-90%" y="-90%" width="280%" height="280%"><feGaussianBlur stdDeviation="3" result="b"/><feFlood flood-color="#f34b7d40" in="SourceGraphic" result="f"/><feComposite in="f" in2="b" operator="in"/></filter></defs><g mask="url(#satori_ms-id-3-0-0-0)" filter="url(#satori_s-id-3-0-0-0)" opacity="1"><path x="25" y="78" width="10" height="10" fill="#fff" stroke="#fff" stroke-width="0" d="M30,78 h0 a5,5 0 0 1 5,5 v0 a5,5 0 0 1 -5,5 h0 a5,5 0 0 1 -5,-5 v0 a5,5 0 0 1 5,-5" clip-path="url(#satori_cp-id)" mask="url(#satori_om-id)"/></g><mask id="satori_om-id-3-0-0"><rect x="25" y="78" width="10" height="10" fill="#fff" mask="url(#satori_om-id)"/></mask><path x="25" y="78" width="10" height="10" fill="#f34b7d" d="M30,78 h0 a5,5 0 0 1 5,5 v0 a5,5 0 0 1 -5,5 h0 a5,5 0 0 1 -5,-5 v0 a5,5 0 0 1 5,-5" clip-path="url(#satori_cp-id)" mask="url(#satori_om-id)"/><mask id="satori_om-id-3-0-1"><rect x="41" y="75" width="27" height="16" fill="#fff" mask="url(#satori_om-id)"/></mask><g mask="url(#satori_om-id)" clip-path="url(#satori_cp-id)"><path fill="#e0e0f0" d="M46.0 88.1L46.0 88.1Q44.8 88.1 43.8 87.5Q42.9 87.0 42.3 85.9Q41.8 84.8 41.8 83.3L41.8 83.3Q41.8 81.8 42.3 80.7Q42.9 79.6 43.8 79.0Q44.8 78.4 46.0 78.4L46.0 78.4Q46.7 78.4 47.3 78.6Q48.0 78.8 48.5 79.2Q49.0 79.6 49.3 80.2Q49.7 80.8 49.8 81.5L49.8 81.5L48.6 81.5Q48.5 81.0 48.2 80.7Q48.0 80.3 47.6 80.0Q47.3 79.8 46.9 79.7Q46.4 79.5 46.0 79.5L46.0 79.5Q45.1 79.5 44.4 80.0Q43.7 80.4 43.3 81.2Q42.9 82.1 42.9 83.3L42.9 83.3Q42.9 84.5 43.4 85.3Q43.8 86.2 44.4 86.6Q45.1 87.0 46.0 87.0L46.0 87.0Q46.4 87.0 46.9 86.9Q47.3 86.7 47.6 86.5Q48.0 86.2 48.2 85.9Q48.5 85.5 48.6 85.0L48.6 85.0L49.8 85.0Q49.7 85.7 49.3 86.3Q49.0 86.9 48.5 87.3Q48.0 87.7 47.3 87.9Q46.7 88.1 46.0 88.1ZM55.3 87.4L54.3 87.4L54.3 84.8L51.7 84.8L51.7 83.8L54.3 83.8L54.3 81.2L55.3 81.2L55.3 83.8L57.9 83.8L57.9 84.8L55.3 84.8L55.3 87.4ZM63.9 87.4L62.9 87.4L62.9 84.8L60.3 84.8L60.3 83.8L62.9 83.8L62.9 81.2L63.9 81.2L63.9 83.8L66.5 83.8L66.5 84.8L63.9 84.8L63.9 87.4Z "/></g><mask id="satori_om-id-3-0-2"><rect x="74" y="77" width="25" height="13" fill="#fff" mask="url(#satori_om-id)"/></mask><g mask="url(#satori_om-id)" clip-path="url(#satori_cp-id)"><path fill="#6a6a8a" d="M77.4 88.1L77.4 88.1Q76.6 88.1 76.0 87.8Q75.4 87.6 75.1 87.1Q74.7 86.6 74.7 86.0L74.7 86.0L75.7 86.0Q75.7 86.4 76.0 86.6Q76.2 86.9 76.6 87.1Q76.9 87.2 77.4 87.2L77.4 87.2Q77.9 87.2 78.3 87.0Q78.7 86.9 78.9 86.5Q79.1 86.2 79.1 85.8L79.1 85.8Q79.1 85.4 78.9 85.0Q78.7 84.7 78.3 84.5Q77.9 84.3 77.3 84.3L77.3 84.3L76.6 84.3L76.6 83.5L77.3 83.5Q77.7 83.5 78.1 83.3Q78.5 83.1 78.7 82.8Q78.9 82.5 78.9 82.1L78.9 82.1Q78.9 81.7 78.7 81.4Q78.5 81.1 78.2 80.9Q77.9 80.8 77.4 80.8L77.4 80.8Q77.0 80.8 76.7 80.9Q76.3 81.1 76.1 81.3Q75.8 81.6 75.8 82.0L75.8 82.0L74.8 82.0Q74.9 81.4 75.2 80.9Q75.6 80.4 76.2 80.2Q76.7 79.9 77.4 79.9L77.4 79.9Q78.2 79.9 78.7 80.2Q79.3 80.5 79.6 81.0Q79.8 81.5 79.8 82.0L79.8 82.0Q79.8 82.7 79.5 83.2Q79.1 83.7 78.5 83.8L78.5 83.8L78.5 83.9Q79.0 84.0 79.4 84.3Q79.8 84.5 79.9 84.9Q80.1 85.3 80.1 85.8L80.1 85.8Q80.1 86.5 79.8 87.0Q79.4 87.5 78.8 87.8Q78.2 88.1 77.4 88.1ZM84.2 88.1L84.2 88.1Q83.4 88.1 82.8 87.8Q82.2 87.6 81.8 87.1Q81.5 86.6 81.5 86.0L81.5 86.0L82.5 86.0Q82.5 86.4 82.8 86.6Q83.0 86.9 83.4 87.1Q83.7 87.2 84.2 87.2L84.2 87.2Q84.7 87.2 85.1 87.0Q85.5 86.9 85.7 86.5Q85.9 86.2 85.9 85.8L85.9 85.8Q85.9 85.4 85.7 85.0Q85.5 84.7 85.1 84.5Q84.7 84.3 84.1 84.3L84.1 84.3L83.4 84.3L83.4 83.5L84.1 83.5Q84.5 83.5 84.9 83.3Q85.2 83.1 85.4 82.8Q85.6 82.5 85.6 82.1L85.6 82.1Q85.6 81.7 85.5 81.4Q85.3 81.1 85.0 80.9Q84.7 80.8 84.2 80.8L84.2 80.8Q83.8 80.8 83.5 80.9Q83.1 81.1 82.9 81.3Q82.6 81.6 82.6 82.0L82.6 82.0L81.6 82.0Q81.7 81.4 82.0 80.9Q82.4 80.4 83.0 80.2Q83.5 79.9 84.2 79.9L84.2 79.9Q85.0 79.9 85.5 80.2Q86.1 80.5 86.4 81.0Q86.6 81.5 86.6 82.0L86.6 82.0Q86.6 82.7 86.3 83.2Q85.9 83.7 85.3 83.8L85.3 83.8L85.3 83.9Q85.8 84.0 86.2 84.3Q86.6 84.5 86.7 84.9Q86.9 85.3 86.9 85.8L86.9 85.8Q86.9 86.5 86.6 87.0Q86.2 87.5 85.6 87.8Q85.0 88.1 84.2 88.1ZM90.4 83.5L90.4 83.5Q89.9 83.5 89.5 83.3Q89.2 83.1 89.0 82.7Q88.8 82.3 88.8 81.9L88.8 81.9L88.8 81.5Q88.8 81.0 89.0 80.7Q89.2 80.3 89.5 80.1Q89.9 79.9 90.4 79.9L90.4 79.9Q90.9 79.9 91.3 80.1Q91.6 80.3 91.8 80.7Q92.0 81.0 92.0 81.5L92.0 81.5L92.0 81.9Q92.0 82.3 91.8 82.7Q91.6 83.1 91.3 83.3Q90.9 83.5 90.4 83.5ZM90.4 82.8L90.4 82.8Q90.8 82.8 91.0 82.6Q91.1 82.3 91.1 81.9L91.1 81.9L91.1 81.5Q91.1 81.1 91.0 80.9Q90.8 80.6 90.4 80.6L90.4 80.6Q90.0 80.6 89.8 80.9Q89.6 81.1 89.6 81.5L89.6 81.5L89.6 81.9Q89.6 82.3 89.8 82.6Q90.0 82.8 90.4 82.8ZM95.6 88.2L95.6 88.2Q95.1 88.2 94.7 87.9Q94.4 87.7 94.2 87.3Q94.0 87.0 94.0 86.5L94.0 86.5L94.0 86.1Q94.0 85.7 94.2 85.3Q94.4 84.9 94.7 84.7Q95.1 84.5 95.6 84.5L95.6 84.5Q96.1 84.5 96.5 84.7Q96.8 84.9 97.0 85.3Q97.2 85.7 97.2 86.1L97.2 86.1L97.2 86.5Q97.2 87.0 97.0 87.3Q96.8 87.7 96.4 87.9Q96.1 88.2 95.6 88.2ZM95.6 87.5L95.6 87.5Q96 87.5 96.2 87.2Q96.3 86.9 96.3 86.5L96.3 86.5L96.3 86.1Q96.3 85.8 96.2 85.5Q96.0 85.2 95.6 85.2L95.6 85.2Q95.2 85.2 95.0 85.5Q94.8 85.8 94.8 86.1L94.8 86.1L94.8 86.5Q94.8 86.9 95.0 87.2Q95.2 87.5 95.6 87.5ZM90.7 88L89.8 88L95.3 80.0L96.2 80.0L90.7 88Z "/></g><mask id="satori_om-id-3-1"><rect x="159" y="75" width="120" height="16" fill="#fff" mask="url(#satori_om-id)"/></mask><mask id="satori_ms-id-3-1-0-0" maskUnits="userSpaceOnUse"><rect x="0" y="0" width="800" height="180" fill="#fff"/><path x="159" y="78" width="10" height="10" fill="#000"  stroke-width="0" d="M164,78 h0 a5,5 0 0 1 5,5 v0 a5,5 0 0 1 -5,5 h0 a5,5 0 0 1 -5,-5 v0 a5,5 0 0 1 5,-5" clip-path="url(#satori_cp-id)" mask="url(#satori_om-id)"/></mask><defs><filter id="satori_s-id-3-1-0-0" x="-90%" y="-90%" width="280%" height="280%"><feGaussianBlur stdDeviation="3" result="b"/><feFlood flood-color="#55555540" in="SourceGraphic" result="f"/><feComposite in="f" in2="b" operator="in"/></filter></defs><g mask="url(#satori_ms-id-3-1-0-0)" filter="url(#satori_s-id-3-1-0-0)" opacity="1"><path x="159" y="78" width="10" height="10" fill="#fff" stroke="#fff" stroke-width="0" d="M164,78 h0 a5,5 0 0 1 5,5 v0 a5,5 0 0 1 -5,5 h0 a5,5 0 0 1 -5,-5 v0 a5,5 0 0 1 5,-5" clip-path="url(#satori_cp-id)" mask="url(#satori_om-id)"/></g><mask id="satori_om-id-3-1-0"><rect x="159" y="78" width="10" height="10" fill="#fff" mask="url(#satori_om-id)"/></mask><path x="159" y="78" width="10" height="10" fill="#555555" d="M164,78 h0 a5,5 0 0 1 5,5 v0 a5,5 0 0 1 -5,5 h0 a5,5 0 0 1 -5,-5 v0 a5,5 0 0 1 5,-5" clip-path="url(#satori_cp-id)" mask="url(#satori_om-id)"/><mask id="satori_om-id-3-1-1"><rect x="175" y="75" width="10" height="16" fill="#fff" mask="url(#satori_om-id)"/></mask><g mask="url(#satori_om-id)" clip-path="url(#satori_cp-id)"><path fill="#e0e0f0" d="M180.0 88.1L180.0 88.1Q178.8 88.1 177.8 87.5Q176.9 87.0 176.3 85.9Q175.8 84.8 175.8 83.3L175.8 83.3Q175.8 81.8 176.3 80.7Q176.9 79.6 177.8 79.0Q178.8 78.4 180.0 78.4L180.0 78.4Q180.7 78.4 181.3 78.6Q182.0 78.8 182.5 79.2Q183.0 79.6 183.3 80.2Q183.7 80.8 183.8 81.5L183.8 81.5L182.6 81.5Q182.5 81.0 182.2 80.7Q182.0 80.3 181.6 80.0Q181.3 79.8 180.9 79.7Q180.4 79.5 180.0 79.5L180.0 79.5Q179.1 79.5 178.4 80.0Q177.7 80.4 177.3 81.2Q176.9 82.1 176.9 83.3L176.9 83.3Q176.9 84.5 177.4 85.3Q177.8 86.2 178.4 86.6Q179.1 87.0 180.0 87.0L180.0 87.0Q180.4 87.0 180.9 86.9Q181.3 86.7 181.6 86.5Q182.0 86.2 182.2 85.9Q182.5 85.5 182.6 85.0L182.6 85.0L183.8 85.0Q183.7 85.7 183.3 86.3Q183.0 86.9 182.5 87.3Q182.0 87.7 181.3 87.9Q180.7 88.1 180.0 88.1Z "/></g><mask id="satori_om-id-3-1-2"><rect x="191" y="77" width="23" height="13" fill="#fff" mask="url(#satori_om-id)"/></mask><g mask="url(#satori_om-id)" clip-path="url(#satori_cp-id)"><path fill="#6a6a8a" d="M193.3 80.0L194.5 80.0L194.5 88L193.5 88L193.5 80.9L193.4 80.9L191.5 82.4L191.5 81.3L193.3 80.0ZM198.9 88.1L198.9 88.1Q198.1 88.1 197.5 87.8Q196.9 87.6 196.5 87.1Q196.2 86.6 196.1 86.0L196.1 86.0L197.2 86.0Q197.2 86.4 197.4 86.6Q197.7 86.9 198.0 87.1Q198.4 87.2 198.9 87.2L198.9 87.2Q199.4 87.2 199.8 87.0Q200.2 86.9 200.4 86.5Q200.6 86.2 200.6 85.8L200.6 85.8Q200.6 85.4 200.4 85.0Q200.2 84.7 199.8 84.5Q199.3 84.3 198.7 84.3L198.7 84.3L198.1 84.3L198.1 83.5L198.7 83.5Q199.2 83.5 199.6 83.3Q199.9 83.1 200.1 82.8Q200.3 82.5 200.3 82.1L200.3 82.1Q200.3 81.7 200.1 81.4Q200.0 81.1 199.7 80.9Q199.3 80.8 198.9 80.8L198.9 80.8Q198.5 80.8 198.1 80.9Q197.8 81.1 197.5 81.3Q197.3 81.6 197.3 82.0L197.3 82.0L196.3 82.0Q196.3 81.4 196.7 80.9Q197.0 80.4 197.6 80.2Q198.2 79.9 198.9 79.9L198.9 79.9Q199.7 79.9 200.2 80.2Q200.7 80.5 201.0 81.0Q201.3 81.5 201.3 82.0L201.3 82.0Q201.3 82.7 201.0 83.2Q200.6 83.7 200.0 83.8L200.0 83.8L200.0 83.9Q200.5 84.0 200.9 84.3Q201.2 84.5 201.4 84.9Q201.6 85.3 201.6 85.8L201.6 85.8Q201.6 86.5 201.3 87.0Q200.9 87.5 200.3 87.8Q199.7 88.1 198.9 88.1ZM205.1 83.5L205.1 83.5Q204.6 83.5 204.2 83.3Q203.9 83.1 203.7 82.7Q203.5 82.3 203.5 81.9L203.5 81.9L203.5 81.5Q203.5 81.0 203.7 80.7Q203.9 80.3 204.2 80.1Q204.6 79.9 205.1 79.9L205.1 79.9Q205.6 79.9 205.9 80.1Q206.3 80.3 206.5 80.7Q206.6 81.0 206.6 81.5L206.6 81.5L206.6 81.9Q206.6 82.3 206.5 82.7Q206.3 83.1 205.9 83.3Q205.6 83.5 205.1 83.5ZM205.1 82.8L205.1 82.8Q205.5 82.8 205.7 82.6Q205.8 82.3 205.8 81.9L205.8 81.9L205.8 81.5Q205.8 81.1 205.7 80.9Q205.5 80.6 205.1 80.6L205.1 80.6Q204.7 80.6 204.5 80.9Q204.3 81.1 204.3 81.5L204.3 81.5L204.3 81.9Q204.3 82.3 204.5 82.6Q204.7 82.8 205.1 82.8ZM210.3 88.2L210.3 88.2Q209.8 88.2 209.4 87.9Q209.1 87.7 208.9 87.3Q208.7 87.0 208.7 86.5L208.7 86.5L208.7 86.1Q208.7 85.7 208.9 85.3Q209.1 84.9 209.4 84.7Q209.8 84.5 210.3 84.5L210.3 84.5Q210.8 84.5 211.1 84.7Q211.5 84.9 211.7 85.3Q211.8 85.7 211.8 86.1L211.8 86.1L211.8 86.5Q211.8 87.0 211.7 87.3Q211.5 87.7 211.1 87.9Q210.8 88.2 210.3 88.2ZM210.3 87.5L210.3 87.5Q210.7 87.5 210.8 87.2Q211.0 86.9 211.0 86.5L211.0 86.5L211.0 86.1Q211.0 85.8 210.9 85.5Q210.7 85.2 210.3 85.2L210.3 85.2Q209.9 85.2 209.7 85.5Q209.5 85.8 209.5 86.1L209.5 86.1L209.5 86.5Q209.5 86.9 209.7 87.2Q209.9 87.5 210.3 87.5ZM205.3 88L204.4 88L209.9 80.0L210.8 80.0L205.3 88Z "/></g><mask id="satori_om-id-3-2"><rect x="293" y="75" width="120" height="16" fill="#fff" mask="url(#satori_om-id)"/></mask><mask id="satori_ms-id-3-2-0-0" maskUnits="userSpaceOnUse"><rect x="0" y="0" width="800" height="180" fill="#fff"/><path x="293" y="78" width="10" height="10" fill="#000"  stroke-width="0" d="M298,78 h0 a5,5 0 0 1 5,5 v0 a5,5 0 0 1 -5,5 h0 a5,5 0 0 1 -5,-5 v0 a5,5 0 0 1 5,-5" clip-path="url(#satori_cp-id)" mask="url(#satori_om-id)"/></mask><defs><filter id="satori_s-id-3-2-0-0" x="-90%" y="-90%" width="280%" height="280%"><feGaussianBlur stdDeviation="3" result="b"/><feFlood flood-color="#3572A540" in="SourceGraphic" result="f"/><feComposite in="f" in2="b" operator="in"/></filter></defs><g mask="url(#satori_ms-id-3-2-0-0)" filter="url(#satori_s-id-3-2-0-0)" opacity="1"><path x="293" y="78" width="10" height="10" fill="#fff" stroke="#fff" stroke-width="0" d="M298,78 h0 a5,5 0 0 1 5,5 v0 a5,5 0 0 1 -5,5 h0 a5,5 0 0 1 -5,-5 v0 a5,5 0 0 1 5,-5" clip-path="url(#satori_cp-id)" mask="url(#satori_om-id)"/></g><mask id="satori_om-id-3-2-0"><rect x="293" y="78" width="10" height="10" fill="#fff" mask="url(#satori_om-id)"/></mask><path x="293" y="78" width="10" height="10" fill="#3572A5" d="M298,78 h0 a5,5 0 0 1 5,5 v0 a5,5 0 0 1 -5,5 h0 a5,5 0 0 1 -5,-5 v0 a5,5 0 0 1 5,-5" clip-path="url(#satori_cp-id)" mask="url(#satori_om-id)"/><mask id="satori_om-id-3-2-1"><rect x="309" y="75" width="44" height="16" fill="#fff" mask="url(#satori_om-id)"/></mask><g mask="url(#satori_om-id)" clip-path="url(#satori_cp-id)"><path fill="#e0e0f0" d="M311.3 88L310.1 88L310.1 78.5L313.4 78.5Q314.5 78.5 315.2 78.9Q315.9 79.3 316.3 80.0Q316.6 80.7 316.6 81.6Q316.6 82.4 316.3 83.1Q315.9 83.8 315.2 84.2Q314.5 84.6 313.4 84.6L313.4 84.6L311.3 84.6L311.3 88ZM311.3 79.6L311.3 83.5L313.3 83.5Q314.1 83.5 314.5 83.3Q315.0 83.0 315.2 82.6Q315.4 82.1 315.4 81.6Q315.4 81.0 315.2 80.6Q315.0 80.1 314.5 79.9Q314.1 79.6 313.3 79.6L313.3 79.6L311.3 79.6ZM318.2 90.6L318.2 90.6L318.5 89.6L318.6 89.6Q319.0 89.7 319.2 89.7Q319.5 89.6 319.8 89.4Q320.0 89.1 320.2 88.6L320.2 88.6L320.4 88.0L317.6 80.9L318.9 80.9L320.4 85.1Q320.6 85.8 320.8 86.4L320.8 86.4Q320.9 86.7 321.0 87.0L321.0 87.0Q321.0 86.7 321.1 86.4L321.1 86.4Q321.3 85.8 321.5 85.1L321.5 85.1L323.0 80.9L324.3 80.9L321.1 89.1Q320.9 89.6 320.6 90.0Q320.3 90.4 319.9 90.5Q319.5 90.7 319.0 90.7L319.0 90.7Q318.7 90.7 318.5 90.7Q318.3 90.6 318.2 90.6ZM326.9 80.9L328.4 80.9L328.4 81.9L326.9 81.9L326.9 86.2Q326.9 86.6 327.1 86.9Q327.3 87.1 327.8 87.1L327.8 87.1Q327.9 87.1 328.1 87.0Q328.2 87.0 328.4 87.0L328.4 87.0L328.6 88.0Q328.4 88.0 328.2 88.1Q328.0 88.1 327.8 88.1L327.8 88.1Q326.8 88.1 326.3 87.6Q325.8 87.1 325.8 86.2L325.8 86.2L325.8 81.9L324.7 81.9L324.7 80.9L325.8 80.9L325.8 79.2L326.9 79.2L326.9 80.9ZM331.0 83.7L331.0 83.7L331.0 88L329.9 88L329.9 78.5L331.0 78.5L331.0 82.1Q331.3 81.5 331.7 81.2L331.7 81.2Q332.3 80.8 333.1 80.8L333.1 80.8Q333.9 80.8 334.4 81.1Q334.9 81.4 335.2 82.0Q335.5 82.6 335.5 83.5L335.5 83.5L335.5 88L334.4 88L334.4 83.6Q334.4 82.8 334.0 82.3Q333.5 81.8 332.8 81.8L332.8 81.8Q332.3 81.8 331.9 82.1Q331.5 82.3 331.2 82.7Q331.0 83.1 331.0 83.7ZM340.4 88.2L340.4 88.2Q339.5 88.2 338.7 87.7Q338.0 87.2 337.6 86.4Q337.2 85.6 337.2 84.5L337.2 84.5Q337.2 83.4 337.6 82.6Q338.0 81.7 338.7 81.3Q339.5 80.8 340.4 80.8L340.4 80.8Q341.4 80.8 342.1 81.3Q342.9 81.7 343.3 82.6Q343.7 83.4 343.7 84.5L343.7 84.5Q343.7 85.6 343.3 86.4Q342.9 87.2 342.1 87.7Q341.4 88.2 340.4 88.2ZM340.4 87.1L340.4 87.1Q341.2 87.1 341.6 86.8Q342.1 86.4 342.3 85.8Q342.5 85.2 342.5 84.5L342.5 84.5Q342.5 83.8 342.3 83.2Q342.1 82.6 341.6 82.2Q341.2 81.8 340.4 81.8L340.4 81.8Q339.7 81.8 339.3 82.2Q338.8 82.6 338.6 83.2Q338.4 83.8 338.4 84.5L338.4 84.5Q338.4 85.2 338.6 85.8Q338.8 86.4 339.3 86.8Q339.7 87.1 340.4 87.1ZM346.5 83.7L346.5 83.7L346.5 88L345.3 88L345.3 80.9L346.4 80.9L346.5 82.2Q346.7 81.6 347.2 81.2L347.2 81.2Q347.8 80.8 348.6 80.8L348.6 80.8Q349.3 80.8 349.9 81.1Q350.4 81.4 350.7 82.0Q351.0 82.6 351.0 83.5L351.0 83.5L351.0 88L349.9 88L349.9 83.6Q349.9 82.8 349.5 82.3Q349.0 81.8 348.3 81.8L348.3 81.8Q347.8 81.8 347.4 82.1Q347.0 82.3 346.7 82.7Q346.5 83.1 346.5 83.7Z "/></g><mask id="satori_om-id-3-2-2"><rect x="359" y="77" width="23" height="13" fill="#fff" mask="url(#satori_om-id)"/></mask><g mask="url(#satori_om-id)" clip-path="url(#satori_cp-id)"><path fill="#6a6a8a" d="M361.3 80.0L362.5 80.0L362.5 88L361.5 88L361.5 80.9L361.4 80.9L359.5 82.4L359.5 81.3L361.3 80.0ZM366.9 88.1L366.9 88.1Q366.1 88.1 365.4 87.6Q364.8 87.1 364.5 86.2Q364.1 85.3 364.1 84.0L364.1 84.0Q364.1 82.7 364.5 81.8Q364.8 80.9 365.4 80.4Q366.1 79.9 366.9 79.9L366.9 79.9Q367.8 79.9 368.5 80.4Q369.1 80.9 369.4 81.8Q369.8 82.7 369.8 84.0L369.8 84.0Q369.8 85.3 369.4 86.2Q369.1 87.1 368.5 87.6Q367.8 88.1 366.9 88.1ZM366.9 87.2L366.9 87.2Q367.5 87.2 367.9 86.8Q368.3 86.5 368.6 85.7Q368.8 85.0 368.8 84.0L368.8 84.0Q368.8 83.0 368.6 82.3Q368.3 81.5 367.9 81.2Q367.5 80.8 366.9 80.8L366.9 80.8Q366.4 80.8 366.0 81.2Q365.5 81.5 365.3 82.3Q365.1 83.0 365.1 84.0L365.1 84.0Q365.1 85.0 365.3 85.7Q365.5 86.5 366.0 86.8Q366.4 87.2 366.9 87.2ZM373.2 83.5L373.2 83.5Q372.7 83.5 372.4 83.3Q372.0 83.1 371.8 82.7Q371.6 82.3 371.6 81.9L371.6 81.9L371.6 81.5Q371.6 81.0 371.8 80.7Q372.0 80.3 372.4 80.1Q372.7 79.9 373.2 79.9L373.2 79.9Q373.7 79.9 374.1 80.1Q374.4 80.3 374.6 80.7Q374.8 81.0 374.8 81.5L374.8 81.5L374.8 81.9Q374.8 82.3 374.6 82.7Q374.4 83.1 374.1 83.3Q373.7 83.5 373.2 83.5ZM373.2 82.8L373.2 82.8Q373.6 82.8 373.8 82.6Q374.0 82.3 374.0 81.9L374.0 81.9L374.0 81.5Q374.0 81.1 373.8 80.9Q373.6 80.6 373.2 80.6L373.2 80.6Q372.8 80.6 372.6 80.9Q372.5 81.1 372.5 81.5L372.5 81.5L372.5 81.9Q372.5 82.3 372.6 82.6Q372.8 82.8 373.2 82.8ZM378.4 88.2L378.4 88.2Q377.9 88.2 377.6 87.9Q377.2 87.7 377.0 87.3Q376.8 87.0 376.8 86.5L376.8 86.5L376.8 86.1Q376.8 85.7 377.0 85.3Q377.2 84.9 377.6 84.7Q377.9 84.5 378.4 84.5L378.4 84.5Q378.9 84.5 379.3 84.7Q379.6 84.9 379.8 85.3Q380.0 85.7 380.0 86.1L380.0 86.1L380.0 86.5Q380.0 87.0 379.8 87.3Q379.6 87.7 379.3 87.9Q378.9 88.2 378.4 88.2ZM378.4 87.5L378.4 87.5Q378.8 87.5 379.0 87.2Q379.2 86.9 379.2 86.5L379.2 86.5L379.2 86.1Q379.2 85.8 379.0 85.5Q378.8 85.2 378.4 85.2L378.4 85.2Q378.0 85.2 377.8 85.5Q377.7 85.8 377.7 86.1L377.7 86.1L377.7 86.5Q377.7 86.9 377.8 87.2Q378.0 87.5 378.4 87.5ZM373.5 88L372.6 88L378.1 80.0L379.0 80.0L373.5 88Z "/></g><mask id="satori_om-id-3-3"><rect x="427" y="75" width="120" height="16" fill="#fff" mask="url(#satori_om-id)"/></mask><mask id="satori_ms-id-3-3-0-0" maskUnits="userSpaceOnUse"><rect x="0" y="0" width="800" height="180" fill="#fff"/><path x="427" y="78" width="10" height="10" fill="#000"  stroke-width="0" d="M432,78 h0 a5,5 0 0 1 5,5 v0 a5,5 0 0 1 -5,5 h0 a5,5 0 0 1 -5,-5 v0 a5,5 0 0 1 5,-5" clip-path="url(#satori_cp-id)" mask="url(#satori_om-id)"/></mask><defs><filter id="satori_s-id-3-3-0-0" x="-90%" y="-90%" width="280%" height="280%"><feGaussianBlur stdDeviation="3" result="b"/><feFlood flood-color="#66339940" in="SourceGraphic" result="f"/><feComposite in="f" in2="b" operator="in"/></filter></defs><g mask="url(#satori_ms-id-3-3-0-0)" filter="url(#satori_s-id-3-3-0-0)" opacity="1"><path x="427" y="78" width="10" height="10" fill="#fff" stroke="#fff" stroke-width="0" d="M432,78 h0 a5,5 0 0 1 5,5 v0 a5,5 0 0 1 -5,5 h0 a5,5 0 0 1 -5,-5 v0 a5,5 0 0 1 5,-5" clip-path="url(#satori_cp-id)" mask="url(#satori_om-id)"/></g><mask id="satori_om-id-3-3-0"><rect x="427" y="78" width="10" height="10" fill="#fff" mask="url(#satori_om-id)"/></mask><path x="427" y="78" width="10" height="10" fill="#663399" d="M432,78 h0 a5,5 0 0 1 5,5 v0 a5,5 0 0 1 -5,5 h0 a5,5 0 0 1 -5,-5 v0 a5,5 0 0 1 5,-5" clip-path="url(#satori_cp-id)" mask="url(#satori_om-id)"/><mask id="satori_om-id-3-3-1"><rect x="443" y="75" width="27" height="16" fill="#fff" mask="url(#satori_om-id)"/></mask><g mask="url(#satori_om-id)" clip-path="url(#satori_cp-id)"><path fill="#e0e0f0" d="M448.0 88.1L448.0 88.1Q446.8 88.1 445.8 87.5Q444.9 87.0 444.3 85.9Q443.8 84.8 443.8 83.3L443.8 83.3Q443.8 81.8 444.3 80.7Q444.9 79.6 445.8 79.0Q446.8 78.4 448.0 78.4L448.0 78.4Q448.7 78.4 449.3 78.6Q450.0 78.8 450.5 79.2Q451.0 79.6 451.3 80.2Q451.7 80.8 451.8 81.5L451.8 81.5L450.6 81.5Q450.5 81.0 450.2 80.7Q450.0 80.3 449.6 80.0Q449.3 79.8 448.9 79.7Q448.4 79.5 448.0 79.5L448.0 79.5Q447.1 79.5 446.4 80.0Q445.7 80.4 445.3 81.2Q444.9 82.1 444.9 83.3L444.9 83.3Q444.9 84.5 445.4 85.3Q445.8 86.2 446.4 86.6Q447.1 87.0 448.0 87.0L448.0 87.0Q448.4 87.0 448.9 86.9Q449.3 86.7 449.6 86.5Q450.0 86.2 450.2 85.9Q450.5 85.5 450.6 85.0L450.6 85.0L451.8 85.0Q451.7 85.7 451.3 86.3Q451.0 86.9 450.5 87.3Q450.0 87.7 449.3 87.9Q448.7 88.1 448.0 88.1ZM456.7 88.2L456.7 88.2Q455.6 88.2 454.9 87.8Q454.1 87.5 453.7 86.9Q453.3 86.3 453.2 85.5L453.2 85.5L454.5 85.5Q454.5 86.1 454.8 86.4Q455.1 86.7 455.6 86.9Q456.1 87.1 456.7 87.1L456.7 87.1Q457.3 87.1 457.8 86.9Q458.3 86.7 458.6 86.3Q458.9 85.9 458.9 85.4L458.9 85.4Q458.9 84.9 458.7 84.7Q458.4 84.4 458.0 84.2Q457.6 84.0 457.1 83.9L457.1 83.9L455.9 83.5Q454.8 83.2 454.1 82.6Q453.5 82.0 453.5 81.1L453.5 81.1Q453.5 80.3 453.9 79.7Q454.4 79.1 455.1 78.7Q455.8 78.4 456.7 78.4L456.7 78.4Q457.7 78.4 458.4 78.7Q459.1 79.1 459.5 79.6Q459.9 80.2 460.0 80.9L460.0 80.9L458.8 80.9Q458.7 80.2 458.1 79.9Q457.6 79.5 456.7 79.5L456.7 79.5Q456.1 79.5 455.6 79.7Q455.2 79.9 454.9 80.2Q454.7 80.6 454.7 81.0L454.7 81.0Q454.7 81.5 455.0 81.8Q455.3 82.1 455.7 82.3Q456.1 82.5 456.5 82.5L456.5 82.5L457.4 82.8Q457.8 82.9 458.3 83.1Q458.7 83.3 459.1 83.6Q459.6 83.9 459.8 84.3Q460.1 84.8 460.1 85.4L460.1 85.4Q460.1 86.2 459.7 86.8Q459.3 87.4 458.5 87.8Q457.8 88.2 456.7 88.2ZM465.0 88.2L465.0 88.2Q464.0 88.2 463.2 87.8Q462.5 87.5 462.1 86.9Q461.6 86.3 461.6 85.5L461.6 85.5L462.8 85.5Q462.9 86.1 463.2 86.4Q463.5 86.7 464.0 86.9Q464.5 87.1 465.0 87.1L465.0 87.1Q465.6 87.1 466.2 86.9Q466.7 86.7 467.0 86.3Q467.3 85.9 467.3 85.4L467.3 85.4Q467.3 84.9 467.0 84.7Q466.8 84.4 466.3 84.2Q465.9 84.0 465.4 83.9L465.4 83.9L464.3 83.5Q463.1 83.2 462.5 82.6Q461.8 82.0 461.8 81.1L461.8 81.1Q461.8 80.3 462.3 79.7Q462.7 79.1 463.4 78.7Q464.2 78.4 465.1 78.4L465.1 78.4Q466.0 78.4 466.7 78.7Q467.5 79.1 467.9 79.6Q468.3 80.2 468.3 80.9L468.3 80.9L467.1 80.9Q467.1 80.2 466.5 79.9Q465.9 79.5 465.1 79.5L465.1 79.5Q464.4 79.5 464.0 79.7Q463.5 79.9 463.3 80.2Q463.0 80.6 463.0 81.0L463.0 81.0Q463.0 81.5 463.3 81.8Q463.6 82.1 464.1 82.3Q464.5 82.5 464.8 82.5L464.8 82.5L465.8 82.8Q466.1 82.9 466.6 83.1Q467.1 83.3 467.5 83.6Q467.9 83.9 468.2 84.3Q468.4 84.8 468.4 85.4L468.4 85.4Q468.4 86.2 468.0 86.8Q467.6 87.4 466.9 87.8Q466.1 88.2 465.0 88.2Z "/></g><mask id="satori_om-id-3-3-2"><rect x="476" y="77" width="23" height="13" fill="#fff" mask="url(#satori_om-id)"/></mask><g mask="url(#satori_om-id)" clip-path="url(#satori_cp-id)"><path fill="#6a6a8a" d="M478.3 80.0L479.5 80.0L479.5 88L478.5 88L478.5 80.9L478.4 80.9L476.5 82.4L476.5 81.3L478.3 80.0ZM483.9 88.1L483.9 88.1Q483.1 88.1 482.4 87.6Q481.8 87.1 481.5 86.2Q481.1 85.3 481.1 84.0L481.1 84.0Q481.1 82.7 481.5 81.8Q481.8 80.9 482.4 80.4Q483.1 79.9 483.9 79.9L483.9 79.9Q484.8 79.9 485.5 80.4Q486.1 80.9 486.4 81.8Q486.8 82.7 486.8 84.0L486.8 84.0Q486.8 85.3 486.4 86.2Q486.1 87.1 485.5 87.6Q484.8 88.1 483.9 88.1ZM483.9 87.2L483.9 87.2Q484.5 87.2 484.9 86.8Q485.3 86.5 485.6 85.7Q485.8 85.0 485.8 84.0L485.8 84.0Q485.8 83.0 485.6 82.3Q485.3 81.5 484.9 81.2Q484.5 80.8 483.9 80.8L483.9 80.8Q483.4 80.8 483.0 81.2Q482.5 81.5 482.3 82.3Q482.1 83.0 482.1 84.0L482.1 84.0Q482.1 85.0 482.3 85.7Q482.5 86.5 483.0 86.8Q483.4 87.2 483.9 87.2ZM490.2 83.5L490.2 83.5Q489.7 83.5 489.4 83.3Q489.0 83.1 488.8 82.7Q488.6 82.3 488.6 81.9L488.6 81.9L488.6 81.5Q488.6 81.0 488.8 80.7Q489.0 80.3 489.4 80.1Q489.7 79.9 490.2 79.9L490.2 79.9Q490.7 79.9 491.1 80.1Q491.4 80.3 491.6 80.7Q491.8 81.0 491.8 81.5L491.8 81.5L491.8 81.9Q491.8 82.3 491.6 82.7Q491.4 83.1 491.1 83.3Q490.7 83.5 490.2 83.5ZM490.2 82.8L490.2 82.8Q490.6 82.8 490.8 82.6Q491.0 82.3 491.0 81.9L491.0 81.9L491.0 81.5Q491.0 81.1 490.8 80.9Q490.6 80.6 490.2 80.6L490.2 80.6Q489.8 80.6 489.6 80.9Q489.5 81.1 489.5 81.5L489.5 81.5L489.5 81.9Q489.5 82.3 489.6 82.6Q489.8 82.8 490.2 82.8ZM495.4 88.2L495.4 88.2Q494.9 88.2 494.6 87.9Q494.2 87.7 494.0 87.3Q493.8 87.0 493.8 86.5L493.8 86.5L493.8 86.1Q493.8 85.7 494.0 85.3Q494.2 84.9 494.6 84.7Q494.9 84.5 495.4 84.5L495.4 84.5Q495.9 84.5 496.3 84.7Q496.6 84.9 496.8 85.3Q497.0 85.7 497.0 86.1L497.0 86.1L497.0 86.5Q497.0 87.0 496.8 87.3Q496.6 87.7 496.3 87.9Q495.9 88.2 495.4 88.2ZM495.4 87.5L495.4 87.5Q495.8 87.5 496.0 87.2Q496.2 86.9 496.2 86.5L496.2 86.5L496.2 86.1Q496.2 85.8 496.0 85.5Q495.8 85.2 495.4 85.2L495.4 85.2Q495.0 85.2 494.8 85.5Q494.7 85.8 494.7 86.1L494.7 86.1L494.7 86.5Q494.7 86.9 494.8 87.2Q495.0 87.5 495.4 87.5ZM490.5 88L489.6 88L495.1 80.0L496.0 80.0L490.5 88Z "/></g><mask id="satori_om-id-3-4"><rect x="561" y="75" width="120" height="16" fill="#fff" mask="url(#satori_om-id)"/></mask><mask id="satori_ms-id-3-4-0-0" maskUnits="userSpaceOnUse"><rect x="0" y="0" width="800" height="180" fill="#fff"/><path x="561" y="78" width="10" height="10" fill="#000"  stroke-width="0" d="M566,78 h0 a5,5 0 0 1 5,5 v0 a5,5 0 0 1 -5,5 h0 a5,5 0 0 1 -5,-5 v0 a5,5 0 0 1 5,-5" clip-path="url(#satori_cp-id)" mask="url(#satori_om-id)"/></mask><defs><filter id="satori_s-id-3-4-0-0" x="-90%" y="-90%" width="280%" height="280%"><feGaussianBlur stdDeviation="3" result="b"/><feFlood flood-color="#3178c640" in="SourceGraphic" result="f"/><feComposite in="f" in2="b" operator="in"/></filter></defs><g mask="url(#satori_ms-id-3-4-0-0)" filter="url(#satori_s-id-3-4-0-0)" opacity="1"><path x="561" y="78" width="10" height="10" fill="#fff" stroke="#fff" stroke-width="0" d="M566,78 h0 a5,5 0 0 1 5,5 v0 a5,5 0 0 1 -5,5 h0 a5,5 0 0 1 -5,-5 v0 a5,5 0 0 1 5,-5" clip-path="url(#satori_cp-id)" mask="url(#satori_om-id)"/></g><mask id="satori_om-id-3-4-0"><rect x="561" y="78" width="10" height="10" fill="#fff" mask="url(#satori_om-id)"/></mask><path x="561" y="78" width="10" height="10" fill="#3178c6" d="M566,78 h0 a5,5 0 0 1 5,5 v0 a5,5 0 0 1 -5,5 h0 a5,5 0 0 1 -5,-5 v0 a5,5 0 0 1 5,-5" clip-path="url(#satori_cp-id)" mask="url(#satori_om-id)"/><mask id="satori_om-id-3-4-1"><rect x="577" y="75" width="68" height="16" fill="#fff" mask="url(#satori_om-id)"/></mask><g mask="url(#satori_om-id)" clip-path="url(#satori_cp-id)"><path fill="#e0e0f0" d="M580.6 79.6L577.6 79.6L577.6 78.5L584.8 78.5L584.8 79.6L581.8 79.6L581.8 88L580.6 88L580.6 79.6ZM586.3 90.6L586.3 90.6L586.6 89.6L586.7 89.6Q587.0 89.7 587.3 89.7Q587.6 89.6 587.8 89.4Q588.1 89.1 588.2 88.6L588.2 88.6L588.4 88.0L585.7 80.9L587.0 80.9L588.5 85.1Q588.7 85.8 588.9 86.4L588.9 86.4Q589.0 86.7 589.0 87.0L589.0 87.0Q589.1 86.7 589.2 86.4L589.2 86.4Q589.4 85.8 589.6 85.1L589.6 85.1L591.1 80.9L592.4 80.9L589.2 89.1Q589.0 89.6 588.7 90.0Q588.4 90.4 588.0 90.5Q587.6 90.7 587.1 90.7L587.1 90.7Q586.8 90.7 586.6 90.7Q586.4 90.6 586.3 90.6ZM594.8 90.7L593.7 90.7L593.7 80.9L594.8 80.9L594.8 82.0L594.9 82.0Q595.1 81.8 595.3 81.6Q595.5 81.3 595.9 81.0Q596.3 80.8 597.0 80.8L597.0 80.8Q597.9 80.8 598.6 81.3Q599.2 81.7 599.6 82.5Q600.0 83.3 600.0 84.5L600.0 84.5Q600.0 85.6 599.6 86.4Q599.2 87.3 598.6 87.7Q597.9 88.2 597.0 88.2L597.0 88.2Q596.3 88.2 595.9 87.9Q595.5 87.7 595.3 87.4Q595.1 87.1 594.9 86.9L594.9 86.9L594.8 86.9L594.8 90.7ZM596.8 87.1L596.8 87.1Q597.5 87.1 597.9 86.8Q598.4 86.4 598.6 85.8Q598.8 85.2 598.8 84.5L598.8 84.5Q598.8 83.7 598.6 83.1Q598.4 82.5 597.9 82.2Q597.5 81.8 596.8 81.8L596.8 81.8Q596.2 81.8 595.7 82.2Q595.3 82.5 595.1 83.1Q594.8 83.7 594.8 84.5L594.8 84.5Q594.8 85.2 595.1 85.8Q595.3 86.5 595.7 86.8Q596.2 87.1 596.8 87.1ZM604.6 88.2L604.6 88.2Q603.6 88.2 602.9 87.7Q602.1 87.2 601.7 86.4Q601.3 85.6 601.3 84.5Q601.3 83.4 601.7 82.6Q602.1 81.8 602.8 81.3Q603.5 80.8 604.5 80.8L604.5 80.8Q605.1 80.8 605.6 81.0Q606.2 81.2 606.6 81.6Q607.1 82.0 607.3 82.7Q607.6 83.4 607.6 84.4L607.6 84.4L607.6 84.8L602.5 84.8Q602.5 85.5 602.7 86.0L602.7 86.0Q603.0 86.6 603.5 86.9Q604.0 87.1 604.7 87.1L604.7 87.1Q605.1 87.1 605.4 87.0Q605.8 86.9 606.0 86.7Q606.3 86.4 606.4 86.0L606.4 86.0L607.5 86.3Q607.3 86.9 606.9 87.3Q606.5 87.7 606.0 87.9Q605.4 88.2 604.6 88.2ZM602.5 83.9L602.5 83.9L606.4 83.9Q606.4 83.4 606.2 83.0L606.2 83.0Q606.0 82.4 605.6 82.1Q605.2 81.8 604.5 81.8Q603.9 81.8 603.4 82.1Q603.0 82.5 602.7 83.0L602.7 83.0Q602.5 83.4 602.5 83.9ZM612.4 88.2L612.4 88.2Q611.4 88.2 610.6 87.8Q609.9 87.5 609.5 86.9Q609.0 86.3 609.0 85.5L609.0 85.5L610.2 85.5Q610.3 86.1 610.6 86.4Q610.9 86.7 611.4 86.9Q611.9 87.1 612.4 87.1L612.4 87.1Q613.0 87.1 613.6 86.9Q614.1 86.7 614.4 86.3Q614.7 85.9 614.7 85.4L614.7 85.4Q614.7 84.9 614.4 84.7Q614.2 84.4 613.7 84.2Q613.3 84.0 612.8 83.9L612.8 83.9L611.7 83.5Q610.5 83.2 609.9 82.6Q609.2 82.0 609.2 81.1L609.2 81.1Q609.2 80.3 609.7 79.7Q610.1 79.1 610.8 78.7Q611.6 78.4 612.5 78.4L612.5 78.4Q613.4 78.4 614.1 78.7Q614.9 79.1 615.3 79.6Q615.7 80.2 615.7 80.9L615.7 80.9L614.5 80.9Q614.5 80.2 613.9 79.9Q613.3 79.5 612.5 79.5L612.5 79.5Q611.8 79.5 611.4 79.7Q610.9 79.9 610.7 80.2Q610.4 80.6 610.4 81.0L610.4 81.0Q610.4 81.5 610.7 81.8Q611.0 82.1 611.5 82.3Q611.9 82.5 612.2 82.5L612.2 82.5L613.2 82.8Q613.5 82.9 614.0 83.1Q614.5 83.3 614.9 83.6Q615.3 83.9 615.6 84.3Q615.8 84.8 615.8 85.4L615.8 85.4Q615.8 86.2 615.4 86.8Q615.0 87.4 614.3 87.8Q613.5 88.2 612.4 88.2ZM620.5 88.2L620.5 88.2Q619.5 88.2 618.8 87.7Q618.1 87.2 617.6 86.4Q617.2 85.6 617.2 84.5L617.2 84.5Q617.2 83.4 617.6 82.6Q618.1 81.7 618.8 81.3Q619.5 80.8 620.5 80.8L620.5 80.8Q621.0 80.8 621.4 80.9Q621.9 81.1 622.3 81.3Q622.7 81.6 622.9 81.9Q623.2 82.3 623.3 82.8L623.3 82.8L622.2 83.1Q622.2 82.8 622.0 82.6Q621.9 82.4 621.6 82.2Q621.4 82.0 621.1 81.9Q620.8 81.8 620.5 81.8L620.5 81.8Q619.8 81.8 619.3 82.2Q618.8 82.6 618.6 83.2Q618.4 83.8 618.4 84.5L618.4 84.5Q618.4 85.2 618.6 85.8Q618.8 86.4 619.3 86.8Q619.8 87.1 620.5 87.1L620.5 87.1Q620.8 87.1 621.1 87.0Q621.4 86.9 621.7 86.8Q621.9 86.6 622.0 86.3Q622.2 86.1 622.3 85.8L622.3 85.8L623.4 86.1Q623.2 86.6 623.0 87.0Q622.7 87.4 622.3 87.6Q621.9 87.9 621.5 88.0Q621.0 88.2 620.5 88.2ZM626.1 88L625.0 88L625.0 80.9L626.1 80.9L626.1 82.0L626.2 82.0Q626.4 81.5 626.9 81.1Q627.4 80.8 628.0 80.8L628.0 80.8Q628.2 80.8 628.3 80.8Q628.5 80.8 628.6 80.8L628.6 80.8L628.6 82.0Q628.6 82.0 628.4 81.9Q628.1 81.9 627.9 81.9L627.9 81.9Q627.4 81.9 627.0 82.1Q626.6 82.3 626.4 82.7Q626.1 83.1 626.1 83.6L626.1 83.6L626.1 88ZM631.0 88L629.9 88L629.9 80.9L631.0 80.9L631.0 88ZM630.5 79.7L630.5 79.7Q630.2 79.7 629.9 79.5Q629.7 79.3 629.7 79.0L629.7 79.0Q629.7 78.7 629.9 78.4Q630.2 78.2 630.5 78.2L630.5 78.2Q630.8 78.2 631.0 78.4Q631.3 78.7 631.3 79.0L631.3 79.0Q631.3 79.3 631.0 79.5Q630.8 79.7 630.5 79.7ZM634.2 90.7L633.0 90.7L633.0 80.9L634.2 80.9L634.2 82.0L634.3 82.0Q634.4 81.8 634.6 81.6Q634.8 81.3 635.2 81.0Q635.6 80.8 636.3 80.8L636.3 80.8Q637.2 80.8 637.9 81.3Q638.6 81.7 639.0 82.5Q639.3 83.3 639.3 84.5L639.3 84.5Q639.3 85.6 639.0 86.4Q638.6 87.3 637.9 87.7Q637.2 88.2 636.3 88.2L636.3 88.2Q635.7 88.2 635.3 87.9Q634.8 87.7 634.6 87.4Q634.4 87.1 634.3 86.9L634.3 86.9L634.2 86.9L634.2 90.7ZM636.2 87.1L636.2 87.1Q636.8 87.1 637.3 86.8Q637.7 86.4 638.0 85.8Q638.2 85.2 638.2 84.5L638.2 84.5Q638.2 83.7 638.0 83.1Q637.7 82.5 637.3 82.2Q636.8 81.8 636.2 81.8L636.2 81.8Q635.5 81.8 635.1 82.2Q634.6 82.5 634.4 83.1Q634.2 83.7 634.2 84.5L634.2 84.5Q634.2 85.2 634.4 85.8Q634.6 86.5 635.1 86.8Q635.5 87.1 636.2 87.1ZM642.3 80.9L643.8 80.9L643.8 81.9L642.3 81.9L642.3 86.2Q642.3 86.6 642.5 86.9Q642.7 87.1 643.2 87.1L643.2 87.1Q643.3 87.1 643.5 87.0Q643.6 87.0 643.8 87.0L643.8 87.0L644.0 88.0Q643.8 88.0 643.6 88.1Q643.4 88.1 643.1 88.1L643.1 88.1Q642.2 88.1 641.7 87.6Q641.2 87.1 641.2 86.2L641.2 86.2L641.2 81.9L640.1 81.9L640.1 80.9L641.2 80.9L641.2 79.2L642.3 79.2L642.3 80.9Z "/></g><mask id="satori_om-id-3-4-2"><rect x="651" y="77" width="18" height="13" fill="#fff" mask="url(#satori_om-id)"/></mask><g mask="url(#satori_om-id)" clip-path="url(#satori_cp-id)"><path fill="#6a6a8a" d="M654.4 88.1L654.4 88.1Q653.6 88.1 653.0 87.8Q652.3 87.5 652.0 87.0Q651.7 86.5 651.7 85.9L651.7 85.9Q651.7 85.4 651.9 84.9Q652.1 84.5 652.4 84.2Q652.8 83.9 653.2 83.8L653.2 83.8L653.2 83.8Q652.6 83.6 652.3 83.1Q651.9 82.7 651.9 82.0L651.9 82.0Q651.9 81.4 652.3 80.9Q652.6 80.4 653.1 80.2Q653.7 79.9 654.4 79.9L654.4 79.9Q655.1 79.9 655.7 80.2Q656.2 80.4 656.5 80.9Q656.8 81.4 656.8 82.0L656.8 82.0Q656.8 82.7 656.5 83.1Q656.2 83.6 655.6 83.8L655.6 83.8L655.6 83.8Q656.0 83.9 656.4 84.2Q656.7 84.5 656.9 84.9Q657.1 85.4 657.1 85.9L657.1 85.9Q657.1 86.5 656.8 87.0Q656.4 87.5 655.8 87.8Q655.2 88.1 654.4 88.1ZM654.4 87.2L654.4 87.2Q654.9 87.2 655.3 87.0Q655.7 86.9 655.9 86.6Q656.1 86.2 656.1 85.8L656.1 85.8Q656.1 85.4 655.9 85.0Q655.7 84.7 655.3 84.5Q654.9 84.3 654.4 84.3L654.4 84.3Q653.9 84.3 653.5 84.5Q653.1 84.7 652.9 85.0Q652.7 85.4 652.7 85.8L652.7 85.8Q652.7 86.2 652.9 86.6Q653.1 86.9 653.5 87.0Q653.9 87.2 654.4 87.2ZM654.4 83.4L654.4 83.4Q654.8 83.4 655.2 83.3Q655.5 83.1 655.7 82.8Q655.9 82.5 655.9 82.1L655.9 82.1Q655.9 81.7 655.7 81.4Q655.5 81.1 655.2 80.9Q654.8 80.8 654.4 80.8L654.4 80.8Q654.0 80.8 653.6 80.9Q653.3 81.1 653.1 81.4Q652.9 81.7 652.9 82.1L652.9 82.1Q652.9 82.5 653.1 82.8Q653.3 83.1 653.6 83.3Q654.0 83.4 654.4 83.4ZM660.6 83.5L660.6 83.5Q660.1 83.5 659.8 83.3Q659.4 83.1 659.2 82.7Q659.0 82.3 659.0 81.9L659.0 81.9L659.0 81.5Q659.0 81.0 659.2 80.7Q659.4 80.3 659.8 80.1Q660.1 79.9 660.6 79.9L660.6 79.9Q661.1 79.9 661.5 80.1Q661.8 80.3 662 80.7Q662.2 81.0 662.2 81.5L662.2 81.5L662.2 81.9Q662.2 82.3 662.0 82.7Q661.8 83.1 661.5 83.3Q661.1 83.5 660.6 83.5ZM660.6 82.8L660.6 82.8Q661.0 82.8 661.2 82.6Q661.4 82.3 661.4 81.9L661.4 81.9L661.4 81.5Q661.4 81.1 661.2 80.9Q661.0 80.6 660.6 80.6L660.6 80.6Q660.2 80.6 660.0 80.9Q659.9 81.1 659.9 81.5L659.9 81.5L659.9 81.9Q659.9 82.3 660.0 82.6Q660.2 82.8 660.6 82.8ZM665.8 88.2L665.8 88.2Q665.3 88.2 664.9 87.9Q664.6 87.7 664.4 87.3Q664.2 87.0 664.2 86.5L664.2 86.5L664.2 86.1Q664.2 85.7 664.4 85.3Q664.6 84.9 665.0 84.7Q665.3 84.5 665.8 84.5L665.8 84.5Q666.3 84.5 666.7 84.7Q667.0 84.9 667.2 85.3Q667.4 85.7 667.4 86.1L667.4 86.1L667.4 86.5Q667.4 87.0 667.2 87.3Q667.0 87.7 666.7 87.9Q666.3 88.2 665.8 88.2ZM665.8 87.5L665.8 87.5Q666.2 87.5 666.4 87.2Q666.5 86.9 666.5 86.5L666.5 86.5L666.5 86.1Q666.5 85.8 666.4 85.5Q666.2 85.2 665.8 85.2L665.8 85.2Q665.4 85.2 665.2 85.5Q665.1 85.8 665.1 86.1L665.1 86.1L665.1 86.5Q665.1 86.9 665.2 87.2Q665.4 87.5 665.8 87.5ZM660.9 88L660.0 88L665.5 80.0L666.4 80.0L660.9 88Z "/></g><mask id="satori_om-id-3-5"><rect x="25" y="105" width="120" height="16" fill="#fff" mask="url(#satori_om-id)"/></mask><mask id="satori_ms-id-3-5-0-0" maskUnits="userSpaceOnUse"><rect x="0" y="0" width="800" height="180" fill="#fff"/><path x="25" y="108" width="10" height="10" fill="#000"  stroke-width="0" d="M30,108 h0 a5,5 0 0 1 5,5 v0 a5,5 0 0 1 -5,5 h0 a5,5 0 0 1 -5,-5 v0 a5,5 0 0 1 5,-5" clip-path="url(#satori_cp-id)" mask="url(#satori_om-id)"/></mask><defs><filter id="satori_s-id-3-5-0-0" x="-90%" y="-90%" width="280%" height="280%"><feGaussianBlur stdDeviation="3" result="b"/><feFlood flood-color="#5686a540" in="SourceGraphic" result="f"/><feComposite in="f" in2="b" operator="in"/></filter></defs><g mask="url(#satori_ms-id-3-5-0-0)" filter="url(#satori_s-id-3-5-0-0)" opacity="1"><path x="25" y="108" width="10" height="10" fill="#fff" stroke="#fff" stroke-width="0" d="M30,108 h0 a5,5 0 0 1 5,5 v0 a5,5 0 0 1 -5,5 h0 a5,5 0 0 1 -5,-5 v0 a5,5 0 0 1 5,-5" clip-path="url(#satori_cp-id)" mask="url(#satori_om-id)"/></g><mask id="satori_om-id-3-5-0"><rect x="25" y="108" width="10" height="10" fill="#fff" mask="url(#satori_om-id)"/></mask><path x="25" y="108" width="10" height="10" fill="#5686a5" d="M30,108 h0 a5,5 0 0 1 5,5 v0 a5,5 0 0 1 -5,5 h0 a5,5 0 0 1 -5,-5 v0 a5,5 0 0 1 5,-5" clip-path="url(#satori_cp-id)" mask="url(#satori_om-id)"/><mask id="satori_om-id-3-5-1"><rect x="41" y="105" width="33" height="16" fill="#fff" mask="url(#satori_om-id)"/></mask><g mask="url(#satori_om-id)" clip-path="url(#satori_cp-id)"><path fill="#e0e0f0" d="M46.0 118.1L46.0 118.1Q44.7 118.1 43.8 117.5Q42.8 116.9 42.3 115.9Q41.8 114.8 41.8 113.3L41.8 113.3Q41.8 111.8 42.3 110.7Q42.8 109.6 43.8 109.0Q44.7 108.4 45.9 108.4L45.9 108.4Q46.7 108.4 47.3 108.6Q48.0 108.9 48.5 109.3Q49.0 109.7 49.4 110.3Q49.7 110.8 49.8 111.5L49.8 111.5L48.6 111.5Q48.4 111.0 48.2 110.7Q47.9 110.3 47.6 110.1Q47.3 109.8 46.9 109.7Q46.4 109.5 45.9 109.5L45.9 109.5Q45.1 109.5 44.4 110.0Q43.7 110.4 43.3 111.2Q42.9 112.1 42.9 113.3L42.9 113.3Q42.9 114.5 43.4 115.3Q43.8 116.1 44.4 116.6Q45.1 117.0 46.0 117.0L46.0 117.0Q46.8 117.0 47.4 116.7Q48.0 116.3 48.4 115.7L48.4 115.7Q48.7 115.1 48.7 114.3L48.7 114.3L46.3 114.3L46.3 113.2L49.9 113.2L49.9 114.3Q49.9 115.5 49.4 116.3Q48.9 117.2 48.0 117.7Q47.1 118.1 46.0 118.1ZM57.4 118L51.8 118L51.8 108.5L53.0 108.5L53.0 116.9L57.4 116.9L57.4 118ZM62.2 118.2L62.2 118.2Q61.2 118.2 60.4 117.8Q59.7 117.5 59.3 116.9Q58.8 116.3 58.8 115.5L58.8 115.5L60.0 115.5Q60.1 116.1 60.4 116.4Q60.7 116.7 61.2 116.9Q61.7 117.1 62.2 117.1L62.2 117.1Q62.9 117.1 63.4 116.9Q63.9 116.7 64.2 116.3Q64.5 115.9 64.5 115.4L64.5 115.4Q64.5 114.9 64.2 114.7Q64.0 114.4 63.5 114.2Q63.1 114.0 62.6 113.9L62.6 113.9L61.5 113.5Q60.3 113.2 59.7 112.6Q59.1 112.0 59.1 111.1L59.1 111.1Q59.1 110.3 59.5 109.7Q59.9 109.1 60.7 108.7Q61.4 108.4 62.3 108.4L62.3 108.4Q63.2 108.4 64.0 108.7Q64.7 109.1 65.1 109.6Q65.5 110.2 65.5 110.9L65.5 110.9L64.3 110.9Q64.3 110.2 63.7 109.9Q63.1 109.5 62.3 109.5L62.3 109.5Q61.7 109.5 61.2 109.7Q60.7 109.9 60.5 110.2Q60.2 110.6 60.2 111.0L60.2 111.0Q60.2 111.5 60.5 111.8Q60.8 112.1 61.3 112.3Q61.7 112.5 62.0 112.5L62.0 112.5L63.0 112.8Q63.4 112.9 63.8 113.1Q64.3 113.3 64.7 113.6Q65.1 113.9 65.4 114.3Q65.7 114.8 65.7 115.4L65.7 115.4Q65.7 116.2 65.3 116.8Q64.8 117.4 64.1 117.8Q63.3 118.2 62.2 118.2ZM73.1 118L67.5 118L67.5 108.5L68.7 108.5L68.7 116.9L73.1 116.9L73.1 118Z "/></g><mask id="satori_om-id-3-5-2"><rect x="80" y="107" width="18" height="13" fill="#fff" mask="url(#satori_om-id)"/></mask><g mask="url(#satori_om-id)" clip-path="url(#satori_cp-id)"><path fill="#6a6a8a" d="M83.2 118.1L83.2 118.1Q82.5 118.1 81.9 117.8Q81.4 117.6 81.0 117.1Q80.7 116.6 80.7 116.0L80.7 116.0L81.7 116.0Q81.7 116.3 81.9 116.6Q82.1 116.9 82.5 117.1Q82.8 117.2 83.2 117.2L83.2 117.2Q83.7 117.2 84.1 117.0Q84.4 116.8 84.7 116.4Q84.9 116.0 84.9 115.5L84.9 115.5Q84.9 114.9 84.6 114.5Q84.4 114.1 84.0 113.9Q83.6 113.7 83.1 113.7L83.1 113.7Q82.8 113.7 82.4 113.8Q82.0 113.9 81.8 114.1L81.8 114.1L80.8 114.0L81.3 110.0L85.5 110.0L85.5 110.9L82.1 110.9L81.9 113.2L81.9 113.2Q82.2 113.0 82.5 112.9Q82.9 112.8 83.3 112.8L83.3 112.8Q83.9 112.8 84.3 113.0Q84.8 113.2 85.1 113.5Q85.5 113.9 85.7 114.4Q85.9 114.9 85.9 115.4L85.9 115.4Q85.9 116.2 85.5 116.8Q85.2 117.4 84.6 117.8Q84.0 118.1 83.2 118.1ZM89.3 113.5L89.3 113.5Q88.8 113.5 88.5 113.3Q88.1 113.1 87.9 112.7Q87.8 112.3 87.8 111.9L87.8 111.9L87.8 111.5Q87.8 111.0 87.9 110.7Q88.1 110.3 88.5 110.1Q88.8 109.9 89.3 109.9L89.3 109.9Q89.9 109.9 90.2 110.1Q90.5 110.3 90.7 110.7Q90.9 111.0 90.9 111.5L90.9 111.5L90.9 111.9Q90.9 112.3 90.7 112.7Q90.5 113.1 90.2 113.3Q89.8 113.5 89.3 113.5ZM89.3 112.8L89.3 112.8Q89.7 112.8 89.9 112.6Q90.1 112.3 90.1 111.9L90.1 111.9L90.1 111.5Q90.1 111.1 89.9 110.9Q89.8 110.6 89.3 110.6L89.3 110.6Q88.9 110.6 88.8 110.9Q88.6 111.1 88.6 111.5L88.6 111.5L88.6 111.9Q88.6 112.3 88.8 112.6Q88.9 112.8 89.3 112.8ZM94.5 118.2L94.5 118.2Q94.0 118.2 93.7 117.9Q93.3 117.7 93.1 117.3Q93.0 117.0 93.0 116.5L93.0 116.5L93.0 116.1Q93.0 115.7 93.1 115.3Q93.3 114.9 93.7 114.7Q94.0 114.5 94.5 114.5L94.5 114.5Q95.0 114.5 95.4 114.7Q95.7 114.9 95.9 115.3Q96.1 115.7 96.1 116.1L96.1 116.1L96.1 116.5Q96.1 117.0 95.9 117.3Q95.7 117.7 95.4 117.9Q95.0 118.2 94.5 118.2ZM94.5 117.5L94.5 117.5Q94.9 117.5 95.1 117.2Q95.3 116.9 95.3 116.5L95.3 116.5L95.3 116.1Q95.3 115.8 95.1 115.5Q94.9 115.2 94.5 115.2L94.5 115.2Q94.1 115.2 94.0 115.5Q93.8 115.8 93.8 116.1L93.8 116.1L93.8 116.5Q93.8 116.9 93.9 117.2Q94.1 117.5 94.5 117.5ZM89.6 118L88.7 118L94.2 110.0L95.1 110.0L89.6 118Z "/></g><mask id="satori_om-id-3-6"><rect x="159" y="105" width="120" height="16" fill="#fff" mask="url(#satori_om-id)"/></mask><mask id="satori_ms-id-3-6-0-0" maskUnits="userSpaceOnUse"><rect x="0" y="0" width="800" height="180" fill="#fff"/><path x="159" y="108" width="10" height="10" fill="#000"  stroke-width="0" d="M164,108 h0 a5,5 0 0 1 5,5 v0 a5,5 0 0 1 -5,5 h0 a5,5 0 0 1 -5,-5 v0 a5,5 0 0 1 5,-5" clip-path="url(#satori_cp-id)" mask="url(#satori_om-id)"/></mask><defs><filter id="satori_s-id-3-6-0-0" x="-90%" y="-90%" width="280%" height="280%"><feGaussianBlur stdDeviation="3" result="b"/><feFlood flood-color="#89e05140" in="SourceGraphic" result="f"/><feComposite in="f" in2="b" operator="in"/></filter></defs><g mask="url(#satori_ms-id-3-6-0-0)" filter="url(#satori_s-id-3-6-0-0)" opacity="1"><path x="159" y="108" width="10" height="10" fill="#fff" stroke="#fff" stroke-width="0" d="M164,108 h0 a5,5 0 0 1 5,5 v0 a5,5 0 0 1 -5,5 h0 a5,5 0 0 1 -5,-5 v0 a5,5 0 0 1 5,-5" clip-path="url(#satori_cp-id)" mask="url(#satori_om-id)"/></g><mask id="satori_om-id-3-6-0"><rect x="159" y="108" width="10" height="10" fill="#fff" mask="url(#satori_om-id)"/></mask><path x="159" y="108" width="10" height="10" fill="#89e051" d="M164,108 h0 a5,5 0 0 1 5,5 v0 a5,5 0 0 1 -5,5 h0 a5,5 0 0 1 -5,-5 v0 a5,5 0 0 1 5,-5" clip-path="url(#satori_cp-id)" mask="url(#satori_om-id)"/><mask id="satori_om-id-3-6-1"><rect x="175" y="105" width="30" height="16" fill="#fff" mask="url(#satori_om-id)"/></mask><g mask="url(#satori_om-id)" clip-path="url(#satori_cp-id)"><path fill="#e0e0f0" d="M179.2 118.2L179.2 118.2Q178.1 118.2 177.4 117.8Q176.6 117.5 176.2 116.9Q175.8 116.3 175.7 115.5L175.7 115.5L177.0 115.5Q177.0 116.1 177.3 116.4Q177.6 116.7 178.1 116.9Q178.6 117.1 179.2 117.1L179.2 117.1Q179.8 117.1 180.3 116.9Q180.8 116.7 181.1 116.3Q181.4 115.9 181.4 115.4L181.4 115.4Q181.4 114.9 181.2 114.7Q180.9 114.4 180.5 114.2Q180.1 114.0 179.6 113.9L179.6 113.9L178.4 113.5Q177.3 113.2 176.6 112.6Q176.0 112.0 176.0 111.1L176.0 111.1Q176.0 110.3 176.4 109.7Q176.9 109.1 177.6 108.7Q178.3 108.4 179.3 108.4L179.3 108.4Q180.2 108.4 180.9 108.7Q181.6 109.1 182.0 109.6Q182.5 110.2 182.5 110.9L182.5 110.9L181.3 110.9Q181.2 110.2 180.6 109.9Q180.1 109.5 179.2 109.5L179.2 109.5Q178.6 109.5 178.1 109.7Q177.7 109.9 177.4 110.2Q177.2 110.6 177.2 111.0L177.2 111.0Q177.2 111.5 177.5 111.8Q177.8 112.1 178.2 112.3Q178.6 112.5 179.0 112.5L179.0 112.5L179.9 112.8Q180.3 112.9 180.8 113.1Q181.2 113.3 181.6 113.6Q182.1 113.9 182.3 114.3Q182.6 114.8 182.6 115.4L182.6 115.4Q182.6 116.2 182.2 116.8Q181.8 117.4 181.0 117.8Q180.3 118.2 179.2 118.2ZM185.5 113.7L185.5 113.7L185.5 118L184.3 118L184.3 108.5L185.5 108.5L185.5 112.1Q185.8 111.5 186.2 111.2L186.2 111.2Q186.8 110.8 187.6 110.8L187.6 110.8Q188.3 110.8 188.9 111.1Q189.4 111.4 189.7 112.0Q190.0 112.6 190.0 113.5L190.0 113.5L190.0 118L188.9 118L188.9 113.6Q188.9 112.8 188.4 112.3Q188.0 111.8 187.3 111.8L187.3 111.8Q186.8 111.8 186.4 112.1Q186.0 112.3 185.7 112.7Q185.5 113.1 185.5 113.7ZM195.0 118.2L195.0 118.2Q194.0 118.2 193.2 117.7Q192.5 117.2 192.1 116.4Q191.7 115.6 191.7 114.5Q191.7 113.4 192.1 112.6Q192.5 111.8 193.2 111.3Q193.9 110.8 194.9 110.8L194.9 110.8Q195.4 110.8 196.0 111.0Q196.5 111.2 197.0 111.6Q197.4 112.0 197.7 112.7Q198.0 113.4 198.0 114.4L198.0 114.4L198.0 114.8L192.8 114.8Q192.9 115.5 193.1 116.0L193.1 116.0Q193.4 116.6 193.9 116.9Q194.4 117.1 195.0 117.1L195.0 117.1Q195.4 117.1 195.8 117.0Q196.1 116.9 196.4 116.7Q196.6 116.4 196.8 116.0L196.8 116.0L197.9 116.3Q197.7 116.9 197.3 117.3Q196.9 117.7 196.3 117.9Q195.7 118.2 195.0 118.2ZM192.8 113.9L192.8 113.9L196.8 113.9Q196.8 113.4 196.6 113.0L196.6 113.0Q196.4 112.4 196.0 112.1Q195.5 111.8 194.9 111.8Q194.2 111.8 193.8 112.1Q193.3 112.5 193.1 113.0L193.1 113.0Q192.9 113.4 192.8 113.9ZM199.6 108.5L200.8 108.5L200.8 118L199.6 118L199.6 108.5ZM202.8 108.5L203.9 108.5L203.9 118L202.8 118L202.8 108.5Z "/></g><mask id="satori_om-id-3-6-2"><rect x="211" y="107" width="18" height="13" fill="#fff" mask="url(#satori_om-id)"/></mask><g mask="url(#satori_om-id)" clip-path="url(#satori_cp-id)"><path fill="#6a6a8a" d="M214.2 118.1L214.2 118.1Q213.5 118.1 212.9 117.8Q212.4 117.6 212.0 117.1Q211.7 116.6 211.7 116.0L211.7 116.0L212.7 116.0Q212.7 116.3 212.9 116.6Q213.1 116.9 213.5 117.1Q213.8 117.2 214.2 117.2L214.2 117.2Q214.7 117.2 215.1 117.0Q215.4 116.8 215.7 116.4Q215.9 116.0 215.9 115.5L215.9 115.5Q215.9 114.9 215.6 114.5Q215.4 114.1 215.0 113.9Q214.6 113.7 214.1 113.7L214.1 113.7Q213.8 113.7 213.4 113.8Q213.0 113.9 212.8 114.1L212.8 114.1L211.8 114.0L212.3 110.0L216.5 110.0L216.5 110.9L213.1 110.9L212.9 113.2L212.9 113.2Q213.2 113.0 213.5 112.9Q213.9 112.8 214.3 112.8L214.3 112.8Q214.9 112.8 215.3 113.0Q215.8 113.2 216.1 113.5Q216.5 113.9 216.7 114.4Q216.9 114.9 216.9 115.4L216.9 115.4Q216.9 116.2 216.5 116.8Q216.2 117.4 215.6 117.8Q215.0 118.1 214.2 118.1ZM220.3 113.5L220.3 113.5Q219.8 113.5 219.5 113.3Q219.1 113.1 218.9 112.7Q218.8 112.3 218.8 111.9L218.8 111.9L218.8 111.5Q218.8 111.0 218.9 110.7Q219.1 110.3 219.5 110.1Q219.8 109.9 220.3 109.9L220.3 109.9Q220.9 109.9 221.2 110.1Q221.5 110.3 221.7 110.7Q221.9 111.0 221.9 111.5L221.9 111.5L221.9 111.9Q221.9 112.3 221.7 112.7Q221.5 113.1 221.2 113.3Q220.8 113.5 220.3 113.5ZM220.3 112.8L220.3 112.8Q220.7 112.8 220.9 112.6Q221.1 112.3 221.1 111.9L221.1 111.9L221.1 111.5Q221.1 111.1 220.9 110.9Q220.8 110.6 220.3 110.6L220.3 110.6Q219.9 110.6 219.8 110.9Q219.6 111.1 219.6 111.5L219.6 111.5L219.6 111.9Q219.6 112.3 219.8 112.6Q219.9 112.8 220.3 112.8ZM225.5 118.2L225.5 118.2Q225.0 118.2 224.7 117.9Q224.3 117.7 224.1 117.3Q224.0 117.0 224.0 116.5L224.0 116.5L224.0 116.1Q224.0 115.7 224.1 115.3Q224.3 114.9 224.7 114.7Q225.0 114.5 225.5 114.5L225.5 114.5Q226.0 114.5 226.4 114.7Q226.7 114.9 226.9 115.3Q227.1 115.7 227.1 116.1L227.1 116.1L227.1 116.5Q227.1 117.0 226.9 117.3Q226.7 117.7 226.4 117.9Q226.0 118.2 225.5 118.2ZM225.5 117.5L225.5 117.5Q225.9 117.5 226.1 117.2Q226.3 116.9 226.3 116.5L226.3 116.5L226.3 116.1Q226.3 115.8 226.1 115.5Q225.9 115.2 225.5 115.2L225.5 115.2Q225.1 115.2 225.0 115.5Q224.8 115.8 224.8 116.1L224.8 116.1L224.8 116.5Q224.8 116.9 224.9 117.2Q225.1 117.5 225.5 117.5ZM220.6 118L219.7 118L225.2 110.0L226.1 110.0L220.6 118Z "/></g><mask id="satori_om-id-3-7"><rect x="293" y="105" width="120" height="16" fill="#fff" mask="url(#satori_om-id)"/></mask><mask id="satori_ms-id-3-7-0-0" maskUnits="userSpaceOnUse"><rect x="0" y="0" width="800" height="180" fill="#fff"/><path x="293" y="108" width="10" height="10" fill="#000"  stroke-width="0" d="M298,108 h0 a5,5 0 0 1 5,5 v0 a5,5 0 0 1 -5,5 h0 a5,5 0 0 1 -5,-5 v0 a5,5 0 0 1 5,-5" clip-path="url(#satori_cp-id)" mask="url(#satori_om-id)"/></mask><defs><filter id="satori_s-id-3-7-0-0" x="-90%" y="-90%" width="280%" height="280%"><feGaussianBlur stdDeviation="3" result="b"/><feFlood flood-color="#6E4C1340" in="SourceGraphic" result="f"/><feComposite in="f" in2="b" operator="in"/></filter></defs><g mask="url(#satori_ms-id-3-7-0-0)" filter="url(#satori_s-id-3-7-0-0)" opacity="1"><path x="293" y="108" width="10" height="10" fill="#fff" stroke="#fff" stroke-width="0" d="M298,108 h0 a5,5 0 0 1 5,5 v0 a5,5 0 0 1 -5,5 h0 a5,5 0 0 1 -5,-5 v0 a5,5 0 0 1 5,-5" clip-path="url(#satori_cp-id)" mask="url(#satori_om-id)"/></g><mask id="satori_om-id-3-7-0"><rect x="293" y="108" width="10" height="10" fill="#fff" mask="url(#satori_om-id)"/></mask><path x="293" y="108" width="10" height="10" fill="#6E4C13" d="M298,108 h0 a5,5 0 0 1 5,5 v0 a5,5 0 0 1 -5,5 h0 a5,5 0 0 1 -5,-5 v0 a5,5 0 0 1 5,-5" clip-path="url(#satori_cp-id)" mask="url(#satori_om-id)"/><mask id="satori_om-id-3-7-1"><rect x="309" y="105" width="61" height="16" fill="#fff" mask="url(#satori_om-id)"/></mask><g mask="url(#satori_om-id)" clip-path="url(#satori_cp-id)"><path fill="#e0e0f0" d="M310.6 118L309.3 118L312.8 108.5L314.2 108.5L317.6 118L316.4 118L315.4 115.4L311.5 115.4L310.6 118ZM311.9 114.3L315.0 114.3L314.4 112.4Q314.2 111.9 313.9 111.1L313.9 111.1Q313.7 110.4 313.5 109.5L313.5 109.5Q313.2 110.5 313.0 111.1L313.0 111.1Q312.7 111.9 312.6 112.4L312.6 112.4L311.9 114.3ZM321.4 118.2L321.4 118.2Q320.7 118.2 320.1 117.9Q319.5 117.7 319.1 117.3Q318.8 116.9 318.7 116.3L318.7 116.3L319.7 116.0Q319.9 116.6 320.3 116.9Q320.7 117.1 321.4 117.1L321.4 117.1Q322.1 117.1 322.6 116.8Q323.0 116.5 323.0 116.1L323.0 116.1Q323.0 115.7 322.7 115.5Q322.5 115.2 322.0 115.1L322.0 115.1L320.8 114.8Q319.8 114.6 319.3 114.1Q318.9 113.6 318.9 112.9L318.9 112.9Q318.9 112.3 319.2 111.8Q319.6 111.3 320.1 111.1Q320.7 110.8 321.5 110.8L321.5 110.8Q322.2 110.8 322.7 111.0Q323.3 111.3 323.6 111.6Q323.9 112.0 324.1 112.5L324.1 112.5L323.0 112.8Q322.9 112.4 322.5 112.1Q322.2 111.8 321.5 111.8L321.5 111.8Q320.9 111.8 320.4 112.1Q320.0 112.4 320.0 112.8L320.0 112.8Q320.0 113.2 320.3 113.4Q320.6 113.7 321.2 113.8L321.2 113.8L322.3 114.1Q323.3 114.3 323.7 114.8Q324.2 115.3 324.2 116.0L324.2 116.0Q324.2 116.6 323.8 117.1Q323.5 117.6 322.8 117.9Q322.2 118.2 321.4 118.2ZM328.2 118.2L328.2 118.2Q327.5 118.2 326.9 117.9Q326.4 117.7 326.0 117.3Q325.6 116.9 325.5 116.3L325.5 116.3L326.6 116.0Q326.8 116.6 327.2 116.9Q327.6 117.1 328.2 117.1L328.2 117.1Q329.0 117.1 329.4 116.8Q329.9 116.5 329.9 116.1L329.9 116.1Q329.9 115.7 329.6 115.5Q329.3 115.2 328.8 115.1L328.8 115.1L327.6 114.8Q326.7 114.6 326.2 114.1Q325.7 113.6 325.7 112.9L325.7 112.9Q325.7 112.3 326.1 111.8Q326.4 111.3 327.0 111.1Q327.6 110.8 328.4 110.8L328.4 110.8Q329.1 110.8 329.6 111.0Q330.1 111.3 330.4 111.6Q330.8 112.0 330.9 112.5L330.9 112.5L329.9 112.8Q329.7 112.4 329.4 112.1Q329.1 111.8 328.4 111.8L328.4 111.8Q327.7 111.8 327.3 112.1Q326.9 112.4 326.9 112.8L326.9 112.8Q326.9 113.2 327.2 113.4Q327.5 113.7 328.1 113.8L328.1 113.8L329.2 114.1Q330.1 114.3 330.6 114.8Q331.0 115.3 331.0 116.0L331.0 116.0Q331.0 116.6 330.7 117.1Q330.3 117.6 329.7 117.9Q329.1 118.2 328.2 118.2ZM335.7 118.2L335.7 118.2Q334.7 118.2 333.9 117.7Q333.2 117.2 332.8 116.4Q332.4 115.6 332.4 114.5Q332.4 113.4 332.7 112.6Q333.1 111.8 333.9 111.3Q334.6 110.8 335.5 110.8L335.5 110.8Q336.1 110.8 336.7 111.0Q337.2 111.2 337.7 111.6Q338.1 112.0 338.4 112.7Q338.6 113.4 338.6 114.4L338.6 114.4L338.6 114.8L333.5 114.8Q333.5 115.5 333.8 116.0L333.8 116.0Q334.1 116.6 334.5 116.9Q335.0 117.1 335.7 117.1L335.7 117.1Q336.1 117.1 336.4 117.0Q336.8 116.9 337.0 116.7Q337.3 116.4 337.4 116.0L337.4 116.0L338.5 116.3Q338.4 116.9 338.0 117.3Q337.6 117.7 337.0 117.9Q336.4 118.2 335.7 118.2ZM333.5 113.9L333.5 113.9L337.5 113.9Q337.4 113.4 337.3 113.0L337.3 113.0Q337.1 112.4 336.6 112.1Q336.2 111.8 335.5 111.8Q334.9 111.8 334.4 112.1Q334.0 112.5 333.7 113.0L333.7 113.0Q333.5 113.4 333.5 113.9ZM341.4 118L340.3 118L340.3 110.9L341.4 110.9L341.4 112.2Q341.5 111.8 341.8 111.5L341.8 111.5Q342.1 111.2 342.5 111.0Q342.9 110.8 343.4 110.8L343.4 110.8Q344.2 110.8 344.6 111.3L344.6 111.3Q345.0 111.6 345.2 112.2L345.2 112.2Q345.3 111.9 345.6 111.6L345.6 111.6Q345.9 111.2 346.4 111.0Q346.9 110.8 347.4 110.8L347.4 110.8Q348.0 110.8 348.5 111.0Q349.1 111.3 349.4 111.8Q349.7 112.4 349.7 113.2L349.7 113.2L349.7 118L348.5 118L348.5 113.2Q348.5 112.5 348.1 112.1Q347.7 111.8 347.1 111.8L347.1 111.8Q346.6 111.8 346.3 112.0Q345.9 112.2 345.7 112.6Q345.5 112.9 345.5 113.4L345.5 113.4L345.5 118L344.4 118L344.4 113.1Q344.4 112.5 344.0 112.2Q343.6 111.8 343.0 111.8L343.0 111.8Q342.6 111.8 342.2 112.0Q341.9 112.2 341.6 112.6Q341.4 113.0 341.4 113.5L341.4 113.5L341.4 118ZM355.0 118.2L355.0 118.2Q354.3 118.2 353.9 117.9Q353.5 117.7 353.2 117.4Q353.0 117.1 352.9 116.9L352.9 116.9L352.8 116.9L352.8 118L351.7 118L351.7 108.5L352.8 108.5L352.8 112.0L352.9 112.0Q353.0 111.8 353.2 111.6Q353.4 111.3 353.9 111.0Q354.3 110.8 355.0 110.8L355.0 110.8Q355.8 110.8 356.5 111.3Q357.2 111.7 357.6 112.5Q358.0 113.3 358.0 114.5L358.0 114.5Q358.0 115.6 357.6 116.4Q357.2 117.3 356.5 117.7Q355.8 118.2 355.0 118.2ZM354.8 117.1L354.8 117.1Q355.5 117.1 355.9 116.8Q356.3 116.4 356.6 115.8Q356.8 115.2 356.8 114.5L356.8 114.5Q356.8 113.7 356.6 113.1Q356.4 112.5 355.9 112.2Q355.5 111.8 354.8 111.8L354.8 111.8Q354.1 111.8 353.7 112.2Q353.2 112.5 353.0 113.1Q352.8 113.7 352.8 114.5L352.8 114.5Q352.8 115.2 353.0 115.8Q353.2 116.5 353.7 116.8Q354.1 117.1 354.8 117.1ZM359.6 108.5L360.8 108.5L360.8 118L359.6 118L359.6 108.5ZM362.7 120.6L362.7 120.6L362.9 119.6L363.1 119.6Q363.4 119.7 363.7 119.7Q364.0 119.6 364.2 119.4Q364.4 119.1 364.6 118.6L364.6 118.6L364.8 118.0L362.1 110.9L363.4 110.9L364.9 115.1Q365.1 115.8 365.3 116.4L365.3 116.4Q365.3 116.7 365.4 117.0L365.4 117.0Q365.5 116.7 365.6 116.4L365.6 116.4Q365.7 115.8 366.0 115.1L366.0 115.1L367.5 110.9L368.7 110.9L365.6 119.1Q365.4 119.6 365.1 120.0Q364.8 120.4 364.4 120.5Q364.0 120.7 363.5 120.7L363.5 120.7Q363.2 120.7 363.0 120.7Q362.7 120.6 362.7 120.6Z "/></g><mask id="satori_om-id-3-7-2"><rect x="376" y="107" width="18" height="13" fill="#fff" mask="url(#satori_om-id)"/></mask><g mask="url(#satori_om-id)" clip-path="url(#satori_cp-id)"><path fill="#6a6a8a" d="M379.2 118.1L379.2 118.1Q378.5 118.1 377.9 117.8Q377.4 117.6 377.0 117.1Q376.7 116.6 376.7 116.0L376.7 116.0L377.7 116.0Q377.7 116.3 377.9 116.6Q378.1 116.9 378.5 117.1Q378.8 117.2 379.2 117.2L379.2 117.2Q379.7 117.2 380.1 117.0Q380.4 116.8 380.7 116.4Q380.9 116.0 380.9 115.5L380.9 115.5Q380.9 114.9 380.6 114.5Q380.4 114.1 380.0 113.9Q379.6 113.7 379.1 113.7L379.1 113.7Q378.8 113.7 378.4 113.8Q378.0 113.9 377.8 114.1L377.8 114.1L376.8 114.0L377.3 110.0L381.5 110.0L381.5 110.9L378.1 110.9L377.9 113.2L377.9 113.2Q378.2 113.0 378.5 112.9Q378.9 112.8 379.3 112.8L379.3 112.8Q379.9 112.8 380.3 113.0Q380.8 113.2 381.1 113.5Q381.5 113.9 381.7 114.4Q381.9 114.9 381.9 115.4L381.9 115.4Q381.9 116.2 381.5 116.8Q381.2 117.4 380.6 117.8Q380.0 118.1 379.2 118.1ZM385.3 113.5L385.3 113.5Q384.8 113.5 384.5 113.3Q384.1 113.1 383.9 112.7Q383.8 112.3 383.8 111.9L383.8 111.9L383.8 111.5Q383.8 111.0 383.9 110.7Q384.1 110.3 384.5 110.1Q384.8 109.9 385.3 109.9L385.3 109.9Q385.9 109.9 386.2 110.1Q386.5 110.3 386.7 110.7Q386.9 111.0 386.9 111.5L386.9 111.5L386.9 111.9Q386.9 112.3 386.7 112.7Q386.5 113.1 386.2 113.3Q385.8 113.5 385.3 113.5ZM385.3 112.8L385.3 112.8Q385.7 112.8 385.9 112.6Q386.1 112.3 386.1 111.9L386.1 111.9L386.1 111.5Q386.1 111.1 385.9 110.9Q385.8 110.6 385.3 110.6L385.3 110.6Q384.9 110.6 384.8 110.9Q384.6 111.1 384.6 111.5L384.6 111.5L384.6 111.9Q384.6 112.3 384.8 112.6Q384.9 112.8 385.3 112.8ZM390.5 118.2L390.5 118.2Q390.0 118.2 389.7 117.9Q389.3 117.7 389.1 117.3Q389.0 117.0 389.0 116.5L389.0 116.5L389.0 116.1Q389.0 115.7 389.1 115.3Q389.3 114.9 389.7 114.7Q390.0 114.5 390.5 114.5L390.5 114.5Q391.0 114.5 391.4 114.7Q391.7 114.9 391.9 115.3Q392.1 115.7 392.1 116.1L392.1 116.1L392.1 116.5Q392.1 117.0 391.9 117.3Q391.7 117.7 391.4 117.9Q391.0 118.2 390.5 118.2ZM390.5 117.5L390.5 117.5Q390.9 117.5 391.1 117.2Q391.3 116.9 391.3 116.5L391.3 116.5L391.3 116.1Q391.3 115.8 391.1 115.5Q390.9 115.2 390.5 115.2L390.5 115.2Q390.1 115.2 390.0 115.5Q389.8 115.8 389.8 116.1L389.8 116.1L389.8 116.5Q389.8 116.9 389.9 117.2Q390.1 117.5 390.5 117.5ZM385.6 118L384.7 118L390.2 110.0L391.1 110.0L385.6 118Z "/></g><mask id="satori_om-id-3-8"><rect x="427" y="105" width="120" height="16" fill="#fff" mask="url(#satori_om-id)"/></mask><mask id="satori_ms-id-3-8-0-0" maskUnits="userSpaceOnUse"><rect x="0" y="0" width="800" height="180" fill="#fff"/><path x="427" y="108" width="10" height="10" fill="#000"  stroke-width="0" d="M432,108 h0 a5,5 0 0 1 5,5 v0 a5,5 0 0 1 -5,5 h0 a5,5 0 0 1 -5,-5 v0 a5,5 0 0 1 5,-5" clip-path="url(#satori_cp-id)" mask="url(#satori_om-id)"/></mask><defs><filter id="satori_s-id-3-8-0-0" x="-90%" y="-90%" width="280%" height="280%"><feGaussianBlur stdDeviation="3" result="b"/><feFlood flood-color="#e34c2640" in="SourceGraphic" result="f"/><feComposite in="f" in2="b" operator="in"/></filter></defs><g mask="url(#satori_ms-id-3-8-0-0)" filter="url(#satori_s-id-3-8-0-0)" opacity="1"><path x="427" y="108" width="10" height="10" fill="#fff" stroke="#fff" stroke-width="0" d="M432,108 h0 a5,5 0 0 1 5,5 v0 a5,5 0 0 1 -5,5 h0 a5,5 0 0 1 -5,-5 v0 a5,5 0 0 1 5,-5" clip-path="url(#satori_cp-id)" mask="url(#satori_om-id)"/></g><mask id="satori_om-id-3-8-0"><rect x="427" y="108" width="10" height="10" fill="#fff" mask="url(#satori_om-id)"/></mask><path x="427" y="108" width="10" height="10" fill="#e34c26" d="M432,108 h0 a5,5 0 0 1 5,5 v0 a5,5 0 0 1 -5,5 h0 a5,5 0 0 1 -5,-5 v0 a5,5 0 0 1 5,-5" clip-path="url(#satori_cp-id)" mask="url(#satori_om-id)"/><mask id="satori_om-id-3-8-1"><rect x="443" y="105" width="38" height="16" fill="#fff" mask="url(#satori_om-id)"/></mask><g mask="url(#satori_om-id)" clip-path="url(#satori_cp-id)"><path fill="#e0e0f0" d="M445.3 118L444.1 118L444.1 108.5L445.3 108.5L445.3 112.6L450.3 112.6L450.3 108.5L451.5 108.5L451.5 118L450.3 118L450.3 113.7L445.3 113.7L445.3 118ZM456.3 109.6L453.3 109.6L453.3 108.5L460.4 108.5L460.4 109.6L457.5 109.6L457.5 118L456.3 118L456.3 109.6ZM463.3 118L462.2 118L462.2 108.5L463.9 108.5L466.2 114.5Q466.3 114.7 466.4 115.0Q466.5 115.3 466.6 115.7Q466.8 116.1 466.9 116.4L466.9 116.4Q466.9 116.6 466.9 116.7L466.9 116.7Q467.0 116.6 467.0 116.5L467.0 116.5Q467.1 116.1 467.2 115.7Q467.3 115.4 467.4 115.0Q467.6 114.7 467.6 114.5L467.6 114.5L469.9 108.5L471.7 108.5L471.7 118L470.5 118L470.5 112.6Q470.5 112.3 470.5 111.9Q470.5 111.6 470.5 111.1Q470.5 110.7 470.5 110.3L470.5 110.3Q470.5 110.1 470.5 109.8L470.5 109.8Q470.4 110.1 470.3 110.4L470.3 110.4Q470.2 110.8 470.0 111.2Q469.9 111.7 469.8 112.0Q469.6 112.4 469.6 112.6L469.6 112.6L467.4 118L466.4 118L464.3 112.6Q464.2 112.4 464.0 112.0Q463.9 111.7 463.8 111.3Q463.6 110.9 463.5 110.4L463.5 110.4Q463.4 110.1 463.3 109.8L463.3 109.8Q463.3 110.0 463.3 110.2L463.3 110.2Q463.3 110.7 463.3 111.1Q463.3 111.5 463.3 111.9Q463.3 112.3 463.3 112.6L463.3 112.6L463.3 118ZM479.5 118L473.9 118L473.9 108.5L475.1 108.5L475.1 116.9L479.5 116.9L479.5 118Z "/></g><mask id="satori_om-id-3-8-2"><rect x="487" y="107" width="18" height="13" fill="#fff" mask="url(#satori_om-id)"/></mask><g mask="url(#satori_om-id)" clip-path="url(#satori_cp-id)"><path fill="#6a6a8a" d="M490.4 118.1L490.4 118.1Q489.6 118.1 489.0 117.8Q488.4 117.6 488.1 117.1Q487.7 116.6 487.7 116.0L487.7 116.0L488.7 116.0Q488.7 116.4 489.0 116.6Q489.2 116.9 489.6 117.1Q489.9 117.2 490.4 117.2L490.4 117.2Q490.9 117.2 491.3 117.0Q491.7 116.9 491.9 116.5Q492.1 116.2 492.1 115.8L492.1 115.8Q492.1 115.4 491.9 115.0Q491.7 114.7 491.3 114.5Q490.9 114.3 490.3 114.3L490.3 114.3L489.6 114.3L489.6 113.5L490.3 113.5Q490.7 113.5 491.1 113.3Q491.5 113.1 491.7 112.8Q491.9 112.5 491.9 112.1L491.9 112.1Q491.9 111.7 491.7 111.4Q491.5 111.1 491.2 110.9Q490.9 110.8 490.4 110.8L490.4 110.8Q490.0 110.8 489.7 110.9Q489.3 111.1 489.1 111.3Q488.8 111.6 488.8 112.0L488.8 112.0L487.8 112.0Q487.9 111.4 488.2 110.9Q488.6 110.4 489.2 110.2Q489.7 109.9 490.4 109.9L490.4 109.9Q491.2 109.9 491.7 110.2Q492.3 110.5 492.6 111.0Q492.8 111.5 492.8 112.0L492.8 112.0Q492.8 112.7 492.5 113.2Q492.1 113.7 491.5 113.8L491.5 113.8L491.5 113.9Q492.0 114.0 492.4 114.3Q492.8 114.5 492.9 114.9Q493.1 115.3 493.1 115.8L493.1 115.8Q493.1 116.5 492.8 117.0Q492.4 117.5 491.8 117.8Q491.2 118.1 490.4 118.1ZM496.6 113.5L496.6 113.5Q496.1 113.5 495.7 113.3Q495.4 113.1 495.2 112.7Q495.0 112.3 495.0 111.9L495.0 111.9L495.0 111.5Q495.0 111.0 495.2 110.7Q495.4 110.3 495.7 110.1Q496.1 109.9 496.6 109.9L496.6 109.9Q497.1 109.9 497.5 110.1Q497.8 110.3 498.0 110.7Q498.2 111.0 498.2 111.5L498.2 111.5L498.2 111.9Q498.2 112.3 498.0 112.7Q497.8 113.1 497.5 113.3Q497.1 113.5 496.6 113.5ZM496.6 112.8L496.6 112.8Q497.0 112.8 497.2 112.6Q497.3 112.3 497.3 111.9L497.3 111.9L497.3 111.5Q497.3 111.1 497.2 110.9Q497.0 110.6 496.6 110.6L496.6 110.6Q496.2 110.6 496.0 110.9Q495.9 111.1 495.9 111.5L495.9 111.5L495.9 111.9Q495.9 112.3 496.0 112.6Q496.2 112.8 496.6 112.8ZM501.8 118.2L501.8 118.2Q501.3 118.2 500.9 117.9Q500.6 117.7 500.4 117.3Q500.2 117.0 500.2 116.5L500.2 116.5L500.2 116.1Q500.2 115.7 500.4 115.3Q500.6 114.9 500.9 114.7Q501.3 114.5 501.8 114.5L501.8 114.5Q502.3 114.5 502.7 114.7Q503.0 114.9 503.2 115.3Q503.4 115.7 503.4 116.1L503.4 116.1L503.4 116.5Q503.4 117.0 503.2 117.3Q503.0 117.7 502.7 117.9Q502.3 118.2 501.8 118.2ZM501.8 117.5L501.8 117.5Q502.2 117.5 502.4 117.2Q502.5 116.9 502.5 116.5L502.5 116.5L502.5 116.1Q502.5 115.8 502.4 115.5Q502.2 115.2 501.8 115.2L501.8 115.2Q501.4 115.2 501.2 115.5Q501.0 115.8 501.0 116.1L501.0 116.1L501.0 116.5Q501.0 116.9 501.2 117.2Q501.4 117.5 501.8 117.5ZM496.9 118L496.0 118L501.5 110.0L502.4 110.0L496.9 118Z "/></g><mask id="satori_om-id-3-9"><rect x="561" y="105" width="120" height="16" fill="#fff" mask="url(#satori_om-id)"/></mask><mask id="satori_ms-id-3-9-0-0" maskUnits="userSpaceOnUse"><rect x="0" y="0" width="800" height="180" fill="#fff"/><path x="561" y="108" width="10" height="10" fill="#000"  stroke-width="0" d="M566,108 h0 a5,5 0 0 1 5,5 v0 a5,5 0 0 1 -5,5 h0 a5,5 0 0 1 -5,-5 v0 a5,5 0 0 1 5,-5" clip-path="url(#satori_cp-id)" mask="url(#satori_om-id)"/></mask><defs><filter id="satori_s-id-3-9-0-0" x="-90%" y="-90%" width="280%" height="280%"><feGaussianBlur stdDeviation="3" result="b"/><feFlood flood-color="#f1e05a40" in="SourceGraphic" result="f"/><feComposite in="f" in2="b" operator="in"/></filter></defs><g mask="url(#satori_ms-id-3-9-0-0)" filter="url(#satori_s-id-3-9-0-0)" opacity="1"><path x="561" y="108" width="10" height="10" fill="#fff" stroke="#fff" stroke-width="0" d="M566,108 h0 a5,5 0 0 1 5,5 v0 a5,5 0 0 1 -5,5 h0 a5,5 0 0 1 -5,-5 v0 a5,5 0 0 1 5,-5" clip-path="url(#satori_cp-id)" mask="url(#satori_om-id)"/></g><mask id="satori_om-id-3-9-0"><rect x="561" y="108" width="10" height="10" fill="#fff" mask="url(#satori_om-id)"/></mask><path x="561" y="108" width="10" height="10" fill="#f1e05a" d="M566,108 h0 a5,5 0 0 1 5,5 v0 a5,5 0 0 1 -5,5 h0 a5,5 0 0 1 -5,-5 v0 a5,5 0 0 1 5,-5" clip-path="url(#satori_cp-id)" mask="url(#satori_om-id)"/><mask id="satori_om-id-3-9-1"><rect x="577" y="105" width="66" height="16" fill="#fff" mask="url(#satori_om-id)"/></mask><g mask="url(#satori_om-id)" clip-path="url(#satori_cp-id)"><path fill="#e0e0f0" d="M580.5 118.1L580.5 118.1Q579.2 118.1 578.4 117.4Q577.6 116.7 577.6 115.3L577.6 115.3L577.6 114.8L578.8 114.8L578.8 115.3Q578.8 116.2 579.3 116.6Q579.7 117.1 580.5 117.1L580.5 117.1Q581.2 117.1 581.6 116.6Q582.1 116.2 582.1 115.3L582.1 115.3L582.1 108.5L583.3 108.5L583.3 115.3Q583.3 116.7 582.5 117.4Q581.7 118.1 580.5 118.1ZM587.4 118.2L587.4 118.2Q586.7 118.2 586.2 117.9Q585.6 117.7 585.3 117.2Q585.0 116.7 585.0 116.0L585.0 116.0Q585.0 115.4 585.2 115.0Q585.5 114.6 585.9 114.4Q586.3 114.2 586.8 114.1Q587.3 114.0 587.8 113.9L587.8 113.9Q588.4 113.8 588.8 113.8Q589.2 113.7 589.4 113.6Q589.6 113.5 589.6 113.2L589.6 113.2L589.6 113.2Q589.6 112.8 589.4 112.5Q589.2 112.1 588.9 112.0Q588.6 111.8 588.1 111.8L588.1 111.8Q587.6 111.8 587.2 112.0Q586.9 112.1 586.6 112.4Q586.4 112.6 586.3 112.9L586.3 112.9L585.2 112.5Q585.5 111.8 585.9 111.5Q586.4 111.1 587.0 111.0Q587.5 110.8 588.1 110.8L588.1 110.8Q588.4 110.8 588.9 110.9Q589.3 111.0 589.7 111.2Q590.2 111.5 590.4 112.0Q590.7 112.5 590.7 113.3L590.7 113.3L590.7 118L589.6 118L589.6 117.0L589.5 117.0Q589.4 117.3 589.1 117.5Q588.9 117.8 588.4 118.0Q588.0 118.2 587.4 118.2ZM587.6 117.2L587.6 117.2Q588.2 117.2 588.7 116.9Q589.1 116.7 589.3 116.3Q589.6 115.9 589.6 115.4L589.6 115.4L589.6 114.5Q589.5 114.5 589.3 114.6Q589.0 114.7 588.7 114.7Q588.4 114.8 588.1 114.8Q587.9 114.8 587.7 114.9L587.7 114.9Q587.3 114.9 586.9 115.0Q586.6 115.2 586.4 115.4Q586.1 115.6 586.1 116.0L586.1 116.0Q586.1 116.4 586.3 116.7Q586.5 116.9 586.9 117.0Q587.2 117.2 587.6 117.2ZM596.0 118L594.8 118L592.1 110.9L593.3 110.9L594.8 115.1Q595.1 115.8 595.2 116.4L595.2 116.4Q595.3 116.7 595.4 117.0L595.4 117.0Q595.4 116.7 595.5 116.4L595.5 116.4Q595.7 115.8 595.9 115.1L595.9 115.1L597.4 110.9L598.7 110.9L596.0 118ZM602.0 118.2L602.0 118.2Q601.3 118.2 600.8 117.9Q600.2 117.7 599.9 117.2Q599.6 116.7 599.6 116.0L599.6 116.0Q599.6 115.4 599.8 115.0Q600.1 114.6 600.5 114.4Q600.9 114.2 601.4 114.1Q601.9 114.0 602.4 113.9L602.4 113.9Q603.0 113.8 603.4 113.8Q603.8 113.7 604.0 113.6Q604.2 113.5 604.2 113.2L604.2 113.2L604.2 113.2Q604.2 112.8 604.0 112.5Q603.9 112.1 603.5 112.0Q603.2 111.8 602.7 111.8L602.7 111.8Q602.2 111.8 601.8 112.0Q601.5 112.1 601.2 112.4Q601.0 112.6 600.9 112.9L600.9 112.9L599.8 112.5Q600.1 111.8 600.5 111.5Q601.0 111.1 601.6 111.0Q602.1 110.8 602.7 110.8L602.7 110.8Q603.0 110.8 603.5 110.9Q603.9 111.0 604.3 111.2Q604.8 111.5 605.0 112.0Q605.3 112.5 605.3 113.3L605.3 113.3L605.3 118L604.2 118L604.2 117.0L604.1 117.0Q604.0 117.3 603.7 117.5Q603.5 117.8 603.0 118.0Q602.6 118.2 602.0 118.2ZM602.2 117.2L602.2 117.2Q602.8 117.2 603.3 116.9Q603.7 116.7 604.0 116.3Q604.2 115.9 604.2 115.4L604.2 115.4L604.2 114.5Q604.1 114.5 603.9 114.6Q603.6 114.7 603.3 114.7Q603.0 114.8 602.8 114.8Q602.5 114.8 602.3 114.9L602.3 114.9Q601.9 114.9 601.5 115.0Q601.2 115.2 601.0 115.4Q600.7 115.6 600.7 116.0L600.7 116.0Q600.7 116.4 600.9 116.7Q601.1 116.9 601.5 117.0Q601.8 117.2 602.2 117.2ZM610.5 118.2L610.5 118.2Q609.5 118.2 608.7 117.8Q608.0 117.5 607.5 116.9Q607.1 116.3 607.1 115.5L607.1 115.5L608.3 115.5Q608.4 116.1 608.7 116.4Q609.0 116.7 609.5 116.9Q609.9 117.1 610.5 117.1L610.5 117.1Q611.1 117.1 611.6 116.9Q612.2 116.7 612.5 116.3Q612.8 115.9 612.8 115.4L612.8 115.4Q612.8 114.9 612.5 114.7Q612.2 114.4 611.8 114.2Q611.4 114.0 610.9 113.9L610.9 113.9L609.7 113.5Q608.6 113.2 608.0 112.6Q607.3 112.0 607.3 111.1L607.3 111.1Q607.3 110.3 607.8 109.7Q608.2 109.1 608.9 108.7Q609.7 108.4 610.6 108.4L610.6 108.4Q611.5 108.4 612.2 108.7Q612.9 109.1 613.4 109.6Q613.8 110.2 613.8 110.9L613.8 110.9L612.6 110.9Q612.5 110.2 612.0 109.9Q611.4 109.5 610.5 109.5L610.5 109.5Q609.9 109.5 609.5 109.7Q609.0 109.9 608.8 110.2Q608.5 110.6 608.5 111.0L608.5 111.0Q608.5 111.5 608.8 111.8Q609.1 112.1 609.5 112.3Q610.0 112.5 610.3 112.5L610.3 112.5L611.3 112.8Q611.6 112.9 612.1 113.1Q612.6 113.3 613.0 113.6Q613.4 113.9 613.7 114.3Q613.9 114.8 613.9 115.4L613.9 115.4Q613.9 116.2 613.5 116.8Q613.1 117.4 612.4 117.8Q611.6 118.2 610.5 118.2ZM618.6 118.2L618.6 118.2Q617.6 118.2 616.9 117.7Q616.1 117.2 615.7 116.4Q615.3 115.6 615.3 114.5L615.3 114.5Q615.3 113.4 615.7 112.6Q616.1 111.7 616.9 111.3Q617.6 110.8 618.6 110.8L618.6 110.8Q619.1 110.8 619.5 110.9Q620.0 111.1 620.4 111.3Q620.7 111.6 621.0 111.9Q621.3 112.3 621.4 112.8L621.4 112.8L620.3 113.1Q620.3 112.8 620.1 112.6Q619.9 112.4 619.7 112.2Q619.5 112.0 619.2 111.9Q618.9 111.8 618.6 111.8L618.6 111.8Q617.8 111.8 617.4 112.2Q616.9 112.6 616.7 113.2Q616.5 113.8 616.5 114.5L616.5 114.5Q616.5 115.2 616.7 115.8Q616.9 116.4 617.4 116.8Q617.8 117.1 618.6 117.1L618.6 117.1Q618.9 117.1 619.2 117.0Q619.5 116.9 619.7 116.8Q620.0 116.6 620.1 116.3Q620.3 116.1 620.4 115.8L620.4 115.8L621.5 116.1Q621.3 116.6 621.0 117.0Q620.8 117.4 620.4 117.6Q620.0 117.9 619.5 118.0Q619.1 118.2 618.6 118.2ZM624.2 118L623.1 118L623.1 110.9L624.2 110.9L624.2 112.0L624.3 112.0Q624.5 111.5 625.0 111.1Q625.5 110.8 626.1 110.8L626.1 110.8Q626.2 110.8 626.4 110.8Q626.6 110.8 626.7 110.8L626.7 110.8L626.7 112.0Q626.6 112.0 626.4 111.9Q626.2 111.9 626.0 111.9L626.0 111.9Q625.5 111.9 625.1 112.1Q624.7 112.3 624.5 112.7Q624.2 113.1 624.2 113.6L624.2 113.6L624.2 118ZM629.1 118L628.0 118L628.0 110.9L629.1 110.9L629.1 118ZM628.6 109.7L628.6 109.7Q628.2 109.7 628.0 109.5Q627.8 109.3 627.8 109.0L627.8 109.0Q627.8 108.7 628.0 108.4Q628.2 108.2 628.6 108.2L628.6 108.2Q628.9 108.2 629.1 108.4Q629.4 108.7 629.4 109.0L629.4 109.0Q629.4 109.3 629.1 109.5Q628.9 109.7 628.6 109.7ZM632.3 120.7L631.1 120.7L631.1 110.9L632.2 110.9L632.2 112.0L632.4 112.0Q632.5 111.8 632.7 111.6Q632.9 111.3 633.3 111.0Q633.7 110.8 634.4 110.8L634.4 110.8Q635.3 110.8 636.0 111.3Q636.7 111.7 637.1 112.5Q637.4 113.3 637.4 114.5L637.4 114.5Q637.4 115.6 637.1 116.4Q636.7 117.3 636.0 117.7Q635.3 118.2 634.4 118.2L634.4 118.2Q633.8 118.2 633.3 117.9Q632.9 117.7 632.7 117.4Q632.5 117.1 632.4 116.9L632.4 116.9L632.3 116.9L632.3 120.7ZM634.3 117.1L634.3 117.1Q634.9 117.1 635.4 116.8Q635.8 116.4 636.0 115.8Q636.3 115.2 636.3 114.5L636.3 114.5Q636.3 113.7 636.1 113.1Q635.8 112.5 635.4 112.2Q634.9 111.8 634.3 111.8L634.3 111.8Q633.6 111.8 633.2 112.2Q632.7 112.5 632.5 113.1Q632.3 113.7 632.3 114.5L632.3 114.5Q632.3 115.2 632.5 115.8Q632.7 116.5 633.2 116.8Q633.6 117.1 634.3 117.1ZM640.4 110.9L641.9 110.9L641.9 111.9L640.4 111.9L640.4 116.2Q640.4 116.6 640.6 116.9Q640.8 117.1 641.3 117.1L641.3 117.1Q641.4 117.1 641.5 117.0Q641.7 117.0 641.9 117.0L641.9 117.0L642.1 118.0Q641.9 118.0 641.7 118.1Q641.5 118.1 641.2 118.1L641.2 118.1Q640.3 118.1 639.8 117.6Q639.3 117.1 639.3 116.2L639.3 116.2L639.3 111.9L638.2 111.9L638.2 110.9L639.3 110.9L639.3 109.2L640.4 109.2L640.4 110.9Z "/></g><mask id="satori_om-id-3-9-2"><rect x="649" y="107" width="18" height="13" fill="#fff" mask="url(#satori_om-id)"/></mask><g mask="url(#satori_om-id)" clip-path="url(#satori_cp-id)"><path fill="#6a6a8a" d="M652.4 118.1L652.4 118.1Q651.6 118.1 651.0 117.8Q650.4 117.6 650.1 117.1Q649.7 116.6 649.7 116.0L649.7 116.0L650.7 116.0Q650.7 116.4 651.0 116.6Q651.2 116.9 651.6 117.1Q651.9 117.2 652.4 117.2L652.4 117.2Q652.9 117.2 653.3 117.0Q653.7 116.9 653.9 116.5Q654.1 116.2 654.1 115.8L654.1 115.8Q654.1 115.4 653.9 115.0Q653.7 114.7 653.3 114.5Q652.9 114.3 652.3 114.3L652.3 114.3L651.6 114.3L651.6 113.5L652.3 113.5Q652.7 113.5 653.1 113.3Q653.5 113.1 653.7 112.8Q653.9 112.5 653.9 112.1L653.9 112.1Q653.9 111.7 653.7 111.4Q653.5 111.1 653.2 110.9Q652.9 110.8 652.4 110.8L652.4 110.8Q652.0 110.8 651.7 110.9Q651.3 111.1 651.1 111.3Q650.8 111.6 650.8 112.0L650.8 112.0L649.8 112.0Q649.9 111.4 650.2 110.9Q650.6 110.4 651.2 110.2Q651.7 109.9 652.4 109.9L652.4 109.9Q653.2 109.9 653.7 110.2Q654.3 110.5 654.6 111.0Q654.8 111.5 654.8 112.0L654.8 112.0Q654.8 112.7 654.5 113.2Q654.1 113.7 653.5 113.8L653.5 113.8L653.5 113.9Q654.0 114.0 654.4 114.3Q654.8 114.5 654.9 114.9Q655.1 115.3 655.1 115.8L655.1 115.8Q655.1 116.5 654.8 117.0Q654.4 117.5 653.8 117.8Q653.2 118.1 652.4 118.1ZM658.6 113.5L658.6 113.5Q658.1 113.5 657.7 113.3Q657.4 113.1 657.2 112.7Q657.0 112.3 657.0 111.9L657.0 111.9L657.0 111.5Q657.0 111.0 657.2 110.7Q657.4 110.3 657.7 110.1Q658.1 109.9 658.6 109.9L658.6 109.9Q659.1 109.9 659.5 110.1Q659.8 110.3 660.0 110.7Q660.2 111.0 660.2 111.5L660.2 111.5L660.2 111.9Q660.2 112.3 660.0 112.7Q659.8 113.1 659.5 113.3Q659.1 113.5 658.6 113.5ZM658.6 112.8L658.6 112.8Q659.0 112.8 659.2 112.6Q659.3 112.3 659.3 111.9L659.3 111.9L659.3 111.5Q659.3 111.1 659.2 110.9Q659.0 110.6 658.6 110.6L658.6 110.6Q658.2 110.6 658.0 110.9Q657.9 111.1 657.9 111.5L657.9 111.5L657.9 111.9Q657.9 112.3 658.0 112.6Q658.2 112.8 658.6 112.8ZM663.8 118.2L663.8 118.2Q663.3 118.2 662.9 117.9Q662.6 117.7 662.4 117.3Q662.2 117.0 662.2 116.5L662.2 116.5L662.2 116.1Q662.2 115.7 662.4 115.3Q662.6 114.9 662.9 114.7Q663.3 114.5 663.8 114.5L663.8 114.5Q664.3 114.5 664.7 114.7Q665.0 114.9 665.2 115.3Q665.4 115.7 665.4 116.1L665.4 116.1L665.4 116.5Q665.4 117.0 665.2 117.3Q665.0 117.7 664.7 117.9Q664.3 118.2 663.8 118.2ZM663.8 117.5L663.8 117.5Q664.2 117.5 664.4 117.2Q664.5 116.9 664.5 116.5L664.5 116.5L664.5 116.1Q664.5 115.8 664.4 115.5Q664.2 115.2 663.8 115.2L663.8 115.2Q663.4 115.2 663.2 115.5Q663.0 115.8 663.0 116.1L663.0 116.1L663.0 116.5Q663.0 116.9 663.2 117.2Q663.4 117.5 663.8 117.5ZM658.9 118L658.0 118L663.5 110.0L664.4 110.0L658.9 118Z "/></g></svg>