<!-- Generated by readme-aura https://github.com/collectioneur/readme-aura -->
<svg width="800" height="100" viewBox="0 0 800 100" xmlns="http://www.w3.org/2000/svg"><defs><clipPath id="satori_bc-id"><path x="0" y="0" width="800" height="100" d="M16,0 h768 a16,16 0 0 1 16,16 v68 a16,16 0 0 1 -16,16 h-768 a16,16 0 0 1 -16,-16 v-68 a16,16 0 0 1 16,-16"/></clipPath></defs><clipPath id="satori_cp-id"><path x="0" y="0" width="800" height="100" d="M16,0 h768 a16,16 0 0 1 16,16 v68 a16,16 0 0 1 -16,16 h-768 a16,16 0 0 1 -16,-16 v-68 a16,16 0 0 1 16,-16"/></clipPath><mask id="satori_om-id"><rect x="1" y="1" width="798" height="98" fill="#fff"/><path width="800" height="100" fill="none" stroke="#000" stroke-width="2" d="M4.686,4.686 A16,16 0 0 1 16,0 h768 a16,16 0 0 1 16,16 v68 a16,16 0 0 1 -16,16 h-768 a16,16 0 0 1 -16,-16 v-68 A16,16 0 0 1 4.686,4.686"/></mask><path x="0" y="0" width="800" height="100" fill="#06060a" d="M16,0 h768 a16,16 0 0 1 16,16 v68 a16,16 0 0 1 -16,16 h-768 a16,16 0 0 1 -16,-16 v-68 a16,16 0 0 1 16,-16"/><path width="800" height="100" clip-path="url(#satori_bc-id)" fill="none" stroke="rgba(110,80,220,0.15)" stroke-width="2" d="M4.686,4.686 A16,16 0 0 1 16,0 h768 a16,16 0 0 1 16,16 v68 a16,16 0 0 1 -16,16 h-768 a16,16 0 0 1 -16,-16 v-68 A16,16 0 0 1 4.686,4.686"/><clipPath id="satori_cp-id-0" clip-path="url(#satori_cp-id)"><rect x="1" y="1" width="800" height="100"/></clipPath><mask id="satori_om-id-0"><rect x="1" y="1" width="800" height="100" fill="#fff" mask="url(#satori_om-id)"/></mask><svg x="1" y="1" width="800" height="100" preserveAspectRatio="none" clip-path="url(#satori_cp-id-0)" mask="url(#satori_om-id-0)"><defs><radialGradient id="stg1" cx="50%" cy="50%" r="50%"><stop offset="0%" stop-color="rgba(120,40,220,0.5)"></stop><stop offset="100%" stop-color="rgba(120,40,220,0)"></stop></radialGradient><linearGradient id="st-scg" x1="0%" y1="0%" x2="100%" y2="0%"><stop offset="0%" stop-color="rgba(120,200,255,0)"></stop><stop offset="45%" stop-color="rgba(120,200,255,0.12)"></stop><stop offset="50%" stop-color="rgba(180,120,255,0.3)"></stop><stop offset="55%" stop-color="rgba(120,200,255,0.12)"></stop><stop offset="100%" stop-color="rgba(120,200,255,0)"></stop></linearGradient></defs><ellipse id="stat-g1" cx="400" cy="50" rx="250" ry="60" fill="url(#stg1)"></ellipse><rect id="stat-scan1" x="0" y="50" width="160" height="1" fill="url(#st-scg)"></rect><style>

      @keyframes stat-drift-r { 0%, 100% { transform: translate(0, 0); opacity: 0.7; } 50% { transform: translate(25px, -12px); opacity: 1; } }
      @keyframes stat-scan { 0% { transform: translate(-900px, 0); } 100% { transform: translate(900px, 0); } }
      #stat-g1 { animation: stat-drift-r 7s ease-in-out infinite; }
      #stat-scan1 { animation: stat-scan 4s linear infinite; }
    
</style>
</svg><mask id="satori_om-id-0-0"><rect x="1" y="1" width="0" height="100" fill="#fff" mask="url(#satori_om-id)"/></mask><mask id="satori_om-id-0-0-0"><rect x="1" y="1" width="0" height="100" fill="#fff" mask="url(#satori_om-id)"/></mask><mask id="satori_om-id-0-0-0-0"><rect x="1" y="1" width="0" height="100" fill="#fff" mask="url(#satori_om-id)"/></mask><mask id="satori_om-id-0-0-0-1"><rect x="1" y="1" width="0" height="100" fill="#fff" mask="url(#satori_om-id)"/></mask><mask id="satori_om-id-0-0-1"><rect x="1" y="1" width="0" height="100" fill="#fff" mask="url(#satori_om-id)"/></mask><mask id="satori_om-id-0-0-1-0"><rect x="1" y="1" width="0" height="100" fill="#fff" mask="url(#satori_om-id)"/></mask><mask id="satori_om-id-0-0-1-1"><rect x="1" y="1" width="0" height="100" fill="#fff" mask="url(#satori_om-id)"/></mask><mask id="satori_om-id-0-0-1-2"><rect x="1" y="1" width="0" height="100" fill="#fff" mask="url(#satori_om-id)"/></mask><mask id="satori_om-id-0-0-1-3"><rect x="1" y="1" width="0" height="100" fill="#fff" mask="url(#satori_om-id)"/></mask><mask id="satori_om-id-0-0-1-4"><rect x="1" y="1" width="0" height="100" fill="#fff" mask="url(#satori_om-id)"/></mask><mask id="satori_om-id-0-1"><rect x="1" y="1" width="0" height="100" fill="#fff" mask="url(#satori_om-id)"/></mask><mask id="satori_om-id-0-2"><rect x="1" y="1" width="0" height="100" fill="#fff" mask="url(#satori_om-id)"/></mask><mask id="satori_om-id-1"><rect x="206" y="28" width="389" height="45" fill="#fff" mask="url(#satori_om-id)"/></mask><mask id="satori_om-id-1-0"><rect x="206" y="28" width="44" height="45" fill="#fff" mask="url(#satori_om-id)"/></mask><mask id="satori_om-id-1-0-0"><rect x="213" y="28" width="31" height="29" fill="#fff" mask="url(#satori_om-id)"/></mask><g mask="url(#satori_om-id)" clip-path="url(#satori_cp-id)"><path fill="#ffffff" d="M226.8 51L214.5 51L214.5 48.4L220.6 42.6Q221.4 41.8 222.0 41.2Q222.5 40.6 222.8 40.0Q223.1 39.4 223.1 38.7L223.1 38.7Q223.1 37.9 222.8 37.3Q222.4 36.8 221.8 36.5Q221.2 36.2 220.4 36.2L220.4 36.2Q219.6 36.2 219.0 36.5Q218.4 36.8 218.0 37.4Q217.7 38.0 217.7 38.9L217.7 38.9L214.3 38.9Q214.3 37.2 215.1 35.9Q215.8 34.7 217.2 34.0Q218.6 33.3 220.4 33.3L220.4 33.3Q222.3 33.3 223.7 34.0Q225.0 34.6 225.8 35.8Q226.6 36.9 226.6 38.5L226.6 38.5Q226.6 39.4 226.2 40.4Q225.8 41.3 224.8 42.5Q223.9 43.7 222.1 45.3L222.1 45.3L219.4 47.9L219.4 48.1L226.8 48.1L226.8 51ZM235.9 51.2L235.9 51.2Q234.0 51.2 232.5 50.6Q230.9 49.9 230.1 48.8Q229.2 47.7 229.2 46.3L229.2 46.3Q229.2 45.2 229.7 44.3Q230.2 43.4 231.1 42.8Q231.9 42.2 233.0 42.0L233.0 42.0L233.0 41.9Q231.6 41.6 230.7 40.5Q229.9 39.4 229.9 38.0L229.9 38.0Q229.9 36.6 230.6 35.6Q231.4 34.5 232.8 33.9Q234.2 33.3 235.9 33.3L235.9 33.3Q237.7 33.3 239.0 33.9Q240.4 34.5 241.2 35.6Q242.0 36.6 242.0 38.0L242.0 38.0Q242.0 39.4 241.1 40.5Q240.2 41.6 238.9 41.9L238.9 41.9L238.9 42.0Q239.9 42.2 240.8 42.8Q241.6 43.4 242.1 44.3Q242.6 45.2 242.6 46.3L242.6 46.3Q242.6 47.7 241.8 48.8Q240.9 49.9 239.4 50.6Q237.9 51.2 235.9 51.2ZM235.9 48.6L235.9 48.6Q236.8 48.6 237.5 48.3Q238.2 47.9 238.5 47.4Q238.9 46.8 238.9 46.0L238.9 46.0Q238.9 45.3 238.5 44.7Q238.1 44.1 237.5 43.7Q236.8 43.4 235.9 43.4L235.9 43.4Q235.1 43.4 234.4 43.7Q233.7 44.1 233.3 44.7Q232.9 45.2 232.9 46.0L232.9 46.0Q232.9 46.8 233.3 47.4Q233.7 47.9 234.4 48.3Q235.0 48.6 235.9 48.6ZM235.9 40.8L235.9 40.8Q236.7 40.8 237.3 40.5Q237.8 40.1 238.2 39.6Q238.5 39.1 238.5 38.4L238.5 38.4Q238.5 37.7 238.2 37.1Q237.8 36.6 237.3 36.3Q236.7 36.0 235.9 36.0L235.9 36.0Q235.2 36.0 234.6 36.3Q234 36.6 233.7 37.1Q233.3 37.7 233.3 38.4L233.3 38.4Q233.3 39.1 233.7 39.6Q234 40.1 234.6 40.5Q235.2 40.8 235.9 40.8Z "/></g><mask id="satori_om-id-1-0-1"><rect x="206" y="61" width="44" height="12" fill="#fff" mask="url(#satori_om-id)"/></mask><g mask="url(#satori_om-id)" clip-path="url(#satori_cp-id)"><path fill="#b8860b" d="M209.3 71.1L209.3 71.1Q208.5 71.1 207.8 70.8Q207.2 70.6 206.8 70.0Q206.4 69.5 206.4 68.7L206.4 68.7L207.9 68.7Q207.9 69.1 208.1 69.4Q208.3 69.6 208.6 69.7Q208.9 69.8 209.3 69.8L209.3 69.8Q209.7 69.8 210.0 69.7Q210.3 69.6 210.5 69.4Q210.6 69.2 210.6 68.9L210.6 68.9Q210.6 68.7 210.5 68.5Q210.3 68.3 210.1 68.2Q209.8 68.1 209.4 68.0L209.4 68.0L208.6 67.8Q207.7 67.6 207.1 67.1Q206.6 66.6 206.6 65.8L206.6 65.8Q206.6 65.2 207.0 64.7Q207.3 64.2 207.9 63.9Q208.6 63.6 209.3 63.6L209.3 63.6Q210.2 63.6 210.8 63.9Q211.4 64.2 211.7 64.7Q212.0 65.2 212.0 65.8L212.0 65.8L210.6 65.8Q210.6 65.4 210.2 65.1Q209.9 64.9 209.3 64.9L209.3 64.9Q209.0 64.9 208.7 65.0Q208.4 65.1 208.3 65.3Q208.1 65.5 208.1 65.7L208.1 65.7Q208.1 66.0 208.3 66.2Q208.5 66.3 208.7 66.5Q209.0 66.6 209.3 66.6L209.3 66.6L210.0 66.8Q210.4 66.9 210.8 67.1Q211.2 67.3 211.5 67.5Q211.8 67.8 212.0 68.1Q212.1 68.5 212.1 68.9L212.1 68.9Q212.1 69.6 211.8 70.1Q211.5 70.6 210.8 70.8Q210.2 71.1 209.3 71.1ZM217.1 65.0L214.9 65.0L214.9 63.7L220.9 63.7L220.9 65.0L218.6 65.0L218.6 71L217.1 71L217.1 65.0ZM225.1 71L223.5 71L225.9 63.7L227.9 63.7L230.4 71L228.8 71L228.2 69.3L225.6 69.3L225.1 71ZM226.0 68.1L227.8 68.1L227.6 67.5Q227.4 66.8 227.2 66L227.2 66Q227.1 65.5 226.9 64.9L226.9 64.9Q226.8 65.5 226.6 66.0L226.6 66.0Q226.4 66.8 226.2 67.5L226.2 67.5L226.0 68.1ZM234.8 71L233.3 71L233.3 63.7L236.2 63.7Q237.0 63.7 237.6 64.0Q238.2 64.3 238.5 64.8Q238.8 65.4 238.8 66.1Q238.8 66.8 238.5 67.3Q238.2 67.9 237.6 68.1L237.6 68.1Q237.5 68.1 237.5 68.2L237.5 68.2L239.0 71L237.4 71L236.0 68.4L234.8 68.4L234.8 71ZM234.8 65.0L234.8 67.2L235.9 67.2Q236.4 67.2 236.7 67.1Q237.0 66.9 237.1 66.7Q237.2 66.5 237.2 66.1L237.2 66.1Q237.2 65.7 237.1 65.5Q237.0 65.2 236.7 65.1Q236.4 65.0 235.9 65.0L235.9 65.0L234.8 65.0ZM244.6 71.1L244.6 71.1Q243.7 71.1 243.1 70.8Q242.4 70.6 242.1 70.0Q241.7 69.5 241.7 68.7L241.7 68.7L243.1 68.7Q243.2 69.1 243.3 69.4Q243.5 69.6 243.8 69.7Q244.2 69.8 244.6 69.8L244.6 69.8Q245.0 69.8 245.3 69.7Q245.6 69.6 245.7 69.4Q245.9 69.2 245.9 68.9L245.9 68.9Q245.9 68.7 245.7 68.5Q245.6 68.3 245.3 68.2Q245.0 68.1 244.6 68.0L244.6 68.0L243.8 67.8Q242.9 67.6 242.4 67.1Q241.9 66.6 241.9 65.8L241.9 65.8Q241.9 65.2 242.2 64.7Q242.6 64.2 243.2 63.9Q243.8 63.6 244.6 63.6L244.6 63.6Q245.4 63.6 246.0 63.9Q246.6 64.2 246.9 64.7Q247.3 65.2 247.3 65.8L247.3 65.8L245.9 65.8Q245.8 65.4 245.5 65.1Q245.1 64.9 244.6 64.9L244.6 64.9Q244.2 64.9 243.9 65.0Q243.7 65.1 243.5 65.3Q243.4 65.5 243.4 65.7L243.4 65.7Q243.4 66.0 243.6 66.2Q243.7 66.3 244.0 66.5Q244.3 66.6 244.6 66.6L244.6 66.6L245.2 66.8Q245.7 66.9 246.1 67.1Q246.5 67.3 246.8 67.5Q247.1 67.8 247.2 68.1Q247.4 68.5 247.4 68.9L247.4 68.9Q247.4 69.6 247.1 70.1Q246.7 70.6 246.1 70.8Q245.5 71.1 244.6 71.1Z "/></g><mask id="satori_om-id-1-1"><rect x="280" y="31" width="1" height="40" fill="#fff" mask="url(#satori_om-id)"/></mask><rect x="280" y="31" width="1" height="40" fill="rgba(120,80,220,0.2)" clip-path="url(#satori_cp-id)" mask="url(#satori_om-id)"/><mask id="satori_om-id-1-2"><rect x="311" y="28" width="44" height="45" fill="#fff" mask="url(#satori_om-id)"/></mask><mask id="satori_om-id-1-2-0"><rect x="325" y="28" width="17" height="29" fill="#fff" mask="url(#satori_om-id)"/></mask><g mask="url(#satori_om-id)" clip-path="url(#satori_cp-id)"><path fill="#ffffff" d="M334.5 47.9L326.2 47.9L326.2 45.1L333.5 33.5L338.0 33.5L338.0 45.0L340.2 45.0L340.2 47.9L338.0 47.9L338.0 51L334.5 51L334.5 47.9ZM329.8 45.0L334.6 45.0L334.6 37.5L334.5 37.5L329.8 44.9L329.8 45.0Z "/></g><mask id="satori_om-id-1-2-1"><rect x="311" y="61" width="44" height="12" fill="#fff" mask="url(#satori_om-id)"/></mask><g mask="url(#satori_om-id)" clip-path="url(#satori_cp-id)"><path fill="#8b7ec8" d="M313.1 71L311.7 71L311.7 63.7L316.4 63.7L316.4 65.0L313.1 65.0L313.1 67.0L316.1 67.0L316.1 68.2L313.1 68.2L313.1 71ZM322.7 71.1L322.7 71.1Q321.8 71.1 321.0 70.7Q320.2 70.2 319.8 69.4Q319.3 68.5 319.3 67.4L319.3 67.4Q319.3 66.2 319.8 65.3Q320.2 64.5 321.0 64.1Q321.8 63.6 322.7 63.6L322.7 63.6Q323.7 63.6 324.5 64.1Q325.2 64.5 325.7 65.3Q326.1 66.2 326.1 67.4L326.1 67.4Q326.1 68.5 325.7 69.4Q325.2 70.2 324.5 70.7Q323.7 71.1 322.7 71.1ZM322.7 69.8L322.7 69.8Q323.3 69.8 323.7 69.5Q324.1 69.2 324.4 68.7Q324.6 68.1 324.6 67.4L324.6 67.4Q324.6 66.6 324.4 66.0Q324.1 65.5 323.7 65.2Q323.3 65.0 322.7 65.0L322.7 65.0Q322.2 65.0 321.7 65.2Q321.3 65.5 321.1 66.0Q320.8 66.6 320.8 67.4L320.8 67.4Q320.8 68.1 321.1 68.7Q321.3 69.2 321.7 69.5Q322.2 69.8 322.7 69.8ZM330.7 71L329.2 71L329.2 63.7L332.1 63.7Q332.9 63.7 333.5 64.0Q334.1 64.3 334.4 64.8Q334.7 65.4 334.7 66.1Q334.7 66.8 334.4 67.3Q334.1 67.9 333.5 68.1L333.5 68.1Q333.4 68.1 333.4 68.2L333.4 68.2L334.9 71L333.3 71L331.9 68.4L330.7 68.4L330.7 71ZM330.7 65.0L330.7 67.2L331.8 67.2Q332.3 67.2 332.5 67.1Q332.8 66.9 333.0 66.7Q333.1 66.5 333.1 66.1L333.1 66.1Q333.1 65.7 333.0 65.5Q332.8 65.2 332.5 65.1Q332.3 65.0 331.8 65.0L331.8 65.0L330.7 65.0ZM339.3 71L337.8 71L337.8 63.7L339.3 63.7L339.3 65.7L339.3 67.4Q339.3 67.3 339.3 67.3L339.3 67.3Q339.6 66.9 339.8 66.6Q340.1 66.2 340.4 65.8L340.4 65.8L342.2 63.7L344.0 63.7L341.3 66.9L344.1 71L342.3 71L340.3 67.9L339.3 68.9L339.3 71ZM349.7 71.1L349.7 71.1Q348.8 71.1 348.1 70.8Q347.5 70.6 347.1 70.0Q346.8 69.5 346.7 68.7L346.7 68.7L348.2 68.7Q348.2 69.1 348.4 69.4Q348.6 69.6 348.9 69.7Q349.2 69.8 349.6 69.8L349.6 69.8Q350.0 69.8 350.3 69.7Q350.6 69.6 350.8 69.4Q351.0 69.2 351.0 68.9L351.0 68.9Q351.0 68.7 350.8 68.5Q350.7 68.3 350.4 68.2Q350.1 68.1 349.7 68.0L349.7 68.0L348.9 67.8Q348.0 67.6 347.5 67.1Q346.9 66.6 346.9 65.8L346.9 65.8Q346.9 65.2 347.3 64.7Q347.7 64.2 348.3 63.9Q348.9 63.6 349.7 63.6L349.7 63.6Q350.5 63.6 351.1 63.9Q351.7 64.2 352.0 64.7Q352.4 65.2 352.4 65.8L352.4 65.8L350.9 65.8Q350.9 65.4 350.6 65.1Q350.2 64.9 349.7 64.9L349.7 64.9Q349.3 64.9 349.0 65.0Q348.8 65.1 348.6 65.3Q348.5 65.5 348.5 65.7L348.5 65.7Q348.5 66.0 348.6 66.2Q348.8 66.3 349.1 66.5Q349.3 66.6 349.6 66.6L349.6 66.6L350.3 66.8Q350.8 66.9 351.1 67.1Q351.5 67.3 351.8 67.5Q352.1 67.8 352.3 68.1Q352.5 68.5 352.5 68.9L352.5 68.9Q352.5 69.6 352.1 70.1Q351.8 70.6 351.2 70.8Q350.5 71.1 349.7 71.1Z "/></g><mask id="satori_om-id-1-3"><rect x="385" y="31" width="1" height="40" fill="#fff" mask="url(#satori_om-id)"/></mask><rect x="385" y="31" width="1" height="40" fill="rgba(120,80,220,0.2)" clip-path="url(#satori_cp-id)" mask="url(#satori_om-id)"/><mask id="satori_om-id-1-4"><rect x="416" y="28" width="44" height="45" fill="#fff" mask="url(#satori_om-id)"/></mask><mask id="satori_om-id-1-4-0"><rect x="423" y="28" width="31" height="29" fill="#fff" mask="url(#satori_om-id)"/></mask><g mask="url(#satori_om-id)" clip-path="url(#satori_cp-id)"><path fill="#ffffff" d="M430.4 51.2L430.4 51.2Q428.6 51.2 427.2 50.6Q425.8 49.9 425.0 48.8Q424.1 47.6 424.1 46.1L424.1 46.1L427.6 46.1Q427.6 46.8 428.0 47.3Q428.4 47.8 429 48.1Q429.6 48.4 430.4 48.4L430.4 48.4Q431.2 48.4 431.9 48.0Q432.6 47.6 433.0 46.9Q433.4 46.2 433.4 45.3L433.4 45.3Q433.4 44.4 433.0 43.6Q432.6 42.9 431.9 42.5Q431.2 42.1 430.3 42.1L430.3 42.1Q429.5 42.1 428.8 42.4Q428.1 42.7 427.7 43.3L427.7 43.3L424.5 42.7L425.3 33.5L435.9 33.5L435.9 36.5L428.3 36.5L427.8 40.9L427.9 40.9Q428.4 40.3 429.3 39.9Q430.2 39.5 431.3 39.5L431.3 39.5Q432.5 39.5 433.5 39.9Q434.5 40.3 435.3 41.1Q436.0 41.8 436.4 42.9Q436.8 43.9 436.8 45.2L436.8 45.2Q436.8 47.0 436.0 48.3Q435.2 49.7 433.7 50.5Q432.3 51.2 430.4 51.2ZM445.9 51.2L445.9 51.2Q444.6 51.2 443.4 50.8Q442.1 50.3 441.2 49.4Q440.2 48.4 439.6 46.7Q439.0 45.1 439.0 42.7L439.0 42.7Q439.0 40.5 439.5 38.7Q440.0 37.0 440.9 35.8Q441.9 34.6 443.2 33.9Q444.5 33.3 446.1 33.3L446.1 33.3Q447.8 33.3 449.1 34.0Q450.4 34.7 451.3 35.8Q452.1 36.9 452.2 38.4L452.2 38.4L448.7 38.4Q448.5 37.5 447.8 36.9Q447.1 36.4 446.1 36.4L446.1 36.4Q444.9 36.4 444.1 37.1Q443.3 37.7 442.9 39.0Q442.5 40.2 442.5 42.0L442.5 42.0L442.7 42.0Q443.1 41.2 443.7 40.7Q444.4 40.1 445.2 39.8Q446.1 39.5 447.0 39.5L447.0 39.5Q448.6 39.5 449.8 40.2Q451.0 41.0 451.7 42.2Q452.4 43.5 452.4 45.2L452.4 45.2Q452.4 46.9 451.6 48.3Q450.8 49.7 449.3 50.5Q447.9 51.2 445.9 51.2ZM445.9 48.4L445.9 48.4Q446.8 48.4 447.5 48.0Q448.1 47.6 448.5 46.9Q448.9 46.1 448.9 45.3L448.9 45.3Q448.9 44.4 448.6 43.7Q448.2 43.0 447.5 42.6Q446.8 42.1 445.9 42.1L445.9 42.1Q445.3 42.1 444.8 42.4Q444.2 42.6 443.8 43.1Q443.4 43.5 443.1 44.1Q442.9 44.6 442.9 45.3L442.9 45.3Q442.9 46.1 443.3 46.8Q443.7 47.5 444.4 48.0Q445.1 48.4 445.9 48.4Z "/></g><mask id="satori_om-id-1-4-1"><rect x="416" y="61" width="44" height="12" fill="#fff" mask="url(#satori_om-id)"/></mask><g mask="url(#satori_om-id)" clip-path="url(#satori_cp-id)"><path fill="#5a9ca8" d="M418.1 71L416.7 71L416.7 63.7L419.5 63.7Q420.3 63.7 420.9 64.0Q421.5 64.3 421.8 64.8Q422.1 65.4 422.1 66.1Q422.1 66.8 421.8 67.3Q421.5 67.9 420.9 68.1L420.9 68.1Q420.8 68.1 420.8 68.2L420.8 68.2L422.4 71L420.7 71L419.3 68.4L418.1 68.4L418.1 71ZM418.1 65.0L418.1 67.2L419.2 67.2Q419.7 67.2 420.0 67.1Q420.3 66.9 420.4 66.7Q420.6 66.5 420.6 66.1L420.6 66.1Q420.6 65.7 420.4 65.5Q420.3 65.2 420.0 65.1Q419.7 65.0 419.2 65.0L419.2 65.0L418.1 65.0ZM430.1 71L425.2 71L425.2 63.7L430.1 63.7L430.1 65.0L426.7 65.0L426.7 66.7L429.8 66.7L429.8 67.9L426.7 67.9L426.7 69.8L430.1 69.8L430.1 71ZM434.8 71L433.3 71L433.3 63.7L436.1 63.7Q437.0 63.7 437.5 64.0Q438.1 64.4 438.4 64.9Q438.7 65.5 438.7 66.2L438.7 66.2Q438.7 66.9 438.4 67.5Q438.1 68.0 437.5 68.3Q436.9 68.6 436.1 68.6L436.1 68.6L434.8 68.6L434.8 71ZM434.8 65.0L434.8 67.4L435.9 67.4Q436.3 67.4 436.6 67.3Q436.9 67.1 437.1 66.8Q437.2 66.5 437.2 66.2Q437.2 65.8 437.1 65.5Q436.9 65.3 436.6 65.1Q436.3 65.0 435.9 65.0L435.9 65.0L434.8 65.0ZM445.0 71.1L445.0 71.1Q444.0 71.1 443.2 70.7Q442.5 70.2 442.0 69.4Q441.6 68.5 441.6 67.4L441.6 67.4Q441.6 66.2 442.0 65.3Q442.5 64.5 443.2 64.1Q444.0 63.6 445.0 63.6L445.0 63.6Q445.9 63.6 446.7 64.1Q447.5 64.5 447.9 65.3Q448.4 66.2 448.4 67.4L448.4 67.4Q448.4 68.5 447.9 69.4Q447.5 70.2 446.7 70.7Q445.9 71.1 445.0 71.1ZM445.0 69.8L445.0 69.8Q445.5 69.8 446.0 69.5Q446.4 69.2 446.6 68.7Q446.9 68.1 446.9 67.4L446.9 67.4Q446.9 66.6 446.6 66.0Q446.4 65.5 446.0 65.2Q445.5 65.0 445.0 65.0L445.0 65.0Q444.4 65.0 444.0 65.2Q443.6 65.5 443.3 66.0Q443.1 66.6 443.1 67.4L443.1 67.4Q443.1 68.1 443.3 68.7Q443.6 69.2 444.0 69.5Q444.4 69.8 445.0 69.8ZM454.2 71.1L454.2 71.1Q453.3 71.1 452.6 70.8Q452.0 70.6 451.6 70.0Q451.3 69.5 451.2 68.7L451.2 68.7L452.7 68.7Q452.7 69.1 452.9 69.4Q453.1 69.6 453.4 69.7Q453.7 69.8 454.1 69.8L454.1 69.8Q454.5 69.8 454.8 69.7Q455.1 69.6 455.3 69.4Q455.5 69.2 455.5 68.9L455.5 68.9Q455.5 68.7 455.3 68.5Q455.2 68.3 454.9 68.2Q454.6 68.1 454.2 68.0L454.2 68.0L453.4 67.8Q452.5 67.6 452.0 67.1Q451.4 66.6 451.4 65.8L451.4 65.8Q451.4 65.2 451.8 64.7Q452.1 64.2 452.8 63.9Q453.4 63.6 454.2 63.6L454.2 63.6Q455.0 63.6 455.6 63.9Q456.2 64.2 456.5 64.7Q456.9 65.2 456.9 65.8L456.9 65.8L455.4 65.8Q455.4 65.4 455.0 65.1Q454.7 64.9 454.2 64.9L454.2 64.9Q453.8 64.9 453.5 65.0Q453.2 65.1 453.1 65.3Q453.0 65.5 453.0 65.7L453.0 65.7Q453.0 66.0 453.1 66.2Q453.3 66.3 453.6 66.5Q453.8 66.6 454.1 66.6L454.1 66.6L454.8 66.8Q455.2 66.9 455.6 67.1Q456.0 67.3 456.3 67.5Q456.6 67.8 456.8 68.1Q457.0 68.5 457.0 68.9L457.0 68.9Q457.0 69.6 456.6 70.1Q456.3 70.6 455.7 70.8Q455.0 71.1 454.2 71.1Z "/></g><mask id="satori_om-id-1-5"><rect x="490" y="31" width="1" height="40" fill="#fff" mask="url(#satori_om-id)"/></mask><rect x="490" y="31" width="1" height="40" fill="rgba(120,80,220,0.2)" clip-path="url(#satori_cp-id)" mask="url(#satori_om-id)"/><mask id="satori_om-id-1-6"><rect x="521" y="28" width="74" height="45" fill="#fff" mask="url(#satori_om-id)"/></mask><mask id="satori_om-id-1-6-0"><rect x="521" y="28" width="74" height="29" fill="#fff" mask="url(#satori_om-id)"/></mask><g mask="url(#satori_om-id)" clip-path="url(#satori_cp-id)"><path fill="#ffffff" d="M530.5 47.9L522.2 47.9L522.2 45.1L529.5 33.5L534.0 33.5L534.0 45.0L536.2 45.0L536.2 47.9L534.0 47.9L534.0 51L530.5 51L530.5 47.9ZM525.8 45.0L530.6 45.0L530.6 37.5L530.5 37.5L525.8 44.9L525.8 45.0ZM541.3 33.5L545.1 33.5L545.1 51L541.5 51L541.5 36.7L541.4 36.7L537.4 39.5L537.4 36.2L541.3 33.5ZM560.5 51L548.1 51L548.1 48.4L554.3 42.6Q555.1 41.8 555.6 41.2Q556.2 40.6 556.5 40.0Q556.8 39.4 556.8 38.7L556.8 38.7Q556.8 37.9 556.4 37.3Q556.1 36.8 555.5 36.5Q554.8 36.2 554.1 36.2L554.1 36.2Q553.3 36.2 552.6 36.5Q552.0 36.8 551.7 37.4Q551.4 38.0 551.4 38.9L551.4 38.9L548.0 38.9Q548.0 37.2 548.7 35.9Q549.5 34.7 550.9 34.0Q552.3 33.3 554.1 33.3L554.1 33.3Q555.9 33.3 557.3 34.0Q558.7 34.6 559.5 35.8Q560.2 36.9 560.2 38.5L560.2 38.5Q560.2 39.4 559.9 40.4Q559.5 41.3 558.5 42.5Q557.5 43.7 555.7 45.3L555.7 45.3L553.1 47.9L553.1 48.1L560.5 48.1L560.5 51ZM570.9 47.9L562.6 47.9L562.6 45.1L569.9 33.5L574.4 33.5L574.4 45.0L576.6 45.0L576.6 47.9L574.4 47.9L574.4 51L570.9 51L570.9 47.9ZM566.2 45.0L571.0 45.0L571.0 37.5L570.9 37.5L566.2 44.9L566.2 45.0ZM585.7 51.2L585.7 51.2Q584.3 51.2 583.1 50.8Q581.8 50.3 580.9 49.4Q579.9 48.4 579.3 46.7Q578.7 45.1 578.7 42.7L578.7 42.7Q578.7 40.5 579.2 38.7Q579.7 37.0 580.6 35.8Q581.6 34.6 582.9 33.9Q584.2 33.3 585.8 33.3L585.8 33.3Q587.5 33.3 588.8 34.0Q590.2 34.7 591.0 35.8Q591.8 36.9 591.9 38.4L591.9 38.4L588.4 38.4Q588.2 37.5 587.5 36.9Q586.8 36.4 585.8 36.4L585.8 36.4Q584.6 36.4 583.8 37.1Q583.1 37.7 582.7 39.0Q582.3 40.2 582.3 42.0L582.3 42.0L582.4 42.0Q582.8 41.2 583.4 40.7Q584.1 40.1 584.9 39.8Q585.8 39.5 586.8 39.5L586.8 39.5Q588.3 39.5 589.5 40.2Q590.7 41.0 591.4 42.2Q592.1 43.5 592.1 45.2L592.1 45.2Q592.1 46.9 591.3 48.3Q590.5 49.7 589.0 50.5Q587.6 51.2 585.7 51.2ZM585.6 48.4L585.6 48.4Q586.5 48.4 587.2 48.0Q587.9 47.6 588.3 46.9Q588.7 46.1 588.7 45.3L588.7 45.3Q588.7 44.4 588.3 43.7Q587.9 43.0 587.2 42.6Q586.5 42.1 585.7 42.1L585.7 42.1Q585.0 42.1 584.5 42.4Q583.9 42.6 583.5 43.1Q583.1 43.5 582.8 44.1Q582.6 44.6 582.6 45.3L582.6 45.3Q582.6 46.1 583.0 46.8Q583.4 47.5 584.1 48.0Q584.8 48.4 585.6 48.4Z "/></g><mask id="satori_om-id-1-6-1"><rect x="526" y="61" width="64" height="12" fill="#fff" mask="url(#satori_om-id)"/></mask><g mask="url(#satori_om-id)" clip-path="url(#satori_cp-id)"><path fill="#7ee7ff" d="M529.8 71.1L529.8 71.1Q528.9 71.1 528.1 70.7Q527.3 70.2 526.9 69.4Q526.5 68.5 526.5 67.4L526.5 67.4Q526.5 66.2 526.9 65.3Q527.3 64.5 528.1 64.1Q528.9 63.6 529.8 63.6L529.8 63.6Q530.5 63.6 531.0 63.8Q531.5 64.0 531.9 64.3Q532.4 64.6 532.6 65.1Q532.9 65.6 533.0 66.2L533.0 66.2L531.5 66.2Q531.4 65.9 531.3 65.7Q531.1 65.4 530.9 65.3Q530.7 65.1 530.4 65.0Q530.2 65.0 529.9 65.0L529.9 65.0Q529.3 65.0 528.9 65.2Q528.4 65.5 528.2 66.1Q528.0 66.6 528.0 67.4L528.0 67.4Q528.0 68.2 528.2 68.7Q528.5 69.2 528.9 69.5Q529.3 69.8 529.9 69.8L529.9 69.8Q530.2 69.8 530.4 69.7Q530.7 69.6 530.9 69.4Q531.1 69.3 531.3 69.0Q531.4 68.8 531.5 68.5L531.5 68.5L533.0 68.5Q532.9 69.0 532.7 69.5Q532.4 69.9 532.0 70.3Q531.6 70.7 531.1 70.9Q530.5 71.1 529.8 71.1ZM539.3 71.1L539.3 71.1Q538.3 71.1 537.5 70.7Q536.8 70.2 536.3 69.4Q535.9 68.5 535.9 67.4L535.9 67.4Q535.9 66.2 536.3 65.3Q536.8 64.5 537.5 64.1Q538.3 63.6 539.3 63.6L539.3 63.6Q540.2 63.6 541.0 64.1Q541.8 64.5 542.2 65.3Q542.6 66.2 542.6 67.4L542.6 67.4Q542.6 68.5 542.2 69.4Q541.8 70.2 541.0 70.7Q540.2 71.1 539.3 71.1ZM539.3 69.8L539.3 69.8Q539.8 69.8 540.2 69.5Q540.7 69.2 540.9 68.7Q541.1 68.1 541.1 67.4L541.1 67.4Q541.1 66.6 540.9 66.0Q540.7 65.5 540.2 65.2Q539.8 65.0 539.3 65.0L539.3 65.0Q538.7 65.0 538.3 65.2Q537.8 65.5 537.6 66.0Q537.4 66.6 537.4 67.4L537.4 67.4Q537.4 68.1 537.6 68.7Q537.8 69.2 538.3 69.5Q538.7 69.8 539.3 69.8ZM547.2 71L545.8 71L545.8 63.7L548.0 63.7L549.2 67.1Q549.3 67.3 549.4 67.7Q549.5 68.0 549.6 68.5L549.6 68.5Q549.7 68.9 549.8 69.3L549.8 69.3Q549.9 68.9 549.9 68.5L549.9 68.5Q550.0 68.1 550.1 67.7Q550.2 67.3 550.3 67.1L550.3 67.1L551.5 63.7L553.8 63.7L553.8 71L552.3 71L552.3 67.6Q552.3 67.3 552.3 67.0Q552.3 66.6 552.3 66.2Q552.3 65.8 552.3 65.4L552.3 65.4Q552.3 65.2 552.3 65.0L552.3 65.0Q552.3 65.2 552.2 65.4L552.2 65.4Q552.1 65.9 552.0 66.3Q551.9 66.7 551.8 67.0Q551.7 67.3 551.6 67.6L551.6 67.6L550.4 71L549.1 71L547.9 67.6Q547.8 67.3 547.7 67.0Q547.6 66.7 547.5 66.3Q547.4 65.9 547.3 65.4L547.3 65.4Q547.2 65.2 547.2 65.1L547.2 65.1Q547.2 65.2 547.2 65.4L547.2 65.4Q547.2 65.8 547.2 66.2Q547.2 66.6 547.2 67.0Q547.2 67.3 547.2 67.6L547.2 67.6L547.2 71ZM558.6 71L557.1 71L557.1 63.7L559.4 63.7L560.5 67.1Q560.6 67.3 560.7 67.7Q560.8 68.0 560.9 68.5L560.9 68.5Q561.0 68.9 561.1 69.3L561.1 69.3Q561.2 68.9 561.3 68.5L561.3 68.5Q561.4 68.1 561.5 67.7Q561.6 67.3 561.6 67.1L561.6 67.1L562.8 63.7L565.1 63.7L565.1 71L563.6 71L563.6 67.6Q563.6 67.3 563.6 67.0Q563.6 66.6 563.6 66.2Q563.6 65.8 563.6 65.4L563.6 65.4Q563.6 65.2 563.6 65.0L563.6 65.0Q563.6 65.2 563.5 65.4L563.5 65.4Q563.4 65.9 563.3 66.3Q563.2 66.7 563.1 67.0Q563.0 67.3 562.9 67.6L562.9 67.6L561.7 71L560.5 71L559.2 67.6Q559.2 67.3 559.1 67.0Q558.9 66.7 558.8 66.3Q558.7 65.9 558.6 65.4L558.6 65.4Q558.6 65.2 558.5 65.1L558.5 65.1Q558.5 65.2 558.5 65.4L558.5 65.4Q558.5 65.8 558.5 66.2Q558.5 66.6 558.6 67.0Q558.6 67.3 558.6 67.6L558.6 67.6L558.6 71ZM568.4 63.7L569.9 63.7L569.9 71L568.4 71L568.4 63.7ZM575.1 65.0L572.9 65.0L572.9 63.7L578.9 63.7L578.9 65.0L576.6 65.0L576.6 71L575.1 71L575.1 65.0ZM584.5 71.1L584.5 71.1Q583.7 71.1 583.0 70.8Q582.4 70.6 582.0 70.0Q581.7 69.5 581.6 68.7L581.6 68.7L583.1 68.7Q583.1 69.1 583.3 69.4Q583.5 69.6 583.8 69.7Q584.1 69.8 584.5 69.8L584.5 69.8Q584.9 69.8 585.2 69.7Q585.5 69.6 585.7 69.4Q585.9 69.2 585.9 68.9L585.9 68.9Q585.9 68.7 585.7 68.5Q585.6 68.3 585.3 68.2Q585.0 68.1 584.6 68.0L584.6 68.0L583.8 67.8Q582.9 67.6 582.4 67.1Q581.8 66.6 581.8 65.8L581.8 65.8Q581.8 65.2 582.2 64.7Q582.5 64.2 583.2 63.9Q583.8 63.6 584.6 63.6L584.6 63.6Q585.4 63.6 586.0 63.9Q586.6 64.2 586.9 64.7Q587.2 65.2 587.3 65.8L587.3 65.8L585.8 65.8Q585.8 65.4 585.4 65.1Q585.1 64.9 584.5 64.9L584.5 64.9Q584.2 64.9 583.9 65.0Q583.6 65.1 583.5 65.3Q583.4 65.5 583.4 65.7L583.4 65.7Q583.4 66.0 583.5 66.2Q583.7 66.3 583.9 66.5Q584.2 66.6 584.5 66.6L584.5 66.6L585.2 66.8Q585.6 66.9 586.0 67.1Q586.4 67.3 586.7 67.5Q587.0 67.8 587.2 68.1Q587.4 68.5 587.4 68.9L587.4 68.9Q587.4 69.6 587.0 70.1Q586.7 70.6 586.1 70.8Q585.4 71.1 584.5 71.1Z "/></g></svg>