<!-- Generated by readme-aura https://github.com/collectioneur/readme-aura -->
<svg width="800" height="100" viewBox="0 0 800 100" xmlns="http://www.w3.org/2000/svg"><defs><clipPath id="satori_bc-id"><path x="0" y="0" width="800" height="100" d="M16,0 h768 a16,16 0 0 1 16,16 v68 a16,16 0 0 1 -16,16 h-768 a16,16 0 0 1 -16,-16 v-68 a16,16 0 0 1 16,-16"/></clipPath></defs><clipPath id="satori_cp-id"><path x="0" y="0" width="800" height="100" d="M16,0 h768 a16,16 0 0 1 16,16 v68 a16,16 0 0 1 -16,16 h-768 a16,16 0 0 1 -16,-16 v-68 a16,16 0 0 1 16,-16"/></clipPath><mask id="satori_om-id"><rect x="1" y="1" width="798" height="98" fill="#fff"/><path width="800" height="100" fill="none" stroke="#000" stroke-width="2" d="M4.686,4.686 A16,16 0 0 1 16,0 h768 a16,16 0 0 1 16,16 v68 a16,16 0 0 1 -16,16 h-768 a16,16 0 0 1 -16,-16 v-68 A16,16 0 0 1 4.686,4.686"/></mask><path x="0" y="0" width="800" height="100" fill="#06060a" d="M16,0 h768 a16,16 0 0 1 16,16 v68 a16,16 0 0 1 -16,16 h-768 a16,16 0 0 1 -16,-16 v-68 a16,16 0 0 1 16,-16"/><path width="800" height="100" clip-path="url(#satori_bc-id)" fill="none" stroke="rgba(110,80,220,0.15)" stroke-width="2" d="M4.686,4.686 A16,16 0 0 1 16,0 h768 a16,16 0 0 1 16,16 v68 a16,16 0 0 1 -16,16 h-768 a16,16 0 0 1 -16,-16 v-68 A16,16 0 0 1 4.686,4.686"/><clipPath id="satori_cp-id-0" clip-path="url(#satori_cp-id)"><rect x="1" y="1" width="800" height="100"/></clipPath><mask id="satori_om-id-0"><rect x="1" y="1" width="800" height="100" fill="#fff" mask="url(#satori_om-id)"/></mask><svg x="1" y="1" width="800" height="100" preserveAspectRatio="none" clip-path="url(#satori_cp-id-0)" mask="url(#satori_om-id-0)"><defs><radialGradient id="stg1" cx="50%" cy="50%" r="50%"><stop offset="0%" stop-color="rgba(120,40,220,0.5)"></stop><stop offset="100%" stop-color="rgba(120,40,220,0)"></stop></radialGradient><linearGradient id="st-scg" x1="0%" y1="0%" x2="100%" y2="0%"><stop offset="0%" stop-color="rgba(120,200,255,0)"></stop><stop offset="45%" stop-color="rgba(120,200,255,0.12)"></stop><stop offset="50%" stop-color="rgba(180,120,255,0.3)"></stop><stop offset="55%" stop-color="rgba(120,200,255,0.12)"></stop><stop offset="100%" stop-color="rgba(120,200,255,0)"></stop></linearGradient></defs><ellipse id="stat-g1" cx="400" cy="50" rx="250" ry="60" fill="url(#stg1)"></ellipse><rect id="stat-scan1" x="0" y="50" width="160" height="1" fill="url(#st-scg)"></rect><style>

      @keyframes stat-drift-r { 0%, 100% { transform: translate(0, 0); opacity: 0.7; } 50% { transform: translate(25px, -12px); opacity: 1; } }
      @keyframes stat-scan { 0% { transform: translate(-900px, 0); } 100% { transform: translate(900px, 0); } }
      #stat-g1 { animation: stat-drift-r 7s ease-in-out infinite; }
      #stat-scan1 { animation: stat-scan 4s linear infinite; }
    
</style>
</svg><mask id="satori_om-id-0-0"><rect x="1" y="1" width="0" height="100" fill="#fff" mask="url(#satori_om-id)"/></mask><mask id="satori_om-id-0-0-0"><rect x="1" y="1" width="0" height="100" fill="#fff" mask="url(#satori_om-id)"/></mask><mask id="satori_om-id-0-0-0-0"><rect x="1" y="1" width="0" height="100" fill="#fff" mask="url(#satori_om-id)"/></mask><mask id="satori_om-id-0-0-0-1"><rect x="1" y="1" width="0" height="100" fill="#fff" mask="url(#satori_om-id)"/></mask><mask id="satori_om-id-0-0-1"><rect x="1" y="1" width="0" height="100" fill="#fff" mask="url(#satori_om-id)"/></mask><mask id="satori_om-id-0-0-1-0"><rect x="1" y="1" width="0" height="100" fill="#fff" mask="url(#satori_om-id)"/></mask><mask id="satori_om-id-0-0-1-1"><rect x="1" y="1" width="0" height="100" fill="#fff" mask="url(#satori_om-id)"/></mask><mask id="satori_om-id-0-0-1-2"><rect x="1" y="1" width="0" height="100" fill="#fff" mask="url(#satori_om-id)"/></mask><mask id="satori_om-id-0-0-1-3"><rect x="1" y="1" width="0" height="100" fill="#fff" mask="url(#satori_om-id)"/></mask><mask id="satori_om-id-0-0-1-4"><rect x="1" y="1" width="0" height="100" fill="#fff" mask="url(#satori_om-id)"/></mask><mask id="satori_om-id-0-1"><rect x="1" y="1" width="0" height="100" fill="#fff" mask="url(#satori_om-id)"/></mask><mask id="satori_om-id-0-2"><rect x="1" y="1" width="0" height="100" fill="#fff" mask="url(#satori_om-id)"/></mask><mask id="satori_om-id-1"><rect x="207" y="28" width="387" height="45" fill="#fff" mask="url(#satori_om-id)"/></mask><mask id="satori_om-id-1-0"><rect x="207" y="28" width="44" height="45" fill="#fff" mask="url(#satori_om-id)"/></mask><mask id="satori_om-id-1-0-0"><rect x="214" y="28" width="31" height="29" fill="#fff" mask="url(#satori_om-id)"/></mask><g mask="url(#satori_om-id)" clip-path="url(#satori_cp-id)"><path fill="#ffffff" d="M227.8 51L215.5 51L215.5 48.4L221.6 42.6Q222.4 41.8 223.0 41.2Q223.5 40.6 223.8 40.0Q224.1 39.4 224.1 38.7L224.1 38.7Q224.1 37.9 223.8 37.3Q223.4 36.8 222.8 36.5Q222.2 36.2 221.4 36.2L221.4 36.2Q220.6 36.2 220.0 36.5Q219.4 36.8 219.0 37.4Q218.7 38.0 218.7 38.9L218.7 38.9L215.3 38.9Q215.3 37.2 216.1 35.9Q216.8 34.7 218.2 34.0Q219.6 33.3 221.4 33.3L221.4 33.3Q223.3 33.3 224.7 34.0Q226.0 34.6 226.8 35.8Q227.6 36.9 227.6 38.5L227.6 38.5Q227.6 39.4 227.2 40.4Q226.8 41.3 225.8 42.5Q224.9 43.7 223.1 45.3L223.1 45.3L220.4 47.9L220.4 48.1L227.8 48.1L227.8 51ZM236.9 51.2L236.9 51.2Q235.0 51.2 233.5 50.6Q231.9 49.9 231.1 48.8Q230.2 47.7 230.2 46.3L230.2 46.3Q230.2 45.2 230.7 44.3Q231.2 43.4 232.1 42.8Q232.9 42.2 234.0 42.0L234.0 42.0L234.0 41.9Q232.6 41.6 231.7 40.5Q230.9 39.4 230.9 38.0L230.9 38.0Q230.9 36.6 231.6 35.6Q232.4 34.5 233.8 33.9Q235.2 33.3 236.9 33.3L236.9 33.3Q238.7 33.3 240.0 33.9Q241.4 34.5 242.2 35.6Q243.0 36.6 243.0 38.0L243.0 38.0Q243.0 39.4 242.1 40.5Q241.2 41.6 239.9 41.9L239.9 41.9L239.9 42.0Q240.9 42.2 241.8 42.8Q242.6 43.4 243.1 44.3Q243.6 45.2 243.6 46.3L243.6 46.3Q243.6 47.7 242.8 48.8Q241.9 49.9 240.4 50.6Q238.9 51.2 236.9 51.2ZM236.9 48.6L236.9 48.6Q237.8 48.6 238.5 48.3Q239.2 47.9 239.5 47.4Q239.9 46.8 239.9 46.0L239.9 46.0Q239.9 45.3 239.5 44.7Q239.1 44.1 238.5 43.7Q237.8 43.4 236.9 43.4L236.9 43.4Q236.1 43.4 235.4 43.7Q234.7 44.1 234.3 44.7Q233.9 45.2 233.9 46.0L233.9 46.0Q233.9 46.8 234.3 47.4Q234.7 47.9 235.4 48.3Q236.0 48.6 236.9 48.6ZM236.9 40.8L236.9 40.8Q237.7 40.8 238.3 40.5Q238.8 40.1 239.2 39.6Q239.5 39.1 239.5 38.4L239.5 38.4Q239.5 37.7 239.2 37.1Q238.8 36.6 238.3 36.3Q237.7 36.0 236.9 36.0L236.9 36.0Q236.2 36.0 235.6 36.3Q235 36.6 234.7 37.1Q234.3 37.7 234.3 38.4L234.3 38.4Q234.3 39.1 234.7 39.6Q235 40.1 235.6 40.5Q236.2 40.8 236.9 40.8Z "/></g><mask id="satori_om-id-1-0-1"><rect x="207" y="61" width="44" height="12" fill="#fff" mask="url(#satori_om-id)"/></mask><g mask="url(#satori_om-id)" clip-path="url(#satori_cp-id)"><path fill="#b8860b" d="M210.3 71.1L210.3 71.1Q209.5 71.1 208.8 70.8Q208.2 70.6 207.8 70.0Q207.4 69.5 207.4 68.7L207.4 68.7L208.9 68.7Q208.9 69.1 209.1 69.4Q209.3 69.6 209.6 69.7Q209.9 69.8 210.3 69.8L210.3 69.8Q210.7 69.8 211.0 69.7Q211.3 69.6 211.5 69.4Q211.6 69.2 211.6 68.9L211.6 68.9Q211.6 68.7 211.5 68.5Q211.3 68.3 211.1 68.2Q210.8 68.1 210.4 68.0L210.4 68.0L209.6 67.8Q208.7 67.6 208.1 67.1Q207.6 66.6 207.6 65.8L207.6 65.8Q207.6 65.2 208.0 64.7Q208.3 64.2 208.9 63.9Q209.6 63.6 210.3 63.6L210.3 63.6Q211.2 63.6 211.8 63.9Q212.4 64.2 212.7 64.7Q213.0 65.2 213.0 65.8L213.0 65.8L211.6 65.8Q211.6 65.4 211.2 65.1Q210.9 64.9 210.3 64.9L210.3 64.9Q210.0 64.9 209.7 65.0Q209.4 65.1 209.3 65.3Q209.1 65.5 209.1 65.7L209.1 65.7Q209.1 66.0 209.3 66.2Q209.5 66.3 209.7 66.5Q210.0 66.6 210.3 66.6L210.3 66.6L211.0 66.8Q211.4 66.9 211.8 67.1Q212.2 67.3 212.5 67.5Q212.8 67.8 213.0 68.1Q213.1 68.5 213.1 68.9L213.1 68.9Q213.1 69.6 212.8 70.1Q212.5 70.6 211.8 70.8Q211.2 71.1 210.3 71.1ZM218.1 65.0L215.9 65.0L215.9 63.7L221.9 63.7L221.9 65.0L219.6 65.0L219.6 71L218.1 71L218.1 65.0ZM226.1 71L224.5 71L226.9 63.7L228.9 63.7L231.4 71L229.8 71L229.2 69.3L226.6 69.3L226.1 71ZM227.0 68.1L228.8 68.1L228.6 67.5Q228.4 66.8 228.2 66L228.2 66Q228.1 65.5 227.9 64.9L227.9 64.9Q227.8 65.5 227.6 66.0L227.6 66.0Q227.4 66.8 227.2 67.5L227.2 67.5L227.0 68.1ZM235.8 71L234.3 71L234.3 63.7L237.2 63.7Q238.0 63.7 238.6 64.0Q239.2 64.3 239.5 64.8Q239.8 65.4 239.8 66.1Q239.8 66.8 239.5 67.3Q239.2 67.9 238.6 68.1L238.6 68.1Q238.5 68.1 238.5 68.2L238.5 68.2L240.0 71L238.4 71L237.0 68.4L235.8 68.4L235.8 71ZM235.8 65.0L235.8 67.2L236.9 67.2Q237.4 67.2 237.7 67.1Q238.0 66.9 238.1 66.7Q238.2 66.5 238.2 66.1L238.2 66.1Q238.2 65.7 238.1 65.5Q238.0 65.2 237.7 65.1Q237.4 65.0 236.9 65.0L236.9 65.0L235.8 65.0ZM245.6 71.1L245.6 71.1Q244.7 71.1 244.1 70.8Q243.4 70.6 243.1 70.0Q242.7 69.5 242.7 68.7L242.7 68.7L244.1 68.7Q244.2 69.1 244.3 69.4Q244.5 69.6 244.8 69.7Q245.2 69.8 245.6 69.8L245.6 69.8Q246.0 69.8 246.3 69.7Q246.6 69.6 246.7 69.4Q246.9 69.2 246.9 68.9L246.9 68.9Q246.9 68.7 246.7 68.5Q246.6 68.3 246.3 68.2Q246.0 68.1 245.6 68.0L245.6 68.0L244.8 67.8Q243.9 67.6 243.4 67.1Q242.9 66.6 242.9 65.8L242.9 65.8Q242.9 65.2 243.2 64.7Q243.6 64.2 244.2 63.9Q244.8 63.6 245.6 63.6L245.6 63.6Q246.4 63.6 247.0 63.9Q247.6 64.2 247.9 64.7Q248.3 65.2 248.3 65.8L248.3 65.8L246.9 65.8Q246.8 65.4 246.5 65.1Q246.1 64.9 245.6 64.9L245.6 64.9Q245.2 64.9 244.9 65.0Q244.7 65.1 244.5 65.3Q244.4 65.5 244.4 65.7L244.4 65.7Q244.4 66.0 244.6 66.2Q244.7 66.3 245.0 66.5Q245.3 66.6 245.6 66.6L245.6 66.6L246.2 66.8Q246.7 66.9 247.1 67.1Q247.5 67.3 247.8 67.5Q248.1 67.8 248.2 68.1Q248.4 68.5 248.4 68.9L248.4 68.9Q248.4 69.6 248.1 70.1Q247.7 70.6 247.1 70.8Q246.5 71.1 245.6 71.1Z "/></g><mask id="satori_om-id-1-1"><rect x="281" y="31" width="1" height="40" fill="#fff" mask="url(#satori_om-id)"/></mask><rect x="281" y="31" width="1" height="40" fill="rgba(120,80,220,0.2)" clip-path="url(#satori_cp-id)" mask="url(#satori_om-id)"/><mask id="satori_om-id-1-2"><rect x="312" y="28" width="44" height="45" fill="#fff" mask="url(#satori_om-id)"/></mask><mask id="satori_om-id-1-2-0"><rect x="326" y="28" width="17" height="29" fill="#fff" mask="url(#satori_om-id)"/></mask><g mask="url(#satori_om-id)" clip-path="url(#satori_cp-id)"><path fill="#ffffff" d="M335.5 47.9L327.2 47.9L327.2 45.1L334.5 33.5L339.0 33.5L339.0 45.0L341.2 45.0L341.2 47.9L339.0 47.9L339.0 51L335.5 51L335.5 47.9ZM330.8 45.0L335.6 45.0L335.6 37.5L335.5 37.5L330.8 44.9L330.8 45.0Z "/></g><mask id="satori_om-id-1-2-1"><rect x="312" y="61" width="44" height="12" fill="#fff" mask="url(#satori_om-id)"/></mask><g mask="url(#satori_om-id)" clip-path="url(#satori_cp-id)"><path fill="#8b7ec8" d="M314.1 71L312.7 71L312.7 63.7L317.4 63.7L317.4 65.0L314.1 65.0L314.1 67.0L317.1 67.0L317.1 68.2L314.1 68.2L314.1 71ZM323.7 71.1L323.7 71.1Q322.8 71.1 322.0 70.7Q321.2 70.2 320.8 69.4Q320.3 68.5 320.3 67.4L320.3 67.4Q320.3 66.2 320.8 65.3Q321.2 64.5 322.0 64.1Q322.8 63.6 323.7 63.6L323.7 63.6Q324.7 63.6 325.5 64.1Q326.2 64.5 326.7 65.3Q327.1 66.2 327.1 67.4L327.1 67.4Q327.1 68.5 326.7 69.4Q326.2 70.2 325.5 70.7Q324.7 71.1 323.7 71.1ZM323.7 69.8L323.7 69.8Q324.3 69.8 324.7 69.5Q325.1 69.2 325.4 68.7Q325.6 68.1 325.6 67.4L325.6 67.4Q325.6 66.6 325.4 66.0Q325.1 65.5 324.7 65.2Q324.3 65.0 323.7 65.0L323.7 65.0Q323.2 65.0 322.7 65.2Q322.3 65.5 322.1 66.0Q321.8 66.6 321.8 67.4L321.8 67.4Q321.8 68.1 322.1 68.7Q322.3 69.2 322.7 69.5Q323.2 69.8 323.7 69.8ZM331.7 71L330.2 71L330.2 63.7L333.1 63.7Q333.9 63.7 334.5 64.0Q335.1 64.3 335.4 64.8Q335.7 65.4 335.7 66.1Q335.7 66.8 335.4 67.3Q335.1 67.9 334.5 68.1L334.5 68.1Q334.4 68.1 334.4 68.2L334.4 68.2L335.9 71L334.3 71L332.9 68.4L331.7 68.4L331.7 71ZM331.7 65.0L331.7 67.2L332.8 67.2Q333.3 67.2 333.5 67.1Q333.8 66.9 334.0 66.7Q334.1 66.5 334.1 66.1L334.1 66.1Q334.1 65.7 334.0 65.5Q333.8 65.2 333.5 65.1Q333.3 65.0 332.8 65.0L332.8 65.0L331.7 65.0ZM340.3 71L338.8 71L338.8 63.7L340.3 63.7L340.3 65.7L340.3 67.4Q340.3 67.3 340.3 67.3L340.3 67.3Q340.6 66.9 340.8 66.6Q341.1 66.2 341.4 65.8L341.4 65.8L343.2 63.7L345.0 63.7L342.3 66.9L345.1 71L343.3 71L341.3 67.9L340.3 68.9L340.3 71ZM350.7 71.1L350.7 71.1Q349.8 71.1 349.1 70.8Q348.5 70.6 348.1 70.0Q347.8 69.5 347.7 68.7L347.7 68.7L349.2 68.7Q349.2 69.1 349.4 69.4Q349.6 69.6 349.9 69.7Q350.2 69.8 350.6 69.8L350.6 69.8Q351.0 69.8 351.3 69.7Q351.6 69.6 351.8 69.4Q352.0 69.2 352.0 68.9L352.0 68.9Q352.0 68.7 351.8 68.5Q351.7 68.3 351.4 68.2Q351.1 68.1 350.7 68.0L350.7 68.0L349.9 67.8Q349.0 67.6 348.5 67.1Q347.9 66.6 347.9 65.8L347.9 65.8Q347.9 65.2 348.3 64.7Q348.7 64.2 349.3 63.9Q349.9 63.6 350.7 63.6L350.7 63.6Q351.5 63.6 352.1 63.9Q352.7 64.2 353.0 64.7Q353.4 65.2 353.4 65.8L353.4 65.8L351.9 65.8Q351.9 65.4 351.6 65.1Q351.2 64.9 350.7 64.9L350.7 64.9Q350.3 64.9 350.0 65.0Q349.8 65.1 349.6 65.3Q349.5 65.5 349.5 65.7L349.5 65.7Q349.5 66.0 349.6 66.2Q349.8 66.3 350.1 66.5Q350.3 66.6 350.6 66.6L350.6 66.6L351.3 66.8Q351.8 66.9 352.1 67.1Q352.5 67.3 352.8 67.5Q353.1 67.8 353.3 68.1Q353.5 68.5 353.5 68.9L353.5 68.9Q353.5 69.6 353.1 70.1Q352.8 70.6 352.2 70.8Q351.5 71.1 350.7 71.1Z "/></g><mask id="satori_om-id-1-3"><rect x="386" y="31" width="1" height="40" fill="#fff" mask="url(#satori_om-id)"/></mask><rect x="386" y="31" width="1" height="40" fill="rgba(120,80,220,0.2)" clip-path="url(#satori_cp-id)" mask="url(#satori_om-id)"/><mask id="satori_om-id-1-4"><rect x="417" y="28" width="44" height="45" fill="#fff" mask="url(#satori_om-id)"/></mask><mask id="satori_om-id-1-4-0"><rect x="424" y="28" width="31" height="29" fill="#fff" mask="url(#satori_om-id)"/></mask><g mask="url(#satori_om-id)" clip-path="url(#satori_cp-id)"><path fill="#ffffff" d="M431.4 51.2L431.4 51.2Q429.6 51.2 428.2 50.6Q426.8 49.9 426.0 48.8Q425.1 47.6 425.1 46.1L425.1 46.1L428.6 46.1Q428.6 46.8 429.0 47.3Q429.4 47.8 430 48.1Q430.6 48.4 431.4 48.4L431.4 48.4Q432.2 48.4 432.9 48.0Q433.6 47.6 434.0 46.9Q434.4 46.2 434.4 45.3L434.4 45.3Q434.4 44.4 434.0 43.6Q433.6 42.9 432.9 42.5Q432.2 42.1 431.3 42.1L431.3 42.1Q430.5 42.1 429.8 42.4Q429.1 42.7 428.7 43.3L428.7 43.3L425.5 42.7L426.3 33.5L436.9 33.5L436.9 36.5L429.3 36.5L428.8 40.9L428.9 40.9Q429.4 40.3 430.3 39.9Q431.2 39.5 432.3 39.5L432.3 39.5Q433.5 39.5 434.5 39.9Q435.5 40.3 436.3 41.1Q437.0 41.8 437.4 42.9Q437.8 43.9 437.8 45.2L437.8 45.2Q437.8 47.0 437.0 48.3Q436.2 49.7 434.7 50.5Q433.3 51.2 431.4 51.2ZM446.7 51.2L446.7 51.2Q444.8 51.2 443.3 50.6Q441.8 49.9 440.9 48.8Q440.0 47.7 440.0 46.3L440.0 46.3Q440.0 45.2 440.5 44.3Q441.0 43.4 441.9 42.8Q442.7 42.2 443.8 42.0L443.8 42.0L443.8 41.9Q442.4 41.6 441.5 40.5Q440.7 39.4 440.7 38.0L440.7 38.0Q440.7 36.6 441.4 35.6Q442.2 34.5 443.6 33.9Q445.0 33.3 446.7 33.3L446.7 33.3Q448.5 33.3 449.9 33.9Q451.2 34.5 452.0 35.6Q452.8 36.6 452.8 38.0L452.8 38.0Q452.8 39.4 451.9 40.5Q451.1 41.6 449.7 41.9L449.7 41.9L449.7 42.0Q450.7 42.2 451.6 42.8Q452.4 43.4 453.0 44.3Q453.5 45.2 453.5 46.3L453.5 46.3Q453.5 47.7 452.6 48.8Q451.7 49.9 450.2 50.6Q448.7 51.2 446.7 51.2ZM446.7 48.6L446.7 48.6Q447.6 48.6 448.3 48.3Q449.0 47.9 449.3 47.4Q449.7 46.8 449.7 46.0L449.7 46.0Q449.7 45.3 449.3 44.7Q448.9 44.1 448.3 43.7Q447.6 43.4 446.7 43.4L446.7 43.4Q445.9 43.4 445.2 43.7Q444.5 44.1 444.1 44.7Q443.7 45.2 443.7 46.0L443.7 46.0Q443.7 46.8 444.1 47.4Q444.5 47.9 445.2 48.3Q445.8 48.6 446.7 48.6ZM446.7 40.8L446.7 40.8Q447.5 40.8 448.1 40.5Q448.6 40.1 449.0 39.6Q449.3 39.1 449.3 38.4L449.3 38.4Q449.3 37.7 449.0 37.1Q448.7 36.6 448.1 36.3Q447.5 36.0 446.7 36.0L446.7 36.0Q446.0 36.0 445.4 36.3Q444.8 36.6 444.5 37.1Q444.2 37.7 444.2 38.4L444.2 38.4Q444.2 39.1 444.5 39.6Q444.8 40.1 445.4 40.5Q446.0 40.8 446.7 40.8Z "/></g><mask id="satori_om-id-1-4-1"><rect x="417" y="61" width="44" height="12" fill="#fff" mask="url(#satori_om-id)"/></mask><g mask="url(#satori_om-id)" clip-path="url(#satori_cp-id)"><path fill="#5a9ca8" d="M419.1 71L417.7 71L417.7 63.7L420.5 63.7Q421.3 63.7 421.9 64.0Q422.5 64.3 422.8 64.8Q423.1 65.4 423.1 66.1Q423.1 66.8 422.8 67.3Q422.5 67.9 421.9 68.1L421.9 68.1Q421.8 68.1 421.8 68.2L421.8 68.2L423.4 71L421.7 71L420.3 68.4L419.1 68.4L419.1 71ZM419.1 65.0L419.1 67.2L420.2 67.2Q420.7 67.2 421.0 67.1Q421.3 66.9 421.4 66.7Q421.6 66.5 421.6 66.1L421.6 66.1Q421.6 65.7 421.4 65.5Q421.3 65.2 421.0 65.1Q420.7 65.0 420.2 65.0L420.2 65.0L419.1 65.0ZM431.1 71L426.2 71L426.2 63.7L431.1 63.7L431.1 65.0L427.7 65.0L427.7 66.7L430.8 66.7L430.8 67.9L427.7 67.9L427.7 69.8L431.1 69.8L431.1 71ZM435.8 71L434.3 71L434.3 63.7L437.1 63.7Q438.0 63.7 438.5 64.0Q439.1 64.4 439.4 64.9Q439.7 65.5 439.7 66.2L439.7 66.2Q439.7 66.9 439.4 67.5Q439.1 68.0 438.5 68.3Q437.9 68.6 437.1 68.6L437.1 68.6L435.8 68.6L435.8 71ZM435.8 65.0L435.8 67.4L436.9 67.4Q437.3 67.4 437.6 67.3Q437.9 67.1 438.1 66.8Q438.2 66.5 438.2 66.2Q438.2 65.8 438.1 65.5Q437.9 65.3 437.6 65.1Q437.3 65.0 436.9 65.0L436.9 65.0L435.8 65.0ZM446.0 71.1L446.0 71.1Q445.0 71.1 444.2 70.7Q443.5 70.2 443.0 69.4Q442.6 68.5 442.6 67.4L442.6 67.4Q442.6 66.2 443.0 65.3Q443.5 64.5 444.2 64.1Q445.0 63.6 446.0 63.6L446.0 63.6Q446.9 63.6 447.7 64.1Q448.5 64.5 448.9 65.3Q449.4 66.2 449.4 67.4L449.4 67.4Q449.4 68.5 448.9 69.4Q448.5 70.2 447.7 70.7Q446.9 71.1 446.0 71.1ZM446.0 69.8L446.0 69.8Q446.5 69.8 447.0 69.5Q447.4 69.2 447.6 68.7Q447.9 68.1 447.9 67.4L447.9 67.4Q447.9 66.6 447.6 66.0Q447.4 65.5 447.0 65.2Q446.5 65.0 446.0 65.0L446.0 65.0Q445.4 65.0 445.0 65.2Q444.6 65.5 444.3 66.0Q444.1 66.6 444.1 67.4L444.1 67.4Q444.1 68.1 444.3 68.7Q444.6 69.2 445.0 69.5Q445.4 69.8 446.0 69.8ZM455.2 71.1L455.2 71.1Q454.3 71.1 453.6 70.8Q453.0 70.6 452.6 70.0Q452.3 69.5 452.2 68.7L452.2 68.7L453.7 68.7Q453.7 69.1 453.9 69.4Q454.1 69.6 454.4 69.7Q454.7 69.8 455.1 69.8L455.1 69.8Q455.5 69.8 455.8 69.7Q456.1 69.6 456.3 69.4Q456.5 69.2 456.5 68.9L456.5 68.9Q456.5 68.7 456.3 68.5Q456.2 68.3 455.9 68.2Q455.6 68.1 455.2 68.0L455.2 68.0L454.4 67.8Q453.5 67.6 453.0 67.1Q452.4 66.6 452.4 65.8L452.4 65.8Q452.4 65.2 452.8 64.7Q453.1 64.2 453.8 63.9Q454.4 63.6 455.2 63.6L455.2 63.6Q456.0 63.6 456.6 63.9Q457.2 64.2 457.5 64.7Q457.9 65.2 457.9 65.8L457.9 65.8L456.4 65.8Q456.4 65.4 456.0 65.1Q455.7 64.9 455.2 64.9L455.2 64.9Q454.8 64.9 454.5 65.0Q454.2 65.1 454.1 65.3Q454.0 65.5 454.0 65.7L454.0 65.7Q454.0 66.0 454.1 66.2Q454.3 66.3 454.6 66.5Q454.8 66.6 455.1 66.6L455.1 66.6L455.8 66.8Q456.2 66.9 456.6 67.1Q457.0 67.3 457.3 67.5Q457.6 67.8 457.8 68.1Q458.0 68.5 458.0 68.9L458.0 68.9Q458.0 69.6 457.6 70.1Q457.3 70.6 456.7 70.8Q456.0 71.1 455.2 71.1Z "/></g><mask id="satori_om-id-1-5"><rect x="491" y="31" width="1" height="40" fill="#fff" mask="url(#satori_om-id)"/></mask><rect x="491" y="31" width="1" height="40" fill="rgba(120,80,220,0.2)" clip-path="url(#satori_cp-id)" mask="url(#satori_om-id)"/><mask id="satori_om-id-1-6"><rect x="522" y="28" width="72" height="45" fill="#fff" mask="url(#satori_om-id)"/></mask><mask id="satori_om-id-1-6-0"><rect x="522" y="28" width="72" height="29" fill="#fff" mask="url(#satori_om-id)"/></mask><g mask="url(#satori_om-id)" clip-path="url(#satori_cp-id)"><path fill="#ffffff" d="M531.5 47.9L523.2 47.9L523.2 45.1L530.5 33.5L535.0 33.5L535.0 45.0L537.2 45.0L537.2 47.9L535.0 47.9L535.0 51L531.5 51L531.5 47.9ZM526.8 45.0L531.6 45.0L531.6 37.5L531.5 37.5L526.8 44.9L526.8 45.0ZM542.3 33.5L546.1 33.5L546.1 51L542.5 51L542.5 36.7L542.4 36.7L538.4 39.5L538.4 36.2L542.3 33.5ZM555.4 51.2L555.4 51.2Q553.5 51.2 552.0 50.6Q550.5 49.9 549.7 48.8Q548.8 47.6 548.8 46.1L548.8 46.1L552.4 46.1Q552.5 46.8 552.8 47.2Q553.2 47.7 553.9 48Q554.6 48.3 555.4 48.3L555.4 48.3Q556.3 48.3 556.9 48.0Q557.6 47.7 558.0 47.1Q558.3 46.6 558.3 45.9L558.3 45.9Q558.3 45.2 557.9 44.6Q557.5 44.1 556.8 43.7Q556.1 43.4 555.1 43.4L555.1 43.4L553.5 43.4L553.5 40.8L555.1 40.8Q555.9 40.8 556.6 40.5Q557.2 40.2 557.6 39.7Q558.0 39.1 558.0 38.4L558.0 38.4Q558.0 37.7 557.6 37.2Q557.3 36.7 556.8 36.5Q556.2 36.2 555.4 36.2L555.4 36.2Q554.7 36.2 554.0 36.4Q553.4 36.7 553.0 37.2Q552.6 37.7 552.6 38.4L552.6 38.4L549.2 38.4Q549.2 36.9 550.0 35.7Q550.8 34.6 552.3 33.9Q553.7 33.3 555.4 33.3L555.4 33.3Q557.2 33.3 558.6 34.0Q559.9 34.6 560.7 35.7Q561.4 36.8 561.4 38.2L561.4 38.2Q561.4 39.7 560.5 40.7Q559.6 41.6 558.2 41.9L558.2 41.9L558.2 42.0Q559.4 42.2 560.3 42.8Q561.2 43.3 561.6 44.2Q562.1 45.0 562.1 46.1L562.1 46.1Q562.1 47.6 561.2 48.8Q560.3 49.9 558.8 50.6Q557.3 51.2 555.4 51.2ZM571.0 51.2L571.0 51.2Q569.0 51.2 567.5 50.6Q566.0 49.9 565.1 48.8Q564.3 47.7 564.3 46.3L564.3 46.3Q564.3 45.2 564.8 44.3Q565.3 43.4 566.1 42.8Q567.0 42.2 568.0 42.0L568.0 42.0L568.0 41.9Q566.6 41.6 565.8 40.5Q564.9 39.4 564.9 38.0L564.9 38.0Q564.9 36.6 565.7 35.6Q566.5 34.5 567.8 33.9Q569.2 33.3 571.0 33.3L571.0 33.3Q572.7 33.3 574.1 33.9Q575.5 34.5 576.3 35.6Q577.0 36.6 577.0 38.0L577.0 38.0Q577.0 39.4 576.2 40.5Q575.3 41.6 573.9 41.9L573.9 41.9L573.9 42.0Q575.0 42.2 575.8 42.8Q576.7 43.4 577.2 44.3Q577.7 45.2 577.7 46.3L577.7 46.3Q577.7 47.7 576.8 48.8Q576.0 49.9 574.4 50.6Q572.9 51.2 571.0 51.2ZM571.0 48.6L571.0 48.6Q571.9 48.6 572.5 48.3Q573.2 47.9 573.6 47.4Q573.9 46.8 573.9 46.0L573.9 46.0Q573.9 45.3 573.6 44.7Q573.2 44.1 572.5 43.7Q571.8 43.4 571.0 43.4L571.0 43.4Q570.1 43.4 569.4 43.7Q568.7 44.1 568.4 44.7Q568.0 45.2 568.0 46.0L568.0 46.0Q568.0 46.8 568.3 47.4Q568.7 47.9 569.4 48.3Q570.1 48.6 571.0 48.6ZM571.0 40.8L571.0 40.8Q571.7 40.8 572.3 40.5Q572.9 40.1 573.2 39.6Q573.5 39.1 573.5 38.4L573.5 38.4Q573.5 37.7 573.2 37.1Q572.9 36.6 572.3 36.3Q571.7 36.0 571.0 36.0L571.0 36.0Q570.2 36.0 569.6 36.3Q569.0 36.6 568.7 37.1Q568.4 37.7 568.4 38.4L568.4 38.4Q568.4 39.1 568.7 39.6Q569.0 40.1 569.6 40.5Q570.2 40.8 571.0 40.8ZM584.6 51L580.9 51L588.1 36.6L588.1 36.5L579.7 36.5L579.7 33.5L591.9 33.5L591.9 36.5L584.6 51Z "/></g><mask id="satori_om-id-1-6-1"><rect x="526" y="61" width="64" height="12" fill="#fff" mask="url(#satori_om-id)"/></mask><g mask="url(#satori_om-id)" clip-path="url(#satori_cp-id)"><path fill="#7ee7ff" d="M529.8 71.1L529.8 71.1Q528.9 71.1 528.1 70.7Q527.3 70.2 526.9 69.4Q526.5 68.5 526.5 67.4L526.5 67.4Q526.5 66.2 526.9 65.3Q527.3 64.5 528.1 64.1Q528.9 63.6 529.8 63.6L529.8 63.6Q530.5 63.6 531.0 63.8Q531.5 64.0 531.9 64.3Q532.4 64.6 532.6 65.1Q532.9 65.6 533.0 66.2L533.0 66.2L531.5 66.2Q531.4 65.9 531.3 65.7Q531.1 65.4 530.9 65.3Q530.7 65.1 530.4 65.0Q530.2 65.0 529.9 65.0L529.9 65.0Q529.3 65.0 528.9 65.2Q528.4 65.5 528.2 66.1Q528.0 66.6 528.0 67.4L528.0 67.4Q528.0 68.2 528.2 68.7Q528.5 69.2 528.9 69.5Q529.3 69.8 529.9 69.8L529.9 69.8Q530.2 69.8 530.4 69.7Q530.7 69.6 530.9 69.4Q531.1 69.3 531.3 69.0Q531.4 68.8 531.5 68.5L531.5 68.5L533.0 68.5Q532.9 69.0 532.7 69.5Q532.4 69.9 532.0 70.3Q531.6 70.7 531.1 70.9Q530.5 71.1 529.8 71.1ZM539.3 71.1L539.3 71.1Q538.3 71.1 537.5 70.7Q536.8 70.2 536.3 69.4Q535.9 68.5 535.9 67.4L535.9 67.4Q535.9 66.2 536.3 65.3Q536.8 64.5 537.5 64.1Q538.3 63.6 539.3 63.6L539.3 63.6Q540.2 63.6 541.0 64.1Q541.8 64.5 542.2 65.3Q542.6 66.2 542.6 67.4L542.6 67.4Q542.6 68.5 542.2 69.4Q541.8 70.2 541.0 70.7Q540.2 71.1 539.3 71.1ZM539.3 69.8L539.3 69.8Q539.8 69.8 540.2 69.5Q540.7 69.2 540.9 68.7Q541.1 68.1 541.1 67.4L541.1 67.4Q541.1 66.6 540.9 66.0Q540.7 65.5 540.2 65.2Q539.8 65.0 539.3 65.0L539.3 65.0Q538.7 65.0 538.3 65.2Q537.8 65.5 537.6 66.0Q537.4 66.6 537.4 67.4L537.4 67.4Q537.4 68.1 537.6 68.7Q537.8 69.2 538.3 69.5Q538.7 69.8 539.3 69.8ZM547.2 71L545.8 71L545.8 63.7L548.0 63.7L549.2 67.1Q549.3 67.3 549.4 67.7Q549.5 68.0 549.6 68.5L549.6 68.5Q549.7 68.9 549.8 69.3L549.8 69.3Q549.9 68.9 549.9 68.5L549.9 68.5Q550.0 68.1 550.1 67.7Q550.2 67.3 550.3 67.1L550.3 67.1L551.5 63.7L553.8 63.7L553.8 71L552.3 71L552.3 67.6Q552.3 67.3 552.3 67.0Q552.3 66.6 552.3 66.2Q552.3 65.8 552.3 65.4L552.3 65.4Q552.3 65.2 552.3 65.0L552.3 65.0Q552.3 65.2 552.2 65.4L552.2 65.4Q552.1 65.9 552.0 66.3Q551.9 66.7 551.8 67.0Q551.7 67.3 551.6 67.6L551.6 67.6L550.4 71L549.1 71L547.9 67.6Q547.8 67.3 547.7 67.0Q547.6 66.7 547.5 66.3Q547.4 65.9 547.3 65.4L547.3 65.4Q547.2 65.2 547.2 65.1L547.2 65.1Q547.2 65.2 547.2 65.4L547.2 65.4Q547.2 65.8 547.2 66.2Q547.2 66.6 547.2 67.0Q547.2 67.3 547.2 67.6L547.2 67.6L547.2 71ZM558.6 71L557.1 71L557.1 63.7L559.4 63.7L560.5 67.1Q560.6 67.3 560.7 67.7Q560.8 68.0 560.9 68.5L560.9 68.5Q561.0 68.9 561.1 69.3L561.1 69.3Q561.2 68.9 561.3 68.5L561.3 68.5Q561.4 68.1 561.5 67.7Q561.6 67.3 561.6 67.1L561.6 67.1L562.8 63.7L565.1 63.7L565.1 71L563.6 71L563.6 67.6Q563.6 67.3 563.6 67.0Q563.6 66.6 563.6 66.2Q563.6 65.8 563.6 65.4L563.6 65.4Q563.6 65.2 563.6 65.0L563.6 65.0Q563.6 65.2 563.5 65.4L563.5 65.4Q563.4 65.9 563.3 66.3Q563.2 66.7 563.1 67.0Q563.0 67.3 562.9 67.6L562.9 67.6L561.7 71L560.5 71L559.2 67.6Q559.2 67.3 559.1 67.0Q558.9 66.7 558.8 66.3Q558.7 65.9 558.6 65.4L558.6 65.4Q558.6 65.2 558.5 65.1L558.5 65.1Q558.5 65.2 558.5 65.4L558.5 65.4Q558.5 65.8 558.5 66.2Q558.5 66.6 558.6 67.0Q558.6 67.3 558.6 67.6L558.6 67.6L558.6 71ZM568.4 63.7L569.9 63.7L569.9 71L568.4 71L568.4 63.7ZM575.1 65.0L572.9 65.0L572.9 63.7L578.9 63.7L578.9 65.0L576.6 65.0L576.6 71L575.1 71L575.1 65.0ZM584.5 71.1L584.5 71.1Q583.7 71.1 583.0 70.8Q582.4 70.6 582.0 70.0Q581.7 69.5 581.6 68.7L581.6 68.7L583.1 68.7Q583.1 69.1 583.3 69.4Q583.5 69.6 583.8 69.7Q584.1 69.8 584.5 69.8L584.5 69.8Q584.9 69.8 585.2 69.7Q585.5 69.6 585.7 69.4Q585.9 69.2 585.9 68.9L585.9 68.9Q585.9 68.7 585.7 68.5Q585.6 68.3 585.3 68.2Q585.0 68.1 584.6 68.0L584.6 68.0L583.8 67.8Q582.9 67.6 582.4 67.1Q581.8 66.6 581.8 65.8L581.8 65.8Q581.8 65.2 582.2 64.7Q582.5 64.2 583.2 63.9Q583.8 63.6 584.6 63.6L584.6 63.6Q585.4 63.6 586.0 63.9Q586.6 64.2 586.9 64.7Q587.2 65.2 587.3 65.8L587.3 65.8L585.8 65.8Q585.8 65.4 585.4 65.1Q585.1 64.9 584.5 64.9L584.5 64.9Q584.2 64.9 583.9 65.0Q583.6 65.1 583.5 65.3Q583.4 65.5 583.4 65.7L583.4 65.7Q583.4 66.0 583.5 66.2Q583.7 66.3 583.9 66.5Q584.2 66.6 584.5 66.6L584.5 66.6L585.2 66.8Q585.6 66.9 586.0 67.1Q586.4 67.3 586.7 67.5Q587.0 67.8 587.2 68.1Q587.4 68.5 587.4 68.9L587.4 68.9Q587.4 69.6 587.0 70.1Q586.7 70.6 586.1 70.8Q585.4 71.1 584.5 71.1Z "/></g></svg>