<!-- Generated by readme-aura https://github.com/collectioneur/readme-aura -->
<svg width="800" height="100" viewBox="0 0 800 100" xmlns="http://www.w3.org/2000/svg"><defs><clipPath id="satori_bc-id"><path x="0" y="0" width="800" height="100" d="M16,0 h768 a16,16 0 0 1 16,16 v68 a16,16 0 0 1 -16,16 h-768 a16,16 0 0 1 -16,-16 v-68 a16,16 0 0 1 16,-16"/></clipPath></defs><clipPath id="satori_cp-id"><path x="0" y="0" width="800" height="100" d="M16,0 h768 a16,16 0 0 1 16,16 v68 a16,16 0 0 1 -16,16 h-768 a16,16 0 0 1 -16,-16 v-68 a16,16 0 0 1 16,-16"/></clipPath><mask id="satori_om-id"><rect x="1" y="1" width="798" height="98" fill="#fff"/><path width="800" height="100" fill="none" stroke="#000" stroke-width="2" d="M4.686,4.686 A16,16 0 0 1 16,0 h768 a16,16 0 0 1 16,16 v68 a16,16 0 0 1 -16,16 h-768 a16,16 0 0 1 -16,-16 v-68 A16,16 0 0 1 4.686,4.686"/></mask><path x="0" y="0" width="800" height="100" fill="#06060a" d="M16,0 h768 a16,16 0 0 1 16,16 v68 a16,16 0 0 1 -16,16 h-768 a16,16 0 0 1 -16,-16 v-68 a16,16 0 0 1 16,-16"/><path width="800" height="100" clip-path="url(#satori_bc-id)" fill="none" stroke="rgba(110,80,220,0.15)" stroke-width="2" d="M4.686,4.686 A16,16 0 0 1 16,0 h768 a16,16 0 0 1 16,16 v68 a16,16 0 0 1 -16,16 h-768 a16,16 0 0 1 -16,-16 v-68 A16,16 0 0 1 4.686,4.686"/><clipPath id="satori_cp-id-0" clip-path="url(#satori_cp-id)"><rect x="1" y="1" width="800" height="100"/></clipPath><mask id="satori_om-id-0"><rect x="1" y="1" width="800" height="100" fill="#fff" mask="url(#satori_om-id)"/></mask><svg x="1" y="1" width="800" height="100" preserveAspectRatio="none" clip-path="url(#satori_cp-id-0)" mask="url(#satori_om-id-0)"><defs><radialGradient id="stg1" cx="50%" cy="50%" r="50%"><stop offset="0%" stop-color="rgba(120,40,220,0.5)"></stop><stop offset="100%" stop-color="rgba(120,40,220,0)"></stop></radialGradient><linearGradient id="st-scg" x1="0%" y1="0%" x2="100%" y2="0%"><stop offset="0%" stop-color="rgba(120,200,255,0)"></stop><stop offset="45%" stop-color="rgba(120,200,255,0.12)"></stop><stop offset="50%" stop-color="rgba(180,120,255,0.3)"></stop><stop offset="55%" stop-color="rgba(120,200,255,0.12)"></stop><stop offset="100%" stop-color="rgba(120,200,255,0)"></stop></linearGradient></defs><ellipse id="stat-g1" cx="400" cy="50" rx="250" ry="60" fill="url(#stg1)"></ellipse><rect id="stat-scan1" x="0" y="50" width="160" height="1" fill="url(#st-scg)"></rect><style>

      @keyframes stat-drift-r { 0%, 100% { transform: translate(0, 0); opacity: 0.7; } 50% { transform: translate(25px, -12px); opacity: 1; } }
      @keyframes stat-scan { 0% { transform: translate(-900px, 0); } 100% { transform: translate(900px, 0); } }
      #stat-g1 { animation: stat-drift-r 7s ease-in-out infinite; }
      #stat-scan1 { animation: stat-scan 4s linear infinite; }
    
</style>
</svg><mask id="satori_om-id-0-0"><rect x="1" y="1" width="0" height="100" fill="#fff" mask="url(#satori_om-id)"/></mask><mask id="satori_om-id-0-0-0"><rect x="1" y="1" width="0" height="100" fill="#fff" mask="url(#satori_om-id)"/></mask><mask id="satori_om-id-0-0-0-0"><rect x="1" y="1" width="0" height="100" fill="#fff" mask="url(#satori_om-id)"/></mask><mask id="satori_om-id-0-0-0-1"><rect x="1" y="1" width="0" height="100" fill="#fff" mask="url(#satori_om-id)"/></mask><mask id="satori_om-id-0-0-1"><rect x="1" y="1" width="0" height="100" fill="#fff" mask="url(#satori_om-id)"/></mask><mask id="satori_om-id-0-0-1-0"><rect x="1" y="1" width="0" height="100" fill="#fff" mask="url(#satori_om-id)"/></mask><mask id="satori_om-id-0-0-1-1"><rect x="1" y="1" width="0" height="100" fill="#fff" mask="url(#satori_om-id)"/></mask><mask id="satori_om-id-0-0-1-2"><rect x="1" y="1" width="0" height="100" fill="#fff" mask="url(#satori_om-id)"/></mask><mask id="satori_om-id-0-0-1-3"><rect x="1" y="1" width="0" height="100" fill="#fff" mask="url(#satori_om-id)"/></mask><mask id="satori_om-id-0-0-1-4"><rect x="1" y="1" width="0" height="100" fill="#fff" mask="url(#satori_om-id)"/></mask><mask id="satori_om-id-0-1"><rect x="1" y="1" width="0" height="100" fill="#fff" mask="url(#satori_om-id)"/></mask><mask id="satori_om-id-0-2"><rect x="1" y="1" width="0" height="100" fill="#fff" mask="url(#satori_om-id)"/></mask><mask id="satori_om-id-1"><rect x="208" y="28" width="384" height="45" fill="#fff" mask="url(#satori_om-id)"/></mask><mask id="satori_om-id-1-0"><rect x="208" y="28" width="44" height="45" fill="#fff" mask="url(#satori_om-id)"/></mask><mask id="satori_om-id-1-0-0"><rect x="215" y="28" width="31" height="29" fill="#fff" mask="url(#satori_om-id)"/></mask><g mask="url(#satori_om-id)" clip-path="url(#satori_cp-id)"><path fill="#ffffff" d="M228.8 51L216.5 51L216.5 48.4L222.6 42.6Q223.4 41.8 224.0 41.2Q224.5 40.6 224.8 40.0Q225.1 39.4 225.1 38.7L225.1 38.7Q225.1 37.9 224.8 37.3Q224.4 36.8 223.8 36.5Q223.2 36.2 222.4 36.2L222.4 36.2Q221.6 36.2 221.0 36.5Q220.4 36.8 220.0 37.4Q219.7 38.0 219.7 38.9L219.7 38.9L216.3 38.9Q216.3 37.2 217.1 35.9Q217.8 34.7 219.2 34.0Q220.6 33.3 222.4 33.3L222.4 33.3Q224.3 33.3 225.7 34.0Q227.0 34.6 227.8 35.8Q228.6 36.9 228.6 38.5L228.6 38.5Q228.6 39.4 228.2 40.4Q227.8 41.3 226.8 42.5Q225.9 43.7 224.1 45.3L224.1 45.3L221.4 47.9L221.4 48.1L228.8 48.1L228.8 51ZM237.9 51.2L237.9 51.2Q236.0 51.2 234.5 50.6Q232.9 49.9 232.1 48.8Q231.2 47.7 231.2 46.3L231.2 46.3Q231.2 45.2 231.7 44.3Q232.2 43.4 233.1 42.8Q233.9 42.2 235.0 42.0L235.0 42.0L235.0 41.9Q233.6 41.6 232.7 40.5Q231.9 39.4 231.9 38.0L231.9 38.0Q231.9 36.6 232.6 35.6Q233.4 34.5 234.8 33.9Q236.2 33.3 237.9 33.3L237.9 33.3Q239.7 33.3 241.0 33.9Q242.4 34.5 243.2 35.6Q244.0 36.6 244.0 38.0L244.0 38.0Q244.0 39.4 243.1 40.5Q242.2 41.6 240.9 41.9L240.9 41.9L240.9 42.0Q241.9 42.2 242.8 42.8Q243.6 43.4 244.1 44.3Q244.6 45.2 244.6 46.3L244.6 46.3Q244.6 47.7 243.8 48.8Q242.9 49.9 241.4 50.6Q239.9 51.2 237.9 51.2ZM237.9 48.6L237.9 48.6Q238.8 48.6 239.5 48.3Q240.2 47.9 240.5 47.4Q240.9 46.8 240.9 46.0L240.9 46.0Q240.9 45.3 240.5 44.7Q240.1 44.1 239.5 43.7Q238.8 43.4 237.9 43.4L237.9 43.4Q237.1 43.4 236.4 43.7Q235.7 44.1 235.3 44.7Q234.9 45.2 234.9 46.0L234.9 46.0Q234.9 46.8 235.3 47.4Q235.7 47.9 236.4 48.3Q237.0 48.6 237.9 48.6ZM237.9 40.8L237.9 40.8Q238.7 40.8 239.3 40.5Q239.8 40.1 240.2 39.6Q240.5 39.1 240.5 38.4L240.5 38.4Q240.5 37.7 240.2 37.1Q239.8 36.6 239.3 36.3Q238.7 36.0 237.9 36.0L237.9 36.0Q237.2 36.0 236.6 36.3Q236 36.6 235.7 37.1Q235.3 37.7 235.3 38.4L235.3 38.4Q235.3 39.1 235.7 39.6Q236 40.1 236.6 40.5Q237.2 40.8 237.9 40.8Z "/></g><mask id="satori_om-id-1-0-1"><rect x="208" y="61" width="44" height="12" fill="#fff" mask="url(#satori_om-id)"/></mask><g mask="url(#satori_om-id)" clip-path="url(#satori_cp-id)"><path fill="#b8860b" d="M211.3 71.1L211.3 71.1Q210.5 71.1 209.8 70.8Q209.2 70.6 208.8 70.0Q208.4 69.5 208.4 68.7L208.4 68.7L209.9 68.7Q209.9 69.1 210.1 69.4Q210.3 69.6 210.6 69.7Q210.9 69.8 211.3 69.8L211.3 69.8Q211.7 69.8 212.0 69.7Q212.3 69.6 212.5 69.4Q212.6 69.2 212.6 68.9L212.6 68.9Q212.6 68.7 212.5 68.5Q212.3 68.3 212.1 68.2Q211.8 68.1 211.4 68.0L211.4 68.0L210.6 67.8Q209.7 67.6 209.1 67.1Q208.6 66.6 208.6 65.8L208.6 65.8Q208.6 65.2 209.0 64.7Q209.3 64.2 209.9 63.9Q210.6 63.6 211.3 63.6L211.3 63.6Q212.2 63.6 212.8 63.9Q213.4 64.2 213.7 64.7Q214.0 65.2 214.0 65.8L214.0 65.8L212.6 65.8Q212.6 65.4 212.2 65.1Q211.9 64.9 211.3 64.9L211.3 64.9Q211.0 64.9 210.7 65.0Q210.4 65.1 210.3 65.3Q210.1 65.5 210.1 65.7L210.1 65.7Q210.1 66.0 210.3 66.2Q210.5 66.3 210.7 66.5Q211.0 66.6 211.3 66.6L211.3 66.6L212.0 66.8Q212.4 66.9 212.8 67.1Q213.2 67.3 213.5 67.5Q213.8 67.8 214.0 68.1Q214.1 68.5 214.1 68.9L214.1 68.9Q214.1 69.6 213.8 70.1Q213.5 70.6 212.8 70.8Q212.2 71.1 211.3 71.1ZM219.1 65.0L216.9 65.0L216.9 63.7L222.9 63.7L222.9 65.0L220.6 65.0L220.6 71L219.1 71L219.1 65.0ZM227.1 71L225.5 71L227.9 63.7L229.9 63.7L232.4 71L230.8 71L230.2 69.3L227.6 69.3L227.1 71ZM228.0 68.1L229.8 68.1L229.6 67.5Q229.4 66.8 229.2 66L229.2 66Q229.1 65.5 228.9 64.9L228.9 64.9Q228.8 65.5 228.6 66.0L228.6 66.0Q228.4 66.8 228.2 67.5L228.2 67.5L228.0 68.1ZM236.8 71L235.3 71L235.3 63.7L238.2 63.7Q239.0 63.7 239.6 64.0Q240.2 64.3 240.5 64.8Q240.8 65.4 240.8 66.1Q240.8 66.8 240.5 67.3Q240.2 67.9 239.6 68.1L239.6 68.1Q239.5 68.1 239.5 68.2L239.5 68.2L241.0 71L239.4 71L238.0 68.4L236.8 68.4L236.8 71ZM236.8 65.0L236.8 67.2L237.9 67.2Q238.4 67.2 238.7 67.1Q239.0 66.9 239.1 66.7Q239.2 66.5 239.2 66.1L239.2 66.1Q239.2 65.7 239.1 65.5Q239.0 65.2 238.7 65.1Q238.4 65.0 237.9 65.0L237.9 65.0L236.8 65.0ZM246.6 71.1L246.6 71.1Q245.7 71.1 245.1 70.8Q244.4 70.6 244.1 70.0Q243.7 69.5 243.7 68.7L243.7 68.7L245.1 68.7Q245.2 69.1 245.3 69.4Q245.5 69.6 245.8 69.7Q246.2 69.8 246.6 69.8L246.6 69.8Q247.0 69.8 247.3 69.7Q247.6 69.6 247.7 69.4Q247.9 69.2 247.9 68.9L247.9 68.9Q247.9 68.7 247.7 68.5Q247.6 68.3 247.3 68.2Q247.0 68.1 246.6 68.0L246.6 68.0L245.8 67.8Q244.9 67.6 244.4 67.1Q243.9 66.6 243.9 65.8L243.9 65.8Q243.9 65.2 244.2 64.7Q244.6 64.2 245.2 63.9Q245.8 63.6 246.6 63.6L246.6 63.6Q247.4 63.6 248.0 63.9Q248.6 64.2 248.9 64.7Q249.3 65.2 249.3 65.8L249.3 65.8L247.9 65.8Q247.8 65.4 247.5 65.1Q247.1 64.9 246.6 64.9L246.6 64.9Q246.2 64.9 245.9 65.0Q245.7 65.1 245.5 65.3Q245.4 65.5 245.4 65.7L245.4 65.7Q245.4 66.0 245.6 66.2Q245.7 66.3 246.0 66.5Q246.3 66.6 246.6 66.6L246.6 66.6L247.2 66.8Q247.7 66.9 248.1 67.1Q248.5 67.3 248.8 67.5Q249.1 67.8 249.2 68.1Q249.4 68.5 249.4 68.9L249.4 68.9Q249.4 69.6 249.1 70.1Q248.7 70.6 248.1 70.8Q247.5 71.1 246.6 71.1Z "/></g><mask id="satori_om-id-1-1"><rect x="282" y="31" width="1" height="40" fill="#fff" mask="url(#satori_om-id)"/></mask><rect x="282" y="31" width="1" height="40" fill="rgba(120,80,220,0.2)" clip-path="url(#satori_cp-id)" mask="url(#satori_om-id)"/><mask id="satori_om-id-1-2"><rect x="313" y="28" width="44" height="45" fill="#fff" mask="url(#satori_om-id)"/></mask><mask id="satori_om-id-1-2-0"><rect x="327" y="28" width="17" height="29" fill="#fff" mask="url(#satori_om-id)"/></mask><g mask="url(#satori_om-id)" clip-path="url(#satori_cp-id)"><path fill="#ffffff" d="M336.5 47.9L328.2 47.9L328.2 45.1L335.5 33.5L340.0 33.5L340.0 45.0L342.2 45.0L342.2 47.9L340.0 47.9L340.0 51L336.5 51L336.5 47.9ZM331.8 45.0L336.6 45.0L336.6 37.5L336.5 37.5L331.8 44.9L331.8 45.0Z "/></g><mask id="satori_om-id-1-2-1"><rect x="313" y="61" width="44" height="12" fill="#fff" mask="url(#satori_om-id)"/></mask><g mask="url(#satori_om-id)" clip-path="url(#satori_cp-id)"><path fill="#8b7ec8" d="M315.1 71L313.7 71L313.7 63.7L318.4 63.7L318.4 65.0L315.1 65.0L315.1 67.0L318.1 67.0L318.1 68.2L315.1 68.2L315.1 71ZM324.7 71.1L324.7 71.1Q323.8 71.1 323.0 70.7Q322.2 70.2 321.8 69.4Q321.3 68.5 321.3 67.4L321.3 67.4Q321.3 66.2 321.8 65.3Q322.2 64.5 323.0 64.1Q323.8 63.6 324.7 63.6L324.7 63.6Q325.7 63.6 326.5 64.1Q327.2 64.5 327.7 65.3Q328.1 66.2 328.1 67.4L328.1 67.4Q328.1 68.5 327.7 69.4Q327.2 70.2 326.5 70.7Q325.7 71.1 324.7 71.1ZM324.7 69.8L324.7 69.8Q325.3 69.8 325.7 69.5Q326.1 69.2 326.4 68.7Q326.6 68.1 326.6 67.4L326.6 67.4Q326.6 66.6 326.4 66.0Q326.1 65.5 325.7 65.2Q325.3 65.0 324.7 65.0L324.7 65.0Q324.2 65.0 323.7 65.2Q323.3 65.5 323.1 66.0Q322.8 66.6 322.8 67.4L322.8 67.4Q322.8 68.1 323.1 68.7Q323.3 69.2 323.7 69.5Q324.2 69.8 324.7 69.8ZM332.7 71L331.2 71L331.2 63.7L334.1 63.7Q334.9 63.7 335.5 64.0Q336.1 64.3 336.4 64.8Q336.7 65.4 336.7 66.1Q336.7 66.8 336.4 67.3Q336.1 67.9 335.5 68.1L335.5 68.1Q335.4 68.1 335.4 68.2L335.4 68.2L336.9 71L335.3 71L333.9 68.4L332.7 68.4L332.7 71ZM332.7 65.0L332.7 67.2L333.8 67.2Q334.3 67.2 334.5 67.1Q334.8 66.9 335.0 66.7Q335.1 66.5 335.1 66.1L335.1 66.1Q335.1 65.7 335.0 65.5Q334.8 65.2 334.5 65.1Q334.3 65.0 333.8 65.0L333.8 65.0L332.7 65.0ZM341.3 71L339.8 71L339.8 63.7L341.3 63.7L341.3 65.7L341.3 67.4Q341.3 67.3 341.3 67.3L341.3 67.3Q341.6 66.9 341.8 66.6Q342.1 66.2 342.4 65.8L342.4 65.8L344.2 63.7L346.0 63.7L343.3 66.9L346.1 71L344.3 71L342.3 67.9L341.3 68.9L341.3 71ZM351.7 71.1L351.7 71.1Q350.8 71.1 350.1 70.8Q349.5 70.6 349.1 70.0Q348.8 69.5 348.7 68.7L348.7 68.7L350.2 68.7Q350.2 69.1 350.4 69.4Q350.6 69.6 350.9 69.7Q351.2 69.8 351.6 69.8L351.6 69.8Q352.0 69.8 352.3 69.7Q352.6 69.6 352.8 69.4Q353.0 69.2 353.0 68.9L353.0 68.9Q353.0 68.7 352.8 68.5Q352.7 68.3 352.4 68.2Q352.1 68.1 351.7 68.0L351.7 68.0L350.9 67.8Q350.0 67.6 349.5 67.1Q348.9 66.6 348.9 65.8L348.9 65.8Q348.9 65.2 349.3 64.7Q349.7 64.2 350.3 63.9Q350.9 63.6 351.7 63.6L351.7 63.6Q352.5 63.6 353.1 63.9Q353.7 64.2 354.0 64.7Q354.4 65.2 354.4 65.8L354.4 65.8L352.9 65.8Q352.9 65.4 352.6 65.1Q352.2 64.9 351.7 64.9L351.7 64.9Q351.3 64.9 351.0 65.0Q350.8 65.1 350.6 65.3Q350.5 65.5 350.5 65.7L350.5 65.7Q350.5 66.0 350.6 66.2Q350.8 66.3 351.1 66.5Q351.3 66.6 351.6 66.6L351.6 66.6L352.3 66.8Q352.8 66.9 353.1 67.1Q353.5 67.3 353.8 67.5Q354.1 67.8 354.3 68.1Q354.5 68.5 354.5 68.9L354.5 68.9Q354.5 69.6 354.1 70.1Q353.8 70.6 353.2 70.8Q352.5 71.1 351.7 71.1Z "/></g><mask id="satori_om-id-1-3"><rect x="387" y="31" width="1" height="40" fill="#fff" mask="url(#satori_om-id)"/></mask><rect x="387" y="31" width="1" height="40" fill="rgba(120,80,220,0.2)" clip-path="url(#satori_cp-id)" mask="url(#satori_om-id)"/><mask id="satori_om-id-1-4"><rect x="418" y="28" width="44" height="45" fill="#fff" mask="url(#satori_om-id)"/></mask><mask id="satori_om-id-1-4-0"><rect x="425" y="28" width="31" height="29" fill="#fff" mask="url(#satori_om-id)"/></mask><g mask="url(#satori_om-id)" clip-path="url(#satori_cp-id)"><path fill="#ffffff" d="M432.4 51.2L432.4 51.2Q430.6 51.2 429.2 50.6Q427.8 49.9 427.0 48.8Q426.1 47.6 426.1 46.1L426.1 46.1L429.6 46.1Q429.6 46.8 430.0 47.3Q430.4 47.8 431 48.1Q431.6 48.4 432.4 48.4L432.4 48.4Q433.2 48.4 433.9 48.0Q434.6 47.6 435.0 46.9Q435.4 46.2 435.4 45.3L435.4 45.3Q435.4 44.4 435.0 43.6Q434.6 42.9 433.9 42.5Q433.2 42.1 432.3 42.1L432.3 42.1Q431.5 42.1 430.8 42.4Q430.1 42.7 429.7 43.3L429.7 43.3L426.5 42.7L427.3 33.5L437.9 33.5L437.9 36.5L430.3 36.5L429.8 40.9L429.9 40.9Q430.4 40.3 431.3 39.9Q432.2 39.5 433.3 39.5L433.3 39.5Q434.5 39.5 435.5 39.9Q436.5 40.3 437.3 41.1Q438.0 41.8 438.4 42.9Q438.8 43.9 438.8 45.2L438.8 45.2Q438.8 47.0 438.0 48.3Q437.2 49.7 435.7 50.5Q434.3 51.2 432.4 51.2ZM447.9 51.2L447.9 51.2Q446.6 51.2 445.4 50.8Q444.1 50.3 443.2 49.4Q442.2 48.4 441.6 46.7Q441.0 45.1 441.0 42.7L441.0 42.7Q441.0 40.5 441.5 38.7Q442.0 37.0 442.9 35.8Q443.9 34.6 445.2 33.9Q446.5 33.3 448.1 33.3L448.1 33.3Q449.8 33.3 451.1 34.0Q452.4 34.7 453.3 35.8Q454.1 36.9 454.2 38.4L454.2 38.4L450.7 38.4Q450.5 37.5 449.8 36.9Q449.1 36.4 448.1 36.4L448.1 36.4Q446.9 36.4 446.1 37.1Q445.3 37.7 444.9 39.0Q444.5 40.2 444.5 42.0L444.5 42.0L444.7 42.0Q445.1 41.2 445.7 40.7Q446.4 40.1 447.2 39.8Q448.1 39.5 449.0 39.5L449.0 39.5Q450.6 39.5 451.8 40.2Q453.0 41.0 453.7 42.2Q454.4 43.5 454.4 45.2L454.4 45.2Q454.4 46.9 453.6 48.3Q452.8 49.7 451.3 50.5Q449.9 51.2 447.9 51.2ZM447.9 48.4L447.9 48.4Q448.8 48.4 449.5 48.0Q450.1 47.6 450.5 46.9Q450.9 46.1 450.9 45.3L450.9 45.3Q450.9 44.4 450.6 43.7Q450.2 43.0 449.5 42.6Q448.8 42.1 447.9 42.1L447.9 42.1Q447.3 42.1 446.8 42.4Q446.2 42.6 445.8 43.1Q445.4 43.5 445.1 44.1Q444.9 44.6 444.9 45.3L444.9 45.3Q444.9 46.1 445.3 46.8Q445.7 47.5 446.4 48.0Q447.1 48.4 447.9 48.4Z "/></g><mask id="satori_om-id-1-4-1"><rect x="418" y="61" width="44" height="12" fill="#fff" mask="url(#satori_om-id)"/></mask><g mask="url(#satori_om-id)" clip-path="url(#satori_cp-id)"><path fill="#5a9ca8" d="M420.1 71L418.7 71L418.7 63.7L421.5 63.7Q422.3 63.7 422.9 64.0Q423.5 64.3 423.8 64.8Q424.1 65.4 424.1 66.1Q424.1 66.8 423.8 67.3Q423.5 67.9 422.9 68.1L422.9 68.1Q422.8 68.1 422.8 68.2L422.8 68.2L424.4 71L422.7 71L421.3 68.4L420.1 68.4L420.1 71ZM420.1 65.0L420.1 67.2L421.2 67.2Q421.7 67.2 422.0 67.1Q422.3 66.9 422.4 66.7Q422.6 66.5 422.6 66.1L422.6 66.1Q422.6 65.7 422.4 65.5Q422.3 65.2 422.0 65.1Q421.7 65.0 421.2 65.0L421.2 65.0L420.1 65.0ZM432.1 71L427.2 71L427.2 63.7L432.1 63.7L432.1 65.0L428.7 65.0L428.7 66.7L431.8 66.7L431.8 67.9L428.7 67.9L428.7 69.8L432.1 69.8L432.1 71ZM436.8 71L435.3 71L435.3 63.7L438.1 63.7Q439.0 63.7 439.5 64.0Q440.1 64.4 440.4 64.9Q440.7 65.5 440.7 66.2L440.7 66.2Q440.7 66.9 440.4 67.5Q440.1 68.0 439.5 68.3Q438.9 68.6 438.1 68.6L438.1 68.6L436.8 68.6L436.8 71ZM436.8 65.0L436.8 67.4L437.9 67.4Q438.3 67.4 438.6 67.3Q438.9 67.1 439.1 66.8Q439.2 66.5 439.2 66.2Q439.2 65.8 439.1 65.5Q438.9 65.3 438.6 65.1Q438.3 65.0 437.9 65.0L437.9 65.0L436.8 65.0ZM447.0 71.1L447.0 71.1Q446.0 71.1 445.2 70.7Q444.5 70.2 444.0 69.4Q443.6 68.5 443.6 67.4L443.6 67.4Q443.6 66.2 444.0 65.3Q444.5 64.5 445.2 64.1Q446.0 63.6 447.0 63.6L447.0 63.6Q447.9 63.6 448.7 64.1Q449.5 64.5 449.9 65.3Q450.4 66.2 450.4 67.4L450.4 67.4Q450.4 68.5 449.9 69.4Q449.5 70.2 448.7 70.7Q447.9 71.1 447.0 71.1ZM447.0 69.8L447.0 69.8Q447.5 69.8 448.0 69.5Q448.4 69.2 448.6 68.7Q448.9 68.1 448.9 67.4L448.9 67.4Q448.9 66.6 448.6 66.0Q448.4 65.5 448.0 65.2Q447.5 65.0 447.0 65.0L447.0 65.0Q446.4 65.0 446.0 65.2Q445.6 65.5 445.3 66.0Q445.1 66.6 445.1 67.4L445.1 67.4Q445.1 68.1 445.3 68.7Q445.6 69.2 446.0 69.5Q446.4 69.8 447.0 69.8ZM456.2 71.1L456.2 71.1Q455.3 71.1 454.6 70.8Q454.0 70.6 453.6 70.0Q453.3 69.5 453.2 68.7L453.2 68.7L454.7 68.7Q454.7 69.1 454.9 69.4Q455.1 69.6 455.4 69.7Q455.7 69.8 456.1 69.8L456.1 69.8Q456.5 69.8 456.8 69.7Q457.1 69.6 457.3 69.4Q457.5 69.2 457.5 68.9L457.5 68.9Q457.5 68.7 457.3 68.5Q457.2 68.3 456.9 68.2Q456.6 68.1 456.2 68.0L456.2 68.0L455.4 67.8Q454.5 67.6 454.0 67.1Q453.4 66.6 453.4 65.8L453.4 65.8Q453.4 65.2 453.8 64.7Q454.1 64.2 454.8 63.9Q455.4 63.6 456.2 63.6L456.2 63.6Q457.0 63.6 457.6 63.9Q458.2 64.2 458.5 64.7Q458.9 65.2 458.9 65.8L458.9 65.8L457.4 65.8Q457.4 65.4 457.0 65.1Q456.7 64.9 456.2 64.9L456.2 64.9Q455.8 64.9 455.5 65.0Q455.2 65.1 455.1 65.3Q455.0 65.5 455.0 65.7L455.0 65.7Q455.0 66.0 455.1 66.2Q455.3 66.3 455.6 66.5Q455.8 66.6 456.1 66.6L456.1 66.6L456.8 66.8Q457.2 66.9 457.6 67.1Q458.0 67.3 458.3 67.5Q458.6 67.8 458.8 68.1Q459.0 68.5 459.0 68.9L459.0 68.9Q459.0 69.6 458.6 70.1Q458.3 70.6 457.7 70.8Q457.0 71.1 456.2 71.1Z "/></g><mask id="satori_om-id-1-5"><rect x="492" y="31" width="1" height="40" fill="#fff" mask="url(#satori_om-id)"/></mask><rect x="492" y="31" width="1" height="40" fill="rgba(120,80,220,0.2)" clip-path="url(#satori_cp-id)" mask="url(#satori_om-id)"/><mask id="satori_om-id-1-6"><rect x="523" y="28" width="69" height="45" fill="#fff" mask="url(#satori_om-id)"/></mask><mask id="satori_om-id-1-6-0"><rect x="523" y="28" width="69" height="29" fill="#fff" mask="url(#satori_om-id)"/></mask><g mask="url(#satori_om-id)" clip-path="url(#satori_cp-id)"><path fill="#ffffff" d="M532.5 47.9L524.2 47.9L524.2 45.1L531.5 33.5L536.0 33.5L536.0 45.0L538.2 45.0L538.2 47.9L536.0 47.9L536.0 51L532.5 51L532.5 47.9ZM527.8 45.0L532.6 45.0L532.6 37.5L532.5 37.5L527.8 44.9L527.8 45.0ZM543.3 33.5L547.1 33.5L547.1 51L543.5 51L543.5 36.7L543.4 36.7L539.4 39.5L539.4 36.2L543.3 33.5ZM553.6 33.5L557.4 33.5L557.4 51L553.9 51L553.9 36.7L553.8 36.7L549.8 39.5L549.8 36.2L553.6 33.5ZM567.0 51.2L567.0 51.2Q565.7 51.2 564.5 50.8Q563.2 50.3 562.2 49.4Q561.3 48.4 560.7 46.7Q560.1 45.1 560.1 42.7L560.1 42.7Q560.1 40.5 560.6 38.7Q561.1 37.0 562.0 35.8Q562.9 34.6 564.3 33.9Q565.6 33.3 567.2 33.3L567.2 33.3Q568.9 33.3 570.2 34.0Q571.5 34.7 572.3 35.8Q573.2 36.9 573.3 38.4L573.3 38.4L569.8 38.4Q569.6 37.5 568.9 36.9Q568.2 36.4 567.2 36.4L567.2 36.4Q566.0 36.4 565.2 37.1Q564.4 37.7 564.0 39.0Q563.6 40.2 563.6 42.0L563.6 42.0L563.7 42.0Q564.1 41.2 564.8 40.7Q565.5 40.1 566.3 39.8Q567.2 39.5 568.1 39.5L568.1 39.5Q569.7 39.5 570.9 40.2Q572.1 41.0 572.8 42.2Q573.5 43.5 573.5 45.2L573.5 45.2Q573.5 46.9 572.7 48.3Q571.9 49.7 570.4 50.5Q569.0 51.2 567.0 51.2ZM567.0 48.4L567.0 48.4Q567.9 48.4 568.6 48.0Q569.2 47.6 569.6 46.9Q570.0 46.1 570.0 45.3L570.0 45.3Q570.0 44.4 569.6 43.7Q569.3 43.0 568.6 42.6Q567.9 42.1 567.0 42.1L567.0 42.1Q566.4 42.1 565.8 42.4Q565.3 42.6 564.9 43.1Q564.4 43.5 564.2 44.1Q564.0 44.6 564.0 45.3L564.0 45.3Q564.0 46.1 564.4 46.8Q564.8 47.5 565.5 48.0Q566.1 48.4 567.0 48.4ZM584.1 47.9L575.8 47.9L575.8 45.1L583.1 33.5L587.6 33.5L587.6 45.0L589.8 45.0L589.8 47.9L587.6 47.9L587.6 51L584.1 51L584.1 47.9ZM579.4 45.0L584.2 45.0L584.2 37.5L584.1 37.5L579.4 44.9L579.4 45.0Z "/></g><mask id="satori_om-id-1-6-1"><rect x="526" y="61" width="64" height="12" fill="#fff" mask="url(#satori_om-id)"/></mask><g mask="url(#satori_om-id)" clip-path="url(#satori_cp-id)"><path fill="#7ee7ff" d="M529.8 71.1L529.8 71.1Q528.9 71.1 528.1 70.7Q527.3 70.2 526.9 69.4Q526.5 68.5 526.5 67.4L526.5 67.4Q526.5 66.2 526.9 65.3Q527.3 64.5 528.1 64.1Q528.9 63.6 529.8 63.6L529.8 63.6Q530.5 63.6 531.0 63.8Q531.5 64.0 531.9 64.3Q532.4 64.6 532.6 65.1Q532.9 65.6 533.0 66.2L533.0 66.2L531.5 66.2Q531.4 65.9 531.3 65.7Q531.1 65.4 530.9 65.3Q530.7 65.1 530.4 65.0Q530.2 65.0 529.9 65.0L529.9 65.0Q529.3 65.0 528.9 65.2Q528.4 65.5 528.2 66.1Q528.0 66.6 528.0 67.4L528.0 67.4Q528.0 68.2 528.2 68.7Q528.5 69.2 528.9 69.5Q529.3 69.8 529.9 69.8L529.9 69.8Q530.2 69.8 530.4 69.7Q530.7 69.6 530.9 69.4Q531.1 69.3 531.3 69.0Q531.4 68.8 531.5 68.5L531.5 68.5L533.0 68.5Q532.9 69.0 532.7 69.5Q532.4 69.9 532.0 70.3Q531.6 70.7 531.1 70.9Q530.5 71.1 529.8 71.1ZM539.3 71.1L539.3 71.1Q538.3 71.1 537.5 70.7Q536.8 70.2 536.3 69.4Q535.9 68.5 535.9 67.4L535.9 67.4Q535.9 66.2 536.3 65.3Q536.8 64.5 537.5 64.1Q538.3 63.6 539.3 63.6L539.3 63.6Q540.2 63.6 541.0 64.1Q541.8 64.5 542.2 65.3Q542.6 66.2 542.6 67.4L542.6 67.4Q542.6 68.5 542.2 69.4Q541.8 70.2 541.0 70.7Q540.2 71.1 539.3 71.1ZM539.3 69.8L539.3 69.8Q539.8 69.8 540.2 69.5Q540.7 69.2 540.9 68.7Q541.1 68.1 541.1 67.4L541.1 67.4Q541.1 66.6 540.9 66.0Q540.7 65.5 540.2 65.2Q539.8 65.0 539.3 65.0L539.3 65.0Q538.7 65.0 538.3 65.2Q537.8 65.5 537.6 66.0Q537.4 66.6 537.4 67.4L537.4 67.4Q537.4 68.1 537.6 68.7Q537.8 69.2 538.3 69.5Q538.7 69.8 539.3 69.8ZM547.2 71L545.8 71L545.8 63.7L548.0 63.7L549.2 67.1Q549.3 67.3 549.4 67.7Q549.5 68.0 549.6 68.5L549.6 68.5Q549.7 68.9 549.8 69.3L549.8 69.3Q549.9 68.9 549.9 68.5L549.9 68.5Q550.0 68.1 550.1 67.7Q550.2 67.3 550.3 67.1L550.3 67.1L551.5 63.7L553.8 63.7L553.8 71L552.3 71L552.3 67.6Q552.3 67.3 552.3 67.0Q552.3 66.6 552.3 66.2Q552.3 65.8 552.3 65.4L552.3 65.4Q552.3 65.2 552.3 65.0L552.3 65.0Q552.3 65.2 552.2 65.4L552.2 65.4Q552.1 65.9 552.0 66.3Q551.9 66.7 551.8 67.0Q551.7 67.3 551.6 67.6L551.6 67.6L550.4 71L549.1 71L547.9 67.6Q547.8 67.3 547.7 67.0Q547.6 66.7 547.5 66.3Q547.4 65.9 547.3 65.4L547.3 65.4Q547.2 65.2 547.2 65.1L547.2 65.1Q547.2 65.2 547.2 65.4L547.2 65.4Q547.2 65.8 547.2 66.2Q547.2 66.6 547.2 67.0Q547.2 67.3 547.2 67.6L547.2 67.6L547.2 71ZM558.6 71L557.1 71L557.1 63.7L559.4 63.7L560.5 67.1Q560.6 67.3 560.7 67.7Q560.8 68.0 560.9 68.5L560.9 68.5Q561.0 68.9 561.1 69.3L561.1 69.3Q561.2 68.9 561.3 68.5L561.3 68.5Q561.4 68.1 561.5 67.7Q561.6 67.3 561.6 67.1L561.6 67.1L562.8 63.7L565.1 63.7L565.1 71L563.6 71L563.6 67.6Q563.6 67.3 563.6 67.0Q563.6 66.6 563.6 66.2Q563.6 65.8 563.6 65.4L563.6 65.4Q563.6 65.2 563.6 65.0L563.6 65.0Q563.6 65.2 563.5 65.4L563.5 65.4Q563.4 65.9 563.3 66.3Q563.2 66.7 563.1 67.0Q563.0 67.3 562.9 67.6L562.9 67.6L561.7 71L560.5 71L559.2 67.6Q559.2 67.3 559.1 67.0Q558.9 66.7 558.8 66.3Q558.7 65.9 558.6 65.4L558.6 65.4Q558.6 65.2 558.5 65.1L558.5 65.1Q558.5 65.2 558.5 65.4L558.5 65.4Q558.5 65.8 558.5 66.2Q558.5 66.6 558.6 67.0Q558.6 67.3 558.6 67.6L558.6 67.6L558.6 71ZM568.4 63.7L569.9 63.7L569.9 71L568.4 71L568.4 63.7ZM575.1 65.0L572.9 65.0L572.9 63.7L578.9 63.7L578.9 65.0L576.6 65.0L576.6 71L575.1 71L575.1 65.0ZM584.5 71.1L584.5 71.1Q583.7 71.1 583.0 70.8Q582.4 70.6 582.0 70.0Q581.7 69.5 581.6 68.7L581.6 68.7L583.1 68.7Q583.1 69.1 583.3 69.4Q583.5 69.6 583.8 69.7Q584.1 69.8 584.5 69.8L584.5 69.8Q584.9 69.8 585.2 69.7Q585.5 69.6 585.7 69.4Q585.9 69.2 585.9 68.9L585.9 68.9Q585.9 68.7 585.7 68.5Q585.6 68.3 585.3 68.2Q585.0 68.1 584.6 68.0L584.6 68.0L583.8 67.8Q582.9 67.6 582.4 67.1Q581.8 66.6 581.8 65.8L581.8 65.8Q581.8 65.2 582.2 64.7Q582.5 64.2 583.2 63.9Q583.8 63.6 584.6 63.6L584.6 63.6Q585.4 63.6 586.0 63.9Q586.6 64.2 586.9 64.7Q587.2 65.2 587.3 65.8L587.3 65.8L585.8 65.8Q585.8 65.4 585.4 65.1Q585.1 64.9 584.5 64.9L584.5 64.9Q584.2 64.9 583.9 65.0Q583.6 65.1 583.5 65.3Q583.4 65.5 583.4 65.7L583.4 65.7Q583.4 66.0 583.5 66.2Q583.7 66.3 583.9 66.5Q584.2 66.6 584.5 66.6L584.5 66.6L585.2 66.8Q585.6 66.9 586.0 67.1Q586.4 67.3 586.7 67.5Q587.0 67.8 587.2 68.1Q587.4 68.5 587.4 68.9L587.4 68.9Q587.4 69.6 587.0 70.1Q586.7 70.6 586.1 70.8Q585.4 71.1 584.5 71.1Z "/></g></svg>